<svg width="24" height="25" viewBox="0 0 24 25" fill="none" xmlns="http://www.w3.org/2000/svg">
<path d="M14.8787 4.37868L14.3483 4.90901L14.3483 4.90901L14.8787 4.37868ZM19.1213 8.62132L19.6517 8.09099L19.6517 8.09099L19.1213 8.62132ZM8 12.75C7.58579 12.75 7.25 13.0858 7.25 13.5C7.25 13.9142 7.58579 14.25 8 14.25V12.75ZM12 14.25C12.4142 14.25 12.75 13.9142 12.75 13.5C12.75 13.0858 12.4142 12.75 12 12.75V14.25ZM8 16.75C7.58579 16.75 7.25 17.0858 7.25 17.5C7.25 17.9142 7.58579 18.25 8 18.25V16.75ZM14 18.25C14.4142 18.25 14.75 17.9142 14.75 17.5C14.75 17.0858 14.4142 16.75 14 16.75V18.25ZM17 20.75H7V22.25H17V20.75ZM4.75 18.5V6.5H3.25V18.5H4.75ZM19.25 10.7426V18.5H20.75V10.7426H19.25ZM14.3483 4.90901L18.591 9.15165L19.6517 8.09099L15.409 3.84835L14.3483 4.90901ZM7 4.25H12.7574V2.75H7V4.25ZM15.409 3.84835C14.7057 3.14509 13.7519 2.75 12.7574 2.75V4.25C13.3541 4.25 13.9264 4.48705 14.3483 4.90901L15.409 3.84835ZM20.75 10.7426C20.75 9.74808 20.3549 8.79425 19.6517 8.09099L18.591 9.15165C19.0129 9.57361 19.25 10.1459 19.25 10.7426H20.75ZM7 20.75C5.75736 20.75 4.75 19.7426 4.75 18.5H3.25C3.25 20.5711 4.92893 22.25 7 22.25V20.75ZM17 22.25C19.0711 22.25 20.75 20.5711 20.75 18.5H19.25C19.25 19.7426 18.2426 20.75 17 20.75V22.25ZM4.75 6.5C4.75 5.25736 5.75736 4.25 7 4.25V2.75C4.92893 2.75 3.25 4.42893 3.25 6.5H4.75ZM8 14.25H12V12.75H8V14.25ZM8 18.25H14V16.75H8V18.25ZM13.25 3.5V7.5H14.75V3.5H13.25ZM16 10.25H20V8.75H16V10.25ZM13.25 7.5C13.25 9.01878 14.4812 10.25 16 10.25V8.75C15.3096 8.75 14.75 8.19036 14.75 7.5H13.25Z" fill="#333333"/>
</svg>
