<svg width="26" height="26" viewBox="0 0 26 26" fill="none" xmlns="http://www.w3.org/2000/svg">
<path d="M17.5432 9.45682L12.4568 15.5432L9.75896 12.8953M7.75896 4.00073L6.79186 3.81532C5.02662 3.4769 3.4769 5.02662 3.81532 6.79186L4.00073 7.75896C4.19199 8.75659 3.77124 9.77234 2.93058 10.3425L2.11563 10.8953C0.628121 11.9042 0.628122 14.0958 2.11564 15.1047L2.93058 15.6575C3.77125 16.2277 4.19198 17.2434 4.00073 18.241L3.81532 19.2081C3.4769 20.9734 5.02662 22.5231 6.79186 22.1847L7.75896 21.9993C8.75659 21.808 9.77234 22.2288 10.3425 23.0694L10.8953 23.8844C11.9042 25.3719 14.0958 25.3719 15.1047 23.8844L15.6575 23.0694C16.2277 22.2288 17.2434 21.808 18.241 21.9993L19.2081 22.1847C20.9734 22.5231 22.5231 20.9734 22.1847 19.2081L21.9993 18.241C21.808 17.2434 22.2288 16.2277 23.0694 15.6575L23.8844 15.1047C25.3719 14.0958 25.3719 11.9042 23.8844 10.8953L23.0694 10.3425C22.2288 9.77234 21.808 8.75658 21.9993 7.75896L22.1847 6.79186C22.5231 5.02662 20.9734 3.4769 19.2081 3.81532L18.241 4.00073C17.2434 4.19199 16.2277 3.77124 15.6575 2.93058L15.1047 2.11563C14.0958 0.628121 11.9042 0.628122 10.8953 2.11564L10.3425 2.93058C9.77234 3.77125 8.75658 4.19198 7.75896 4.00073Z" stroke="white" stroke-width="2" stroke-linecap="round" stroke-linejoin="round"/>
</svg>
