<svg width="40" height="40" viewBox="0 0 40 40" fill="none" xmlns="http://www.w3.org/2000/svg">
<path d="M12.5 28.75C13.8807 28.75 15 27.6307 15 26.25C15 24.8693 13.8807 23.75 12.5 23.75C11.1193 23.75 10 24.8693 10 26.25C10 27.6307 11.1193 28.75 12.5 28.75Z" fill="black"/>
<path d="M28.75 27.5C30.1307 27.5 31.25 26.3807 31.25 25C31.25 23.6193 30.1307 22.5 28.75 22.5C27.3693 22.5 26.25 23.6193 26.25 25C26.25 26.3807 27.3693 27.5 28.75 27.5Z" fill="black"/>
<path d="M16.25 15C17.6307 15 18.75 13.8807 18.75 12.5C18.75 11.1193 17.6307 10 16.25 10C14.8693 10 13.75 11.1193 13.75 12.5C13.75 13.8807 14.8693 15 16.25 15Z" fill="black"/>
<path d="M17.5 20C18.1904 20 18.75 19.4404 18.75 18.75C18.75 18.0596 18.1904 17.5 17.5 17.5C16.8096 17.5 16.25 18.0596 16.25 18.75C16.25 19.4404 16.8096 20 17.5 20Z" fill="black"/>
<path d="M28.75 8.75C30.1307 8.75 31.25 7.63071 31.25 6.25C31.25 4.86929 30.1307 3.75 28.75 3.75C27.3693 3.75 26.25 4.86929 26.25 6.25C26.25 7.63071 27.3693 8.75 28.75 8.75Z" fill="black"/>
<path d="M36.25 5C36.9404 5 37.5 4.44036 37.5 3.75C37.5 3.05964 36.9404 2.5 36.25 2.5C35.5596 2.5 35 3.05964 35 3.75C35 4.44036 35.5596 5 36.25 5Z" fill="black"/>
<path d="M20 30C20.6904 30 21.25 29.4404 21.25 28.75C21.25 28.0596 20.6904 27.5 20 27.5C19.3096 27.5 18.75 28.0596 18.75 28.75C18.75 29.4404 19.3096 30 20 30Z" fill="black"/>
<path d="M20 37.5C10.375 37.5 2.5 29.625 2.5 20C2.5 10.375 10.375 2.5 20 2.5C20.125 2.5 20.25 2.5 20.375 2.5L22.125 2.625L21.75 4.125C21.625 4.625 21.5 5.25 21.5 5.75C21.5 9.25 24.25 12 27.75 12C29 12 30.25 11.625 31.375 10.875L33 12.75C32.5 13.25 32.25 13.875 32.25 14.5C32.25 16.125 33.875 17.5 35.625 16.875L37.125 16.25L37.375 17.875C37.5 18.625 37.5 19.375 37.5 20C37.5 29.625 29.625 37.5 20 37.5ZM19.125 5C11.25 5.5 5 12 5 20C5 28.25 11.75 35 20 35C28.25 35 35 28.25 35 20C35 19.875 35 19.625 35 19.5C32.125 19.625 29.75 17.375 29.75 14.5C29.75 14.375 29.75 14.375 29.75 14.25C29.125 14.375 28.5 14.5 27.75 14.5C22.875 14.5 19 10.625 19 5.75C19 5.5 19 5.25 19.125 5Z" fill="black"/>
</svg>
