<svg width="40" height="40" viewBox="0 0 40 40" fill="none" xmlns="http://www.w3.org/2000/svg">
<path opacity="0.5" d="M17.0576 26.6665C17.0576 21.7118 21.0742 17.6953 26.0288 17.6953C30.9834 17.6953 35 21.7119 35 26.6665V35.6377H26.0288C21.0742 35.6377 17.0576 31.6211 17.0576 26.6665Z" fill="#94C8FB" stroke="#94C8FB" stroke-width="1.82747" stroke-linejoin="round"/>
<path d="M3.88892 16.5279C3.88892 9.77774 9.36099 4.30566 16.1111 4.30566C22.8613 4.30566 28.3334 9.77774 28.3334 16.5279C28.3334 23.278 22.8613 28.7501 16.1111 28.7501H3.88892V16.5279Z" fill="#5FAFFE" stroke="#5FAFFE" stroke-width="2.48971" stroke-linejoin="round"/>
<path d="M20.6378 15.1697L20.6378 17.8857L23.5802 17.8857L23.5802 15.1697L20.6378 15.1697Z" fill="white"/>
<path d="M14.9794 15.1697L14.9794 17.8857L17.6954 17.8857L17.6954 15.1697L14.9794 15.1697Z" fill="white"/>
<path d="M9.0946 15.1697L9.0946 17.8857L11.8107 17.8857L11.8107 15.1697L9.0946 15.1697Z" fill="white"/>
</svg>
