<svg width="40" height="40" viewBox="0 0 40 40" fill="none" xmlns="http://www.w3.org/2000/svg">
<path opacity="0.5" d="M19.1145 26.9736H14V36.3243H19.1145V26.9736Z" fill="#94C8FB"/>
<path d="M27.506 24.4868H22.3916V36.3244H27.506V24.4868Z" fill="#5FAFFE"/>
<path opacity="0.5" d="M35.9036 22H30.7892V36.3245H35.9036V22Z" fill="#94C8FB"/>
<path d="M9.10241 18.4556L2.61446 25.1515C1.79518 25.997 1.79518 27.3711 2.61446 28.2166C3.43373 29.0621 4.76506 29.0621 5.58434 28.2166L12.0723 21.5207C11.488 21.1352 10.9337 20.6875 10.4217 20.1591C9.90964 19.6306 9.4759 19.0586 9.10241 18.4556Z" fill="#5FAFFE"/>
<path d="M11.401 7.04812C8.18562 10.3666 8.18562 15.7394 11.401 19.0579C14.6507 22.4118 19.9638 22.4118 23.2135 19.0579C26.4289 15.7394 26.4289 10.3666 23.2135 7.04812C19.9638 3.69425 14.6507 3.69425 11.401 7.04812Z" stroke="#5FAFFE" stroke-width="4"/>
</svg>
