<svg width="40" height="40" viewBox="0 0 40 40" fill="none" xmlns="http://www.w3.org/2000/svg">
<path opacity="0.5" d="M10.6587 14.9177C9.1945 13.9755 8.21835 12.3353 8.21835 10.4682V8.28708C8.21835 5.36435 10.5803 3 13.5 3C16.4197 3 18.7817 5.36435 18.7817 8.28708V10.4682C18.7817 12.344 17.8055 13.9842 16.3413 14.9177C20.2023 16.1305 23 19.7337 23 24H4C4 19.7337 6.79771 16.1305 10.6587 14.9177Z" fill="#94C8FB"/>
<path d="M19.1017 24.4604C17.094 23.1675 15.7638 20.8945 15.7638 18.3089V15.3007C15.7638 11.2701 19.0013 8 22.9916 8C26.982 8 30.2194 11.2701 30.2194 15.3007V18.3089C30.2194 20.8945 28.8893 23.1591 26.8816 24.4604C32.1602 26.1334 36 31.1104 36 37H10C10 31.1104 13.8314 26.1334 19.1184 24.4604H19.1017Z" fill="#5FAFFE"/>
<path d="M9.5 36.957C13.6421 36.957 17 33.5992 17 29.457C17 25.3149 13.6421 21.957 9.5 21.957C5.35786 21.957 2 25.3149 2 29.457C2 33.5992 5.35786 36.957 9.5 36.957Z" fill="#097EEA"/>
<path d="M8.52114 25.6738L7.01104 26.5425L5.50095 27.4162L7.01104 28.29L8.52114 29.1587V28.4011H13.5009V26.4314H8.52114V25.6738Z" fill="white"/>
<path d="M10.4757 33.2775L11.9908 32.4038L13.5009 31.53L11.9858 30.6613L10.4757 29.7876V30.5452H5.50093V32.5149H10.4757V33.2775Z" fill="white"/>
</svg>
