<svg width="234" height="206" viewBox="0 0 234 206" fill="none" xmlns="http://www.w3.org/2000/svg">
<g clip-path="url(#clip0_173_5414)">
<path d="M140.209 41.4443C133.884 44.2818 126.88 45.8789 119.51 45.8789C112.141 45.8789 105.136 44.2818 98.8113 41.4443L119.518 0L140.217 41.4443H140.209ZM70.1194 98.9003L78.25 82.6129C84.9472 85.272 89.879 91.4741 90.6969 98.9003H70.1113H70.1194ZM126.515 95.244L110.691 63.5527L94.6326 95.7142C92.8753 87.9799 87.4252 81.64 80.2421 78.6565L96.8515 45.4006C103.775 48.5381 111.444 50.2974 119.526 50.2974C127.608 50.2974 135.277 48.5381 142.201 45.4006L149.83 60.6665C137.334 67.7117 128.418 80.3915 126.531 95.244H126.515ZM130.605 98.9003C131.366 84.21 139.715 71.5059 151.781 64.6229L157.442 75.9649L145.983 98.9003H130.597H130.605ZM150.931 98.9003L159.92 80.9022L168.909 98.9003H150.931Z" fill="#097EEA"/>
<path d="M72.5085 135.286H67.9087L65.6089 130.008H58.4663L56.053 135.286H53L62.9446 113.234L72.5085 135.286ZM59.3247 128.208H64.8476L62.1266 121.958L59.3247 128.208Z" fill="#097EEA"/>
<path d="M83.3519 125.314C83.3519 124.941 83.3114 124.617 83.2385 124.325C83.1575 124.033 83.0603 123.79 82.9308 123.596C82.8012 123.401 82.6473 123.255 82.4854 123.15C82.3153 123.052 82.1453 123.004 81.9671 123.004C81.7889 123.004 81.5784 123.044 81.3435 123.117C81.1087 123.19 80.8657 123.304 80.6066 123.441C80.3475 123.579 80.0883 123.75 79.813 123.944C79.5376 124.139 79.2866 124.366 79.0437 124.617V135.286H74.8164V122.007L79.0437 120.377V121.861C79.6915 121.366 80.3879 121.001 81.1249 120.766C81.8618 120.531 82.5988 120.417 83.3276 120.417C83.8945 120.417 84.437 120.531 84.9472 120.766C85.4574 121.001 85.9028 121.317 86.2834 121.715C86.664 122.112 86.9718 122.582 87.1985 123.117C87.4253 123.652 87.5386 124.228 87.5386 124.836V135.278H83.3519V125.306V125.314Z" fill="#097EEA"/>
<path d="M91.5547 115.586C91.5547 115.294 91.6114 115.01 91.7328 114.743C91.8462 114.475 92.0163 114.248 92.2187 114.062C92.4293 113.875 92.6641 113.721 92.9395 113.608C93.2148 113.494 93.5063 113.438 93.8222 113.438C94.138 113.438 94.4295 113.494 94.7049 113.608C94.9802 113.721 95.2232 113.875 95.4256 114.062C95.6281 114.248 95.79 114.483 95.9034 114.743C96.0168 115.01 96.0816 115.286 96.0816 115.586C96.0816 115.886 96.0249 116.162 95.9034 116.421C95.7819 116.68 95.6281 116.907 95.4256 117.102C95.2232 117.288 94.9802 117.442 94.7049 117.556C94.4295 117.669 94.1299 117.726 93.8222 117.726C93.5144 117.726 93.2148 117.669 92.9395 117.556C92.6641 117.442 92.4293 117.288 92.2187 117.102C92.0082 116.916 91.8462 116.689 91.7328 116.421C91.6114 116.162 91.5547 115.878 91.5547 115.586ZM91.7328 122.007L95.9439 120.377V135.287H91.7328V122.007Z" fill="#097EEA"/>
<path d="M100.391 114.856L104.618 113.227V121.682C105.16 121.309 105.752 121.01 106.391 120.766C107.031 120.531 107.647 120.41 108.246 120.41C109.112 120.41 109.914 120.58 110.643 120.928C111.372 121.277 112.003 121.747 112.538 122.339C113.072 122.931 113.485 123.628 113.785 124.415C114.085 125.201 114.23 126.044 114.23 126.928C114.23 127.706 114.133 128.46 113.947 129.19C113.761 129.919 113.485 130.6 113.145 131.233C112.797 131.873 112.384 132.457 111.89 132.984C111.404 133.519 110.862 133.973 110.262 134.346C109.663 134.719 109.031 135.011 108.343 135.222C107.663 135.432 106.95 135.538 106.213 135.538C105.12 135.538 104.075 135.384 103.079 135.076C102.083 134.768 101.184 134.273 100.391 133.6V114.84V114.856ZM104.618 132.643C104.764 132.773 104.909 132.903 105.063 133.033C105.217 133.154 105.379 133.268 105.549 133.357C105.719 133.454 105.905 133.527 106.108 133.584C106.31 133.641 106.521 133.673 106.756 133.673C107.225 133.673 107.655 133.527 108.035 133.227C108.416 132.927 108.748 132.514 109.023 131.987C109.299 131.46 109.509 130.836 109.663 130.122C109.809 129.401 109.89 128.63 109.89 127.803C109.89 127.187 109.809 126.604 109.663 126.052C109.509 125.509 109.299 125.023 109.031 124.609C108.764 124.196 108.448 123.871 108.092 123.628C107.728 123.393 107.347 123.271 106.942 123.271C106.537 123.271 106.148 123.393 105.727 123.636C105.306 123.879 104.934 124.188 104.634 124.552V132.643H104.618Z" fill="#097EEA"/>
<path d="M117.227 115.586C117.227 115.294 117.283 115.01 117.405 114.743C117.518 114.475 117.688 114.248 117.891 114.062C118.101 113.875 118.336 113.721 118.611 113.608C118.887 113.494 119.178 113.438 119.494 113.438C119.81 113.438 120.101 113.494 120.377 113.608C120.652 113.721 120.895 113.875 121.097 114.062C121.3 114.248 121.462 114.483 121.575 114.743C121.689 115.01 121.753 115.286 121.753 115.586C121.753 115.886 121.697 116.162 121.575 116.421C121.454 116.68 121.3 116.907 121.097 117.102C120.895 117.288 120.652 117.442 120.377 117.556C120.101 117.669 119.802 117.726 119.494 117.726C119.186 117.726 118.887 117.669 118.611 117.556C118.336 117.442 118.101 117.288 117.891 117.102C117.68 116.916 117.518 116.689 117.405 116.421C117.283 116.162 117.227 115.878 117.227 115.586ZM117.405 122.007L121.616 120.377V135.287H117.405V122.007Z" fill="#097EEA"/>
<path d="M132.418 135.554C131.317 135.554 130.296 135.368 129.365 134.987C128.434 134.606 127.624 134.087 126.944 133.414C126.264 132.749 125.729 131.963 125.348 131.071C124.968 130.171 124.773 129.198 124.773 128.152C124.773 127.033 124.968 125.996 125.348 125.047C125.729 124.099 126.264 123.288 126.936 122.599C127.616 121.918 128.418 121.383 129.349 120.994C130.28 120.604 131.301 120.418 132.402 120.418C133.503 120.418 134.524 120.604 135.463 120.985C136.402 121.358 137.212 121.877 137.892 122.534C138.573 123.191 139.107 123.961 139.496 124.853C139.885 125.744 140.079 126.701 140.079 127.731C140.079 128.76 139.885 129.822 139.504 130.771C139.123 131.719 138.589 132.555 137.909 133.26C137.228 133.965 136.419 134.533 135.479 134.946C134.54 135.36 133.519 135.57 132.418 135.57V135.554ZM132.904 133.771C133.285 133.771 133.633 133.641 133.957 133.381C134.281 133.122 134.564 132.765 134.799 132.328C135.042 131.882 135.22 131.371 135.358 130.795C135.487 130.212 135.552 129.612 135.552 128.987C135.552 128.055 135.487 127.179 135.358 126.352C135.228 125.534 135.01 124.812 134.718 124.188C134.418 123.572 134.038 123.077 133.56 122.72C133.082 122.356 132.507 122.177 131.819 122.177C131.487 122.177 131.163 122.307 130.855 122.566C130.547 122.826 130.28 123.166 130.045 123.604C129.811 124.034 129.624 124.536 129.487 125.104C129.349 125.671 129.276 126.263 129.276 126.896C129.276 127.836 129.357 128.728 129.527 129.563C129.697 130.398 129.932 131.128 130.248 131.752C130.556 132.376 130.936 132.871 131.382 133.236C131.827 133.6 132.337 133.787 132.904 133.787V133.771Z" fill="#097EEA"/>
<path d="M160.682 125.379C160.682 125.055 160.642 124.746 160.569 124.463C160.488 124.171 160.382 123.92 160.253 123.709C160.123 123.498 159.961 123.32 159.775 123.198C159.597 123.068 159.402 123.003 159.192 123.003C158.949 123.003 158.698 123.044 158.431 123.133C158.172 123.222 157.912 123.336 157.653 123.474C157.394 123.611 157.151 123.782 156.933 123.976C156.706 124.163 156.511 124.365 156.333 124.576V135.286H152.179V125.387C152.179 125.063 152.138 124.755 152.057 124.471C151.976 124.179 151.863 123.928 151.725 123.717C151.588 123.506 151.426 123.328 151.248 123.206C151.069 123.076 150.883 123.012 150.689 123.012C150.462 123.012 150.219 123.052 149.968 123.141C149.717 123.23 149.45 123.344 149.199 123.482C148.948 123.62 148.697 123.79 148.454 123.984C148.211 124.171 148 124.374 147.814 124.584V135.294H143.619V122.014L147.814 120.385V121.966C148.47 121.487 149.158 121.114 149.863 120.839C150.567 120.563 151.248 120.425 151.904 120.425C152.268 120.425 152.624 120.466 152.997 120.555C153.369 120.644 153.718 120.766 154.05 120.92C154.382 121.074 154.697 121.268 154.989 121.487C155.281 121.714 155.523 121.966 155.734 122.249C156.05 121.982 156.398 121.739 156.779 121.512C157.159 121.285 157.556 121.09 157.977 120.936C158.398 120.782 158.828 120.652 159.265 120.563C159.702 120.474 160.139 120.425 160.569 120.425C161.152 120.425 161.71 120.547 162.237 120.782C162.763 121.017 163.225 121.35 163.622 121.763C164.018 122.185 164.334 122.671 164.569 123.23C164.804 123.79 164.917 124.398 164.917 125.038V135.278H160.682V125.379Z" fill="#097EEA"/>
<path d="M175.622 135.611C174.642 135.611 173.711 135.417 172.845 135.036C171.978 134.646 171.225 134.136 170.585 133.479C169.945 132.83 169.435 132.068 169.063 131.209C168.69 130.35 168.504 129.442 168.504 128.477C168.504 127.326 168.674 126.255 169.022 125.275C169.362 124.294 169.848 123.434 170.488 122.713C171.12 121.991 171.873 121.424 172.755 121.018C173.638 120.613 174.618 120.41 175.703 120.41C176.667 120.41 177.55 120.572 178.359 120.897C179.161 121.221 179.849 121.659 180.424 122.226C180.999 122.786 181.445 123.45 181.761 124.212C182.076 124.975 182.238 125.785 182.238 126.653H172.642C172.674 127.463 172.796 128.234 172.99 128.963C173.185 129.693 173.444 130.342 173.768 130.893C174.092 131.444 174.472 131.89 174.91 132.222C175.347 132.547 175.833 132.717 176.367 132.717C176.829 132.717 177.282 132.636 177.728 132.466C178.173 132.303 178.586 132.068 178.967 131.785C179.347 131.493 179.671 131.16 179.955 130.771C180.238 130.382 180.441 129.969 180.562 129.523L182.7 129.879C182.481 130.666 182.141 131.412 181.663 132.101C181.186 132.798 180.635 133.406 179.995 133.925C179.355 134.452 178.667 134.857 177.914 135.157C177.161 135.457 176.408 135.603 175.638 135.603L175.622 135.611ZM177.396 125.145C177.363 124.715 177.274 124.326 177.128 123.969C176.991 123.613 176.813 123.304 176.594 123.053C176.375 122.802 176.124 122.599 175.833 122.461C175.541 122.323 175.233 122.25 174.901 122.25C174.642 122.25 174.383 122.323 174.132 122.461C173.881 122.599 173.654 122.794 173.452 123.045C173.249 123.296 173.079 123.604 172.934 123.961C172.796 124.318 172.699 124.715 172.658 125.153H177.396V125.145Z" fill="#097EEA"/>
<path d="M53.8574 143.416H55.5499V147.316H59.5666V143.416H61.2592V152.869H59.5666V148.653H55.5499V152.869H53.8574V143.416Z" fill="#097EEA"/>
<path d="M70.0625 149.416V149.221C70.0625 146.838 71.5121 145.662 73.3099 145.662C75.3992 145.662 76.3143 146.83 76.3143 149.091V149.756H71.6902C71.7874 151.232 72.5405 151.751 73.8929 151.751C74.7999 151.751 75.464 151.548 76.0794 151.224V152.326C75.6017 152.642 74.7756 152.991 73.5771 152.991C71.2205 152.991 70.0706 151.653 70.0706 149.408L70.0625 149.416ZM71.6902 148.67H74.7028C74.7028 147.332 74.2088 146.838 73.2856 146.838C72.5567 146.838 71.7955 147.227 71.6902 148.67Z" fill="#097EEA"/>
<path d="M84.5254 150.988C84.5254 149.675 85.3919 149.075 86.7929 148.864L88.4611 148.67V148.135C88.4611 147.17 88.0319 146.951 86.8334 146.951C86.145 146.951 85.5377 147.048 85.1166 147.145V146.059C85.7806 145.8 86.5337 145.67 87.4569 145.67C89.0928 145.67 90.0483 146.302 90.0483 147.778V152.877H88.7364L88.615 152.302H88.534C88.1939 152.699 87.627 153.007 86.7038 153.007C85.4243 153.007 84.5254 152.358 84.5254 150.996V150.988ZM88.4611 151.459V149.707L87.1492 149.845C86.4447 149.902 86.0721 150.186 86.0721 150.907C86.0721 151.58 86.5256 151.888 87.1735 151.888C87.6837 151.888 88.1939 151.71 88.453 151.459H88.4611Z" fill="#097EEA"/>
<path d="M99.0781 142.801H100.673V152.878H99.0781V142.801Z" fill="#097EEA"/>
<path d="M110.164 151.119V147.008H109.176V145.768H110.164V144.098H111.719V145.768H113.411V147.008H111.719V150.892C111.719 151.483 111.937 151.702 112.682 151.702C112.958 151.702 113.249 151.662 113.492 151.589V152.651C113.217 152.789 112.828 152.943 112.172 152.943C110.949 152.943 110.164 152.448 110.164 151.11V151.119Z" fill="#097EEA"/>
<path d="M122.102 142.801H123.681V146.384H123.745C124.32 145.954 125.146 145.655 126.005 145.655C127.365 145.655 128.07 146.206 128.07 147.608V152.87H126.475V147.981C126.475 147.268 126.24 146.976 125.276 146.976C124.725 146.976 124.11 147.154 123.681 147.365V152.878H122.102V142.801Z" fill="#097EEA"/>
<path d="M136.662 149.481V149.262C136.662 146.806 138.152 145.654 140.12 145.654C141.059 145.654 141.618 145.833 142.072 146.084V147.324C141.481 147.089 141.051 146.935 140.217 146.935C139.035 146.935 138.306 147.681 138.306 149.1V149.416C138.306 151.046 138.978 151.735 140.331 151.735C141.197 151.735 141.788 151.459 142.145 151.297V152.456C141.691 152.748 141.027 153.008 140.055 153.008C137.966 153.008 136.67 151.832 136.67 149.497L136.662 149.481Z" fill="#097EEA"/>
<path d="M150.283 150.988C150.283 149.675 151.15 149.075 152.551 148.864L154.219 148.67V148.135C154.219 147.17 153.79 146.951 152.591 146.951C151.903 146.951 151.295 147.048 150.874 147.145V146.059C151.538 145.8 152.292 145.67 153.215 145.67C154.851 145.67 155.806 146.302 155.806 147.778V152.877H154.494L154.373 152.302H154.292C153.952 152.699 153.385 153.007 152.462 153.007C151.182 153.007 150.283 152.358 150.283 150.996V150.988ZM154.219 151.459V149.707L152.907 149.845C152.202 149.902 151.83 150.186 151.83 150.907C151.83 151.58 152.283 151.888 152.931 151.888C153.441 151.888 153.952 151.71 154.211 151.459H154.219Z" fill="#097EEA"/>
<path d="M164.803 145.775H166.333V146.602H166.39C166.779 146.092 167.508 145.719 168.244 145.719C168.439 145.719 168.617 145.735 168.682 145.759V147.162C168.504 147.138 168.269 147.121 168.107 147.121C167.475 147.121 166.843 147.3 166.39 147.592V152.869H164.811V145.775H164.803Z" fill="#097EEA"/>
<path d="M176.756 149.416V149.221C176.756 146.838 178.205 145.662 180.003 145.662C182.093 145.662 183.008 146.83 183.008 149.091V149.756H178.384C178.481 151.232 179.234 151.751 180.586 151.751C181.493 151.751 182.157 151.548 182.773 151.224V152.326C182.295 152.642 181.469 152.991 180.27 152.991C177.914 152.991 176.764 151.653 176.764 149.408L176.756 149.416ZM178.384 148.67H181.396C181.396 147.332 180.902 146.838 179.979 146.838C179.25 146.838 178.489 147.227 178.384 148.67Z" fill="#097EEA"/>
</g>
<path d="M16.9043 187.848V190.061H11.2754V194.551H18.8594V196.742H0.962891V194.551H8.50391V190.061H2.96094V180.93H5.77539V187.848H16.9043ZM29.3652 180.436V186.516H23.457V188.481C26.3574 188.46 28.0977 188.363 30.0742 188.02L30.332 190.211C28.0439 190.63 25.9922 190.705 22.2109 190.705H20.75V184.453H26.6367V182.648H20.707V180.436H29.3652ZM23.0488 195.367C23.0488 193.025 25.6055 191.64 29.8164 191.65C33.9951 191.64 36.541 193.025 36.5625 195.367C36.541 197.709 33.9951 199.052 29.8164 199.041C25.6055 199.052 23.0488 197.709 23.0488 195.367ZM25.8418 195.367C25.8203 196.441 27.1846 196.957 29.8164 196.957C32.416 196.957 33.8232 196.441 33.834 195.367C33.8232 194.261 32.416 193.734 29.8164 193.734C27.1846 193.734 25.8203 194.261 25.8418 195.367ZM30.5039 188.277V186.086H33.7051V184.26H30.5039V182.047H33.7051V179.447H36.4551V191.328H33.7051V188.277H30.5039ZM56.8652 188.664V190.812H38.9902V188.664H46.5957V186.988H41.1602V180.285H54.7168V182.412H43.8887V184.84H54.8242V186.988H49.2812V188.664H56.8652ZM41.0312 195.41C41.0312 193.09 43.6094 191.801 47.8848 191.801C52.1279 191.801 54.6738 193.09 54.6953 195.41C54.6738 197.698 52.1279 198.998 47.8848 198.998C43.6094 198.998 41.0312 197.698 41.0312 195.41ZM43.8242 195.41C43.8135 196.431 45.1777 196.914 47.8848 196.914C50.5381 196.914 51.9346 196.431 51.9453 195.41C51.9346 194.4 50.5381 193.885 47.8848 193.885C45.1777 193.885 43.8135 194.4 43.8242 195.41ZM75.8359 187.182V189.352H68.2734V190.598H73.666V195.604H62.7734V196.785H74.1816V198.848H60.0879V193.67H70.959V192.66H60.0664V190.598H65.5234V189.352H58.0039V187.182H75.8359ZM60.2168 186.15V179.984H73.5801V186.15H60.2168ZM62.9023 184.045H70.8516V182.111H62.9023V184.045ZM93.4961 179.447V193.713H90.7676V186.709H87.5664V184.496H90.7676V179.447H93.4961ZM76.9102 189.309C80.1436 188.299 81.6045 185.753 81.6152 183.25V182.949H77.6836V180.758H88.2969V182.949H84.4082V183.271C84.3975 185.538 85.7939 187.955 88.8984 188.965L87.5449 191.135C85.3857 190.426 83.8926 189.008 83.0439 187.257C82.1738 189.201 80.6162 190.78 78.3066 191.543L76.9102 189.309ZM80.5195 198.633V192.467H83.2695V196.441H93.9688V198.633H80.5195ZM113.906 189.094V191.264H106.537V194.637H103.83V191.264H96.0098V189.094H113.906ZM98.1152 198.633V192.939H100.844V196.441H111.93V198.633H98.1152ZM98.2441 187.482V180.285H111.607V187.482H98.2441ZM100.93 185.355H108.922V182.412H100.93V185.355ZM129.611 181.424V183.551H120.008V181.424H123.467V179.555H126.195V181.424H129.611ZM120.609 187.719C120.599 185.603 122.393 184.152 124.842 184.152C127.323 184.152 129.106 185.603 129.117 187.719C129.106 189.738 127.323 191.167 124.842 191.178C122.393 191.167 120.599 189.738 120.609 187.719ZM123.059 187.719C123.048 188.643 123.778 189.158 124.842 189.158C125.905 189.158 126.636 188.643 126.646 187.719C126.636 186.709 125.905 186.183 124.842 186.193C123.778 186.183 123.048 186.709 123.059 187.719ZM123.402 194.744V192.553H136.916V198.977H134.188V194.744H123.402ZM130.213 191.564V179.748H132.812V184.604H134.316V179.447H136.916V191.672H134.316V186.838H132.812V191.564H130.213ZM155.5 179.447V190.469H152.75V179.447H155.5ZM139.064 187.977C142.341 186.988 143.77 184.485 143.77 182.047V180.156H146.627V182.047C146.605 184.421 148.045 186.698 151.203 187.676L149.871 189.76C147.637 189.094 146.09 187.74 145.209 185.989C144.317 187.891 142.728 189.395 140.396 190.125L139.064 187.977ZM142.395 198.762V191.371H155.5V198.762H142.395ZM145.102 196.57H152.814V193.541H145.102V196.57ZM174.621 179.447V193.734H171.893V189.094H167.424C166.479 190.093 165.125 190.705 163.6 190.705C160.635 190.705 158.379 188.557 158.4 185.656C158.379 182.713 160.635 180.575 163.6 180.564C165.114 180.575 166.468 181.177 167.413 182.176H171.893V179.447H174.621ZM161 185.656C160.989 187.289 162.074 188.277 163.6 188.277C165.039 188.277 166.146 187.289 166.156 185.656C166.146 184.002 165.039 183.014 163.6 183.014C162.074 183.014 160.989 184.002 161 185.656ZM161.645 198.633V192.295H164.395V196.441H175.094V198.633H161.645ZM168.595 184.367C168.702 184.775 168.756 185.205 168.756 185.656C168.756 186.086 168.702 186.505 168.605 186.902H171.893V184.367H168.595ZM192.904 180.564V182.326C192.894 184.152 192.894 186.14 192.399 188.879H194.988V191.092H187.361V198.998H184.611V191.092H177.156V188.879H189.617C190.122 186.365 190.165 184.442 190.176 182.756H179.197V180.564H192.904ZM212.971 179.426V194.057H210.371V179.426H212.971ZM195.934 189.438C198.598 188.159 199.672 185.603 199.672 183.293V180.736H202.336V183.293C202.325 185.549 203.303 187.794 205.816 188.943L204.291 191.049C202.723 190.318 201.67 189.083 201.025 187.59C200.338 189.298 199.167 190.716 197.438 191.521L195.934 189.438ZM199.715 198.633V192.338H202.465V196.441H213.465V198.633H199.715ZM204.033 186.129V183.895H206.418V179.727H209.018V193.477H206.418V186.129H204.033ZM231.684 179.426V199.02H228.977V188.535H225.539V186.322H228.977V179.426H231.684ZM216.086 194.594V181.059H225.217V183.271H218.814V186.516H224.508V188.664H218.814V192.359C221.532 192.338 223.702 192.241 226.119 191.865L226.398 194.057C223.541 194.486 220.984 194.583 217.633 194.594H216.086Z" fill="#097EEA"/>
<defs>
<clipPath id="clip0_173_5414">
<rect width="130" height="153" fill="white" transform="translate(53)"/>
</clipPath>
</defs>
</svg>
