<svg width="130" height="153" viewBox="0 0 130 153" fill="none" xmlns="http://www.w3.org/2000/svg">
<g clip-path="url(#clip0_244_5594)">
<path d="M87.2091 41.4443C80.8845 44.2818 73.8795 45.8789 66.5102 45.8789C59.1409 45.8789 52.1359 44.2818 45.8113 41.4443L66.5183 0L87.2172 41.4443H87.2091ZM17.1194 98.9003L25.25 82.6129C31.9472 85.272 36.879 91.4741 37.6969 98.9003H17.1113H17.1194ZM73.5151 95.244L57.6913 63.5527L41.6326 95.7142C39.8753 87.9799 34.4252 81.64 27.2421 78.6565L43.8515 45.4006C50.7754 48.5381 58.4444 50.2974 66.5264 50.2974C74.6084 50.2974 82.2773 48.5381 89.2013 45.4006L96.8298 60.6665C84.3343 67.7117 75.4182 80.3915 73.5313 95.244H73.5151ZM77.6047 98.9003C78.3659 84.21 86.7151 71.5059 98.7814 64.6229L104.442 75.9649L92.9831 98.9003H77.5966H77.6047ZM97.9311 98.9003L106.92 80.9022L115.909 98.9003H97.9311Z" fill="#097EEA"/>
<path d="M19.5085 135.286H14.9087L12.6089 130.008H5.46627L3.05301 135.286H0L9.94456 113.234L19.5085 135.286ZM6.32467 128.208H11.8476L9.12664 121.958L6.32467 128.208Z" fill="#097EEA"/>
<path d="M30.3519 125.314C30.3519 124.941 30.3114 124.617 30.2385 124.325C30.1575 124.033 30.0603 123.79 29.9308 123.596C29.8012 123.401 29.6473 123.255 29.4854 123.15C29.3153 123.052 29.1453 123.004 28.9671 123.004C28.7889 123.004 28.5784 123.044 28.3435 123.117C28.1087 123.19 27.8657 123.304 27.6066 123.441C27.3475 123.579 27.0883 123.75 26.813 123.944C26.5376 124.139 26.2866 124.366 26.0437 124.617V135.286H21.8164V122.007L26.0437 120.377V121.861C26.6915 121.366 27.3879 121.001 28.1249 120.766C28.8618 120.531 29.5988 120.417 30.3276 120.417C30.8945 120.417 31.437 120.531 31.9472 120.766C32.4574 121.001 32.9028 121.317 33.2834 121.715C33.664 122.112 33.9718 122.582 34.1985 123.117C34.4253 123.652 34.5386 124.228 34.5386 124.836V135.278H30.3519V125.306V125.314Z" fill="#097EEA"/>
<path d="M38.5547 115.586C38.5547 115.294 38.6114 115.01 38.7328 114.743C38.8462 114.475 39.0163 114.248 39.2187 114.062C39.4293 113.875 39.6641 113.721 39.9395 113.608C40.2148 113.494 40.5063 113.438 40.8222 113.438C41.138 113.438 41.4295 113.494 41.7049 113.608C41.9802 113.721 42.2232 113.875 42.4256 114.062C42.6281 114.248 42.79 114.483 42.9034 114.743C43.0168 115.01 43.0816 115.286 43.0816 115.586C43.0816 115.886 43.0249 116.162 42.9034 116.421C42.7819 116.68 42.6281 116.907 42.4256 117.102C42.2232 117.288 41.9802 117.442 41.7049 117.556C41.4295 117.669 41.1299 117.726 40.8222 117.726C40.5144 117.726 40.2148 117.669 39.9395 117.556C39.6641 117.442 39.4293 117.288 39.2187 117.102C39.0082 116.916 38.8462 116.689 38.7328 116.421C38.6114 116.162 38.5547 115.878 38.5547 115.586ZM38.7328 122.007L42.9439 120.377V135.287H38.7328V122.007Z" fill="#097EEA"/>
<path d="M47.3906 114.856L51.6179 113.227V121.682C52.1605 121.309 52.7516 121.01 53.3914 120.766C54.0311 120.531 54.6466 120.41 55.2459 120.41C56.1124 120.41 56.9141 120.58 57.6429 120.928C58.3718 121.277 59.0034 121.747 59.5379 122.339C60.0724 122.931 60.4854 123.628 60.785 124.415C61.0846 125.201 61.2304 126.044 61.2304 126.928C61.2304 127.706 61.1332 128.46 60.947 129.19C60.7607 129.919 60.4854 130.6 60.1452 131.233C59.797 131.873 59.384 132.457 58.89 132.984C58.4041 133.519 57.8616 133.973 57.2623 134.346C56.663 134.719 56.0314 135.011 55.343 135.222C54.6628 135.432 53.9501 135.538 53.2132 135.538C52.12 135.538 51.0753 135.384 50.0792 135.076C49.0831 134.768 48.1842 134.273 47.3906 133.6V114.84V114.856ZM51.6179 132.643C51.7636 132.773 51.9094 132.903 52.0633 133.033C52.2171 133.154 52.3791 133.268 52.5492 133.357C52.7192 133.454 52.9055 133.527 53.1079 133.584C53.3104 133.641 53.5209 133.673 53.7558 133.673C54.2255 133.673 54.6547 133.527 55.0353 133.227C55.4159 132.927 55.7479 132.514 56.0233 131.987C56.2986 131.46 56.5092 130.836 56.663 130.122C56.8088 129.401 56.8898 128.63 56.8898 127.803C56.8898 127.187 56.8088 126.604 56.663 126.052C56.5092 125.509 56.2986 125.023 56.0314 124.609C55.7641 124.196 55.4483 123.871 55.092 123.628C54.7276 123.393 54.347 123.271 53.942 123.271C53.5371 123.271 53.1484 123.393 52.7273 123.636C52.3062 123.879 51.9337 124.188 51.6341 124.552V132.643H51.6179Z" fill="#097EEA"/>
<path d="M64.2266 115.586C64.2266 115.294 64.2833 115.01 64.4047 114.743C64.5181 114.475 64.6882 114.248 64.8906 114.062C65.1012 113.875 65.336 113.721 65.6113 113.608C65.8867 113.494 66.1782 113.438 66.4941 113.438C66.8099 113.438 67.1014 113.494 67.3768 113.608C67.6521 113.721 67.895 113.875 68.0975 114.062C68.2999 114.248 68.4619 114.483 68.5753 114.743C68.6887 115.01 68.7534 115.286 68.7534 115.586C68.7534 115.886 68.6968 116.162 68.5753 116.421C68.4538 116.68 68.2999 116.907 68.0975 117.102C67.895 117.288 67.6521 117.442 67.3768 117.556C67.1014 117.669 66.8018 117.726 66.4941 117.726C66.1863 117.726 65.8867 117.669 65.6113 117.556C65.336 117.442 65.1012 117.288 64.8906 117.102C64.6801 116.916 64.5181 116.689 64.4047 116.421C64.2833 116.162 64.2266 115.878 64.2266 115.586ZM64.4047 122.007L68.6158 120.377V135.287H64.4047V122.007Z" fill="#097EEA"/>
<path d="M79.4181 135.554C78.3168 135.554 77.2964 135.368 76.3651 134.987C75.4338 134.606 74.624 134.087 73.9437 133.414C73.2635 132.749 72.729 131.963 72.3484 131.071C71.9678 130.171 71.7734 129.198 71.7734 128.152C71.7734 127.033 71.9678 125.996 72.3484 125.047C72.729 124.099 73.2635 123.288 73.9357 122.599C74.6159 121.918 75.4176 121.383 76.3489 120.994C77.2802 120.604 78.3006 120.418 79.4019 120.418C80.5033 120.418 81.5236 120.604 82.463 120.985C83.4024 121.358 84.2122 121.877 84.8925 122.534C85.5727 123.191 86.1072 123.961 86.4959 124.853C86.8846 125.744 87.079 126.701 87.079 127.731C87.079 128.76 86.8846 129.822 86.504 130.771C86.1234 131.719 85.5889 132.555 84.9087 133.26C84.2284 133.965 83.4186 134.533 82.4792 134.946C81.5398 135.36 80.5195 135.57 79.4181 135.57V135.554ZM79.904 133.771C80.2846 133.771 80.6328 133.641 80.9568 133.381C81.2807 133.122 81.5641 132.765 81.799 132.328C82.0419 131.882 82.2201 131.371 82.3578 130.795C82.4873 130.212 82.5521 129.612 82.5521 128.987C82.5521 128.055 82.4873 127.179 82.3578 126.352C82.2282 125.534 82.0095 124.812 81.718 124.188C81.4184 123.572 81.0378 123.077 80.56 122.72C80.0822 122.356 79.5072 122.177 78.8189 122.177C78.4868 122.177 78.1629 122.307 77.8552 122.566C77.5474 122.826 77.2802 123.166 77.0454 123.604C76.8105 124.034 76.6242 124.536 76.4866 125.104C76.3489 125.671 76.276 126.263 76.276 126.896C76.276 127.836 76.357 128.728 76.5271 129.563C76.6971 130.398 76.932 131.128 77.2478 131.752C77.5555 132.376 77.9362 132.871 78.3816 133.236C78.827 133.6 79.3371 133.787 79.904 133.787V133.771Z" fill="#097EEA"/>
<path d="M107.682 125.379C107.682 125.055 107.642 124.746 107.569 124.463C107.488 124.171 107.382 123.92 107.253 123.709C107.123 123.498 106.961 123.32 106.775 123.198C106.597 123.068 106.402 123.003 106.192 123.003C105.949 123.003 105.698 123.044 105.431 123.133C105.172 123.222 104.912 123.336 104.653 123.474C104.394 123.611 104.151 123.782 103.933 123.976C103.706 124.163 103.511 124.365 103.333 124.576V135.286H99.1789V125.387C99.1789 125.063 99.1384 124.755 99.0574 124.471C98.9765 124.179 98.8631 123.928 98.7254 123.717C98.5877 123.506 98.4258 123.328 98.2476 123.206C98.0695 123.076 97.8832 123.012 97.6888 123.012C97.4621 123.012 97.2192 123.052 96.9681 123.141C96.7171 123.23 96.4498 123.344 96.1988 123.482C95.9477 123.62 95.6967 123.79 95.4538 123.984C95.2108 124.171 95.0003 124.374 94.814 124.584V135.294H90.6191V122.014L94.814 120.385V121.966C95.4699 121.487 96.1583 121.114 96.8628 120.839C97.5674 120.563 98.2476 120.425 98.9036 120.425C99.268 120.425 99.6243 120.466 99.9968 120.555C100.369 120.644 100.718 120.766 101.05 120.92C101.382 121.074 101.697 121.268 101.989 121.487C102.281 121.714 102.523 121.966 102.734 122.249C103.05 121.982 103.398 121.739 103.779 121.512C104.159 121.285 104.556 121.09 104.977 120.936C105.398 120.782 105.828 120.652 106.265 120.563C106.702 120.474 107.139 120.425 107.569 120.425C108.152 120.425 108.71 120.547 109.237 120.782C109.763 121.017 110.225 121.35 110.622 121.763C111.018 122.185 111.334 122.671 111.569 123.23C111.804 123.79 111.917 124.398 111.917 125.038V135.278H107.682V125.379Z" fill="#097EEA"/>
<path d="M122.622 135.611C121.642 135.611 120.711 135.417 119.845 135.036C118.978 134.646 118.225 134.136 117.585 133.479C116.945 132.83 116.435 132.068 116.063 131.209C115.69 130.35 115.504 129.442 115.504 128.477C115.504 127.326 115.674 126.255 116.022 125.275C116.362 124.294 116.848 123.434 117.488 122.713C118.12 121.991 118.873 121.424 119.755 121.018C120.638 120.613 121.618 120.41 122.703 120.41C123.667 120.41 124.55 120.572 125.359 120.897C126.161 121.221 126.849 121.659 127.424 122.226C127.999 122.786 128.445 123.45 128.761 124.212C129.076 124.975 129.238 125.785 129.238 126.653H119.642C119.674 127.463 119.796 128.234 119.99 128.963C120.185 129.693 120.444 130.342 120.768 130.893C121.092 131.444 121.472 131.89 121.91 132.222C122.347 132.547 122.833 132.717 123.367 132.717C123.829 132.717 124.282 132.636 124.728 132.466C125.173 132.303 125.586 132.068 125.967 131.785C126.347 131.493 126.671 131.16 126.955 130.771C127.238 130.382 127.441 129.969 127.562 129.523L129.7 129.879C129.481 130.666 129.141 131.412 128.663 132.101C128.186 132.798 127.635 133.406 126.995 133.925C126.355 134.452 125.667 134.857 124.914 135.157C124.161 135.457 123.408 135.603 122.638 135.603L122.622 135.611ZM124.396 125.145C124.363 124.715 124.274 124.326 124.128 123.969C123.991 123.613 123.813 123.304 123.594 123.053C123.375 122.802 123.124 122.599 122.833 122.461C122.541 122.323 122.233 122.25 121.901 122.25C121.642 122.25 121.383 122.323 121.132 122.461C120.881 122.599 120.654 122.794 120.452 123.045C120.249 123.296 120.079 123.604 119.934 123.961C119.796 124.318 119.699 124.715 119.658 125.153H124.396V125.145Z" fill="#097EEA"/>
<path d="M0.857422 143.416H2.54994V147.316H6.56663V143.416H8.25915V152.869H6.56663V148.653H2.54994V152.869H0.857422V143.416Z" fill="#097EEA"/>
<path d="M17.0625 149.416V149.221C17.0625 146.838 18.5121 145.662 20.3099 145.662C22.3992 145.662 23.3143 146.83 23.3143 149.091V149.756H18.6902C18.7874 151.232 19.5405 151.751 20.8929 151.751C21.7999 151.751 22.464 151.548 23.0794 151.224V152.326C22.6017 152.642 21.7756 152.991 20.5771 152.991C18.2205 152.991 17.0706 151.653 17.0706 149.408L17.0625 149.416ZM18.6902 148.67H21.7028C21.7028 147.332 21.2088 146.838 20.2856 146.838C19.5567 146.838 18.7955 147.227 18.6902 148.67Z" fill="#097EEA"/>
<path d="M31.5254 150.988C31.5254 149.675 32.3919 149.075 33.7929 148.864L35.4611 148.67V148.135C35.4611 147.17 35.0319 146.951 33.8334 146.951C33.145 146.951 32.5377 147.048 32.1166 147.145V146.059C32.7806 145.8 33.5337 145.67 34.4569 145.67C36.0928 145.67 37.0483 146.302 37.0483 147.778V152.877H35.7364L35.615 152.302H35.534C35.1939 152.699 34.627 153.007 33.7038 153.007C32.4243 153.007 31.5254 152.358 31.5254 150.996V150.988ZM35.4611 151.459V149.707L34.1492 149.845C33.4447 149.902 33.0721 150.186 33.0721 150.907C33.0721 151.58 33.5256 151.888 34.1735 151.888C34.6837 151.888 35.1939 151.71 35.453 151.459H35.4611Z" fill="#097EEA"/>
<path d="M46.0781 142.801H47.6735V152.878H46.0781V142.801Z" fill="#097EEA"/>
<path d="M57.1638 151.119V147.008H56.1758V145.768H57.1638V144.098H58.7186V145.768H60.4111V147.008H58.7186V150.892C58.7186 151.483 58.9373 151.702 59.6823 151.702C59.9576 151.702 60.2492 151.662 60.4921 151.589V152.651C60.2168 152.789 59.8281 152.943 59.1721 152.943C57.9493 152.943 57.1638 152.448 57.1638 151.11V151.119Z" fill="#097EEA"/>
<path d="M69.1016 142.801H70.6807V146.384H70.7455C71.3205 145.954 72.1465 145.655 73.0049 145.655C74.3654 145.655 75.0699 146.206 75.0699 147.608V152.87H73.4746V147.981C73.4746 147.268 73.2397 146.976 72.276 146.976C71.7254 146.976 71.1099 147.154 70.6807 147.365V152.878H69.1016V142.801Z" fill="#097EEA"/>
<path d="M83.6621 149.481V149.262C83.6621 146.806 85.1522 145.654 87.12 145.654C88.0594 145.654 88.6182 145.833 89.0717 146.084V147.324C88.4805 147.089 88.0513 146.935 87.2172 146.935C86.0349 146.935 85.306 147.681 85.306 149.1V149.416C85.306 151.046 85.9782 151.735 87.3306 151.735C88.1971 151.735 88.7883 151.459 89.1446 151.297V152.456C88.6911 152.748 88.027 153.008 87.0552 153.008C84.9659 153.008 83.6702 151.832 83.6702 149.497L83.6621 149.481Z" fill="#097EEA"/>
<path d="M97.2832 150.988C97.2832 149.675 98.1497 149.075 99.5507 148.864L101.219 148.67V148.135C101.219 147.17 100.79 146.951 99.5912 146.951C98.9028 146.951 98.2955 147.048 97.8744 147.145V146.059C98.5384 145.8 99.2916 145.67 100.215 145.67C101.851 145.67 102.806 146.302 102.806 147.778V152.877H101.494L101.373 152.302H101.292C100.952 152.699 100.385 153.007 99.4616 153.007C98.1821 153.007 97.2832 152.358 97.2832 150.996V150.988ZM101.219 151.459V149.707L99.907 149.845C99.2025 149.902 98.83 150.186 98.83 150.907C98.83 151.58 99.2835 151.888 99.9313 151.888C100.441 151.888 100.952 151.71 101.211 151.459H101.219Z" fill="#097EEA"/>
<path d="M111.803 145.775H113.333V146.602H113.39C113.779 146.092 114.508 145.719 115.244 145.719C115.439 145.719 115.617 145.735 115.682 145.759V147.162C115.504 147.138 115.269 147.121 115.107 147.121C114.475 147.121 113.843 147.3 113.39 147.592V152.869H111.811V145.775H111.803Z" fill="#097EEA"/>
<path d="M123.756 149.416V149.221C123.756 146.838 125.205 145.662 127.003 145.662C129.093 145.662 130.008 146.83 130.008 149.091V149.756H125.384C125.481 151.232 126.234 151.751 127.586 151.751C128.493 151.751 129.157 151.548 129.773 151.224V152.326C129.295 152.642 128.469 152.991 127.27 152.991C124.914 152.991 123.764 151.653 123.764 149.408L123.756 149.416ZM125.384 148.67H128.396C128.396 147.332 127.902 146.838 126.979 146.838C126.25 146.838 125.489 147.227 125.384 148.67Z" fill="#097EEA"/>
</g>
<defs>
<clipPath id="clip0_244_5594">
<rect width="130" height="153" fill="white"/>
</clipPath>
</defs>
</svg>
