<svg width="17" height="16" viewBox="0 0 17 16" fill="none" xmlns="http://www.w3.org/2000/svg">
<path d="M6.3065 15.4296C3.06236 15.4296 1.20351 13.5882 1.87335 11.0019H5.01007C4.75822 12.1709 5.63892 12.9778 6.99532 12.9675C8.60376 12.9778 10.06 11.8813 10.4862 10.3192C10.9427 8.72605 10.0815 7.61914 8.45155 7.6088C7.28066 7.6088 6.34559 8.03294 5.64924 8.87088H2.72737L5.97902 0.243187H15.5611L14.8491 2.78805H7.93111L6.44215 6.5743H6.57105C7.34588 5.83981 8.67802 5.30187 10.0394 5.31222C12.8997 5.30187 14.4507 7.36052 13.6461 10.2364C12.7981 13.2675 9.80846 15.4296 6.3065 15.4296Z" fill="#5FAFFE"/>
</svg>
