<svg width="32" height="32" viewBox="0 0 32 32" fill="none" xmlns="http://www.w3.org/2000/svg">
<path d="M0 3C0 2.73478 0.105357 2.48043 0.292893 2.29289C0.48043 2.10536 0.734784 2 1 2H4C4.22306 2.00006 4.4397 2.0747 4.61546 2.21205C4.79122 2.3494 4.91602 2.54157 4.97 2.758L5.78 6H29C29.1519 6.00004 29.3018 6.03469 29.4383 6.10131C29.5748 6.16792 29.6943 6.26477 29.7878 6.38448C29.8813 6.50419 29.9463 6.64363 29.9779 6.79222C30.0095 6.9408 30.0068 7.09462 29.97 7.242L26.97 19.242C26.916 19.4584 26.7912 19.6506 26.6155 19.788C26.4397 19.9253 26.2231 19.9999 26 20H8C7.77694 19.9999 7.5603 19.9253 7.38454 19.788C7.20878 19.6506 7.08398 19.4584 7.03 19.242L3.22 4H1C0.734784 4 0.48043 3.89464 0.292893 3.70711C0.105357 3.51957 0 3.26522 0 3ZM6.28 8L8.78 18H25.22L27.72 8H6.28ZM10 24C9.46957 24 8.96086 24.2107 8.58579 24.5858C8.21071 24.9609 8 25.4696 8 26C8 26.5304 8.21071 27.0391 8.58579 27.4142C8.96086 27.7893 9.46957 28 10 28C10.5304 28 11.0391 27.7893 11.4142 27.4142C11.7893 27.0391 12 26.5304 12 26C12 25.4696 11.7893 24.9609 11.4142 24.5858C11.0391 24.2107 10.5304 24 10 24ZM6 26C6 24.9391 6.42143 23.9217 7.17157 23.1716C7.92172 22.4214 8.93913 22 10 22C11.0609 22 12.0783 22.4214 12.8284 23.1716C13.5786 23.9217 14 24.9391 14 26C14 27.0609 13.5786 28.0783 12.8284 28.8284C12.0783 29.5786 11.0609 30 10 30C8.93913 30 7.92172 29.5786 7.17157 28.8284C6.42143 28.0783 6 27.0609 6 26ZM24 24C23.4696 24 22.9609 24.2107 22.5858 24.5858C22.2107 24.9609 22 25.4696 22 26C22 26.5304 22.2107 27.0391 22.5858 27.4142C22.9609 27.7893 23.4696 28 24 28C24.5304 28 25.0391 27.7893 25.4142 27.4142C25.7893 27.0391 26 26.5304 26 26C26 25.4696 25.7893 24.9609 25.4142 24.5858C25.0391 24.2107 24.5304 24 24 24ZM20 26C20 24.9391 20.4214 23.9217 21.1716 23.1716C21.9217 22.4214 22.9391 22 24 22C25.0609 22 26.0783 22.4214 26.8284 23.1716C27.5786 23.9217 28 24.9391 28 26C28 27.0609 27.5786 28.0783 26.8284 28.8284C26.0783 29.5786 25.0609 30 24 30C22.9391 30 21.9217 29.5786 21.1716 28.8284C20.4214 28.0783 20 27.0609 20 26Z" fill="white"/>
</svg>
