<svg width="24" height="24" viewBox="0 0 24 24" fill="none" xmlns="http://www.w3.org/2000/svg">
<path d="M3.00751 9.70015L3.58366 10.4131L3.58366 10.4131L3.00751 9.70015ZM8.83398 21.3327V22.2493H9.75065V21.3327H8.83398ZM8.83398 15.166V14.2494H7.91732V15.166H8.83398ZM15.1673 15.166H16.084V14.2494H15.1673V15.166ZM15.1673 21.3327H14.2507V22.2493H15.1673V21.3327ZM20.9932 9.70015L20.4171 10.4131L20.4171 10.4131L20.9932 9.70015ZM12.5765 2.89876L13.1526 2.18578V2.18578L12.5765 2.89876ZM11.4242 2.89876L10.8481 2.18578V2.18578L11.4242 2.89876ZM3.58366 10.4131H3.58366L2.43137 8.98718C2.00064 9.33524 1.75033 9.85935 1.75033 10.4131H3.58366ZM3.58366 20.416V10.4131H1.75033V20.416H3.58366ZM3.58366 20.416L3.58366 20.416H1.75033C1.75033 21.4285 2.57113 22.2493 3.58366 22.2493V20.416ZM8.83398 20.416H3.58366V22.2493H8.83398V20.416ZM9.75065 21.3327V15.166H7.91732V21.3327H9.75065ZM8.83398 16.0827H15.1673V14.2494H8.83398V16.0827ZM14.2507 15.166V21.3327H16.084V15.166H14.2507ZM20.4171 20.416H15.1673V22.2493H20.4171V20.416ZM20.4171 20.416V20.416V22.2493C21.4296 22.2493 22.2504 21.4285 22.2504 20.416H20.4171ZM20.4171 10.4131V20.416H22.2504V10.4131H20.4171ZM20.4171 10.4131H22.2504C22.2504 9.85935 22.0001 9.33524 21.5693 8.98718L20.4171 10.4131ZM12.0004 3.61174L20.4171 10.4131L21.5693 8.98718L13.1526 2.18578L12.0004 3.61174ZM12.0004 3.61174L12.0004 3.61174L13.1526 2.18578C12.4805 1.64261 11.5202 1.64261 10.8481 2.18578L12.0004 3.61174ZM3.58366 10.4131L12.0004 3.61174L10.8481 2.18578L2.43137 8.98718L3.58366 10.4131Z" fill="white"/>
</svg>
