<svg width="25" height="24" viewBox="0 0 25 24" fill="none" xmlns="http://www.w3.org/2000/svg">
<path d="M1 2.25C1 2.05109 1.07902 1.86032 1.21967 1.71967C1.36032 1.57902 1.55109 1.5 1.75 1.5H4C4.1673 1.50005 4.32978 1.55603 4.4616 1.65904C4.59342 1.76205 4.68701 1.90618 4.7275 2.0685L5.335 4.5H22.75C22.8639 4.50003 22.9763 4.52602 23.0787 4.57598C23.1811 4.62594 23.2708 4.69857 23.3409 4.78836C23.411 4.87814 23.4598 4.98272 23.4834 5.09416C23.5071 5.2056 23.5051 5.32096 23.4775 5.4315L21.2275 14.4315C21.187 14.5938 21.0934 14.738 20.9616 14.841C20.8298 14.944 20.6673 15 20.5 15H7C6.8327 15 6.67022 14.944 6.5384 14.841C6.40658 14.738 6.31299 14.5938 6.2725 14.4315L3.415 3H1.75C1.55109 3 1.36032 2.92098 1.21967 2.78033C1.07902 2.63968 1 2.44891 1 2.25ZM5.71 6L7.585 13.5H19.915L21.79 6H5.71ZM8.5 18C8.10218 18 7.72064 18.158 7.43934 18.4393C7.15804 18.7206 7 19.1022 7 19.5C7 19.8978 7.15804 20.2794 7.43934 20.5607C7.72064 20.842 8.10218 21 8.5 21C8.89782 21 9.27936 20.842 9.56066 20.5607C9.84196 20.2794 10 19.8978 10 19.5C10 19.1022 9.84196 18.7206 9.56066 18.4393C9.27936 18.158 8.89782 18 8.5 18ZM5.5 19.5C5.5 18.7044 5.81607 17.9413 6.37868 17.3787C6.94129 16.8161 7.70435 16.5 8.5 16.5C9.29565 16.5 10.0587 16.8161 10.6213 17.3787C11.1839 17.9413 11.5 18.7044 11.5 19.5C11.5 20.2956 11.1839 21.0587 10.6213 21.6213C10.0587 22.1839 9.29565 22.5 8.5 22.5C7.70435 22.5 6.94129 22.1839 6.37868 21.6213C5.81607 21.0587 5.5 20.2956 5.5 19.5ZM19 18C18.6022 18 18.2206 18.158 17.9393 18.4393C17.658 18.7206 17.5 19.1022 17.5 19.5C17.5 19.8978 17.658 20.2794 17.9393 20.5607C18.2206 20.842 18.6022 21 19 21C19.3978 21 19.7794 20.842 20.0607 20.5607C20.342 20.2794 20.5 19.8978 20.5 19.5C20.5 19.1022 20.342 18.7206 20.0607 18.4393C19.7794 18.158 19.3978 18 19 18ZM16 19.5C16 18.7044 16.3161 17.9413 16.8787 17.3787C17.4413 16.8161 18.2044 16.5 19 16.5C19.7956 16.5 20.5587 16.8161 21.1213 17.3787C21.6839 17.9413 22 18.7044 22 19.5C22 20.2956 21.6839 21.0587 21.1213 21.6213C20.5587 22.1839 19.7956 22.5 19 22.5C18.2044 22.5 17.4413 22.1839 16.8787 21.6213C16.3161 21.0587 16 20.2956 16 19.5Z" fill="white" stroke="white" stroke-width="0.25"/>
</svg>
