<svg width="157" height="33" viewBox="0 0 157 33" fill="none" xmlns="http://www.w3.org/2000/svg">
<g clip-path="url(#clip0_62_2158)">
<path d="M23.5386 13.7835C21.4137 14.7295 19.0626 15.2577 16.5876 15.2577C14.1126 15.2577 11.7616 14.7264 9.63662 13.7835L16.5876 0L23.5386 13.7835ZM0 32.8956L2.73208 27.478C4.98093 28.3625 6.63505 30.4233 6.91383 32.8956H0ZM18.9387 31.6794L13.6232 21.139L8.22721 31.836C7.63557 29.2624 5.80799 27.1555 3.39496 26.1604L8.97373 15.098C11.2969 16.1422 13.8741 16.7288 16.5876 16.7288C19.3011 16.7288 21.8783 16.1422 24.2015 15.098L26.7632 20.1778C22.566 22.5211 19.5706 26.7378 18.9387 31.6794ZM20.314 32.8956C20.5711 28.0093 23.3744 23.7833 27.4261 21.4953L29.328 25.2667L25.4808 32.8956H20.3109H20.314ZM27.1411 32.8956L30.1613 26.9098L33.1814 32.8956H27.1442H27.1411Z" fill="white"/>
<path d="M58.9551 21.4247H54.8662L52.8218 16.7811H46.4841L44.3437 21.4247H41.624L50.4584 2.01782L58.9582 21.4247H58.9551ZM47.24 15.1994H52.1466L49.7273 9.70195L47.2369 15.1994H47.24Z" fill="white"/>
<path d="M68.5888 12.6503C68.5888 12.3247 68.5547 12.033 68.4866 11.7781C68.4184 11.5232 68.3255 11.3082 68.2109 11.1393C68.0932 10.9673 67.9631 10.8383 67.8144 10.7492C67.6657 10.6602 67.5108 10.6172 67.3498 10.6172C67.1887 10.6172 67.0059 10.6509 66.7953 10.7185C66.5877 10.7861 66.3678 10.8813 66.1386 11.0011C65.9094 11.1239 65.6739 11.2713 65.4354 11.4464C65.1969 11.6214 64.9677 11.818 64.7509 12.036V21.4247H60.9966V9.73879L64.7509 8.30762V9.61288C65.327 9.17677 65.9465 8.85736 66.6032 8.65159C67.2599 8.44582 67.9135 8.34447 68.564 8.34447C69.0689 8.34447 69.549 8.44582 70.0013 8.65159C70.4535 8.85736 70.85 9.13377 71.1908 9.48696C71.5315 9.83707 71.801 10.2517 72.0023 10.7246C72.2037 11.1976 72.3028 11.7013 72.3028 12.2387V21.4278H68.5857V12.6534L68.5888 12.6503Z" fill="white"/>
<path d="M75.8804 4.0878C75.8804 3.82982 75.933 3.58105 76.0353 3.34764C76.1406 3.11423 76.2831 2.91153 76.4689 2.74569C76.6517 2.57984 76.8654 2.44471 77.107 2.34336C77.3486 2.24201 77.6088 2.19287 77.8876 2.19287C78.1664 2.19287 78.4297 2.24201 78.6744 2.34336C78.9191 2.44471 79.1328 2.57677 79.3125 2.74569C79.4922 2.9146 79.6347 3.11423 79.74 3.34764C79.8453 3.58105 79.8949 3.82982 79.8949 4.0878C79.8949 4.34578 79.8422 4.59147 79.74 4.82181C79.6347 5.05215 79.4922 5.25178 79.3125 5.41763C79.1328 5.58654 78.9191 5.7186 78.6744 5.81995C78.4297 5.9213 78.1664 5.97044 77.8876 5.97044C77.6088 5.97044 77.3455 5.9213 77.107 5.81995C76.8685 5.7186 76.6548 5.58654 76.4689 5.41763C76.2831 5.25178 76.1406 5.05215 76.0353 4.82181C75.9299 4.59147 75.8804 4.34578 75.8804 4.0878ZM76.0353 9.73573L79.7771 8.30455V21.4216H76.0353V9.7388V9.73573Z" fill="white"/>
<path d="M83.7329 3.449L87.4872 2.01782V9.4624C87.9673 9.13685 88.4939 8.86966 89.0639 8.65775C89.6338 8.44891 90.1821 8.34449 90.7118 8.34449C91.4831 8.34449 92.1924 8.49805 92.8398 8.80209C93.4903 9.10921 94.051 9.52075 94.5249 10.0459C94.9989 10.568 95.3675 11.1792 95.6308 11.8733C95.8941 12.5674 96.0273 13.3045 96.0273 14.0815C96.0273 14.7664 95.9436 15.4297 95.7733 16.0716C95.6029 16.7135 95.3675 17.3124 95.0577 17.8744C94.748 18.4364 94.3793 18.9493 93.9457 19.4192C93.512 19.8891 93.0319 20.2884 92.5022 20.617C91.9725 20.9487 91.4057 21.2067 90.8016 21.3879C90.1976 21.5721 89.5657 21.6643 88.9059 21.6643C87.9363 21.6643 87.0071 21.5291 86.1212 21.2558C85.2352 20.9855 84.4392 20.5494 83.7329 19.9567V3.449ZM87.4872 19.1029C87.6142 19.2196 87.7474 19.3332 87.8837 19.4407C88.02 19.5482 88.1656 19.6465 88.3173 19.7294C88.4691 19.8123 88.6333 19.8799 88.8099 19.929C88.9864 19.9782 89.1785 20.0058 89.386 20.0058C89.8042 20.0058 90.1821 19.8738 90.5228 19.6096C90.8636 19.3455 91.1547 18.9831 91.3995 18.5163C91.6442 18.0525 91.8331 17.5028 91.9663 16.8732C92.0995 16.2405 92.1646 15.5618 92.1646 14.8339C92.1646 14.2903 92.0964 13.7774 91.9601 13.2953C91.8238 12.8131 91.638 12.3923 91.3995 12.0268C91.164 11.6614 90.8852 11.3758 90.5631 11.1669C90.241 10.9581 89.9002 10.8537 89.5409 10.8537C89.1816 10.8537 88.8346 10.9611 88.4598 11.1731C88.0819 11.385 87.7567 11.6552 87.4841 11.9839V19.1029H87.4872Z" fill="white"/>
<path d="M98.6973 4.0878C98.6973 3.82982 98.7499 3.58105 98.8521 3.34764C98.9575 3.11423 99.1 2.91153 99.2858 2.74569C99.4686 2.57984 99.6823 2.44471 99.9239 2.34336C100.166 2.24201 100.426 2.19287 100.705 2.19287C100.983 2.19287 101.247 2.24201 101.491 2.34336C101.736 2.44471 101.95 2.57677 102.129 2.74569C102.309 2.9146 102.452 3.11423 102.557 3.34764C102.662 3.58105 102.712 3.82982 102.712 4.0878C102.712 4.34578 102.659 4.59147 102.557 4.82181C102.452 5.05215 102.309 5.25178 102.129 5.41763C101.95 5.58654 101.736 5.7186 101.491 5.81995C101.247 5.9213 100.983 5.97044 100.705 5.97044C100.426 5.97044 100.162 5.9213 99.9239 5.81995C99.6823 5.7186 99.4717 5.58654 99.2858 5.41763C99.1 5.25178 98.9575 5.05215 98.8521 4.82181C98.7468 4.59147 98.6973 4.34578 98.6973 4.0878ZM98.8521 9.73573L102.594 8.30455V21.4216H98.8521V9.7388V9.73573Z" fill="white"/>
<path d="M112.194 21.6642C111.215 21.6642 110.31 21.4952 109.48 21.1605C108.65 20.8257 107.931 20.365 107.327 19.7784C106.723 19.1918 106.249 18.5039 105.909 17.7146C105.568 16.9222 105.397 16.0684 105.397 15.1471C105.397 14.1612 105.568 13.2491 105.909 12.4168C106.249 11.5845 106.72 10.8658 107.321 10.2639C107.922 9.66192 108.638 9.19203 109.468 8.85113C110.298 8.5133 111.202 8.34131 112.181 8.34131C113.16 8.34131 114.065 8.50715 114.901 8.83577C115.734 9.16746 116.456 9.61893 117.06 10.1963C117.664 10.7737 118.141 11.4524 118.485 12.2356C118.829 13.0187 119.002 13.8602 119.002 14.7663C119.002 15.6723 118.832 16.6028 118.491 17.4413C118.15 18.2797 117.676 19.0076 117.072 19.631C116.468 20.2545 115.747 20.7489 114.913 21.1113C114.08 21.4768 113.172 21.658 112.194 21.658V21.6642ZM112.627 20.0948C112.965 20.0948 113.278 19.9811 113.566 19.7508C113.854 19.5205 114.105 19.2103 114.319 18.8233C114.532 18.4333 114.696 17.9849 114.811 17.475C114.929 16.9652 114.985 16.4339 114.985 15.8811C114.985 15.0611 114.926 14.2902 114.811 13.5654C114.693 12.8406 114.504 12.2079 114.241 11.6643C113.978 11.1207 113.634 10.6908 113.213 10.3714C112.791 10.052 112.277 9.89533 111.667 9.89533C111.37 9.89533 111.085 10.009 110.812 10.2332C110.539 10.4604 110.298 10.7614 110.09 11.1422C109.883 11.5231 109.716 11.9622 109.592 12.4598C109.468 12.9573 109.406 13.4825 109.406 14.0353C109.406 14.8645 109.48 15.6477 109.629 16.3817C109.777 17.1188 109.988 17.7607 110.267 18.3073C110.543 18.8571 110.88 19.2901 111.277 19.6126C111.673 19.9351 112.125 20.0948 112.63 20.0948H112.627Z" fill="white"/>
<path d="M137.309 12.7148C137.309 12.4292 137.275 12.162 137.207 11.904C137.139 11.6491 137.046 11.428 136.925 11.2375C136.804 11.0471 136.665 10.8997 136.504 10.7861C136.342 10.6724 136.169 10.6172 135.986 10.6172C135.769 10.6172 135.546 10.654 135.314 10.7308C135.082 10.8076 134.849 10.9058 134.623 11.0318C134.397 11.1577 134.18 11.3051 133.979 11.4709C133.778 11.6399 133.601 11.8149 133.449 11.9992V21.4278H129.757V12.7148C129.757 12.4292 129.72 12.162 129.649 11.904C129.577 11.6491 129.478 11.428 129.354 11.2375C129.23 11.0502 129.088 10.8997 128.927 10.7861C128.766 10.6724 128.602 10.6172 128.434 10.6172C128.233 10.6172 128.019 10.654 127.79 10.7308C127.561 10.8076 127.332 10.9058 127.105 11.0318C126.879 11.1577 126.656 11.3051 126.443 11.4709C126.229 11.6399 126.04 11.8149 125.873 11.9992V21.4278H122.143V9.73879L125.873 8.30762V9.70194C126.458 9.28426 127.065 8.95257 127.694 8.70994C128.323 8.46732 128.927 8.34447 129.503 8.34447C129.825 8.34447 130.147 8.38133 130.472 8.45811C130.798 8.53489 131.111 8.63931 131.411 8.77751C131.712 8.91571 131.99 9.08463 132.247 9.28119C132.505 9.47774 132.724 9.70194 132.91 9.95378C133.192 9.72037 133.499 9.50231 133.836 9.29961C134.174 9.09692 134.527 8.928 134.902 8.7898C135.274 8.65159 135.655 8.5441 136.045 8.46425C136.432 8.3844 136.819 8.34447 137.207 8.34447C137.727 8.34447 138.223 8.44889 138.694 8.65773C139.161 8.86658 139.573 9.15527 139.926 9.52381C140.279 9.89235 140.558 10.3223 140.769 10.8168C140.976 11.3112 141.082 11.8426 141.082 12.4107V21.4247H137.318V12.7117L137.309 12.7148Z" fill="white"/>
<path d="M150.588 21.7134C149.714 21.7134 148.89 21.5445 148.122 21.2036C147.351 20.8658 146.682 20.4082 146.115 19.8339C145.545 19.2596 145.096 18.5962 144.761 17.8376C144.427 17.079 144.263 16.2805 144.263 15.4328C144.263 14.4193 144.414 13.4796 144.721 12.6135C145.025 11.7474 145.458 10.995 146.019 10.3592C146.58 9.72349 147.252 9.22903 148.032 8.87277C148.813 8.51651 149.687 8.33838 150.65 8.33838C151.508 8.33838 152.295 8.47965 153.007 8.76528C153.72 9.0509 154.333 9.43787 154.841 9.93233C155.349 10.4268 155.745 11.0072 156.024 11.6768C156.306 12.3463 156.446 13.0619 156.446 13.8235H147.918C147.949 14.5361 148.051 15.2117 148.225 15.8567C148.398 16.5016 148.627 17.0667 148.915 17.5581C149.203 18.0464 149.544 18.4365 149.931 18.7252C150.318 19.0139 150.752 19.1582 151.223 19.1582C151.632 19.1582 152.035 19.0845 152.431 18.9371C152.828 18.7897 153.196 18.59 153.531 18.3351C153.868 18.0802 154.16 17.7823 154.407 17.4445C154.655 17.1066 154.835 16.7381 154.949 16.345L156.851 16.6582C156.659 17.3523 156.353 18.0065 155.931 18.6177C155.51 19.2288 155.018 19.7632 154.451 20.2239C153.884 20.6846 153.27 21.047 152.605 21.3111C151.939 21.5752 151.266 21.7073 150.585 21.7073L150.588 21.7134ZM152.165 12.4998C152.134 12.1221 152.053 11.7781 151.929 11.4649C151.805 11.1516 151.647 10.8813 151.455 10.6541C151.263 10.4268 151.037 10.2548 150.783 10.132C150.526 10.0122 150.25 9.95076 149.953 9.95076C149.721 9.95076 149.491 10.0122 149.268 10.132C149.042 10.2548 148.841 10.4237 148.661 10.6479C148.482 10.869 148.327 11.1362 148.203 11.4526C148.079 11.7658 147.995 12.116 147.955 12.4998H152.165Z" fill="white"/>
<path d="M42.2275 26.5964H43.3706V29.2039H46.084V26.5964H47.2271V32.917H46.084V30.0976H43.3706V32.917H42.2275V26.5964Z" fill="white"/>
<path d="M56.2319 30.6045V30.4755C56.2319 28.8815 57.2077 28.0984 58.425 28.0984C59.8375 28.0984 60.4509 28.8815 60.4509 30.3926V30.8348H57.3285C57.3935 31.8207 57.9046 32.1708 58.8153 32.1708C59.4286 32.1708 59.8747 32.0326 60.2929 31.8207V32.5578C59.9676 32.7697 59.4101 33 58.6016 33C57.0125 33 56.2319 32.1063 56.2319 30.6045ZM57.3285 30.107H59.3636C59.3636 29.2132 59.0291 28.8815 58.4064 28.8815C57.9139 28.8815 57.4028 29.1395 57.3285 30.107Z" fill="white"/>
<path d="M69.0649 31.6548C69.0649 30.7795 69.6504 30.3741 70.5982 30.2359L71.7227 30.107V29.7476C71.7227 29.1027 71.4346 28.9553 70.6261 28.9553C70.1615 28.9553 69.7526 29.0197 69.4645 29.0842V28.3564C69.9106 28.1813 70.4217 28.0984 71.0443 28.0984C72.1501 28.0984 72.7913 28.5222 72.7913 29.5081V32.9171H71.9085L71.8249 32.5301H71.7691C71.5368 32.7973 71.1558 33 70.5332 33C69.669 33 69.0649 32.567 69.0649 31.6548ZM71.7227 31.9681V30.798L70.8399 30.8901C70.3659 30.927 70.115 31.1204 70.115 31.5996C70.115 32.051 70.4217 32.2537 70.8585 32.2537C71.2023 32.2537 71.5461 32.1339 71.7227 31.9681Z" fill="white"/>
<path d="M81.9541 26.1819H83.0321V32.917H81.9541V26.1819Z" fill="white"/>
<path d="M92.4982 31.7468V29.0012H91.8291V28.172H92.4982V27.0571H93.5483V28.172H94.6913V29.0012H93.5483V31.5994C93.5483 31.9956 93.697 32.143 94.1988 32.143C94.3846 32.143 94.5798 32.1154 94.747 32.0693V32.7788C94.5612 32.8709 94.301 32.9723 93.8549 32.9723C93.0279 32.9723 92.4982 32.6406 92.4982 31.7468Z" fill="white"/>
<path d="M103.622 26.1819H104.691V28.5774H104.737C105.128 28.2918 105.685 28.0891 106.261 28.0891C107.181 28.0891 107.655 28.4576 107.655 29.3974V32.917H106.577V29.6462C106.577 29.1671 106.419 28.9736 105.769 28.9736C105.397 28.9736 104.979 29.0934 104.691 29.2316V32.917H103.622V26.1819Z" fill="white"/>
<path d="M116.52 30.6505V30.5031C116.52 28.8631 117.524 28.0891 118.853 28.0891C119.484 28.0891 119.865 28.2089 120.172 28.3747V29.204C119.772 29.0473 119.484 28.946 118.918 28.946C118.118 28.946 117.626 29.4435 117.626 30.3925V30.6044C117.626 31.6916 118.081 32.1523 118.992 32.1523C119.577 32.1523 119.977 31.968 120.219 31.8575V32.6314C119.912 32.8249 119.466 33 118.806 33C117.394 33 116.52 32.2168 116.52 30.6505Z" fill="white"/>
<path d="M128.777 31.6548C128.777 30.7795 129.363 30.3741 130.311 30.2359L131.435 30.107V29.7476C131.435 29.1027 131.147 28.9553 130.339 28.9553C129.874 28.9553 129.465 29.0197 129.177 29.0842V28.3564C129.623 28.1813 130.134 28.0984 130.757 28.0984C131.863 28.0984 132.504 28.5222 132.504 29.5081V32.9171H131.621L131.537 32.5301H131.482C131.249 32.7973 130.868 33 130.246 33C129.381 33 128.777 32.567 128.777 31.6548ZM131.435 31.9681V30.798L130.552 30.8901C130.078 30.927 129.827 31.1204 129.827 31.5996C129.827 32.051 130.134 32.2537 130.571 32.2537C130.915 32.2537 131.259 32.1339 131.435 31.9681Z" fill="white"/>
<path d="M141.648 28.1721H142.679V28.7249H142.717C142.977 28.384 143.469 28.1353 143.971 28.1353C144.101 28.1353 144.222 28.1445 144.269 28.1629V29.1027C144.148 29.0843 143.99 29.075 143.878 29.075C143.451 29.075 143.023 29.1948 142.717 29.3883V32.9171H141.648V28.1721Z" fill="white"/>
<path d="M152.781 30.6045V30.4755C152.781 28.8815 153.756 28.0984 154.974 28.0984C156.386 28.0984 157 28.8815 157 30.3926V30.8348H153.877C153.942 31.8207 154.453 32.1708 155.364 32.1708C155.977 32.1708 156.424 32.0326 156.842 31.8207V32.5578C156.516 32.7697 155.959 33 155.15 33C153.561 33 152.781 32.1063 152.781 30.6045ZM153.877 30.107H155.912C155.912 29.2132 155.578 28.8815 154.955 28.8815C154.463 28.8815 153.952 29.1395 153.877 30.107Z" fill="white"/>
</g>
<defs>
<clipPath id="clip0_62_2158">
<rect width="157" height="33" fill="white"/>
</clipPath>
</defs>
</svg>
