<svg width="96" height="113" viewBox="0 0 96 113" fill="none" xmlns="http://www.w3.org/2000/svg">
<g clip-path="url(#clip0_41_3742)">
<path d="M64.4005 30.5707C59.73 32.6638 54.5571 33.8419 49.1152 33.8419C43.6732 33.8419 38.5003 32.6638 33.8298 30.5707L49.1211 0L64.4065 30.5707H64.4005ZM12.642 72.9523L18.6461 60.9381C23.5917 62.8996 27.2336 67.4745 27.8376 72.9523H12.636H12.642ZM54.288 70.2553L42.6027 46.8787L30.744 70.6021C29.4463 64.897 25.4216 60.2205 20.1172 58.0198L32.3826 33.4891C37.4956 35.8034 43.1589 37.1011 49.1271 37.1011C55.0953 37.1011 60.7586 35.8034 65.8716 33.4891L71.505 44.7497C62.2775 49.9465 55.6934 59.2995 54.3 70.2553H54.288ZM57.308 72.9523C57.8702 62.1162 64.0357 52.7453 72.9462 47.6681L77.1264 56.0344L68.6644 72.9523H57.302H57.308ZM72.3183 72.9523L78.9563 59.6763L85.5943 72.9523H72.3183Z" fill="#BDBDBD"/>
<path d="M14.4063 99.7914H11.0095L9.31116 95.8983H4.03663L2.25453 99.7914H0L7.34367 83.5253L14.4063 99.7914ZM4.67053 94.5707H8.74902L6.73968 89.9599L4.67053 94.5707Z" fill="#BDBDBD"/>
<path d="M22.4137 92.4358C22.4137 92.1607 22.3838 91.9215 22.33 91.7062C22.2702 91.4909 22.1984 91.3115 22.1027 91.168C22.0071 91.0244 21.8934 90.9168 21.7738 90.839C21.6483 90.7673 21.5227 90.7314 21.3911 90.7314C21.2595 90.7314 21.1041 90.7613 20.9306 90.8151C20.7572 90.869 20.5778 90.9527 20.3864 91.0543C20.1951 91.156 20.0037 91.2816 19.8004 91.4251C19.597 91.5686 19.4117 91.7361 19.2323 91.9215V99.7914H16.1106V89.9958L19.2323 88.7938V89.8882C19.7107 89.5234 20.225 89.2543 20.7692 89.0809C21.3134 88.9075 21.8576 88.8237 22.3958 88.8237C22.8144 88.8237 23.2151 88.9075 23.5918 89.0809C23.9686 89.2543 24.2975 89.4875 24.5785 89.7806C24.8596 90.0736 25.0869 90.4204 25.2543 90.8151C25.4218 91.2098 25.5055 91.6344 25.5055 92.0829V99.7854H22.4137V92.4298V92.4358Z" fill="#BDBDBD"/>
<path d="M28.4717 85.2596C28.4717 85.0443 28.5135 84.835 28.6032 84.6376C28.687 84.4403 28.8126 84.2728 28.9621 84.1353C29.1175 83.9977 29.291 83.8841 29.4943 83.8004C29.6976 83.7167 29.9129 83.6748 30.1461 83.6748C30.3794 83.6748 30.5946 83.7167 30.798 83.8004C31.0013 83.8841 31.1807 83.9977 31.3302 84.1353C31.4797 84.2728 31.5993 84.4462 31.683 84.6376C31.7668 84.835 31.8146 85.0383 31.8146 85.2596C31.8146 85.4808 31.7727 85.6842 31.683 85.8755C31.5933 86.0669 31.4797 86.2343 31.3302 86.3779C31.1807 86.5154 31.0013 86.629 30.798 86.7127C30.5946 86.7965 30.3734 86.8383 30.1461 86.8383C29.9189 86.8383 29.6976 86.7965 29.4943 86.7127C29.291 86.629 29.1175 86.5154 28.9621 86.3779C28.8066 86.2403 28.687 86.0729 28.6032 85.8755C28.5135 85.6842 28.4717 85.4748 28.4717 85.2596ZM28.6032 89.9959L31.7129 88.7938V99.7914H28.6032V89.9959Z" fill="#BDBDBD"/>
<path d="M34.9961 84.7213L38.1178 83.5193V89.7566C38.5184 89.4815 38.955 89.2603 39.4274 89.0809C39.8998 88.9074 40.3543 88.8177 40.7969 88.8177C41.4368 88.8177 42.0288 88.9433 42.567 89.2005C43.1052 89.4576 43.5717 89.8045 43.9664 90.241C44.3611 90.6776 44.6661 91.1919 44.8873 91.7719C45.1086 92.352 45.2162 92.974 45.2162 93.6258C45.2162 94.1999 45.1445 94.7561 45.0069 95.2943C44.8694 95.8325 44.6661 96.3348 44.4149 96.8013C44.1577 97.2737 43.8528 97.7043 43.488 98.093C43.1292 98.4877 42.7285 98.8226 42.2859 99.0977C41.8434 99.3728 41.377 99.588 40.8686 99.7435C40.3663 99.899 39.84 99.9768 39.2958 99.9768C38.4885 99.9768 37.7171 99.8631 36.9815 99.6359C36.246 99.4086 35.5822 99.0438 34.9961 98.5475V84.7093V84.7213ZM38.1178 97.8418C38.2254 97.9375 38.333 98.0332 38.4467 98.1289C38.5603 98.2186 38.6799 98.3023 38.8055 98.3681C38.9311 98.4399 39.0686 98.4937 39.2181 98.5355C39.3676 98.5774 39.5231 98.6013 39.6965 98.6013C40.0434 98.6013 40.3603 98.4937 40.6414 98.2724C40.9225 98.0511 41.1677 97.7462 41.371 97.3574C41.5743 96.9687 41.7298 96.5083 41.8434 95.982C41.9511 95.4498 42.0109 94.8816 42.0109 94.2717C42.0109 93.8172 41.9511 93.3866 41.8434 92.9799C41.7298 92.5793 41.5743 92.2205 41.377 91.9155C41.1796 91.6105 40.9464 91.3713 40.6833 91.1919C40.4141 91.0184 40.1331 90.9287 39.8341 90.9287C39.5351 90.9287 39.248 91.0184 38.937 91.1978C38.6261 91.3773 38.351 91.6045 38.1297 91.8736V97.8418H38.1178Z" fill="#BDBDBD"/>
<path d="M47.429 85.2596C47.429 85.0443 47.4708 84.835 47.5605 84.6376C47.6442 84.4403 47.7698 84.2728 47.9193 84.1353C48.0748 83.9977 48.2482 83.8841 48.4516 83.8004C48.6549 83.7167 48.8702 83.6748 49.1034 83.6748C49.3366 83.6748 49.5519 83.7167 49.7552 83.8004C49.9586 83.8841 50.138 83.9977 50.2875 84.1353C50.437 84.2728 50.5566 84.4462 50.6403 84.6376C50.724 84.835 50.7719 85.0383 50.7719 85.2596C50.7719 85.4808 50.73 85.6842 50.6403 85.8755C50.5506 86.0669 50.437 86.2343 50.2875 86.3779C50.138 86.5154 49.9586 86.629 49.7552 86.7127C49.5519 86.7965 49.3307 86.8383 49.1034 86.8383C48.8762 86.8383 48.6549 86.7965 48.4516 86.7127C48.2482 86.629 48.0748 86.5154 47.9193 86.3779C47.7638 86.2403 47.6442 86.0729 47.5605 85.8755C47.4708 85.6842 47.429 85.4748 47.429 85.2596ZM47.5605 89.9959L50.6702 88.7938V99.7914H47.5605V89.9959Z" fill="#BDBDBD"/>
<path d="M58.6477 99.9887C57.8344 99.9887 57.0809 99.8512 56.3932 99.5701C55.7055 99.2891 55.1075 98.9063 54.6051 98.41C54.1028 97.9196 53.7081 97.3395 53.427 96.6817C53.146 96.0179 53.0024 95.3003 53.0024 94.5288C53.0024 93.7036 53.146 92.9381 53.427 92.2384C53.7081 91.5387 54.1028 90.9407 54.5992 90.4324C55.1015 89.9301 55.6935 89.5354 56.3813 89.2483C57.069 88.9613 57.8225 88.8237 58.6358 88.8237C59.4491 88.8237 60.2026 88.9613 60.8963 89.2423C61.59 89.5174 62.188 89.9002 62.6904 90.3846C63.1927 90.869 63.5874 91.4371 63.8744 92.0949C64.1615 92.7527 64.305 93.4584 64.305 94.2179C64.305 94.9773 64.1615 95.7608 63.8804 96.4604C63.5993 97.1601 63.2046 97.7761 62.7023 98.2963C62.2 98.8166 61.602 99.2352 60.9083 99.5402C60.2146 99.8452 59.461 100.001 58.6477 100.001V99.9887ZM59.0066 98.6731C59.2876 98.6731 59.5448 98.5774 59.784 98.3861C60.0232 98.1947 60.2325 97.9316 60.4059 97.6086C60.5853 97.2797 60.7169 96.903 60.8186 96.4784C60.9142 96.0478 60.9621 95.6053 60.9621 95.1448C60.9621 94.4571 60.9142 93.8112 60.8186 93.2012C60.7229 92.5972 60.5614 92.065 60.3461 91.6045C60.1249 91.15 59.8438 90.7852 59.491 90.5221C59.1381 90.253 58.7135 90.1214 58.2052 90.1214C57.96 90.1214 57.7208 90.2171 57.4936 90.4085C57.2663 90.5998 57.069 90.851 56.8955 91.1739C56.7221 91.4909 56.5846 91.8617 56.4829 92.2803C56.3812 92.6989 56.3274 93.1354 56.3274 93.6019C56.3274 94.2956 56.3872 94.9534 56.5128 95.5694C56.6384 96.1853 56.8118 96.7236 57.0451 97.184C57.2723 97.6445 57.5534 98.0093 57.8823 98.2784C58.2112 98.5475 58.5879 98.6851 59.0066 98.6851V98.6731Z" fill="#BDBDBD"/>
<path d="M79.5187 92.4836C79.5187 92.2444 79.4888 92.0171 79.435 91.8078C79.3752 91.5926 79.2975 91.4072 79.2018 91.2517C79.1061 91.0962 78.9865 90.9646 78.8489 90.8749C78.7174 90.7792 78.5739 90.7314 78.4184 90.7314C78.239 90.7314 78.0536 90.7613 77.8562 90.8271C77.6649 90.8929 77.4735 90.9766 77.2821 91.0783C77.0908 91.1799 76.9114 91.3055 76.7499 91.449C76.5824 91.5866 76.4389 91.7361 76.3074 91.8916V99.7914H73.2395V92.4896C73.2395 92.2504 73.2096 92.0231 73.1498 91.8138C73.09 91.5985 73.0063 91.4131 72.9046 91.2577C72.803 91.1022 72.6834 90.9706 72.5518 90.8809C72.4202 90.7852 72.2827 90.7374 72.1392 90.7374C71.9717 90.7374 71.7923 90.7673 71.6069 90.8331C71.4215 90.8988 71.2242 90.9826 71.0388 91.0842C70.8534 91.1859 70.668 91.3115 70.4886 91.455C70.3092 91.5925 70.1537 91.7421 70.0162 91.8975V99.7974H66.9185V90.0018L70.0162 88.7998V89.9659C70.5006 89.6131 71.0089 89.338 71.5292 89.1347C72.0495 88.9314 72.5518 88.8297 73.0362 88.8297C73.3053 88.8297 73.5684 88.8596 73.8435 88.9254C74.1186 88.9912 74.3758 89.0809 74.6209 89.1945C74.8661 89.3081 75.0994 89.4516 75.3146 89.6131C75.5299 89.7806 75.7093 89.9659 75.8648 90.1752C76.098 89.9779 76.3552 89.7985 76.6363 89.6311C76.9173 89.4636 77.2104 89.3201 77.5213 89.2065C77.8323 89.0928 78.1493 88.9972 78.4722 88.9314C78.7951 88.8656 79.118 88.8297 79.435 88.8297C79.8656 88.8297 80.2782 88.9194 80.6669 89.0928C81.0556 89.2663 81.3965 89.5114 81.6895 89.8164C81.9826 90.1274 82.2158 90.4862 82.3892 90.8988C82.5626 91.3115 82.6464 91.76 82.6464 92.2324V99.7854H79.5187V92.4836Z" fill="#BDBDBD"/>
<path d="M90.552 100.031C89.8284 100.031 89.1407 99.8871 88.5008 99.606C87.8609 99.319 87.3047 98.9422 86.8323 98.4578C86.3599 97.9794 85.9831 97.4173 85.708 96.7834C85.433 96.1495 85.2954 95.4797 85.2954 94.768C85.2954 93.9188 85.421 93.1295 85.6781 92.4059C85.9293 91.6823 86.2881 91.0484 86.7606 90.5161C87.227 89.9839 87.7832 89.5653 88.435 89.2663C89.0869 88.9673 89.8105 88.8177 90.6118 88.8177C91.3234 88.8177 91.9753 88.9373 92.5733 89.1766C93.1653 89.4158 93.6737 89.7387 94.0983 90.1573C94.5228 90.5699 94.8518 91.0603 95.085 91.6225C95.3182 92.1846 95.4378 92.7826 95.4378 93.4225H88.3513C88.3752 94.0205 88.4649 94.5886 88.6084 95.1268C88.752 95.6651 88.9433 96.1435 89.1825 96.5501C89.4217 96.9568 89.7028 97.2857 90.0257 97.5309C90.3487 97.7701 90.7075 97.8957 91.1022 97.8957C91.443 97.8957 91.7779 97.8359 92.1068 97.7103C92.4358 97.5907 92.7407 97.4173 93.0218 97.208C93.3029 96.9927 93.5421 96.7475 93.7514 96.4604C93.9607 96.1734 94.1102 95.8684 94.1999 95.5395L95.7787 95.8026C95.6172 96.3827 95.3661 96.9329 95.0132 97.4412C94.6604 97.9555 94.2537 98.404 93.7813 98.7867C93.3089 99.1754 92.8005 99.4744 92.2444 99.6957C91.6882 99.917 91.1321 100.025 90.564 100.025L90.552 100.031ZM91.8617 92.3102C91.8377 91.9932 91.772 91.7062 91.6643 91.4431C91.5626 91.1799 91.4311 90.9527 91.2696 90.7673C91.1081 90.5819 90.9228 90.4324 90.7075 90.3307C90.4922 90.2291 90.2649 90.1752 90.0198 90.1752C89.8284 90.1752 89.637 90.2291 89.4516 90.3307C89.2663 90.4324 89.0988 90.5759 88.9493 90.7613C88.7998 90.9467 88.6742 91.1739 88.5666 91.4371C88.4649 91.7002 88.3931 91.9932 88.3632 92.3162H91.8617V92.3102Z" fill="#BDBDBD"/>
<path d="M0.633789 105.79H1.88365V108.666H4.84982V105.79H6.09968V112.762H4.84982V109.653H1.88365V112.762H0.633789V105.79Z" fill="#BDBDBD"/>
<path d="M12.6001 110.215V110.071C12.6001 108.313 13.6706 107.446 14.9982 107.446C16.541 107.446 17.2168 108.307 17.2168 109.976V110.466H13.8021C13.8739 111.554 14.43 111.937 15.4287 111.937C16.0985 111.937 16.5889 111.788 17.0434 111.548V112.362C16.6905 112.595 16.0806 112.852 15.1955 112.852C13.4553 112.852 12.6061 111.865 12.6061 110.209L12.6001 110.215ZM13.8021 109.665H16.0267C16.0267 108.678 15.662 108.313 14.9802 108.313C14.442 108.313 13.8799 108.6 13.8021 109.665Z" fill="#BDBDBD"/>
<path d="M23.281 111.375C23.281 110.406 23.9209 109.964 24.9555 109.808L26.1874 109.665V109.27C26.1874 108.558 25.8704 108.397 24.9854 108.397C24.477 108.397 24.0285 108.469 23.7176 108.541V107.739C24.2079 107.548 24.7641 107.452 25.4458 107.452C26.6538 107.452 27.3595 107.919 27.3595 109.007V112.769H26.3907L26.301 112.344H26.2412C25.99 112.637 25.5714 112.864 24.8897 112.864C23.9448 112.864 23.281 112.386 23.281 111.381V111.375ZM26.1874 111.722V110.43L25.2186 110.532C24.6983 110.574 24.4232 110.783 24.4232 111.315C24.4232 111.812 24.7581 112.039 25.2365 112.039C25.6133 112.039 25.99 111.907 26.1814 111.722H26.1874Z" fill="#BDBDBD"/>
<path d="M34.0273 105.335H35.2054V112.768H34.0273V105.335Z" fill="#BDBDBD"/>
<path d="M42.214 111.471V108.439H41.4844V107.524H42.214V106.292H43.3622V107.524H44.612V108.439H43.3622V111.303C43.3622 111.74 43.5236 111.901 44.0738 111.901C44.2771 111.901 44.4924 111.871 44.6718 111.818V112.601C44.4685 112.703 44.1814 112.816 43.697 112.816C42.794 112.816 42.214 112.451 42.214 111.465V111.471Z" fill="#BDBDBD"/>
<path d="M51.0288 105.335H52.1949V107.978H52.2428C52.6674 107.661 53.2774 107.44 53.9113 107.44C54.9159 107.44 55.4362 107.847 55.4362 108.881V112.762H54.2581V109.156C54.2581 108.63 54.0847 108.415 53.373 108.415C52.9664 108.415 52.5119 108.546 52.1949 108.702V112.768H51.0288V105.335Z" fill="#BDBDBD"/>
<path d="M61.7812 110.263V110.101C61.7812 108.289 62.8816 107.44 64.3348 107.44C65.0285 107.44 65.4411 107.572 65.776 107.757V108.672C65.3395 108.499 65.0225 108.385 64.4066 108.385C63.5334 108.385 62.9952 108.935 62.9952 109.982V110.215C62.9952 111.417 63.4916 111.925 64.4903 111.925C65.1302 111.925 65.5667 111.722 65.8298 111.602V112.457C65.495 112.673 65.0046 112.864 64.287 112.864C62.7441 112.864 61.7872 111.997 61.7872 110.275L61.7812 110.263Z" fill="#BDBDBD"/>
<path d="M71.8401 111.375C71.8401 110.406 72.48 109.964 73.5145 109.808L74.7465 109.665V109.27C74.7465 108.558 74.4295 108.397 73.5444 108.397C73.0361 108.397 72.5876 108.469 72.2766 108.541V107.739C72.767 107.548 73.3232 107.452 74.0049 107.452C75.2129 107.452 75.9186 107.919 75.9186 109.007V112.769H74.9498L74.8601 112.344H74.8003C74.5491 112.637 74.1305 112.864 73.4488 112.864C72.5039 112.864 71.8401 112.386 71.8401 111.381V111.375ZM74.7465 111.722V110.43L73.7777 110.532C73.2574 110.574 72.9823 110.783 72.9823 111.315C72.9823 111.812 73.3172 112.039 73.7956 112.039C74.1724 112.039 74.5491 111.907 74.7405 111.722H74.7465Z" fill="#BDBDBD"/>
<path d="M82.5625 107.53H83.6928V108.14H83.7346C84.0217 107.763 84.5599 107.488 85.1041 107.488C85.2476 107.488 85.3792 107.5 85.427 107.518V108.552C85.2955 108.534 85.122 108.522 85.0024 108.522C84.536 108.522 84.0695 108.654 83.7346 108.869V112.762H82.5685V107.53H82.5625Z" fill="#BDBDBD"/>
<path d="M91.3892 110.215V110.071C91.3892 108.313 92.4596 107.446 93.7872 107.446C95.3301 107.446 96.0059 108.307 96.0059 109.976V110.466H92.5912C92.6629 111.554 93.2191 111.937 94.2178 111.937C94.8876 111.937 95.3779 111.788 95.8324 111.548V112.362C95.4796 112.595 94.8696 112.852 93.9846 112.852C92.2443 112.852 91.3951 111.865 91.3951 110.209L91.3892 110.215ZM92.5912 109.665H94.8158C94.8158 108.678 94.451 108.313 93.7693 108.313C93.2311 108.313 92.6689 108.6 92.5912 109.665Z" fill="#BDBDBD"/>
</g>
<defs>
<clipPath id="clip0_41_3742">
<rect width="96" height="112.858" fill="white"/>
</clipPath>
</defs>
</svg>
