<svg width="96" height="113" viewBox="0 0 96 113" fill="none" xmlns="http://www.w3.org/2000/svg">
<g clip-path="url(#clip0_400_3769)">
<path d="M64.4006 30.5707C59.7301 32.6638 54.5572 33.8419 49.1153 33.8419C43.6733 33.8419 38.5004 32.6638 33.8299 30.5707L49.1213 0L64.4066 30.5707H64.4006ZM12.6421 72.9523L18.6462 60.9381C23.5918 62.8996 27.2338 67.4745 27.8378 72.9523H12.6361H12.6421ZM54.2881 70.2553L42.6028 46.8787L30.7441 70.6021C29.4464 64.897 25.4218 60.2205 20.1173 58.0198L32.3827 33.4891C37.4958 35.8034 43.159 37.1011 49.1272 37.1011C55.0955 37.1011 60.7587 35.8034 65.8718 33.4891L71.5051 44.7497C62.2777 49.9465 55.6935 59.2995 54.3001 70.2553H54.2881ZM57.3081 72.9523C57.8703 62.1162 64.0359 52.7453 72.9463 47.6681L77.1265 56.0344L68.6645 72.9523H57.3022H57.3081ZM72.3184 72.9523L78.9564 59.6763L85.5944 72.9523H72.3184Z" fill="#1565C0"/>
<path d="M14.4062 99.7915H11.0094L9.31103 95.8984H4.03651L2.25441 99.7915H-0.00012207L7.34355 83.5254L14.4062 99.7915ZM4.67041 94.5708H8.7489L6.73955 89.9601L4.67041 94.5708Z" fill="#1565C0"/>
<path d="M22.4136 92.4369C22.4136 92.1618 22.3837 91.9226 22.3299 91.7073C22.2701 91.492 22.1983 91.3126 22.1026 91.1691C22.0069 91.0255 21.8933 90.9179 21.7737 90.8401C21.6481 90.7684 21.5225 90.7325 21.391 90.7325C21.2594 90.7325 21.1039 90.7624 20.9305 90.8162C20.7571 90.8701 20.5777 90.9538 20.3863 91.0554C20.1949 91.1571 20.0036 91.2827 19.8003 91.4262C19.5969 91.5697 19.4115 91.7372 19.2321 91.9226V99.7925H16.1105V89.9969L19.2321 88.7949V89.8893C19.7105 89.5245 20.2248 89.2554 20.769 89.082C21.3132 88.9086 21.8574 88.8248 22.3957 88.8248C22.8143 88.8248 23.2149 88.9086 23.5917 89.082C23.9684 89.2554 24.2974 89.4886 24.5784 89.7817C24.8595 90.0747 25.0867 90.4215 25.2542 90.8162C25.4216 91.2109 25.5054 91.6355 25.5054 92.084V99.7865H22.4136V92.4309V92.4369Z" fill="#1565C0"/>
<path d="M28.4716 85.2605C28.4716 85.0452 28.5134 84.8359 28.6031 84.6386C28.6868 84.4412 28.8124 84.2738 28.9619 84.1363C29.1174 83.9987 29.2908 83.8851 29.4942 83.8014C29.6975 83.7176 29.9128 83.6758 30.146 83.6758C30.3792 83.6758 30.5945 83.7176 30.7979 83.8014C31.0012 83.8851 31.1806 83.9987 31.3301 84.1363C31.4796 84.2738 31.5992 84.4472 31.6829 84.6386C31.7666 84.8359 31.8145 85.0393 31.8145 85.2605C31.8145 85.4818 31.7726 85.6851 31.6829 85.8765C31.5932 86.0679 31.4796 86.2353 31.3301 86.3788C31.1806 86.5164 31.0012 86.63 30.7979 86.7137C30.5945 86.7974 30.3733 86.8393 30.146 86.8393C29.9188 86.8393 29.6975 86.7974 29.4942 86.7137C29.2908 86.63 29.1174 86.5164 28.9619 86.3788C28.8064 86.2413 28.6868 86.0738 28.6031 85.8765C28.5134 85.6851 28.4716 85.4758 28.4716 85.2605ZM28.6031 89.9968L31.7128 88.7948V99.7924H28.6031V89.9968Z" fill="#1565C0"/>
<path d="M34.996 84.7215L38.1176 83.5195V89.7569C38.5183 89.4818 38.9549 89.2605 39.4273 89.0811C39.8997 88.9077 40.3542 88.818 40.7968 88.818C41.4366 88.818 42.0287 88.9436 42.5669 89.2007C43.1051 89.4579 43.5716 89.8047 43.9663 90.2413C44.3609 90.6778 44.6659 91.1921 44.8872 91.7722C45.1085 92.3523 45.2161 92.9742 45.2161 93.626C45.2161 94.2001 45.1444 94.7563 45.0068 95.2945C44.8693 95.8327 44.6659 96.3351 44.4148 96.8015C44.1576 97.274 43.8526 97.7045 43.4878 98.0932C43.129 98.4879 42.7284 98.8228 42.2858 99.0979C41.8433 99.373 41.3768 99.5883 40.8685 99.7438C40.3662 99.8993 39.8399 99.977 39.2957 99.977C38.4884 99.977 37.717 99.8634 36.9814 99.6361C36.2458 99.4089 35.582 99.0441 34.996 98.5477V84.7096V84.7215ZM38.1176 97.8421C38.2253 97.9378 38.3329 98.0334 38.4465 98.1291C38.5602 98.2188 38.6798 98.3026 38.8054 98.3683C38.9309 98.4401 39.0685 98.4939 39.218 98.5358C39.3675 98.5776 39.523 98.6016 39.6964 98.6016C40.0433 98.6016 40.3602 98.4939 40.6413 98.2727C40.9223 98.0514 41.1675 97.7464 41.3709 97.3577C41.5742 96.969 41.7297 96.5085 41.8433 95.9822C41.9509 95.45 42.0107 94.8819 42.0107 94.2719C42.0107 93.8174 41.9509 93.3868 41.8433 92.9802C41.7297 92.5795 41.5742 92.2207 41.3768 91.9157C41.1795 91.6107 40.9463 91.3715 40.6831 91.1921C40.414 91.0187 40.133 90.929 39.8339 90.929C39.5349 90.929 39.2479 91.0187 38.9369 91.1981C38.6259 91.3775 38.3509 91.6047 38.1296 91.8739V97.8421H38.1176Z" fill="#1565C0"/>
<path d="M47.4287 85.2605C47.4287 85.0452 47.4706 84.8359 47.5603 84.6386C47.644 84.4412 47.7696 84.2738 47.9191 84.1363C48.0746 83.9987 48.248 83.8851 48.4513 83.8014C48.6546 83.7176 48.8699 83.6758 49.1032 83.6758C49.3364 83.6758 49.5517 83.7176 49.755 83.8014C49.9583 83.8851 50.1377 83.9987 50.2872 84.1363C50.4367 84.2738 50.5564 84.4472 50.6401 84.6386C50.7238 84.8359 50.7716 85.0393 50.7716 85.2605C50.7716 85.4818 50.7298 85.6851 50.6401 85.8765C50.5504 86.0679 50.4367 86.2353 50.2872 86.3788C50.1377 86.5164 49.9583 86.63 49.755 86.7137C49.5517 86.7974 49.3304 86.8393 49.1032 86.8393C48.8759 86.8393 48.6546 86.7974 48.4513 86.7137C48.248 86.63 48.0746 86.5164 47.9191 86.3788C47.7636 86.2413 47.644 86.0738 47.5603 85.8765C47.4706 85.6851 47.4287 85.4758 47.4287 85.2605ZM47.5603 89.9968L50.67 88.7948V99.7924H47.5603V89.9968Z" fill="#1565C0"/>
<path d="M58.6476 99.9892C57.8343 99.9892 57.0808 99.8517 56.3931 99.5706C55.7054 99.2895 55.1073 98.9068 54.605 98.4105C54.1027 97.9201 53.708 97.34 53.4269 96.6822C53.1458 96.0184 53.0023 95.3008 53.0023 94.5293C53.0023 93.7041 53.1458 92.9386 53.4269 92.2389C53.708 91.5392 54.1027 90.9412 54.599 90.4329C55.1014 89.9306 55.6934 89.5359 56.3811 89.2488C57.0688 88.9618 57.8224 88.8242 58.6357 88.8242C59.449 88.8242 60.2025 88.9618 60.8962 89.2428C61.5899 89.5179 62.1879 89.9007 62.6902 90.385C63.1926 90.8694 63.5873 91.4376 63.8743 92.0954C64.1614 92.7532 64.3049 93.4589 64.3049 94.2184C64.3049 94.9778 64.1614 95.7612 63.8803 96.4609C63.5992 97.1606 63.2045 97.7766 62.7022 98.2968C62.1999 98.8171 61.6018 99.2357 60.9081 99.5407C60.2144 99.8457 59.4609 100.001 58.6476 100.001V99.9892ZM59.0064 98.6736C59.2875 98.6736 59.5447 98.5779 59.7839 98.3865C60.0231 98.1952 60.2324 97.932 60.4058 97.6091C60.5852 97.2802 60.7168 96.9035 60.8184 96.4789C60.9141 96.0483 60.962 95.6058 60.962 95.1453C60.962 94.4576 60.9141 93.8117 60.8184 93.2017C60.7227 92.5977 60.5613 92.0655 60.346 91.605C60.1247 91.1505 59.8437 90.7857 59.4908 90.5226C59.138 90.2535 58.7134 90.1219 58.2051 90.1219C57.9599 90.1219 57.7207 90.2176 57.4934 90.409C57.2662 90.6003 57.0689 90.8515 56.8954 91.1744C56.722 91.4914 56.5845 91.8622 56.4828 92.2808C56.3811 92.6994 56.3273 93.1359 56.3273 93.6024C56.3273 94.2961 56.3871 94.9539 56.5127 95.5699C56.6383 96.1858 56.8117 96.724 57.0449 97.1845C57.2722 97.645 57.5532 98.0098 57.8822 98.2789C58.2111 98.548 58.5878 98.6856 59.0064 98.6856V98.6736Z" fill="#1565C0"/>
<path d="M79.5185 92.4846C79.5185 92.2454 79.4886 92.0181 79.4348 91.8088C79.375 91.5935 79.2972 91.4081 79.2015 91.2527C79.1058 91.0972 78.9862 90.9656 78.8487 90.8759C78.7171 90.7802 78.5736 90.7324 78.4181 90.7324C78.2387 90.7324 78.0533 90.7623 77.856 90.8281C77.6646 90.8938 77.4732 90.9776 77.2819 91.0792C77.0905 91.1809 76.9111 91.3065 76.7496 91.45C76.5822 91.5875 76.4387 91.7371 76.3071 91.8925V99.7924H73.2393V92.4906C73.2393 92.2513 73.2094 92.0241 73.1496 91.8148C73.0898 91.5995 73.006 91.4141 72.9044 91.2586C72.8027 91.1032 72.6831 90.9716 72.5516 90.8819C72.42 90.7862 72.2824 90.7384 72.1389 90.7384C71.9715 90.7384 71.7921 90.7683 71.6067 90.834C71.4213 90.8998 71.2239 90.9835 71.0386 91.0852C70.8532 91.1869 70.6678 91.3125 70.4884 91.456C70.309 91.5935 70.1535 91.743 70.016 91.8985V99.7983H66.9182V90.0028L70.016 88.8008V89.9669C70.5003 89.6141 71.0087 89.339 71.5289 89.1357C72.0492 88.9323 72.5515 88.8307 73.0359 88.8307C73.3051 88.8307 73.5682 88.8606 73.8433 88.9264C74.1184 88.9921 74.3755 89.0818 74.6207 89.1955C74.8659 89.3091 75.0991 89.4526 75.3144 89.6141C75.5297 89.7815 75.7091 89.9669 75.8646 90.1762C76.0978 89.9789 76.3549 89.7995 76.636 89.632C76.9171 89.4646 77.2101 89.3211 77.5211 89.2074C77.8321 89.0938 78.149 88.9981 78.4719 88.9323C78.7949 88.8666 79.1178 88.8307 79.4348 88.8307C79.8653 88.8307 80.278 88.9204 80.6667 89.0938C81.0554 89.2672 81.3963 89.5124 81.6893 89.8174C81.9823 90.1284 82.2155 90.4872 82.389 90.8998C82.5624 91.3125 82.6461 91.761 82.6461 92.2334V99.7864H79.5185V92.4846Z" fill="#1565C0"/>
<path d="M90.5519 100.031C89.8283 100.031 89.1406 99.8877 88.5007 99.6066C87.8608 99.3196 87.3046 98.9428 86.8322 98.4584C86.3598 97.98 85.983 97.4179 85.7079 96.784C85.4328 96.1501 85.2953 95.4803 85.2953 94.7686C85.2953 93.9195 85.4209 93.1301 85.678 92.4065C85.9292 91.6829 86.288 91.049 86.7604 90.5167C87.2269 89.9845 87.783 89.5659 88.4349 89.2669C89.0867 88.9679 89.8103 88.8184 90.6117 88.8184C91.3233 88.8184 91.9752 88.938 92.5732 89.1772C93.1652 89.4164 93.6735 89.7393 94.0981 90.1579C94.5227 90.5705 94.8516 91.0609 95.0849 91.6231C95.3181 92.1852 95.4377 92.7832 95.4377 93.4231H88.3512C88.3751 94.0211 88.4648 94.5892 88.6083 95.1275C88.7518 95.6657 88.9432 96.1441 89.1824 96.5507C89.4216 96.9574 89.7027 97.2863 90.0256 97.5315C90.3485 97.7707 90.7074 97.8963 91.102 97.8963C91.4429 97.8963 91.7778 97.8365 92.1067 97.7109C92.4356 97.5913 92.7406 97.4179 93.0217 97.2086C93.3028 96.9933 93.542 96.7481 93.7513 96.461C93.9606 96.174 94.1101 95.869 94.1998 95.5401L95.7786 95.8032C95.6171 96.3833 95.3659 96.9335 95.0131 97.4418C94.6603 97.9561 94.2536 98.4046 93.7812 98.7873C93.3087 99.176 92.8004 99.4751 92.2443 99.6963C91.6881 99.9176 91.132 100.025 90.5638 100.025L90.5519 100.031ZM91.8615 92.3108C91.8376 91.9938 91.7718 91.7068 91.6642 91.4437C91.5625 91.1805 91.431 90.9533 91.2695 90.7679C91.108 90.5825 90.9226 90.433 90.7074 90.3313C90.4921 90.2297 90.2648 90.1759 90.0196 90.1759C89.8283 90.1759 89.6369 90.2297 89.4515 90.3313C89.2661 90.433 89.0987 90.5765 88.9492 90.7619C88.7997 90.9473 88.6741 91.1745 88.5665 91.4377C88.4648 91.7008 88.393 91.9938 88.3631 92.3168H91.8615V92.3108Z" fill="#1565C0"/>
<path d="M0.633789 105.791H1.88365V108.667H4.84982V105.791H6.09968V112.764H4.84982V109.654H1.88365V112.764H0.633789V105.791Z" fill="#1565C0"/>
<path d="M12.6001 110.216V110.073C12.6001 108.314 13.6706 107.447 14.9982 107.447C16.541 107.447 17.2168 108.308 17.2168 109.977V110.467H13.8021C13.8739 111.556 14.43 111.938 15.4287 111.938C16.0985 111.938 16.5889 111.789 17.0434 111.55V112.363C16.6905 112.596 16.0806 112.853 15.1955 112.853C13.4553 112.853 12.6061 111.867 12.6061 110.21L12.6001 110.216ZM13.8021 109.666H16.0267C16.0267 108.679 15.662 108.314 14.9802 108.314C14.442 108.314 13.8799 108.601 13.8021 109.666Z" fill="#1565C0"/>
<path d="M23.281 111.376C23.281 110.407 23.9209 109.965 24.9555 109.809L26.1874 109.666V109.271C26.1874 108.559 25.8704 108.398 24.9854 108.398C24.477 108.398 24.0285 108.47 23.7176 108.542V107.74C24.2079 107.549 24.7641 107.453 25.4458 107.453C26.6538 107.453 27.3595 107.92 27.3595 109.008V112.77H26.3907L26.301 112.345H26.2412C25.99 112.638 25.5714 112.865 24.8897 112.865C23.9448 112.865 23.281 112.387 23.281 111.382V111.376ZM26.1874 111.723V110.431L25.2186 110.533C24.6983 110.575 24.4232 110.784 24.4232 111.316C24.4232 111.813 24.7581 112.04 25.2365 112.04C25.6133 112.04 25.99 111.908 26.1814 111.723H26.1874Z" fill="#1565C0"/>
<path d="M34.0273 105.336H35.2054V112.769H34.0273V105.336Z" fill="#1565C0"/>
<path d="M42.2141 111.472V108.44H41.4845V107.525H42.2141V106.293H43.3623V107.525H44.6121V108.44H43.3623V111.304C43.3623 111.741 43.5237 111.902 44.0739 111.902C44.2772 111.902 44.4925 111.872 44.6719 111.819V112.602C44.4686 112.704 44.1816 112.817 43.6972 112.817C42.7942 112.817 42.2141 112.453 42.2141 111.466V111.472Z" fill="#1565C0"/>
<path d="M51.0288 105.336H52.1949V107.979H52.2428C52.6674 107.662 53.2774 107.441 53.9113 107.441C54.9159 107.441 55.4362 107.848 55.4362 108.882V112.763H54.2581V109.157C54.2581 108.631 54.0847 108.416 53.373 108.416C52.9664 108.416 52.5119 108.547 52.1949 108.703V112.769H51.0288V105.336Z" fill="#1565C0"/>
<path d="M61.7812 110.264V110.103C61.7812 108.291 62.8816 107.441 64.3348 107.441C65.0285 107.441 65.4411 107.573 65.776 107.758V108.673C65.3395 108.5 65.0225 108.386 64.4066 108.386C63.5334 108.386 62.9952 108.936 62.9952 109.983V110.216C62.9952 111.418 63.4916 111.927 64.4903 111.927C65.1302 111.927 65.5667 111.723 65.8298 111.604V112.459C65.495 112.674 65.0046 112.865 64.287 112.865C62.7441 112.865 61.7872 111.998 61.7872 110.276L61.7812 110.264Z" fill="#1565C0"/>
<path d="M71.8401 111.376C71.8401 110.407 72.48 109.965 73.5145 109.809L74.7465 109.666V109.271C74.7465 108.559 74.4295 108.398 73.5444 108.398C73.0361 108.398 72.5876 108.47 72.2766 108.542V107.74C72.767 107.549 73.3232 107.453 74.0049 107.453C75.2129 107.453 75.9186 107.92 75.9186 109.008V112.77H74.9498L74.8601 112.345H74.8003C74.5491 112.638 74.1305 112.865 73.4488 112.865C72.5039 112.865 71.8401 112.387 71.8401 111.382V111.376ZM74.7465 111.723V110.431L73.7777 110.533C73.2574 110.575 72.9823 110.784 72.9823 111.316C72.9823 111.813 73.3172 112.04 73.7956 112.04C74.1724 112.04 74.5491 111.908 74.7405 111.723H74.7465Z" fill="#1565C0"/>
<path d="M82.5624 107.53H83.6926V108.14H83.7345C84.0215 107.763 84.5598 107.488 85.104 107.488C85.2475 107.488 85.3791 107.5 85.4269 107.518V108.553C85.2953 108.535 85.1219 108.523 85.0023 108.523C84.5358 108.523 84.0694 108.654 83.7345 108.87V112.763H82.5684V107.53H82.5624Z" fill="#1565C0"/>
<path d="M91.3892 110.216V110.073C91.3892 108.314 92.4596 107.447 93.7872 107.447C95.3301 107.447 96.0059 108.308 96.0059 109.977V110.467H92.5912C92.6629 111.556 93.2191 111.938 94.2178 111.938C94.8876 111.938 95.3779 111.789 95.8324 111.55V112.363C95.4796 112.596 94.8696 112.853 93.9846 112.853C92.2443 112.853 91.3951 111.867 91.3951 110.21L91.3892 110.216ZM92.5912 109.666H94.8158C94.8158 108.679 94.451 108.314 93.7693 108.314C93.2311 108.314 92.6689 108.601 92.5912 109.666Z" fill="#1565C0"/>
</g>
<defs>
<clipPath id="clip0_400_3769">
<rect width="96" height="112.858" fill="white"/>
</clipPath>
</defs>
</svg>
