<svg width="339" height="217" viewBox="0 0 339 217" fill="none" xmlns="http://www.w3.org/2000/svg">
<g clip-path="url(#clip0_65_5531)">
<path d="M27.6485 67.7203C32.5609 67.7203 36.5432 63.7365 36.5432 58.8222C36.5432 53.9079 32.5609 49.9241 27.6485 49.9241C22.7362 49.9241 18.7539 53.9079 18.7539 58.8222C18.7539 63.7365 22.7362 67.7203 27.6485 67.7203Z" fill="#593C27"/>
<path d="M30.5018 59.7474C31.9364 59.7474 33.0994 58.584 33.0994 57.1489C33.0994 55.7137 31.9364 54.5503 30.5018 54.5503C29.0673 54.5503 27.9043 55.7137 27.9043 57.1489C27.9043 58.584 29.0673 59.7474 30.5018 59.7474Z" fill="white"/>
<path d="M261.368 178.593C262.057 185.719 254.146 197.905 252.198 204.342C249.266 213.909 230.572 217.473 223.428 210.504C220.201 207.354 221.421 203.85 223.232 200.602C228.525 191.152 231.851 177.982 234.704 167.568C241.867 172.273 252.631 165.619 261.368 178.593Z" fill="#CEAE8D"/>
<path d="M121.691 171.958C123.679 181.112 125.272 192.845 125.292 202.393C125.292 208.811 122.301 211.626 117.145 214.047C110.907 216.98 104.098 217.138 99.6512 212.925C94.6922 208.24 95.991 196.133 95.1055 189.853C100.242 179.971 105.043 145.126 121.691 171.939V171.958Z" fill="#CEAE8D"/>
<path d="M119.547 68.4488C123.935 70.9686 127.831 73.9018 132.613 75.6736C137.002 77.3075 139.481 79.7683 146.309 81.5991C144.046 82.8196 141.587 80.4967 139.481 79.7683C129.642 76.3626 126.218 79.0202 127.064 89.5129C128.127 102.762 134.089 113.333 144.086 121.956C155.893 132.133 178.267 132.055 190.487 122.034C202.708 112.014 204.833 98.8638 203.515 84.3355C225.456 84.6701 246 81.166 267.725 74.5121C290.552 67.5235 300.923 59.7475 320.345 36.951C322.884 33.9784 326.564 30.6317 330.44 32.6004C334.533 34.6674 332.88 39.8645 332.27 43.349C330.539 53.2314 320.168 65.6927 303.52 77.4059C302.202 78.3312 300.805 79.2368 299.407 80.0439C286.479 87.623 282.386 96.7574 288.683 112.113C293.11 122.92 292.067 134.063 287.01 145.579C283.389 153.808 284.078 160.619 291.024 166.702C294.921 170.108 295.944 174.754 296.279 179.951C296.83 188.258 294.842 196.212 293.661 204.204C292.166 214.323 278.745 220.268 269.91 215.11C264.655 212.059 266.859 207.354 268.06 202.885C270.342 194.46 272.625 185.857 260.739 182.412C254.875 172.805 244.406 171.899 235.098 168.828C233.17 167.49 231.222 166.151 229.293 164.812C228.231 160.757 226.027 154.497 222.347 156.465C217.526 159.044 210.914 161.761 209.694 168.848C190.586 177.274 170.553 180.187 149.911 177.884C140.918 176.88 132.771 173.238 123.856 171.486C121.357 166.308 113.958 168.375 110.79 163.985C109.963 162.824 108.015 163.69 107.602 164.93C104.198 175.325 97.8415 185.601 93.65 194.322C88.4549 202.334 80.6425 207.078 72.2202 210.74C65.1753 213.791 58.1698 212.413 53.8996 206.015C49.8458 199.952 52.7189 194.46 57.8746 189.715C80.3277 168.986 85.6605 146.366 73.9322 118.117C92.7644 104.907 107.897 88.2924 119.566 68.4881L119.547 68.4488Z" fill="#E8C59A"/>
<path d="M5.25411 84.2961C5.13604 84.0205 5.11636 83.7252 5.11636 83.4299C5.03765 78.528 9.0914 75.5948 10.9412 71.4017C12.7909 67.2085 13.2239 62.5626 13.1648 58.0348C13.0271 44.9829 24.0864 31.7145 36.2476 29.0962C36.3263 32.5216 37.7235 35.1989 40.0652 37.7778C47.9169 46.4594 57.4609 53.3298 65.2536 62.1689C71.3932 69.1181 53.2498 23.2101 62.7151 24.7456C71.8459 26.2221 74.7583 26.2221 95.3025 44.8845C100.655 50.6722 106.008 56.4796 111.36 62.2673C108.31 62.3461 106.165 63.2123 104.355 66.2439C94.7122 82.3668 81.2128 94.8872 66.1785 105.872C60.275 99.0213 54.6863 100.36 47.8579 105.262C36.1295 113.668 22.2956 115.085 11.0396 107.919C8.6388 106.384 6.39546 103.628 5.15572 99.9465C4.84087 99.0213 7.53681 97.1314 8.08781 96.0684C8.73719 94.7888 9.13076 93.3911 9.0914 91.954C9.05205 90.5169 8.59944 89.0995 7.89102 87.8396C7.1826 86.5797 5.74607 85.556 5.25411 84.3355V84.2961Z" fill="#E8C59A"/>
<path d="M209.672 168.828C210.892 161.741 217.524 159.025 222.325 156.446C226.005 154.477 228.209 160.737 229.272 164.793C222.975 167.332 216.52 169.005 209.652 168.828H209.672Z" fill="#E8C59A"/>
<path d="M25.3256 34.4705C25.6995 34.2343 26.526 38.6046 26.526 38.8605C26.526 42.9749 23.3775 45.6128 21.8032 49.0973C20.0715 52.9361 20.0715 57.7198 20.4454 61.8145C20.6815 64.4328 21.1735 67.2479 22.4526 69.5708C23.8694 72.13 26.3292 73.8624 28.2774 75.9688C30.0091 77.8587 31.2488 80.1226 32.1934 82.5046C34.4958 88.2726 34.7319 94.71 33.0789 100.675C29.4581 113.746 17.474 110.951 17.474 110.951C17.474 110.951 4.78138 108.057 5.13559 99.8678C5.4898 91.6783 3.79746 84.8276 3.79746 84.8276C3.79746 84.8276 2.89225 79.0989 7.00504 74.1774C12.023 68.1928 12.0034 55.0818 12.0034 55.0818C12.0034 55.0818 12.9479 42.3449 25.306 34.4508L25.3256 34.4705Z" fill="#F4EFE5"/>
<path d="M3.81714 84.8473C6.4934 87.4656 9.2287 90.9303 8.24478 94.9069C7.85121 96.5409 6.88697 97.9976 5.7653 99.2772C5.54884 99.5332 5.3127 99.7891 4.99785 99.8875C3.77778 100.301 1.16056 97.1708 0.707952 96.1865C-0.118542 94.4345 -0.118542 91.7965 0.156956 89.946C0.491489 87.5837 2.1248 86.3238 3.79746 84.8276L3.81714 84.8473Z" fill="#593C27"/>
<path d="M127.555 73.2915C127.555 73.2915 117.893 124.554 162.346 129.299C206.8 134.043 207.351 84.3748 207.351 84.3748C207.351 84.3748 150.343 82.918 127.535 73.2719L127.555 73.2915Z" fill="#E8C59A"/>
<path d="M66.1777 105.852C66.1777 105.852 72.4158 114.199 73.9114 118.077C75.4069 121.955 103.094 133.314 103.094 133.314L119.546 68.4486C119.546 68.4486 114.232 65.3382 111.379 62.2475C108.526 59.1568 81.2514 82.1699 81.2514 82.1699L66.1777 105.852Z" fill="#E8C59A"/>
<path d="M110.77 163.946C110.77 163.946 167.01 117.684 229.273 164.793C229.273 164.793 191.805 179.419 159.198 178.533C126.591 177.648 113.465 167.824 113.465 167.824C113.465 167.824 111.95 166.525 110.77 163.926V163.946Z" fill="#EAE4DA"/>
<path d="M30.4998 65.4958C33.369 65.4958 35.6949 63.169 35.6949 60.2987C35.6949 57.4284 33.369 55.1016 30.4998 55.1016C27.6306 55.1016 25.3047 57.4284 25.3047 60.2987C25.3047 63.169 27.6306 65.4958 30.4998 65.4958Z" fill="#593C27"/>
<path d="M32.1734 60.83C33.0103 60.83 33.6887 60.1513 33.6887 59.3142C33.6887 58.477 33.0103 57.7983 32.1734 57.7983C31.3366 57.7983 30.6582 58.477 30.6582 59.3142C30.6582 60.1513 31.3366 60.83 32.1734 60.83Z" fill="white"/>
<path d="M46.6753 22.7376C42.4641 23.5644 35.8522 25.6117 35.6948 30.6514C35.557 35.1201 39.7091 41.7544 41.6376 45.6916C44.3729 51.2431 49.0564 55.6134 51.5949 61.283C55.4125 69.7874 48.7219 80.5163 53.8973 88.0167C55.4519 90.2609 57.9314 91.8161 60.647 92.1311C62.8313 92.387 65.3501 91.8161 67.5344 91.5209C70.1713 91.1665 72.7886 90.7137 75.3468 89.9853C85.6386 87.0521 97.7211 79.5123 98.5476 68.5865C99.7677 52.7983 87.3309 37.3447 75.1106 27.9741C66.1373 21.1036 55.9832 20.8674 46.636 22.7179L46.6753 22.7376Z" fill="#593C27"/>
<path d="M177.184 25.4739L172.658 23.1115C172.579 20.513 171.93 18.0719 170.789 15.9064L175.236 9.94152C175.334 8.97691 174.646 8.1304 173.701 8.01229L166.912 11.0243C164.846 9.23282 162.347 7.95323 159.572 7.36264L157.781 0.511878C157.092 -0.177136 155.99 -0.177136 155.321 0.511878L153.57 7.22484C150.717 7.67762 148.099 8.8391 145.915 10.5518L141.35 7.77605C140.385 7.77605 139.598 8.52413 139.579 9.48874L142.353 14.3709C141.389 15.8277 140.661 17.4222 140.189 19.1546L131.963 20.9264C131.215 21.576 131.117 22.6588 131.727 23.3675L139.756 25.7692C140.09 28.2102 140.936 30.4938 142.216 32.4624L138.654 36.9706C138.516 37.9155 139.185 38.8014 140.149 38.9392L145.935 36.5375C147.666 37.8958 149.674 38.8998 151.858 39.4904L153.098 44.9041C153.767 45.6521 154.849 45.7309 155.538 45.1009L156.994 40.0219C159.828 39.8841 162.484 39.0179 164.767 37.6202L171.458 41.4393C172.422 41.4393 173.189 40.6322 173.189 39.6872L169.411 33.3877C170.611 31.7734 171.517 29.9426 172.087 27.9543L176.653 27.8165C177.46 27.3047 177.715 26.2219 177.204 25.4148L177.184 25.4739Z" fill="#5FAFFE"/>
<path opacity="0.4" d="M338.881 135.342L336.618 134.161C336.579 132.862 336.244 131.641 335.693 130.558L337.917 127.586C337.976 127.113 337.622 126.68 337.15 126.621L333.765 128.137C332.742 127.251 331.482 126.602 330.105 126.306L329.199 122.881C328.865 122.546 328.314 122.546 327.96 122.881L327.094 126.228C325.657 126.444 324.359 127.035 323.257 127.881L320.974 126.503C320.502 126.503 320.088 126.877 320.088 127.369L321.466 129.81C320.974 130.539 320.62 131.346 320.384 132.192L316.271 133.078C315.897 133.413 315.838 133.944 316.153 134.299L320.167 135.5C320.325 136.72 320.757 137.862 321.407 138.846L319.636 141.11C319.577 141.583 319.911 142.035 320.384 142.095L323.276 140.894C324.142 141.563 325.146 142.075 326.228 142.37L326.838 145.087C327.173 145.461 327.704 145.5 328.058 145.185L328.786 142.646C330.203 142.567 331.522 142.154 332.663 141.445L336.008 143.354C336.481 143.354 336.874 142.961 336.874 142.469L334.985 139.319C335.595 138.512 336.048 137.606 336.323 136.602L338.606 136.543C339.019 136.287 339.137 135.756 338.881 135.342Z" fill="#5FAFFE"/>
<path opacity="0.4" d="M200.761 60.6134L199.403 59.9047C199.383 59.1172 199.186 58.3889 198.852 57.7392L200.19 55.9478C200.229 55.6525 200.013 55.3966 199.737 55.3769L197.71 56.2824C197.1 55.7509 196.333 55.3572 195.506 55.18L194.975 53.113C194.778 52.9161 194.444 52.9161 194.227 53.113L193.696 55.121C192.83 55.2588 192.063 55.6131 191.394 56.125L190.016 55.2981C189.721 55.2981 189.485 55.5147 189.485 55.81L190.311 57.2864C190.016 57.7195 189.8 58.2117 189.662 58.7235L187.182 59.255C186.966 59.4519 186.927 59.7866 187.104 59.9834L189.504 60.7118C189.603 61.4402 189.859 62.1292 190.252 62.7198L189.19 64.0781C189.15 64.3734 189.347 64.6293 189.642 64.6687L191.374 63.9403C191.886 64.3537 192.496 64.649 193.145 64.8262L193.519 66.4602C193.716 66.6767 194.05 66.7161 194.247 66.5192L194.68 65.0034C195.526 64.964 196.333 64.7081 197.002 64.275L199.009 65.4168C199.304 65.4168 199.521 65.1806 199.521 64.8853L198.399 62.9954C198.753 62.5033 199.029 61.9717 199.206 61.3615L200.583 61.3221C200.82 61.1646 200.898 60.8496 200.741 60.5937L200.761 60.6134Z" fill="#5FAFFE"/>
<path d="M174.763 116.05C152.782 116.05 134.953 133.885 134.953 155.875C134.953 177.864 152.782 195.7 174.763 195.7C196.743 195.7 214.572 177.864 214.572 155.875C214.572 133.885 196.743 116.05 174.763 116.05Z" fill="#5FAFFE"/>
<path d="M226.301 195.031L208.807 178.888C205.914 175.955 201.211 175.955 198.298 178.888C195.406 181.801 195.406 186.546 198.298 189.479L215.793 205.622C218.685 208.535 223.388 208.535 226.281 205.622C229.174 202.688 229.174 197.964 226.281 195.031H226.301Z" fill="#5FAFFE"/>
<path d="M174.764 125.243C157.86 125.243 144.164 138.945 144.164 155.855C144.164 172.765 157.86 186.467 174.764 186.467C191.668 186.467 205.364 172.765 205.364 155.855C205.364 138.945 191.668 125.243 174.764 125.243Z" fill="white"/>
<path d="M165.928 153.217C165.535 152.213 164.452 151.662 163.488 151.977C160.556 152.941 155.479 156.426 157.368 162.745C157.368 162.784 157.407 162.843 157.427 162.883C157.427 162.922 159.198 167.726 156.797 169.576C156.01 170.186 155.912 171.387 156.581 172.234C157.25 173.08 158.431 173.277 159.218 172.667C163.449 169.379 161.284 162.804 160.95 161.839C159.69 157.489 164.374 155.776 164.925 155.579C164.964 155.579 164.984 155.56 165.023 155.54C165.082 155.52 165.161 155.481 165.22 155.442C165.22 155.442 165.239 155.442 165.259 155.422C165.987 154.989 166.302 154.063 165.968 153.178L165.928 153.217Z" fill="#C4CACE"/>
<path d="M196.134 156.072C194.756 156.072 193.654 157.194 193.654 158.552C193.654 159.911 194.776 161.033 196.134 161.033C197.492 161.033 198.613 159.911 198.613 158.552C198.613 157.194 197.492 156.072 196.134 156.072Z" fill="#C4CACE"/>
<path d="M157.977 140.933C156.954 140.933 156.107 141.76 156.107 142.803C156.107 143.847 156.954 144.673 157.977 144.673C159 144.673 159.846 143.847 159.846 142.803C159.846 141.76 159 140.933 157.977 140.933Z" fill="#C4CACE"/>
<path d="M179.014 160.599C177.991 160.599 177.145 161.426 177.145 162.47C177.145 163.513 177.991 164.34 179.014 164.34C180.037 164.34 180.883 163.513 180.883 162.47C180.883 161.426 180.037 160.599 179.014 160.599Z" fill="#C4CACE"/>
<path d="M184.109 173.632C180.174 169.281 173.798 171.683 173.798 171.683C172.775 171.584 172.007 171.86 171.653 172.746C171.279 173.632 171.653 174.596 172.48 174.911C178.678 175.128 178.698 172.372 181.925 176.348C181.984 176.427 182.083 176.467 182.181 176.526C182.83 176.88 183.696 176.683 184.228 176.014C184.838 175.266 184.779 174.203 184.109 173.632Z" fill="#C4CACE"/>
<path d="M187.909 143.847L186.138 142.921C186.118 141.917 185.862 140.953 185.41 140.106L187.141 137.783C187.181 137.409 186.925 137.075 186.551 137.035L183.914 138.216C183.107 137.527 182.143 137.015 181.061 136.799L180.372 134.122C180.097 133.866 179.683 133.866 179.408 134.122L178.719 136.74C177.597 136.917 176.574 137.37 175.728 138.039L173.957 136.956C173.583 136.956 173.268 137.252 173.268 137.626L174.35 139.535C173.977 140.106 173.681 140.736 173.504 141.405L170.297 142.095C170.002 142.35 169.962 142.764 170.198 143.039L173.327 143.984C173.465 144.929 173.78 145.815 174.291 146.603L172.914 148.355C172.855 148.729 173.13 149.063 173.485 149.122L175.748 148.178C176.417 148.709 177.204 149.103 178.05 149.339L178.542 151.445C178.798 151.741 179.231 151.78 179.487 151.524L180.057 149.536C181.159 149.477 182.202 149.142 183.088 148.591L185.685 150.087C186.059 150.087 186.354 149.772 186.354 149.398L184.878 146.937C185.351 146.307 185.705 145.599 185.921 144.831L187.712 144.772C188.027 144.575 188.125 144.162 187.929 143.827L187.909 143.847Z" fill="#C4CACE"/>
</g>
<defs>
<clipPath id="clip0_65_5531">
<rect width="339" height="217" fill="white"/>
</clipPath>
</defs>
</svg>
