<svg width="200" height="133" viewBox="0 0 200 133" fill="none" xmlns="http://www.w3.org/2000/svg">
<g clip-path="url(#clip0_65_5341)">
<path d="M101.455 128.126C135.605 128.126 163.29 100.511 163.29 66.4462C163.29 32.3815 135.605 4.7666 101.455 4.7666C67.3052 4.7666 39.6211 32.3815 39.6211 66.4462C39.6211 100.511 67.3052 128.126 101.455 128.126Z" stroke="url(#paint0_linear_65_5341)" stroke-width="1.5"/>
<path d="M154.994 31.9932C153.292 31.9932 151.913 33.3689 151.913 35.0659C151.913 36.763 153.292 38.1387 154.994 38.1387C156.695 38.1387 158.074 36.763 158.074 35.0659C158.074 33.3689 156.695 31.9932 154.994 31.9932Z" fill="#097EEA"/>
<path d="M51.1493 62.5512C49.563 62.5512 48.277 63.8339 48.277 65.4162C48.277 66.9985 49.563 68.2812 51.1493 68.2812C52.7355 68.2812 54.0215 66.9985 54.0215 65.4162C54.0215 63.8339 52.7355 62.5512 51.1493 62.5512Z" fill="#097EEA"/>
<path d="M32.3229 44.7069C30.7279 44.7069 29.4349 43.4171 29.4349 41.8261C29.4349 40.2351 30.7279 38.9453 32.3229 38.9453C33.9179 38.9453 35.2109 40.2351 35.2109 41.8261C35.2109 43.4171 33.9179 44.7069 32.3229 44.7069Z" fill="#097EEA"/>
<path d="M145.144 58.1507C144.4 58.1507 143.797 57.5488 143.797 56.8063C143.797 56.0638 144.4 55.4619 145.144 55.4619C145.889 55.4619 146.492 56.0638 146.492 56.8063C146.492 57.5488 145.889 58.1507 145.144 58.1507Z" fill="#097EEA"/>
<path d="M90.4585 116.146C89.5015 116.146 88.7256 115.372 88.7256 114.417C88.7256 113.462 89.5015 112.688 90.4585 112.688C91.4156 112.688 92.1914 113.462 92.1914 114.417C92.1914 115.372 91.4156 116.146 90.4585 116.146Z" fill="#E1E4E5"/>
<path d="M37.6163 98.5814C36.2339 98.5814 35.1134 97.4636 35.1134 96.0848C35.1134 94.7059 36.2339 93.5881 37.6163 93.5881C38.9986 93.5881 40.1191 94.7059 40.1191 96.0848C40.1191 97.4636 38.9986 98.5814 37.6163 98.5814Z" fill="#E1E4E5"/>
<path d="M60.7514 36.9526C59.6993 36.9526 58.8465 36.1019 58.8465 35.0525C58.8465 34.0031 59.6993 33.1523 60.7514 33.1523C61.8034 33.1523 62.6562 34.0031 62.6562 35.0525C62.6562 36.1019 61.8034 36.9526 60.7514 36.9526Z" fill="#E1E4E5"/>
<path d="M68.2404 104.493C68.5122 105.505 67.9102 106.545 66.8956 106.816C65.8811 107.088 64.8383 106.487 64.5664 105.475C64.2946 104.463 64.8967 103.423 65.9112 103.152C66.9257 102.88 67.9685 103.481 68.2404 104.493Z" fill="#E1E4E5"/>
<path d="M85.8333 21.6355C84.436 21.6355 83.3033 20.5056 83.3033 19.1118C83.3033 17.718 84.436 16.5881 85.8333 16.5881C87.2306 16.5881 88.3633 17.718 88.3633 19.1118C88.3633 20.5056 87.2306 21.6355 85.8333 21.6355Z" fill="#E1E4E5"/>
<path d="M132.675 10.6918C133.24 12.7979 131.987 14.9628 129.876 15.5272C127.764 16.0915 125.594 14.8416 125.028 12.7355C124.463 10.6293 125.716 8.46438 127.827 7.90003C129.938 7.33568 132.109 8.58558 132.675 10.6918Z" fill="#E1E4E5"/>
<path d="M149.406 91.2009H149.457C149.758 95.4618 152.935 95.5274 152.935 95.5274C152.935 95.5274 149.432 95.5957 149.432 100.519C149.432 95.5957 145.929 95.5274 145.929 95.5274C145.929 95.5274 149.104 95.4618 149.406 91.2009ZM128.909 116.746H128.954C129.222 120.603 132.041 120.662 132.041 120.662C132.041 120.662 128.932 120.724 128.932 125.18C128.932 120.724 125.824 120.662 125.824 120.662C125.824 120.662 128.642 120.603 128.909 116.746Z" fill="#E1E4E5"/>
<path d="M99.9996 108.617C123.318 108.617 142.222 89.7112 142.222 66.3896C142.222 43.068 123.318 24.1621 99.9996 24.1621C76.6809 24.1621 57.7773 43.068 57.7773 66.3896C57.7773 89.7112 76.6809 108.617 99.9996 108.617Z" fill="#0074E0" fill-opacity="0.07"/>
<path d="M152.789 50.707C152.789 68.1748 173.803 68.1748 173.803 85.6426" stroke="#E1E4E5" stroke-width="2.27778" stroke-linecap="round" stroke-linejoin="round"/>
<path d="M173.802 50.707C173.802 68.1748 152.788 68.1748 152.788 85.6426M152.865 52.4538H173.724M155.006 59.4409H171.583M173.724 83.8959H152.865M171.467 76.9087H155.006M26.1758 50.707C26.1758 68.1748 47.1896 68.1748 47.1896 85.6426" stroke="#E1E4E5" stroke-width="2.27778" stroke-linecap="round" stroke-linejoin="round"/>
<path d="M47.1896 50.707C47.1896 68.1748 26.1758 68.1748 26.1758 85.6426M26.2531 52.4535H47.1113M28.3936 59.4409H44.9711M47.1113 83.8959H26.2531M44.8544 76.9087H28.3936" stroke="#E1E4E5" stroke-width="2.27778" stroke-linecap="round" stroke-linejoin="round"/>
<path fill-rule="evenodd" clip-rule="evenodd" d="M133.685 29.5659C133.685 37.5993 127.622 45.1108 119.474 46.9348C111.326 45.1108 105.264 37.5993 105.264 29.5659V23.2556C105.264 22.5527 105.474 21.8658 105.867 21.2825C106.261 20.6992 106.819 20.2461 107.472 19.9809L116.353 16.3615C118.354 15.5459 120.595 15.5459 122.595 16.3615L131.477 19.9809C132.813 20.5259 133.685 21.8191 133.685 23.2556V29.5659Z" fill="#097EEA"/>
<path d="M125.159 28.0339L118.646 33.7039L114.738 30.302" stroke="white" stroke-width="3.69444" stroke-linecap="round" stroke-linejoin="round"/>
<path d="M96.2487 76.9476C95.4879 77.4045 94.9126 77.067 94.1498 76.8654C93.4836 76.689 92.9937 76.9888 92.3725 77.1039C90.1842 77.508 90.0595 74.918 88.4239 74.265C88.0491 75.2564 88.2279 76.2585 88.1522 77.2827C88.0411 78.7807 87.9297 80.2843 87.7252 81.7726C87.4034 84.1129 88.0303 86.6025 87.4142 88.9199C87.1636 89.8611 86.885 91.3177 86.0917 91.9704C85.6728 92.3151 83.7523 92.5007 83.4288 92.059C83.1097 91.6241 81.0313 92.0085 80.4127 91.7275C78.9155 91.046 80.0752 90.1858 80.8789 89.4173C81.6381 88.691 82.6042 88.2917 82.9201 87.2054C83.2585 86.0429 83.3206 84.1705 82.9823 83.0357C82.6724 81.999 83.131 80.8606 82.9662 79.7796C82.7077 78.0843 82.31 76.677 82.4876 74.9115C82.6491 73.3069 83.1446 71.9736 82.5541 70.351C82.1685 69.0355 81.8755 67.9491 82.2595 66.5722C82.8576 64.426 82.9153 61.7687 83.8525 59.7556C84.0377 59.3584 84.6951 58.8746 84.5187 58.5093C84.1996 57.8507 83.883 57.0979 83.3931 56.5467C82.6479 55.2745 82.164 53.7808 82.164 52.2988C81.0564 54.9557 77.9545 50.7667 77.7481 49.3927C77.421 48.4158 76.3087 46.7246 77.1501 45.7537C77.7562 45.0542 79.0237 44.6958 79.8182 44.285C80.6131 43.8745 81.703 43.4977 82.3629 42.8776C82.71 42.5513 83.1674 42.3116 83.6404 42.2414C84.4409 42.122 85.3128 43.1305 85.803 42.9105C87.2036 42.2799 88.7501 42.31 90.2514 42.1789C91.4672 42.0727 93.1115 42.0991 94.0687 42.965C94.6364 42.1128 95.4737 41.8582 96.36 42.3645C97.4388 42.9806 97.8075 43.4203 99.0959 43.6741C101.155 44.0806 102.318 45.1597 102.153 47.2529C101.997 49.2448 101.959 51.3453 101.464 53.2898C101.307 53.9075 100.849 55.0512 100.214 54.0863C99.5372 53.0565 98.6517 51.5789 98.596 50.3424C98.3927 51.2683 98.2709 52.1951 98.1254 53.1283C98.0476 53.6265 97.0943 56.1103 97.1565 56.2176C97.4231 56.6778 97.3357 57.0999 97.8724 57.1059C98.5936 57.1147 99.3155 57.1592 100.033 57.2382C101.351 57.3825 102.641 57.999 103.946 58.0523C106.125 58.1413 108.405 56.0865 110.273 55.114C113.259 53.5596 116.465 52.3273 119.863 52.2371C121.163 52.2026 122.581 52.2992 123.783 52.8308C124.137 52.9867 126.06 53.3395 125.661 53.6024C124.118 54.619 122.272 54.7413 120.454 54.8759C118.197 55.0427 115.921 55.8207 113.973 56.9476C112.372 57.8728 110.953 59.0986 109.831 60.5697C109.823 60.7421 110.271 61.238 110.358 61.3799C110.842 62.1724 111.274 62.9982 111.634 63.8532C112.537 65.9945 112.742 68.3192 113.637 70.4822C114.629 72.8792 114.505 75.5759 115.593 77.9012C116.268 79.3406 115.84 81.7382 115.854 83.3043C115.864 84.4491 115.864 85.608 115.998 86.7464C116.088 87.5097 116.429 88.2096 116.468 88.986C116.567 90.9446 112.965 89.837 111.927 89.8009C110.443 89.7488 112.326 86.0381 112.431 85.331C112.607 84.126 112.48 82.8273 112.283 81.6243C112.103 80.5191 111.553 79.8019 111.648 78.6423C111.738 77.5423 111.107 77.0044 110.28 76.4977C109.175 75.8195 108.104 74.8314 107.763 73.537C105.915 74.3615 103.4 74.5788 103.347 77.0826C103.3 79.2764 103.275 81.4891 103.061 83.6746C102.884 85.4912 102.229 88.1249 102.965 89.8345C103.313 90.6378 103.976 92.3615 103.012 92.9884C102.557 93.3143 102.076 92.9832 101.602 93.1219C100.851 93.3415 99.9891 93.3872 99.2668 93.0433C98.9305 93.0164 98.5408 93.1732 98.188 93.1599C97.7403 93.1439 96.9686 92.61 96.7277 92.7767C95.7589 93.445 96.6804 90.109 96.745 89.9604C97.0276 89.3046 97.3106 88.5698 97.3106 87.8455C97.1567 87.6034 96.1858 87.8723 96.0815 87.4546C95.6706 87.3961 95.1736 87.5328 94.7523 87.5224C94.2372 87.5104 93.961 87.2638 93.5593 87.1604C92.3435 86.8465 93.2474 85.8024 93.771 85.2475C94.2556 84.7344 94.741 84.7693 95.2726 84.4486C95.6839 84.2005 96.0042 83.4561 96.3052 83.0941C96.951 82.0852 97.1971 80.9311 97.4039 79.7674C97.606 78.6298 96.8347 77.8265 96.2486 76.9475L96.2487 76.9476Z" fill="#097EEA"/>
</g>
<defs>
<linearGradient id="paint0_linear_65_5341" x1="104.106" y1="197.994" x2="100.292" y2="-130.484" gradientUnits="userSpaceOnUse">
<stop stop-color="white"/>
<stop offset="1" stop-color="#EEEEEE"/>
</linearGradient>
<clipPath id="clip0_65_5341">
<rect width="200" height="133" fill="white"/>
</clipPath>
</defs>
</svg>
