<svg width="304" height="250" viewBox="0 0 304 250" fill="none" xmlns="http://www.w3.org/2000/svg">
<ellipse cx="57.5023" cy="42.1798" rx="19.2992" ry="19.172" fill="white"/>
<ellipse cx="237.625" cy="42.1798" rx="19.2992" ry="19.172" fill="white"/>
<g clip-path="url(#clip0_70_4581)">
<path d="M248.42 39.0977H227.332V47.495C227.332 49.949 229.333 51.9365 231.803 51.9365H243.942C246.413 51.9365 248.413 49.949 248.413 47.495V39.0977H248.42Z" fill="#C4CACE"/>
<path d="M238.417 46.4213C237.51 46.4213 236.77 45.6863 236.77 44.7788C236.77 44.3379 236.944 43.9225 237.253 43.6221C237.401 41.5452 237.562 35.3143 236.635 33.5185C236.513 33.282 236.552 32.9945 236.732 32.7963C236.854 32.6621 237.028 32.5918 237.208 32.5918C237.291 32.5918 237.375 32.6046 237.452 32.6366C237.6 32.6941 238.919 33.3012 239.253 35.9469C239.498 37.8514 239.549 41.9606 239.556 43.5966C239.877 43.9033 240.064 44.3251 240.064 44.7788C240.064 45.6799 239.324 46.4213 238.417 46.4213Z" fill="#5FAFFE"/>
<path d="M237.208 33.2313C237.208 33.2313 238.315 33.6786 238.617 36.0304C238.874 38.0498 238.913 42.6639 238.919 43.9165C239.222 44.089 239.428 44.4149 239.428 44.7856C239.428 45.3352 238.977 45.7825 238.418 45.7825C237.858 45.7825 237.414 45.3352 237.414 44.7856C237.414 44.4341 237.594 44.1274 237.871 43.9484C237.941 43.1304 238.366 35.4872 237.208 33.2376M237.208 31.9595C236.854 31.9595 236.507 32.1065 236.262 32.3749C235.896 32.7711 235.819 33.3463 236.063 33.8192C236.829 35.3146 236.784 40.9065 236.623 43.3669C236.301 43.7631 236.121 44.2616 236.121 44.7856C236.121 46.0446 237.15 47.0607 238.411 47.0607C239.672 47.0607 240.708 46.0382 240.708 44.7856C240.708 44.2616 240.521 43.7567 240.199 43.3541C240.187 41.5711 240.129 37.7239 239.891 35.8706C239.511 32.9309 237.993 32.1704 237.691 32.049C237.53 31.9851 237.369 31.9531 237.202 31.9531L237.208 31.9595Z" fill="white"/>
<path d="M230.383 39.1811C230.383 39.1811 230.763 36.497 230.004 34.3753C230.004 34.3753 231.387 35.8132 231.258 39.1811C231.258 39.1811 230.377 39.1172 230.377 39.1811H230.383Z" fill="#C4CACE"/>
<path d="M243.737 39.1813C243.737 39.1813 244.117 36.4972 243.357 34.3755C243.357 34.3755 244.741 35.8134 244.612 39.1813C244.612 39.1813 243.731 39.1174 243.731 39.1813H243.737Z" fill="#C4CACE"/>
<path d="M233.166 39.1811C233.166 39.1811 233.468 37.0402 232.863 35.3467C232.863 35.3467 233.964 36.4906 233.868 39.1811C233.868 39.1811 233.166 39.13 233.166 39.1811Z" fill="#C4CACE"/>
</g>
<ellipse cx="147.563" cy="19.172" rx="19.2992" ry="19.172" fill="white"/>
<g clip-path="url(#clip1_70_4581)">
<path d="M158.643 15.8379C158.643 14.9879 158.25 14.2338 157.633 13.7417C158.25 13.2497 158.643 12.4892 158.643 11.6456C158.643 10.1566 157.427 8.94873 155.928 8.94873C155.073 8.94873 154.313 9.33856 153.818 9.95207C153.323 9.33856 152.557 8.94873 151.708 8.94873C150.936 8.94873 150.241 9.26826 149.746 9.78591C149.251 9.27465 148.556 8.94873 147.784 8.94873C146.928 8.94873 146.169 9.33856 145.674 9.95207C145.178 9.33856 144.413 8.94873 143.564 8.94873C142.715 8.94873 141.949 9.33856 141.454 9.95207C140.958 9.33856 140.193 8.94873 139.344 8.94873C137.845 8.94873 136.629 10.1566 136.629 11.6456C136.629 12.4956 137.021 13.2497 137.639 13.7417C137.021 14.2338 136.629 14.9943 136.629 15.8379C136.629 16.6814 137.021 17.4419 137.639 17.934C137.021 18.4261 136.629 19.1866 136.629 20.0302C136.629 20.797 136.951 21.4872 137.472 21.9793C136.957 22.4714 136.629 23.1616 136.629 23.9285C136.629 25.4175 137.845 26.6253 139.344 26.6253C140.843 26.6253 142.058 25.4175 142.058 23.9285C142.058 23.1616 141.737 22.4714 141.216 21.9793C141.73 21.4872 142.058 20.797 142.058 20.0302C142.058 19.1802 141.666 18.4261 141.048 17.934C141.666 17.4419 142.058 16.6814 142.058 15.8379C142.058 14.9943 141.666 14.2338 141.048 13.7417C141.196 13.6203 141.331 13.4861 141.454 13.3391C141.949 13.9526 142.715 14.3425 143.564 14.3425C144.413 14.3425 145.178 13.9526 145.674 13.3391C146.169 13.9526 146.935 14.3425 147.784 14.3425C148.556 14.3425 149.251 14.0229 149.746 13.5053C150.241 14.0165 150.936 14.3425 151.708 14.3425C152.564 14.3425 153.323 13.9526 153.818 13.3391C153.94 13.4861 154.075 13.6203 154.223 13.7417C153.606 14.2338 153.213 14.9943 153.213 15.8379C153.213 16.6814 153.606 17.4419 154.223 17.934C153.606 18.4261 153.213 19.1866 153.213 20.0302C153.213 20.797 153.535 21.4872 154.056 21.9793C153.972 22.056 153.889 22.1455 153.818 22.2349C153.323 21.6214 152.557 21.2316 151.708 21.2316C150.209 21.2316 148.993 22.4394 148.993 23.9285C148.993 24.8359 149.45 25.6412 150.145 26.1268C149.81 26.4975 149.598 26.9832 149.598 27.52C149.598 28.6767 150.544 29.6162 151.708 29.6162C152.872 29.6162 153.818 28.6767 153.818 27.52C153.818 26.9832 153.606 26.4975 153.271 26.1205C153.477 25.9735 153.664 25.8073 153.818 25.6156C154.313 26.2291 155.079 26.6189 155.928 26.6189C157.427 26.6189 158.643 25.4111 158.643 23.9221C158.643 23.1552 158.321 22.465 157.8 21.9729C158.315 21.4808 158.643 20.7906 158.643 20.0238C158.643 19.1738 158.25 18.4197 157.633 17.9276C158.25 17.4355 158.643 16.6751 158.643 15.8315V15.8379Z" fill="#C4CACE"/>
<path d="M147.509 16.0801H146.898C146.564 16.0801 146.293 16.349 146.293 16.6808V20.905C146.293 21.2368 146.564 21.5058 146.898 21.5058H147.509C147.843 21.5058 148.114 21.2368 148.114 20.905V16.6808C148.114 16.349 147.843 16.0801 147.509 16.0801Z" fill="#5FAFFE"/>
<path d="M149.33 17.8889H145.077C144.743 17.8889 144.473 18.1578 144.473 18.4894V19.0962C144.473 19.4278 144.743 19.6966 145.077 19.6966H149.33C149.664 19.6966 149.934 19.4278 149.934 19.0962V18.4894C149.934 18.1578 149.664 17.8889 149.33 17.8889Z" fill="#5FAFFE"/>
</g>
<ellipse cx="25.3363" cy="210.892" rx="19.2992" ry="19.172" fill="white"/>
<ellipse cx="30.9261" cy="126.536" rx="19.2992" ry="19.172" fill="white"/>
<g clip-path="url(#clip2_70_4581)">
<path d="M32.5931 202.431C29.7754 201.236 26.5589 202.316 25.0214 204.846C23.4775 202.322 20.2609 201.236 17.4433 202.431C14.3618 203.741 12.9272 207.288 14.246 210.349C15.5519 213.384 24.8606 219.935 25.015 220.043C25.1694 219.935 34.478 213.384 35.7839 210.349C37.1027 207.288 35.6681 203.741 32.5867 202.431H32.5931Z" fill="#5FAFFE"/>
<path d="M16.1367 213.173H19.8357L20.9615 209.889L21.7849 213.173H22.1516L23.4189 207.294L24.4933 213.173H25.7477L26.7384 215.704L27.9221 213.173H35.3523" stroke="white" stroke-width="1.04049" stroke-linecap="round" stroke-linejoin="round"/>
</g>
<ellipse cx="264.202" cy="126.536" rx="19.2992" ry="19.172" fill="white"/>
<ellipse cx="269.791" cy="210.892" rx="19.2992" ry="19.172" fill="white"/>
<g clip-path="url(#clip3_70_4581)">
<path d="M276.115 200.667H263.969C261.5 200.667 259.498 202.656 259.498 205.109V217.174C259.498 219.627 261.5 221.616 263.969 221.616H276.115C278.584 221.616 280.586 219.627 280.586 217.174V205.109C280.586 202.656 278.584 200.667 276.115 200.667Z" fill="#C4CACE"/>
<path d="M274.988 207.908C271.881 206.336 268.208 206.336 265.1 207.908C264.567 206.866 264.033 205.818 263.492 204.776C267.609 202.693 272.479 202.693 276.59 204.776C276.056 205.818 275.522 206.866 274.982 207.908H274.988Z" fill="white" stroke="white" stroke-width="1.30061" stroke-linecap="round" stroke-linejoin="round"/>
<path d="M271.637 203.6L270.408 205.019C270.408 205.019 270.382 205.019 270.363 205.019C269.912 205.051 269.571 205.447 269.604 205.894C269.636 206.342 270.035 206.68 270.485 206.648C270.704 206.629 270.903 206.533 271.045 206.367C271.186 206.201 271.257 205.99 271.244 205.773C271.244 205.773 271.244 205.766 271.244 205.76L272.486 204.329C272.685 204.092 272.659 203.747 272.428 203.542C272.19 203.344 271.842 203.37 271.637 203.6Z" fill="#5FAFFE"/>
</g>
<g clip-path="url(#clip4_70_4581)">
<path d="M56.5801 34.3436C55.9368 32.9824 54.7274 31.9535 53.222 31.9535C51.202 31.9535 49.568 33.7174 49.568 35.8838C49.568 36.0116 49.568 36.1394 49.5873 36.2672C49.5873 36.2672 49.5745 36.2672 49.568 36.2672C47.5481 36.2672 45.9141 38.0311 45.9141 40.1975C45.9141 41.5715 46.5638 42.7729 47.5545 43.4759C47.1235 44.0319 46.8597 44.7413 46.8597 45.5209C46.8597 47.0739 47.8954 48.3648 49.2657 48.6396C49.5166 50.1158 50.7196 51.2342 52.1606 51.2342C52.2506 51.2342 52.3407 51.2342 52.4243 51.2214C52.7524 52.1928 53.6209 52.883 54.6309 52.883C55.9303 52.883 56.8696 51.7454 56.8696 50.3459V35.4428C56.8696 35.0402 56.728 34.6696 56.5736 34.3436H56.5801Z" fill="#5FAFFE"/>
<path d="M69.0166 40.1975C69.0166 38.0247 67.3826 36.2672 65.3626 36.2672C65.3626 36.2672 65.3498 36.2672 65.3433 36.2672C65.3562 36.1394 65.3626 36.018 65.3626 35.8838C65.3626 33.711 63.7287 31.9535 61.7087 31.9535C60.2033 31.9535 58.9746 32.9697 58.3506 34.3436C58.1769 34.7207 58.0547 35.0402 58.0547 35.4428V50.3523C58.0547 51.7518 58.9939 52.8894 60.2934 52.8894C61.3098 52.8894 62.1718 52.1992 62.4999 51.2278C62.59 51.2342 62.6736 51.2406 62.7637 51.2406C64.2047 51.2406 65.4077 50.1222 65.6586 48.646C67.0288 48.3712 68.0645 47.0803 68.0645 45.5273C68.0645 44.7477 67.8008 44.0319 67.3698 43.4823C68.354 42.7793 69.0102 41.5715 69.0102 40.2039L69.0166 40.1975Z" fill="#5FAFFE"/>
</g>
<path d="M29.8582 67.2261V76.0542H28.784V67.2261H29.8582ZM22.5047 73.3394C23.242 73.3394 24.0672 73.3345 24.9168 73.3149V71.5913H23.1492V68.0366H24.243V70.7124H27.7879V71.5913H26.0105V73.2808C26.7722 73.2466 27.5291 73.1929 28.2469 73.105L28.3152 73.9058C26.367 74.2231 24.3015 74.2476 22.6219 74.228L22.5047 73.3394ZM38.5008 67.2261V76.0542H37.407V67.2261H38.5008ZM31.1863 73.6226C33.5008 72.5239 34.5652 71.0298 34.7605 69.0229H31.6355V68.1636H35.864C35.864 70.7905 34.8435 73.022 31.7527 74.4917L31.1863 73.6226ZM46.909 69.521V70.3999H40.8152V67.3823H41.8992V69.521H46.909ZM39.7703 72.1284V71.2495H47.8269V72.1284H39.7703ZM40.7078 74.394C40.7078 73.354 41.865 72.7681 43.784 72.7632C45.6883 72.7681 46.8357 73.354 46.8406 74.394C46.8357 75.4292 45.6883 76.0151 43.784 76.0151C41.865 76.0151 40.7078 75.4292 40.7078 74.394ZM41.8113 74.394C41.8064 74.9019 42.4998 75.1802 43.784 75.1851C45.0486 75.1802 45.7469 74.9019 45.7566 74.394C45.7469 73.8716 45.0486 73.6177 43.784 73.6128C42.4998 73.6177 41.8064 73.8716 41.8113 74.394ZM58.1785 67.2358V73.7104H57.0945V70.7417H55.3953V69.8433H57.0945V67.2358H58.1785ZM50.9031 71.9136C52.8025 71.313 54.0574 70.1851 54.2674 68.7886H51.3621V67.8999H55.4539C55.4539 70.229 53.9158 71.9673 51.3621 72.7827L50.9031 71.9136ZM52.4265 75.8784V73.0562H53.5301V74.9995H58.4031V75.8784H52.4265ZM66.3914 67.2261V69.3745H67.6219V70.2632H66.3914V72.4019H65.3074V67.2261H66.3914ZM59.3992 71.6597C61.3963 71.1128 62.5877 70.0337 62.7732 68.7104H59.7996V67.8315H63.95C63.9549 70.1509 62.4412 71.8013 59.8289 72.5386L59.3992 71.6597ZM60.5906 74.2769C60.5808 73.188 61.7625 72.5093 63.5398 72.5093C65.3318 72.5093 66.489 73.188 66.489 74.2769C66.489 75.3755 65.3318 76.0493 63.5398 76.0444C61.7625 76.0493 60.5808 75.3755 60.5906 74.2769ZM61.6648 74.2769C61.6599 74.853 62.3728 75.1948 63.5398 75.1948C64.7019 75.1948 65.4197 74.853 65.4246 74.2769C65.4197 73.6958 64.7019 73.3589 63.5398 73.3589C62.3728 73.3589 61.6599 73.6958 61.6648 74.2769ZM76.1277 72.1772V73.0562H74.1648V76.0542H73.0613V73.0562H71.1082V76.0542H69.9949V73.0562H68.0613V72.1772H76.1277ZM68.9109 69.5112C68.906 68.3101 70.1951 67.5435 72.075 67.5386C73.9549 67.5435 75.2537 68.3101 75.2586 69.5112C75.2537 70.6978 73.9549 71.4448 72.075 71.4448C70.1951 71.4448 68.906 70.6978 68.9109 69.5112ZM70.0242 69.5112C70.0193 70.1851 70.8299 70.5806 72.075 70.5854C73.325 70.5806 74.1355 70.1851 74.1355 69.5112C74.1355 68.8179 73.325 68.4175 72.075 68.4175C70.8299 68.4175 70.0193 68.8179 70.0242 69.5112ZM80.0437 69.7358C80.0437 71.1812 80.8933 72.7046 82.3191 73.3003L81.7234 74.1597C80.6785 73.7056 79.9168 72.7827 79.5115 71.6597C79.1062 72.8706 78.3299 73.8862 77.2996 74.3745L76.6746 73.5249C78.0662 72.8804 78.9353 71.2349 78.9402 69.7358V68.9937H76.9969V68.0952H81.9773V68.9937H80.0437V69.7358ZM82.9637 76.0542V67.2261H84.0574V76.0542H82.9637ZM87.993 67.7729C89.3504 67.7729 90.3855 68.647 90.3953 69.9019C90.3855 70.981 89.6238 71.7769 88.5496 71.9771V73.2808C89.2869 73.2417 90.0193 73.188 90.7078 73.0952L90.7859 73.9058C88.9353 74.2378 86.9187 74.2476 85.4051 74.228L85.2488 73.3394C85.9129 73.3394 86.6746 73.3345 87.4656 73.3149V71.9868C86.3572 71.7915 85.5906 70.9907 85.6004 69.9019C85.5906 68.647 86.6062 67.7729 87.993 67.7729ZM86.6551 69.9019C86.6502 70.6392 87.2215 71.1128 87.993 71.103C88.7498 71.1128 89.3162 70.6392 89.3211 69.9019C89.3162 69.1597 88.7498 68.7007 87.993 68.6909C87.2215 68.7007 86.6502 69.1597 86.6551 69.9019ZM91.2156 76.0542V67.2261H92.2996V70.7515H93.5789V71.6694H92.2996V76.0542H91.2156ZM57.6658 87.1011V87.9897H49.5994V87.1011H53.076V85.3823H50.4881V80.812H51.5721V82.2573H55.6638V80.812H56.7478V85.3823H54.1502V87.1011H57.6658ZM51.5721 84.5034H55.6638V83.1265H51.5721V84.5034ZM65.8982 81.4077V82.2866H58.6033V81.4077H61.7185V80.3433H62.7928V81.4077H65.8982ZM58.242 88.1069V87.228H61.7185V86.144C60.1951 86.0269 59.2722 85.4116 59.2771 84.4351C59.2722 83.3706 60.4148 82.7358 62.2556 82.7358C64.0721 82.7358 65.2293 83.3706 65.2244 84.4351C65.2293 85.4067 64.2967 86.022 62.7928 86.144V87.228H66.3084V88.1069H58.242ZM60.3904 84.4351C60.3855 85.0015 61.0545 85.2896 62.2556 85.2944C63.4324 85.2896 64.1111 85.0015 64.1111 84.4351C64.1111 83.8784 63.4324 83.5903 62.2556 83.5854C61.0545 83.5903 60.3855 83.8784 60.3904 84.4351Z" fill="#616161"/>
<path d="M218.438 67.2358V73.7104H217.354V70.7417H215.655V69.8433H217.354V67.2358H218.438ZM211.163 71.9136C213.062 71.313 214.317 70.1851 214.527 68.7886H211.622V67.8999H215.713C215.713 70.229 214.175 71.9673 211.622 72.7827L211.163 71.9136ZM212.686 75.8784V73.0562H213.79V74.9995H218.663V75.8784H212.686ZM226.651 67.2261V69.3745H227.881V70.2632H226.651V72.4019H225.567V67.2261H226.651ZM219.659 71.6597C221.656 71.1128 222.847 70.0337 223.033 68.7104H220.059V67.8315H224.209C224.214 70.1509 222.701 71.8013 220.088 72.5386L219.659 71.6597ZM220.85 74.2769C220.84 73.188 222.022 72.5093 223.799 72.5093C225.591 72.5093 226.749 73.188 226.749 74.2769C226.749 75.3755 225.591 76.0493 223.799 76.0444C222.022 76.0493 220.84 75.3755 220.85 74.2769ZM221.924 74.2769C221.919 74.853 222.632 75.1948 223.799 75.1948C224.961 75.1948 225.679 74.853 225.684 74.2769C225.679 73.6958 224.961 73.3589 223.799 73.3589C222.632 73.3589 221.919 73.6958 221.924 74.2769ZM235.293 67.2358V70.0093H236.524V70.9077H235.293V73.8276H234.209V67.2358H235.293ZM228.34 69.0815V68.2124H230.42V67.2261H231.504V68.2124H233.575V69.0815H228.34ZM228.79 71.1323C228.79 70.1167 229.673 69.4429 230.958 69.4429C232.232 69.4429 233.111 70.1167 233.116 71.1323C233.111 72.1431 232.232 72.8022 230.958 72.8022C229.673 72.8022 228.79 72.1431 228.79 71.1323ZM229.639 75.8784V73.3101H230.723V74.9995H235.645V75.8784H229.639ZM229.844 71.1323C229.839 71.6646 230.289 71.9673 230.958 71.9624C231.626 71.9673 232.081 71.6646 232.081 71.1323C232.081 70.5952 231.626 70.2827 230.958 70.2827C230.289 70.2827 229.839 70.5952 229.844 71.1323ZM246.719 67.2261V76.0542H245.626V67.2261H246.719ZM239.327 73.0757C239.668 73.0757 240.035 73.0708 240.42 73.0659V68.9741H239.561V68.0854H244.571V68.9741H243.721V72.9341C244.141 72.8999 244.561 72.8608 244.961 72.812L245.02 73.6226C243.126 73.9302 241.06 73.9644 239.434 73.9644L239.327 73.0757ZM241.465 73.0464C241.856 73.0366 242.256 73.022 242.657 72.9976V68.9741H241.465V73.0464ZM256.045 72.3628V73.2222H252.53V76.0542H251.456V73.2222H247.979V72.3628H256.045ZM248.956 71.4448V67.5776H250.03V68.6616H253.975V67.5776H255.069V71.4448H248.956ZM250.03 70.5659H253.975V69.521H250.03V70.5659ZM259.268 67.7729C260.626 67.7729 261.661 68.647 261.67 69.9019C261.661 70.981 260.899 71.7769 259.825 71.9771V73.2808C260.562 73.2417 261.294 73.188 261.983 73.0952L262.061 73.9058C260.21 74.2378 258.194 74.2476 256.68 74.228L256.524 73.3394C257.188 73.3394 257.95 73.3345 258.741 73.3149V71.9868C257.632 71.7915 256.866 70.9907 256.876 69.9019C256.866 68.647 257.881 67.7729 259.268 67.7729ZM257.93 69.9019C257.925 70.6392 258.497 71.1128 259.268 71.103C260.025 71.1128 260.591 70.6392 260.596 69.9019C260.591 69.1597 260.025 68.7007 259.268 68.6909C258.497 68.7007 257.925 69.1597 257.93 69.9019ZM262.491 76.0542V67.2261H263.575V70.7515H264.854V71.6694H263.575V76.0542H262.491ZM227.061 80.2261V89.0542H225.967V80.2261H227.061ZM219.668 86.0757C220.01 86.0757 220.376 86.0708 220.762 86.0659V81.9741H219.903V81.0854H224.913V81.9741H224.063V85.9341C224.483 85.8999 224.903 85.8608 225.303 85.812L225.362 86.6226C223.467 86.9302 221.402 86.9644 219.776 86.9644L219.668 86.0757ZM221.807 86.0464C222.198 86.0366 222.598 86.022 222.999 85.9976V81.9741H221.807V86.0464ZM236.397 87.0913V87.98H228.331V87.0913H231.807V85.1675H229.219V80.9097H235.469V85.1675H232.881V87.0913H236.397ZM230.284 84.3179H234.395V81.7788H230.284V84.3179ZM247.403 85.1772V86.0562H245.44V89.0542H244.336V86.0562H242.383V89.0542H241.27V86.0562H239.336V85.1772H247.403ZM240.186 82.5112C240.181 81.3101 241.47 80.5435 243.35 80.5386C245.23 80.5435 246.529 81.3101 246.534 82.5112C246.529 83.6978 245.23 84.4448 243.35 84.4448C241.47 84.4448 240.181 83.6978 240.186 82.5112ZM241.299 82.5112C241.294 83.1851 242.105 83.5806 243.35 83.5854C244.6 83.5806 245.411 83.1851 245.411 82.5112C245.411 81.8179 244.6 81.4175 243.35 81.4175C242.105 81.4175 241.294 81.8179 241.299 82.5112ZM251.319 82.7358C251.319 84.1812 252.168 85.7046 253.594 86.3003L252.999 87.1597C251.954 86.7056 251.192 85.7827 250.787 84.6597C250.381 85.8706 249.605 86.8862 248.575 87.3745L247.95 86.5249C249.341 85.8804 250.21 84.2349 250.215 82.7358V81.9937H248.272V81.0952H253.252V81.9937H251.319V82.7358ZM254.239 89.0542V80.2261H255.333V89.0542H254.239Z" fill="#616161"/>
<path d="M105.676 44.2285V50.7031H104.592V47.7344H102.893V46.8359H104.592V44.2285H105.676ZM98.4005 48.9062C100.3 48.3057 101.555 47.1777 101.765 45.7812H98.8595V44.8926H102.951C102.951 47.2217 101.413 48.96 98.8595 49.7754L98.4005 48.9062ZM99.924 52.8711V50.0488H101.027V51.9922H105.901V52.8711H99.924ZM113.889 44.2188V46.3672H115.119V47.2559H113.889V49.3945H112.805V44.2188H113.889ZM106.897 48.6523C108.894 48.1055 110.085 47.0264 110.271 45.7031H107.297V44.8242H111.447C111.452 47.1436 109.939 48.7939 107.326 49.5312L106.897 48.6523ZM108.088 51.2695C108.078 50.1807 109.26 49.502 111.037 49.502C112.829 49.502 113.986 50.1807 113.986 51.2695C113.986 52.3682 112.829 53.042 111.037 53.0371C109.26 53.042 108.078 52.3682 108.088 51.2695ZM109.162 51.2695C109.157 51.8457 109.87 52.1875 111.037 52.1875C112.199 52.1875 112.917 51.8457 112.922 51.2695C112.917 50.6885 112.199 50.3516 111.037 50.3516C109.87 50.3516 109.157 50.6885 109.162 51.2695ZM122.531 44.2285V47.002H123.762V47.9004H122.531V50.8203H121.447V44.2285H122.531ZM115.578 46.0742V45.2051H117.658V44.2188H118.742V45.2051H120.813V46.0742H115.578ZM116.027 48.125C116.027 47.1094 116.911 46.4355 118.195 46.4355C119.47 46.4355 120.349 47.1094 120.354 48.125C120.349 49.1357 119.47 49.7949 118.195 49.7949C116.911 49.7949 116.027 49.1357 116.027 48.125ZM116.877 52.8711V50.3027H117.961V51.9922H122.883V52.8711H116.877ZM117.082 48.125C117.077 48.6572 117.527 48.96 118.195 48.9551C118.864 48.96 119.318 48.6572 119.318 48.125C119.318 47.5879 118.864 47.2754 118.195 47.2754C117.527 47.2754 117.077 47.5879 117.082 48.125ZM129.465 44.6094C130.808 44.6045 131.779 45.3564 131.779 46.4648C131.779 47.5537 130.808 48.3154 129.465 48.3105C128.137 48.3154 127.17 47.5537 127.17 46.4648C127.17 45.3564 128.137 44.6045 129.465 44.6094ZM126.594 48.916C128.186 48.916 130.417 48.8867 132.317 48.6035L132.395 49.4043C131.633 49.5508 130.842 49.6436 130.07 49.7021V52.7734H128.977V49.7656C128.161 49.7998 127.395 49.8096 126.731 49.8145L126.594 48.916ZM128.225 46.4648C128.22 47.0557 128.742 47.4268 129.465 47.4219C130.217 47.4268 130.744 47.0557 130.744 46.4648C130.744 45.8545 130.217 45.4785 129.465 45.4883C128.742 45.4785 128.22 45.8545 128.225 46.4648ZM132.893 53.0371V44.2285H133.967V53.0371H132.893ZM138.391 45.8105C138.391 46.8896 139.089 47.9053 140.471 48.3301L139.953 49.1797C138.962 48.8672 138.259 48.2373 137.873 47.4414C137.483 48.3691 136.74 49.1064 135.676 49.4629L135.129 48.6035C136.55 48.1396 137.297 46.9922 137.297 45.8203V45.7129H135.432V44.834H140.227V45.7129H138.391V45.8105ZM136.33 51.3477C136.33 50.293 137.473 49.6777 139.318 49.6777C141.15 49.6777 142.273 50.293 142.277 51.3477C142.273 52.4121 141.15 53.0371 139.318 53.0371C137.473 53.0371 136.33 52.4121 136.33 51.3477ZM137.414 51.3477C137.414 51.8945 138.108 52.1826 139.318 52.1875C140.525 52.1826 141.203 51.8945 141.203 51.3477C141.203 50.8105 140.525 50.5273 139.318 50.5273C138.108 50.5273 137.414 50.8105 137.414 51.3477ZM141.106 49.4824V44.2188H142.19V46.3379H143.42V47.2266H142.19V49.4824H141.106ZM148.801 44.873V45.4004C148.791 46.001 148.791 46.8799 148.586 47.998L147.512 47.9004C147.688 46.9922 147.722 46.3135 147.732 45.7715H144.299V44.873H148.801ZM143.772 48.7012C144.294 48.6963 144.88 48.6914 145.5 48.6816V46.8848H146.574V48.6475C147.487 48.6084 148.425 48.54 149.279 48.418L149.338 49.1992C147.502 49.5312 145.417 49.5654 143.869 49.5703L143.772 48.7012ZM145.09 52.8711V50.2441H146.184V51.9922H151.193V52.8711H145.09ZM149.797 50.8301V44.2188H150.91V46.9727H152.053V47.8809H150.91V50.8301H149.797ZM160.129 44.2188V53.0469H159.094V44.2188H160.129ZM152.424 50.4102C154.25 49.3311 155.09 47.9492 155.256 46.1719H152.893V45.293H156.33C156.33 45.7373 156.301 46.1719 156.237 46.5918H157.268V44.4336H158.303V52.627H157.268V49.6777H155.891V48.7891H157.268V47.4805H156.052C155.632 48.9453 154.714 50.2051 153.059 51.1816L152.424 50.4102ZM166.867 46.3379C166.858 47.959 167.712 49.5801 169.143 50.1953L168.498 51.0645C167.483 50.5957 166.74 49.6631 166.33 48.5107C165.925 49.751 165.163 50.7666 164.094 51.2695L163.43 50.3613C164.9 49.7266 165.759 48.042 165.764 46.3379V44.9316H166.867V46.3379ZM169.777 53.0566V44.2188H170.871V53.0566H169.777ZM176.731 45.4297C176.731 46.792 178.064 48.1641 179.914 48.4863L179.426 49.3945C177.946 49.0869 176.735 48.1885 176.159 47.002C175.578 48.1787 174.367 49.082 172.893 49.3945L172.414 48.4863C174.235 48.1543 175.573 46.7871 175.578 45.4297V44.7754H176.731V45.4297ZM172.17 51.9238V51.0254H180.236V51.9238H172.17ZM184.543 44.7656V45.6445H182.229V46.4746H184.211V47.3145H182.229V48.2227C183.283 48.2129 184.016 48.1689 184.875 48.0176L184.992 48.8672C183.972 49.0527 183.132 49.0918 181.77 49.0918H181.184V44.7656H184.543ZM182.404 52.9395V49.873H188.361V52.9395H182.404ZM183.488 52.0605H187.287V50.7324H183.488V52.0605ZM184.592 47.2559V46.377H185.588V44.3652H186.623V49.4336H185.588V47.2559H184.592ZM187.326 49.502V44.2188H188.361V49.502H187.326ZM194.387 45.1367V45.7617C194.387 46.5479 194.387 47.6611 194.143 49.1797L193.068 49.0918C193.283 47.7539 193.308 46.7627 193.313 46.0059H189.846V45.1367H194.387ZM189.377 50.3223C189.9 50.3174 190.481 50.3125 191.086 50.2979V47.6562H192.16V50.2637C193.059 50.2246 193.982 50.1611 194.826 50.0586L194.885 50.8691C193.064 51.167 191.042 51.2012 189.485 51.1914L189.377 50.3223ZM195.285 53.0469V44.2188H196.379V47.8125H197.658V48.7305H196.379V53.0469H195.285ZM131.018 58.0293V60.0703H132.453V58.0293H133.459V63.9082H129.992V58.0293H131.018ZM131.018 63.0293H132.453V60.9297H131.018V63.0293ZM134.328 65.6172V57.375H135.354V60.627H136.291V57.2188H137.336V66.0469H136.291V61.5254H135.354V65.6172H134.328ZM145.754 57.2285V63.7422H144.67V61.5254H142.893V62.3066H138.762V57.8047H139.846V59.2305H141.818V57.8047H142.893V58.752H144.67V57.2285H145.754ZM139.846 61.4473H141.818V60.0703H139.846V61.4473ZM139.934 65.8711V63.0977H141.037V64.9922H145.949V65.8711H139.934ZM142.893 60.6465H144.67V59.6309H142.893V60.6465ZM157.434 62.1699V63.0488H155.471V66.0469H154.367V63.0488H152.414V66.0469H151.301V63.0488H149.367V62.1699H157.434ZM150.217 59.5039C150.212 58.3027 151.501 57.5361 153.381 57.5312C155.261 57.5361 156.56 58.3027 156.565 59.5039C156.56 60.6904 155.261 61.4375 153.381 61.4375C151.501 61.4375 150.212 60.6904 150.217 59.5039ZM151.33 59.5039C151.325 60.1777 152.136 60.5732 153.381 60.5781C154.631 60.5732 155.442 60.1777 155.442 59.5039C155.442 58.8105 154.631 58.4102 153.381 58.4102C152.136 58.4102 151.325 58.8105 151.33 59.5039ZM161.35 59.7285C161.35 61.1738 162.199 62.6973 163.625 63.293L163.029 64.1523C161.985 63.6982 161.223 62.7754 160.818 61.6523C160.412 62.8633 159.636 63.8789 158.606 64.3672L157.981 63.5176C159.372 62.873 160.241 61.2275 160.246 59.7285V58.9863H158.303V58.0879H163.283V58.9863H161.35V59.7285ZM164.27 66.0469V57.2188H165.363V66.0469H164.27Z" fill="#616161"/>
<path d="M5.93633 237.532C5.93633 238.611 6.63457 239.626 8.01641 240.051L7.49883 240.901C6.50762 240.588 5.8045 239.958 5.41875 239.163C5.02813 240.09 4.28594 240.828 3.22149 241.184L2.67461 240.325C4.09551 239.861 4.84258 238.713 4.84258 237.542V237.434H2.97735V236.555H7.77227V237.434H5.93633V237.532ZM3.87579 243.069C3.87579 242.014 5.01836 241.399 6.86407 241.399C8.69512 241.399 9.81817 242.014 9.82305 243.069C9.81817 244.133 8.69512 244.758 6.86407 244.758C5.01836 244.758 3.87579 244.133 3.87579 243.069ZM4.95977 243.069C4.95977 243.616 5.65313 243.904 6.86407 243.909C8.07012 243.904 8.74883 243.616 8.74883 243.069C8.74883 242.532 8.07012 242.249 6.86407 242.249C5.65313 242.249 4.95977 242.532 4.95977 243.069ZM8.65118 241.204V235.94H9.73516V238.059H10.9656V238.948H9.73516V241.204H8.65118ZM16.0145 236.672C16.0096 237.781 17.2547 238.909 19.1395 239.153L18.7098 240.032C17.2107 239.807 16.0193 239.07 15.4432 238.074C14.867 239.07 13.6805 239.807 12.1961 240.032L11.7664 239.153C13.6316 238.909 14.8719 237.791 14.8719 236.672V236.223H16.0145V236.672ZM11.4148 241.692V240.793H19.4617V241.692H15.9559V244.768H14.8816V241.692H11.4148ZM27.6746 235.94V244.768H26.6297V235.94H27.6746ZM20.1453 239.758C20.1453 237.815 20.8973 236.609 22.0496 236.614C23.1189 236.609 23.8465 237.61 23.9734 239.26H24.8231V236.096H25.8582V244.338H24.8231V240.139H23.9832C23.8807 241.863 23.1434 242.917 22.0496 242.913C20.8973 242.917 20.1453 241.707 20.1453 239.758ZM21.1512 239.758C21.1463 241.14 21.4881 241.882 22.0496 241.877C22.6356 241.882 22.9822 241.14 22.9871 239.758C22.9822 238.381 22.6356 237.634 22.0496 237.639C21.4881 237.634 21.1463 238.381 21.1512 239.758ZM38.241 239.954V240.813H35.6238V242.834H39.1395V243.723H31.0731V242.834H34.5496V240.813H32.0496V236.594H38.1727V237.463H33.1336V239.954H38.241ZM43.7293 236.077C45.6824 236.082 46.908 236.711 46.9129 237.776C46.908 238.821 45.6824 239.446 43.7293 239.436C41.7957 239.446 40.5457 238.821 40.5457 237.776C40.5457 236.711 41.7957 236.082 43.7293 236.077ZM39.7156 240.842V239.973H47.7625V240.842H44.2664V241.692H46.7859V244.661H40.6629V241.692H43.1922V240.842H39.7156ZM41.6785 237.776C41.6688 238.313 42.4402 238.606 43.7293 238.606C45.0184 238.606 45.7898 238.313 45.7898 237.776C45.7898 237.214 45.0184 236.912 43.7293 236.917C42.4402 236.912 41.6688 237.214 41.6785 237.776ZM41.7371 243.782H45.7313V242.551H41.7371V243.782Z" fill="#616161"/>
<path d="M7.90728 151.592V156.582H6.81353V151.592H7.90728ZM0.553766 155.547C1.98443 155.093 2.72662 153.945 2.72174 152.783V151.924H3.84478V152.783C3.8399 153.911 4.59185 154.961 5.97369 155.4L5.44634 156.23C4.42584 155.913 3.69341 155.264 3.29302 154.419C2.89752 155.327 2.15045 156.055 1.09088 156.406L0.553766 155.547ZM2.04791 160.303V157.021H7.90728V160.303H2.04791ZM3.12213 159.424H6.84283V157.881H3.12213V159.424ZM12.3604 153.174C12.3604 154.253 13.0586 155.269 14.4405 155.693L13.9229 156.543C12.9317 156.23 12.2286 155.601 11.8428 154.805C11.4522 155.732 10.71 156.47 9.64556 156.826L9.09869 155.967C10.5196 155.503 11.2667 154.355 11.2667 153.184V153.076H9.40142V152.197H14.1963V153.076H12.3604V153.174ZM10.2999 158.711C10.2999 157.656 11.4424 157.041 13.2881 157.041C15.1192 157.041 16.2422 157.656 16.2471 158.711C16.2422 159.775 15.1192 160.4 13.2881 160.4C11.4424 160.4 10.2999 159.775 10.2999 158.711ZM11.3838 158.711C11.3838 159.258 12.0772 159.546 13.2881 159.551C14.4942 159.546 15.1729 159.258 15.1729 158.711C15.1729 158.174 14.4942 157.891 13.2881 157.891C12.0772 157.891 11.3838 158.174 11.3838 158.711ZM15.0753 156.846V151.582H16.1592V153.701H17.3897V154.59H16.1592V156.846H15.0753ZM27.6045 151.592V158.066H26.5206V155.098H24.8213V154.199H26.5206V151.592H27.6045ZM20.3292 156.27C22.2286 155.669 23.4835 154.541 23.6934 153.145H20.7881V152.256H24.8799C24.8799 154.585 23.3419 156.323 20.7881 157.139L20.3292 156.27ZM21.8526 160.234V157.412H22.9561V159.355H27.8292V160.234H21.8526ZM35.8174 151.582V153.73H37.0479V154.619H35.8174V156.758H34.7335V151.582H35.8174ZM28.8253 156.016C30.8223 155.469 32.0137 154.39 32.1993 153.066H29.2256V152.188H33.376C33.3809 154.507 31.8672 156.157 29.2549 156.895L28.8253 156.016ZM30.0167 158.633C30.0069 157.544 31.1885 156.865 32.9659 156.865C34.7579 156.865 35.9151 157.544 35.9151 158.633C35.9151 159.731 34.7579 160.405 32.9659 160.4C31.1885 160.405 30.0069 159.731 30.0167 158.633ZM31.0909 158.633C31.086 159.209 31.7989 159.551 32.9659 159.551C34.128 159.551 34.8458 159.209 34.8506 158.633C34.8458 158.052 34.128 157.715 32.9659 157.715C31.7989 157.715 31.086 158.052 31.0909 158.633ZM45.5538 156.533V157.412H43.5909V160.41H42.4874V157.412H40.5342V160.41H39.421V157.412H37.4874V156.533H45.5538ZM38.337 153.867C38.3321 152.666 39.6211 151.899 41.501 151.895C43.3809 151.899 44.6797 152.666 44.6846 153.867C44.6797 155.054 43.3809 155.801 41.501 155.801C39.6211 155.801 38.3321 155.054 38.337 153.867ZM39.4502 153.867C39.4454 154.541 40.2559 154.937 41.501 154.941C42.751 154.937 43.5616 154.541 43.5616 153.867C43.5616 153.174 42.751 152.773 41.501 152.773C40.2559 152.773 39.4454 153.174 39.4502 153.867ZM49.4698 154.092C49.4698 155.537 50.3194 157.061 51.7452 157.656L51.1495 158.516C50.1045 158.062 49.3428 157.139 48.9376 156.016C48.5323 157.227 47.7559 158.242 46.7256 158.73L46.1006 157.881C47.4922 157.236 48.3614 155.591 48.3663 154.092V153.35H46.4229V152.451H51.4034V153.35H49.4698V154.092ZM52.3897 160.41V151.582H53.4835V160.41H52.3897ZM57.419 152.129C58.7764 152.129 59.8116 153.003 59.8213 154.258C59.8116 155.337 59.0499 156.133 57.9756 156.333V157.637C58.7129 157.598 59.4454 157.544 60.1338 157.451L60.212 158.262C58.3614 158.594 56.3448 158.604 54.8311 158.584L54.6749 157.695C55.3389 157.695 56.1006 157.69 56.8917 157.671V156.343C55.7833 156.147 55.0167 155.347 55.0264 154.258C55.0167 153.003 56.0323 152.129 57.419 152.129ZM56.0811 154.258C56.0762 154.995 56.6475 155.469 57.419 155.459C58.1758 155.469 58.7422 154.995 58.7471 154.258C58.7422 153.516 58.1758 153.057 57.419 153.047C56.6475 153.057 56.0762 153.516 56.0811 154.258ZM60.6417 160.41V151.582H61.7256V155.107H63.0049V156.025H61.7256V160.41H60.6417ZM31.4131 171.457V172.346H23.3467V171.457H26.8233V169.738H24.2354V165.168H25.3194V166.613H29.4112V165.168H30.4952V169.738H27.8975V171.457H31.4131ZM25.3194 168.859H29.4112V167.482H25.3194V168.859ZM39.6456 165.764V166.643H32.3506V165.764H35.4659V164.699H36.5401V165.764H39.6456ZM31.9893 172.463V171.584H35.4659V170.5C33.9424 170.383 33.0196 169.768 33.0245 168.791C33.0196 167.727 34.1622 167.092 36.003 167.092C37.8194 167.092 38.9766 167.727 38.9717 168.791C38.9766 169.763 38.044 170.378 36.5401 170.5V171.584H40.0557V172.463H31.9893ZM34.1378 168.791C34.1329 169.357 34.8018 169.646 36.003 169.65C37.1797 169.646 37.8585 169.357 37.8585 168.791C37.8585 168.234 37.1797 167.946 36.003 167.941C34.8018 167.946 34.1329 168.234 34.1378 168.791Z" fill="#616161"/>
<path d="M246.167 152.324V153.027H247.944V151.592H249.028V158.018H247.944V155.791H246.167V156.553H242.016V152.324H246.167ZM243.1 155.703H245.093V153.184H243.1V155.703ZM243.208 160.234V157.422H244.311V159.355H249.223V160.234H243.208ZM246.167 154.922H247.944V153.916H246.167V154.922ZM257.671 157.217V160.41H256.587V158.076H251.655V157.217H257.671ZM250.395 154.209C250.395 152.959 251.396 152.061 252.729 152.07C253.457 152.065 254.092 152.339 254.507 152.803H256.587V151.582H257.671V156.797H256.587V155.625H254.516C254.096 156.094 253.462 156.377 252.729 156.377C251.396 156.377 250.395 155.479 250.395 154.209ZM251.43 154.209C251.43 154.976 251.972 155.454 252.729 155.459C253.452 155.454 254.004 154.976 254.009 154.209C254.004 153.472 253.452 152.983 252.729 152.988C251.972 152.983 251.43 153.472 251.43 154.209ZM254.975 154.746H256.587V153.691H254.98C255.019 153.857 255.044 154.028 255.044 154.209C255.044 154.395 255.019 154.575 254.975 154.746ZM264.634 153.701C264.624 155.322 265.478 156.943 266.909 157.559L266.264 158.428C265.249 157.959 264.507 157.026 264.096 155.874C263.691 157.114 262.929 158.13 261.86 158.633L261.196 157.725C262.666 157.09 263.525 155.405 263.53 153.701V152.295H264.634V153.701ZM267.544 160.42V151.582H268.638V160.42H267.544ZM274.497 152.793C274.497 154.155 275.83 155.527 277.68 155.85L277.192 156.758C275.713 156.45 274.502 155.552 273.926 154.365C273.345 155.542 272.134 156.445 270.659 156.758L270.18 155.85C272.002 155.518 273.34 154.15 273.345 152.793V152.139H274.497V152.793ZM269.936 159.287V158.389H278.003V159.287H269.936ZM282.309 152.129V153.008H279.995V153.838H281.977V154.678H279.995V155.586C281.05 155.576 281.782 155.532 282.641 155.381L282.759 156.23C281.738 156.416 280.898 156.455 279.536 156.455H278.95V152.129H282.309ZM280.171 160.303V157.236H286.128V160.303H280.171ZM281.255 159.424H285.054V158.096H281.255V159.424ZM282.358 154.619V153.74H283.354V151.729H284.389V156.797H283.354V154.619H282.358ZM285.093 156.865V151.582H286.128V156.865H285.093ZM248.598 164.582V166.73H249.829V167.619H248.598V169.758H247.514V164.582H248.598ZM241.606 169.016C243.603 168.469 244.795 167.39 244.98 166.066H242.007V165.188H246.157C246.162 167.507 244.648 169.157 242.036 169.895L241.606 169.016ZM242.798 171.633C242.788 170.544 243.97 169.865 245.747 169.865C247.539 169.865 248.696 170.544 248.696 171.633C248.696 172.731 247.539 173.405 245.747 173.4C243.97 173.405 242.788 172.731 242.798 171.633ZM243.872 171.633C243.867 172.209 244.58 172.551 245.747 172.551C246.909 172.551 247.627 172.209 247.632 171.633C247.627 171.052 246.909 170.715 245.747 170.715C244.58 170.715 243.867 171.052 243.872 171.633ZM257.261 164.582V168.225H258.501V169.133H257.261V173.41H256.167V164.582H257.261ZM250.171 170.959C250.84 170.959 251.616 170.959 252.427 170.939V170.114C251.465 169.948 250.84 169.348 250.845 168.518C250.84 167.521 251.714 166.862 252.983 166.857C254.238 166.862 255.122 167.521 255.132 168.518C255.122 169.353 254.482 169.953 253.52 170.114V170.9C254.263 170.861 255.005 170.803 255.698 170.705L255.766 171.496C253.872 171.843 251.831 171.857 250.327 171.857L250.171 170.959ZM250.337 166.457V165.598H252.427V164.621H253.52V165.598H255.6V166.457H250.337ZM251.87 168.518C251.865 169.025 252.314 169.323 252.983 169.318C253.642 169.323 254.087 169.025 254.087 168.518C254.087 168.005 253.642 167.692 252.983 167.688C252.314 167.692 251.865 168.005 251.87 168.518ZM266.538 164.582V173.41H265.493V164.582H266.538ZM259.009 168.4C259.009 166.457 259.761 165.251 260.913 165.256C261.982 165.251 262.71 166.252 262.837 167.902H263.686V164.738H264.721V172.98H263.686V168.781H262.846C262.744 170.505 262.007 171.56 260.913 171.555C259.761 171.56 259.009 170.349 259.009 168.4ZM260.014 168.4C260.01 169.782 260.351 170.524 260.913 170.52C261.499 170.524 261.846 169.782 261.85 168.4C261.846 167.023 261.499 166.276 260.913 166.281C260.351 166.276 260.01 167.023 260.014 168.4ZM277.104 168.596V169.455H274.487V171.477H278.003V172.365H269.936V171.477H273.413V169.455H270.913V165.236H277.036V166.105H271.997V168.596H277.104ZM282.593 164.719C284.546 164.724 285.771 165.354 285.776 166.418C285.771 167.463 284.546 168.088 282.593 168.078C280.659 168.088 279.409 167.463 279.409 166.418C279.409 165.354 280.659 164.724 282.593 164.719ZM278.579 169.484V168.615H286.626V169.484H283.13V170.334H285.649V173.303H279.526V170.334H282.055V169.484H278.579ZM280.542 166.418C280.532 166.955 281.304 167.248 282.593 167.248C283.882 167.248 284.653 166.955 284.653 166.418C284.653 165.856 283.882 165.554 282.593 165.559C281.304 165.554 280.532 165.856 280.542 166.418ZM280.6 172.424H284.595V171.193H280.6V172.424Z" fill="#616161"/>
<path d="M244.859 235.95V242.424H243.775V239.456H242.076V238.557H243.775V235.95H244.859ZM237.584 240.627C239.483 240.027 240.738 238.899 240.948 237.502H238.043V236.614H242.134C242.134 238.943 240.596 240.681 238.043 241.497L237.584 240.627ZM239.107 244.592V241.77H240.211V243.713H245.084V244.592H239.107ZM253.072 235.94V238.088H254.302V238.977H253.072V241.116H251.988V235.94H253.072ZM246.08 240.374C248.077 239.827 249.268 238.748 249.454 237.424H246.48V236.545H250.631C250.635 238.865 249.122 240.515 246.509 241.252L246.08 240.374ZM247.271 242.991C247.261 241.902 248.443 241.223 250.22 241.223C252.012 241.223 253.17 241.902 253.17 242.991C253.17 244.089 252.012 244.763 250.22 244.758C248.443 244.763 247.261 244.089 247.271 242.991ZM248.345 242.991C248.34 243.567 249.053 243.909 250.22 243.909C251.382 243.909 252.1 243.567 252.105 242.991C252.1 242.41 251.382 242.073 250.22 242.073C249.053 242.073 248.34 242.41 248.345 242.991ZM261.714 235.95V238.723H262.945V239.622H261.714V242.542H260.631V235.95H261.714ZM254.761 237.795V236.926H256.841V235.94H257.925V236.926H259.996V237.795H254.761ZM255.211 239.846C255.211 238.831 256.094 238.157 257.379 238.157C258.653 238.157 259.532 238.831 259.537 239.846C259.532 240.857 258.653 241.516 257.379 241.516C256.094 241.516 255.211 240.857 255.211 239.846ZM256.06 244.592V242.024H257.144V243.713H262.066V244.592H256.06ZM256.265 239.846C256.26 240.378 256.71 240.681 257.379 240.676C258.047 240.681 258.502 240.378 258.502 239.846C258.502 239.309 258.047 238.997 257.379 238.997C256.71 238.997 256.26 239.309 256.265 239.846ZM268.463 238.635C268.463 240.002 269.024 241.379 270.259 242.043L269.654 242.844C268.834 242.41 268.277 241.633 267.96 240.706C267.647 241.707 267.09 242.566 266.265 243.049L265.631 242.229C266.881 241.506 267.432 240.032 267.437 238.635V238.362H265.933V237.483H267.437V236.252H268.463V237.483H269.937V238.362H268.463V238.635ZM269.39 240.227V239.329H270.543V236.106H271.568V244.338H270.543V240.227H269.39ZM272.33 244.768V235.94H273.365V244.768H272.33ZM282.457 239.993V240.872H278.961V241.614C280.538 241.716 281.475 242.263 281.48 243.176C281.475 244.192 280.323 244.758 278.423 244.758C276.495 244.758 275.347 244.192 275.347 243.176C275.347 242.263 276.285 241.711 277.886 241.609V240.872H274.41V239.993H282.457ZM274.8 238.733C276.422 238.582 277.481 237.922 277.662 237.2H275.142V236.331H281.734V237.2H279.19C279.366 237.927 280.416 238.582 282.076 238.733L281.695 239.592C280.089 239.426 278.902 238.787 278.423 237.893C277.945 238.787 276.773 239.426 275.172 239.592L274.8 238.733ZM276.451 243.176C276.446 243.665 277.139 243.933 278.423 243.928C279.688 243.933 280.386 243.665 280.396 243.176C280.386 242.688 279.688 242.429 278.423 242.424C277.139 242.429 276.446 242.688 276.451 243.176ZM293.482 240.891V241.77H291.519V244.768H290.416V241.77H288.463V244.768H287.349V241.77H285.416V240.891H293.482ZM286.265 238.225C286.26 237.024 287.549 236.257 289.429 236.252C291.309 236.257 292.608 237.024 292.613 238.225C292.608 239.412 291.309 240.159 289.429 240.159C287.549 240.159 286.26 239.412 286.265 238.225ZM287.379 238.225C287.374 238.899 288.184 239.294 289.429 239.299C290.679 239.294 291.49 238.899 291.49 238.225C291.49 237.532 290.679 237.131 289.429 237.131C288.184 237.131 287.374 237.532 287.379 238.225ZM297.398 238.45C297.398 239.895 298.248 241.418 299.673 242.014L299.078 242.874C298.033 242.419 297.271 241.497 296.866 240.374C296.461 241.584 295.684 242.6 294.654 243.088L294.029 242.239C295.421 241.594 296.29 239.949 296.295 238.45V237.708H294.351V236.809H299.332V237.708H297.398V238.45ZM300.318 244.768V235.94H301.412V244.768H300.318Z" fill="#616161"/>
<g clip-path="url(#clip5_70_4581)">
<path d="M192.168 230.956C193.496 234.055 193.748 237.162 191.907 240.128C190.772 241.957 189.284 243.485 187.047 244.087C186.072 244.346 185.197 244.713 184.399 245.273C189.166 233.93 179.379 231.483 179.379 231.483C183.49 217.066 183.112 198.097 183.011 194.881H183.045C183.045 195.582 183.39 196.142 183.844 196.693C189.41 203.635 191.949 211.603 191.949 220.582C191.756 222.771 192.134 225.143 191.251 227.431C190.738 228.751 191.68 229.82 192.168 230.956Z" fill="#CEAE8D"/>
<path d="M183.011 194.881C183.112 198.097 183.49 217.066 179.379 231.483C179.379 231.483 189.166 233.93 184.398 245.273C183.919 245.616 183.473 246.017 183.045 246.509C181.111 248.748 178.555 249.934 175.452 249.759C173.636 249.658 171.811 249.625 170.004 249.767C165.505 250.109 160.452 246.025 160.444 241.255C161.604 231.541 159.527 238.775 157.795 238.984C153.406 239.518 149.017 239.485 144.636 238.942C143.064 238.75 141.248 229.002 141.727 240.738C141.5 245.49 138.616 249.282 133.798 249.65C131.166 249.859 128.493 249.817 125.844 249.683C123.473 249.566 121.32 248.689 119.807 246.777C119.37 246.225 118.882 245.766 118.352 245.382C113.467 233.947 123.33 231.483 123.33 231.483C119.059 216.523 119.63 196.66 119.706 194.58C119.715 194.463 119.715 194.405 119.715 194.405C119.656 188.349 120.74 182.419 122.002 176.538C122.666 173.44 123.868 170.449 124.944 167.451C125.457 166.022 126.046 165.839 127.198 167.267C129.779 170.441 133.159 172.195 137.422 171.928C139.423 171.811 141.021 171.251 142.316 169.697C142.728 169.455 149.353 165.697 150.968 165.697C152.582 165.697 160.402 169.706 160.402 169.706L160.427 169.689C160.612 169.89 160.788 170.09 160.956 170.291C162.722 172.387 165.455 172.354 167.969 171.869C170.92 171.293 173.392 169.798 175.368 167.484C176.713 165.905 177.167 165.972 177.89 167.793C180.27 173.757 181.657 179.963 182.33 186.336C182.633 189.159 183.129 191.974 183.045 194.831V194.881H183.011Z" fill="#E8C59A"/>
<path d="M160.438 142.058C163.919 144.105 164.718 147.897 162.927 151.655C161.195 155.314 157.991 157.168 154.586 158.814C153.678 159.256 152.694 159.482 152.778 160.743C152.863 162.138 152.526 163.575 154.166 164.552C156.503 165.947 158.597 167.634 160.43 169.689L160.405 169.706C160.405 169.706 152.627 165.696 150.971 165.696C149.314 165.696 142.731 169.455 142.319 169.697C142.453 169.539 142.588 169.363 142.722 169.171C144.068 167.242 146.128 165.88 148.238 164.786C149.945 163.909 150.054 162.506 150.046 160.944C150.029 159.549 148.995 159.24 147.961 158.714C144.858 157.135 141.621 155.606 140.099 152.198C138.165 147.88 137.728 144.664 142.975 141.716C148.852 138.425 154.721 138.692 160.438 142.058Z" fill="#593C27"/>
<path d="M119.707 194.58C119.631 196.66 119.06 216.523 123.331 231.483C123.331 231.483 113.468 233.947 118.353 245.382C117.63 244.839 116.815 244.446 115.915 244.145C109.483 241.999 108.079 235.2 110.769 230.647C111.761 228.977 111.56 227.231 111.156 225.586C109.996 220.833 110.836 216.197 111.694 211.561C112.695 206.132 115.259 201.388 118.589 197.028C119.152 196.276 119.665 195.524 119.707 194.58Z" fill="#CEAE8D"/>
<path d="M164.677 202.933C164.677 199.041 164.786 196.26 164.651 193.486C164.323 186.762 159.001 181.575 152.535 181.083C144.278 180.448 138.426 186.32 137.846 194.489C137.628 197.529 137.955 200.586 138.124 203.635C138.611 212.765 139.267 221.886 140.335 230.965C140.537 232.686 141.428 233.638 143.076 234.223C147.549 235.826 152.106 235.718 156.689 235.1C160.405 234.599 162.171 233.262 162.381 230.614C163.129 221.017 164.895 211.495 164.685 202.933H164.677Z" fill="#ECE1CA"/>
<path d="M192.168 230.956C193.496 234.055 193.748 237.162 191.907 240.128C190.772 241.957 189.284 243.485 187.047 244.087C186.072 244.346 185.197 244.713 184.399 245.273C189.166 233.93 179.379 231.483 179.379 231.483C183.49 217.066 183.112 198.097 183.011 194.881H183.045C183.045 195.582 183.39 196.142 183.844 196.693C189.41 203.635 191.949 211.603 191.949 220.582C191.756 222.771 192.134 225.143 191.251 227.431C190.738 228.751 191.68 229.82 192.168 230.956Z" fill="#CEAE8D"/>
<path d="M183.011 194.881C183.112 198.097 183.49 217.066 179.379 231.483C179.379 231.483 189.166 233.93 184.398 245.273C183.919 245.615 183.473 246.016 183.045 246.509C181.111 248.748 178.555 249.934 175.452 249.758C173.636 249.658 171.811 249.625 170.004 249.767C165.505 250.109 160.452 246.025 160.444 241.255C161.604 231.541 159.527 238.775 157.795 238.983C153.406 239.518 149.017 239.485 144.636 238.942C143.064 238.75 141.248 229.002 141.727 240.737C141.5 245.49 138.616 249.282 133.798 249.65C131.166 249.859 128.493 249.817 125.844 249.683C123.473 249.566 121.32 248.689 119.807 246.776C119.37 246.225 118.882 245.766 118.352 245.382C113.467 233.947 123.33 231.483 123.33 231.483C119.059 216.523 119.63 196.66 119.706 194.58C119.715 194.463 119.715 194.405 119.715 194.405C119.656 188.349 120.74 182.419 122.002 176.538C122.666 173.439 123.868 170.449 124.944 167.45C125.457 166.022 126.046 165.838 127.198 167.267C129.779 170.441 133.159 172.195 137.422 171.928C139.633 171.794 141.357 171.126 142.719 169.171C144.064 167.242 146.124 165.88 148.235 164.786C149.942 163.909 150.051 162.506 150.043 160.944C150.026 159.549 148.992 159.24 147.957 158.714C144.855 157.135 141.618 155.606 140.096 152.198C138.162 147.88 137.725 144.664 142.971 141.716C148.849 138.425 154.718 138.692 160.435 142.058C163.916 144.105 164.715 147.897 162.924 151.655C161.192 155.314 157.988 157.168 154.583 158.814C153.675 159.256 152.691 159.482 152.775 160.743C152.859 162.138 152.523 163.575 154.163 164.552C156.727 166.081 158.997 167.96 160.956 170.29C162.722 172.387 165.455 172.354 167.969 171.869C170.92 171.293 173.392 169.798 175.368 167.484C176.713 165.905 177.167 165.972 177.89 167.793C180.27 173.757 181.657 179.963 182.33 186.336C182.633 189.159 183.129 191.974 183.045 194.831V194.881H183.011Z" fill="#E8C59A"/>
<path d="M119.707 194.58C119.631 196.66 119.06 216.523 123.331 231.483C123.331 231.483 113.468 233.947 118.353 245.382C117.63 244.839 116.815 244.446 115.915 244.145C109.483 241.999 108.079 235.2 110.769 230.647C111.761 228.977 111.56 227.231 111.156 225.586C109.996 220.833 110.836 216.197 111.694 211.561C112.695 206.132 115.259 201.388 118.589 197.028C119.152 196.276 119.665 195.524 119.707 194.58Z" fill="#CEAE8D"/>
<path d="M123.349 156.65C123.349 156.65 124.619 165.396 126.914 167.676C129.21 169.956 133.363 177.09 133.363 177.09L171.898 178.76L176.657 166.941C176.657 166.941 179.448 163.992 179.835 158.162C180.222 152.332 181.828 146.285 181.828 146.285L175.337 117.476L163.481 89.2271L137.046 88.4336L124.392 100.612L119.027 129.178L123.358 156.65H123.349Z" fill="#F4EFE5"/>
<path d="M212.119 127.207C217.231 134.19 215.962 139.268 211.699 146C209.126 150.068 205.191 152.599 201.172 154.98C198.061 156.817 195.538 159.248 193.31 162.004C191.368 164.393 188.997 165.771 185.869 165.237C182.564 164.669 180.732 162.581 179.857 159.365C178.983 156.124 178.335 152.866 178.125 149.534C178.125 149.509 178.125 149.484 178.142 149.45C179.008 144.522 181.017 139.711 183.027 135.167C184.751 131.275 186.432 127.583 187.239 123.373C188.097 118.879 188.198 115.028 188.173 110.844C188.097 98.4148 179.311 90.2208 179.311 90.2208C180.462 90.3294 181.69 90.2208 183.061 90.037C189.047 89.2602 194.109 91.6742 197.733 96.6524C200.188 100.027 201.172 104.045 202.643 107.837C205.241 114.577 207.797 121.301 212.119 127.207Z" fill="#593C27"/>
<path d="M188.175 110.844C188.2 115.029 188.099 118.879 187.241 123.373C186.434 127.583 184.752 131.275 183.029 135.167C181.019 139.711 179.01 144.522 178.144 149.45C178.135 149.484 178.135 149.509 178.127 149.534C177.572 140.73 172.889 134.574 165.59 130.114C162.748 128.376 159.747 126.965 157.863 123.966C155.072 119.506 156.367 115.054 157.443 110.51C158.225 107.194 159.621 104.103 160.798 100.929C162.622 95.9593 159.394 91.3987 154.071 91.2567C153.163 91.2317 152.255 91.2567 150.893 91.2567C149.539 91.3319 147.698 91.0145 145.949 91.6911C142.199 93.1444 140.357 97.0786 141.879 100.921C143.326 104.604 144.789 108.288 145.722 112.13C147.05 117.618 147.168 122.939 142.241 126.973C140.854 128.109 139.273 129.045 137.675 129.88C131.579 133.079 127.459 138.007 125.433 144.455C125.248 145.048 125.088 145.658 124.962 146.268C125.635 141.916 120.691 136.813 118.673 133.363C114.082 125.578 113.863 115.588 114.46 106.793C115.167 96.2934 123.003 90.221 123.003 90.221L122.978 90.0706C125.164 89.7365 127.098 88.8428 129.149 87.5314C133.463 84.7917 138.297 83.6641 143.469 83.7643C146.386 83.8228 149.337 83.1295 152.238 83.33C160.083 83.8645 168.34 83.1044 175.016 88.4418C176.462 89.5945 177.833 90.0873 179.312 90.221C179.312 90.221 188.099 98.415 188.175 110.844ZM173.09 121.31C173.662 121.31 173.889 120.859 173.931 120.316C173.645 119.623 173.183 119.172 172.367 119.272C171.913 119.33 171.543 119.623 171.653 120.09C171.812 120.809 172.325 121.302 173.09 121.31ZM131.024 120.124C131.109 119.631 130.747 119.339 130.276 119.347C129.578 119.355 129.04 119.664 128.973 120.408C128.939 120.842 129.208 121.185 129.763 121.235C130.411 121.168 130.898 120.792 131.024 120.124Z" fill="#E8C59A"/>
<path d="M118.673 133.363C120.691 136.813 125.635 141.916 124.962 146.268C124.962 146.285 124.954 146.293 124.954 146.31C124.424 148.774 124.281 151.355 124.021 153.869C123.768 156.383 123.314 158.83 122.246 161.094C119.783 166.289 113.149 166.941 109.752 162.33C106.918 158.488 103.11 155.882 99.1157 153.443C93.8353 150.219 89.934 145.742 87.9497 139.886C86.6632 136.103 86.9995 132.093 89.4127 128.911C94.054 122.78 96.9548 115.856 99.6874 108.797C100.823 105.891 101.84 102.942 102.983 100.044C105.405 93.9045 112.081 89.0265 118.589 90.0289C120.203 90.2795 121.641 90.2795 122.978 90.0706L123.003 90.221C123.003 90.221 115.167 96.2934 114.46 106.793C113.864 115.588 114.082 125.578 118.673 133.363Z" fill="#593C27"/>
<path d="M130.48 124.359C132.579 124.359 134.281 122.668 134.281 120.583C134.281 118.498 132.579 116.808 130.48 116.808C128.381 116.808 126.68 118.498 126.68 120.583C126.68 122.668 128.381 124.359 130.48 124.359Z" fill="#593C27"/>
<path d="M171.629 124.359C173.728 124.359 175.429 122.668 175.429 120.583C175.429 118.498 173.728 116.808 171.629 116.808C169.53 116.808 167.828 118.498 167.828 120.583C167.828 122.668 169.53 124.359 171.629 124.359Z" fill="#593C27"/>
<path d="M192.168 230.956C193.496 234.055 193.748 237.162 191.907 240.128C190.772 241.957 189.284 243.485 187.047 244.087C186.072 244.346 185.197 244.713 184.399 245.273C189.166 233.93 179.379 231.483 179.379 231.483C183.49 217.066 183.112 198.097 183.011 194.881H183.045C183.045 195.582 183.39 196.142 183.844 196.693C189.41 203.635 191.949 211.603 191.949 220.582C191.756 222.771 192.134 225.143 191.251 227.431C190.738 228.751 191.68 229.82 192.168 230.956Z" fill="#CEAE8D"/>
<path d="M183.011 194.881C183.112 198.097 183.49 217.066 179.379 231.483C179.379 231.483 189.166 233.93 184.398 245.273C183.919 245.616 183.473 246.017 183.045 246.509C181.111 248.748 178.555 241.581 175.452 241.406C173.636 241.306 171.811 241.272 170.004 241.414C165.573 241.748 160.385 215.404 160.444 232.903C160.435 231.065 159.527 230.422 157.795 230.631C153.406 231.165 149.017 222.779 144.636 222.236C143.064 222.044 142.366 222.587 142.29 224.258C142.055 229.019 138.616 232.577 133.798 232.944C131.166 233.153 128.493 233.112 125.844 232.978C123.473 232.861 121.32 248.689 119.807 246.777C119.37 246.225 118.882 245.766 118.352 245.382C113.467 233.947 123.33 231.483 123.33 231.483C119.059 216.523 119.63 196.66 119.706 194.58C119.715 194.463 119.715 194.405 119.715 194.405C119.656 188.349 120.74 182.419 122.002 176.538C122.666 173.44 123.868 170.449 124.944 167.451C125.457 166.022 126.046 165.839 127.198 167.267C129.779 170.441 133.159 172.195 137.422 171.928C139.633 171.794 141.357 171.126 142.719 169.171C143.493 168.06 144.502 167.142 145.628 166.348H145.637C145.839 166.315 149.353 165.697 150.968 165.697H155.92C157.778 166.991 159.46 168.511 160.956 170.291C162.722 172.387 165.455 172.354 167.969 171.869C170.92 171.293 173.392 169.798 175.368 167.484C176.713 165.905 177.167 165.972 177.89 167.793C180.27 173.757 181.657 179.963 182.33 186.336C182.633 189.159 183.129 191.974 183.045 194.831V194.881H183.011Z" fill="#E8C59A"/>
<path d="M160.438 142.058C163.919 144.105 164.718 147.897 162.927 151.655C161.195 155.314 157.991 157.168 154.586 158.814C153.678 159.256 152.694 159.482 152.778 160.743C152.863 162.138 152.526 163.575 154.166 164.552C154.771 164.911 155.351 165.287 155.923 165.696H150.971C149.356 165.696 145.842 166.314 145.64 166.348C146.464 165.763 147.347 165.245 148.238 164.786C149.945 163.909 150.054 162.506 150.046 160.944C150.029 159.549 148.995 159.24 147.961 158.714C144.858 157.135 141.621 155.606 140.099 152.198C138.165 147.88 137.728 144.664 142.975 141.716C148.852 138.425 154.721 138.692 160.438 142.058Z" fill="#593C27"/>
<path d="M119.707 194.58C119.631 196.66 119.06 216.523 123.331 231.483C123.331 231.483 113.468 233.947 118.353 245.382C117.63 244.839 116.815 244.446 115.915 244.145C109.483 241.999 108.079 235.2 110.769 230.647C111.761 228.977 111.56 227.231 111.156 225.586C109.996 220.833 110.836 216.197 111.694 211.561C112.695 206.132 115.259 201.388 118.589 197.028C119.152 196.276 119.665 195.524 119.707 194.58Z" fill="#CEAE8D"/>
<path d="M164.677 205.69C164.677 201.304 164.786 198.172 164.651 195.057C164.323 187.481 159.001 181.642 152.535 181.082C144.278 180.373 138.426 186.98 137.846 196.176C137.628 199.601 137.955 203.042 138.124 206.475C138.611 216.757 139.94 225.686 140.999 235.918C141.201 237.856 142.092 238.925 143.74 239.593C148.213 241.398 151.266 241.281 155.848 240.579C159.564 240.011 160.75 238.508 160.952 235.526C162.818 225.853 164.887 215.337 164.677 205.698V205.69Z" fill="#F4EFE5"/>
<path d="M152.752 163.191C152.6 163.467 154.148 164.177 154.257 164.218C156.645 165.221 159.722 165.705 162.303 165.354C163.447 165.196 164.557 164.82 165.574 164.293C165.709 164.227 166.852 163.692 166.844 163.508C166.844 163.508 166.936 165.296 161.463 166.415C155.989 167.534 151.348 165.688 151.348 165.688L152.752 163.191Z" fill="#593C27"/>
<path d="M149.752 163.191C149.904 163.467 148.357 164.177 148.247 164.218C145.859 165.221 142.782 165.705 140.201 165.354C139.057 165.196 137.947 164.82 136.93 164.293C136.795 164.227 135.652 163.692 135.66 163.508C135.66 163.508 135.568 165.296 141.041 166.415C146.515 167.534 151.156 165.688 151.156 165.688L149.752 163.191Z" fill="#593C27"/>
<path d="M155.922 148.39C156.744 148.39 157.41 147.728 157.41 146.912C157.41 146.095 156.744 145.433 155.922 145.433C155.1 145.433 154.434 146.095 154.434 146.912C154.434 147.728 155.1 148.39 155.922 148.39Z" fill="white"/>
<path d="M172.858 120.976C173.471 120.976 173.968 120.482 173.968 119.873C173.968 119.264 173.471 118.771 172.858 118.771C172.245 118.771 171.748 119.264 171.748 119.873C171.748 120.482 172.245 120.976 172.858 120.976Z" fill="white"/>
<path d="M131.59 120.976C132.203 120.976 132.7 120.482 132.7 119.873C132.7 119.264 132.203 118.771 131.59 118.771C130.977 118.771 130.48 119.264 130.48 119.873C130.48 120.482 130.977 120.976 131.59 120.976Z" fill="white"/>
<path d="M107.382 188.7L105.448 187.697C105.415 186.595 105.137 185.559 104.65 184.64L106.55 182.109C106.592 181.7 106.298 181.341 105.894 181.291L102.993 182.569C102.11 181.809 101.043 181.266 99.857 181.015L99.0918 178.108C98.7976 177.816 98.3267 177.816 98.0408 178.108L97.2925 180.957C96.0733 181.149 94.955 181.642 94.0217 182.368L92.071 181.191C91.659 181.191 91.3227 181.508 91.3143 181.917L92.4999 183.989C92.0879 184.607 91.7768 185.283 91.575 186.018L88.0604 186.77C87.7409 187.046 87.6988 187.505 87.9595 187.806L91.39 188.825C91.5329 189.861 91.8945 190.83 92.441 191.665L90.9191 193.578C90.8603 193.979 91.1462 194.355 91.5582 194.413L94.0301 193.394C94.7701 193.97 95.6277 194.396 96.561 194.647L97.0907 196.944C97.3766 197.261 97.839 197.295 98.1333 197.027L98.7555 194.872C99.9663 194.814 101.101 194.446 102.077 193.853L104.935 195.474C105.347 195.474 105.675 195.131 105.675 194.73L104.061 192.058C104.574 191.373 104.961 190.596 105.205 189.752L107.155 189.694C107.5 189.477 107.609 189.017 107.391 188.675L107.382 188.7Z" fill="#5FAFFE"/>
<path d="M211.13 153.66L209.196 152.658C209.163 151.555 208.885 150.519 208.398 149.601L210.298 147.07C210.34 146.661 210.046 146.301 209.642 146.251L206.741 147.529C205.858 146.769 204.791 146.226 203.605 145.976L202.84 143.069C202.546 142.776 202.075 142.776 201.789 143.069L201.041 145.917C199.821 146.109 198.703 146.602 197.77 147.329L195.819 146.151C195.407 146.151 195.071 146.468 195.062 146.878L196.248 148.949C195.836 149.567 195.525 150.244 195.323 150.979L191.808 151.731C191.489 152.006 191.447 152.466 191.708 152.766L195.138 153.785C195.281 154.821 195.643 155.79 196.189 156.625L194.667 158.538C194.608 158.939 194.894 159.315 195.306 159.373L197.778 158.354C198.518 158.931 199.376 159.357 200.309 159.607L200.839 161.904C201.125 162.222 201.587 162.255 201.881 161.988L202.504 159.833C203.714 159.774 204.849 159.407 205.825 158.814L208.684 160.434C209.096 160.434 209.423 160.092 209.423 159.691L207.809 157.018C208.322 156.333 208.709 155.556 208.953 154.713L210.903 154.654C211.248 154.437 211.357 153.978 211.139 153.635L211.13 153.66Z" fill="#5FAFFE"/>
<path opacity="0.4" d="M113.233 177.791L112.652 177.49C112.644 177.156 112.56 176.847 112.417 176.572L112.989 175.812C113.005 175.686 112.913 175.578 112.795 175.569L111.929 175.954C111.669 175.728 111.341 175.561 110.988 175.486L110.761 174.609C110.676 174.525 110.534 174.525 110.441 174.609L110.214 175.461C109.844 175.519 109.516 175.67 109.23 175.887L108.642 175.536C108.516 175.536 108.415 175.628 108.415 175.753L108.768 176.38C108.642 176.563 108.549 176.772 108.49 176.989L107.431 177.215C107.338 177.298 107.322 177.44 107.397 177.524L108.423 177.833C108.465 178.142 108.574 178.434 108.743 178.685L108.289 179.261C108.272 179.387 108.356 179.495 108.482 179.512L109.222 179.203C109.44 179.378 109.701 179.504 109.979 179.579L110.138 180.272C110.222 180.364 110.365 180.381 110.449 180.297L110.634 179.654C110.996 179.637 111.341 179.529 111.627 179.345L112.484 179.829C112.61 179.829 112.703 179.729 112.703 179.604L112.224 178.802C112.375 178.593 112.493 178.368 112.568 178.109L113.157 178.092C113.258 178.025 113.291 177.891 113.224 177.783L113.233 177.791Z" fill="#5FAFFE"/>
</g>
<g clip-path="url(#clip6_70_4581)">
<path fill-rule="evenodd" clip-rule="evenodd" d="M273.818 125.614C273.818 131.021 269.707 136.082 264.188 137.309C258.662 136.082 254.551 131.021 254.551 125.614V121.364C254.551 120.891 254.692 120.431 254.962 120.035C255.226 119.645 255.606 119.339 256.05 119.16L262.065 116.718C263.422 116.169 264.94 116.169 266.298 116.718L272.319 119.153C273.226 119.517 273.818 120.393 273.818 121.358V125.608V125.614Z" fill="#5FAFFE"/>
<path d="M268.036 124.58L263.623 128.395L260.973 126.107" stroke="white" stroke-width="1.95091" stroke-linecap="round" stroke-linejoin="round"/>
</g>
<g clip-path="url(#clip7_70_4581)">
<path d="M35.6512 133.744C35.6512 133.744 31.4165 139.907 25.972 121.452L23.8828 122.396C23.8828 122.396 28.1245 135.351 31.8386 136.203C34.4976 137 36.4953 135.623 36.4953 135.623L35.6582 133.737L35.6512 133.744Z" fill="#C4CACE"/>
<path d="M34.2003 119.041C34.2003 119.041 31.9141 118.874 30.8098 121.641C30.2329 122.5 30.5987 125.966 30.5987 125.966C30.5987 125.966 31.675 127.035 32.6316 125.883C31.8368 120.425 34.8896 120.984 34.8896 120.984L34.2073 119.041H34.2003Z" fill="#C4CACE"/>
<path d="M37.8245 127.266L37.3954 126.19C35.9393 123.653 33.5406 122.717 29.932 123.199C29.5451 117.714 33.0693 118.308 33.0693 118.308L32.4222 116.176C32.4222 116.176 31.4866 116.274 30.3963 116.889C30.2275 116.484 30.0727 115.792 30.9027 114.227L29.9461 114.08C29.9461 114.08 28.6377 116.183 29.4255 117.567C29.3974 117.588 29.3693 117.616 29.3482 117.637C28.7573 117.658 28.0398 117.176 28.8839 114.597L27.8991 114.541C27.8991 114.541 26.6259 118.287 28.0961 118.426C28.3212 118.482 28.4619 118.44 28.4619 118.482C27.878 118.853 26.647 119.349 26.844 115.771L25.9506 115.876C25.9506 115.876 25.1065 118.755 26.7877 119.677C27.2027 119.943 27.5263 119.992 27.7795 119.957C27.5404 120.935 27.5755 122.256 27.7936 123.744C25.1135 124.883 22.1591 127.098 23.573 132.297C24.8673 137.056 30.0024 139.739 33.7587 138.894C36.9593 138.167 39.2665 131.389 37.8245 127.28V127.266Z" fill="#5FAFFE"/>
</g>
<defs>
<clipPath id="clip0_70_4581">
<rect width="21.0876" height="19.9836" fill="white" transform="translate(227.332 31.9531)"/>
</clipPath>
<clipPath id="clip1_70_4581">
<rect width="22.014" height="20.6674" fill="white" transform="translate(136.629 8.94873)"/>
</clipPath>
<clipPath id="clip2_70_4581">
<rect width="22.5222" height="18.1048" fill="white" transform="translate(13.7578 201.945)"/>
</clipPath>
<clipPath id="clip3_70_4581">
<rect width="21.0876" height="20.9486" fill="white" transform="translate(259.498 200.667)"/>
</clipPath>
<clipPath id="clip4_70_4581">
<rect width="23.0947" height="20.9358" fill="white" transform="translate(45.9219 31.9531)"/>
</clipPath>
<clipPath id="clip5_70_4581">
<rect width="128.661" height="166.921" fill="white" transform="translate(87 83.0791)"/>
</clipPath>
<clipPath id="clip6_70_4581">
<rect width="19.267" height="20.9997" fill="white" transform="translate(254.551 116.31)"/>
</clipPath>
<clipPath id="clip7_70_4581">
<rect width="15.0534" height="24.9674" fill="white" transform="translate(23.207 114.073)"/>
</clipPath>
</defs>
</svg>
