<svg width="309" height="220" viewBox="0 0 309 220" fill="none" xmlns="http://www.w3.org/2000/svg">
<path d="M179.535 60.3247C159.726 59.6922 140.844 53.8169 122.841 47.3902C104.838 40.9634 86.994 33.8415 67.6481 30.436C55.2099 28.2432 40.985 27.9348 30.965 34.061C21.3206 39.9546 18.2053 50.1292 16.5296 59.5694C15.2693 66.6731 14.5381 74.1478 17.9834 80.7994C20.3817 85.4149 24.6378 89.2961 27.5823 93.7182C37.8243 109.104 30.5838 128.079 19.4827 143.115C14.2764 150.171 8.23651 156.885 4.2194 164.389C0.202293 171.893 -1.65832 180.489 1.85807 188.141C5.34317 195.72 13.6448 201.423 22.6406 205.43C40.9111 213.561 62.439 215.887 83.4321 217.22C129.902 220.139 176.622 218.874 223.214 217.609C240.458 217.139 257.778 216.665 274.74 214.211C284.159 212.85 293.886 210.691 300.726 205.479C309.406 198.862 311.559 187.66 305.741 179.362C295.983 165.447 269.004 161.99 262.182 147.056C258.429 138.836 262.284 129.678 267.741 122.054C279.442 105.701 299.061 91.3529 300.094 72.6581C300.805 59.8177 291.374 46.9616 276.791 40.885C261.508 34.5105 240.313 35.3155 229.038 45.8508C217.428 56.7049 197.023 60.8814 179.535 60.3247Z" fill="#CFE7FF"/>
<path d="M68.1175 69.2062C62.2735 67.456 58.4355 63.0207 59.5499 59.3028C60.6644 55.585 66.3072 53.987 72.1512 55.7372C74.4942 56.4057 76.647 57.6233 78.4246 59.292L103.1 67.0157L99.2292 78.5171L75.3151 69.6791C72.9122 70.0976 70.4442 69.9346 68.1175 69.2008L68.1175 69.2062Z" fill="#F5C6BB"/>
<path d="M177.575 72.2289L177.874 92.5412C177.874 92.5412 152.335 92.2042 143.397 92.9053C134.46 93.6119 78.7656 73.229 78.7656 73.229L88.0181 60.1133L149.459 74.9412L177.575 72.2235V72.2289Z" fill="white"/>
<path d="M69.9538 48.0293H66.1484V99.666H69.9538V48.0293Z" fill="#94C8FB"/>
<path d="M83.6883 169.621H61.6769L61.5954 169.534C57.6813 165.376 55.9199 159.538 56.8876 153.918C57.1975 152.102 57.7791 150.341 58.6272 148.683L65.3247 135.589L62.6663 88.6815C62.6174 87.8118 62.9218 86.9856 63.5198 86.3551C64.1178 85.7246 64.9278 85.3767 65.7976 85.3767H69.9129C71.6036 85.3767 72.9844 86.6975 73.0496 88.3879L74.8381 134.752L84.1124 149.232C84.9061 150.472 85.5421 151.787 86.0042 153.146C87.8199 158.418 87.1567 164.147 84.1776 168.86L83.6884 169.626L83.6883 169.621Z" fill="#025DB0"/>
<path d="M81.7903 166.376C81.5838 166.702 81.2195 166.903 80.8281 166.903H64.0736C63.7528 166.903 63.4375 166.767 63.2255 166.528C60.3987 163.31 59.1538 159.098 59.643 154.989C59.6974 154.537 60.029 154.168 60.4693 154.054C63.9648 153.13 68.1888 152.597 72.7335 152.597C76.2889 152.597 79.6485 152.928 82.6167 153.51C83.0244 153.592 83.3614 153.885 83.4756 154.282C84.6607 158.304 84.1008 162.723 81.7903 166.376Z" fill="#94C8FB"/>
<path d="M161.274 43.516L164.535 65.8013L138.441 68.519L140.072 39.7112L161.274 43.516Z" fill="#F5C6BB"/>
<path d="M136.466 50.1568C146.185 50.1568 154.063 42.2795 154.063 32.5623C154.063 22.8451 146.185 14.9678 136.466 14.9678C126.748 14.9678 118.869 22.8451 118.869 32.5623C118.869 42.2795 126.748 50.1568 136.466 50.1568Z" fill="#F5C6BB"/>
<path d="M81.6374 112.391C76.6578 107.923 70.2539 106.918 67.3292 110.146C64.4044 113.375 66.0679 119.615 71.0476 124.083C73.01 125.898 75.3911 127.203 77.9951 127.893L99.3324 146.553L108.134 136.166L86.1658 118.876C85.209 116.37 83.6542 114.147 81.6374 112.391Z" fill="#F5C6BB"/>
<path d="M140.086 63.0861L166.723 59.2812L182.489 71.2392L184.119 137.008L202.5 218.5C202.5 218.5 163 220 149 220C135 220 99 218.5 99 218.5C99 218.5 105.837 175.056 109.643 171.251C113.448 167.447 116.166 150.053 116.166 150.053L123.777 75.044L140.086 63.0861Z" fill="white"/>
<path d="M130.006 74.7723C130.006 74.7723 115.872 73.6852 112.61 83.469C109.349 93.2528 105.543 125.322 105.543 125.322L96.8452 126.409L89.2345 118.256L81.0801 137.823C81.0801 137.823 109.892 169.349 120.765 155.217C131.637 141.085 130.006 74.7723 130.006 74.7723Z" fill="white"/>
<path d="M166.441 41.644C166.441 41.644 166.441 24.2234 168.072 18.788C169.703 13.3525 160.461 7.37353 157.743 1.93809C155.025 -3.49736 138.173 4.11227 131.106 5.19935C124.038 6.28644 124.582 10.6348 120.233 17.7009C115.884 24.767 124.582 35.6378 131.106 36.7249C137.629 37.812 135.455 42.7039 139.929 48.1394C144.403 53.5748 158.7 48.1394 158.7 48.1394L160.461 50.8571C160.461 50.8571 156.656 66.0763 163.723 79.1214L182.206 84.0133C176.77 67.707 182.75 67.707 186.159 59.282C189.567 50.8571 166.441 41.644 166.441 41.644Z" fill="#2F2E41"/>
<path d="M230.214 193.037H219.755L219.717 192.999C217.857 191.026 217.02 188.249 217.482 185.58C217.629 184.716 217.906 183.879 218.309 183.091L221.489 176.867L220.228 154.576C220.206 154.163 220.347 153.772 220.63 153.467C220.913 153.168 221.299 153 221.712 153H223.669C224.473 153 225.126 153.631 225.158 154.43L226.012 176.459L230.415 183.341C230.79 183.928 231.095 184.553 231.312 185.2C232.176 187.705 231.861 190.428 230.442 192.668L230.209 193.032H230.214V193.037Z" fill="#025DB0"/>
<path d="M229.305 191.494C229.207 191.652 229.034 191.744 228.849 191.744H220.89C220.738 191.744 220.586 191.679 220.488 191.565C219.145 190.037 218.552 188.032 218.786 186.08C218.813 185.868 218.971 185.689 219.178 185.635C220.841 185.194 222.847 184.944 225.005 184.944C226.696 184.944 228.289 185.102 229.702 185.379C229.898 185.417 230.055 185.559 230.11 185.749C230.675 187.662 230.409 189.76 229.311 191.494H229.305Z" fill="#94C8FB"/>
<path d="M258.53 192.489H248.842V176.248H258.53C259.633 176.248 260.519 175.351 260.519 174.248C260.519 173.145 259.628 172.264 258.53 172.259H190.99C189.886 172.259 189 173.155 189 174.259C189 175.362 189.892 176.243 190.99 176.248H199.253V192.489H190.99C189.886 192.489 189 193.386 189 194.489C189 195.593 189.892 196.473 190.99 196.479H258.53C259.633 196.479 260.519 195.582 260.519 194.479C260.519 193.375 259.628 192.495 258.53 192.489ZM203.243 192.489L207.799 180.357L244.847 176.248V192.489H203.243Z" fill="white"/>
</svg>
