<svg width="200" height="133" viewBox="0 0 200 133" fill="none" xmlns="http://www.w3.org/2000/svg">
<path d="M151.665 71.4544C151.63 71.5553 148.859 81.3186 149.812 106.147C149.881 107.965 149.973 109.868 150.085 111.848L149.964 111.855L149.078 111.903L149.076 111.898L149.071 111.9L149.037 111.904C148.923 111.898 148.582 111.888 148.068 111.857C147.946 109.739 147.847 107.619 147.772 105.499C146.87 80.825 149.609 71.2999 149.73 70.875L151.665 71.4544Z" fill="#E1E4E5"/>
<path d="M27.6641 112.015H173.304" stroke="#E1E4E5" stroke-width="4.58421"/>
<path d="M156.478 112.002H44.4192C41.1159 112.002 38.4492 109.37 38.4492 106.14V37.1223C38.4492 33.8921 41.1159 31.2607 44.4192 31.2607H156.478C159.781 31.2607 162.448 33.8921 162.448 37.1223V106.14C162.448 109.37 159.781 112.002 156.478 112.002Z" fill="white" stroke="#E1E4E5" stroke-width="4.58421"/>
<path d="M66.3196 46.5848L48.8562 46.617M77.8556 41.3389L48.75 41.3923" stroke="#E1E4E5" stroke-width="3.69" stroke-linecap="round" stroke-linejoin="round"/>
<path d="M66.3827 75.0352H54.4196C53.0833 75.0352 52 76.1157 52 77.4487V101.428C52 102.761 53.0833 103.842 54.4196 103.842H66.3827C67.7189 103.842 68.8022 102.761 68.8022 101.428V77.4487C68.8022 76.1157 67.7189 75.0352 66.3827 75.0352Z" fill="#097EEA"/>
<path d="M92.3497 65.8369H80.3102C78.9739 65.8369 77.8906 66.9175 77.8906 68.2504V101.426C77.8906 102.759 78.9739 103.839 80.3102 103.839H92.3497C93.686 103.839 94.7693 102.759 94.7693 101.426V68.2504C94.7693 66.9175 93.686 65.8369 92.3497 65.8369Z" fill="#097EEA"/>
<path d="M118.365 75.0352H106.402C105.066 75.0352 103.982 76.1157 103.982 77.4487V101.428C103.982 102.761 105.066 103.842 106.402 103.842H118.365C119.701 103.842 120.785 102.761 120.785 101.428V77.4487C120.785 76.1157 119.701 75.0352 118.365 75.0352Z" fill="#097EEA"/>
<path d="M144.432 65.8369H132.392C131.056 65.8369 129.973 66.9175 129.973 68.2504V101.426C129.973 102.759 131.056 103.839 132.392 103.839H144.432C145.768 103.839 146.851 102.759 146.851 101.426V68.2504C146.851 66.9175 145.768 65.8369 144.432 65.8369Z" fill="#097EEA"/>
<path d="M53.7773 68.7228L81.1785 52.4106L112.875 68.7228L145.164 49" stroke="#E1E4E5" stroke-width="4" stroke-linecap="round" stroke-linejoin="round"/>
<path d="M179.729 58.7647C176.617 61.3374 171.41 60.1954 171.41 60.1954C171.41 60.1954 171.251 54.882 174.366 52.3113C177.478 49.7385 182.683 50.8787 182.683 50.8787C182.683 50.8787 182.841 56.1918 179.729 58.7647Z" fill="url(#paint0_linear_65_5298)"/>
<path d="M87.2624 25.5441C88.8051 24.4903 88.9575 22.0349 88.9575 22.0349C88.9575 22.0349 86.6087 21.2895 85.0667 22.3446C83.5242 23.3984 83.3711 25.8525 83.3711 25.8525C83.3711 25.8525 85.72 26.5977 87.2624 25.5441Z" fill="url(#paint1_linear_65_5298)"/>
<path d="M21.3512 45.2542C25.2605 49.2235 32.5716 48.3865 32.5716 48.3865C32.5716 48.3865 33.539 41.1141 29.6259 37.1474C25.7161 33.1782 18.4087 34.0125 18.4087 34.0125C18.4087 34.0125 17.4416 41.285 21.3512 45.2542Z" fill="url(#paint2_linear_65_5298)"/>
<path d="M176.478 88.4456C175.391 88.4456 174.509 89.325 174.509 90.4098C174.509 91.4946 175.391 92.374 176.478 92.374C177.566 92.374 178.447 91.4946 178.447 90.4098C178.447 89.325 177.566 88.4456 176.478 88.4456Z" fill="#097EEA"/>
<path d="M67.5709 19.8973C66.0394 19.8973 64.798 21.1895 64.798 22.7836C64.798 24.3777 66.0394 25.6699 67.5709 25.6699C69.1023 25.6699 70.3438 24.3777 70.3438 22.7836C70.3438 21.1895 69.1023 19.8973 67.5709 19.8973Z" fill="#097EEA"/>
<path d="M29.5553 70.7118C27.7144 70.7118 26.222 69.2231 26.222 67.3868C26.222 65.5504 27.7144 64.0618 29.5553 64.0618C31.3963 64.0618 32.8887 65.5504 32.8887 67.3868C32.8887 69.2231 31.3963 70.7118 29.5553 70.7118Z" fill="#097EEA"/>
<path d="M127.687 43.218C125.693 43.218 124.076 41.6057 124.076 39.6168C124.076 37.6279 125.693 36.0156 127.687 36.0156C129.681 36.0156 131.297 37.6279 131.297 39.6168C131.297 41.6057 129.681 43.218 127.687 43.218Z" fill="#097EEA"/>
<path d="M155.711 67.9645C154.623 67.9645 153.741 67.0851 153.741 66.0003C153.741 64.9155 154.623 64.0361 155.711 64.0361C156.798 64.0361 157.68 64.9155 157.68 66.0003C157.68 67.0851 156.798 67.9645 155.711 67.9645Z" fill="#E1E4E5"/>
<path d="M167.154 77.3812C166.422 77.3812 165.828 76.7889 165.828 76.0583C165.828 75.3276 166.422 74.7354 167.154 74.7354C167.887 74.7354 168.48 75.3276 168.48 76.0583C168.48 76.7889 167.887 77.3812 167.154 77.3812Z" fill="white"/>
<path d="M38.0712 27.3257C37.1419 27.3257 36.3886 26.5742 36.3886 25.6472C36.3886 24.7202 37.1419 23.9688 38.0712 23.9688C39.0006 23.9688 39.7539 24.7202 39.7539 25.6472C39.7539 26.5742 39.0006 27.3257 38.0712 27.3257Z" fill="#E1E4E5"/>
<path d="M177.314 38.5215C175.896 38.5215 174.746 37.3745 174.746 35.9595C174.746 34.5445 175.896 33.3975 177.314 33.3975C178.733 33.3975 179.883 34.5445 179.883 35.9595C179.883 37.3745 178.733 38.5215 177.314 38.5215Z" fill="#E1E4E5"/>
<path d="M18.8034 93.676C19.0435 94.57 18.5117 95.4889 17.6154 95.7285C16.7192 95.968 15.798 95.4375 15.5579 94.5435C15.3177 93.6495 15.8496 92.7306 16.7458 92.4911C17.642 92.2515 18.5632 92.7821 18.8034 93.676Z" fill="#E1E4E5"/>
<path d="M95.3315 44.6647C94.0972 44.6647 93.0966 43.6666 93.0966 42.4354C93.0966 41.2041 94.0972 40.2061 95.3315 40.2061C96.5658 40.2061 97.5664 41.2041 97.5664 42.4354C97.5664 43.6666 96.5658 44.6647 95.3315 44.6647Z" fill="#E1E4E5"/>
<path d="M180.889 104.454C179.5 105.13 177.941 104.791 177.406 103.698C176.871 102.604 177.563 101.169 178.952 100.493C180.341 99.8175 181.9 100.156 182.435 101.25C182.97 102.344 182.278 103.778 180.889 104.454Z" fill="#E1E4E5"/>
<path d="M116.334 23.2586C116.8 24.9899 115.77 26.7695 114.034 27.2334C112.298 27.6973 110.514 26.6699 110.049 24.9385C109.584 23.2072 110.614 21.4276 112.35 20.9637C114.085 20.4998 115.869 21.5273 116.334 23.2586Z" fill="#E1E4E5"/>
<path d="M179.391 72.6782H179.436C179.702 76.4421 182.508 76.5002 182.508 76.5002C182.508 76.5002 179.414 76.5603 179.414 80.9096C179.414 76.5603 176.319 76.5002 176.319 76.5002C176.319 76.5002 179.125 76.4421 179.391 72.6782ZM132.328 20.8262H132.361C132.553 23.5806 134.576 23.6229 134.576 23.6229C134.576 23.6229 132.345 23.6671 132.345 26.8495C132.345 23.6671 130.113 23.6229 130.113 23.6229C130.113 23.6229 132.136 23.5806 132.328 20.8262Z" fill="#E1E4E5"/>
<defs>
<linearGradient id="paint0_linear_65_5298" x1="167.481" y1="67.3873" x2="191.056" y2="37.5574" gradientUnits="userSpaceOnUse">
<stop stop-color="white"/>
<stop offset="1" stop-color="#EEEEEE"/>
</linearGradient>
<linearGradient id="paint1_linear_65_5298" x1="92.6631" y1="21.2061" x2="76.3961" y2="27.9427" gradientUnits="userSpaceOnUse">
<stop stop-color="white"/>
<stop offset="1" stop-color="#EEEEEE"/>
</linearGradient>
<linearGradient id="paint2_linear_65_5298" x1="36.9499" y1="58.8124" x2="8.78587" y2="14.5521" gradientUnits="userSpaceOnUse">
<stop stop-color="white"/>
<stop offset="1" stop-color="#EEEEEE"/>
</linearGradient>
</defs>
</svg>
