<svg width="850" height="536" viewBox="0 0 850 536" fill="none" xmlns="http://www.w3.org/2000/svg">
<rect width="850" height="536" rx="8" fill="white"/>
<rect opacity="0.7" x="248.75" y="91.75" width="353.467" height="353.467" rx="176.734" fill="white" stroke="url(#paint0_linear_148_5142)" stroke-width="1.5"/>
<circle cx="359.431" cy="268" r="72.9304" fill="white" stroke="#1B2E69" stroke-width="3"/>
<g clip-path="url(#clip0_148_5142)">
<path d="M359.523 313.295V225.029" stroke="#1B2E69" stroke-width="3.02487"/>
<path d="M315.392 268H403.657" stroke="#1B2E69" stroke-width="3.02487"/>
<path d="M403.268 268C403.268 292.215 383.639 311.842 359.423 311.842C335.207 311.842 315.583 292.21 315.583 268C315.583 243.789 335.211 224.157 359.428 224.157C383.644 224.157 403.272 243.785 403.272 268H403.268Z" fill="white" stroke="#1B2E69" stroke-width="5.04145"/>
<path d="M383.843 292.416C397.329 278.931 397.329 257.069 383.843 243.584C370.358 230.1 348.495 230.1 335.01 243.584C321.525 257.069 321.525 278.931 335.01 292.416C348.495 305.9 370.358 305.9 383.843 292.416Z" fill="white" stroke="#1B2E69" stroke-width="2.52072"/>
<path d="M351.869 254.488C351.025 253.974 349.872 252.697 349.533 251.638C349.202 252.8 348.161 254.091 347.103 254.662L346.303 253.68C347.934 252.621 348.822 251.013 348.822 248.994V247.444H350.189V248.927C350.189 250.932 351.101 252.505 352.628 253.488L351.865 254.493L351.869 254.488ZM353.522 256.744V251.142H351.686V250.012H353.522V246.577H354.866V256.74H353.522V256.744Z" fill="#1B2E69"/>
<path d="M357.435 256.7V254.136H363.001V253.577H357.426V252.527H360.218V251.889H356.318V250.816H365.498V251.889H361.554V252.527H364.323V255.083H358.757V255.61H364.654V256.704H357.435V256.7ZM360.924 246.769C363.202 246.769 364.515 247.488 364.515 248.592C364.515 249.695 363.202 250.406 360.924 250.406C358.646 250.406 357.332 249.677 357.332 248.592C357.332 247.506 358.646 246.769 360.924 246.769ZM360.924 249.4C362.327 249.4 363.149 249.048 363.149 248.592C363.149 248.136 362.327 247.783 360.924 247.783C359.521 247.783 358.713 248.127 358.713 248.592C358.713 249.056 359.53 249.4 360.924 249.4Z" fill="#1B2E69"/>
<path d="M370.758 253.014L370.883 254.064C370.119 254.269 368.623 254.336 367.448 254.336H366.479V247.792H370.32V248.851C369.49 248.851 368.654 248.842 367.81 248.842V253.242C368.846 253.277 370.07 253.184 370.754 253.014M373.546 256.744V251.647H372.643V256.275H371.388V246.764H372.643V250.584H373.546V246.581H374.823V256.744H373.546Z" fill="#1B2E69"/>
<path d="M335.543 274.223V270.609H331.652V269.559H340.832V270.609H336.887V274.223H335.543ZM339.876 268.715C338.37 268.487 336.753 267.518 336.248 266.401C335.806 267.518 334.185 268.478 332.643 268.728L332.076 267.634C333.832 267.442 335.543 266.312 335.543 264.793V264.27H336.959V264.793C336.959 266.307 338.83 267.482 340.461 267.634L339.88 268.719L339.876 268.715Z" fill="#1B2E69"/>
<path d="M344.92 271.909C343.789 271.954 342.583 272.003 341.726 271.989L341.533 270.85C342.708 270.85 343.687 270.841 344.839 270.797C346.103 270.752 347.336 270.658 348.239 270.546L348.355 271.618C347.385 271.744 346.005 271.86 344.924 271.913M344.754 264.708C346.474 264.708 347.569 265.722 347.569 267.147C347.569 268.572 346.474 269.586 344.754 269.586C343.034 269.586 341.927 268.559 341.927 267.147C341.927 265.735 343.043 264.708 344.754 264.708ZM344.754 268.469C345.679 268.469 346.224 267.888 346.224 267.133C346.224 266.379 345.674 265.834 344.754 265.834C343.834 265.834 343.293 266.419 343.293 267.133C343.293 267.888 343.838 268.469 344.754 268.469ZM350.101 274.218H348.779V264.056H350.101V274.218Z" fill="#1B2E69"/>
<path d="M356.619 268.635V269.287H360.563V270.359H351.383V269.287H355.283V268.635H352.589V264.427H359.411V265.463H353.925V266.035H359.067V267.04H353.925V267.598H359.5V268.635H356.614H356.619ZM355.98 274.312C353.519 274.312 352.433 273.562 352.433 272.521C352.433 271.48 353.514 270.73 355.966 270.73C358.419 270.73 359.522 271.471 359.522 272.521C359.522 273.571 358.437 274.312 355.975 274.312M355.962 271.766C354.649 271.766 353.809 272.052 353.809 272.521C353.809 272.99 354.653 273.249 355.962 273.249C357.271 273.249 358.142 272.99 358.142 272.521C358.142 272.052 357.307 271.766 355.962 271.766Z" fill="#1B2E69"/>
<path d="M361.169 265.749H367.124V266.754H361.169V265.749ZM364.202 270.265C362.8 270.265 361.75 269.604 361.75 268.612C361.75 267.62 362.786 266.968 364.202 266.968C365.618 266.968 366.61 267.652 366.61 268.612C366.61 269.573 365.583 270.265 364.202 270.265ZM362.608 274.134V270.542H363.93V271.328H367.865V270.529H369.201V274.134H362.608ZM362.701 264.257H365.712V265.271H362.701V264.257ZM364.207 269.287C364.787 269.287 365.301 269.037 365.301 268.612C365.301 268.188 364.787 267.951 364.207 267.951C363.59 267.951 363.09 268.201 363.09 268.612C363.09 269.023 363.604 269.287 364.207 269.287ZM367.865 272.365H363.93V273.084H367.865V272.365ZM369.201 267.92V270.051H367.865V264.051H369.201V266.825H370.626V267.92H369.201Z" fill="#1B2E69"/>
<path d="M374.519 271.909C373.389 271.954 372.179 272.003 371.325 271.989L371.129 270.85C372.304 270.85 373.286 270.841 374.434 270.797C375.699 270.752 376.932 270.658 377.834 270.546L377.95 271.618C376.981 271.744 375.6 271.86 374.519 271.913M374.345 264.708C376.069 264.708 377.164 265.722 377.164 267.147C377.164 268.572 376.069 269.586 374.345 269.586C372.621 269.586 371.517 268.559 371.517 267.147C371.517 265.735 372.634 264.708 374.345 264.708ZM374.345 268.469C375.27 268.469 375.819 267.888 375.819 267.133C375.819 266.379 375.27 265.834 374.345 265.834C373.42 265.834 372.884 266.419 372.884 267.133C372.884 267.888 373.434 268.469 374.345 268.469ZM379.697 274.218H378.374V264.056H379.697V274.218Z" fill="#1B2E69"/>
<path d="M380.901 265.704H386.797V266.74H380.901V265.704ZM383.876 270.529C382.486 270.529 381.437 269.809 381.437 268.76C381.437 267.71 382.478 267.004 383.876 267.004C385.274 267.004 386.283 267.714 386.283 268.76C386.283 269.805 385.256 270.529 383.876 270.529ZM388.928 270.971V274.223H387.592V272.034H382.232V270.971H388.928ZM382.37 264.221H385.381V265.257H382.37V264.221ZM383.876 269.51C384.47 269.51 384.97 269.202 384.97 268.76C384.97 268.317 384.47 268.018 383.876 268.018C383.282 268.018 382.768 268.317 382.768 268.76C382.768 269.202 383.273 269.51 383.876 269.51ZM388.928 268.018V270.484H387.583V264.051H388.928V266.946H390.353V268.018H388.928Z" fill="#1B2E69"/>
<path d="M344.246 282.259C345.863 282.259 346.917 283.317 346.917 284.787C346.917 286.257 345.867 287.32 344.246 287.32C342.624 287.32 341.565 286.261 341.565 284.787C341.565 283.313 342.615 282.259 344.246 282.259ZM344.246 286.203C345.054 286.203 345.559 285.596 345.559 284.778C345.559 284.001 345.059 283.384 344.246 283.384C343.433 283.384 342.923 284.001 342.923 284.778C342.923 285.6 343.424 286.203 344.246 286.203ZM343.115 291.403V288.195H344.473V290.353H350.142V291.403H343.115ZM347.163 285.323H348.588V283.929H347.163L347.14 282.799H348.588V281.513H349.923V288.879H348.588V286.449H347.127L347.163 285.319V285.323Z" fill="#1B2E69"/>
<path d="M359.064 286.399H360.569V287.458H356.625V291.679H355.289V287.458H351.389V286.399H357.795C357.978 285.519 358.068 284.38 358.068 283.138H352.515V282.066H359.39C359.39 283.71 359.287 285.238 359.059 286.399" fill="#1B2E69"/>
<path d="M365.699 287.516C365.025 287.222 364.113 286.319 363.85 285.658C363.577 286.458 362.755 287.436 361.889 287.834L361.16 286.922C362.389 286.234 363.157 285.015 363.157 283.581V282.326H364.466V283.545C364.466 284.961 365.31 286.042 366.36 286.534L365.699 287.516ZM363.032 291.439V288.178H364.377V290.38H370.135V291.439H363.032ZM366.682 288.794V285.077H365.462V284.005H366.682V281.7H367.924V288.794H366.682ZM368.621 281.517H369.898V289.044H368.621V281.517Z" fill="#1B2E69"/>
<path d="M376.76 288.052L376.907 289.066C375.858 289.308 374.102 289.419 372.485 289.41L371.516 289.401V282.397H376.179V283.456H372.824V285.18H375.746V286.239H372.824V288.325C374.035 288.347 375.607 288.338 376.76 288.052ZM378.185 291.68V286.288H376.488V285.149H378.185V281.521H379.507V291.684H378.185V291.68Z" fill="#1B2E69"/>
</g>
<circle cx="490.57" cy="268" r="74.4304" fill="#1B2E69"/>
<g clip-path="url(#clip1_148_5142)">
<path d="M502.982 248.51C499.448 250.088 495.532 250.976 491.414 250.976C487.295 250.976 483.38 250.088 479.845 248.51L491.418 225.468L502.987 248.51H502.982ZM463.809 280.454L468.353 271.398C472.096 272.877 474.852 276.325 475.31 280.454H463.804H463.809ZM495.329 278.421L486.485 260.802L477.509 278.682C476.527 274.382 473.481 270.858 469.466 269.199L478.749 250.71C482.619 252.454 486.906 253.432 491.423 253.432C495.94 253.432 500.226 252.454 504.096 250.71L508.36 259.197C501.376 263.114 496.392 270.163 495.338 278.421H495.329ZM497.614 280.454C498.04 272.286 502.706 265.223 509.45 261.397L512.614 267.702L506.21 280.454H497.61H497.614ZM508.975 280.454L513.999 270.447L519.023 280.454H508.975Z" fill="white"/>
<path d="M465.144 300.683H462.573L461.288 297.749H457.296L455.947 300.683H454.241L459.799 288.423L465.144 300.683ZM457.776 296.748H460.862L459.342 293.273L457.776 296.748Z" fill="white"/>
<path d="M471.205 295.139C471.205 294.932 471.183 294.751 471.142 294.589C471.097 294.427 471.042 294.292 470.97 294.183C470.897 294.075 470.811 293.994 470.721 293.936C470.626 293.881 470.531 293.854 470.431 293.854C470.332 293.854 470.214 293.877 470.083 293.918C469.951 293.958 469.816 294.021 469.671 294.098C469.526 294.174 469.381 294.269 469.227 294.377C469.073 294.485 468.933 294.612 468.797 294.751V300.683H466.435V293.3L468.797 292.394V293.219C469.159 292.944 469.549 292.741 469.96 292.61C470.372 292.48 470.784 292.417 471.192 292.417C471.508 292.417 471.812 292.48 472.097 292.61C472.382 292.741 472.631 292.917 472.844 293.138C473.056 293.359 473.228 293.62 473.355 293.918C473.482 294.215 473.545 294.535 473.545 294.873V300.679H471.205V295.135V295.139Z" fill="white"/>
<path d="M475.79 289.73C475.79 289.568 475.822 289.41 475.89 289.261C475.953 289.113 476.048 288.986 476.161 288.883C476.279 288.779 476.41 288.693 476.564 288.63C476.718 288.567 476.881 288.536 477.058 288.536C477.234 288.536 477.397 288.567 477.551 288.63C477.705 288.693 477.841 288.779 477.954 288.883C478.067 288.986 478.158 289.117 478.221 289.261C478.284 289.41 478.32 289.563 478.32 289.73C478.32 289.897 478.289 290.05 478.221 290.194C478.153 290.339 478.067 290.465 477.954 290.573C477.841 290.677 477.705 290.762 477.551 290.825C477.397 290.888 477.23 290.92 477.058 290.92C476.886 290.92 476.718 290.888 476.564 290.825C476.41 290.762 476.279 290.677 476.161 290.573C476.044 290.469 475.953 290.343 475.89 290.194C475.822 290.05 475.79 289.892 475.79 289.73ZM475.89 293.3L478.244 292.394V300.683H475.89V293.3Z" fill="white"/>
<path d="M480.728 289.324L483.09 288.418V293.12C483.394 292.912 483.724 292.746 484.082 292.61C484.439 292.48 484.783 292.412 485.118 292.412C485.602 292.412 486.05 292.507 486.458 292.7C486.865 292.894 487.218 293.156 487.517 293.485C487.816 293.814 488.046 294.201 488.214 294.639C488.381 295.076 488.463 295.545 488.463 296.036C488.463 296.469 488.409 296.888 488.304 297.293C488.2 297.699 488.046 298.078 487.856 298.429C487.662 298.785 487.431 299.11 487.155 299.403C486.883 299.7 486.58 299.953 486.245 300.16C485.91 300.368 485.557 300.53 485.172 300.647C484.792 300.764 484.394 300.823 483.982 300.823C483.371 300.823 482.787 300.737 482.23 300.566C481.674 300.395 481.171 300.12 480.728 299.746V289.315V289.324ZM483.09 299.214C483.172 299.286 483.253 299.358 483.339 299.43C483.425 299.498 483.516 299.561 483.611 299.61C483.706 299.664 483.81 299.705 483.923 299.736C484.036 299.768 484.154 299.786 484.285 299.786C484.548 299.786 484.788 299.705 485 299.538C485.213 299.371 485.399 299.142 485.553 298.849C485.706 298.556 485.824 298.208 485.91 297.812C485.992 297.411 486.037 296.982 486.037 296.523C486.037 296.18 485.992 295.856 485.91 295.549C485.824 295.247 485.706 294.977 485.557 294.747C485.408 294.517 485.231 294.337 485.032 294.201C484.828 294.071 484.616 294.003 484.389 294.003C484.163 294.003 483.946 294.071 483.71 294.206C483.475 294.341 483.267 294.512 483.099 294.715V299.214H483.09Z" fill="white"/>
<path d="M490.137 289.73C490.137 289.568 490.169 289.41 490.237 289.261C490.3 289.113 490.395 288.986 490.508 288.883C490.626 288.779 490.757 288.693 490.911 288.63C491.065 288.567 491.228 288.536 491.405 288.536C491.581 288.536 491.744 288.567 491.898 288.63C492.052 288.693 492.188 288.779 492.301 288.883C492.414 288.986 492.504 289.117 492.568 289.261C492.631 289.41 492.667 289.563 492.667 289.73C492.667 289.897 492.636 290.05 492.568 290.194C492.5 290.339 492.414 290.465 492.301 290.573C492.188 290.677 492.052 290.762 491.898 290.825C491.744 290.888 491.577 290.92 491.405 290.92C491.233 290.92 491.065 290.888 490.911 290.825C490.757 290.762 490.626 290.677 490.508 290.573C490.391 290.469 490.3 290.343 490.237 290.194C490.169 290.05 490.137 289.892 490.137 289.73ZM490.237 293.3L492.59 292.394V300.683H490.237V293.3Z" fill="white"/>
<path d="M498.629 300.832C498.014 300.832 497.443 300.728 496.923 300.516C496.402 300.304 495.95 300.016 495.569 299.642C495.189 299.272 494.891 298.835 494.678 298.339C494.465 297.839 494.356 297.298 494.356 296.717C494.356 296.095 494.465 295.518 494.678 294.99C494.891 294.463 495.189 294.012 495.565 293.629C495.945 293.25 496.393 292.953 496.914 292.737C497.434 292.52 498.005 292.417 498.62 292.417C499.236 292.417 499.806 292.52 500.331 292.732C500.856 292.939 501.309 293.228 501.689 293.593C502.069 293.958 502.368 294.386 502.585 294.882C502.802 295.378 502.911 295.91 502.911 296.482C502.911 297.055 502.802 297.645 502.59 298.172C502.377 298.7 502.078 299.164 501.698 299.556C501.318 299.948 500.865 300.264 500.34 300.494C499.815 300.724 499.245 300.841 498.629 300.841V300.832ZM498.901 299.84C499.113 299.84 499.308 299.768 499.489 299.624C499.67 299.48 499.829 299.281 499.96 299.038C500.096 298.79 500.195 298.506 500.272 298.186C500.345 297.861 500.381 297.528 500.381 297.181C500.381 296.662 500.345 296.176 500.272 295.716C500.2 295.261 500.077 294.86 499.915 294.512C499.747 294.17 499.534 293.895 499.267 293.697C499 293.494 498.679 293.395 498.294 293.395C498.109 293.395 497.928 293.467 497.756 293.611C497.584 293.755 497.434 293.945 497.303 294.188C497.172 294.427 497.068 294.706 496.991 295.022C496.914 295.337 496.873 295.666 496.873 296.018C496.873 296.541 496.918 297.037 497.013 297.501C497.108 297.965 497.24 298.371 497.416 298.718C497.588 299.065 497.801 299.34 498.05 299.543C498.299 299.746 498.584 299.849 498.901 299.849V299.84Z" fill="white"/>
<path d="M514.426 295.175C514.426 294.995 514.403 294.823 514.362 294.666C514.317 294.503 514.258 294.364 514.186 294.246C514.113 294.129 514.023 294.03 513.919 293.962C513.819 293.89 513.71 293.854 513.593 293.854C513.457 293.854 513.317 293.877 513.167 293.926C513.022 293.976 512.878 294.039 512.733 294.116C512.588 294.192 512.452 294.287 512.33 294.395C512.203 294.499 512.095 294.612 511.995 294.729V300.683H509.673V295.179C509.673 294.999 509.65 294.828 509.605 294.67C509.56 294.508 509.497 294.368 509.42 294.251C509.343 294.134 509.252 294.035 509.153 293.967C509.053 293.895 508.949 293.859 508.84 293.859C508.714 293.859 508.578 293.881 508.437 293.931C508.297 293.981 508.148 294.044 508.007 294.12C507.867 294.197 507.727 294.292 507.591 294.4C507.455 294.503 507.338 294.616 507.234 294.733V300.688H504.889V293.304L507.234 292.398V293.277C507.6 293.011 507.985 292.804 508.379 292.651C508.772 292.498 509.153 292.421 509.519 292.421C509.723 292.421 509.922 292.444 510.13 292.493C510.338 292.543 510.533 292.61 510.719 292.696C510.904 292.782 511.081 292.89 511.244 293.011C511.407 293.138 511.542 293.277 511.66 293.435C511.837 293.286 512.031 293.151 512.244 293.025C512.457 292.899 512.678 292.791 512.914 292.705C513.149 292.619 513.389 292.547 513.633 292.498C513.878 292.448 514.122 292.421 514.362 292.421C514.688 292.421 515 292.489 515.295 292.619C515.589 292.75 515.847 292.935 516.069 293.165C516.29 293.399 516.467 293.67 516.598 293.981C516.729 294.292 516.793 294.63 516.793 294.986V300.678H514.426V295.175Z" fill="white"/>
<path d="M522.776 300.863C522.229 300.863 521.708 300.755 521.224 300.543C520.74 300.327 520.319 300.043 519.961 299.678C519.604 299.317 519.318 298.894 519.11 298.416C518.902 297.938 518.798 297.433 518.798 296.897C518.798 296.257 518.893 295.662 519.088 295.117C519.278 294.571 519.549 294.093 519.907 293.692C520.26 293.291 520.681 292.976 521.174 292.75C521.667 292.525 522.215 292.412 522.822 292.412C523.36 292.412 523.854 292.502 524.306 292.683C524.754 292.863 525.139 293.106 525.46 293.422C525.782 293.733 526.031 294.102 526.207 294.526C526.384 294.95 526.474 295.401 526.474 295.883H521.111C521.129 296.334 521.197 296.762 521.305 297.167C521.414 297.573 521.559 297.934 521.74 298.24C521.921 298.547 522.134 298.795 522.378 298.979C522.623 299.16 522.894 299.254 523.193 299.254C523.451 299.254 523.704 299.209 523.953 299.115C524.202 299.024 524.433 298.894 524.646 298.736C524.858 298.574 525.039 298.389 525.198 298.173C525.356 297.956 525.469 297.726 525.537 297.478L526.732 297.677C526.61 298.114 526.42 298.529 526.153 298.912C525.886 299.299 525.578 299.637 525.221 299.926C524.863 300.219 524.478 300.444 524.057 300.611C523.636 300.778 523.215 300.859 522.785 300.859L522.776 300.863ZM523.768 295.044C523.75 294.806 523.7 294.589 523.618 294.391C523.541 294.193 523.442 294.021 523.32 293.882C523.197 293.742 523.057 293.629 522.894 293.552C522.731 293.476 522.559 293.435 522.374 293.435C522.229 293.435 522.084 293.476 521.944 293.552C521.803 293.629 521.677 293.737 521.563 293.877C521.45 294.017 521.355 294.188 521.274 294.386C521.197 294.585 521.142 294.806 521.12 295.049H523.768V295.044Z" fill="white"/>
<path d="M454.72 305.204H455.666V307.372H457.911V305.204H458.857V310.459H457.911V308.115H455.666V310.459H454.72V305.204Z" fill="white"/>
<path d="M463.776 308.539V308.431C463.776 307.106 464.587 306.452 465.591 306.452C466.759 306.452 467.271 307.101 467.271 308.359V308.729H464.686C464.74 309.549 465.161 309.837 465.917 309.837C466.424 309.837 466.795 309.725 467.139 309.544V310.157C466.872 310.333 466.411 310.527 465.741 310.527C464.424 310.527 463.781 309.783 463.781 308.535L463.776 308.539ZM464.686 308.125H466.37C466.37 307.381 466.094 307.106 465.578 307.106C465.17 307.106 464.745 307.322 464.686 308.125Z" fill="white"/>
<path d="M471.862 309.414C471.862 308.683 472.346 308.35 473.129 308.233L474.062 308.125V307.827C474.062 307.291 473.822 307.169 473.152 307.169C472.767 307.169 472.428 307.223 472.192 307.277V306.673C472.563 306.529 472.984 306.457 473.5 306.457C474.415 306.457 474.949 306.808 474.949 307.629V310.464H474.215L474.148 310.144H474.102C473.912 310.365 473.595 310.536 473.079 310.536C472.364 310.536 471.862 310.175 471.862 309.418V309.414ZM474.062 309.675V308.701L473.328 308.778C472.935 308.81 472.726 308.967 472.726 309.369C472.726 309.743 472.98 309.914 473.342 309.914C473.627 309.914 473.912 309.815 474.057 309.675H474.062Z" fill="white"/>
<path d="M479.994 304.861H480.886V310.464H479.994V304.861Z" fill="white"/>
<path d="M486.19 309.486V307.2H485.638V306.511H486.19V305.582H487.059V306.511H488.005V307.2H487.059V309.359C487.059 309.688 487.181 309.81 487.597 309.81C487.751 309.81 487.914 309.788 488.05 309.747V310.338C487.896 310.414 487.679 310.5 487.312 310.5C486.629 310.5 486.19 310.225 486.19 309.481V309.486Z" fill="white"/>
<path d="M492.861 304.861H493.744V306.853H493.78C494.101 306.614 494.563 306.448 495.043 306.448C495.803 306.448 496.197 306.754 496.197 307.534V310.459H495.305V307.741C495.305 307.345 495.174 307.182 494.635 307.182C494.328 307.182 493.984 307.282 493.744 307.399V310.464H492.861V304.861Z" fill="white"/>
<path d="M501 308.575V308.453C501 307.088 501.833 306.448 502.933 306.448C503.458 306.448 503.77 306.547 504.024 306.686V307.376C503.693 307.245 503.453 307.16 502.987 307.16C502.326 307.16 501.919 307.574 501.919 308.363V308.539C501.919 309.445 502.295 309.828 503.051 309.828C503.535 309.828 503.865 309.675 504.064 309.585V310.229C503.811 310.391 503.44 310.536 502.897 310.536C501.729 310.536 501.005 309.882 501.005 308.584L501 308.575Z" fill="white"/>
<path d="M508.613 309.414C508.613 308.683 509.098 308.35 509.881 308.233L510.813 308.125V307.827C510.813 307.291 510.573 307.169 509.903 307.169C509.518 307.169 509.179 307.223 508.944 307.277V306.673C509.315 306.529 509.736 306.457 510.252 306.457C511.166 306.457 511.7 306.808 511.7 307.629V310.464H510.967L510.899 310.144H510.854C510.664 310.365 510.347 310.536 509.831 310.536C509.116 310.536 508.613 310.175 508.613 309.418V309.414ZM510.813 309.675V308.701L510.08 308.778C509.686 308.81 509.478 308.967 509.478 309.369C509.478 309.743 509.731 309.914 510.093 309.914C510.378 309.914 510.664 309.815 510.808 309.675H510.813Z" fill="white"/>
<path d="M516.728 306.515H517.584V306.975H517.615C517.833 306.691 518.24 306.484 518.652 306.484C518.761 306.484 518.86 306.493 518.896 306.506V307.286C518.797 307.272 518.665 307.263 518.575 307.263C518.222 307.263 517.869 307.363 517.615 307.525V310.459H516.733V306.515H516.728Z" fill="white"/>
<path d="M523.41 308.539V308.431C523.41 307.106 524.22 306.452 525.225 306.452C526.393 306.452 526.904 307.101 526.904 308.359V308.729H524.32C524.374 309.549 524.795 309.837 525.551 309.837C526.058 309.837 526.429 309.725 526.773 309.544V310.157C526.506 310.333 526.044 310.527 525.374 310.527C524.057 310.527 523.415 309.783 523.415 308.535L523.41 308.539ZM524.32 308.125H526.004C526.004 307.381 525.727 307.106 525.211 307.106C524.804 307.106 524.379 307.322 524.32 308.125Z" fill="white"/>
</g>
<circle cx="624" cy="268" r="72" fill="white"/>
<circle cx="425" cy="95" r="72" fill="white"/>
<circle cx="226" cy="268" r="72" fill="white"/>
<circle cx="624" cy="268" r="72" fill="url(#paint1_linear_148_5142)" fill-opacity="0.16"/>
<circle cx="226" cy="268" r="72" fill="url(#paint2_linear_148_5142)" fill-opacity="0.16"/>
<circle cx="425" cy="441" r="72" fill="white"/>
<circle cx="425" cy="95" r="72" fill="url(#paint3_linear_148_5142)" fill-opacity="0.16"/>
<circle cx="425" cy="441" r="72" fill="url(#paint4_linear_148_5142)" fill-opacity="0.16"/>
<path d="M410.318 76.1719V84.0781H408.177V76.1719H410.318ZM397.881 78.875V77.2031H400.146V76.1406H402.365V77.2031H404.631V78.875H397.881ZM398.271 81.5312C398.263 80.1172 399.537 79.1484 401.287 79.1562C403.013 79.1484 404.287 80.1172 404.287 81.5312C404.287 82.9375 403.013 83.8828 401.287 83.875C399.537 83.8828 398.263 82.9375 398.271 81.5312ZM400.209 81.5312C400.209 82.0781 400.646 82.3516 401.287 82.3594C401.896 82.3516 402.334 82.0781 402.334 81.5312C402.334 80.9844 401.896 80.6875 401.287 80.6875C400.646 80.6875 400.209 80.9844 400.209 81.5312ZM400.412 86.1094V84.5H410.318V88.1875H402.662V88.7812H410.693V90.4219H400.427V86.6719H408.084V86.1094H400.412ZM404.349 81.3438V79.5781H405.396V76.4062H407.506V83.9688H405.396V81.3438H404.349ZM419.299 77.9688C419.291 79.9688 420.846 82.2344 424.33 82.8125L423.346 84.6719C420.775 84.1875 419.017 82.8281 418.096 81.0781C417.166 82.8125 415.392 84.1797 412.846 84.6719L411.892 82.8125C415.299 82.2188 416.877 79.9375 416.892 77.9688V76.9688H419.299V77.9688ZM411.627 88.7969V86.9531H424.736V88.7969H411.627ZM431.686 77.75C431.686 79.0859 431.584 80.3359 431.303 81.5H432.607V76.4688H434.701V89.8906H432.607V83.2969H430.693C429.92 84.9844 428.607 86.4453 426.451 87.6875L425.201 86.1719C426.897 85.1641 427.982 84.0703 428.639 82.7891L425.545 83.1094L425.311 81.2031L429.272 81.0156C429.381 80.5469 429.451 80.0547 429.49 79.5312H426.029V77.75H431.686ZM435.654 90.5V76.1562H437.764V90.5H435.654ZM442.948 77.1406C444.877 77.1328 446.338 78.7031 446.643 81.25H448.901V76.1562H451.119V90.5312H448.901V83.0312H446.666C446.432 85.7656 444.94 87.4375 442.948 87.4375C440.752 87.4375 439.174 85.4531 439.182 82.2656C439.174 79.125 440.752 77.1328 442.948 77.1406ZM441.338 82.2656C441.33 84.3516 441.987 85.3906 442.948 85.3906C443.924 85.3906 444.557 84.3516 444.557 82.2656C444.557 80.2188 443.924 79.1641 442.948 79.1719C441.987 79.1641 441.33 80.2188 441.338 82.2656ZM380.919 113V101.688H385.544C388.091 101.688 389.662 103.133 389.654 105.438C389.662 107 388.943 108.109 387.693 108.68L390.06 113H387.138L385.06 109.109H383.576V113H380.919ZM383.576 106.984H384.982C386.24 106.992 386.904 106.5 386.904 105.438C386.904 104.375 386.24 103.844 384.982 103.844H383.576V106.984ZM394.525 113.172C392.134 113.172 390.681 111.766 390.681 110C390.681 108.695 391.502 107.914 392.705 107.094C392.158 106.375 391.689 105.531 391.697 104.531C391.689 102.852 392.955 101.523 394.869 101.531C396.72 101.523 397.861 102.781 397.869 104.281C397.861 105.336 397.314 106.227 396.353 106.906L395.744 107.352L397.447 109.273C397.752 108.719 397.931 108.062 397.931 107.328H400.072C400.072 108.836 399.697 110.117 399.009 111.039L400.744 113H398.056L397.416 112.297C396.548 112.914 395.494 113.172 394.525 113.172ZM393.228 109.828C393.22 110.57 393.791 111.078 394.681 111.078C395.119 111.078 395.564 110.953 395.986 110.734L394.025 108.594C393.509 108.953 393.22 109.367 393.228 109.828ZM393.884 104.562C393.892 104.992 394.142 105.422 394.525 105.914L395.072 105.562C395.611 105.227 395.83 104.836 395.838 104.438C395.83 104.031 395.502 103.625 394.884 103.625C394.283 103.633 393.892 104.031 393.884 104.562ZM405.553 113H401.412V101.688H405.553C409.006 101.688 411.131 103.805 411.131 107.344C411.131 110.875 409.006 113 405.553 113ZM404.068 110.719H405.459C407.396 110.727 408.459 109.797 408.459 107.344C408.459 104.883 407.396 103.961 405.428 103.953H404.068V110.719ZM427.623 100.172V110.625H425.389V105.609H423.233V103.797H425.389V100.172H427.623ZM415.358 107.281C417.803 106.539 418.725 104.68 418.733 102.906V102.875H415.983V101.078H423.764V102.875H421.029V102.922C421.029 104.539 421.92 106.305 424.248 107.047L423.154 108.828C421.584 108.328 420.529 107.344 419.912 106.109C419.279 107.477 418.178 108.562 416.514 109.094L415.358 107.281ZM418.014 114.266V109.719H420.264V112.469H427.951V114.266H418.014ZM442.244 107.156V108.938H436.994V111.266H434.776V108.938H429.135V107.156H442.244ZM430.619 114.266V110.078H432.869V112.469H440.807V114.266H430.619ZM430.744 106.141V100.766H440.573V106.141H430.744ZM432.948 104.406H438.369V102.5H432.948V104.406ZM455.178 100.156V110.891H453.038V100.156H455.178ZM442.569 107.391C444.561 106.422 445.233 104.594 445.241 102.891V101.094H447.428V102.891C447.42 104.539 448.03 106.156 449.866 107.016L448.631 108.75C447.538 108.234 446.811 107.398 446.35 106.375C445.85 107.547 445.03 108.516 443.803 109.078L442.569 107.391ZM445.366 114.266V109.641H447.616V112.469H455.522V114.266H445.366ZM448.538 105.156V103.328H450.131V100.359H452.256V110.453H450.131V105.156H448.538ZM468.643 100.156V114.531H466.424V106.906H464.065V105.109H466.424V100.156H468.643ZM457.143 111.359V101.328H463.846V103.141H459.393V105.312H463.362V107.062H459.393V109.523C461.198 109.508 462.745 109.438 464.44 109.188L464.659 110.969C462.565 111.281 460.651 111.344 458.299 111.359H457.143Z" fill="#097EEA"/>
<path d="M389.597 423.172V433.625H387.363V429.078H384.988V427.25H387.363V423.172H389.597ZM377.628 430.469C380.488 429.609 382.292 428.008 382.675 426.047H378.378V424.219H385.144C385.144 428.117 382.769 430.969 378.535 432.266L377.628 430.469ZM380.035 437.266V432.562H382.332V435.469H389.957V437.266H380.035ZM402.547 423.156V426.422H404.406V428.25H402.547V431.391H400.297V423.156H402.547ZM391 429.984C394.047 429.195 395.734 427.68 396.054 425.859H391.687V424.062H398.531C398.531 427.945 396.187 430.625 391.89 431.797L391 429.984ZM392.906 434.531C392.898 432.727 394.89 431.562 397.812 431.562C400.75 431.562 402.695 432.727 402.703 434.531C402.695 436.375 400.75 437.523 397.812 437.516C394.89 437.523 392.898 436.375 392.906 434.531ZM395.14 434.531C395.132 435.352 396.117 435.781 397.812 435.781C399.5 435.781 400.476 435.352 400.484 434.531C400.476 433.727 399.5 433.305 397.812 433.297C396.117 433.305 395.132 433.727 395.14 434.531ZM416.793 424.328V425.672C416.793 427.398 416.793 429.398 416.262 432.359L414.043 432.172C414.496 429.617 414.535 427.703 414.527 426.109H406.058V424.328H416.793ZM404.793 435.828V434.016H407.433V429.562H409.668V434.016H411.012V429.562H413.23V434.016H417.871V435.828H404.793ZM431.539 429.797V431.562H428.477V432.75H429.961V437.5H427.711V434.5H419.914V432.75H421.43V431.562H418.461V429.797H431.539ZM419.727 426.266C419.719 424.516 421.805 423.422 424.992 423.422C428.164 423.422 430.25 424.516 430.258 426.266C430.25 428.039 428.164 429.133 424.992 429.141C421.805 429.133 419.719 428.039 419.727 426.266ZM422.07 426.266C422.055 427.047 423.094 427.398 424.992 427.406C426.875 427.398 427.93 427.047 427.93 426.266C427.93 425.531 426.875 425.164 424.992 425.156C423.094 425.164 422.055 425.531 422.07 426.266ZM423.695 432.75H426.258V431.562H423.695V432.75ZM439.738 424.234C439.731 428.328 438.082 431.031 433.176 432.578L432.317 430.844C434.215 430.25 435.442 429.523 436.215 428.664L432.645 428.953L432.348 427.203L437.137 427.062C437.238 426.734 437.309 426.391 437.348 426.031H433.067V424.234H439.738ZM434.723 437.266V432.719H436.988V435.469H444.613V437.266H434.723ZM439.629 429.25V427.422H442.035V423.172H444.27V433.734H442.035V429.25H439.629ZM458.157 423.172V433.875H456.016V423.172H458.157ZM446.328 431.969V424.234H451.782V426.016H448.485V427.25H451.282V428.938H448.485V430.172C449.891 430.164 450.977 430.117 452.235 429.906L452.453 431.656C450.821 431.93 449.438 431.977 447.328 431.969H446.328ZM448.469 437.266V432.719H450.735V435.469H458.5V437.266H448.469ZM451.875 428.797V427.016H453.157V423.422H455.282V433.547H453.157V428.797H451.875ZM472.575 434.062V435.891H459.465V434.062H472.575ZM459.809 430.562C463.176 430.141 464.629 428.422 464.833 426.859H460.575V425.062H464.903V423.344H467.122V425.062H471.465V426.859H467.192C467.387 428.422 468.84 430.141 472.231 430.562L471.372 432.344C468.762 431.984 466.965 430.867 465.997 429.383C465.036 430.867 463.247 431.984 460.653 432.344L459.809 430.562ZM410.099 447.172V457.625H407.865V452.609H405.709V450.797H407.865V447.172H410.099ZM397.834 454.281C400.279 453.539 401.201 451.68 401.209 449.906V449.875H398.459V448.078H406.24V449.875H403.506V449.922C403.506 451.539 404.396 453.305 406.724 454.047L405.631 455.828C404.06 455.328 403.006 454.344 402.388 453.109C401.756 454.477 400.654 455.562 398.99 456.094L397.834 454.281ZM400.49 461.266V456.719H402.74V459.469H410.427V461.266H400.49ZM424.721 454.156V455.938H419.471V458.266H417.252V455.938H411.611V454.156H424.721ZM413.096 461.266V457.078H415.346V459.469H423.283V461.266H413.096ZM413.221 453.141V447.766H423.049V453.141H413.221ZM415.424 451.406H420.846V449.5H415.424V451.406ZM437.654 447.156V457.891H435.514V447.156H437.654ZM425.045 454.391C427.037 453.422 427.709 451.594 427.717 449.891V448.094H429.904V449.891C429.897 451.539 430.506 453.156 432.342 454.016L431.107 455.75C430.014 455.234 429.287 454.398 428.826 453.375C428.326 454.547 427.506 455.516 426.279 456.078L425.045 454.391ZM427.842 461.266V456.641H430.092V459.469H437.998V461.266H427.842ZM431.014 452.156V450.328H432.607V447.359H434.732V457.453H432.607V452.156H431.014ZM451.119 447.156V461.531H448.901V453.906H446.541V452.109H448.901V447.156H451.119ZM439.619 458.359V448.328H446.323V450.141H441.869V452.312H445.838V454.062H441.869V456.523C443.674 456.508 445.221 456.438 446.916 456.188L447.135 457.969C445.041 458.281 443.127 458.344 440.776 458.359H439.619Z" fill="#097EEA"/>
<path d="M195.91 256.828V258.594H182.8V256.828H188.253V255.75H184.363V250.781H194.363V252.531H186.613V253.984H194.425V255.75H190.472V256.828H195.91ZM184.269 261.875C184.269 260.156 186.167 259.203 189.316 259.203C192.433 259.203 194.316 260.156 194.316 261.875C194.316 263.555 192.433 264.523 189.316 264.531C186.167 264.523 184.269 263.555 184.269 261.875ZM186.566 261.875C186.55 262.539 187.433 262.82 189.316 262.812C191.152 262.82 192.058 262.539 192.066 261.875C192.058 261.219 191.152 260.906 189.316 260.906C187.433 260.906 186.55 261.219 186.566 261.875ZM209.547 255.734V257.5H204.109V258.25H207.984V262.078H200.172V262.734H208.328V264.422H197.953V260.5H205.75V259.938H197.953V258.25H201.843V257.5H196.468V255.734H209.547ZM198.062 255.125V250.562H207.906V255.125H198.062ZM200.265 253.406H205.656V252.297H200.265V253.406ZM222.168 250.156V257.859H219.933V250.156H222.168ZM210.277 252.828V251.156H213.496V250.062H215.777V251.156H218.965V252.828H210.277ZM211.012 255.453C211.004 254.039 212.457 253.117 214.652 253.109C216.863 253.117 218.277 254.039 218.277 255.453C218.277 256.922 216.863 257.805 214.652 257.797C212.457 257.805 211.004 256.922 211.012 255.453ZM212.496 264.422V260.609H219.965V260H212.496V258.375H222.168V262.125H214.715V262.781H222.512V264.422H212.496ZM213.168 255.453C213.16 255.969 213.722 256.219 214.652 256.219C215.558 256.219 216.113 255.969 216.121 255.453C216.113 254.945 215.558 254.688 214.652 254.688C213.722 254.688 213.16 254.945 213.168 255.453ZM235.852 250.172V258.844H233.602V250.172H235.852ZM224.555 252.797V251H231.211V255.469H226.773V256.523C229.102 256.508 230.711 256.422 232.523 256.156L232.805 257.938C230.688 258.281 228.758 258.344 225.852 258.344H224.57V253.812H228.992V252.797H224.555ZM226.008 261.781C226 260.039 227.883 259.062 230.961 259.062C234.047 259.062 235.938 260.039 235.945 261.781C235.938 263.5 234.047 264.516 230.961 264.5C227.883 264.516 226 263.5 226.008 261.781ZM228.242 261.781C228.234 262.469 229.141 262.766 230.961 262.766C232.781 262.766 233.68 262.469 233.695 261.781C233.68 261.102 232.781 260.797 230.961 260.797C229.141 260.797 228.234 261.102 228.242 261.781ZM243.113 251.156L239.473 264.703H237.223L240.863 251.156H243.113ZM247.469 250.906C248.586 250.898 249.571 251.305 250.258 251.984H253.36V250.156H255.594V258.531H253.36V256.922H250.243C249.555 257.586 248.571 257.992 247.469 257.984C245.289 257.992 243.61 256.484 243.625 254.453C243.61 252.391 245.289 250.898 247.469 250.906ZM245.688 261.656C245.688 259.859 247.602 258.805 250.641 258.812C253.703 258.805 255.633 259.859 255.641 261.656C255.633 263.445 253.703 264.516 250.641 264.5C247.602 264.516 245.688 263.445 245.688 261.656ZM245.75 254.453C245.75 255.477 246.461 256.094 247.469 256.094C248.446 256.094 249.141 255.477 249.141 254.453C249.141 253.383 248.446 252.82 247.469 252.828C246.461 252.82 245.75 253.383 245.75 254.453ZM247.891 261.656C247.883 262.414 248.852 262.766 250.641 262.766C252.5 262.766 253.43 262.414 253.438 261.656C253.43 260.875 252.5 260.523 250.641 260.516C248.852 260.523 247.883 260.875 247.891 261.656ZM251.211 255.141H253.36V253.766H251.211C251.258 253.984 251.282 254.219 251.282 254.453C251.282 254.688 251.258 254.922 251.211 255.141ZM270.325 251.828V253.641H268.543V254.953H270.325V256.797H268.543V258.5H266.293V250.156H268.543V251.828H270.325ZM257.168 254.422C257.153 252.375 258.887 250.922 261.153 250.922C263.379 250.922 265.106 252.375 265.106 254.422C265.106 256.453 263.379 257.93 261.153 257.922C258.887 257.93 257.153 256.453 257.168 254.422ZM258.856 261.641C258.848 259.828 260.793 258.742 263.809 258.75C266.77 258.742 268.684 259.828 268.684 261.641C268.684 263.43 266.77 264.516 263.809 264.5C260.793 264.516 258.848 263.43 258.856 261.641ZM259.372 254.422C259.364 255.461 260.129 256.031 261.153 256.031C262.137 256.031 262.911 255.461 262.918 254.422C262.911 253.398 262.137 252.797 261.153 252.797C260.129 252.797 259.364 253.398 259.372 254.422ZM261.106 261.641C261.098 262.414 262.028 262.727 263.809 262.719C265.575 262.727 266.458 262.414 266.465 261.641C266.458 260.859 265.575 260.516 263.809 260.516C262.028 260.516 261.098 260.859 261.106 261.641ZM211.599 274.172V284.625H209.365V279.609H207.209V277.797H209.365V274.172H211.599ZM199.334 281.281C201.779 280.539 202.701 278.68 202.709 276.906V276.875H199.959V275.078H207.74V276.875H205.006V276.922C205.006 278.539 205.896 280.305 208.224 281.047L207.131 282.828C205.56 282.328 204.506 281.344 203.888 280.109C203.256 281.477 202.154 282.562 200.49 283.094L199.334 281.281ZM201.99 288.266V283.719H204.24V286.469H211.927V288.266H201.99ZM226.221 281.156V282.938H220.971V285.266H218.752V282.938H213.111V281.156H226.221ZM214.596 288.266V284.078H216.846V286.469H224.783V288.266H214.596ZM214.721 280.141V274.766H224.549V280.141H214.721ZM216.924 278.406H222.346V276.5H216.924V278.406ZM239.154 274.156V284.891H237.014V274.156H239.154ZM226.545 281.391C228.537 280.422 229.209 278.594 229.217 276.891V275.094H231.404V276.891C231.397 278.539 232.006 280.156 233.842 281.016L232.607 282.75C231.514 282.234 230.787 281.398 230.326 280.375C229.826 281.547 229.006 282.516 227.779 283.078L226.545 281.391ZM229.342 288.266V283.641H231.592V286.469H239.498V288.266H229.342ZM232.514 279.156V277.328H234.107V274.359H236.232V284.453H234.107V279.156H232.514ZM252.619 274.156V288.531H250.401V280.906H248.041V279.109H250.401V274.156H252.619ZM241.119 285.359V275.328H247.823V277.141H243.369V279.312H247.338V281.062H243.369V283.523C245.174 283.508 246.721 283.438 248.416 283.188L248.635 284.969C246.541 285.281 244.627 285.344 242.276 285.359H241.119Z" fill="#097EEA"/>
<path d="M599.463 250.156V254.766H601.197V256.609H599.463V261.344H597.213V250.156H599.463ZM587.728 258.312C588.728 258.312 589.877 258.305 591.088 258.266V257.531C589.564 257.289 588.619 256.523 588.619 255.422C588.619 253.992 590.033 253.164 592.181 253.172C594.322 253.164 595.744 253.992 595.744 255.422C595.744 256.508 594.814 257.273 593.322 257.523V258.164C594.439 258.094 595.564 257.992 596.619 257.844L596.775 259.375C593.775 259.953 590.408 259.992 587.963 260.031L587.728 258.312ZM588.103 252.844V251.25H591.088V250.109H593.322V251.25H596.275V252.844H588.103ZM589.697 264.266V260.609H591.963V262.469H599.947V264.266H589.697ZM590.775 255.422C590.767 255.875 591.267 256.117 592.181 256.125C593.095 256.117 593.588 255.875 593.588 255.422C593.588 254.883 593.095 254.656 592.181 254.656C591.267 254.656 590.767 254.883 590.775 255.422ZM607.021 253.906C607.006 256.055 608.013 258.57 610.459 259.688L609.209 261.453C607.631 260.742 606.553 259.367 605.92 257.734C605.295 259.547 604.17 261.062 602.521 261.828L601.224 260.047C603.717 258.898 604.74 256.25 604.74 253.906V253.344H601.818V251.516H609.803V253.344H607.021V253.906ZM610.709 264.5V250.156H612.959V255.531H614.99V257.391H612.959V264.5H610.709ZM625.998 251.078V257.422H619.045V251.078H625.998ZM619.889 262.734C622.49 262.438 623.725 261.5 624.076 260.531H620.514V258.766H630.248V260.531H626.717C627.076 261.477 628.334 262.445 630.904 262.75L630.092 264.469C627.764 264.188 626.201 263.305 625.381 262.141C624.561 263.305 623.014 264.156 620.686 264.422L619.889 262.734ZM621.264 255.641H623.779V252.844H621.264V255.641ZM627.842 258.141V250.156H630.092V253.172H631.951V255H630.092V258.141H627.842ZM645.416 256.984V258.734H639.979V259.703H643.854V264.344H633.838V259.703H637.729V258.734H632.338V256.984H645.416ZM632.823 254.891C635.987 254.727 637.237 253.922 637.518 253.109H633.557V251.344H637.729V250.203H639.979V251.344H644.166V253.109H640.182C640.471 253.922 641.744 254.727 644.885 254.891L644.244 256.547C641.526 256.383 639.752 255.695 638.846 254.656C637.948 255.695 636.166 256.383 633.463 256.547L632.823 254.891ZM636.041 262.547H641.666V261.484H636.041V262.547ZM653.959 251.391V253.156H646.053V251.391H648.991V250.031H651.241V251.391H653.959ZM646.694 256.266C646.694 254.672 648.1 253.57 650.084 253.562C652.077 253.57 653.522 254.672 653.538 256.266C653.522 257.867 652.077 258.938 650.084 258.938C648.1 258.938 646.694 257.867 646.694 256.266ZM648.241 261.969C648.241 260.383 650.155 259.43 653.241 259.438C656.295 259.43 658.217 260.383 658.225 261.969C658.217 263.547 656.295 264.516 653.241 264.5C650.155 264.516 648.241 263.547 648.241 261.969ZM648.788 256.266C648.788 256.961 649.295 257.281 650.084 257.281C650.881 257.281 651.444 256.961 651.444 256.266C651.444 255.57 650.881 255.227 650.084 255.234C649.295 255.227 648.788 255.57 648.788 256.266ZM650.616 261.969C650.616 262.547 651.514 262.82 653.241 262.812C654.92 262.82 655.803 262.547 655.803 261.969C655.803 261.383 654.92 261.133 653.241 261.125C651.514 261.133 650.616 261.383 650.616 261.969ZM654.131 257.891V256.094H655.913V255H654.178V253.203H655.913V250.156H658.147V259.25H655.913V257.891H654.131ZM588.509 276.922C588.509 278.562 589.431 280.312 591.853 281.031L590.697 282.781C589.127 282.297 588.048 281.328 587.408 280.102C586.752 281.438 585.627 282.516 583.963 283.047L582.806 281.281C585.259 280.523 586.22 278.664 586.228 276.922H583.4V275.125H591.259V276.922H588.509ZM585.119 288.266V283.562H587.4V286.469H595.197V288.266H585.119ZM592.588 284.484V274.172H594.838V284.484H592.588ZM607.881 274.172V277.969H609.756V279.812H607.881V284.531H605.631V274.172H607.881ZM596.974 282.219V275.281H603.459V277.062H599.224V280.422C601.724 280.398 603.084 280.312 604.584 279.984L604.818 281.781C603.076 282.141 601.443 282.219 598.209 282.219H596.974ZM598.474 288.266V283.391H600.724V286.469H608.349V288.266H598.474ZM622.596 274.156V288.5H620.439V274.156H622.596ZM610.236 280.375C610.228 277.117 611.463 275.125 613.361 275.125C614.557 275.125 615.494 275.891 616.033 277.25H617.518V274.344H619.643V287.859H617.518V283.516H616.041C615.502 284.883 614.557 285.656 613.361 285.656C611.463 285.656 610.228 283.656 610.236 280.375ZM612.268 280.375C612.26 282.539 612.635 283.5 613.361 283.5C614.088 283.5 614.51 282.539 614.518 280.375C614.51 278.227 614.08 277.25 613.361 277.25C612.635 277.25 612.26 278.227 612.268 280.375ZM616.471 279.031C616.525 279.453 616.549 279.898 616.549 280.375C616.549 280.836 616.525 281.273 616.478 281.688H617.518V279.031H616.471ZM630.483 282.875C633.483 282.859 635.358 283.898 635.358 285.672C635.358 287.469 633.483 288.523 630.483 288.531C627.428 288.523 625.522 287.469 625.529 285.672C625.522 283.898 627.428 282.859 630.483 282.875ZM624.17 281.828V275.062H626.389V276.766H628.936V275.062H631.186V281.828H624.17ZM626.389 280.078H628.936V278.484H626.389V280.078ZM627.779 285.672C627.772 286.43 628.701 286.781 630.483 286.781C632.248 286.781 633.131 286.43 633.139 285.672C633.131 284.922 632.248 284.602 630.483 284.594C628.701 284.602 627.772 284.922 627.779 285.672ZM632.967 282.562V274.156H635.217V277.406H637.076V279.266H635.217V282.562H632.967ZM649.823 274.156V284.891H647.682V274.156H649.823ZM637.213 281.391C639.205 280.422 639.877 278.594 639.885 276.891V275.094H642.073V276.891C642.065 278.539 642.674 280.156 644.51 281.016L643.276 282.75C642.182 282.234 641.455 281.398 640.994 280.375C640.494 281.547 639.674 282.516 638.448 283.078L637.213 281.391ZM640.01 288.266V283.641H642.26V286.469H650.166V288.266H640.01ZM643.182 279.156V277.328H644.776V274.359H646.901V284.453H644.776V279.156H643.182ZM663.287 274.156V288.531H661.069V280.906H658.709V279.109H661.069V274.156H663.287ZM651.787 285.359V275.328H658.491V277.141H654.037V279.312H658.006V281.062H654.037V283.523C655.842 283.508 657.389 283.438 659.084 283.188L659.303 284.969C657.209 285.281 655.295 285.344 652.944 285.359H651.787Z" fill="#097EEA"/>
<circle cx="33.5" cy="114.5" r="3" fill="#94C8FB" stroke="#94C8FB"/>
<path d="M35 114.5H264L296 146.5" stroke="#94C8FB" stroke-width="1.5"/>
<path d="M134.486 93.1797V94.9375H119.861V93.1797H126.084V91.8086H121.637V86.3242H132.729V88.0645H123.869V90.0508H132.816V91.8086H128.281V93.1797H134.486ZM121.531 98.6992C121.531 96.8008 123.641 95.7461 127.139 95.7461C130.61 95.7461 132.693 96.8008 132.711 98.6992C132.693 100.571 130.61 101.635 127.139 101.635C123.641 101.635 121.531 100.571 121.531 98.6992ZM123.816 98.6992C123.808 99.5342 124.924 99.9297 127.139 99.9297C129.31 99.9297 130.452 99.5342 130.461 98.6992C130.452 97.873 129.31 97.4512 127.139 97.4512C124.924 97.4512 123.808 97.873 123.816 98.6992ZM150.008 91.9668V93.7422H143.82V94.7617H148.232V98.8574H139.32V99.8242H148.654V101.512H137.123V97.2754H146.018V96.4492H137.105V94.7617H141.57V93.7422H135.418V91.9668H150.008ZM137.229 91.123V86.0781H148.162V91.123H137.229ZM139.426 89.4004H145.93V87.8184H139.426V89.4004ZM153.91 86.5879V88.75H157.057V86.5879H159.271V87.9766H162.225V85.6211H164.457V95.1836H162.225V93.0391H159.271V94.252H151.66V86.5879H153.91ZM153.488 98.5586C153.488 96.5986 155.58 95.4561 158.99 95.4473C162.409 95.4561 164.501 96.5986 164.51 98.5586C164.501 100.501 162.409 101.626 158.99 101.617C155.58 101.626 153.488 100.501 153.488 98.5586ZM153.91 92.5117H157.057V90.4727H153.91V92.5117ZM155.721 98.5586C155.721 99.4551 156.872 99.9121 158.99 99.9121C161.117 99.9121 162.269 99.4551 162.277 98.5586C162.269 97.6182 161.117 97.1611 158.99 97.1699C156.872 97.1611 155.721 97.6182 155.721 98.5586ZM159.271 91.2461H162.225V89.752H159.271V91.2461ZM180.084 85.6387V97.7148H177.834V96.4492H174.775V94.9199H177.834V85.6387H180.084ZM166.479 92.7227C169.405 92.7051 173.36 92.6611 176.744 92.248L176.867 93.8477C175.602 94.0586 174.292 94.208 173 94.3047V97.3457H170.75V99.543H180.436V101.336H168.518V96.5547H170.75V94.4365C169.317 94.4893 167.955 94.498 166.742 94.498L166.479 92.7227ZM167.656 89.0488C167.656 87.3438 169.3 86.1748 171.682 86.1836C174.002 86.1748 175.663 87.3438 175.672 89.0488C175.663 90.7627 174.002 91.8701 171.682 91.8613C169.3 91.8701 167.656 90.7627 167.656 89.0488ZM169.783 89.0488C169.774 89.8223 170.539 90.2529 171.682 90.2441C172.754 90.2529 173.527 89.8223 173.545 89.0488C173.527 88.2578 172.754 87.8184 171.682 87.8184C170.539 87.8184 169.774 88.2578 169.783 89.0488Z" fill="#212121"/>
<path d="M90.1562 127.758V143.438H86.8047V135.914H83.5703V133.195H86.8047V127.758H90.1562ZM71.7578 138.422C75.4258 137.309 76.8086 134.52 76.8203 131.859V131.812H72.6953V129.117H84.3672V131.812H80.2656V131.883C80.2656 134.309 81.6016 136.957 85.0938 138.07L83.4531 140.742C81.0977 139.992 79.5156 138.516 78.5898 136.664C77.6406 138.715 75.9883 140.344 73.4922 141.141L71.7578 138.422ZM75.7422 148.898V142.078H79.1172V146.203H90.6484V148.898H75.7422ZM110.102 128.648V130.383C110.113 131.965 110.113 133.758 109.703 135.984H112.352V138.656H104.172V141.445H110.078V149.25H106.703V144.094H94.6328V141.445H100.773V138.656H92.6875V135.984H106.281C106.645 134.133 106.715 132.668 106.727 131.32H95.0547V128.648H110.102ZM119.242 144.141V141.023L126.273 130.031H131.312V141H133.375V144.141H131.312V147H127.492V144.141H119.242ZM123.227 141H127.562V134.273H127.422L123.227 140.859V141ZM139.492 145.219L137.406 151.992H134.664L135.789 145.219H139.492ZM148.844 147.234C145.129 147.234 142.457 145.078 142.398 142.055H146.289C146.348 143.309 147.461 144.152 148.844 144.141C150.438 144.152 151.574 143.027 151.562 141.375C151.574 139.723 150.426 138.586 148.797 138.586C147.59 138.586 146.77 139.066 146.312 139.969H142.727L143.57 130.031H154.422V133.266H146.852L146.453 137.32H146.57C147.145 136.395 148.48 135.715 150.062 135.727C153.145 135.715 155.43 138.023 155.43 141.258C155.43 144.75 152.793 147.234 148.844 147.234ZM164.594 147.234C160.188 147.234 157.492 144.082 157.492 138.516C157.492 132.949 160.188 129.797 164.594 129.797C169 129.797 171.707 132.973 171.695 138.516C171.707 144.094 169 147.234 164.594 147.234ZM161.594 138.516C161.582 142.277 162.789 143.977 164.594 143.977C166.398 143.977 167.605 142.277 167.594 138.516C167.594 134.812 166.398 133.043 164.594 133.031C162.801 133.043 161.605 134.812 161.594 138.516ZM180.953 147.234C176.547 147.234 173.852 144.082 173.852 138.516C173.852 132.949 176.547 129.797 180.953 129.797C185.359 129.797 188.066 132.973 188.055 138.516C188.066 144.094 185.359 147.234 180.953 147.234ZM177.953 138.516C177.941 142.277 179.148 143.977 180.953 143.977C182.758 143.977 183.965 142.277 183.953 138.516C183.953 134.812 182.758 133.043 180.953 133.031C179.16 133.043 177.965 134.812 177.953 138.516ZM195.672 129.211C197.582 129.199 199.188 130.23 200.184 132.023H204.602V127.734H207.93V149.297H204.602V141.328H200.43C199.469 143.449 197.746 144.656 195.672 144.656C192.379 144.656 190.012 141.68 190.023 136.898C190.012 132.188 192.379 129.199 195.672 129.211ZM193.258 136.898C193.246 140.027 194.23 141.586 195.672 141.586C197.137 141.586 198.086 140.027 198.086 136.898C198.086 133.828 197.137 132.246 195.672 132.258C194.23 132.246 193.246 133.828 193.258 136.898ZM201.121 134.742C201.238 135.41 201.297 136.137 201.297 136.898C201.297 137.52 201.262 138.105 201.18 138.656H204.602V134.742H201.121ZM229.023 127.734V149.25H225.812V138.422H224.148V148.336H221.031V128.297H224.148V135.703H225.812V127.734H229.023ZM210.086 142.57C214.258 140.074 216.086 137.156 216.52 133.031H211.258V130.359H219.812C219.812 136.512 218.055 141.352 212.031 144.891L210.086 142.57Z" fill="#097EEA"/>
<circle cx="3.5" cy="3.5" r="3" transform="matrix(1 1.74846e-07 1.74846e-07 -1 30 423.5)" fill="#94C8FB" stroke="#94C8FB"/>
<path d="M35 420L264 420L296 388" stroke="#94C8FB" stroke-width="1.5"/>
<path d="M106.503 392.621V403.572H104.376V392.621H106.503ZM92.5459 400.004C92.9414 400.004 93.3809 400.004 93.8467 399.995V395.627H92.8447V393.834H100.228V395.627H99.1553V399.784C99.6123 399.749 100.061 399.705 100.474 399.652L100.579 401.287C98.1006 401.762 94.8662 401.797 92.7744 401.797L92.5459 400.004ZM94.6553 406.807C98.0918 406.429 99.8145 404.803 99.8232 403.168V402.764H102.038V403.168C102.038 404.803 103.796 406.429 107.259 406.807L106.433 408.547C103.831 408.213 101.941 407.167 100.939 405.726C99.9463 407.167 98.0566 408.213 95.4287 408.547L94.6553 406.807ZM95.9033 399.96C96.3164 399.951 96.7383 399.934 97.1514 399.916V395.627H95.9033V399.96ZM99.8057 398.633V396.822H101.335V392.938H103.427V402.131H101.335V398.633H99.8057ZM121.638 392.621V408.652H119.37V392.621H121.638ZM109.034 404.908V393.887H111.284V397.789H114.729V393.887H116.944V404.908H109.034ZM111.284 403.098H114.729V399.529H111.284V403.098ZM138.442 404.855V406.684H123.8V404.855H138.442ZM124.397 400.742C127.896 400.206 129.908 398.018 129.917 395.785V395.768H125.013V393.975H137.159V395.768H132.272V395.785C132.264 398.018 134.285 400.127 137.897 400.672L137.019 402.447C134.215 401.955 132.141 400.575 131.104 398.694C130.093 400.619 128.045 402.043 125.276 402.535L124.397 400.742ZM152.804 392.621V408.617H150.536V392.621H152.804ZM139.409 404.082C143.54 402.131 145.359 399.6 145.72 396.049H140.271V394.291H148.005C147.996 399.143 146.3 403.177 140.587 405.875L139.409 404.082ZM159.378 393.307C161.417 393.289 163.043 394.458 163.482 396.172H166.163V392.621H168.396V401.217H166.163V397.965H163.491C163.078 399.723 161.435 400.918 159.378 400.918C156.917 400.918 155.106 399.318 155.124 397.086C155.106 394.897 156.917 393.289 159.378 393.307ZM157.251 397.086C157.242 398.281 158.121 399.037 159.378 399.037C160.591 399.037 161.461 398.281 161.47 397.086C161.461 395.891 160.591 395.161 159.378 395.17C158.121 395.161 157.242 395.891 157.251 397.086ZM157.726 408.441V401.92H159.94V403.467H166.163V401.92H168.396V408.441H157.726ZM159.94 406.631H166.163V405.189H159.94V406.631ZM176.517 393.676L172.403 408.916H170.171L174.267 393.676H176.517ZM186.079 394.01V395.768H177.185V394.01H180.63V392.48H182.862V394.01H186.079ZM177.976 399.143C177.958 397.42 179.514 396.225 181.72 396.225C183.917 396.225 185.499 397.42 185.517 399.143C185.499 400.874 183.917 402.034 181.72 402.043C179.514 402.034 177.958 400.874 177.976 399.143ZM179.839 408.441V402.746H182.089V403.924H188.417V402.746H190.632V408.441H179.839ZM180.067 399.143C180.059 399.942 180.709 400.417 181.72 400.408C182.722 400.417 183.425 399.942 183.425 399.143C183.425 398.343 182.722 397.903 181.72 397.895C180.709 397.903 180.059 398.343 180.067 399.143ZM182.089 406.719H188.417V405.594H182.089V406.719ZM186.22 400.988V399.195H188.399V397.842H186.255V396.031H188.399V392.621H190.632V402.148H188.399V400.988H186.22ZM206.153 392.621V408.617H203.921V392.621H206.153ZM192.776 404.1C193.998 404.091 195.396 404.091 196.854 404.056V402.702C195.105 402.386 193.963 401.296 193.972 399.793C193.963 398.009 195.589 396.787 197.944 396.787C200.317 396.787 201.97 398.009 201.97 399.793C201.97 401.287 200.827 402.377 199.069 402.702V403.977C200.414 403.915 201.759 403.81 203.042 403.643L203.2 405.295C199.693 405.901 195.923 405.937 193.075 405.928L192.776 404.1ZM193.093 396.154V394.396H196.854V392.691H199.087V394.396H202.813V396.154H193.093ZM196.099 399.793C196.09 400.637 196.854 401.094 197.944 401.094C199.069 401.094 199.825 400.637 199.825 399.793C199.825 398.967 199.069 398.501 197.944 398.492C196.854 398.501 196.09 398.967 196.099 399.793Z" fill="#212121"/>
<path d="M103.059 454.234C99.3555 454.223 95.9805 452.02 95.9805 445.82C96.0039 440.195 98.8164 436.797 103.152 436.797C106.715 436.797 109.129 439.059 109.457 441.906H105.52C105.262 440.805 104.348 440.207 103.152 440.219C101.008 440.207 99.9414 442.176 99.9414 445.258H100.059C100.785 443.723 102.496 442.82 104.395 442.82C107.465 442.82 109.656 445.105 109.645 448.258C109.656 451.797 106.973 454.234 103.059 454.234ZM100.316 448.398C100.316 449.934 101.465 451.152 103.035 451.141C104.617 451.152 105.777 449.957 105.754 448.375C105.777 446.816 104.629 445.633 103.059 445.633C101.488 445.633 100.316 446.84 100.316 448.398ZM115.434 452.219L113.348 458.992H110.605L111.73 452.219H115.434ZM124.598 454.234C120.191 454.234 117.496 451.082 117.496 445.516C117.496 439.949 120.191 436.797 124.598 436.797C129.004 436.797 131.711 439.973 131.699 445.516C131.711 451.094 129.004 454.234 124.598 454.234ZM121.598 445.516C121.586 449.277 122.793 450.977 124.598 450.977C126.402 450.977 127.609 449.277 127.598 445.516C127.598 441.812 126.402 440.043 124.598 440.031C122.805 440.043 121.609 441.812 121.598 445.516ZM140.957 454.234C136.551 454.234 133.855 451.082 133.855 445.516C133.855 439.949 136.551 436.797 140.957 436.797C145.363 436.797 148.07 439.973 148.059 445.516C148.07 451.094 145.363 454.234 140.957 454.234ZM137.957 445.516C137.945 449.277 139.152 450.977 140.957 450.977C142.762 450.977 143.969 449.277 143.957 445.516C143.957 441.812 142.762 440.043 140.957 440.031C139.164 440.043 137.969 441.812 137.957 445.516ZM157.316 454.234C152.91 454.234 150.215 451.082 150.215 445.516C150.215 439.949 152.91 436.797 157.316 436.797C161.723 436.797 164.43 439.973 164.418 445.516C164.43 451.094 161.723 454.234 157.316 454.234ZM154.316 445.516C154.305 449.277 155.512 450.977 157.316 450.977C159.121 450.977 160.328 449.277 160.316 445.516C160.316 441.812 159.121 440.043 157.316 440.031C155.523 440.043 154.328 441.812 154.316 445.516ZM172.035 436.211C173.945 436.199 175.551 437.23 176.547 439.023H180.965V434.734H184.293V456.297H180.965V448.328H176.793C175.832 450.449 174.109 451.656 172.035 451.656C168.742 451.656 166.375 448.68 166.387 443.898C166.375 439.188 168.742 436.199 172.035 436.211ZM169.621 443.898C169.609 447.027 170.594 448.586 172.035 448.586C173.5 448.586 174.449 447.027 174.449 443.898C174.449 440.828 173.5 439.246 172.035 439.258C170.594 439.246 169.609 440.828 169.621 443.898ZM177.484 441.742C177.602 442.41 177.66 443.137 177.66 443.898C177.66 444.52 177.625 445.105 177.543 445.656H180.965V441.742H177.484ZM205.387 434.734V456.25H202.176V445.422H200.512V455.336H197.395V435.297H200.512V442.703H202.176V434.734H205.387ZM186.449 449.57C190.621 447.074 192.449 444.156 192.883 440.031H187.621V437.359H196.176C196.176 443.512 194.418 448.352 188.395 451.891L186.449 449.57Z" fill="#097EEA"/>
<circle cx="3.5" cy="3.5" r="3.5" transform="matrix(-1 0 0 1 820 111)" fill="#94C8FB"/>
<path d="M815 114.5H586L554 146.5" stroke="#94C8FB" stroke-width="1.5"/>
<path d="M664.073 86.8691C664.065 88.7588 665.998 90.8418 669.663 91.2988L668.784 93.1094C665.989 92.7051 663.941 91.4131 662.896 89.6816C661.841 91.4043 659.802 92.7051 657.042 93.1094L656.146 91.2988C659.784 90.8418 661.709 88.7588 661.718 86.8691V86.0957H664.073V86.8691ZM655.583 96.1504V94.3223H670.173V96.1504H663.95V101.617H661.735V96.1504H655.583ZM676.325 86.6934C678.865 86.6846 680.746 88.3193 680.755 90.6133C680.746 92.916 678.865 94.542 676.325 94.5508C673.803 94.542 671.869 92.916 671.878 90.6133C671.869 88.3193 673.803 86.6846 676.325 86.6934ZM671.21 96.5547C674.066 96.5635 678.022 96.5283 681.44 96.0449L681.616 97.6621C678.065 98.3564 674.269 98.3828 671.474 98.3828L671.21 96.5547ZM674.11 90.6133C674.102 91.8789 675.06 92.6084 676.325 92.5996C677.6 92.6084 678.566 91.8789 678.575 90.6133C678.566 89.3652 677.6 88.627 676.325 88.627C675.06 88.627 674.102 89.3652 674.11 90.6133ZM682.355 101.652V85.6211H684.587V101.652H682.355ZM695.696 87.2207V88.5039C695.679 90.0068 695.679 91.9756 695.257 94.6387L693.042 94.4629C693.411 92.1426 693.446 90.4287 693.464 89.0137H687.399V87.2207H695.696ZM686.556 96.5547C687.452 96.5547 688.454 96.5459 689.491 96.5195V91.8086H691.706V96.4492C693.279 96.3877 694.87 96.2734 696.347 96.0801L696.487 97.75C693.191 98.3037 689.57 98.3652 686.767 98.3477L686.556 96.5547ZM697.103 101.617V85.6211H699.37V92.0547H701.55V93.918H699.37V101.617H697.103ZM716.087 85.6211V101.617H713.96V93.584H712.413V100.844H710.357V85.8848H712.413V91.791H713.96V85.6211H716.087ZM702.71 97.9961V87.4668H708.669V89.2773H704.96V96.1152C706.507 96.0889 707.878 96.001 709.425 95.7285L709.583 97.5566C707.632 97.9258 705.927 97.9873 703.817 97.9961H702.71ZM727.302 87.0449V88.8203H717.81V87.0449H721.448V85.5332H723.681V87.0449H727.302ZM718.583 92.2832C718.583 90.5254 720.235 89.3389 722.556 89.3301C724.885 89.3389 726.493 90.5254 726.493 92.2832C726.493 94.041 724.885 95.2275 722.556 95.2363C720.235 95.2275 718.583 94.041 718.583 92.2832ZM719.726 98.1191V96.3262H730.501V101.617H728.251V98.1191H719.726ZM720.78 92.2832C720.772 93.1006 721.483 93.5225 722.556 93.5137C723.637 93.5225 724.366 93.1006 724.366 92.2832C724.366 91.457 723.637 91.0176 722.556 91.0176C721.483 91.0176 720.772 91.457 720.78 92.2832ZM728.251 95.6582V85.6211H730.501V89.7695H732.663V91.5977H730.501V95.6582H728.251Z" fill="#212121"/>
<path d="M666.055 127.758V143.438H662.703V135.914H659.469V133.195H662.703V127.758H666.055ZM647.656 138.422C651.324 137.309 652.707 134.52 652.719 131.859V131.812H648.594V129.117H660.266V131.812H656.164V131.883C656.164 134.309 657.5 136.957 660.992 138.07L659.352 140.742C656.996 139.992 655.414 138.516 654.488 136.664C653.539 138.715 651.887 140.344 649.391 141.141L647.656 138.422ZM651.641 148.898V142.078H655.016V146.203H666.547V148.898H651.641ZM686 128.648V130.383C686.012 131.965 686.012 133.758 685.602 135.984H688.25V138.656H680.07V141.445H685.977V149.25H682.602V144.094H670.531V141.445H676.672V138.656H668.586V135.984H682.18C682.543 134.133 682.613 132.668 682.625 131.32H670.953V128.648H686ZM703.133 130.031V147H699.125V133.781H699.031L695.211 136.125V132.656L699.406 130.031H703.133ZM713.797 147.234C709.391 147.234 706.695 144.082 706.695 138.516C706.695 132.949 709.391 129.797 713.797 129.797C718.203 129.797 720.91 132.973 720.898 138.516C720.91 144.094 718.203 147.234 713.797 147.234ZM710.797 138.516C710.785 142.277 711.992 143.977 713.797 143.977C715.602 143.977 716.809 142.277 716.797 138.516C716.797 134.812 715.602 133.043 713.797 133.031C712.004 133.043 710.809 134.812 710.797 138.516ZM741.125 127.734V149.25H737.914V138.422H736.25V148.336H733.133V128.297H736.25V135.703H737.914V127.734H741.125ZM722.188 142.57C726.359 140.074 728.188 137.156 728.621 133.031H723.359V130.359H731.914C731.914 136.512 730.156 141.352 724.133 144.891L722.188 142.57Z" fill="#097EEA"/>
<circle cx="816.5" cy="420" r="3.5" transform="rotate(180 816.5 420)" fill="#94C8FB"/>
<path d="M815 420L586 420L554 388" stroke="#94C8FB" stroke-width="1.5"/>
<path d="M668.134 400.18V401.938H653.509V400.18H659.732V398.809H655.284V393.324H666.376V395.064H657.517V397.051H666.464V398.809H661.929V400.18H668.134ZM655.179 405.699C655.179 403.801 657.288 402.746 660.786 402.746C664.258 402.746 666.341 403.801 666.358 405.699C666.341 407.571 664.258 408.635 660.786 408.635C657.288 408.635 655.179 407.571 655.179 405.699ZM657.464 405.699C657.455 406.534 658.571 406.93 660.786 406.93C662.957 406.93 664.1 406.534 664.108 405.699C664.1 404.873 662.957 404.451 660.786 404.451C658.571 404.451 657.455 404.873 657.464 405.699ZM683.655 398.967V400.742H677.468V401.762H681.88V405.857H672.968V406.824H682.302V408.512H670.771V404.275H679.665V403.449H670.753V401.762H675.218V400.742H669.065V398.967H683.655ZM670.876 398.123V393.078H681.81V398.123H670.876ZM673.073 396.4H679.577V394.818H673.073V396.4ZM703.413 404.926V406.754H688.771V404.926H694.94V401.973H690.317V393.641H692.567V396.119H699.546V393.641H701.778V401.973H697.173V404.926H703.413ZM692.567 400.18H699.546V397.912H692.567V400.18ZM718.267 394.643V396.436H704.96V394.643H710.497V392.779H712.712V394.643H718.267ZM704.327 406.982V405.189H710.497V403.353C707.773 403.106 706.12 401.99 706.138 400.232C706.12 398.29 708.221 397.13 711.605 397.139C714.927 397.13 717.063 398.29 717.054 400.232C717.063 401.99 715.393 403.106 712.712 403.344V405.189H718.97V406.982H704.327ZM708.44 400.232C708.432 401.182 709.53 401.612 711.605 401.604C713.635 401.612 714.751 401.182 714.751 400.232C714.751 399.318 713.635 398.888 711.605 398.879C709.53 398.888 708.432 399.318 708.44 400.232ZM725.79 396.98C725.781 399.415 727.082 402.228 729.71 403.449L728.462 405.207C726.678 404.39 725.412 402.755 724.691 400.839C723.98 402.948 722.661 404.741 720.815 405.611L719.515 403.836C722.178 402.597 723.523 399.626 723.54 396.98V395.996H720.148V394.168H729.007V395.996H725.79V396.98ZM730.255 408.617V392.621H732.505V398.721H734.86V400.602H732.505V408.617H730.255Z" fill="#212121"/>
<path d="M650.422 437.031V454H646.414V440.781H646.32L642.5 443.125V439.656L646.695 437.031H650.422ZM657.453 452.219L655.367 458.992H652.625L653.75 452.219H657.453ZM666.805 454.234C663.09 454.234 660.418 452.078 660.359 449.055H664.25C664.309 450.309 665.422 451.152 666.805 451.141C668.398 451.152 669.535 450.027 669.523 448.375C669.535 446.723 668.387 445.586 666.758 445.586C665.551 445.586 664.731 446.066 664.273 446.969H660.688L661.531 437.031H672.383V440.266H664.813L664.414 444.32H664.531C665.106 443.395 666.441 442.715 668.023 442.727C671.106 442.715 673.391 445.023 673.391 448.258C673.391 451.75 670.754 454.234 666.805 454.234ZM682.555 454.234C678.148 454.234 675.453 451.082 675.453 445.516C675.453 439.949 678.148 436.797 682.555 436.797C686.961 436.797 689.668 439.973 689.656 445.516C689.668 451.094 686.961 454.234 682.555 454.234ZM679.555 445.516C679.543 449.277 680.75 450.977 682.555 450.977C684.359 450.977 685.566 449.277 685.555 445.516C685.555 441.812 684.359 440.043 682.555 440.031C680.762 440.043 679.566 441.812 679.555 445.516ZM698.914 454.234C694.508 454.234 691.813 451.082 691.813 445.516C691.813 439.949 694.508 436.797 698.914 436.797C703.32 436.797 706.027 439.973 706.016 445.516C706.027 451.094 703.32 454.234 698.914 454.234ZM695.914 445.516C695.902 449.277 697.109 450.977 698.914 450.977C700.719 450.977 701.926 449.277 701.914 445.516C701.914 441.812 700.719 440.043 698.914 440.031C697.121 440.043 695.926 441.812 695.914 445.516ZM718.648 436.469V446.922H708.219V436.469H718.648ZM710.68 455.898V448.844H714.055V453.203H725.492V455.898H710.68ZM711.547 444.297H715.32V439.141H711.547V444.297ZM721.414 450.414V434.758H724.789V440.828H727.578V443.594H724.789V450.414H721.414ZM746.609 434.734V447.297H743.258V444.766H739.578V446.242H729.266V436.305H739.578V437.781H743.258V434.734H746.609ZM731.75 452.055C731.75 449.395 734.586 447.824 739.18 447.836C743.832 447.824 746.668 449.395 746.68 452.055C746.668 454.738 743.832 456.273 739.18 456.25C734.586 456.273 731.75 454.738 731.75 452.055ZM732.617 443.57H736.273V438.953H732.617V443.57ZM735.102 452.055C735.102 453.168 736.496 453.707 739.18 453.719C741.922 453.707 743.305 453.168 743.328 452.055C743.305 450.883 741.922 450.391 739.18 450.391C736.496 450.391 735.102 450.883 735.102 452.055ZM739.578 442.047H743.258V440.406H739.578V442.047Z" fill="#097EEA"/>
<defs>
<linearGradient id="paint0_linear_148_5142" x1="319" y1="153" x2="622" y2="420" gradientUnits="userSpaceOnUse">
<stop stop-color="#5FAFFE"/>
<stop offset="1" stop-color="#5FAFFE" stop-opacity="0"/>
</linearGradient>
<linearGradient id="paint1_linear_148_5142" x1="624" y1="196" x2="624" y2="340" gradientUnits="userSpaceOnUse">
<stop stop-color="#1281E7"/>
<stop offset="1" stop-color="#0074E0" stop-opacity="0.2"/>
</linearGradient>
<linearGradient id="paint2_linear_148_5142" x1="226" y1="196" x2="226" y2="340" gradientUnits="userSpaceOnUse">
<stop stop-color="#1281E7"/>
<stop offset="1" stop-color="#0074E0" stop-opacity="0.2"/>
</linearGradient>
<linearGradient id="paint3_linear_148_5142" x1="425" y1="23" x2="425" y2="167" gradientUnits="userSpaceOnUse">
<stop stop-color="#1281E7"/>
<stop offset="1" stop-color="#0074E0" stop-opacity="0.2"/>
</linearGradient>
<linearGradient id="paint4_linear_148_5142" x1="425" y1="369" x2="425" y2="513" gradientUnits="userSpaceOnUse">
<stop stop-color="#1281E7"/>
<stop offset="1" stop-color="#0074E0" stop-opacity="0.2"/>
</linearGradient>
<clipPath id="clip0_148_5142">
<rect width="92.1519" height="92.1519" fill="white" transform="translate(313.355 221.924)"/>
</clipPath>
<clipPath id="clip1_148_5142">
<rect width="72.6582" height="85.0633" fill="white" transform="translate(454.241 225.468)"/>
</clipPath>
</defs>
</svg>
