<svg width="1200" height="409" viewBox="0 0 1200 409" fill="none" xmlns="http://www.w3.org/2000/svg">
<g clip-path="url(#clip0_148_4881)">
<rect width="1200" height="409" rx="8" fill="white"/>
<line x1="181" y1="108" x2="1019" y2="108" stroke="#E0E0E0" stroke-width="2" stroke-dasharray="3 3"/>
<rect x="30" y="47" width="196" height="124" rx="16" fill="#F6F7F9"/>
<rect x="266" y="47" width="196" height="124" rx="16" fill="#F6F7F9"/>
<rect x="502" y="47" width="196" height="124" rx="16" fill="#F6F7F9"/>
<rect x="738" y="47" width="196" height="124" rx="16" fill="#F6F7F9"/>
<rect x="974" y="47" width="196" height="124" rx="16" fill="#F6F7F9"/>
<circle cx="128" cy="46" r="14.5" fill="#212121" stroke="#212121" stroke-width="3"/>
<path d="M129.486 39.2734V52H126.832V41.7871H126.762L123.844 43.6152V41.2773L126.99 39.2734H129.486Z" fill="white"/>
<circle cx="364" cy="46" r="14.5" fill="#212121" stroke="#212121" stroke-width="3"/>
<path d="M359.002 52L358.984 50.084L363.555 45.8828C364.741 44.749 365.383 44.0459 365.383 43.0352C365.383 41.9014 364.53 41.1982 363.361 41.207C362.166 41.1982 361.384 41.9541 361.393 43.1758H358.879C358.87 40.6885 360.716 39.0977 363.396 39.0977C366.121 39.0977 367.932 40.6533 367.932 42.8594C367.932 44.3096 367.229 45.4961 364.609 47.8691L362.676 49.75V49.8203H368.107V52H359.002Z" fill="white"/>
<circle cx="600" cy="46" r="14.5" fill="#212121" stroke="#212121" stroke-width="3"/>
<path d="M599.713 52.1758C596.918 52.1758 594.914 50.6377 594.861 48.4141H597.533C597.577 49.3633 598.5 49.9873 599.73 49.9961C600.996 49.9873 601.901 49.2842 601.893 48.2559C601.901 47.2188 600.979 46.4893 599.484 46.4805H598.307V44.5293H599.484C600.741 44.5293 601.62 43.8438 601.611 42.8418C601.62 41.8662 600.873 41.1982 599.748 41.207C598.623 41.1982 597.7 41.8311 597.656 42.8066H595.125C595.169 40.6182 597.138 39.0977 599.748 39.0977C602.402 39.0977 604.169 40.6709 604.16 42.6836C604.169 44.1074 603.176 45.1182 601.752 45.373V45.4785C603.624 45.707 604.652 46.8408 604.635 48.4316C604.652 50.6113 602.587 52.1758 599.713 52.1758Z" fill="white"/>
<circle cx="836" cy="46" r="14.5" fill="#212121" stroke="#212121" stroke-width="3"/>
<path d="M830.791 49.75V47.6582L836.17 39.2734H839.492V47.623H841.109V49.75H839.492V52H836.979V49.75H830.791ZM833.463 47.623H837.014V42.1738H836.891L833.463 47.5176V47.623Z" fill="white"/>
<circle cx="1072" cy="46" r="14.5" fill="#212121" stroke="#212121" stroke-width="3"/>
<path d="M1071.68 52.1758C1069.02 52.1758 1067.08 50.6113 1067.04 48.4141H1069.6C1069.67 49.4072 1070.57 50.0928 1071.68 50.084C1073 50.0928 1073.94 49.1611 1073.93 47.834C1073.94 46.4805 1072.98 45.54 1071.64 45.5312C1070.68 45.5312 1070.02 45.8916 1069.64 46.6035H1067.25L1067.93 39.2734H1075.77V41.4355H1070.11L1069.76 44.6523H1069.87C1070.33 44.0283 1071.3 43.5713 1072.42 43.5801C1074.75 43.5713 1076.49 45.3203 1076.49 47.7637C1076.49 50.3389 1074.54 52.1758 1071.68 52.1758Z" fill="white"/>
<path d="M115.956 131.906C115.956 134.022 117.052 136.106 119.651 137.105L118.19 139.189C116.514 138.556 115.365 137.396 114.667 135.956C113.958 137.643 112.733 139.05 110.907 139.812L109.425 137.707C112.185 136.493 113.292 134.087 113.292 131.906V129.607H115.956V131.906ZM113.055 144.324C113.045 142.036 115.677 140.661 119.823 140.672C123.948 140.661 126.591 142.036 126.612 144.324C126.591 146.591 123.948 147.987 119.823 147.977C115.677 147.987 113.045 146.591 113.055 144.324ZM115.805 144.324C115.784 145.377 117.256 145.914 119.823 145.914C122.369 145.914 123.841 145.377 123.841 144.324C123.841 143.261 122.369 142.713 119.823 142.713C117.256 142.713 115.784 143.261 115.805 144.324ZM119.716 139.791V128.791H122.272V133.217H123.905V128.447H126.505V140.393H123.905V135.43H122.272V139.791H119.716ZM135.661 131.777C135.651 134.28 137.069 136.708 140.238 137.729L138.798 139.877C136.66 139.157 135.178 137.761 134.329 135.978C133.459 137.933 131.902 139.469 129.646 140.242L128.12 138.072C131.461 137.041 132.89 134.42 132.911 131.756V129.629H135.661V131.777ZM131.257 147.633V141.338H134.05V145.441H144.685V147.633H131.257ZM141.204 142.756V128.426H143.954V134.076H146.597V136.396H143.954V142.756H141.204Z" fill="#212121"/>
<path d="M363.579 139.297V141.51H359.389V147.977H356.596V141.51H352.6V147.977H349.786V141.51H345.682V139.297H363.579ZM347.487 133.496C347.476 130.8 350.377 129.081 354.577 129.07C358.777 129.081 361.71 130.8 361.71 133.496C361.71 136.128 358.777 137.804 354.577 137.793C350.377 137.804 347.476 136.128 347.487 133.496ZM350.302 133.496C350.291 134.871 351.956 135.634 354.577 135.645C357.22 135.634 358.874 134.871 358.874 133.496C358.874 132.057 357.22 131.272 354.577 131.262C351.956 131.272 350.291 132.057 350.302 133.496ZM382.275 138.502V140.65H364.4V138.502H371.962V137.299H366.634V128.898H380.191V131.004H369.384V132.1H379.739V134.076H369.384V135.193H380.363V137.299H374.712V138.502H382.275ZM366.484 144.754C366.484 142.691 368.954 141.531 373.337 141.553C377.645 141.531 380.126 142.691 380.148 144.754C380.126 146.859 377.645 147.987 373.337 147.977C368.954 147.987 366.484 146.859 366.484 144.754ZM369.234 144.754C369.212 145.592 370.523 145.957 373.337 145.957C376.087 145.957 377.387 145.592 377.398 144.754C377.387 143.938 376.087 143.562 373.337 143.572C370.523 143.562 369.212 143.938 369.234 144.754Z" fill="#212121"/>
<path d="M597.216 128.447V133.947H599.858V136.203H597.216V142.842H594.466V128.447H597.216ZM582.284 139.727V129.822H585.013V132.658H589.009V129.822H591.759V139.727H582.284ZM584.54 147.633V141.359H587.268V145.441H597.925V147.633H584.54ZM585.013 137.578H589.009V134.764H585.013V137.578ZM616.921 128.426V148.02H614.193V140.135H610.841V137.879H614.193V134.807H610.905V132.572H614.193V128.426H616.921ZM601.087 132.229V130.059H609.874V137.578H603.859V141.392C606.276 141.37 608.413 141.263 610.884 140.887L611.099 143.121C608.177 143.583 605.685 143.647 602.677 143.637H601.13V135.451H607.189V132.229H601.087Z" fill="#212121"/>
<path d="M824.901 132.852C824.89 136.354 826.384 139.888 829.52 141.402L827.866 143.594C825.771 142.552 824.353 140.618 823.548 138.266C822.688 140.79 821.184 142.863 818.971 143.959L817.274 141.746C820.594 140.221 822.151 136.482 822.151 132.852V129.93H824.901V132.852ZM830.38 147.977V128.426H833.13V135.967H836.009V138.287H833.13V147.977H830.38ZM853.351 130.445V132.658H837.302V130.445H843.984V128.404H846.712V130.445H853.351ZM836.443 143.293V141.059H854.339V143.293H846.712V147.998H843.984V143.293H836.443ZM838.613 136.762C838.602 134.592 841.126 133.41 845.359 133.41C849.559 133.41 852.094 134.592 852.105 136.762C852.094 138.921 849.559 140.103 845.359 140.113C841.126 140.103 838.602 138.921 838.613 136.762ZM841.448 136.762C841.448 137.653 842.738 138.072 845.359 138.072C847.947 138.072 849.247 137.653 849.247 136.762C849.247 135.87 847.947 135.44 845.359 135.43C842.738 135.44 841.448 135.87 841.448 136.762Z" fill="#212121"/>
<path d="M1020.17 129.736C1023.27 129.726 1025.57 131.724 1025.58 134.527C1025.57 137.342 1023.27 139.329 1020.17 139.34C1017.08 139.329 1014.72 137.342 1014.73 134.527C1014.72 131.724 1017.08 129.726 1020.17 129.736ZM1013.91 141.789C1017.41 141.8 1022.24 141.757 1026.42 141.166L1026.63 143.143C1022.29 143.991 1017.65 144.023 1014.24 144.023L1013.91 141.789ZM1017.46 134.527C1017.45 136.074 1018.62 136.966 1020.17 136.955C1021.72 136.966 1022.91 136.074 1022.92 134.527C1022.91 133.002 1021.72 132.1 1020.17 132.1C1018.62 132.1 1017.45 133.002 1017.46 134.527ZM1027.54 148.02V128.426H1030.26V148.02H1027.54ZM1050.46 143.551V145.807H1032.57V143.551H1037.14V140.564H1034.63V133.99H1045.69V131.885H1034.61V129.693H1048.4V136.182H1037.38V138.352H1048.85V140.564H1046.08V143.551H1050.46ZM1039.81 143.551H1043.4V140.564H1039.81V143.551ZM1058.5 132.852C1058.49 136.354 1059.99 139.888 1063.12 141.402L1061.47 143.594C1059.37 142.552 1057.96 140.618 1057.15 138.266C1056.29 140.79 1054.79 142.863 1052.57 143.959L1050.88 141.746C1054.2 140.221 1055.75 136.482 1055.75 132.852V129.93H1058.5V132.852ZM1063.98 147.977V128.426H1066.73V135.967H1069.61V138.287H1066.73V147.977H1063.98ZM1075.5 129.264C1077.99 129.242 1079.98 130.671 1080.52 132.766H1083.79V128.426H1086.52V138.932H1083.79V134.957H1080.53C1080.02 137.105 1078.02 138.566 1075.5 138.566C1072.49 138.566 1070.28 136.611 1070.3 133.883C1070.28 131.208 1072.49 129.242 1075.5 129.264ZM1072.9 133.883C1072.89 135.344 1073.97 136.268 1075.5 136.268C1076.98 136.268 1078.05 135.344 1078.06 133.883C1078.05 132.422 1076.98 131.53 1075.5 131.541C1073.97 131.53 1072.89 132.422 1072.9 133.883ZM1073.48 147.762V139.791H1076.19V141.682H1083.79V139.791H1086.52V147.762H1073.48ZM1076.19 145.549H1083.79V143.787H1076.19V145.549ZM1109.22 128.447V134.033H1111.71V136.289H1109.22V141.725H1106.47V128.447H1109.22ZM1093.36 139.211C1094.79 139.211 1096.41 139.211 1098.11 139.168V138.072C1095.99 137.771 1094.66 136.729 1094.67 135.236C1094.66 133.421 1096.57 132.304 1099.47 132.314C1102.34 132.304 1104.25 133.421 1104.26 135.236C1104.25 136.729 1102.94 137.761 1100.84 138.062V139.071C1102.45 138.985 1104.06 138.867 1105.57 138.674L1105.76 140.564C1101.62 141.295 1097.09 141.338 1093.64 141.338L1093.36 139.211ZM1093.88 131.863V129.865H1098.11V128.275H1100.84V129.865H1105.07V131.863H1093.88ZM1095.86 144.625V142.52H1109.22V147.977H1106.47V144.625H1095.86ZM1097.3 135.236C1097.28 135.945 1098.07 136.364 1099.47 136.354C1100.84 136.364 1101.62 135.945 1101.64 135.236C1101.62 134.474 1100.84 134.141 1099.47 134.141C1098.07 134.141 1097.28 134.474 1097.3 135.236ZM1123.43 129.736V131.928H1119.54C1119.55 134.205 1120.93 136.407 1124.05 137.32L1122.74 139.469C1120.58 138.813 1119.07 137.492 1118.22 135.827C1117.34 137.793 1115.76 139.361 1113.41 140.135L1112.02 137.965C1115.26 136.944 1116.73 134.409 1116.76 131.928H1112.77V129.736H1123.43ZM1114.72 144.174C1114.71 141.789 1117.29 140.403 1121.43 140.414C1125.5 140.403 1128.01 141.789 1128.02 144.174C1128.01 146.569 1125.5 147.987 1121.43 147.977C1117.29 147.987 1114.71 146.569 1114.72 144.174ZM1117.47 144.174C1117.45 145.291 1118.86 145.85 1121.43 145.85C1123.96 145.85 1125.32 145.291 1125.32 144.174C1125.32 143.078 1123.96 142.53 1121.43 142.541C1118.86 142.53 1117.45 143.078 1117.47 144.174ZM1125.08 140.027V128.426H1127.83V132.959H1130.47V135.193H1127.83V140.027H1125.08Z" fill="#212121"/>
<path d="M105.505 201.744C104.562 201.751 103.803 200.992 103.81 200.049C103.803 199.119 104.562 198.36 105.505 198.367C106.435 198.36 107.194 199.119 107.187 200.049C107.194 200.992 106.435 201.751 105.505 201.744ZM127.729 202.414V203.672H116.436V202.414H127.729ZM117.68 200.213V193.691H119.197V195.811H124.926V193.691H126.444V200.213H117.68ZM119.197 199.023H124.926V197H119.197V199.023ZM138.655 192.857V205.23H137.151V192.857H138.655ZM129.03 195.168V193.938H134.854V198.572H130.603V201.061C132.551 201.047 134.226 200.944 136.153 200.623L136.29 201.867C134.191 202.229 132.346 202.312 130.124 202.305H129.044V197.369H133.31V195.168H129.03ZM150.58 192.857V200.322H149.049V192.857H150.58ZM141.01 199.406V193.801H146.888V195.031H142.513V198.176C144.954 198.176 146.383 198.087 147.982 197.766L148.119 199.01C146.389 199.345 144.851 199.406 142.062 199.406H141.01ZM142.172 202.811C142.172 201.293 143.771 200.397 146.396 200.404C148.98 200.397 150.607 201.293 150.607 202.811C150.607 204.321 148.98 205.21 146.396 205.217C143.771 205.21 142.172 204.321 142.172 202.811ZM143.703 202.811C143.703 203.59 144.66 204.021 146.396 204.014C148.119 204.021 149.11 203.59 149.117 202.811C149.11 202.004 148.119 201.601 146.396 201.594C144.66 201.601 143.703 202.004 143.703 202.811ZM111.467 225.744C110.524 225.751 109.765 224.992 109.772 224.049C109.765 223.119 110.524 222.36 111.467 222.367C112.397 222.36 113.156 223.119 113.149 224.049C113.156 224.992 112.397 225.751 111.467 225.744ZM126.814 219.824C126.8 222.032 127.908 224.261 129.822 225.184L128.892 226.4C127.552 225.724 126.588 224.418 126.062 222.846C125.522 224.527 124.51 225.922 123.095 226.633L122.166 225.416C124.155 224.473 125.29 222.107 125.296 219.824V217.855H126.814V219.824ZM130.56 229.217V216.857H132.078V221.697H133.978V222.996H132.078V229.217H130.56ZM145.588 222.695V223.912H142.772V225.197H144.207V229.217H142.69V226.387H135.567V225.197H137.098V223.912H134.323V222.695H145.588ZM135.485 219.523C135.485 218.033 137.235 217.117 139.942 217.117C142.656 217.117 144.392 218.033 144.399 219.523C144.392 221.034 142.656 221.943 139.942 221.943C137.235 221.943 135.485 221.034 135.485 219.523ZM137.071 219.523C137.057 220.33 138.137 220.761 139.942 220.768C141.746 220.761 142.827 220.33 142.827 219.523C142.827 218.751 141.746 218.307 139.942 218.307C138.137 218.307 137.057 218.751 137.071 219.523ZM138.616 225.197H141.268V223.912H138.616V225.197ZM111.467 249.744C110.524 249.751 109.765 248.992 109.772 248.049C109.765 247.119 110.524 246.36 111.467 246.367C112.397 246.36 113.156 247.119 113.149 248.049C113.156 248.992 112.397 249.751 111.467 249.744ZM132.529 241.992V243.25C132.529 244.788 132.529 246.442 132.078 248.869L130.587 248.719C131.011 246.429 131.011 244.747 131.011 243.25V243.209H123.533V241.992H132.529ZM122.398 251.617V250.373H124.927V246.436H126.445V250.373H128.017V246.436H129.507V250.373H133.664V251.617H122.398ZM145.588 246.695V247.912H142.772V249.197H144.207V253.217H142.69V250.387H135.567V249.197H137.098V247.912H134.323V246.695H145.588ZM135.485 243.523C135.485 242.033 137.235 241.117 139.942 241.117C142.656 241.117 144.392 242.033 144.399 243.523C144.392 245.034 142.656 245.943 139.942 245.943C137.235 245.943 135.485 245.034 135.485 243.523ZM137.071 243.523C137.057 244.33 138.137 244.761 139.942 244.768C141.746 244.761 142.827 244.33 142.827 243.523C142.827 242.751 141.746 242.307 139.942 242.307C138.137 242.307 137.057 242.751 137.071 243.523ZM138.616 249.197H141.268V247.912H138.616V249.197Z" fill="#9E9E9E"/>
<path d="M294.752 201.744C293.809 201.751 293.05 200.992 293.057 200.049C293.05 199.119 293.809 198.36 294.752 198.367C295.682 198.36 296.441 199.119 296.434 200.049C296.441 200.992 295.682 201.751 294.752 201.744ZM316.962 199.256V200.473H312.191V202.605H310.687V200.473H305.669V199.256H316.962ZM307.037 204.971V201.566H308.54V203.74H315.718V204.971H307.037ZM307.146 198.285V193.254H308.65V194.648H313.982V193.254H315.486V198.285H307.146ZM308.65 197.082H313.982V195.783H308.65V197.082ZM329.037 194.512V195.756H327.356V197.164H329.037V198.422H327.356V200.117H325.838V192.857H327.356V194.512H329.037ZM317.744 196.521C317.737 194.778 319.173 193.555 321.08 193.568C322.981 193.555 324.403 194.778 324.416 196.521C324.403 198.258 322.981 199.481 321.08 199.488C319.173 199.481 317.737 198.258 317.744 196.521ZM319.153 202.811C319.153 201.3 320.779 200.411 323.336 200.404C325.872 200.411 327.472 201.3 327.479 202.811C327.472 204.308 325.872 205.203 323.336 205.203C320.779 205.203 319.153 204.308 319.153 202.811ZM319.235 196.521C319.228 197.547 320.014 198.196 321.08 198.203C322.133 198.196 322.919 197.547 322.926 196.521C322.919 195.503 322.133 194.833 321.08 194.84C320.014 194.833 319.228 195.503 319.235 196.521ZM320.67 202.811C320.67 203.59 321.641 203.986 323.336 203.986C325.025 203.986 325.975 203.59 325.975 202.811C325.975 202.038 325.025 201.621 323.336 201.621C321.641 201.621 320.67 202.038 320.67 202.811ZM333.418 200.227C333.418 197.656 334.183 195.51 335.469 193.678H337.109C336.166 195.038 335.222 197.779 335.222 200.227C335.222 202.674 336.166 205.422 337.109 206.789H335.469C334.183 204.943 333.418 202.804 333.418 200.227ZM349.02 199.256V200.473H344.249V202.605H342.745V200.473H337.727V199.256H349.02ZM339.094 204.971V201.566H340.598V203.74H347.776V204.971H339.094ZM339.204 198.285V193.254H340.708V194.648H346.04V193.254H347.544V198.285H339.204ZM340.708 197.082H346.04V195.783H340.708V197.082ZM361.095 194.512V195.756H359.413V197.164H361.095V198.422H359.413V200.117H357.896V192.857H359.413V194.512H361.095ZM349.802 196.521C349.795 194.778 351.231 193.555 353.138 193.568C355.038 193.555 356.46 194.778 356.474 196.521C356.46 198.258 355.038 199.481 353.138 199.488C351.231 199.481 349.795 198.258 349.802 196.521ZM351.21 202.811C351.21 201.3 352.837 200.411 355.394 200.404C357.93 200.411 359.53 201.3 359.537 202.811C359.53 204.308 357.93 205.203 355.394 205.203C352.837 205.203 351.21 204.308 351.21 202.811ZM351.292 196.521C351.286 197.547 352.072 198.196 353.138 198.203C354.191 198.196 354.977 197.547 354.984 196.521C354.977 195.503 354.191 194.833 353.138 194.84C352.072 194.833 351.286 195.503 351.292 196.521ZM352.728 202.811C352.728 203.59 353.699 203.986 355.394 203.986C357.082 203.986 358.033 203.59 358.033 202.811C358.033 202.038 357.082 201.621 355.394 201.621C353.699 201.621 352.728 202.038 352.728 202.811ZM364.447 200.459V201.539H369.93V200.459H371.461V205.066H362.944V200.459H364.447ZM361.59 199.871V198.654H364.571V197.287H366.074V198.654H368.371V197.287H369.862V198.654H372.856V199.871H361.59ZM362.164 196.316C364.762 196.043 366.43 194.806 366.43 193.459V192.994H367.975V193.459C367.975 194.833 369.615 196.043 372.24 196.316L371.707 197.492C369.643 197.226 367.995 196.405 367.196 195.195C366.396 196.398 364.762 197.226 362.711 197.492L362.164 196.316ZM364.447 203.836H369.93V202.701H364.447V203.836ZM375.921 203.029L374.772 206.857H373.474L374.185 203.029H375.921ZM390.405 192.871V200.09H388.887V198.723H385.948V197.492H388.887V196.166H386.064C385.285 198.128 383.48 199.502 380.794 200.254L380.178 199.051C383.07 198.271 384.615 196.802 384.847 194.963H380.835V193.732H386.508C386.508 194.163 386.474 194.573 386.406 194.963H388.887V192.871H390.405ZM382.12 202.688C382.12 201.17 383.781 200.233 386.317 200.227C388.819 200.233 390.487 201.17 390.487 202.688C390.487 204.205 388.819 205.155 386.317 205.148C383.781 205.155 382.12 204.205 382.12 202.688ZM383.637 202.688C383.637 203.501 384.656 203.945 386.317 203.945C387.951 203.945 388.963 203.501 388.969 202.688C388.963 201.86 387.951 201.416 386.317 201.416C384.656 201.416 383.637 201.86 383.637 202.688ZM402.644 192.857V205.217H401.181V198.887H399.869V204.615H398.433V193.076H399.869V197.629H401.181V192.857H402.644ZM392.363 202.031V194.197H397.216V202.031H392.363ZM393.785 200.828H395.794V195.4H393.785V200.828ZM408.334 195.086C408.334 196.597 409.312 198.019 411.246 198.613L410.522 199.803C409.134 199.365 408.15 198.483 407.61 197.369C407.063 198.668 406.024 199.7 404.533 200.199L403.768 198.996C405.757 198.347 406.803 196.74 406.803 195.1V194.949H404.192V193.719H410.904V194.949H408.334V195.086ZM405.449 202.838C405.449 201.361 407.049 200.5 409.633 200.5C412.196 200.5 413.769 201.361 413.776 202.838C413.769 204.328 412.196 205.203 409.633 205.203C407.049 205.203 405.449 204.328 405.449 202.838ZM406.967 202.838C406.967 203.604 407.938 204.007 409.633 204.014C411.321 204.007 412.272 203.604 412.272 202.838C412.272 202.086 411.321 201.689 409.633 201.689C407.938 201.689 406.967 202.086 406.967 202.838ZM412.135 200.227V192.857H413.653V195.824H415.375V197.068H413.653V200.227H412.135ZM430.256 198.586V199.83H418.976V198.586H430.256ZM420.289 202.934C420.289 201.498 421.909 200.685 424.596 200.691C427.262 200.685 428.868 201.498 428.875 202.934C428.868 204.39 427.262 205.203 424.596 205.203C421.909 205.203 420.289 204.39 420.289 202.934ZM420.357 197.615V193.254H428.888V194.484H421.875V196.398H428.957V197.615H420.357ZM421.834 202.934C421.827 203.665 422.798 204.027 424.596 204.027C426.366 204.027 427.344 203.665 427.357 202.934C427.344 202.236 426.366 201.854 424.596 201.854C422.798 201.854 421.827 202.236 421.834 202.934ZM434.579 200.227C434.579 202.804 433.813 204.943 432.528 206.789H430.887C431.831 205.422 432.774 202.674 432.774 200.227C432.774 197.779 431.831 195.038 430.887 193.678H432.528C433.813 195.51 434.579 197.656 434.579 200.227ZM329.408 225.744C328.464 225.751 327.706 224.992 327.713 224.049C327.706 223.119 328.464 222.36 329.408 222.367C330.338 222.36 331.096 223.119 331.089 224.049C331.096 224.992 330.338 225.751 329.408 225.744ZM346.778 217.883C346.771 219.435 348.514 221.014 351.153 221.355L350.551 222.586C348.453 222.271 346.785 221.239 345.978 219.845C345.171 221.239 343.51 222.271 341.432 222.586L340.831 221.355C343.442 221.014 345.178 219.448 345.178 217.883V217.254H346.778V217.883ZM340.338 224.91V223.652H351.604V224.91H346.696V229.217H345.192V224.91H340.338ZM362.558 216.857V223.488H361.027V216.857H362.558ZM352.482 220.303C352.482 218.587 353.904 217.397 355.818 217.404C357.725 217.397 359.147 218.587 359.14 220.303C359.147 221.991 357.725 223.181 355.818 223.174C353.904 223.181 352.482 221.991 352.482 220.303ZM353.972 220.303C353.965 221.294 354.738 221.923 355.818 221.93C356.877 221.923 357.65 221.294 357.65 220.303C357.65 219.312 356.877 218.669 355.818 218.676C354.738 218.669 353.965 219.312 353.972 220.303ZM354.382 229.066V224.062H355.886V225.334H361.04V224.062H362.558V229.066H354.382ZM355.886 227.836H361.04V226.523H355.886V227.836ZM368.073 224.227C368.073 221.656 368.839 219.51 370.124 217.678H371.765C370.821 219.038 369.878 221.779 369.878 224.227C369.878 226.674 370.821 229.422 371.765 230.789H370.124C368.839 228.943 368.073 226.804 368.073 224.227ZM378.426 218.826V220.043H372.369V218.826H374.666V217.213H376.17V218.826H378.426ZM372.724 223.57C372.711 221.889 373.852 220.692 375.418 220.699C376.99 220.692 378.111 221.889 378.111 223.57C378.111 225.286 376.99 226.482 375.418 226.482C373.852 226.482 372.711 225.286 372.724 223.57ZM374.064 223.57C374.057 224.568 374.618 225.19 375.418 225.184C376.211 225.19 376.771 224.568 376.771 223.57C376.771 222.6 376.211 221.957 375.418 221.957C374.618 221.957 374.057 222.6 374.064 223.57ZM378.945 228.656V217.117H380.367V221.943H381.57V216.857H383.019V229.217H381.57V223.174H380.367V228.656H378.945ZM388.327 217.623C390.289 217.623 391.717 218.847 391.731 220.604C391.717 222.121 390.651 223.242 389.092 223.516V225.32C390.193 225.266 391.307 225.17 392.36 225.02L392.483 226.113C389.714 226.64 386.748 226.66 384.567 226.66L384.376 225.416C385.319 225.416 386.42 225.416 387.575 225.382V223.522C386.023 223.249 384.929 222.128 384.936 220.604C384.929 218.847 386.385 217.623 388.327 217.623ZM386.44 220.604C386.433 221.622 387.247 222.285 388.327 222.285C389.427 222.285 390.234 221.622 390.241 220.604C390.234 219.564 389.421 218.929 388.327 218.936C387.247 218.929 386.433 219.564 386.44 220.604ZM393.098 229.23V216.857H394.616V229.23H393.098ZM399.923 224.227C399.923 226.804 399.158 228.943 397.872 230.789H396.232C397.175 229.422 398.119 226.674 398.119 224.227C398.119 221.779 397.175 219.038 396.232 217.678H397.872C399.158 219.51 399.923 221.656 399.923 224.227ZM347.967 249.744C347.024 249.751 346.265 248.992 346.272 248.049C346.265 247.119 347.024 246.36 347.967 246.367C348.897 246.36 349.656 247.119 349.649 248.049C349.656 248.992 348.897 249.751 347.967 249.744ZM370.177 246.969V248.186H365.406V250.455H363.861V248.186H358.884V246.969H370.177ZM360.088 243.66C360.081 242.108 361.858 241.131 364.517 241.131C367.19 241.131 368.947 242.108 368.947 243.66C368.947 245.219 367.19 246.183 364.517 246.176C361.858 246.183 360.081 245.219 360.088 243.66ZM360.265 252.971V249.307H361.796V251.727H368.933V252.971H360.265ZM361.728 243.66C361.714 244.48 362.822 244.959 364.517 244.959C366.226 244.959 367.327 244.48 367.32 243.66C367.327 242.812 366.226 242.334 364.517 242.334C362.822 242.334 361.714 242.812 361.728 243.66ZM377.194 245.219V246.832H382.088V248.049H370.823V246.832H375.69V245.219H377.194ZM371.438 244.727C373.988 244.405 375.663 243.004 375.663 241.527V241.062H377.207V241.527C377.207 243.038 378.869 244.405 381.446 244.727L380.858 245.916C378.834 245.608 377.214 244.692 376.428 243.394C375.635 244.686 374.022 245.608 371.985 245.916L371.438 244.727ZM372.135 251.029C372.135 249.642 373.742 248.849 376.442 248.855C379.121 248.849 380.714 249.642 380.721 251.029C380.714 252.431 379.121 253.203 376.442 253.203C373.742 253.203 372.135 252.431 372.135 251.029ZM373.68 251.029C373.673 251.706 374.623 252.055 376.442 252.055C378.226 252.055 379.19 251.706 379.204 251.029C379.19 250.353 378.226 250.018 376.442 250.018C374.623 250.018 373.673 250.353 373.68 251.029Z" fill="#9E9E9E"/>
<path d="M547.129 201.744C546.186 201.751 545.427 200.992 545.434 200.049C545.427 199.119 546.186 198.36 547.129 198.367C548.059 198.36 548.818 199.119 548.811 200.049C548.818 200.992 548.059 201.751 547.129 201.744ZM568.328 193.473V194.703H566.605V197.697H568.232V198.9H559.154V197.697H560.794V194.703H559.099V193.473H568.328ZM558.046 201.32V200.076H569.339V201.32H564.431V205.203H562.927V201.32H558.046ZM562.312 197.697H565.101V194.703H562.312V197.697ZM580.02 198.654V199.871H571.352V193.938H579.924V195.168H572.856V198.654H580.02ZM569.985 203.645V202.387H581.278V203.645H569.985ZM585.795 200.227C585.795 197.656 586.56 195.51 587.846 193.678H589.486C588.543 195.038 587.599 197.779 587.599 200.227C587.599 202.674 588.543 205.422 589.486 206.789H587.846C586.56 204.943 585.795 202.804 585.795 200.227ZM594.534 195.824C594.52 198.032 595.628 200.261 597.542 201.184L596.612 202.4C595.272 201.724 594.308 200.418 593.782 198.846C593.242 200.527 592.23 201.922 590.815 202.633L589.885 201.416C591.875 200.473 593.009 198.107 593.016 195.824V193.855H594.534V195.824ZM598.28 205.217V192.857H599.797V197.697H601.698V198.996H599.797V205.217H598.28ZM613.335 202.523V203.781H602.042V202.523H605.037V200.486H603.382V196.453H610.492V194.936H603.355V193.705H611.996V197.67H604.9V199.256H612.283V200.486H610.478V202.523H613.335ZM606.513 202.523H608.988V200.486H606.513V202.523ZM616.373 203.029L615.225 206.857H613.926L614.637 203.029H616.373ZM627.423 192.857V196.412H629.146V197.684H627.423V201.771H625.878V192.857H627.423ZM617.634 199.283C620.464 198.463 622.139 196.925 622.398 195.045H618.153V193.801H624.06C624.066 197.082 621.92 199.427 618.263 200.486L617.634 199.283ZM619.479 204.971V200.855H621.024V203.74H627.888V204.971H619.479ZM634.207 194.621C634.2 196.248 635.225 197.779 637.187 198.395L636.435 199.598C635.013 199.126 633.995 198.183 633.434 196.973C632.881 198.271 631.842 199.304 630.379 199.803L629.613 198.613C631.609 197.937 632.641 196.296 632.635 194.621V193.445H634.207V194.621ZM631.459 202.031V200.814H639.894V205.217H638.363V202.031H631.459ZM638.363 200.254V192.857H639.894V200.254H638.363ZM645.202 200.227C645.202 202.804 644.436 204.943 643.151 206.789H641.51C642.454 205.422 643.397 202.674 643.397 200.227C643.397 197.779 642.454 195.038 641.51 193.678H643.151C644.436 195.51 645.202 197.656 645.202 200.227ZM537.059 225.744C536.115 225.751 535.356 224.992 535.363 224.049C535.356 223.119 536.115 222.36 537.059 222.367C537.988 222.36 538.747 223.119 538.74 224.049C538.747 224.992 537.988 225.751 537.059 225.744ZM559.282 226.455V227.727H547.989V226.455H559.282ZM548.919 219.223V218.006H558.298V219.223H556.493V223.16H558.257V224.363H548.96V223.16H550.696V219.223H548.919ZM552.214 223.16H554.989V219.223H552.214V223.16ZM571.207 226.523V227.781H559.914V226.523H564.781V224.514H561.254V220.467H568.363V218.936H561.226V217.705H569.867V221.67H562.771V223.27H570.154V224.514H566.285V226.523H571.207ZM578.141 217.691V218.936H574.026V222.6C576.131 222.586 577.355 222.511 578.729 222.23L578.879 223.447C577.341 223.789 575.995 223.837 573.465 223.83H572.508V217.691H578.141ZM573.766 226.072V224.855H582.188V229.217H580.671V226.072H573.766ZM577.499 221.219V219.988H580.671V216.857H582.188V224.295H580.671V221.219H577.499ZM593.812 223.338V224.541H585.144V217.828H593.703V219.059H586.689V220.549H593.415V221.738H586.689V223.338H593.812ZM583.763 227.713V226.469H595.056V227.713H583.763ZM599.573 224.227C599.573 221.656 600.339 219.51 601.624 217.678H603.265C602.321 219.038 601.378 221.779 601.378 224.227C601.378 226.674 602.321 229.422 603.265 230.789H601.624C600.339 228.943 599.573 226.804 599.573 224.227ZM610.801 217.773V218.512C610.787 219.353 610.787 220.583 610.5 222.148L608.996 222.012C609.242 220.74 609.29 219.79 609.304 219.031H604.498V217.773H610.801ZM603.76 223.133C604.491 223.126 605.311 223.119 606.179 223.105V220.59H607.683V223.058C608.962 223.003 610.274 222.907 611.471 222.736L611.553 223.83C608.982 224.295 606.063 224.343 603.896 224.35L603.76 223.133ZM605.605 228.971V225.293H607.137V227.74H614.15V228.971H605.605ZM612.195 226.113V216.857H613.754V220.713H615.353V221.984H613.754V226.113H612.195ZM621.727 217.719V221.561H617.831V223.188C619.704 223.167 620.893 223.099 622.274 222.859L622.438 224.104C620.845 224.37 619.499 224.411 617.229 224.404H616.299V220.412H620.196V218.936H616.286V217.719H621.727ZM617.967 228.943V225.293H619.485V227.699H626.499V228.943H617.967ZM622.493 222.818V221.588H624.653V220.029H622.493V218.812H624.653V216.871H626.171V225.977H624.653V222.818H622.493ZM639.011 222.805V224.021H627.746V222.805H630.371V221.239C629.434 220.843 628.908 220.221 628.908 219.414C628.908 217.931 630.637 217.062 633.365 217.062C636.085 217.062 637.815 217.931 637.822 219.414C637.815 220.228 637.282 220.85 636.345 221.239V222.805H639.011ZM629.058 226.975C629.058 225.553 630.664 224.76 633.365 224.773C636.024 224.76 637.637 225.553 637.644 226.975C637.637 228.41 636.024 229.189 633.365 229.189C630.664 229.189 629.058 228.41 629.058 226.975ZM630.494 219.414C630.48 220.166 631.539 220.569 633.365 220.562C635.183 220.569 636.249 220.166 636.249 219.414C636.249 218.655 635.183 218.231 633.365 218.238C631.539 218.231 630.48 218.655 630.494 219.414ZM630.603 226.975C630.596 227.672 631.567 228.048 633.365 228.041C635.135 228.048 636.113 227.672 636.126 226.975C636.113 226.284 635.135 225.929 633.365 225.922C631.567 225.929 630.596 226.284 630.603 226.975ZM631.902 222.805H634.828V221.629C634.383 221.69 633.891 221.725 633.365 221.725C632.838 221.725 632.346 221.69 631.902 221.629V222.805ZM650.936 222.709V223.926H646.041V225.115H649.569V229.066H640.996V225.115H644.537V223.926H639.67V222.709H650.936ZM640.682 218.443V217.227H649.897V218.443H648.201V220.562H649.828V221.793H640.75V220.562H642.377V218.443H640.682ZM642.5 227.836H648.092V226.291H642.5V227.836ZM643.895 220.562H646.67V218.443H643.895V220.562ZM655.272 224.227C655.272 226.804 654.507 228.943 653.222 230.789H651.581C652.524 229.422 653.468 226.674 653.468 224.227C653.468 221.779 652.524 219.038 651.581 217.678H653.222C654.507 219.51 655.272 221.656 655.272 224.227ZM518.593 249.744C517.65 249.751 516.891 248.992 516.898 248.049C516.891 247.119 517.65 246.36 518.593 246.367C519.523 246.36 520.282 247.119 520.275 248.049C520.282 248.992 519.523 249.751 518.593 249.744ZM540.092 240.871V247.734H538.643V240.871H540.092ZM529.456 243.072V241.924H531.698V240.844H533.215V241.924H535.458V243.072H529.456ZM529.879 245.492C529.879 244.255 530.953 243.435 532.463 243.441C533.967 243.435 535.047 244.255 535.047 245.492C535.047 246.716 533.967 247.516 532.463 247.502C530.953 247.516 529.879 246.716 529.879 245.492ZM531.206 245.492C531.206 246.094 531.718 246.463 532.463 246.463C533.209 246.463 533.721 246.094 533.721 245.492C533.721 244.884 533.209 244.501 532.463 244.508C531.718 244.501 531.206 244.884 531.206 245.492ZM531.725 249.293V248.186H540.092V251.139H533.256V251.973H540.489V253.107H531.739V250.086H538.588V249.293H531.725ZM535.184 245.164V243.961H536.333V241.076H537.754V247.639H536.333V245.164H535.184ZM547.833 242.553C547.833 244.46 549.7 246.381 552.29 246.832L551.607 248.104C549.536 247.673 547.84 246.415 547.034 244.754C546.22 246.401 544.525 247.666 542.46 248.104L541.79 246.832C544.34 246.367 546.213 244.453 546.22 242.553V241.637H547.833V242.553ZM541.449 251.645V250.387H552.742V251.645H541.449ZM558.856 242.279C558.849 243.441 558.739 244.556 558.452 245.602H559.977V241.158H561.412V252.629H559.977V246.832H558.001C557.324 248.322 556.155 249.635 554.235 250.715L553.373 249.676C555.048 248.719 556.08 247.604 556.682 246.326L553.592 246.641L553.414 245.328L557.113 245.123C557.242 244.61 557.324 244.07 557.365 243.51H554.016V242.279H558.856ZM562.588 253.217V240.857H564.037V253.217H562.588ZM568.675 241.76C570.343 241.76 571.58 243.154 571.799 245.41H574.157V240.857H575.661V253.23H574.157V246.641H571.812C571.648 249.026 570.391 250.496 568.675 250.496C566.815 250.496 565.496 248.808 565.503 246.121C565.496 243.455 566.815 241.76 568.675 241.76ZM566.966 246.121C566.959 248.021 567.656 249.122 568.675 249.129C569.7 249.122 570.391 248.021 570.397 246.121C570.391 244.234 569.7 243.127 568.675 243.127C567.656 243.127 566.959 244.234 566.966 246.121ZM581.108 248.227C581.108 245.656 581.874 243.51 583.159 241.678H584.799C583.856 243.038 582.913 245.779 582.913 248.227C582.913 250.674 583.856 253.422 584.799 254.789H583.159C581.874 252.943 581.108 250.804 581.108 248.227ZM591.871 241.883C591.864 243.435 593.607 245.014 596.246 245.355L595.644 246.586C593.545 246.271 591.877 245.239 591.071 243.845C590.264 245.239 588.603 246.271 586.525 246.586L585.923 245.355C588.535 245.014 590.271 243.448 590.271 241.883V241.254H591.871V241.883ZM585.431 248.91V247.652H596.697V248.91H591.788V253.217H590.285V248.91H585.431ZM601.362 241.719C603.323 241.712 604.752 242.949 604.766 244.699C604.752 246.456 603.323 247.687 601.362 247.693C599.42 247.687 597.964 246.456 597.971 244.699C597.964 242.949 599.42 241.712 601.362 241.719ZM597.41 249.402C599.639 249.402 602.722 249.375 605.395 248.992L605.518 250.1C602.749 250.626 599.782 250.646 597.602 250.646L597.41 249.402ZM599.475 244.699C599.468 245.731 600.281 246.367 601.362 246.367C602.455 246.367 603.269 245.731 603.276 244.699C603.269 243.674 602.462 243.031 601.362 243.031C600.281 243.031 599.468 243.674 599.475 244.699ZM606.133 253.23V240.857H607.651V253.23H606.133ZM611.687 251.029L610.538 254.857H609.239L609.95 251.029H611.687ZM627.251 242.58V243.811H625.569V245.232H627.251V246.504H625.569V248.158H624.051V240.857H625.569V242.58H627.251ZM615.958 244.535C615.951 242.799 617.386 241.555 619.294 241.568C621.194 241.555 622.616 242.799 622.629 244.535C622.616 246.299 621.194 247.522 619.294 247.529C617.386 247.522 615.951 246.299 615.958 244.535ZM617.338 249.922V248.691H625.569V253.217H624.051V249.922H617.338ZM617.448 244.535C617.441 245.588 618.227 246.237 619.294 246.23C620.346 246.237 621.132 245.588 621.139 244.535C621.132 243.503 620.346 242.86 619.294 242.854C618.227 242.86 617.441 243.503 617.448 244.535ZM639.011 246.709V247.926H634.117V249.115H637.644V253.066H629.072V249.115H632.613V247.926H627.746V246.709H639.011ZM628.757 242.443V241.227H637.972V242.443H636.277V244.562H637.904V245.793H628.826V244.562H630.453V242.443H628.757ZM630.576 251.836H636.167V250.291H630.576V251.836ZM631.97 244.562H634.746V242.443H631.97V244.562ZM642.076 251.029L640.928 254.857H639.629L640.34 251.029H642.076ZM653.539 242.17V243.373H650.9C650.907 244.747 651.987 246.087 653.963 246.613L653.252 247.803C651.803 247.406 650.757 246.559 650.176 245.465C649.615 246.661 648.562 247.598 647.086 248.035L646.375 246.873C648.323 246.278 649.376 244.85 649.383 243.373H646.744V242.17H649.383V240.816H650.914V242.17H653.539ZM648.303 253.066V248.691H656.506V253.066H648.303ZM649.806 251.836H655.015V249.908H649.806V251.836ZM654.974 248.131V240.871H656.506V248.131H654.974ZM664.547 241.254C664.547 242.573 666.236 243.776 668.813 244.057L668.307 245.205C666.209 244.966 664.547 244.132 663.754 242.929C662.962 244.132 661.3 244.966 659.229 245.205L658.71 244.057C661.3 243.776 662.982 242.573 662.989 241.254V240.926H664.547V241.254ZM658.135 247.023V245.82H669.401V247.023H664.506V247.98H667.993V251.043H660.965V251.945H668.335V253.107H659.475V249.949H666.503V249.143H659.462V247.98H662.989V247.023H658.135ZM673.738 248.227C673.738 250.804 672.972 252.943 671.687 254.789H670.046C670.99 253.422 671.933 250.674 671.933 248.227C671.933 245.779 670.99 243.038 670.046 241.678H671.687C672.972 243.51 673.738 245.656 673.738 248.227ZM548.983 273.744C548.04 273.751 547.281 272.992 547.288 272.049C547.281 271.119 548.04 270.36 548.983 270.367C549.913 270.36 550.672 271.119 550.665 272.049C550.672 272.992 549.913 273.751 548.983 273.744ZM566.969 266.061V267.305H565.779V272.862C566.34 272.821 566.893 272.773 567.42 272.705L567.488 273.799C564.938 274.243 562.067 274.291 559.928 274.291L559.75 273.047C560.215 273.047 560.714 273.04 561.24 273.04V267.305H560.064V266.061H566.969ZM562.717 273.013C563.243 272.999 563.776 272.979 564.316 272.951V267.305H562.717V273.013ZM568.076 277.217V264.857H569.594V269.643H571.494V270.887H569.594V277.217H568.076ZM582.12 264.857V277.23H580.588V264.857H582.12ZM572.235 270.121C572.228 267.455 573.588 265.76 575.462 265.76C577.314 265.76 578.681 267.455 578.688 270.121C578.681 272.808 577.314 274.496 575.462 274.496C573.588 274.496 572.228 272.808 572.235 270.121ZM573.698 270.121C573.698 272.021 574.416 273.122 575.462 273.129C576.501 273.122 577.212 272.021 577.212 270.121C577.212 268.234 576.501 267.127 575.462 267.127C574.416 267.127 573.698 268.234 573.698 270.121ZM594.331 264.871V274.004H592.882V269.602H591.556V273.635H590.134V265.104H591.556V268.357H592.882V264.871H594.331ZM584.296 271.652V265.896H585.828V270.415C587.003 270.395 588.097 270.312 589.355 270.066L589.505 271.297C587.954 271.618 586.614 271.666 585.117 271.652H584.296ZM586.005 276.889V272.787H587.523V275.672H594.673V276.889H586.005ZM602.072 266.553C602.072 268.46 603.939 270.381 606.529 270.832L605.846 272.104C603.775 271.673 602.079 270.415 601.273 268.754C600.459 270.401 598.764 271.666 596.699 272.104L596.029 270.832C598.579 270.367 600.452 268.453 600.459 266.553V265.637H602.072V266.553ZM595.688 275.645V274.387H606.981V275.645H595.688ZM611.498 272.227C611.498 269.656 612.263 267.51 613.549 265.678H615.189C614.246 267.038 613.303 269.779 613.303 272.227C613.303 274.674 614.246 277.422 615.189 278.789H613.549C612.263 276.943 611.498 274.804 611.498 272.227ZM627.114 274.482V275.727H615.821V274.482H620.688V272.076H617.065V265.678H618.583V267.701H624.311V265.678H625.829V272.076H622.192V274.482H627.114ZM618.583 270.846H624.311V268.918H618.583V270.846ZM638.095 264.857V272.336H636.578V269.779H634.814V268.521H636.578V264.857H638.095ZM627.773 267.236V266.006H630.644V264.762H632.148V266.006H635.019V267.236H627.773ZM628.47 269.93C628.463 268.631 629.687 267.715 631.396 267.715C633.119 267.715 634.329 268.631 634.335 269.93C634.329 271.263 633.119 272.145 631.396 272.145C629.687 272.145 628.463 271.263 628.47 269.93ZM629.878 277.066V272.896H638.095V277.066H629.878ZM629.919 269.93C629.919 270.613 630.507 271.01 631.396 271.01C632.278 271.01 632.872 270.613 632.872 269.93C632.872 269.267 632.278 268.863 631.396 268.863C630.507 268.863 629.919 269.267 629.919 269.93ZM631.396 275.836H636.605V274.1H631.396V275.836ZM643.348 272.227C643.348 274.804 642.582 276.943 641.297 278.789H639.656C640.6 277.422 641.543 274.674 641.543 272.227C641.543 269.779 640.6 267.038 639.656 265.678H641.297C642.582 267.51 643.348 269.656 643.348 272.227ZM530.518 297.744C529.575 297.751 528.816 296.992 528.823 296.049C528.816 295.119 529.575 294.36 530.518 294.367C531.448 294.36 532.206 295.119 532.2 296.049C532.206 296.992 531.448 297.751 530.518 297.744ZM551.744 288.857V301.23H550.24V288.857H551.744ZM542.119 291.168V289.938H547.943V294.572H543.691V297.061C545.639 297.047 547.314 296.944 549.242 296.623L549.378 297.867C547.28 298.229 545.434 298.312 543.212 298.305H542.132V293.369H546.398V291.168H542.119ZM555.506 289.623V291.332H558.446V289.623H559.963V295.434H554.002V289.623H555.506ZM555.26 298.865C555.26 297.361 556.866 296.5 559.485 296.5C562.089 296.5 563.696 297.361 563.696 298.865C563.696 300.342 562.089 301.203 559.485 301.203C556.866 301.203 555.26 300.342 555.26 298.865ZM555.506 294.217H558.446V292.521H555.506V294.217ZM556.791 298.865C556.791 299.604 557.741 300.027 559.485 300.027C561.221 300.027 562.198 299.604 562.205 298.865C562.198 298.072 561.221 297.669 559.485 297.662C557.741 297.669 556.791 298.072 556.791 298.865ZM562.137 296.295V288.871H563.668V296.295H562.137ZM569.183 296.227C569.183 293.656 569.949 291.51 571.234 289.678H572.875C571.931 291.038 570.988 293.779 570.988 296.227C570.988 298.674 571.931 301.422 572.875 302.789H571.234C569.949 300.943 569.183 298.804 569.183 296.227ZM584.772 295.748V296.979H579.864V301.203H578.36V296.979H573.506V295.748H584.772ZM574.094 293.725C576.521 293.417 578.148 292.111 578.257 290.758H574.546V289.555H583.733V290.758H580.021C580.124 292.111 581.737 293.417 584.184 293.725L583.637 294.914C581.532 294.613 579.891 293.649 579.139 292.316C578.38 293.649 576.754 294.613 574.669 294.914L574.094 293.725ZM595.781 288.857V301.217H594.263V294.928H591.652V293.684H594.263V288.857H595.781ZM585.349 297.799C588.548 296.227 589.922 294.142 590.175 291.373H585.923V290.17H591.706C591.693 293.82 590.401 296.89 586.142 298.988L585.349 297.799ZM599.762 299.029L598.613 302.857H597.315L598.026 299.029H599.762ZM607.273 289.76C608.387 289.76 609.31 290.382 609.864 291.469H612.756V288.857H614.26V301.23H612.756V296.555H609.973C609.433 297.785 608.463 298.496 607.273 298.496C605.414 298.496 604.095 296.808 604.101 294.121C604.095 291.455 605.414 289.76 607.273 289.76ZM605.564 294.121C605.557 296.021 606.255 297.122 607.273 297.129C608.299 297.122 608.989 296.021 608.996 294.121C608.989 292.234 608.299 291.127 607.273 291.127C606.255 291.127 605.557 292.234 605.564 294.121ZM610.295 292.713C610.384 293.144 610.431 293.615 610.431 294.121C610.431 294.545 610.397 294.948 610.329 295.324H612.756V292.713H610.295ZM626.389 288.857V296.623H624.94V293.26H623.737V296.213H622.315V289.104H623.737V292.029H624.94V288.857H626.389ZM615.753 291.387V290.197H618.09V288.967H619.594V290.197H621.905V291.387H615.753ZM616.19 294.025C616.176 292.74 617.297 291.886 618.842 291.893C620.415 291.886 621.522 292.74 621.536 294.025C621.522 295.311 620.415 296.158 618.842 296.158C617.297 296.158 616.176 295.311 616.19 294.025ZM617.544 294.025C617.544 294.661 618.07 295.064 618.842 295.064C619.622 295.064 620.155 294.661 620.155 294.025C620.155 293.39 619.622 292.986 618.842 292.986C618.07 292.986 617.544 293.39 617.544 294.025ZM617.981 299.002C617.974 297.58 619.574 296.78 622.219 296.773C624.858 296.78 626.451 297.58 626.458 299.002C626.451 300.396 624.858 301.203 622.219 301.203C619.574 301.203 617.974 300.396 617.981 299.002ZM619.499 299.002C619.492 299.679 620.456 300.048 622.219 300.041C623.976 300.048 624.92 299.679 624.926 299.002C624.92 298.284 623.976 297.922 622.219 297.936C620.456 297.922 619.492 298.284 619.499 299.002ZM630.152 299.029L629.003 302.857H627.704L628.415 299.029H630.152ZM637.663 289.76C638.777 289.76 639.7 290.382 640.254 291.469H643.146V288.857H644.649V301.23H643.146V296.555H640.363C639.823 297.785 638.853 298.496 637.663 298.496C635.804 298.496 634.484 296.808 634.491 294.121C634.484 291.455 635.804 289.76 637.663 289.76ZM635.954 294.121C635.947 296.021 636.645 297.122 637.663 297.129C638.688 297.122 639.379 296.021 639.386 294.121C639.379 292.234 638.688 291.127 637.663 291.127C636.645 291.127 635.947 292.234 635.954 294.121ZM640.685 292.713C640.773 293.144 640.821 293.615 640.821 294.121C640.821 294.545 640.787 294.948 640.719 295.324H643.146V292.713H640.685ZM655.89 288.857V293.684H657.722V294.955H655.89V301.189H654.373V288.857H655.89ZM646.142 297.812C649.15 296.309 650.777 294.217 651.078 291.4H646.812V290.143H652.623C652.616 293.772 651.112 296.965 647.004 298.988L646.142 297.812ZM661.813 296.227C661.813 298.804 661.047 300.943 659.762 302.789H658.122C659.065 301.422 660.008 298.674 660.008 296.227C660.008 293.779 659.065 291.038 658.122 289.678H659.762C661.047 291.51 661.813 293.656 661.813 296.227ZM560.908 321.744C559.964 321.751 559.206 320.992 559.213 320.049C559.206 319.119 559.964 318.36 560.908 318.367C561.838 318.36 562.596 319.119 562.589 320.049C562.596 320.992 561.838 321.751 560.908 321.744ZM583.118 319.926V321.156H580.465V325.217H578.948V321.156H576.022V325.217H574.463V321.156H571.825V319.926H583.118ZM573.192 318.668V313.336H574.696V314.812H580.219V313.336H581.751V318.668H573.192ZM574.696 317.451H580.219V316.002H574.696V317.451ZM590.667 313.924V315.168H585.978V317.369H590.175V318.572H585.978V321.115C588.001 321.108 589.546 321.033 591.324 320.746L591.474 321.977C589.526 322.284 587.789 322.346 585.513 322.346H584.474V313.924H590.667ZM592.554 325.217V312.857H594.085V325.217H592.554ZM599.573 320.227C599.573 317.656 600.339 315.51 601.624 313.678H603.265C602.321 315.038 601.378 317.779 601.378 320.227C601.378 322.674 602.321 325.422 603.265 326.789H601.624C600.339 324.943 599.573 322.804 599.573 320.227ZM610.431 314.02V322.209H604.553V314.02H610.431ZM606.056 320.992H608.955V315.209H606.056V320.992ZM612.646 325.23V312.857H614.178V325.23H612.646ZM627.087 318.805V320.021H615.821V318.805H618.446V317.239C617.509 316.843 616.983 316.221 616.983 315.414C616.983 313.931 618.713 313.062 621.44 313.062C624.161 313.062 625.89 313.931 625.897 315.414C625.89 316.228 625.357 316.85 624.421 317.239V318.805H627.087ZM617.133 322.975C617.133 321.553 618.74 320.76 621.44 320.773C624.099 320.76 625.713 321.553 625.719 322.975C625.713 324.41 624.099 325.189 621.44 325.189C618.74 325.189 617.133 324.41 617.133 322.975ZM618.569 315.414C618.555 316.166 619.615 316.569 621.44 316.562C623.258 316.569 624.325 316.166 624.325 315.414C624.325 314.655 623.258 314.231 621.44 314.238C619.615 314.231 618.555 314.655 618.569 315.414ZM618.678 322.975C618.671 323.672 619.642 324.048 621.44 324.041C623.211 324.048 624.188 323.672 624.202 322.975C624.188 322.284 623.211 321.929 621.44 321.922C619.642 321.929 618.671 322.284 618.678 322.975ZM619.977 318.805H622.903V317.629C622.459 317.69 621.966 317.725 621.44 317.725C620.914 317.725 620.421 317.69 619.977 317.629V318.805ZM631.423 320.227C631.423 322.804 630.658 324.943 629.372 326.789H627.732C628.675 325.422 629.619 322.674 629.619 320.227C629.619 317.779 628.675 315.038 627.732 313.678H629.372C630.658 315.51 631.423 317.656 631.423 320.227ZM545.713 345.744C544.77 345.751 544.011 344.992 544.018 344.049C544.011 343.119 544.77 342.36 545.713 342.367C546.643 342.36 547.401 343.119 547.395 344.049C547.401 344.992 546.643 345.751 545.713 345.744ZM563.097 337.418C563.083 340.672 561.395 342.668 557.464 343.625L556.917 342.463C558.763 342.039 559.945 341.39 560.649 340.576L557.163 340.836L556.931 339.674L561.271 339.51C561.374 339.223 561.442 338.922 561.477 338.607H557.56V337.418H563.097ZM558.858 344.842V343.652H566.993V346.865H560.362V347.863H567.321V349.066H558.872V345.758H565.489V344.842H558.858ZM563.124 340.863V339.619H565.476V336.857H566.993V343.16H565.476V340.863H563.124ZM578.918 336.857V349.23H577.414V344.445H575.144V343.201H577.414V341.889H575.144V340.645H577.414V336.857H578.918ZM568.541 345.703C570.469 344.828 571.562 342.723 571.562 340.781V340.139H568.91V338.922H571.576V337.117H573.094V338.922H575.678V340.139H573.08V340.781C573.073 342.647 574.194 344.678 576.142 345.525L575.308 346.701C573.907 346.093 572.882 344.842 572.335 343.365C571.795 344.931 570.776 346.243 569.361 346.879L568.541 345.703ZM584.378 344.227C584.378 341.656 585.144 339.51 586.429 337.678H588.07C587.126 339.038 586.183 341.779 586.183 344.227C586.183 346.674 587.126 349.422 588.07 350.789H586.429C585.144 348.943 584.378 346.804 584.378 344.227ZM595.756 338.061V339.305H594.567V344.862C595.127 344.821 595.681 344.773 596.207 344.705L596.276 345.799C593.726 346.243 590.855 346.291 588.715 346.291L588.537 345.047C589.002 345.047 589.501 345.04 590.028 345.04V339.305H588.852V338.061H595.756ZM591.504 345.013C592.03 344.999 592.564 344.979 593.104 344.951V339.305H591.504V345.013ZM596.863 349.217V336.857H598.381V341.643H600.281V342.887H598.381V349.217H596.863ZM610.647 338.006V339.482C610.647 341.28 610.647 342.976 610.101 345.594L608.583 345.457C608.836 344.377 608.973 343.427 609.055 342.552L601.774 342.928L601.569 341.697L609.123 341.41C609.15 340.747 609.157 340.111 609.157 339.482V339.236H601.938V338.006H610.647ZM600.626 347.645V346.4H611.892V347.645H600.626ZM614.957 347.029L613.808 350.857H612.51L613.221 347.029H614.957ZM629.728 336.857V349.217H628.279V342.914H626.884V348.588H625.49V337.09H626.884V341.697H628.279V336.857H629.728ZM619.474 346.332V338.32H624.095V339.551H621.005V345.047C622.345 345.033 623.453 344.965 624.71 344.732L624.82 345.977C623.323 346.277 622.031 346.318 620.308 346.332H619.474ZM641.311 336.857V349.217H639.793V336.857H641.311ZM631.071 345.785C632.055 345.778 633.169 345.778 634.338 345.744V344.609C632.95 344.391 632.041 343.543 632.041 342.367C632.041 340.973 633.279 340.05 635.076 340.043C636.895 340.05 638.153 340.973 638.153 342.367C638.153 343.536 637.243 344.377 635.856 344.603V345.689C636.943 345.642 638.036 345.553 639.069 345.416L639.178 346.551C636.464 347.009 633.511 347.043 631.289 347.043L631.071 345.785ZM631.33 339.482V338.279H634.338V336.898H635.856V338.279H638.85V339.482H631.33ZM633.49 342.367C633.477 343.078 634.14 343.495 635.076 343.488C636.04 343.495 636.696 343.078 636.69 342.367C636.696 341.649 636.04 341.212 635.076 341.205C634.14 341.212 633.477 341.649 633.49 342.367ZM646.618 344.227C646.618 346.804 645.853 348.943 644.567 350.789H642.927C643.87 349.422 644.813 346.674 644.813 344.227C644.813 341.779 643.87 339.038 642.927 337.678H644.567C645.853 339.51 646.618 341.656 646.618 344.227ZM532.329 369.744C531.386 369.751 530.627 368.992 530.634 368.049C530.627 367.119 531.386 366.36 532.329 366.367C533.259 366.36 534.018 367.119 534.011 368.049C534.018 368.992 533.259 369.751 532.329 369.744ZM548.291 362.279V363.482H545.12V365.602H547.772V366.777H545.12V369.177C546.589 369.156 547.601 369.088 548.811 368.883L548.948 370.1C547.526 370.38 546.343 370.4 544.477 370.4H543.67V362.279H548.291ZM548.373 366.654V365.424H549.905V361.104H551.327V372.615H549.905V366.654H548.373ZM552.448 373.217V360.857H553.924V373.217H552.448ZM565.206 362.006V363.482C565.206 365.28 565.206 366.976 564.659 369.594L563.142 369.457C563.395 368.377 563.531 367.427 563.613 366.552L556.333 366.928L556.128 365.697L563.682 365.41C563.709 364.747 563.716 364.111 563.716 363.482V363.236H556.497V362.006H565.206ZM555.185 371.645V370.4H566.45V371.645H555.185ZM570.995 368.227C570.995 365.656 571.761 363.51 573.046 361.678H574.686C573.743 363.038 572.8 365.779 572.8 368.227C572.8 370.674 573.743 373.422 574.686 374.789H573.046C571.761 372.943 570.995 370.804 570.995 368.227ZM585.668 360.871V369.936H584.15V366.873H581.204C580.616 367.536 579.741 367.933 578.75 367.939C576.883 367.933 575.482 366.606 575.482 364.781C575.482 362.936 576.883 361.616 578.75 361.609C579.734 361.616 580.609 362.006 581.197 362.662H584.15V360.871H585.668ZM576.931 364.781C576.931 365.882 577.69 366.586 578.75 366.586C579.761 366.586 580.534 365.882 580.541 364.781C580.534 363.674 579.761 362.963 578.75 362.963C577.69 362.963 576.931 363.674 576.931 364.781ZM577.56 372.971V369.006H579.078V371.74H585.982V372.971H577.56ZM581.867 363.893C581.942 364.173 581.99 364.467 581.99 364.781C581.99 365.082 581.949 365.369 581.874 365.643H584.15V363.893H581.867ZM591.85 362.621C591.843 364.248 592.869 365.779 594.83 366.395L594.079 367.598C592.657 367.126 591.638 366.183 591.078 364.973C590.524 366.271 589.485 367.304 588.022 367.803L587.256 366.613C589.252 365.937 590.285 364.296 590.278 362.621V361.445H591.85V362.621ZM589.102 370.031V368.814H597.537V373.217H596.006V370.031H589.102ZM596.006 368.254V360.857H597.537V368.254H596.006ZM603.624 361.637L600.439 373.49H598.907L602.107 361.637H603.624ZM610.914 361.773V362.512C610.9 363.353 610.9 364.583 610.613 366.148L609.109 366.012C609.355 364.74 609.403 363.79 609.417 363.031H604.611V361.773H610.914ZM603.873 367.133C604.604 367.126 605.425 367.119 606.293 367.105V364.59H607.797V367.058C609.075 367.003 610.388 366.907 611.584 366.736L611.666 367.83C609.096 368.295 606.177 368.343 604.01 368.35L603.873 367.133ZM605.719 372.971V369.293H607.25V371.74H614.264V372.971H605.719ZM612.309 370.113V360.857H613.867V364.713H615.467V365.984H613.867V370.113H612.309ZM626.229 360.857V373.23H624.725V360.857H626.229ZM616.604 363.168V361.938H622.429V366.572H618.177V369.061C620.125 369.047 621.8 368.944 623.727 368.623L623.864 369.867C621.765 370.229 619.92 370.312 617.698 370.305H616.618V365.369H620.884V363.168H616.604ZM630.265 371.029L629.117 374.857H627.818L628.529 371.029H630.265ZM636.683 362.102V372H634.905V362.102H636.683ZM647.186 367.051C647.192 370.25 645.237 372.137 642.646 372.137C640.042 372.137 638.101 370.243 638.107 367.051C638.101 363.852 640.042 361.965 642.646 361.965C645.237 361.965 647.192 363.852 647.186 367.051ZM639.898 367.051C639.892 369.313 641.033 370.537 642.646 370.537C644.267 370.537 645.401 369.313 645.395 367.051C645.401 364.788 644.267 363.564 642.646 363.564C641.033 363.564 639.892 364.788 639.898 367.051ZM647.721 363.592V362.102H655.61V363.592H652.561V372H650.784V363.592H647.721ZM660.002 368.227C660.002 370.804 659.236 372.943 657.951 374.789H656.31C657.254 373.422 658.197 370.674 658.197 368.227C658.197 365.779 657.254 363.038 656.31 361.678H657.951C659.236 363.51 660.002 365.656 660.002 368.227Z" fill="#9E9E9E"/>
<path d="M819.967 201.744C819.024 201.751 818.265 200.992 818.272 200.049C818.265 199.119 819.024 198.36 819.967 198.367C820.897 198.36 821.656 199.119 821.649 200.049C821.656 200.992 820.897 201.751 819.967 201.744ZM835.328 195.086C835.328 196.597 836.305 198.019 838.24 198.613L837.515 199.803C836.128 199.365 835.143 198.483 834.603 197.369C834.056 198.668 833.017 199.7 831.527 200.199L830.761 198.996C832.751 198.347 833.796 196.74 833.796 195.1V194.949H831.185V193.719H837.898V194.949H835.328V195.086ZM832.443 202.838C832.443 201.361 834.043 200.5 836.627 200.5C839.19 200.5 840.762 201.361 840.769 202.838C840.762 204.328 839.19 205.203 836.627 205.203C834.043 205.203 832.443 204.328 832.443 202.838ZM833.961 202.838C833.961 203.604 834.931 204.007 836.627 204.014C838.315 204.007 839.265 203.604 839.265 202.838C839.265 202.086 838.315 201.689 836.627 201.689C834.931 201.689 833.961 202.086 833.961 202.838ZM839.129 200.227V192.857H840.646V195.824H842.369V197.068H840.646V200.227H839.129ZM847.43 194.115V198.695H844.655V201.088C845.762 201.067 846.829 200.992 848.1 200.787L848.223 202.031C846.671 202.291 845.42 202.346 843.998 202.346H843.192V197.492H845.954V195.346H843.178V194.115H847.43ZM848.045 200.268V199.023H849.481V197.191H848.045V195.975H849.481V193.076H850.93V204.588H849.481V200.268H848.045ZM852.01 205.217V192.857H853.459V205.217H852.01ZM819.967 225.744C819.024 225.751 818.265 224.992 818.272 224.049C818.265 223.119 819.024 222.36 819.967 222.367C820.897 222.36 821.656 223.119 821.649 224.049C821.656 224.992 820.897 225.751 819.967 225.744ZM840.673 216.857V221.957H842.41V223.229H840.673V229.217H839.142V216.857H840.673ZM830.748 225.785C831.684 225.785 832.771 225.785 833.906 225.758V224.603C832.559 224.37 831.684 223.529 831.691 222.367C831.684 220.973 832.908 220.05 834.685 220.043C836.442 220.05 837.679 220.973 837.693 222.367C837.679 223.536 836.784 224.377 835.437 224.603V225.703C836.476 225.648 837.515 225.566 838.486 225.43L838.582 226.537C835.929 227.022 833.072 227.043 830.966 227.043L830.748 225.785ZM830.98 219.482V218.279H833.906V216.912H835.437V218.279H838.349V219.482H830.98ZM833.127 222.367C833.12 223.078 833.749 223.495 834.685 223.488C835.608 223.495 836.23 223.078 836.23 222.367C836.23 221.649 835.608 221.212 834.685 221.205C833.749 221.212 833.12 221.649 833.127 222.367ZM847.252 219.086C847.252 220.597 848.23 222.019 850.164 222.613L849.44 223.803C848.052 223.365 847.068 222.483 846.528 221.369C845.981 222.668 844.942 223.7 843.452 224.199L842.686 222.996C844.675 222.347 845.721 220.74 845.721 219.1V218.949H843.11V217.719H849.823V218.949H847.252V219.086ZM844.368 226.838C844.368 225.361 845.967 224.5 848.551 224.5C851.115 224.5 852.687 225.361 852.694 226.838C852.687 228.328 851.115 229.203 848.551 229.203C845.967 229.203 844.368 228.328 844.368 226.838ZM845.885 226.838C845.885 227.604 846.856 228.007 848.551 228.014C850.24 228.007 851.19 227.604 851.19 226.838C851.19 226.086 850.24 225.689 848.551 225.689C846.856 225.689 845.885 226.086 845.885 226.838ZM851.053 224.227V216.857H852.571V219.824H854.293V221.068H852.571V224.227H851.053ZM819.967 249.744C819.024 249.751 818.265 248.992 818.272 248.049C818.265 247.119 819.024 246.36 819.967 246.367C820.897 246.36 821.656 247.119 821.649 248.049C821.656 248.992 820.897 249.751 819.967 249.744ZM835.328 243.086C835.328 244.597 836.305 246.019 838.24 246.613L837.515 247.803C836.128 247.365 835.143 246.483 834.603 245.369C834.056 246.668 833.017 247.7 831.527 248.199L830.761 246.996C832.751 246.347 833.796 244.74 833.796 243.1V242.949H831.185V241.719H837.898V242.949H835.328V243.086ZM832.443 250.838C832.443 249.361 834.043 248.5 836.627 248.5C839.19 248.5 840.762 249.361 840.769 250.838C840.762 252.328 839.19 253.203 836.627 253.203C834.043 253.203 832.443 252.328 832.443 250.838ZM833.961 250.838C833.961 251.604 834.931 252.007 836.627 252.014C838.315 252.007 839.265 251.604 839.265 250.838C839.265 250.086 838.315 249.689 836.627 249.689C834.931 249.689 833.961 250.086 833.961 250.838ZM839.129 248.227V240.857H840.646V243.824H842.369V245.068H840.646V248.227H839.129ZM854.116 250.482V251.74H842.823V250.482H845.68V247.748H844.067V241.787H852.817V247.748H851.204V250.482H854.116ZM845.557 246.545H851.313V243.004H845.557V246.545ZM847.198 250.482H849.713V247.748H847.198V250.482Z" fill="#9E9E9E"/>
<path d="M1010.84 201.744C1009.89 201.751 1009.14 200.992 1009.14 200.049C1009.14 199.119 1009.89 198.36 1010.84 198.367C1011.77 198.36 1012.53 199.119 1012.52 200.049C1012.53 200.992 1011.77 201.751 1010.84 201.744ZM1033.05 199.789V201.02H1030.3V205.217H1028.75V201.02H1026.02V205.217H1024.46V201.02H1021.75V199.789H1033.05ZM1022.94 196.057C1022.94 194.375 1024.74 193.302 1027.37 193.295C1030.01 193.302 1031.82 194.375 1031.83 196.057C1031.82 197.718 1030.01 198.764 1027.37 198.764C1024.74 198.764 1022.94 197.718 1022.94 196.057ZM1024.5 196.057C1024.5 197 1025.63 197.554 1027.37 197.561C1029.12 197.554 1030.26 197 1030.26 196.057C1030.26 195.086 1029.12 194.525 1027.37 194.525C1025.63 194.525 1024.5 195.086 1024.5 196.057ZM1044.02 192.857V205.217H1042.48V192.857H1044.02ZM1033.78 201.812C1037.02 200.274 1038.51 198.183 1038.78 195.373H1034.4V194.17H1040.32C1040.32 197.848 1038.9 200.972 1034.57 203.029L1033.78 201.812ZM1047.12 200.732C1046.53 200.732 1046.05 200.254 1046.06 199.666C1046.05 199.092 1046.53 198.62 1047.12 198.613C1047.69 198.62 1048.17 199.092 1048.17 199.666C1048.17 200.254 1047.69 200.732 1047.12 200.732ZM1060.54 199.789V201.02H1057.79V205.217H1056.24V201.02H1053.51V205.217H1051.95V201.02H1049.24V199.789H1060.54ZM1050.43 196.057C1050.43 194.375 1052.23 193.302 1054.86 193.295C1057.49 193.302 1059.31 194.375 1059.32 196.057C1059.31 197.718 1057.49 198.764 1054.86 198.764C1052.23 198.764 1050.43 197.718 1050.43 196.057ZM1051.99 196.057C1051.98 197 1053.12 197.554 1054.86 197.561C1056.61 197.554 1057.75 197 1057.75 196.057C1057.75 195.086 1056.61 194.525 1054.86 194.525C1053.12 194.525 1051.98 195.086 1051.99 196.057ZM1071.45 192.857V199.16H1069.95V192.857H1071.45ZM1061.17 197.957C1063.17 197.321 1064.22 195.735 1064.22 194.115V193.158H1065.79V194.115C1065.78 195.688 1066.83 197.157 1068.78 197.752L1068.05 198.928C1066.61 198.483 1065.58 197.567 1065.02 196.392C1064.46 197.67 1063.41 198.675 1061.93 199.146L1061.17 197.957ZM1063.27 200.91V199.734H1071.48V202.947H1064.79V203.904H1071.85V205.107H1063.3V201.812H1069.96V200.91H1063.27ZM1083.46 192.871V202.004H1081.94V199.311H1078.96V198.066H1081.94V196.535H1079.12C1078.25 198.436 1076.43 199.857 1073.93 200.623L1073.28 199.434C1076 198.559 1077.76 196.993 1078.04 195.031H1073.93V193.814H1079.71C1079.71 194.334 1079.65 194.833 1079.55 195.305H1081.94V192.871H1083.46ZM1075.4 204.971V201.102H1076.95V203.74H1083.77V204.971H1075.4ZM1098.53 192.871V201.936H1097.01V197.779H1094.63V196.521H1097.01V192.871H1098.53ZM1088.34 199.42C1091 198.579 1092.76 197 1093.05 195.045H1088.98V193.801H1094.71C1094.71 197.062 1092.56 199.495 1088.98 200.637L1088.34 199.42ZM1090.48 204.971V201.02H1092.02V203.74H1098.84V204.971H1090.48ZM1109.85 192.857V195.865H1111.57V197.109H1109.85V200.104H1108.33V192.857H1109.85ZM1100.06 199.064C1102.86 198.299 1104.53 196.788 1104.79 194.936H1100.62V193.705H1106.43C1106.44 196.952 1104.32 199.263 1100.66 200.295L1100.06 199.064ZM1101.73 202.729C1101.72 201.204 1103.37 200.254 1105.86 200.254C1108.37 200.254 1109.99 201.204 1109.99 202.729C1109.99 204.267 1108.37 205.21 1105.86 205.203C1103.37 205.21 1101.72 204.267 1101.73 202.729ZM1103.23 202.729C1103.23 203.535 1104.22 204.014 1105.86 204.014C1107.49 204.014 1108.49 203.535 1108.5 202.729C1108.49 201.915 1107.49 201.443 1105.86 201.443C1104.22 201.443 1103.23 201.915 1103.23 202.729ZM1118.93 193.773V194.512C1118.92 195.353 1118.92 196.583 1118.63 198.148L1117.13 198.012C1117.37 196.74 1117.42 195.79 1117.43 195.031H1112.63V193.773H1118.93ZM1111.89 199.133C1112.62 199.126 1113.44 199.119 1114.31 199.105V196.59H1115.81V199.058C1117.09 199.003 1118.41 198.907 1119.6 198.736L1119.68 199.83C1117.11 200.295 1114.19 200.343 1112.03 200.35L1111.89 199.133ZM1113.74 204.971V201.293H1115.27V203.74H1122.28V204.971H1113.74ZM1120.33 202.113V192.857H1121.88V196.713H1123.48V197.984H1121.88V202.113H1120.33ZM1134.25 192.857V205.23H1132.74V192.857H1134.25ZM1124.62 195.168V193.938H1130.45V198.572H1126.19V201.061C1128.14 201.047 1129.82 200.944 1131.75 200.623L1131.88 201.867C1129.78 202.229 1127.94 202.312 1125.72 202.305H1124.64V197.369H1128.9V195.168H1124.62ZM1006.7 225.744C1005.75 225.751 1004.99 224.992 1005 224.049C1004.99 223.119 1005.75 222.36 1006.7 222.367C1007.62 222.36 1008.38 223.119 1008.38 224.049C1008.38 224.992 1007.62 225.751 1006.7 225.744ZM1027.37 216.871V220.439H1029.1V221.697H1027.37V225.963H1025.86V216.871H1027.37ZM1018.05 223.953V217.746H1019.55V219.633H1022.44V217.746H1023.94V223.953H1018.05ZM1019.46 228.971V225.047H1020.98V227.74H1027.87V228.971H1019.46ZM1019.55 222.75H1022.44V220.809H1019.55V222.75ZM1039.9 216.857V229.23H1038.38V224.158H1036.13V222.914H1038.38V220.795H1036.17V219.551H1038.38V216.857H1039.9ZM1029.96 219.141V217.924H1035.47V222.545H1031.51V225.17C1033.14 225.163 1034.55 225.088 1036.22 224.842L1036.35 226.086C1034.45 226.387 1032.88 226.428 1030.96 226.428H1030V221.355H1033.98V219.141H1029.96ZM1052.75 222.777V223.994H1041.48V222.777H1046.37V221.602H1042.86V217.418H1051.39V218.607H1044.37V220.398H1051.46V221.602H1047.86V222.777H1052.75ZM1042.79 226.961C1042.79 225.512 1044.41 224.698 1047.09 224.705C1049.76 224.698 1051.37 225.512 1051.37 226.961C1051.37 228.396 1049.76 229.21 1047.09 229.217C1044.41 229.21 1042.79 228.396 1042.79 226.961ZM1044.33 226.961C1044.33 227.679 1045.3 228.048 1047.09 228.041C1048.86 228.048 1049.84 227.679 1049.86 226.961C1049.84 226.25 1048.86 225.867 1047.09 225.867C1045.3 225.867 1044.33 226.25 1044.33 226.961ZM1064.67 221.875V223.078H1059.77V224.008H1063.26V227.043H1056.23V227.945H1063.6V229.107H1054.74V225.949H1061.77V225.156H1054.73V224.008H1058.25V223.078H1053.4V221.875H1064.67ZM1054.82 221.096V217.24H1063.22V221.096H1054.82ZM1056.31 219.906H1061.7V218.43H1056.31V219.906ZM1071.9 217.555C1072.9 217.548 1073.77 217.917 1074.35 218.539H1077.3V216.857H1078.82V224.131H1077.3V222.559H1074.34C1073.76 223.167 1072.89 223.536 1071.9 223.529C1070.04 223.536 1068.64 222.285 1068.64 220.549C1068.64 218.799 1070.04 217.548 1071.9 217.555ZM1070.08 220.549C1070.08 221.561 1070.84 222.244 1071.9 222.244C1072.93 222.244 1073.69 221.561 1073.69 220.549C1073.69 219.503 1072.93 218.854 1071.9 218.854C1070.84 218.854 1070.08 219.503 1070.08 220.549ZM1070.44 226.797C1070.43 225.272 1072.05 224.384 1074.64 224.391C1077.24 224.384 1078.86 225.272 1078.86 226.797C1078.86 228.314 1077.24 229.203 1074.64 229.203C1072.05 229.203 1070.43 228.314 1070.44 226.797ZM1071.93 226.797C1071.92 227.583 1072.92 228.007 1074.64 228.014C1076.39 228.007 1077.37 227.583 1077.37 226.797C1077.37 225.99 1076.39 225.56 1074.64 225.553C1072.92 225.56 1071.92 225.99 1071.93 226.797ZM1075.03 219.756C1075.1 220.009 1075.14 220.269 1075.14 220.549C1075.14 220.822 1075.1 221.082 1075.04 221.328H1077.3V219.756H1075.03ZM1084.77 218.826C1084.77 220.378 1085.78 221.848 1087.68 222.449L1086.86 223.639C1085.53 223.188 1084.57 222.285 1084.03 221.137C1083.5 222.449 1082.5 223.481 1081.08 223.98L1080.26 222.791C1082.25 222.101 1083.25 220.453 1083.25 218.689V217.514H1084.77V218.826ZM1081.94 226.852C1081.94 225.389 1083.55 224.521 1086.12 224.527C1088.68 224.521 1090.26 225.389 1090.27 226.852C1090.26 228.349 1088.68 229.203 1086.12 229.203C1083.55 229.203 1081.94 228.349 1081.94 226.852ZM1083.46 226.852C1083.46 227.617 1084.43 228 1086.12 228C1087.81 228 1088.76 227.617 1088.76 226.852C1088.76 226.127 1087.81 225.717 1086.12 225.717C1084.43 225.717 1083.46 226.127 1083.46 226.852ZM1088.63 224.254V216.857H1090.14V219.865H1091.87V221.123H1090.14V224.254H1088.63ZM1097.01 219.373C1097.01 220.911 1098.06 222.415 1100.03 223.023L1099.25 224.213C1097.85 223.762 1096.83 222.832 1096.27 221.656C1095.71 222.935 1094.66 223.953 1093.2 224.459L1092.42 223.256C1094.41 222.6 1095.47 221 1095.48 219.373V219.018H1092.81V217.801H1099.61V219.018H1097.01V219.373ZM1094.44 228.971V225.02H1095.97V227.74H1102.96V228.971H1094.44ZM1101.08 225.84V216.871H1102.62V225.84H1101.08ZM1113.99 216.857V220.33H1115.73V221.588H1113.99V225.799H1112.48V216.857H1113.99ZM1104.77 223.707V217.883H1110.3V219.1H1106.27V222.463C1108.59 222.463 1109.89 222.388 1111.35 222.08L1111.52 223.311C1109.9 223.632 1108.46 223.707 1105.76 223.707H1104.77ZM1106.08 228.971V224.855H1107.6V227.74H1114.49V228.971H1106.08ZM1126.74 216.857V226.113H1125.29V216.857H1126.74ZM1116.09 223.297C1117.74 222.497 1118.51 220.856 1118.51 219.387V217.705H1119.98V219.387C1119.98 220.829 1120.7 222.265 1122.27 222.969L1121.42 224.145C1120.38 223.659 1119.67 222.825 1119.26 221.82C1118.82 222.955 1118.05 223.919 1116.92 224.445L1116.09 223.297ZM1118.47 228.971V225.006H1119.98V227.74H1127.08V228.971H1118.47ZM1121.16 221.041V219.797H1122.81V217.076H1124.26V225.744H1122.81V221.041H1121.16ZM1138.46 216.857V229.23H1136.95V222.559H1134.63V221.328H1136.95V216.857H1138.46ZM1128.66 226.387V217.924H1134.44V219.168H1130.19V221.383H1133.95V222.586H1130.19V225.129C1132.07 225.122 1133.47 225.054 1135.07 224.801L1135.22 226.031C1133.42 226.305 1131.83 226.373 1129.63 226.387H1128.66ZM1018.62 249.744C1017.68 249.751 1016.92 248.992 1016.92 248.049C1016.92 247.119 1017.68 246.36 1018.62 246.367C1019.55 246.36 1020.31 247.119 1020.3 248.049C1020.31 248.992 1019.55 249.751 1018.62 249.744ZM1039.3 240.871V244.439H1041.02V245.697H1039.3V249.963H1037.78V240.871H1039.3ZM1029.97 247.953V241.746H1031.48V243.633H1034.36V241.746H1035.87V247.953H1029.97ZM1031.38 252.971V249.047H1032.9V251.74H1039.79V252.971H1031.38ZM1031.48 246.75H1034.36V244.809H1031.48V246.75ZM1051.82 240.857V253.23H1050.31V248.158H1048.05V246.914H1050.31V244.795H1048.09V243.551H1050.31V240.857H1051.82ZM1041.89 243.141V241.924H1047.4V246.545H1043.43V249.17C1045.06 249.163 1046.48 249.088 1048.15 248.842L1048.27 250.086C1046.38 250.387 1044.8 250.428 1042.88 250.428H1041.93V245.355H1045.9V243.141H1041.89ZM1064.68 246.777V247.994H1053.4V246.777H1058.29V245.602H1054.78V241.418H1063.31V242.607H1056.3V244.398H1063.38V245.602H1059.78V246.777H1064.68ZM1054.71 250.961C1054.71 249.512 1056.33 248.698 1059.02 248.705C1061.68 248.698 1063.29 249.512 1063.3 250.961C1063.29 252.396 1061.68 253.21 1059.02 253.217C1056.33 253.21 1054.71 252.396 1054.71 250.961ZM1056.26 250.961C1056.25 251.679 1057.22 252.048 1059.02 252.041C1060.79 252.048 1061.77 251.679 1061.78 250.961C1061.77 250.25 1060.79 249.867 1059.02 249.867C1057.22 249.867 1056.25 250.25 1056.26 250.961ZM1076.59 245.875V247.078H1071.7V248.008H1075.18V251.043H1068.15V251.945H1075.52V253.107H1066.66V249.949H1073.69V249.156H1066.65V248.008H1070.18V247.078H1065.32V245.875H1076.59ZM1066.75 245.096V241.24H1075.14V245.096H1066.75ZM1068.24 243.906H1073.62V242.43H1068.24V243.906ZM1091.66 246.723V247.926H1080.4V246.723H1091.66ZM1081.56 243.537C1081.56 242.061 1083.31 241.145 1086.02 241.145C1088.73 241.145 1090.47 242.061 1090.47 243.537C1090.47 245.034 1088.73 245.93 1086.02 245.93C1083.31 245.93 1081.56 245.034 1081.56 243.537ZM1081.71 250.975C1081.71 249.525 1083.32 248.726 1086.02 248.732C1088.67 248.726 1090.29 249.525 1090.29 250.975C1090.29 252.417 1088.67 253.224 1086.02 253.217C1083.32 253.224 1081.71 252.417 1081.71 250.975ZM1083.14 243.537C1083.13 244.33 1084.21 244.747 1086.02 244.74C1087.82 244.747 1088.9 244.33 1088.9 243.537C1088.9 242.751 1087.82 242.334 1086.02 242.334C1084.21 242.334 1083.13 242.751 1083.14 243.537ZM1083.25 250.975C1083.25 251.679 1084.22 252.048 1086.02 252.041C1087.79 252.048 1088.76 251.679 1088.78 250.975C1088.76 250.25 1087.79 249.881 1086.02 249.881C1084.22 249.881 1083.25 250.25 1083.25 250.975ZM1095.21 247.898V249.32H1100.69V247.898H1102.19V253.066H1093.72V247.898H1095.21ZM1092.32 246.982V245.766H1100.43C1100.69 244.46 1100.72 243.476 1100.72 242.607H1093.72V241.391H1102.23V242.348C1102.24 243.291 1102.24 244.316 1101.93 245.766H1103.61V246.982H1092.32ZM1095.21 251.836H1100.69V250.496H1095.21V251.836ZM1114.81 240.857V250.113H1113.36V240.857H1114.81ZM1104.16 247.297C1105.81 246.497 1106.58 244.856 1106.58 243.387V241.705H1108.06V243.387C1108.06 244.829 1108.77 246.265 1110.34 246.969L1109.5 248.145C1108.46 247.659 1107.75 246.825 1107.34 245.82C1106.9 246.955 1106.13 247.919 1105 248.445L1104.16 247.297ZM1106.54 252.971V249.006H1108.06V251.74H1115.16V252.971H1106.54ZM1109.24 245.041V243.797H1110.89V241.076H1112.34V249.744H1110.89V245.041H1109.24ZM1126.53 240.857V253.23H1125.03V246.559H1122.71V245.328H1125.03V240.857H1126.53ZM1116.73 250.387V241.924H1122.51V243.168H1118.26V245.383H1122.02V246.586H1118.26V249.129C1120.14 249.122 1121.55 249.054 1123.14 248.801L1123.29 250.031C1121.5 250.305 1119.91 250.373 1117.7 250.387H1116.73Z" fill="#9E9E9E"/>
<path d="M351 82H376V110H351V82Z" stroke="#212121" stroke-width="2.25" stroke-linejoin="round"/>
<path d="M355 100H372" stroke="#212121" stroke-width="2.25" stroke-linecap="round" stroke-linejoin="round"/>
<path d="M355 104H372" stroke="#212121" stroke-width="2.25" stroke-linecap="round" stroke-linejoin="round"/>
<path fill-rule="evenodd" clip-rule="evenodd" d="M364.749 89.774C364.818 89.8317 364.881 89.8972 364.936 89.9693L367.237 92.9688C367.651 93.508 367.567 94.2947 367.05 94.726C366.837 94.9034 366.573 95 366.301 95H361.699C361.037 95 360.5 94.4403 360.5 93.7498C360.5 93.4659 360.593 93.1905 360.763 92.9688L363.064 89.9693C363.477 89.4301 364.232 89.3427 364.749 89.774ZM367.75 89C368.44 89 369 89.5596 369 90.25C369 90.9404 368.44 91.5 367.75 91.5C367.06 91.5 366.5 90.9404 366.5 90.25C366.5 89.5596 367.06 89 367.75 89ZM360.25 89C360.94 89 361.5 89.5596 361.5 90.25C361.5 90.9404 360.94 91.5 360.25 91.5C359.56 91.5 359 90.9404 359 90.25C359 89.5596 359.56 89 360.25 89ZM365.75 86.5C366.44 86.5 367 87.0596 367 87.75C367 88.4404 366.44 89 365.75 89C365.06 89 364.5 88.4404 364.5 87.75C364.5 87.0596 365.06 86.5 365.75 86.5ZM362.25 86.5C362.94 86.5 363.5 87.0596 363.5 87.75C363.5 88.4404 362.94 89 362.25 89C361.56 89 361 88.4404 361 87.75C361 87.0596 361.56 86.5 362.25 86.5Z" fill="#212121"/>
<path d="M126.647 93.6696L120.204 103.954C119.978 104.314 119.875 104.737 119.875 105.142C119.875 105.593 119.997 106.036 120.246 106.398C120.483 106.741 120.927 107.125 121.557 107.125H134.443C134.909 107.125 135.29 106.909 135.55 106.644C135.93 106.256 136.085 105.751 136.118 105.328C136.151 104.897 136.072 104.394 135.796 103.954L129.353 93.6696C129.284 93.5602 129.203 93.4541 129.107 93.3563C128.796 93.038 128.316 92.8023 127.757 92.8949C127.224 92.9834 126.858 93.332 126.647 93.6696Z" stroke="#212121" stroke-width="2.25"/>
<path d="M138.75 91.625C140.476 91.625 141.875 93.0241 141.875 94.75C141.875 96.4759 140.476 97.875 138.75 97.875C137.024 97.875 135.625 96.4759 135.625 94.75C135.625 93.0241 137.024 91.625 138.75 91.625ZM117.25 91.625C118.976 91.625 120.375 93.0241 120.375 94.75C120.375 96.4759 118.976 97.875 117.25 97.875C115.524 97.875 114.125 96.4759 114.125 94.75C114.125 93.0241 115.524 91.625 117.25 91.625ZM132.95 84.125C134.676 84.125 136.075 85.5241 136.075 87.25C136.075 88.9759 134.676 90.375 132.95 90.375C131.224 90.375 129.825 88.9759 129.825 87.25C129.825 85.5241 131.224 84.125 132.95 84.125ZM123.05 84.125C124.776 84.125 126.175 85.5241 126.175 87.25C126.175 88.9759 124.776 90.375 123.05 90.375C121.324 90.375 119.925 88.9759 119.925 87.25C119.925 85.5241 121.324 84.125 123.05 84.125Z" stroke="#212121" stroke-width="2.25"/>
<path d="M588.75 90.25C589.458 91.3333 591.8 93.5 600 93.5C608.2 93.5 610.542 91.3333 611.25 90.25" stroke="#212121" stroke-width="2.25" stroke-linecap="round" stroke-linejoin="bevel"/>
<path d="M588.207 89.4302C588.269 89.352 588.368 89.2356 588.512 89.0923C588.833 88.7716 589.382 88.3108 590.245 87.8376C591.966 86.8933 594.982 85.875 600 85.875C605.018 85.875 608.034 86.8933 609.755 87.8376C610.618 88.3108 611.167 88.7716 611.488 89.0923C611.632 89.2356 611.731 89.352 611.793 89.4302L615.219 103.174C615.123 103.234 615.015 103.3 614.896 103.371C614.256 103.75 613.278 104.265 611.962 104.784C609.334 105.821 605.348 106.875 600 106.875C594.652 106.875 590.666 105.821 588.038 104.784C586.722 104.265 585.745 103.75 585.104 103.371C584.985 103.3 584.877 103.234 584.781 103.174L588.207 89.4302Z" stroke="#212121" stroke-width="2.25" stroke-linejoin="round"/>
<g clip-path="url(#clip1_148_4881)">
<mask id="path-36-inside-1_148_4881" fill="white">
<path fill-rule="evenodd" clip-rule="evenodd" d="M604.903 97.589C605.54 98.2261 605.54 99.2592 604.903 99.8963C605.54 100.533 605.54 101.567 604.903 102.204C604.266 102.841 603.233 102.841 602.596 102.204C602.324 101.932 602.168 101.588 602.128 101.233L597.872 101.233C597.832 101.588 597.676 101.932 597.404 102.204C596.767 102.841 595.734 102.841 595.097 102.204C594.46 101.567 594.46 100.534 595.097 99.8964C594.46 99.2592 594.46 98.2261 595.097 97.589C595.734 96.9518 596.767 96.9518 597.404 97.589C597.689 97.8734 597.846 98.2367 597.877 98.6084L602.123 98.6084C602.154 98.2366 602.311 97.8734 602.596 97.589C603.233 96.9518 604.266 96.9518 604.903 97.589Z"/>
</mask>
<path fill-rule="evenodd" clip-rule="evenodd" d="M604.903 97.589C605.54 98.2261 605.54 99.2592 604.903 99.8963C605.54 100.533 605.54 101.567 604.903 102.204C604.266 102.841 603.233 102.841 602.596 102.204C602.324 101.932 602.168 101.588 602.128 101.233L597.872 101.233C597.832 101.588 597.676 101.932 597.404 102.204C596.767 102.841 595.734 102.841 595.097 102.204C594.46 101.567 594.46 100.534 595.097 99.8964C594.46 99.2592 594.46 98.2261 595.097 97.589C595.734 96.9518 596.767 96.9518 597.404 97.589C597.689 97.8734 597.846 98.2367 597.877 98.6084L602.123 98.6084C602.154 98.2366 602.311 97.8734 602.596 97.589C603.233 96.9518 604.266 96.9518 604.903 97.589Z" fill="#212121"/>
<path d="M604.903 99.8963L604.411 99.4041L603.919 99.8963L604.411 100.389L604.903 99.8963ZM602.128 101.233L602.82 101.156L602.75 100.537L602.128 100.537V101.233ZM597.872 101.233V100.537L597.25 100.537L597.18 101.156L597.872 101.233ZM595.097 99.8964L595.589 100.389L596.081 99.8964L595.589 99.4042L595.097 99.8964ZM597.877 98.6084L597.183 98.6653L597.235 99.3044H597.877L597.877 98.6084ZM602.123 98.6084V99.3044L602.765 99.3044L602.817 98.6653L602.123 98.6084ZM605.395 100.389C606.304 99.4795 606.304 98.0058 605.395 97.0968L604.411 98.0811C604.776 98.4465 604.776 99.0388 604.411 99.4041L605.395 100.389ZM605.395 102.696C606.304 101.787 606.304 100.313 605.395 99.4041L604.411 100.389C604.776 100.754 604.776 101.346 604.411 101.712L605.395 102.696ZM602.104 102.696C603.013 103.605 604.486 103.605 605.395 102.696L604.411 101.712C604.046 102.077 603.453 102.077 603.088 101.712L602.104 102.696ZM601.436 101.311C601.493 101.817 601.716 102.309 602.104 102.696L603.088 101.712C602.932 101.555 602.843 101.359 602.82 101.156L601.436 101.311ZM602.128 100.537L597.872 100.537V101.929L602.128 101.929V100.537ZM597.896 102.696C598.284 102.309 598.507 101.817 598.563 101.311L597.18 101.156C597.157 101.359 597.068 101.555 596.912 101.712L597.896 102.696ZM594.605 102.696C595.514 103.605 596.987 103.605 597.896 102.696L596.912 101.712C596.547 102.077 595.954 102.077 595.589 101.712L594.605 102.696ZM594.605 99.4042C593.696 100.313 593.696 101.787 594.605 102.696L595.589 101.712C595.224 101.346 595.224 100.754 595.589 100.389L594.605 99.4042ZM594.605 97.0968C593.696 98.0058 593.696 99.4796 594.605 100.389L595.589 99.4042C595.224 99.0388 595.224 98.4465 595.589 98.0812L594.605 97.0968ZM597.896 97.0968C596.987 96.1878 595.514 96.1878 594.605 97.0968L595.589 98.0812C595.954 97.7158 596.547 97.7158 596.912 98.0812L597.896 97.0968ZM598.57 98.5514C598.527 98.0215 598.302 97.5021 597.896 97.0968L596.912 98.0812C597.075 98.2446 597.165 98.4518 597.183 98.6653L598.57 98.5514ZM597.877 99.3044L602.123 99.3044V97.9123H597.877L597.877 99.3044ZM602.104 97.0968C601.698 97.5021 601.473 98.0215 601.43 98.5514L602.817 98.6653C602.835 98.4518 602.925 98.2446 603.088 98.0811L602.104 97.0968ZM605.395 97.0968C604.486 96.1878 603.013 96.1878 602.104 97.0968L603.088 98.0811C603.453 97.7158 604.046 97.7158 604.411 98.0811L605.395 97.0968Z" fill="#212121" mask="url(#path-36-inside-1_148_4881)"/>
</g>
<path d="M822.511 94.5502L821.804 93.6752L821.804 93.6752L822.511 94.5502ZM831 111.999V113.124H832.125V111.999H831ZM841 111.999H839.875V113.124H841V111.999ZM849.49 94.5502L850.197 93.6752L849.49 94.5502ZM836.865 84.3481L837.572 83.4731L837.572 83.4731L836.865 84.3481ZM835.136 84.3481L834.429 83.4731L834.429 83.4731L835.136 84.3481ZM823.125 95.6197C823.125 95.5442 823.16 95.4727 823.218 95.4252L821.804 93.6752C821.217 94.1498 820.875 94.8645 820.875 95.6197H823.125ZM823.125 110.624V95.6197H820.875V110.624H823.125ZM823.375 110.874C823.237 110.874 823.125 110.762 823.125 110.624H820.875C820.875 112.005 821.995 113.124 823.375 113.124V110.874ZM831 110.874H823.375V113.124H831V110.874ZM832.125 111.999V109H829.875V111.999H832.125ZM832.125 109C832.125 106.86 833.86 105.125 836 105.125V102.875C832.617 102.875 829.875 105.617 829.875 109H832.125ZM836 105.125C838.14 105.125 839.875 106.86 839.875 109H842.125C842.125 105.617 839.383 102.875 836 102.875V105.125ZM839.875 109V111.999H842.125V109H839.875ZM848.626 110.874H841V113.124H848.626V110.874ZM848.876 110.624C848.876 110.762 848.764 110.874 848.626 110.874V113.124C850.006 113.124 851.126 112.005 851.126 110.624H848.876ZM848.876 95.6197V110.624H851.126V95.6197H848.876ZM848.783 95.4252C848.841 95.4727 848.876 95.5442 848.876 95.6197H851.126C851.126 94.8645 850.784 94.1498 850.197 93.6752L848.783 95.4252ZM836.158 85.2232L848.783 95.4252L850.197 93.6752L837.572 83.4731L836.158 85.2232ZM835.843 85.2232C835.935 85.1491 836.066 85.1491 836.158 85.2232L837.572 83.4731C836.655 82.7324 835.346 82.7324 834.429 83.4731L835.843 85.2232ZM823.218 95.4252L835.843 85.2232L834.429 83.4731L821.804 93.6752L823.218 95.4252Z" fill="#212121"/>
<path fill-rule="evenodd" clip-rule="evenodd" d="M836.749 94.774C836.818 94.8317 836.881 94.8972 836.936 94.9693L839.237 97.9688C839.651 98.508 839.567 99.2947 839.05 99.726C838.837 99.9034 838.573 100 838.301 100H833.699C833.037 100 832.5 99.4403 832.5 98.7498C832.5 98.4659 832.593 98.1905 832.763 97.9688L835.064 94.9693C835.477 94.4301 836.232 94.3427 836.749 94.774ZM839.75 94C840.44 94 841 94.5596 841 95.25C841 95.9404 840.44 96.5 839.75 96.5C839.06 96.5 838.5 95.9404 838.5 95.25C838.5 94.5596 839.06 94 839.75 94ZM832.25 94C832.94 94 833.5 94.5596 833.5 95.25C833.5 95.9404 832.94 96.5 832.25 96.5C831.56 96.5 831 95.9404 831 95.25C831 94.5596 831.56 94 832.25 94ZM837.75 91.5C838.44 91.5 839 92.0596 839 92.75C839 93.4404 838.44 94 837.75 94C837.06 94 836.5 93.4404 836.5 92.75C836.5 92.0596 837.06 91.5 837.75 91.5ZM834.25 91.5C834.94 91.5 835.5 92.0596 835.5 92.75C835.5 93.4404 834.94 94 834.25 94C833.56 94 833 93.4404 833 92.75C833 92.0596 833.56 91.5 834.25 91.5Z" fill="#212121"/>
<rect x="1058" y="87" width="28" height="23" stroke="#212121" stroke-width="2.25" stroke-linejoin="round"/>
<path d="M1063.5 87L1063.5 83.125C1063.5 82.3656 1064.12 81.75 1064.88 81.75L1079.12 81.75C1079.88 81.75 1080.5 82.3656 1080.5 83.125V87" stroke="#212121" stroke-width="2.25" stroke-linejoin="round"/>
<path d="M1070 92.5V91.375H1068.88V92.5H1070ZM1074 92.5H1075.12V91.375H1074V92.5ZM1070 96.5V97.625H1071.12V96.5H1070ZM1066 96.5V95.375H1064.88V96.5H1066ZM1066 100.5H1064.88V101.625H1066V100.5ZM1070 100.5H1071.12V99.375H1070V100.5ZM1070 104.5H1068.88V105.625H1070V104.5ZM1074 104.5V105.625H1075.12V104.5H1074ZM1074 100.5V99.375H1072.88V100.5H1074ZM1078 100.5V101.625H1079.12V100.5H1078ZM1078 96.5H1079.12V95.375H1078V96.5ZM1074 96.5H1072.88V97.625H1074V96.5ZM1070 93.625H1074V91.375H1070V93.625ZM1071.12 96.5V92.5H1068.88V96.5H1071.12ZM1066 97.625H1070V95.375H1066V97.625ZM1067.12 100.5V96.5H1064.88V100.5H1067.12ZM1070 99.375H1066V101.625H1070V99.375ZM1071.12 104.5V100.5H1068.88V104.5H1071.12ZM1074 103.375H1070V105.625H1074V103.375ZM1072.88 100.5V104.5H1075.12V100.5H1072.88ZM1078 99.375H1074V101.625H1078V99.375ZM1076.88 96.5V100.5H1079.12V96.5H1076.88ZM1074 97.625H1078V95.375H1074V97.625ZM1072.88 92.5V96.5H1075.12V92.5H1072.88Z" fill="#212121"/>
</g>
<defs>
<clipPath id="clip0_148_4881">
<rect width="1200" height="409" fill="white"/>
</clipPath>
<clipPath id="clip1_148_4881">
<rect width="11.1369" height="11.1369" fill="white" transform="translate(600 92.046) rotate(45)"/>
</clipPath>
</defs>
</svg>
