<svg width="1000" height="436" viewBox="0 0 1000 436" fill="none" xmlns="http://www.w3.org/2000/svg">
<rect width="1000" height="436" rx="8" fill="white"/>
<circle cx="114" cy="220" r="84" fill="#212121"/>
<circle cx="886" cy="220" r="82.5" fill="white" stroke="#1565C0" stroke-width="3"/>
<path d="M75.8477 196.043V209.012H73.3672V202.645H70.457V200.633H73.3672V196.043H75.8477ZM60.7695 205.008C63.709 204.09 65.0371 201.775 65.0469 199.5V199.227H61.4727V197.234H71.1211V199.227H67.5859V199.52C67.5762 201.58 68.8457 203.777 71.668 204.695L70.4375 206.668C68.4746 206.023 67.1172 204.734 66.3457 203.143C65.5547 204.91 64.1387 206.346 62.0391 207.039L60.7695 205.008ZM64.0508 213.484V207.879H66.5508V211.492H76.2773V213.484H64.0508ZM94.3633 205.184V207.137H78.1133V205.184H84.9883V204.09H80.1445V196.453H92.4688V198.367H82.6445V199.363H92.0586V201.16H82.6445V202.176H92.625V204.09H87.4883V205.184H94.3633ZM80.0078 210.867C80.0078 208.992 82.2539 207.938 86.2383 207.957C90.1543 207.938 92.4102 208.992 92.4297 210.867C92.4102 212.781 90.1543 213.807 86.2383 213.797C82.2539 213.807 80.0078 212.781 80.0078 210.867ZM82.5078 210.867C82.4883 211.629 83.6797 211.961 86.2383 211.961C88.7383 211.961 89.9199 211.629 89.9297 210.867C89.9199 210.125 88.7383 209.783 86.2383 209.793C83.6797 209.783 82.4883 210.125 82.5078 210.867ZM114.148 196.043V201.043H116.551V203.094H114.148V209.129H111.648V196.043H114.148ZM100.574 206.297V197.293H103.055V199.871H106.688V197.293H109.188V206.297H100.574ZM102.625 213.484V207.781H105.105V211.492H114.793V213.484H102.625ZM103.055 204.344H106.688V201.785H103.055V204.344ZM132.312 196.023V213.836H129.832V206.668H126.785V204.617H129.832V201.824H126.844V199.793H129.832V196.023H132.312ZM117.918 199.48V197.508H125.906V204.344H120.438V207.811C122.635 207.791 124.578 207.693 126.824 207.352L127.02 209.383C124.363 209.803 122.098 209.861 119.363 209.852H117.957V202.41H123.465V199.48H117.918ZM150.867 204.422V206.375H134.617V204.422H141.531V202.898H136.59V196.805H148.914V198.738H139.07V200.945H149.012V202.898H143.973V204.422H150.867ZM136.473 210.555C136.473 208.445 138.816 207.273 142.703 207.273C146.561 207.273 148.875 208.445 148.895 210.555C148.875 212.635 146.561 213.816 142.703 213.816C138.816 213.816 136.473 212.635 136.473 210.555ZM139.012 210.555C139.002 211.482 140.242 211.922 142.703 211.922C145.115 211.922 146.385 211.482 146.395 210.555C146.385 209.637 145.115 209.168 142.703 209.168C140.242 209.168 139.002 209.637 139.012 210.555ZM168.113 203.074V205.047H161.238V206.18H166.141V210.73H156.238V211.805H166.609V213.68H153.797V208.973H163.68V208.055H153.777V206.18H158.738V205.047H151.902V203.074H168.113ZM153.914 202.137V196.531H166.062V202.137H153.914ZM156.355 200.223H163.582V198.465H156.355V200.223ZM84.7148 229.07C84.7051 231.346 85.9941 233.553 88.875 234.48L87.5664 236.434C85.623 235.779 84.2754 234.51 83.5039 232.889C82.7129 234.666 81.2969 236.062 79.2461 236.766L77.8594 234.793C80.8965 233.855 82.1953 231.473 82.2148 229.051V227.117H84.7148V229.07ZM80.7109 243.484V237.762H83.25V241.492H92.918V243.484H80.7109ZM89.7539 239.051V226.023H92.2539V231.16H94.6562V233.27H92.2539V239.051H89.7539ZM100.398 226.785C102.664 226.766 104.471 228.064 104.959 229.969H107.938V226.023H110.418V235.574H107.938V231.961H104.969C104.51 233.914 102.684 235.242 100.398 235.242C97.6641 235.242 95.6523 233.465 95.6719 230.984C95.6523 228.553 97.6641 226.766 100.398 226.785ZM98.0352 230.984C98.0254 232.312 99.002 233.152 100.398 233.152C101.746 233.152 102.713 232.312 102.723 230.984C102.713 229.656 101.746 228.846 100.398 228.855C99.002 228.846 98.0254 229.656 98.0352 230.984ZM98.5625 243.602V236.355H101.023V238.074H107.938V236.355H110.418V243.602H98.5625ZM101.023 241.59H107.938V239.988H101.023V241.59ZM122.293 226.98C123.709 226.971 124.949 227.498 125.799 228.367H129.832V226.023H132.312V236.434H129.832V234.305H125.779C124.93 235.164 123.699 235.682 122.293 235.672C119.598 235.682 117.547 233.846 117.566 231.336C117.547 228.797 119.598 226.971 122.293 226.98ZM119.93 231.336C119.92 232.703 120.906 233.572 122.293 233.562C123.631 233.572 124.607 232.703 124.617 231.336C124.607 229.92 123.631 229.1 122.293 229.109C120.906 229.1 119.92 229.92 119.93 231.336ZM120.125 240.301C120.125 238.094 122.479 236.795 126.238 236.805C129.998 236.795 132.361 238.094 132.371 240.301C132.361 242.508 129.998 243.807 126.238 243.797C122.479 243.807 120.125 242.508 120.125 240.301ZM122.566 240.301C122.566 241.336 123.885 241.863 126.238 241.863C128.641 241.863 129.92 241.336 129.93 240.301C129.92 239.236 128.641 238.709 126.238 238.699C123.885 238.709 122.566 239.236 122.566 240.301ZM126.863 230.34C126.941 230.652 126.98 230.994 126.98 231.336C126.98 231.678 126.941 232 126.873 232.312H129.832V230.34H126.863ZM149.598 237.332V243.797H147.117V239.285H137.391V237.332H149.598ZM134.852 231.316C134.832 228.797 136.883 226.961 139.578 226.98C141.014 226.971 142.273 227.508 143.123 228.406H147.117V226.023H149.598V236.531H147.117V234.285H143.123C142.273 235.203 141.014 235.74 139.578 235.75C136.883 235.74 134.832 233.904 134.852 231.316ZM137.215 231.316C137.205 232.771 138.191 233.621 139.578 233.621C140.887 233.621 141.893 232.771 141.902 231.316C141.893 229.93 140.887 229.07 139.578 229.07C138.191 229.07 137.205 229.93 137.215 231.316ZM144.158 232.293H147.117V230.418H144.168C144.236 230.701 144.266 231.004 144.266 231.316C144.266 231.658 144.227 231.98 144.158 232.293Z" fill="white"/>
<path d="M847.75 196.043V209.012H845.25V196.043H847.75ZM832.809 204.617C835.787 203.621 837.086 201.15 837.086 198.738V197.02H839.684V198.738C839.664 201.092 840.924 203.387 843.844 204.324L842.574 206.277C840.562 205.613 839.186 204.285 838.395 202.596C837.594 204.412 836.178 205.877 834.098 206.59L832.809 204.617ZM835.836 213.484V207.762H838.355V211.492H848.219V213.484H835.836ZM864.273 197V198.191C864.264 199.686 864.264 201.727 863.805 204.656H866.363V206.668H862.516V213.797H860.035V206.668H856.344V213.797H853.844V206.668H850.152V204.656H861.285C861.744 202.254 861.822 200.408 861.842 199.012H852.086V197H864.273ZM886.148 196.043V201.043H888.551V203.094H886.148V209.129H883.648V196.043H886.148ZM872.574 206.297V197.293H875.055V199.871H878.688V197.293H881.188V206.297H872.574ZM874.625 213.484V207.781H877.105V211.492H886.793V213.484H874.625ZM875.055 204.344H878.688V201.785H875.055V204.344ZM904.312 196.023V213.836H901.832V206.668H898.785V204.617H901.832V201.824H898.844V199.793H901.832V196.023H904.312ZM889.918 199.48V197.508H897.906V204.344H892.438V207.811C894.635 207.791 896.578 207.693 898.824 207.352L899.02 209.383C896.363 209.803 894.098 209.861 891.363 209.852H889.957V202.41H895.465V199.48H889.918ZM922.867 204.422V206.375H906.617V204.422H913.531V202.898H908.59V196.805H920.914V198.738H911.07V200.945H921.012V202.898H915.973V204.422H922.867ZM908.473 210.555C908.473 208.445 910.816 207.273 914.703 207.273C918.561 207.273 920.875 208.445 920.895 210.555C920.875 212.635 918.561 213.816 914.703 213.816C910.816 213.816 908.473 212.635 908.473 210.555ZM911.012 210.555C911.002 211.482 912.242 211.922 914.703 211.922C917.115 211.922 918.385 211.482 918.395 210.555C918.385 209.637 917.115 209.168 914.703 209.168C912.242 209.168 911.002 209.637 911.012 210.555ZM940.113 203.074V205.047H933.238V206.18H938.141V210.73H928.238V211.805H938.609V213.68H925.797V208.973H935.68V208.055H925.777V206.18H930.738V205.047H923.902V203.074H940.113ZM925.914 202.137V196.531H938.062V202.137H925.914ZM928.355 200.223H935.582V198.465H928.355V200.223ZM856.715 229.07C856.705 231.346 857.994 233.553 860.875 234.48L859.566 236.434C857.623 235.779 856.275 234.51 855.504 232.889C854.713 234.666 853.297 236.062 851.246 236.766L849.859 234.793C852.896 233.855 854.195 231.473 854.215 229.051V227.117H856.715V229.07ZM852.711 243.484V237.762H855.25V241.492H864.918V243.484H852.711ZM861.754 239.051V226.023H864.254V231.16H866.656V233.27H864.254V239.051H861.754ZM872.398 226.785C874.664 226.766 876.471 228.064 876.959 229.969H879.938V226.023H882.418V235.574H879.938V231.961H876.969C876.51 233.914 874.684 235.242 872.398 235.242C869.664 235.242 867.652 233.465 867.672 230.984C867.652 228.553 869.664 226.766 872.398 226.785ZM870.035 230.984C870.025 232.312 871.002 233.152 872.398 233.152C873.746 233.152 874.713 232.312 874.723 230.984C874.713 229.656 873.746 228.846 872.398 228.855C871.002 228.846 870.025 229.656 870.035 230.984ZM870.562 243.602V236.355H873.023V238.074H879.938V236.355H882.418V243.602H870.562ZM873.023 241.59H879.938V239.988H873.023V241.59ZM894.293 226.98C895.709 226.971 896.949 227.498 897.799 228.367H901.832V226.023H904.312V236.434H901.832V234.305H897.779C896.93 235.164 895.699 235.682 894.293 235.672C891.598 235.682 889.547 233.846 889.566 231.336C889.547 228.797 891.598 226.971 894.293 226.98ZM891.93 231.336C891.92 232.703 892.906 233.572 894.293 233.562C895.631 233.572 896.607 232.703 896.617 231.336C896.607 229.92 895.631 229.1 894.293 229.109C892.906 229.1 891.92 229.92 891.93 231.336ZM892.125 240.301C892.125 238.094 894.479 236.795 898.238 236.805C901.998 236.795 904.361 238.094 904.371 240.301C904.361 242.508 901.998 243.807 898.238 243.797C894.479 243.807 892.125 242.508 892.125 240.301ZM894.566 240.301C894.566 241.336 895.885 241.863 898.238 241.863C900.641 241.863 901.92 241.336 901.93 240.301C901.92 239.236 900.641 238.709 898.238 238.699C895.885 238.709 894.566 239.236 894.566 240.301ZM898.863 230.34C898.941 230.652 898.98 230.994 898.98 231.336C898.98 231.678 898.941 232 898.873 232.312H901.832V230.34H898.863ZM921.598 237.332V243.797H919.117V239.285H909.391V237.332H921.598ZM906.852 231.316C906.832 228.797 908.883 226.961 911.578 226.98C913.014 226.971 914.273 227.508 915.123 228.406H919.117V226.023H921.598V236.531H919.117V234.285H915.123C914.273 235.203 913.014 235.74 911.578 235.75C908.883 235.74 906.832 233.904 906.852 231.316ZM909.215 231.316C909.205 232.771 910.191 233.621 911.578 233.621C912.887 233.621 913.893 232.771 913.902 231.316C913.893 229.93 912.887 229.07 911.578 229.07C910.191 229.07 909.205 229.93 909.215 231.316ZM916.158 232.293H919.117V230.418H916.168C916.236 230.701 916.266 231.004 916.266 231.316C916.266 231.658 916.227 231.98 916.158 232.293Z" fill="#1565C0"/>
<rect x="252" y="69" width="202" height="64" rx="32" fill="#F6F7F9"/>
<rect x="252" y="147" width="202" height="64" rx="32" fill="#F6F7F9"/>
<rect x="252" y="225" width="202" height="64" rx="32" fill="#F6F7F9"/>
<rect x="252" y="303" width="202" height="64" rx="32" fill="#F6F7F9"/>
<path d="M248 101H242C228.745 101 218 111.745 218 125V311C218 324.255 228.745 335 242 335H248" stroke="#E0E0E0" stroke-width="2" stroke-miterlimit="0" stroke-linecap="round" stroke-linejoin="bevel"/>
<path d="M346.289 171.215C349.111 171.205 351.201 173.021 351.211 175.57C351.201 178.129 349.111 179.936 346.289 179.945C343.486 179.936 341.338 178.129 341.348 175.57C341.338 173.021 343.486 171.205 346.289 171.215ZM340.605 182.172C343.779 182.182 348.174 182.143 351.973 181.605L352.168 183.402C348.223 184.174 344.004 184.203 340.898 184.203L340.605 182.172ZM343.828 175.57C343.818 176.977 344.883 177.787 346.289 177.777C347.705 177.787 348.779 176.977 348.789 175.57C348.779 174.184 347.705 173.363 346.289 173.363C344.883 173.363 343.818 174.184 343.828 175.57ZM352.988 187.836V170.023H355.469V187.836H352.988ZM374.082 183.773V185.824H357.812V183.773H361.973V181.059H359.688V175.082H369.746V173.168H359.668V171.176H372.207V177.074H362.188V179.047H372.617V181.059H370.098V183.773H374.082ZM364.395 183.773H367.656V181.059H364.395V183.773ZM390.039 170.023V187.797H387.52V170.023H390.039ZM375.156 182.758C379.746 180.59 381.768 177.777 382.168 173.832H376.113V171.879H384.707C384.697 177.27 382.812 181.752 376.465 184.75L375.156 182.758ZM407.324 170.023V187.797H404.805V170.023H407.324ZM392.441 182.758C397.031 180.59 399.053 177.777 399.453 173.832H393.398V171.879H401.992C401.982 177.27 400.098 181.752 393.75 184.75L392.441 182.758Z" fill="#212121"/>
<rect x="305.25" y="165.5" width="22" height="22" stroke="#212121" stroke-width="2.25" stroke-linejoin="round"/>
<path d="M300.25 175.75V191.125C300.25 191.884 300.866 192.5 301.625 192.5H317.25" stroke="#212121" stroke-width="2.25" stroke-linejoin="round"/>
<path d="M306 178L311.902 177.968L314.504 180.625L318.494 171L321.5 178.5H327" stroke="#212121" stroke-width="2.25" stroke-linecap="square" stroke-linejoin="round"/>
<path d="M349.961 327.41C349.951 329.51 352.1 331.824 356.172 332.332L355.195 334.344C352.09 333.895 349.814 332.459 348.652 330.535C347.48 332.449 345.215 333.895 342.148 334.344L341.152 332.332C345.195 331.824 347.334 329.51 347.344 327.41V326.551H349.961V327.41ZM340.527 337.723V335.691H356.738V337.723H349.824V343.797H347.363V337.723H340.527ZM363.574 327.215C366.396 327.205 368.486 329.021 368.496 331.57C368.486 334.129 366.396 335.936 363.574 335.945C360.771 335.936 358.623 334.129 358.633 331.57C358.623 329.021 360.771 327.205 363.574 327.215ZM357.891 338.172C361.064 338.182 365.459 338.143 369.258 337.605L369.453 339.402C365.508 340.174 361.289 340.203 358.184 340.203L357.891 338.172ZM361.113 331.57C361.104 332.977 362.168 333.787 363.574 333.777C364.99 333.787 366.064 332.977 366.074 331.57C366.064 330.184 364.99 329.363 363.574 329.363C362.168 329.363 361.104 330.184 361.113 331.57ZM370.273 343.836V326.023H372.754V343.836H370.273ZM382.031 329.539C382.021 331.658 383.35 333.826 386.27 334.715L385 336.668C383.008 336.033 381.611 334.754 380.811 333.152C380 334.91 378.555 336.307 376.465 337L375.176 335.047C378.135 334.1 379.492 331.785 379.492 329.539V329.285H375.84V327.293H385.605V329.285H382.031V329.539ZM378.066 343.484V337.723H380.586V341.492H390.449V343.484H378.066ZM387.48 338.895V326.043H389.98V338.895H387.48ZM408.652 339.773V341.824H392.383V339.773H396.543V337.059H394.258V331.082H404.316V329.168H394.238V327.176H406.777V333.074H396.758V335.047H407.188V337.059H404.668V339.773H408.652ZM398.965 339.773H402.227V337.059H398.965V339.773Z" fill="#212121"/>
<path d="M301 321H326V349H301V321Z" stroke="#212121" stroke-width="2.25" stroke-linejoin="round"/>
<path d="M305 339H322" stroke="#212121" stroke-width="2.25" stroke-linecap="round" stroke-linejoin="round"/>
<path d="M305 343H322" stroke="#212121" stroke-width="2.25" stroke-linecap="round" stroke-linejoin="round"/>
<path fill-rule="evenodd" clip-rule="evenodd" d="M314.749 328.774C314.818 328.832 314.881 328.897 314.936 328.969L317.237 331.969C317.651 332.508 317.567 333.295 317.05 333.726C316.837 333.903 316.573 334 316.301 334H311.699C311.037 334 310.5 333.44 310.5 332.75C310.5 332.466 310.593 332.19 310.763 331.969L313.064 328.969C313.477 328.43 314.232 328.343 314.749 328.774ZM317.75 328C318.44 328 319 328.56 319 329.25C319 329.94 318.44 330.5 317.75 330.5C317.06 330.5 316.5 329.94 316.5 329.25C316.5 328.56 317.06 328 317.75 328ZM310.25 328C310.94 328 311.5 328.56 311.5 329.25C311.5 329.94 310.94 330.5 310.25 330.5C309.56 330.5 309 329.94 309 329.25C309 328.56 309.56 328 310.25 328ZM315.75 325.5C316.44 325.5 317 326.06 317 326.75C317 327.44 316.44 328 315.75 328C315.06 328 314.5 327.44 314.5 326.75C314.5 326.06 315.06 325.5 315.75 325.5ZM312.25 325.5C312.94 325.5 313.5 326.06 313.5 326.75C313.5 327.44 312.94 328 312.25 328C311.56 328 311 327.44 311 326.75C311 326.06 311.56 325.5 312.25 325.5Z" fill="#212121"/>
<path d="M365.07 96.0469C365.061 99.2305 366.418 102.443 369.27 103.82L367.766 105.812C365.861 104.865 364.572 103.107 363.84 100.969C363.059 103.264 361.691 105.148 359.68 106.145L358.137 104.133C361.154 102.746 362.57 99.3477 362.57 96.0469V93.3906H365.07V96.0469ZM370.051 109.797V92.0234H372.551V98.8789H375.168V100.988H372.551V109.797H370.051ZM392.082 105.773V107.824H375.812V105.773H379.973V103.059H377.688V97.082H387.746V95.168H377.668V93.1758H390.207V99.0742H380.188V101.047H390.617V103.059H388.098V105.773H392.082ZM382.395 105.773H385.656V103.059H382.395V105.773Z" fill="#212121"/>
<path d="M320.751 95.25C321.459 96.3333 323.801 98.5 332.001 98.5C340.201 98.5 342.542 96.3333 343.251 95.25" stroke="#212121" stroke-width="2.25" stroke-linejoin="bevel"/>
<path d="M320.208 94.4302C320.27 94.352 320.369 94.2356 320.513 94.0923C320.835 93.7716 321.384 93.3108 322.246 92.8376C323.968 91.8933 326.983 90.875 332.001 90.875C337.02 90.875 340.035 91.8933 341.757 92.8376C342.619 93.3108 343.168 93.7716 343.49 94.0923C343.633 94.2356 343.733 94.352 343.794 94.4302L347.221 108.174C347.125 108.234 347.017 108.3 346.897 108.371C346.257 108.75 345.279 109.265 343.964 109.784C341.335 110.821 337.35 111.875 332.001 111.875C326.653 111.875 322.668 110.821 320.039 109.784C318.724 109.265 317.746 108.75 317.106 108.371C316.986 108.3 316.878 108.234 316.782 108.174L320.208 94.4302Z" stroke="#212121" stroke-width="2.25" stroke-linejoin="round"/>
<g clip-path="url(#clip0_148_4375)">
<mask id="path-23-inside-1_148_4375" fill="white">
<path fill-rule="evenodd" clip-rule="evenodd" d="M336.902 102.589C337.539 103.226 337.539 104.259 336.902 104.896C337.539 105.533 337.539 106.566 336.902 107.203C336.265 107.841 335.232 107.841 334.595 107.203C334.323 106.932 334.167 106.588 334.127 106.233L329.873 106.233C329.833 106.588 329.677 106.932 329.405 107.204C328.768 107.841 327.735 107.841 327.098 107.204C326.461 106.567 326.461 105.534 327.098 104.896C326.461 104.259 326.461 103.226 327.098 102.589C327.735 101.952 328.768 101.952 329.405 102.589C329.689 102.873 329.847 103.236 329.877 103.608L334.122 103.608C334.153 103.236 334.31 102.873 334.595 102.589C335.232 101.952 336.265 101.952 336.902 102.589Z"/>
</mask>
<path fill-rule="evenodd" clip-rule="evenodd" d="M336.902 102.589C337.539 103.226 337.539 104.259 336.902 104.896C337.539 105.533 337.539 106.566 336.902 107.203C336.265 107.841 335.232 107.841 334.595 107.203C334.323 106.932 334.167 106.588 334.127 106.233L329.873 106.233C329.833 106.588 329.677 106.932 329.405 107.204C328.768 107.841 327.735 107.841 327.098 107.204C326.461 106.567 326.461 105.534 327.098 104.896C326.461 104.259 326.461 103.226 327.098 102.589C327.735 101.952 328.768 101.952 329.405 102.589C329.689 102.873 329.847 103.236 329.877 103.608L334.122 103.608C334.153 103.236 334.31 102.873 334.595 102.589C335.232 101.952 336.265 101.952 336.902 102.589Z" fill="#212121"/>
<path d="M336.902 104.896L336.41 104.404L335.918 104.896L336.41 105.388L336.902 104.896ZM334.127 106.233L334.819 106.155L334.749 105.537H334.127V106.233ZM329.873 106.233V105.537L329.25 105.537L329.181 106.155L329.873 106.233ZM327.098 104.896L327.59 105.389L328.082 104.896L327.59 104.404L327.098 104.896ZM329.877 103.608L329.184 103.665L329.236 104.304L329.877 104.304L329.877 103.608ZM334.122 103.608V104.304L334.764 104.304L334.816 103.665L334.122 103.608ZM337.394 105.388C338.303 104.479 338.303 103.006 337.394 102.097L336.41 103.081C336.775 103.446 336.775 104.039 336.41 104.404L337.394 105.388ZM337.394 107.696C338.303 106.787 338.303 105.313 337.394 104.404L336.41 105.388C336.775 105.754 336.775 106.346 336.41 106.711L337.394 107.696ZM334.103 107.696C335.012 108.605 336.485 108.605 337.394 107.696L336.41 106.711C336.045 107.077 335.452 107.077 335.087 106.711L334.103 107.696ZM333.436 106.311C333.492 106.817 333.715 107.308 334.103 107.696L335.087 106.711C334.931 106.555 334.842 106.359 334.819 106.155L333.436 106.311ZM334.127 105.537L329.873 105.537V106.929L334.127 106.929L334.127 105.537ZM329.897 107.696C330.285 107.308 330.508 106.817 330.564 106.311L329.181 106.155C329.158 106.359 329.069 106.555 328.913 106.712L329.897 107.696ZM326.606 107.696C327.515 108.605 328.988 108.605 329.897 107.696L328.913 106.712C328.548 107.077 327.955 107.077 327.59 106.712L326.606 107.696ZM326.606 104.404C325.697 105.313 325.697 106.787 326.606 107.696L327.59 106.712C327.225 106.346 327.225 105.754 327.59 105.389L326.606 104.404ZM326.606 102.097C325.697 103.006 325.697 104.48 326.606 105.389L327.59 104.404C327.225 104.039 327.225 103.447 327.59 103.081L326.606 102.097ZM329.897 102.097C328.988 101.188 327.515 101.188 326.606 102.097L327.59 103.081C327.955 102.716 328.548 102.716 328.913 103.081L329.897 102.097ZM330.571 103.551C330.528 103.021 330.303 102.502 329.897 102.097L328.913 103.081C329.076 103.245 329.166 103.452 329.184 103.665L330.571 103.551ZM329.877 104.304L334.122 104.304V102.912L329.877 102.912L329.877 104.304ZM334.103 102.097C333.697 102.502 333.472 103.021 333.429 103.551L334.816 103.665C334.834 103.452 334.924 103.244 335.087 103.081L334.103 102.097ZM337.394 102.097C336.485 101.188 335.012 101.188 334.103 102.097L335.087 103.081C335.452 102.716 336.045 102.716 336.41 103.081L337.394 102.097Z" fill="#212121" mask="url(#path-23-inside-1_148_4375)"/>
</g>
<rect x="546" y="30" width="202" height="64" rx="32" fill="#0074E0" fill-opacity="0.07"/>
<rect x="546" y="108" width="202" height="64" rx="32" fill="#0074E0" fill-opacity="0.07"/>
<rect x="546" y="186" width="202" height="64" rx="32" fill="#0074E0" fill-opacity="0.07"/>
<rect x="546" y="264" width="202" height="64" rx="32" fill="#0074E0" fill-opacity="0.07"/>
<rect x="546" y="342" width="202" height="64" rx="32" fill="#0074E0" fill-opacity="0.07"/>
<path d="M658.879 53.0234V65.1914H656.516V53.0234H658.879ZM643.371 61.2266C643.811 61.2266 644.299 61.2266 644.816 61.2168V56.3633H643.703V54.3711H651.906V56.3633H650.715V60.9824C651.223 60.9434 651.721 60.8945 652.18 60.8359L652.297 62.6523C649.543 63.1797 645.949 63.2188 643.625 63.2188L643.371 61.2266ZM645.715 68.7852C649.533 68.3652 651.447 66.5586 651.457 64.7422V64.293H653.918V64.7422C653.918 66.5586 655.871 68.3652 659.719 68.7852L658.801 70.7188C655.91 70.3477 653.811 69.1855 652.697 67.584C651.594 69.1855 649.494 70.3477 646.574 70.7188L645.715 68.7852ZM647.102 61.1777C647.561 61.168 648.029 61.1484 648.488 61.1289V56.3633H647.102V61.1777ZM651.438 59.7031V57.6914H653.137V53.375H655.461V63.5898H653.137V59.7031H651.438ZM675.637 53.8438V55.8359H673.293V59.8789H675.48V61.832H662.375V59.8789H664.582V55.8359H662.277V53.8438H675.637ZM660.793 65.3672V63.3359H677.062V65.3672H670.148V70.7773H667.668V65.3672H660.793ZM667.082 59.8789H670.832V55.8359H667.082V59.8789ZM692.59 61.2461V63.2383H680.012V54.5078H692.453V56.5195H682.473V61.2461H692.59ZM678.098 68.6289V66.5781H694.367V68.6289H678.098Z" fill="#1565C0"/>
<mask id="path-31-inside-2_148_4375" fill="white">
<path fill-rule="evenodd" clip-rule="evenodd" d="M621.861 48.5C624.246 48.5 626.181 50.4341 626.181 52.82C628.566 52.82 630.501 54.7541 630.501 57.14C630.501 59.5259 628.566 61.46 626.181 61.46C625.299 61.46 624.479 61.1959 623.795 60.7425L615.743 68.7953C616.196 69.4787 616.46 70.2985 616.46 71.18C616.46 73.5659 614.526 75.5 612.14 75.5C609.754 75.5 607.82 73.5659 607.82 71.18C605.434 71.18 603.5 69.2459 603.5 66.86C603.5 64.4742 605.434 62.54 607.82 62.54C608.597 62.54 609.327 62.7453 609.957 63.1047L618.105 54.9566C617.746 54.3265 617.541 53.5972 617.541 52.82C617.541 50.4341 619.475 48.5 621.861 48.5Z"/>
</mask>
<path d="M626.181 52.82H623.931V55.07H626.181V52.82ZM623.795 60.7425L625.039 58.8675L623.506 57.8502L622.204 59.1515L623.795 60.7425ZM615.743 68.7953L614.152 67.2043L612.851 68.5054L613.868 70.0389L615.743 68.7953ZM607.82 71.18H610.07V68.93H607.82V71.18ZM609.957 63.1047L608.842 65.0592L610.334 65.9098L611.548 64.6957L609.957 63.1047ZM618.105 54.9566L619.696 56.5476L620.91 55.3336L620.06 53.8422L618.105 54.9566ZM628.431 52.82C628.431 49.1915 625.489 46.25 621.861 46.25V50.75C623.004 50.75 623.931 51.6768 623.931 52.82H628.431ZM632.751 57.14C632.751 53.5115 629.809 50.57 626.181 50.57V55.07C627.324 55.07 628.251 55.9968 628.251 57.14H632.751ZM626.181 63.71C629.809 63.71 632.751 60.7685 632.751 57.14H628.251C628.251 58.2832 627.324 59.21 626.181 59.21V63.71ZM622.552 62.6174C623.592 63.3079 624.843 63.71 626.181 63.71V59.21C625.755 59.21 625.365 59.0839 625.039 58.8675L622.552 62.6174ZM622.204 59.1515L614.152 67.2043L617.334 70.3862L625.386 62.3335L622.204 59.1515ZM618.71 71.18C618.71 69.8426 618.308 68.5923 617.618 67.5516L613.868 70.0389C614.084 70.3651 614.21 70.7544 614.21 71.18H618.71ZM612.14 77.75C615.769 77.75 618.71 74.8085 618.71 71.18H614.21C614.21 72.3233 613.283 73.25 612.14 73.25V77.75ZM605.57 71.18C605.57 74.8085 608.511 77.75 612.14 77.75V73.25C610.997 73.25 610.07 72.3233 610.07 71.18H605.57ZM601.25 66.86C601.25 70.4885 604.191 73.43 607.82 73.43V68.93C606.677 68.93 605.75 68.0033 605.75 66.86H601.25ZM607.82 60.29C604.191 60.29 601.25 63.2315 601.25 66.86H605.75C605.75 65.7168 606.677 64.79 607.82 64.79V60.29ZM611.072 61.1502C610.111 60.6023 608.998 60.29 607.82 60.29V64.79C608.196 64.79 608.543 64.8884 608.842 65.0592L611.072 61.1502ZM611.548 64.6957L619.696 56.5476L616.514 53.3656L608.366 61.5137L611.548 64.6957ZM615.291 52.82C615.291 53.9983 615.603 55.1104 616.15 56.0711L620.06 53.8422C619.889 53.5426 619.791 53.1962 619.791 52.82H615.291ZM621.861 46.25C618.232 46.25 615.291 49.1915 615.291 52.82H619.791C619.791 51.6768 620.717 50.75 621.861 50.75V46.25Z" fill="#1565C0" mask="url(#path-31-inside-2_148_4375)"/>
<path d="M602 214.5H632" stroke="#1565C0" stroke-width="2.25" stroke-linejoin="round"/>
<rect x="602" y="209" width="30" height="18" stroke="#1565C0" stroke-width="2.25" stroke-linejoin="round"/>
<g clip-path="url(#clip1_148_4375)">
<mask id="path-35-inside-3_148_4375" fill="white">
<path fill-rule="evenodd" clip-rule="evenodd" d="M621.903 218.543C622.54 219.18 622.54 220.213 621.903 220.85C622.54 221.487 622.54 222.521 621.903 223.158C621.266 223.795 620.233 223.795 619.596 223.158C619.324 222.886 619.168 222.542 619.128 222.187L614.872 222.187C614.832 222.542 614.676 222.886 614.404 223.158C613.767 223.795 612.734 223.795 612.097 223.158C611.46 222.521 611.46 221.488 612.097 220.85C611.46 220.213 611.46 219.18 612.097 218.543C612.734 217.906 613.767 217.906 614.404 218.543C614.689 218.827 614.846 219.191 614.877 219.562L619.123 219.562C619.154 219.191 619.311 218.827 619.596 218.543C620.233 217.906 621.266 217.906 621.903 218.543Z"/>
</mask>
<path fill-rule="evenodd" clip-rule="evenodd" d="M621.903 218.543C622.54 219.18 622.54 220.213 621.903 220.85C622.54 221.487 622.54 222.521 621.903 223.158C621.266 223.795 620.233 223.795 619.596 223.158C619.324 222.886 619.168 222.542 619.128 222.187L614.872 222.187C614.832 222.542 614.676 222.886 614.404 223.158C613.767 223.795 612.734 223.795 612.097 223.158C611.46 222.521 611.46 221.488 612.097 220.85C611.46 220.213 611.46 219.18 612.097 218.543C612.734 217.906 613.767 217.906 614.404 218.543C614.689 218.827 614.846 219.191 614.877 219.562L619.123 219.562C619.154 219.191 619.311 218.827 619.596 218.543C620.233 217.906 621.266 217.906 621.903 218.543Z" fill="#1565C0"/>
<path d="M621.903 220.85L621.411 220.358L620.919 220.85L621.411 221.342L621.903 220.85ZM619.128 222.187L619.82 222.11L619.75 221.491L619.128 221.491V222.187ZM614.872 222.187V221.491L614.25 221.491L614.18 222.11L614.872 222.187ZM612.097 220.85L612.589 221.343L613.081 220.85L612.589 220.358L612.097 220.85ZM614.877 219.562L614.183 219.619L614.235 220.258H614.877L614.877 219.562ZM619.123 219.562V220.258L619.765 220.258L619.817 219.619L619.123 219.562ZM622.395 221.342C623.304 220.434 623.304 218.96 622.395 218.051L621.411 219.035C621.776 219.4 621.776 219.993 621.411 220.358L622.395 221.342ZM622.395 223.65C623.304 222.741 623.304 221.267 622.395 220.358L621.411 221.342C621.776 221.708 621.776 222.3 621.411 222.665L622.395 223.65ZM619.104 223.65C620.013 224.559 621.486 224.559 622.395 223.65L621.411 222.665C621.046 223.031 620.453 223.031 620.088 222.665L619.104 223.65ZM618.436 222.265C618.493 222.771 618.716 223.263 619.104 223.65L620.088 222.665C619.932 222.509 619.843 222.313 619.82 222.11L618.436 222.265ZM619.128 221.491L614.872 221.491V222.883L619.128 222.883V221.491ZM614.896 223.65C615.284 223.263 615.507 222.771 615.563 222.265L614.18 222.11C614.157 222.313 614.068 222.509 613.912 222.666L614.896 223.65ZM611.605 223.65C612.514 224.559 613.987 224.559 614.896 223.65L613.912 222.666C613.547 223.031 612.954 223.031 612.589 222.666L611.605 223.65ZM611.605 220.358C610.696 221.267 610.696 222.741 611.605 223.65L612.589 222.666C612.224 222.3 612.224 221.708 612.589 221.343L611.605 220.358ZM611.605 218.051C610.696 218.96 610.696 220.434 611.605 221.343L612.589 220.358C612.224 219.993 612.224 219.4 612.589 219.035L611.605 218.051ZM614.896 218.051C613.987 217.142 612.514 217.142 611.605 218.051L612.589 219.035C612.954 218.67 613.547 218.67 613.912 219.035L614.896 218.051ZM615.57 219.505C615.527 218.975 615.302 218.456 614.896 218.051L613.912 219.035C614.075 219.199 614.165 219.406 614.183 219.619L615.57 219.505ZM614.877 220.258L619.123 220.258V218.866H614.877L614.877 220.258ZM619.104 218.051C618.698 218.456 618.473 218.975 618.43 219.505L619.817 219.619C619.835 219.406 619.925 219.199 620.088 219.035L619.104 218.051ZM622.395 218.051C621.486 217.142 620.013 217.142 619.104 218.051L620.088 219.035C620.453 218.67 621.046 218.67 621.411 219.035L622.395 218.051Z" fill="#1565C0" mask="url(#path-35-inside-3_148_4375)"/>
</g>
<path d="M658.879 209.023V221.191H656.516V209.023H658.879ZM643.371 217.227C643.811 217.227 644.299 217.227 644.816 217.217V212.363H643.703V210.371H651.906V212.363H650.715V216.982C651.223 216.943 651.721 216.895 652.18 216.836L652.297 218.652C649.543 219.18 645.949 219.219 643.625 219.219L643.371 217.227ZM645.715 224.785C649.533 224.365 651.447 222.559 651.457 220.742V220.293H653.918V220.742C653.918 222.559 655.871 224.365 659.719 224.785L658.801 226.719C655.91 226.348 653.811 225.186 652.697 223.584C651.594 225.186 649.494 226.348 646.574 226.719L645.715 224.785ZM647.102 217.178C647.561 217.168 648.029 217.148 648.488 217.129V212.363H647.102V217.178ZM651.438 215.703V213.691H653.137V209.375H655.461V219.59H653.137V215.703H651.438ZM675.148 209.824V211.25C675.158 212.637 675.158 214.17 674.729 216.211H677.082V218.223H660.812V216.211H672.219C672.6 214.443 672.648 213.066 672.668 211.816H662.805V209.824H675.148ZM662.746 226.602V220.098H675.09V226.602H662.746ZM665.188 224.609H672.609V222.051H665.188V224.609ZM694.309 216.992V219.004H690.715V221.152C691.779 221.699 692.365 222.51 692.375 223.555C692.355 225.654 690.021 226.816 686.184 226.816C682.287 226.816 679.953 225.654 679.953 223.555C679.953 222.471 680.578 221.641 681.73 221.084V219.004H678.098V216.992H694.309ZM679.719 212.754C679.719 210.605 682.248 209.297 686.203 209.297C690.129 209.297 692.658 210.605 692.668 212.754C692.658 214.863 690.129 216.133 686.203 216.133C682.248 216.133 679.719 214.863 679.719 212.754ZM682.316 212.754C682.297 213.73 683.713 214.238 686.203 214.238C688.654 214.238 690.09 213.73 690.09 212.754C690.09 211.748 688.654 211.23 686.203 211.23C683.713 211.23 682.297 211.748 682.316 212.754ZM682.492 223.555C682.482 224.482 683.723 224.922 686.184 224.922C688.596 224.922 689.865 224.482 689.875 223.555C689.865 222.637 688.596 222.197 686.184 222.188C683.723 222.197 682.482 222.637 682.492 223.555ZM684.211 220.43C684.816 220.352 685.471 220.312 686.184 220.312C686.916 220.312 687.6 220.352 688.215 220.439V219.004H684.211V220.43Z" fill="#1565C0"/>
<path d="M649.879 287.023V299.191H647.516V287.023H649.879ZM634.371 295.227C634.811 295.227 635.299 295.227 635.816 295.217V290.363H634.703V288.371H642.906V290.363H641.715V294.982C642.223 294.943 642.721 294.895 643.18 294.836L643.297 296.652C640.543 297.18 636.949 297.219 634.625 297.219L634.371 295.227ZM636.715 302.785C640.533 302.365 642.447 300.559 642.457 298.742V298.293H644.918V298.742C644.918 300.559 646.871 302.365 650.719 302.785L649.801 304.719C646.91 304.348 644.811 303.186 643.697 301.584C642.594 303.186 640.494 304.348 637.574 304.719L636.715 302.785ZM638.102 295.178C638.561 295.168 639.029 295.148 639.488 295.129V290.363H638.102V295.178ZM642.438 293.703V291.691H644.137V287.375H646.461V297.59H644.137V293.703H642.438ZM666.578 287.512V289.367H664.254V291.711H666.461V293.566H653.355V291.711H655.543V289.367H653.238V287.512H666.578ZM651.812 296.457V294.504H668.023V296.457H651.812ZM653.688 299.27V297.473H666.051V301.867H656.148V302.844H666.52V304.68H653.707V300.168H663.59V299.27H653.688ZM658.043 291.711H661.754V289.367H658.043V291.711ZM675.895 288.801V295.539H671.988V298.566C673.727 298.547 675.357 298.459 677.203 298.117L677.418 300.148C675.084 300.578 673.092 300.617 670.855 300.637H669.605V293.566H673.492V290.773H669.586V288.801H675.895ZM676.637 295.109V293.098H678.453V287.355H680.777V303.938H678.453V295.109H676.637ZM682.105 304.797V287.023H684.469V304.797H682.105ZM701.266 287.023V304.836H698.746V287.023H701.266ZM686.91 294.602C686.9 290.725 688.883 288.273 691.617 288.273C694.293 288.273 696.285 290.725 696.285 294.602C696.285 298.508 694.293 300.949 691.617 300.949C688.883 300.949 686.9 298.508 686.91 294.602ZM689.312 294.602C689.303 297.248 690.23 298.693 691.617 298.684C692.965 298.693 693.873 297.248 693.883 294.602C693.873 291.965 692.965 290.52 691.617 290.52C690.23 290.52 689.303 291.965 689.312 294.602Z" fill="#1565C0"/>
<path d="M608 311C616.284 311 623 304.284 623 296C623 287.716 616.284 281 608 281C599.716 281 593 287.716 593 296C593 304.284 599.716 311 608 311Z" stroke="#1565C0" stroke-width="2.25" stroke-linecap="square"/>
<path d="M602.667 281.962C604.981 286.205 606.953 296.879 596.326 305.627" stroke="#1565C0" stroke-width="2.25"/>
<path d="M597.362 301.763L600.225 304.601" stroke="#1565C0" stroke-width="2"/>
<path d="M601.936 285.852L605.869 284.972" stroke="#1565C0" stroke-width="2"/>
<path d="M600.091 298.146L603.341 300.531" stroke="#1565C0" stroke-width="2"/>
<path d="M602.528 290.11L606.548 289.822" stroke="#1565C0" stroke-width="2"/>
<path d="M601.83 294.361L605.694 295.508" stroke="#1565C0" stroke-width="2"/>
<path d="M619.503 286.473C615.378 288.991 608.334 297.249 613.162 310.138" stroke="#1565C0" stroke-width="2.25"/>
<path d="M614.197 306.274L610.299 307.3" stroke="#1565C0" stroke-width="2"/>
<path d="M618.192 290.208L615.225 287.479" stroke="#1565C0" stroke-width="2"/>
<path d="M613.642 301.778L609.635 302.218" stroke="#1565C0" stroke-width="2"/>
<path d="M615.55 293.599L612.212 291.339" stroke="#1565C0" stroke-width="2"/>
<path d="M614.029 297.629L610.109 296.691" stroke="#1565C0" stroke-width="2"/>
<path d="M658.879 365.023V377.191H656.516V365.023H658.879ZM643.371 373.227C643.811 373.227 644.299 373.227 644.816 373.217V368.363H643.703V366.371H651.906V368.363H650.715V372.982C651.223 372.943 651.721 372.895 652.18 372.836L652.297 374.652C649.543 375.18 645.949 375.219 643.625 375.219L643.371 373.227ZM645.715 380.785C649.533 380.365 651.447 378.559 651.457 376.742V376.293H653.918V376.742C653.918 378.559 655.871 380.365 659.719 380.785L658.801 382.719C655.91 382.348 653.811 381.186 652.697 379.584C651.594 381.186 649.494 382.348 646.574 382.719L645.715 380.785ZM647.102 373.178C647.561 373.168 648.029 373.148 648.488 373.129V368.363H647.102V373.178ZM651.438 371.703V369.691H653.137V365.375H655.461V375.59H653.137V371.703H651.438ZM675.715 365.023V382.836H673.234V365.023H675.715ZM661.75 368.52V366.508H670.207V373.363H664.348V376.625C667.062 376.605 669.357 376.469 671.965 376.039L672.18 378.051C669.26 378.568 666.613 378.676 663.371 378.676H661.77V371.391H667.668V368.52H661.75ZM681.457 366.098V368.441H685.188V366.098H687.668V374.535H678.996V366.098H681.457ZM680.812 379.398C680.803 377.221 683.146 375.951 686.926 375.941C690.686 375.951 693.02 377.221 693.039 379.398C693.02 381.557 690.686 382.807 686.926 382.797C683.146 382.807 680.803 381.557 680.812 379.398ZM681.457 372.562H685.188V370.355H681.457V372.562ZM683.312 379.398C683.312 380.365 684.533 380.902 686.926 380.902C689.299 380.902 690.568 380.365 690.578 379.398C690.568 378.354 689.299 377.846 686.926 377.855C684.533 377.846 683.312 378.354 683.312 379.398ZM690.48 375.668V365.043H692.98V375.668H690.48Z" fill="#1565C0"/>
<path d="M603.511 370.55L602.804 369.675L602.804 369.675L603.511 370.55ZM612 387.999V389.124H613.125V387.999H612ZM622 387.999H620.875V389.124H622V387.999ZM630.49 370.55L631.197 369.675L630.49 370.55ZM617.865 360.348L618.572 359.473L618.572 359.473L617.865 360.348ZM616.136 360.348L615.429 359.473L615.429 359.473L616.136 360.348ZM604.125 371.62C604.125 371.544 604.16 371.473 604.218 371.425L602.804 369.675C602.217 370.15 601.875 370.865 601.875 371.62H604.125ZM604.125 386.624V371.62H601.875V386.624H604.125ZM604.375 386.874C604.237 386.874 604.125 386.762 604.125 386.624H601.875C601.875 388.005 602.995 389.124 604.375 389.124V386.874ZM612 386.874H604.375V389.124H612V386.874ZM613.125 387.999V385H610.875V387.999H613.125ZM613.125 385C613.125 382.86 614.86 381.125 617 381.125V378.875C613.617 378.875 610.875 381.617 610.875 385H613.125ZM617 381.125C619.14 381.125 620.875 382.86 620.875 385H623.125C623.125 381.617 620.383 378.875 617 378.875V381.125ZM620.875 385V387.999H623.125V385H620.875ZM629.626 386.874H622V389.124H629.626V386.874ZM629.876 386.624C629.876 386.762 629.764 386.874 629.626 386.874V389.124C631.006 389.124 632.126 388.005 632.126 386.624H629.876ZM629.876 371.62V386.624H632.126V371.62H629.876ZM629.783 371.425C629.841 371.473 629.876 371.544 629.876 371.62H632.126C632.126 370.865 631.784 370.15 631.197 369.675L629.783 371.425ZM617.158 361.223L629.783 371.425L631.197 369.675L618.572 359.473L617.158 361.223ZM616.843 361.223C616.935 361.149 617.066 361.149 617.158 361.223L618.572 359.473C617.655 358.732 616.346 358.732 615.429 359.473L616.843 361.223ZM604.218 371.425L616.843 361.223L615.429 359.473L602.804 369.675L604.218 371.425Z" fill="#1565C0"/>
<path fill-rule="evenodd" clip-rule="evenodd" d="M617.749 370.774C617.818 370.832 617.881 370.897 617.936 370.969L620.237 373.969C620.651 374.508 620.567 375.295 620.05 375.726C619.837 375.903 619.573 376 619.301 376H614.699C614.037 376 613.5 375.44 613.5 374.75C613.5 374.466 613.593 374.19 613.763 373.969L616.064 370.969C616.477 370.43 617.232 370.343 617.749 370.774ZM620.75 370C621.44 370 622 370.56 622 371.25C622 371.94 621.44 372.5 620.75 372.5C620.06 372.5 619.5 371.94 619.5 371.25C619.5 370.56 620.06 370 620.75 370ZM613.25 370C613.94 370 614.5 370.56 614.5 371.25C614.5 371.94 613.94 372.5 613.25 372.5C612.56 372.5 612 371.94 612 371.25C612 370.56 612.56 370 613.25 370ZM618.75 367.5C619.44 367.5 620 368.06 620 368.75C620 369.44 619.44 370 618.75 370C618.06 370 617.5 369.44 617.5 368.75C617.5 368.06 618.06 367.5 618.75 367.5ZM615.25 367.5C615.94 367.5 616.5 368.06 616.5 368.75C616.5 369.44 615.94 370 615.25 370C614.56 370 614 369.44 614 368.75C614 368.06 614.56 367.5 615.25 367.5Z" fill="#1565C0"/>
<path d="M752 62H758C771.255 62 782 72.7452 782 86V350C782 363.255 771.255 374 758 374H752" stroke="#E0E0E0" stroke-width="2" stroke-miterlimit="0" stroke-linecap="round" stroke-linejoin="bevel"/>
<path d="M658.879 131.023V143.191H656.516V131.023H658.879ZM643.371 139.227C643.811 139.227 644.299 139.227 644.816 139.217V134.363H643.703V132.371H651.906V134.363H650.715V138.982C651.223 138.943 651.721 138.895 652.18 138.836L652.297 140.652C649.543 141.18 645.949 141.219 643.625 141.219L643.371 139.227ZM645.715 146.785C649.533 146.365 651.447 144.559 651.457 142.742V142.293H653.918V142.742C653.918 144.559 655.871 146.365 659.719 146.785L658.801 148.719C655.91 148.348 653.811 147.186 652.697 145.584C651.594 147.186 649.494 148.348 646.574 148.719L645.715 146.785ZM647.102 139.178C647.561 139.168 648.029 139.148 648.488 139.129V134.363H647.102V139.178ZM651.438 137.703V135.691H653.137V131.375H655.461V141.59H653.137V137.703H651.438ZM668 132.996V134.949H663.723V137.781H667.297V139.676H663.723V142.869C665.627 142.84 667.023 142.742 668.684 142.469L668.898 144.48C666.857 144.852 665.158 144.871 662.551 144.871H661.359V132.996H668ZM668.137 139.5V137.508H670.129V131.336H672.453V147.996H670.129V139.5H668.137ZM673.82 148.797V131.023H676.223V148.797H673.82ZM692.648 132.586V134.656C692.639 137.244 692.639 139.705 691.828 143.562L689.348 143.328C689.699 141.854 689.904 140.545 690.031 139.344L679.719 139.852L679.406 137.859L690.158 137.469C690.197 136.492 690.207 135.574 690.207 134.656V134.578H679.953V132.586H692.648ZM678.098 146.668V144.637H694.309V146.668H678.098Z" fill="#1565C0"/>
<rect x="602" y="133.5" width="30" height="20" stroke="#1565C0" stroke-width="2.25" stroke-linejoin="round"/>
<path d="M616.915 133C616.971 132.676 617 132.341 617 132C617 128.962 614.705 126.5 611.875 126.5C609.045 126.5 606.75 128.962 606.75 132C606.75 132.341 606.779 132.676 606.835 133" stroke="#1565C0" stroke-width="2.25"/>
<path d="M627.165 133C627.221 132.676 627.25 132.341 627.25 132C627.25 128.962 624.955 126.5 622.125 126.5C619.295 126.5 617 128.962 617 132C617 132.341 617.029 132.676 617.085 133" stroke="#1565C0" stroke-width="2.25"/>
<path d="M613 141L615.976 135.024" stroke="#1565C0" stroke-width="2.25" stroke-linecap="square"/>
<path d="M621 141L617.992 135.024" stroke="#1565C0" stroke-width="2.25" stroke-linecap="square"/>
<line x1="500.5" y1="204" x2="500.5" y2="236" stroke="black" stroke-width="3"/>
<line x1="516" y1="220.5" x2="484" y2="220.5" stroke="black" stroke-width="3"/>
<path d="M355.289 249.215C358.111 249.205 360.201 251.021 360.211 253.57C360.201 256.129 358.111 257.936 355.289 257.945C352.486 257.936 350.338 256.129 350.348 253.57C350.338 251.021 352.486 249.205 355.289 249.215ZM349.605 260.172C352.779 260.182 357.174 260.143 360.973 259.605L361.168 261.402C357.223 262.174 353.004 262.203 349.898 262.203L349.605 260.172ZM352.828 253.57C352.818 254.977 353.883 255.787 355.289 255.777C356.705 255.787 357.779 254.977 357.789 253.57C357.779 252.184 356.705 251.363 355.289 251.363C353.883 251.363 352.818 252.184 352.828 253.57ZM361.988 265.836V248.023H364.469V265.836H361.988ZM383.219 250.367V252.379H380.914V254.195H383.219V256.266H380.914V258.512H378.414V248.023H380.914V250.367H383.219ZM366.93 253.316C366.92 250.807 369.029 248.99 371.812 249C374.566 248.99 376.656 250.807 376.656 253.316C376.656 255.885 374.566 257.682 371.812 257.672C369.029 257.682 366.92 255.885 366.93 253.316ZM368.941 261.227V259.215H380.914V265.797H378.414V261.227H368.941ZM369.391 253.316C369.371 254.752 370.416 255.572 371.812 255.562C373.18 255.572 374.225 254.752 374.234 253.316C374.225 251.93 373.18 251.119 371.812 251.129C370.416 251.119 369.371 251.93 369.391 253.316ZM400.309 256.344V258.316H393.434V259.84H398.375V265.602H385.973V259.84H390.953V258.316H384.098V256.344H400.309ZM385.523 250.504V248.512H398.863V250.504H396.539V253.219H398.746V255.211H385.641V253.219H387.828V250.504H385.523ZM388.434 263.609H395.934V261.773H388.434V263.609ZM390.328 253.219H394.039V250.504H390.328V253.219Z" fill="#212121"/>
<rect x="309" y="248" width="28" height="23" stroke="#212121" stroke-width="2.25" stroke-linejoin="round"/>
<path d="M314.5 248L314.5 244.125C314.5 243.366 315.116 242.75 315.875 242.75L330.125 242.75C330.884 242.75 331.5 243.366 331.5 244.125V248" stroke="#212121" stroke-width="2.25" stroke-linejoin="round"/>
<path d="M321 253.5V252.375H319.875V253.5H321ZM325 253.5H326.125V252.375H325V253.5ZM321 257.5V258.625H322.125V257.5H321ZM317 257.5V256.375H315.875V257.5H317ZM317 261.5H315.875V262.625H317V261.5ZM321 261.5H322.125V260.375H321V261.5ZM321 265.5H319.875V266.625H321V265.5ZM325 265.5V266.625H326.125V265.5H325ZM325 261.5V260.375H323.875V261.5H325ZM329 261.5V262.625H330.125V261.5H329ZM329 257.5H330.125V256.375H329V257.5ZM325 257.5H323.875V258.625H325V257.5ZM321 254.625H325V252.375H321V254.625ZM322.125 257.5V253.5H319.875V257.5H322.125ZM317 258.625H321V256.375H317V258.625ZM318.125 261.5V257.5H315.875V261.5H318.125ZM321 260.375H317V262.625H321V260.375ZM322.125 265.5V261.5H319.875V265.5H322.125ZM325 264.375H321V266.625H325V264.375ZM323.875 261.5V265.5H326.125V261.5H323.875ZM329 260.375H325V262.625H329V260.375ZM327.875 257.5V261.5H330.125V257.5H327.875ZM325 258.625H329V256.375H325V258.625ZM323.875 253.5V257.5H326.125V253.5H323.875Z" fill="#212121"/>
<defs>
<clipPath id="clip0_148_4375">
<rect width="11.1369" height="11.1369" fill="white" transform="translate(332 97.046) rotate(45)"/>
</clipPath>
<clipPath id="clip1_148_4375">
<rect width="11.1369" height="11.1369" fill="white" transform="translate(617 213) rotate(45)"/>
</clipPath>
</defs>
</svg>
