<svg width="1096" height="343" viewBox="0 0 1096 343" fill="none" xmlns="http://www.w3.org/2000/svg">
<rect width="1096" height="343" rx="8" fill="white"/>
<rect x="414" y="30" width="300" height="47" rx="23.5" fill="#F6F7F9"/>
<path d="M485.141 46.2812V50.3594H487.109V51.7969H485.141V56.6719H483.406V46.2812H485.141ZM474.484 54.375V47.2812H476.203V49.4375H479.5V47.2812H481.219V54.375H474.484ZM476.094 60.1094V55.625H477.828V58.7031H485.703V60.1094H476.094ZM476.203 53H479.5V50.7812H476.203V53ZM499.656 46.2656V60.4062H497.922V54.6094H495.344V53.1875H497.922V50.7656H495.391V49.3438H497.922V46.2656H499.656ZM488.297 48.875V47.4844H494.594V52.7656H490.062V55.7656C491.93 55.7578 493.547 55.6719 495.453 55.3906L495.594 56.8125C493.43 57.1562 491.633 57.2031 489.438 57.2031H488.344V51.4062H492.891V48.875H488.297ZM514.547 53.0312V54.4219H501.656V53.0312H507.25V51.6875H503.234V46.9062H512.984V48.2656H504.969V50.3125H513.062V51.6875H508.953V53.0312H514.547ZM503.156 57.8125C503.156 56.1562 505.008 55.2266 508.078 55.2344C511.125 55.2266 512.961 56.1562 512.969 57.8125C512.961 59.4531 511.125 60.3828 508.078 60.3906C505.008 60.3828 503.156 59.4531 503.156 57.8125ZM504.922 57.8125C504.914 58.6328 506.023 59.0547 508.078 59.0469C510.102 59.0547 511.219 58.6328 511.234 57.8125C511.219 57 510.102 56.5625 508.078 56.5625C506.023 56.5625 504.914 57 504.922 57.8125ZM528.359 52V53.375H522.766V54.4375H526.75V57.9062H518.719V58.9375H527.141V60.2656H517.016V56.6562H525.047V55.75H517V54.4375H521.031V53.375H515.484V52H528.359ZM517.109 51.1094V46.7031H526.703V51.1094H517.109ZM518.812 49.75H524.969V48.0625H518.812V49.75ZM545.188 46.2812V54.125H543.531V46.2812H545.188ZM533.031 48.7969V47.4844H535.594V46.25H537.328V47.4844H539.891V48.7969H533.031ZM533.516 51.5625C533.516 50.1484 534.742 49.2109 536.469 49.2188C538.188 49.2109 539.422 50.1484 539.422 51.5625C539.422 52.9609 538.188 53.875 536.469 53.8594C534.742 53.875 533.516 52.9609 533.516 51.5625ZM535.031 51.5625C535.031 52.25 535.617 52.6719 536.469 52.6719C537.32 52.6719 537.906 52.25 537.906 51.5625C537.906 50.8672 537.32 50.4297 536.469 50.4375C535.617 50.4297 535.031 50.8672 535.031 51.5625ZM535.625 55.9062V54.6406H545.188V58.0156H537.375V58.9688H545.641V60.2656H535.641V56.8125H543.469V55.9062H535.625ZM539.578 51.1875V49.8125H540.891V46.5156H542.516V54.0156H540.891V51.1875H539.578ZM554.234 48.2031C554.234 50.3828 556.367 52.5781 559.328 53.0938L558.547 54.5469C556.18 54.0547 554.242 52.6172 553.32 50.7188C552.391 52.6016 550.453 54.0469 548.094 54.5469L547.328 53.0938C550.242 52.5625 552.383 50.375 552.391 48.2031V47.1562H554.234V48.2031ZM546.938 58.5938V57.1562H559.844V58.5938H546.938ZM567.031 47.8906C567.023 49.2188 566.898 50.4922 566.57 51.6875H568.312V46.6094H569.953V59.7188H568.312V53.0938H566.055C565.281 54.7969 563.945 56.2969 561.75 57.5312L560.766 56.3438C562.68 55.25 563.859 53.9766 564.547 52.5156L561.016 52.875L560.812 51.375L565.039 51.1406C565.188 50.5547 565.281 49.9375 565.328 49.2969H561.5V47.8906H567.031ZM571.297 60.3906V46.2656H572.953V60.3906H571.297ZM578.453 47.2969C580.359 47.2969 581.773 48.8906 582.023 51.4688H584.719V46.2656H586.438V60.4062H584.719V52.875H582.039C581.852 55.6016 580.414 57.2812 578.453 57.2812C576.328 57.2812 574.82 55.3516 574.828 52.2812C574.82 49.2344 576.328 47.2969 578.453 47.2969ZM576.5 52.2812C576.492 54.4531 577.289 55.7109 578.453 55.7188C579.625 55.7109 580.414 54.4531 580.422 52.2812C580.414 50.125 579.625 48.8594 578.453 48.8594C577.289 48.8594 576.492 50.125 576.5 52.2812ZM604.047 46.2812V56.5938H602.312V51.4219H599.812V50.0156H602.312V46.2812H604.047ZM592.188 53.5469C594.438 52.8047 595.641 50.9609 595.641 49.0781V48.7031H592.703V47.2969H600.328V48.7031H597.406V49.0938C597.406 50.7891 598.547 52.5469 600.734 53.2656L599.859 54.6562C598.281 54.1172 597.164 53.0391 596.547 51.7031C595.93 53.1875 594.75 54.375 593.078 54.9531L592.188 53.5469ZM594.781 60.1094V55.6875H596.516V58.7031H604.406V60.1094H594.781ZM618.938 53.3281V54.7188H613.484V57.3125H611.766V54.7188H606.031V53.3281H618.938ZM607.594 60.1094V56.0156H609.328V58.7031H617.516V60.1094H607.594ZM607.672 52.0156V46.9062H617.281V52.0156H607.672ZM609.359 50.6562H615.562V48.2656H609.359V50.6562ZM624.25 59V47.6875H628.5C631.094 47.6875 632.477 49.1406 632.484 51.2969C632.477 52.8359 631.773 53.9766 630.445 54.5156L632.891 59H630.625L628.406 54.8594H626.281V59H624.25ZM626.281 53.1562H628.188C629.719 53.1641 630.406 52.5078 630.406 51.2969C630.406 50.0938 629.719 49.3906 628.188 49.3906H626.281V53.1562ZM637.531 59.1562C635.219 59.1641 633.797 57.7969 633.797 56C633.797 54.6641 634.656 53.8516 635.922 52.9766C635.273 52.1719 634.766 51.3438 634.766 50.3438C634.766 48.7344 635.938 47.5469 637.719 47.5469C639.5 47.5469 640.602 48.7266 640.594 50.1094C640.602 51.1875 640.039 52.0078 639.094 52.6875L638.375 53.2188L640.445 55.6484C640.742 55.0859 640.922 54.4219 640.922 53.6719H642.641C642.633 55.2266 642.203 56.3281 641.656 57.0625L643.312 59H641.156L640.43 58.1719C639.625 58.8516 638.523 59.1641 637.531 59.1562ZM635.75 55.9062C635.75 56.8047 636.477 57.5234 637.594 57.5312C638.195 57.5312 638.812 57.3125 639.344 56.9297L636.992 54.2266L636.812 54.3594C636.047 54.9219 635.75 55.5156 635.75 55.9062ZM636.531 50.375C636.539 50.8906 636.883 51.4141 637.352 52L638 51.5625C638.594 51.1797 638.906 50.7734 638.906 50.2031C638.906 49.7109 638.469 49.1797 637.75 49.1875C637.031 49.1797 636.539 49.7578 636.531 50.375ZM648.234 59H644.391V47.6875H648.297C651.672 47.6875 653.711 49.8047 653.719 53.3281C653.711 56.8672 651.672 59 648.234 59ZM646.422 57.2344H648.125C650.492 57.2422 651.688 55.9375 651.688 53.3281C651.688 50.7344 650.492 49.4453 648.188 49.4531H646.422V57.2344Z" fill="#616161"/>
<rect x="414" y="89" width="300" height="47" rx="23.5" fill="#F6F7F9"/>
<path d="M457.406 105.266V119.391H455.734V112.141H454.219V118.734H452.594V105.641H454.219V110.734H455.734V105.266H457.406ZM445.172 115.234C448.18 113.5 449.453 111.266 449.703 108.438H445.828V107.047H451.391C451.391 110.867 450.188 114.148 446.172 116.438L445.172 115.234ZM470.938 105.266V112.562H469.203V111.031H466.359V112.109H459.75V105.891H461.484V107.672H464.641V105.891H466.359V107.141H469.203V105.266H470.938ZM461.484 110.734H464.641V109H461.484V110.734ZM461.625 114.5V113.141H470.938V116.766H463.375V117.844H471.391V119.219H461.641V115.484H469.203V114.5H461.625ZM466.359 109.703H469.203V108.453H466.359V109.703ZM483.906 106.203V112.344H477.219V106.203H483.906ZM478.047 118C480.547 117.664 482.109 116.562 482.391 115.328H478.625V113.953H488.078V115.328H484.328C484.609 116.531 486.203 117.672 488.672 118.016L488.047 119.344C485.836 119.031 484.164 118.086 483.352 116.812C482.539 118.086 480.883 119.016 478.688 119.312L478.047 118ZM478.922 110.953H482.203V107.594H478.922V110.953ZM486.141 113.234V105.266H487.875V108.438H489.844V109.875H487.875V113.234H486.141ZM503.438 112.125V113.5H497.844V114.734H501.875V119.219H492.078V114.734H496.125V113.5H490.562V112.125H503.438ZM491.172 110.203C494.141 109.992 495.789 109.047 495.992 107.891H491.828V106.516H496.125V105.25H497.844V106.516H502.172V107.891H497.977C498.172 109.047 499.844 109.992 502.797 110.203L502.297 111.484C499.75 111.289 497.867 110.539 496.984 109.344C496.094 110.539 494.211 111.289 491.688 111.484L491.172 110.203ZM493.797 117.812H500.188V116.125H493.797V117.812ZM512.312 106.672V108.047H504.422V106.672H507.578V105.141H509.312V106.672H512.312ZM505.156 111.25C505.148 109.672 506.492 108.609 508.422 108.609C510.344 108.609 511.727 109.672 511.734 111.25C511.727 112.82 510.344 113.859 508.422 113.859C506.492 113.859 505.148 112.82 505.156 111.25ZM506.641 116.922C506.641 115.367 508.477 114.461 511.469 114.469C514.453 114.461 516.289 115.367 516.297 116.922C516.289 118.453 514.453 119.375 511.469 119.375C508.477 119.375 506.641 118.453 506.641 116.922ZM506.781 111.25C506.773 112.078 507.422 112.562 508.422 112.562C509.422 112.562 510.109 112.078 510.109 111.25C510.109 110.406 509.422 109.906 508.422 109.906C507.422 109.906 506.773 110.406 506.781 111.25ZM508.469 116.922C508.461 117.656 509.562 118.055 511.469 118.047C513.359 118.055 514.438 117.656 514.438 116.922C514.438 116.172 513.359 115.797 511.469 115.797C509.562 115.797 508.461 116.172 508.469 116.922ZM512.391 112.656V111.266H514.484V109.875H512.406V108.469H514.484V105.266H516.219V114.312H514.484V112.656H512.391ZM523.312 106.156L519.672 119.703H517.922L521.578 106.156H523.312ZM528.359 107.891C528.367 109.414 529.258 110.953 531.109 111.656L530.188 112.984C528.93 112.508 528.055 111.602 527.547 110.508C527.031 111.766 526.109 112.844 524.766 113.406L523.828 112.078C525.773 111.219 526.68 109.453 526.688 107.891V106.141H528.359V107.891ZM526.422 116.766C526.414 115.141 528.289 114.172 531.266 114.172C534.219 114.172 536.102 115.141 536.109 116.766C536.102 118.398 534.219 119.375 531.266 119.375C528.289 119.375 526.414 118.398 526.422 116.766ZM528.156 116.766C528.148 117.602 529.305 118.055 531.266 118.047C533.195 118.055 534.352 117.602 534.359 116.766C534.352 115.938 533.195 115.484 531.266 115.484C529.305 115.484 528.148 115.938 528.156 116.766ZM531.344 113.5V105.547H532.969V108.844H534.375V105.281H536.031V113.938H534.375V110.266H532.969V113.5H531.344ZM540.969 106.344C542.844 106.336 544.062 108.266 544.078 111.375C544.062 114.492 542.844 116.43 540.969 116.422C539.125 116.43 537.922 114.492 537.922 111.375C537.922 108.266 539.125 106.336 540.969 106.344ZM539.531 111.375C539.523 113.586 540.07 114.773 540.969 114.766C541.906 114.773 542.461 113.586 542.469 111.375C542.461 109.172 541.906 107.977 540.969 107.984C540.07 107.977 539.523 109.172 539.531 111.375ZM545.156 118.703V105.516H546.797V110.719H548.297V105.266H549.969V119.391H548.297V112.156H546.797V118.703H545.156ZM564.484 113.141V114.547H558.875V119.375H557.156V114.547H551.609V113.141H564.484ZM552.281 110.828C555.055 110.477 556.914 108.984 557.039 107.438H552.797V106.062H563.297V107.438H559.055C559.172 108.984 561.016 110.477 563.812 110.828L563.188 112.188C560.781 111.844 558.906 110.742 558.047 109.219C557.18 110.742 555.32 111.844 552.938 112.188L552.281 110.828ZM577.234 105.266V119.391H575.484V105.266H577.234ZM565.531 115.5C569.234 113.742 570.938 111.352 571.25 108.141H566.25V106.766H573.016C573.016 110.969 571.383 114.539 566.438 116.891L565.531 115.5ZM591.094 105.266V112.562H589.359V111.031H586.516V112.109H579.906V105.891H581.641V107.672H584.797V105.891H586.516V107.141H589.359V105.266H591.094ZM581.641 110.734H584.797V109H581.641V110.734ZM581.781 114.5V113.141H591.094V116.766H583.531V117.844H591.547V119.219H581.797V115.484H589.359V114.5H581.781ZM586.516 109.703H589.359V108.453H586.516V109.703ZM608.969 105.281V113.125H607.312V105.281H608.969ZM596.812 107.797V106.484H599.375V105.25H601.109V106.484H603.672V107.797H596.812ZM597.297 110.562C597.297 109.148 598.523 108.211 600.25 108.219C601.969 108.211 603.203 109.148 603.203 110.562C603.203 111.961 601.969 112.875 600.25 112.859C598.523 112.875 597.297 111.961 597.297 110.562ZM598.812 110.562C598.812 111.25 599.398 111.672 600.25 111.672C601.102 111.672 601.688 111.25 601.688 110.562C601.688 109.867 601.102 109.43 600.25 109.438C599.398 109.43 598.812 109.867 598.812 110.562ZM599.406 114.906V113.641H608.969V117.016H601.156V117.969H609.422V119.266H599.422V115.812H607.25V114.906H599.406ZM603.359 110.188V108.812H604.672V105.516H606.297V113.016H604.672V110.188H603.359ZM618.016 107.203C618.016 109.383 620.148 111.578 623.109 112.094L622.328 113.547C619.961 113.055 618.023 111.617 617.102 109.719C616.172 111.602 614.234 113.047 611.875 113.547L611.109 112.094C614.023 111.562 616.164 109.375 616.172 107.203V106.156H618.016V107.203ZM610.719 117.594V116.156H623.625V117.594H610.719ZM630.812 106.891C630.805 108.219 630.68 109.492 630.352 110.688H632.094V105.609H633.734V118.719H632.094V112.094H629.836C629.062 113.797 627.727 115.297 625.531 116.531L624.547 115.344C626.461 114.25 627.641 112.977 628.328 111.516L624.797 111.875L624.594 110.375L628.82 110.141C628.969 109.555 629.062 108.938 629.109 108.297H625.281V106.891H630.812ZM635.078 119.391V105.266H636.734V119.391H635.078ZM642.234 106.297C644.141 106.297 645.555 107.891 645.805 110.469H648.5V105.266H650.219V119.406H648.5V111.875H645.82C645.633 114.602 644.195 116.281 642.234 116.281C640.109 116.281 638.602 114.352 638.609 111.281C638.602 108.234 640.109 106.297 642.234 106.297ZM640.281 111.281C640.273 113.453 641.07 114.711 642.234 114.719C643.406 114.711 644.195 113.453 644.203 111.281C644.195 109.125 643.406 107.859 642.234 107.859C641.07 107.859 640.273 109.125 640.281 111.281ZM668.156 105.266V119.391H666.5V105.266H668.156ZM655.75 115.375C657.789 114.133 658.688 111.586 658.688 109.125V108.188H656.234V106.781H662.641V108.188H660.359V109.125C660.359 111.508 661.211 113.898 663.234 115.062L662.203 116.344C660.898 115.57 660.031 114.227 659.539 112.617C659.039 114.359 658.141 115.844 656.812 116.672L655.75 115.375ZM661.609 111.594V110.188H663.641V105.531H665.281V118.703H663.641V111.594H661.609ZM682.703 111.953V113.344H677.109V114.703H681.141V119.219H671.344V114.703H675.391V113.344H669.828V111.953H682.703ZM670.984 107.078V105.688H681.516V107.078H679.578V109.5H681.438V110.906H671.062V109.5H672.922V107.078H670.984ZM673.062 117.812H679.453V116.047H673.062V117.812ZM674.656 109.5H677.828V107.078H674.656V109.5Z" fill="#616161"/>
<rect x="414" y="148" width="300" height="47" rx="23.5" fill="#F6F7F9"/>
<path d="M462.367 164.266V167.984H464.336V169.438H462.367V173.281H460.633V164.266H462.367ZM451.242 167.062V165.703H454.57V164.172H456.305V165.703H459.617V167.062H451.242ZM451.961 170.156C451.961 168.641 453.367 167.633 455.43 167.625C457.469 167.633 458.875 168.641 458.883 170.156C458.875 171.672 457.469 172.672 455.43 172.672C453.367 172.672 451.961 171.672 451.961 170.156ZM453.086 175.891C453.07 174.32 454.875 173.398 457.805 173.406C460.703 173.398 462.523 174.32 462.523 175.891C462.523 177.445 460.703 178.375 457.805 178.375C454.875 178.375 453.07 177.445 453.086 175.891ZM453.648 170.156C453.641 170.922 454.359 171.367 455.43 171.359C456.5 171.367 457.227 170.922 457.227 170.156C457.227 169.375 456.5 168.906 455.43 168.906C454.359 168.906 453.641 169.375 453.648 170.156ZM454.805 175.891C454.797 176.641 455.875 177.062 457.805 177.062C459.711 177.062 460.781 176.641 460.789 175.891C460.781 175.117 459.711 174.734 457.805 174.734C455.875 174.734 454.797 175.117 454.805 175.891ZM476.195 164.266V167.531H478.164V168.938H476.195V172.344H474.461V164.266H476.195ZM465.211 168.453C465.203 166.461 466.844 165.062 469.023 165.078C471.195 165.062 472.82 166.461 472.836 168.453C472.82 170.438 471.195 171.836 469.023 171.844C466.844 171.836 465.203 170.438 465.211 168.453ZM466.914 168.453C466.906 169.625 467.805 170.367 469.023 170.375C470.227 170.367 471.125 169.625 471.133 168.453C471.125 167.289 470.227 166.523 469.023 166.531C467.805 166.523 466.906 167.289 466.914 168.453ZM467.07 178.219V172.969H476.195V178.219H467.07ZM468.789 176.812H474.477V174.344H468.789V176.812ZM483.977 165.156L480.336 178.703H478.586L482.242 165.156H483.977ZM491.867 165.453V166.578H494.711V164.281H496.445V174.562H494.711V171H491.867V172.219H485.227V165.453H491.867ZM486.961 170.859H490.148V166.828H486.961V170.859ZM487.133 178.109V173.609H488.898V176.703H496.758V178.109H487.133ZM491.867 169.609H494.711V168H491.867V169.609ZM510.273 173.281V178.391H508.539V174.656H500.648V173.281H510.273ZM498.633 168.469C498.633 166.469 500.234 165.031 502.367 165.047C503.531 165.039 504.547 165.477 505.211 166.219H508.539V164.266H510.273V172.609H508.539V170.734H505.227C504.555 171.484 503.539 171.938 502.367 171.938C500.234 171.938 498.633 170.5 498.633 168.469ZM500.289 168.469C500.289 169.695 501.156 170.461 502.367 170.469C503.523 170.461 504.406 169.695 504.414 168.469C504.406 167.289 503.523 166.508 502.367 166.516C501.156 166.508 500.289 167.289 500.289 168.469ZM505.961 169.328H508.539V167.641H505.969C506.031 167.906 506.07 168.18 506.07 168.469C506.07 168.766 506.031 169.055 505.961 169.328ZM517.367 165.156L513.727 178.703H511.977L515.633 165.156H517.367ZM529.492 170.469V171.875H525.32V175.297H530.914V176.703H518.008V175.297H523.57V171.875H519.492V165.391H521.273V170.469H529.492ZM538.586 165.031V169.266H534.133V170.938C536.406 170.922 537.695 170.859 539.195 170.594L539.367 172C537.68 172.297 536.219 172.352 533.445 172.344H532.414V167.938H536.852V166.438H532.383V165.031H538.586ZM534.086 175.797C534.07 174.125 535.906 173.141 538.914 173.141C541.906 173.141 543.727 174.125 543.727 175.797C543.727 177.484 541.906 178.445 538.914 178.438C535.906 178.445 534.07 177.484 534.086 175.797ZM535.836 175.797C535.828 176.664 536.922 177.102 538.914 177.109C540.883 177.102 542.008 176.664 542.008 175.797C542.008 174.93 540.883 174.477 538.914 174.484C536.922 174.477 535.828 174.93 535.836 175.797ZM539.461 170.578V169.172H541.93V167.688H539.461V166.281H541.93V164.281H543.664V172.906H541.93V170.578H539.461ZM552.836 165.484V172.156H546.148V165.484H552.836ZM547.758 178.109V173.578H549.492V176.703H557.367V178.109H547.758ZM547.852 170.781H551.133V166.875H547.852V170.781ZM555.07 174.578V164.266H556.805V168.406H558.773V169.859H556.805V174.578H555.07ZM564.664 166.297C564.656 168.219 565.781 169.977 567.992 170.672L567.055 172.031C565.516 171.484 564.438 170.453 563.836 169.117C563.211 170.656 562.031 171.867 560.32 172.469L559.398 171.062C561.734 170.297 562.906 168.414 562.914 166.375V165.031H564.664V166.297ZM561.742 175.672C561.727 173.953 563.562 172.945 566.539 172.953C569.531 172.945 571.359 173.953 571.367 175.672C571.359 177.391 569.531 178.375 566.539 178.375C563.562 178.375 561.727 177.391 561.742 175.672ZM563.461 175.672C563.453 176.531 564.578 177.008 566.539 177.016C568.516 177.008 569.633 176.531 569.633 175.672C569.633 174.781 568.516 174.305 566.539 174.297C564.578 174.305 563.453 174.781 563.461 175.672ZM566.773 168.422V167H569.586V164.266H571.32V172.578H569.586V168.422H566.773ZM585.055 164.266V171.547H583.336V164.266H585.055ZM573.43 170.281C575.625 169.633 576.836 168.039 576.922 166.375H573.883V164.969H581.648V166.375H578.688C578.766 167.938 579.961 169.422 582.148 170.016L581.305 171.359C579.656 170.883 578.477 169.883 577.836 168.602C577.195 170.016 575.969 171.133 574.227 171.656L573.43 170.281ZM575.711 173.469V172.141H585.086V175.781H577.445V176.922H585.508V178.266H575.742V174.516H583.352V173.469H575.711ZM598.336 164.266V169H600.242V170.438H598.336V175.297H596.602V164.266H598.336ZM587.023 172.469C588.078 172.469 589.305 172.461 590.586 172.422V171.523C589.016 171.328 588.016 170.555 588.023 169.422C588.016 168.039 589.383 167.219 591.43 167.234C593.484 167.219 594.836 168.039 594.836 169.422C594.836 170.547 593.867 171.312 592.32 171.523V172.336C593.523 172.266 594.734 172.156 595.867 171.984L596.008 173.203C593.016 173.766 589.648 173.805 587.211 173.828L587.023 172.469ZM587.383 166.766V165.5H590.586V164.219H592.32V165.5H595.492V166.766H587.383ZM589.055 178.109V174.562H590.789V176.703H598.836V178.109H589.055ZM589.695 169.422C589.68 170.031 590.336 170.391 591.43 170.391C592.523 170.391 593.18 170.031 593.18 169.422C593.18 168.758 592.523 168.398 591.43 168.406C590.336 168.398 589.68 168.758 589.695 169.422ZM606.039 168.281C606.031 170.461 607.344 172.945 609.57 173.984L608.602 175.359C607.008 174.609 605.828 173.094 605.195 171.328C604.555 173.266 603.32 174.922 601.695 175.703L600.68 174.344C602.93 173.273 604.297 170.633 604.305 168.281V167.094H601.227V165.656H608.992V167.094H606.039V168.281ZM610.305 178.391V164.266H612.039V169.766H614.211V171.219H612.039V178.391H610.305ZM624.867 165.891C624.859 167.219 624.734 168.492 624.406 169.688H626.148V164.609H627.789V177.719H626.148V171.094H623.891C623.117 172.797 621.781 174.297 619.586 175.531L618.602 174.344C620.516 173.25 621.695 171.977 622.383 170.516L618.852 170.875L618.648 169.375L622.875 169.141C623.023 168.555 623.117 167.938 623.164 167.297H619.336V165.891H624.867ZM629.133 178.391V164.266H630.789V178.391H629.133ZM636.289 165.297C638.195 165.297 639.609 166.891 639.859 169.469H642.555V164.266H644.273V178.406H642.555V170.875H639.875C639.688 173.602 638.25 175.281 636.289 175.281C634.164 175.281 632.656 173.352 632.664 170.281C632.656 167.234 634.164 165.297 636.289 165.297ZM634.336 170.281C634.328 172.453 635.125 173.711 636.289 173.719C637.461 173.711 638.25 172.453 638.258 170.281C638.25 168.125 637.461 166.859 636.289 166.859C635.125 166.859 634.328 168.125 634.336 170.281ZM662.211 164.266V178.391H660.555V164.266H662.211ZM649.805 174.375C651.844 173.133 652.742 170.586 652.742 168.125V167.188H650.289V165.781H656.695V167.188H654.414V168.125C654.414 170.508 655.266 172.898 657.289 174.062L656.258 175.344C654.953 174.57 654.086 173.227 653.594 171.617C653.094 173.359 652.195 174.844 650.867 175.672L649.805 174.375ZM655.664 170.594V169.188H657.695V164.531H659.336V177.703H657.695V170.594H655.664ZM676.758 170.953V172.344H671.164V173.703H675.195V178.219H665.398V173.703H669.445V172.344H663.883V170.953H676.758ZM665.039 166.078V164.688H675.57V166.078H673.633V168.5H675.492V169.906H665.117V168.5H666.977V166.078H665.039ZM667.117 176.812H673.508V175.047H667.117V176.812ZM668.711 168.5H671.883V166.078H668.711V168.5Z" fill="#616161"/>
<rect x="414" y="207" width="300" height="47" rx="23.5" fill="#F6F7F9"/>
<path d="M472.742 223.266V230.547H471.023V223.266H472.742ZM461.117 229.281C463.312 228.633 464.523 227.039 464.609 225.375H461.57V223.969H469.336V225.375H466.375C466.453 226.938 467.648 228.422 469.836 229.016L468.992 230.359C467.344 229.883 466.164 228.883 465.523 227.602C464.883 229.016 463.656 230.133 461.914 230.656L461.117 229.281ZM463.398 232.469V231.141H472.773V234.781H465.133V235.922H473.195V237.266H463.43V233.516H471.039V232.469H463.398ZM477.211 224.125V226.156H480.367V224.125H482.086V225.438H484.93V223.266H486.664V231.75H484.93V229.719H482.086V230.844H475.477V224.125H477.211ZM477.086 234.703C477.07 232.984 478.906 232 481.883 232C484.875 232 486.703 232.984 486.711 234.703C486.703 236.391 484.875 237.375 481.883 237.375C478.906 237.375 477.07 236.391 477.086 234.703ZM477.211 229.484H480.367V227.516H477.211V229.484ZM478.805 234.703C478.797 235.562 479.922 236.031 481.883 236.031C483.859 236.031 484.977 235.562 484.977 234.703C484.977 233.797 483.859 233.336 481.883 233.328C479.922 233.336 478.797 233.797 478.805 234.703ZM482.086 228.312H484.93V226.812H482.086V228.312ZM505.352 231.188V232.594H502.211V237.391H500.445V232.594H497.32V237.391H495.539V232.594H492.445V231.188H505.352ZM493.805 226.922C493.797 225 495.859 223.773 498.867 223.766C501.875 223.773 503.953 225 503.961 226.922C503.953 228.82 501.875 230.016 498.867 230.016C495.859 230.016 493.797 228.82 493.805 226.922ZM495.586 226.922C495.578 228 496.875 228.633 498.867 228.641C500.867 228.633 502.164 228 502.164 226.922C502.164 225.812 500.867 225.172 498.867 225.172C496.875 225.172 495.578 225.812 495.586 226.922ZM518.117 223.281V233.594H516.383V228.422H513.883V227.016H516.383V223.281H518.117ZM506.258 230.547C508.508 229.805 509.711 227.961 509.711 226.078V225.703H506.773V224.297H514.398V225.703H511.477V226.094C511.477 227.789 512.617 229.547 514.805 230.266L513.93 231.656C512.352 231.117 511.234 230.039 510.617 228.703C510 230.188 508.82 231.375 507.148 231.953L506.258 230.547ZM508.852 237.109V232.688H510.586V235.703H518.477V237.109H508.852ZM525.18 227.281C525.172 229.461 526.484 231.945 528.711 232.984L527.742 234.359C526.148 233.609 524.969 232.094 524.336 230.328C523.695 232.266 522.461 233.922 520.836 234.703L519.82 233.344C522.07 232.273 523.438 229.633 523.445 227.281V226.094H520.367V224.656H528.133V226.094H525.18V227.281ZM529.445 237.391V223.266H531.18V228.766H533.352V230.219H531.18V237.391H529.445ZM539.039 224.156L535.398 237.703H533.648L537.305 224.156H539.039ZM546.867 224.641V233.891H540.18V224.641H546.867ZM541.883 232.5H545.133V226H541.883V232.5ZM549.008 237.391V223.266H550.742V228.688H552.914V230.156H550.742V237.391H549.008ZM565.258 223.266V237.406H563.508V223.266H565.258ZM553.961 229.281C553.953 226.234 555.508 224.297 557.648 224.297C559.766 224.297 561.328 226.234 561.336 229.281C561.328 232.352 559.766 234.281 557.648 234.281C555.508 234.281 553.953 232.352 553.961 229.281ZM555.633 229.281C555.633 231.453 556.453 232.711 557.648 232.719C558.836 232.711 559.648 231.453 559.648 229.281C559.648 227.125 558.836 225.859 557.648 225.859C556.453 225.859 555.633 227.125 555.633 229.281ZM578.789 224.578V226.266C578.789 228.32 578.789 230.258 578.164 233.25L576.43 233.094C576.719 231.859 576.875 230.773 576.969 229.773L568.648 230.203L568.414 228.797L577.047 228.469C577.078 227.711 577.086 226.984 577.086 226.266V225.984H568.836V224.578H578.789ZM567.336 235.594V234.172H580.211V235.594H567.336ZM594.07 234.312V235.75H581.164V234.312H586.727V232.016H582.695V227.391H590.82V225.641H582.664V224.234H592.539V228.766H584.43V230.594H592.867V232.016H588.445V234.312H594.07ZM606.055 223.266V228.641H608.227V230.109H606.055V237.391H604.32V223.266H606.055ZM595.492 234.078V224.422H597.211V227.953H600.539V224.422H602.273V234.078H595.492ZM597.211 232.656H600.539V229.312H597.211V232.656ZM620.57 223.266V237.406H618.82V223.266H620.57ZM609.273 229.281C609.266 226.234 610.82 224.297 612.961 224.297C615.078 224.297 616.641 226.234 616.648 229.281C616.641 232.352 615.078 234.281 612.961 234.281C610.82 234.281 609.266 232.352 609.273 229.281ZM610.945 229.281C610.945 231.453 611.766 232.711 612.961 232.719C614.148 232.711 614.961 231.453 614.961 229.281C614.961 227.125 614.148 225.859 612.961 225.859C611.766 225.859 610.945 227.125 610.945 229.281ZM629.07 223.5C632.195 223.5 634.156 224.516 634.164 226.203C634.156 227.734 632.547 228.719 629.914 228.883V230H635.523V231.406H622.648V230H628.211V228.883C625.609 228.711 623.977 227.727 623.977 226.203C623.977 224.516 625.977 223.5 629.07 223.5ZM624.164 237.219V232.469H633.961V237.219H624.164ZM625.789 226.203C625.773 227.109 627.008 227.578 629.07 227.578C631.133 227.578 632.367 227.109 632.367 226.203C632.367 225.328 631.133 224.836 629.07 224.844C627.008 224.836 625.773 225.328 625.789 226.203ZM625.883 235.812H632.273V233.844H625.883V235.812ZM645.633 226.141C645.633 227.898 646.836 229.617 649.086 230.312L648.195 231.672C646.594 231.156 645.43 230.094 644.781 228.75C644.148 230.211 642.945 231.375 641.273 231.953L640.383 230.578C642.656 229.828 643.867 228 643.883 226.141V225.734H640.836V224.344H648.602V225.734H645.633V226.141ZM642.695 237.109V232.594H644.445V235.703H652.43V237.109H642.695ZM650.289 233.531V223.281H652.039V233.531H650.289ZM665.242 223.266V227.234H667.227V228.672H665.242V233.484H663.508V223.266H665.242ZM654.695 231.094V224.438H661.023V225.828H656.414V229.672C659.07 229.672 660.547 229.586 662.227 229.234L662.414 230.641C660.562 231.008 658.922 231.094 655.836 231.094H654.695ZM656.195 237.109V232.406H657.93V235.703H665.805V237.109H656.195Z" fill="#616161"/>
<rect x="414" y="266" width="300" height="47" rx="23.5" fill="#F6F7F9"/>
<path d="M472.492 288.469V289.875H468.32V293.297H473.914V294.703H461.008V293.297H466.57V289.875H462.492V283.391H464.273V288.469H472.492ZM481.586 283.031V287.266H477.133V288.938C479.406 288.922 480.695 288.859 482.195 288.594L482.367 290C480.68 290.297 479.219 290.352 476.445 290.344H475.414V285.938H479.852V284.438H475.383V283.031H481.586ZM477.086 293.797C477.07 292.125 478.906 291.141 481.914 291.141C484.906 291.141 486.727 292.125 486.727 293.797C486.727 295.484 484.906 296.445 481.914 296.438C478.906 296.445 477.07 295.484 477.086 293.797ZM478.836 293.797C478.828 294.664 479.922 295.102 481.914 295.109C483.883 295.102 485.008 294.664 485.008 293.797C485.008 292.93 483.883 292.477 481.914 292.484C479.922 292.477 478.828 292.93 478.836 293.797ZM482.461 288.578V287.172H484.93V285.688H482.461V284.281H484.93V282.281H486.664V290.906H484.93V288.578H482.461ZM495.836 283.484V290.156H489.148V283.484H495.836ZM490.758 296.109V291.578H492.492V294.703H500.367V296.109H490.758ZM490.852 288.781H494.133V284.875H490.852V288.781ZM498.07 292.578V282.266H499.805V286.406H501.773V287.859H499.805V292.578H498.07ZM507.664 284.297C507.656 286.219 508.781 287.977 510.992 288.672L510.055 290.031C508.516 289.484 507.438 288.453 506.836 287.117C506.211 288.656 505.031 289.867 503.32 290.469L502.398 289.062C504.734 288.297 505.906 286.414 505.914 284.375V283.031H507.664V284.297ZM504.742 293.672C504.727 291.953 506.562 290.945 509.539 290.953C512.531 290.945 514.359 291.953 514.367 293.672C514.359 295.391 512.531 296.375 509.539 296.375C506.562 296.375 504.727 295.391 504.742 293.672ZM506.461 293.672C506.453 294.531 507.578 295.008 509.539 295.016C511.516 295.008 512.633 294.531 512.633 293.672C512.633 292.781 511.516 292.305 509.539 292.297C507.578 292.305 506.453 292.781 506.461 293.672ZM509.773 286.422V285H512.586V282.266H514.32V290.578H512.586V286.422H509.773ZM528.055 282.266V289.547H526.336V282.266H528.055ZM516.43 288.281C518.625 287.633 519.836 286.039 519.922 284.375H516.883V282.969H524.648V284.375H521.688C521.766 285.938 522.961 287.422 525.148 288.016L524.305 289.359C522.656 288.883 521.477 287.883 520.836 286.602C520.195 288.016 518.969 289.133 517.227 289.656L516.43 288.281ZM518.711 291.469V290.141H528.086V293.781H520.445V294.922H528.508V296.266H518.742V292.516H526.352V291.469H518.711ZM541.336 282.266V287H543.242V288.438H541.336V293.297H539.602V282.266H541.336ZM530.023 290.469C531.078 290.469 532.305 290.461 533.586 290.422V289.523C532.016 289.328 531.016 288.555 531.023 287.422C531.016 286.039 532.383 285.219 534.43 285.234C536.484 285.219 537.836 286.039 537.836 287.422C537.836 288.547 536.867 289.312 535.32 289.523V290.336C536.523 290.266 537.734 290.156 538.867 289.984L539.008 291.203C536.016 291.766 532.648 291.805 530.211 291.828L530.023 290.469ZM530.383 284.766V283.5H533.586V282.219H535.32V283.5H538.492V284.766H530.383ZM532.055 296.109V292.562H533.789V294.703H541.836V296.109H532.055ZM532.695 287.422C532.68 288.031 533.336 288.391 534.43 288.391C535.523 288.391 536.18 288.031 536.18 287.422C536.18 286.758 535.523 286.398 534.43 286.406C533.336 286.398 532.68 286.758 532.695 287.422ZM549.039 286.281C549.031 288.461 550.344 290.945 552.57 291.984L551.602 293.359C550.008 292.609 548.828 291.094 548.195 289.328C547.555 291.266 546.32 292.922 544.695 293.703L543.68 292.344C545.93 291.273 547.297 288.633 547.305 286.281V285.094H544.227V283.656H551.992V285.094H549.039V286.281ZM553.305 296.391V282.266H555.039V287.766H557.211V289.219H555.039V296.391H553.305ZM566.961 285.141C566.961 286.898 568.164 288.617 570.414 289.312L569.523 290.672C567.922 290.156 566.758 289.094 566.109 287.75C565.477 289.211 564.273 290.375 562.602 290.953L561.711 289.578C563.984 288.828 565.195 287 565.211 285.141V284.734H562.164V283.344H569.93V284.734H566.961V285.141ZM564.023 296.109V291.594H565.773V294.703H573.758V296.109H564.023ZM571.617 292.531V282.281H573.367V292.531H571.617ZM586.57 282.266V286.234H588.555V287.672H586.57V292.484H584.836V282.266H586.57ZM576.023 290.094V283.438H582.352V284.828H577.742V288.672C580.398 288.672 581.875 288.586 583.555 288.234L583.742 289.641C581.891 290.008 580.25 290.094 577.164 290.094H576.023ZM577.523 296.109V291.406H579.258V294.703H587.133V296.109H577.523ZM594.352 283.156L590.711 296.703H588.961L592.617 283.156H594.352ZM601.258 283.891C601.25 285.219 601.125 286.492 600.797 287.688H602.539V282.609H604.18V295.719H602.539V289.094H600.281C599.508 290.797 598.172 292.297 595.977 293.531L594.992 292.344C596.906 291.25 598.086 289.977 598.773 288.516L595.242 288.875L595.039 287.375L599.266 287.141C599.414 286.555 599.508 285.938 599.555 285.297H595.727V283.891H601.258ZM605.523 296.391V282.266H607.18V296.391H605.523ZM612.68 283.297C614.586 283.297 616 284.891 616.25 287.469H618.945V282.266H620.664V296.406H618.945V288.875H616.266C616.078 291.602 614.641 293.281 612.68 293.281C610.555 293.281 609.047 291.352 609.055 288.281C609.047 285.234 610.555 283.297 612.68 283.297ZM610.727 288.281C610.719 290.453 611.516 291.711 612.68 291.719C613.852 291.711 614.641 290.453 614.648 288.281C614.641 286.125 613.852 284.859 612.68 284.859C611.516 284.859 610.719 286.125 610.727 288.281ZM638.133 282.672V283.984H636.195V286.125H638.055V287.438H627.68V286.125H629.539V283.984H627.602V282.672H638.133ZM626.445 289.703V288.328H639.32V289.703H626.445ZM627.961 291.922V290.656H637.711V294.016H629.68V294.969H638.102V296.266H627.977V292.812H636.008V291.922H627.961ZM631.273 286.125H634.445V283.984H631.273V286.125ZM652.352 282.281V291.812H650.695V287.203H649.227V290.625H647.602V282.547H649.227V285.797H650.695V282.281H652.352ZM640.852 284.703V283.297H646.227V287.469H642.555V289.102C644.203 289.086 645.445 289 646.883 288.719L647.039 290.078C645.359 290.422 643.938 290.469 641.836 290.469H640.867V286.203H644.555V284.703H640.852ZM641.992 294.969C644.828 294.594 646.633 293.07 646.648 291.469V291.172H648.383V291.469C648.375 293.07 650.18 294.594 653.039 294.969L652.336 296.312C650.125 295.984 648.383 294.984 647.516 293.594C646.641 294.984 644.898 295.984 642.695 296.312L641.992 294.969ZM666.977 289.203V290.578H654.102V289.203H659.648V287.906H655.336V286.5H657.195V284.078H655.258V282.688H665.789V284.078H663.852V286.5H665.711V287.906H661.383V289.203H666.977ZM655.617 296.219V291.688H665.414V296.219H655.617ZM657.336 294.812H663.727V293.047H657.336V294.812ZM658.93 286.5H662.102V284.078H658.93V286.5Z" fill="#616161"/>
<circle cx="114" cy="171" r="82.5" fill="white" stroke="#1B2E69" stroke-width="3"/>
<g clip-path="url(#clip0_148_4109)">
<path d="M114.105 222.118V122.504" stroke="#1B2E69" stroke-width="3.02487"/>
<path d="M64.2991 171H163.913" stroke="#1B2E69" stroke-width="3.02487"/>
<path d="M163.473 171C163.473 198.328 141.321 220.479 113.992 220.479C86.662 220.479 64.5149 198.323 64.5149 171C64.5149 143.676 86.667 121.52 113.997 121.52C141.326 121.52 163.478 143.671 163.478 171H163.473Z" stroke="#1B2E69" stroke-width="5.04145"/>
<path d="M141.552 198.555C156.771 183.337 156.771 158.663 141.552 143.445C126.333 128.227 101.658 128.227 86.4393 143.445C71.2204 158.663 71.2204 183.337 86.4393 198.555C101.658 213.773 126.333 213.773 141.552 198.555Z" fill="white" stroke="#1B2E69" stroke-width="2.52072"/>
<path d="M105.466 155.751C104.513 155.171 103.213 153.729 102.83 152.534C102.456 153.845 101.282 155.302 100.087 155.948L99.1846 154.838C101.025 153.644 102.028 151.829 102.028 149.55V147.801H103.571V149.474C103.571 151.738 104.599 153.513 106.323 154.622L105.461 155.756L105.466 155.751ZM107.332 158.297V151.975H105.26V150.699H107.332V146.823H108.849V158.292H107.332V158.297Z" fill="#1B2E69"/>
<path d="M111.748 158.247V155.353H118.03V154.723H111.738V153.538H114.889V152.817H110.488V151.607H120.848V152.817H116.396V153.538H119.522V156.422H113.24V157.017H119.895V158.252H111.748V158.247ZM115.685 147.04C118.256 147.04 119.739 147.851 119.739 149.096C119.739 150.342 118.256 151.143 115.685 151.143C113.114 151.143 111.632 150.322 111.632 149.096C111.632 147.871 113.114 147.04 115.685 147.04ZM115.685 150.009C117.268 150.009 118.196 149.611 118.196 149.096C118.196 148.582 117.268 148.184 115.685 148.184C114.102 148.184 113.19 148.572 113.19 149.096C113.19 149.621 114.112 150.009 115.685 150.009Z" fill="#1B2E69"/>
<path d="M126.784 154.087L126.925 155.272C126.063 155.504 124.374 155.579 123.048 155.579H121.954V148.194H126.29V149.388C125.352 149.388 124.409 149.378 123.457 149.378V154.344C124.626 154.385 126.008 154.279 126.779 154.087M129.93 158.297V152.544H128.911V157.767H127.495V147.034H128.911V151.345H129.93V146.827H131.372V158.297H129.93Z" fill="#1B2E69"/>
<path d="M87.0406 178.023V173.945H82.6495V172.76H93.0097V173.945H88.5581V178.023H87.0406ZM91.9308 171.807C90.2319 171.55 88.4069 170.456 87.8372 169.196C87.3381 170.456 85.508 171.54 83.7687 171.822L83.1285 170.587C85.1098 170.37 87.0406 169.095 87.0406 167.381V166.791H88.6388V167.381C88.6388 169.09 90.7511 170.416 92.5913 170.587L91.9359 171.812L91.9308 171.807Z" fill="#1B2E69"/>
<path d="M97.6232 175.411C96.3477 175.462 94.9865 175.517 94.0185 175.502L93.8018 174.217C95.1277 174.217 96.2317 174.207 97.5324 174.156C98.9592 174.106 100.351 174 101.369 173.874L101.5 175.084C100.406 175.225 98.8482 175.356 97.6282 175.416M97.4366 167.285C99.3776 167.285 100.613 168.429 100.613 170.037C100.613 171.645 99.3776 172.79 97.4366 172.79C95.4957 172.79 94.2454 171.63 94.2454 170.037C94.2454 168.444 95.5058 167.285 97.4366 167.285ZM97.4366 171.53C98.4802 171.53 99.0953 170.874 99.0953 170.022C99.0953 169.17 98.4752 168.555 97.4366 168.555C96.3981 168.555 95.7881 169.216 95.7881 170.022C95.7881 170.874 96.4031 171.53 97.4366 171.53ZM103.471 178.018H101.979V166.549H103.471V178.018Z" fill="#1B2E69"/>
<path d="M110.827 171.716V172.452H115.278V173.662H104.918V172.452H109.319V171.716H106.279V166.967H113.977V168.137H107.787V168.782H113.589V169.916H107.787V170.546H114.078V171.716H110.822H110.827ZM110.106 178.124C107.328 178.124 106.103 177.277 106.103 176.102C106.103 174.927 107.323 174.081 110.09 174.081C112.858 174.081 114.103 174.917 114.103 176.102C114.103 177.287 112.878 178.124 110.101 178.124M110.085 175.25C108.603 175.25 107.655 175.573 107.655 176.102C107.655 176.631 108.608 176.924 110.085 176.924C111.563 176.924 112.546 176.631 112.546 176.102C112.546 175.573 111.603 175.25 110.085 175.25Z" fill="#1B2E69"/>
<path d="M115.962 168.459H122.682V169.594H115.962V168.459ZM119.385 173.556C117.802 173.556 116.617 172.81 116.617 171.691C116.617 170.572 117.787 169.836 119.385 169.836C120.983 169.836 122.103 170.607 122.103 171.691C122.103 172.775 120.943 173.556 119.385 173.556ZM117.585 177.922V173.869H119.078V174.756H123.519V173.854H125.027V177.922H117.585ZM117.691 166.776H121.089V167.92H117.691V166.776ZM119.39 172.452C120.046 172.452 120.625 172.17 120.625 171.691C120.625 171.212 120.046 170.945 119.39 170.945C118.694 170.945 118.13 171.227 118.13 171.691C118.13 172.155 118.71 172.452 119.39 172.452ZM123.519 175.926H119.078V176.738H123.519V175.926ZM125.027 170.91V173.314H123.519V166.544H125.027V169.674H126.635V170.91H125.027Z" fill="#1B2E69"/>
<path d="M131.029 175.411C129.753 175.462 128.387 175.517 127.424 175.502L127.202 174.217C128.528 174.217 129.637 174.207 130.933 174.156C132.36 174.106 133.751 174 134.769 173.874L134.901 175.084C133.807 175.225 132.249 175.356 131.029 175.416M130.832 167.285C132.778 167.285 134.013 168.429 134.013 170.037C134.013 171.645 132.778 172.79 130.832 172.79C128.886 172.79 127.641 171.63 127.641 170.037C127.641 168.444 128.901 167.285 130.832 167.285ZM130.832 171.53C131.876 171.53 132.496 170.874 132.496 170.022C132.496 169.17 131.876 168.555 130.832 168.555C129.789 168.555 129.184 169.216 129.184 170.022C129.184 170.874 129.804 171.53 130.832 171.53ZM136.872 178.018H135.379V166.549H136.872V178.018Z" fill="#1B2E69"/>
<path d="M138.23 168.409H144.885V169.579H138.23V168.409ZM141.588 173.854C140.02 173.854 138.835 173.042 138.835 171.857C138.835 170.673 140.01 169.876 141.588 169.876C143.166 169.876 144.305 170.678 144.305 171.857C144.305 173.037 143.146 173.854 141.588 173.854ZM147.29 174.353V178.023H145.783V175.553H139.733V174.353H147.29ZM139.889 166.735H143.287V167.905H139.889V166.735ZM141.588 172.704C142.259 172.704 142.823 172.356 142.823 171.857C142.823 171.358 142.259 171.021 141.588 171.021C140.918 171.021 140.338 171.358 140.338 171.857C140.338 172.356 140.907 172.704 141.588 172.704ZM147.29 171.021V173.803H145.772V166.544H147.29V169.811H148.898V171.021H147.29Z" fill="#1B2E69"/>
<path d="M96.8626 187.092C98.6876 187.092 99.8774 188.287 99.8774 189.945C99.8774 191.604 98.6927 192.804 96.8626 192.804C95.0326 192.804 93.8378 191.609 93.8378 189.945C93.8378 188.282 95.0225 187.092 96.8626 187.092ZM96.8626 191.544C97.7751 191.544 98.3448 190.858 98.3448 189.935C98.3448 189.058 97.7802 188.362 96.8626 188.362C95.9451 188.362 95.3704 189.058 95.3704 189.935C95.3704 190.863 95.935 191.544 96.8626 191.544ZM95.5872 197.412V193.792H97.1198V196.227H103.517V197.412H95.5872ZM100.155 190.55H101.763V188.977H100.155L100.129 187.702H101.763V186.25H103.27V194.563H101.763V191.821H100.114L100.155 190.545V190.55Z" fill="#1B2E69"/>
<path d="M113.586 191.765H115.285V192.96H110.834V197.724H109.326V192.96H104.925V191.765H112.154C112.361 190.772 112.462 189.486 112.462 188.085H106.195V186.875H113.954C113.954 188.73 113.838 190.454 113.581 191.765" fill="#1B2E69"/>
<path d="M121.074 193.026C120.313 192.693 119.285 191.674 118.987 190.928C118.68 191.831 117.752 192.935 116.774 193.383L115.952 192.355C117.339 191.579 118.206 190.202 118.206 188.584V187.167H119.683V188.544C119.683 190.142 120.636 191.362 121.82 191.916L121.074 193.026ZM118.065 197.452V193.772H119.582V196.257H126.08V197.452H118.065ZM122.183 194.467V190.273H120.807V189.063H122.183V186.462H123.585V194.467H122.183ZM124.371 186.255H125.813V194.75H124.371V186.255Z" fill="#1B2E69"/>
<path d="M133.557 193.631L133.724 194.775C132.539 195.047 130.558 195.173 128.733 195.163L127.639 195.153V187.248H132.902V188.443H129.116V190.389H132.413V191.584H129.116V193.938C130.482 193.963 132.257 193.953 133.557 193.631ZM135.166 197.724V191.639H133.25V190.354H135.166V186.26H136.658V197.729H135.166V197.724Z" fill="#1B2E69"/>
</g>
<circle cx="262" cy="171" r="84" fill="#5FAFFE"/>
<g clip-path="url(#clip1_148_4109)">
<path d="M276.009 149.004C272.019 150.785 267.601 151.787 262.952 151.787C258.304 151.787 253.885 150.785 249.896 149.004L262.957 123L276.014 149.004H276.009ZM231.798 185.055L236.927 174.836C241.151 176.504 244.262 180.396 244.778 185.055H231.793H231.798ZM267.371 182.761L257.39 162.876L247.26 183.056C246.152 178.203 242.714 174.225 238.183 172.353L248.66 151.487C253.027 153.455 257.865 154.559 262.962 154.559C268.06 154.559 272.898 153.455 277.265 151.487L282.077 161.065C274.195 165.486 268.571 173.442 267.381 182.761H267.371ZM269.95 185.055C270.43 175.838 275.697 167.866 283.308 163.548L286.878 170.664L279.651 185.055H269.945H269.95ZM282.772 185.055L288.442 173.762L294.112 185.055H282.772Z" fill="white"/>
<path d="M233.305 207.885H230.404L228.953 204.574H224.448L222.926 207.885H221L227.273 194.049L233.305 207.885ZM224.989 203.444H228.473L226.757 199.522L224.989 203.444Z" fill="white"/>
<path d="M240.146 201.628C240.146 201.394 240.12 201.191 240.074 201.008C240.023 200.825 239.962 200.672 239.88 200.55C239.798 200.428 239.701 200.336 239.599 200.27C239.492 200.209 239.385 200.179 239.272 200.179C239.16 200.179 239.027 200.204 238.879 200.25C238.731 200.296 238.577 200.367 238.414 200.453C238.251 200.54 238.087 200.647 237.913 200.769C237.74 200.891 237.581 201.033 237.428 201.191V207.885H234.762V199.553L237.428 198.531V199.461C237.837 199.151 238.276 198.922 238.741 198.775C239.206 198.627 239.671 198.556 240.13 198.556C240.488 198.556 240.83 198.627 241.152 198.775C241.474 198.922 241.755 199.121 241.995 199.37C242.235 199.619 242.429 199.914 242.572 200.25C242.715 200.586 242.787 200.947 242.787 201.328V207.88H240.146V201.623V201.628Z" fill="white"/>
<path d="M245.32 195.524C245.32 195.341 245.356 195.163 245.433 194.995C245.504 194.827 245.611 194.685 245.739 194.568C245.872 194.451 246.02 194.354 246.194 194.283C246.367 194.212 246.551 194.176 246.751 194.176C246.95 194.176 247.134 194.212 247.307 194.283C247.481 194.354 247.634 194.451 247.762 194.568C247.89 194.685 247.992 194.832 248.063 194.995C248.135 195.163 248.176 195.336 248.176 195.524C248.176 195.712 248.14 195.885 248.063 196.048C247.987 196.211 247.89 196.353 247.762 196.475C247.634 196.592 247.481 196.689 247.307 196.76C247.134 196.831 246.945 196.867 246.751 196.867C246.556 196.867 246.367 196.831 246.194 196.76C246.02 196.689 245.872 196.592 245.739 196.475C245.606 196.358 245.504 196.216 245.433 196.048C245.356 195.885 245.32 195.707 245.32 195.524ZM245.433 199.553L248.089 198.53V207.885H245.433V199.553Z" fill="white"/>
<path d="M250.892 195.066L253.559 194.044V199.349C253.901 199.115 254.274 198.927 254.678 198.775C255.081 198.627 255.469 198.551 255.847 198.551C256.394 198.551 256.9 198.658 257.359 198.876C257.819 199.095 258.217 199.39 258.555 199.761C258.892 200.133 259.152 200.57 259.341 201.064C259.53 201.557 259.622 202.086 259.622 202.641C259.622 203.129 259.561 203.602 259.443 204.06C259.326 204.518 259.152 204.945 258.938 205.342C258.718 205.744 258.458 206.11 258.146 206.44C257.839 206.776 257.497 207.061 257.119 207.295C256.741 207.529 256.343 207.712 255.909 207.844C255.48 207.977 255.03 208.043 254.565 208.043C253.876 208.043 253.217 207.946 252.588 207.753C251.96 207.56 251.393 207.249 250.892 206.827V195.056V195.066ZM253.559 206.227C253.651 206.308 253.743 206.39 253.84 206.471C253.937 206.547 254.039 206.619 254.146 206.674C254.254 206.736 254.371 206.781 254.499 206.817C254.626 206.853 254.759 206.873 254.907 206.873C255.204 206.873 255.474 206.781 255.714 206.593C255.955 206.405 256.164 206.145 256.338 205.815C256.511 205.484 256.644 205.092 256.741 204.645C256.833 204.192 256.884 203.709 256.884 203.19C256.884 202.803 256.833 202.437 256.741 202.091C256.644 201.75 256.511 201.445 256.343 201.186C256.174 200.926 255.975 200.723 255.75 200.57C255.52 200.423 255.28 200.346 255.025 200.346C254.769 200.346 254.524 200.423 254.259 200.575C253.993 200.728 253.758 200.921 253.569 201.15V206.227H253.559Z" fill="white"/>
<path d="M261.512 195.524C261.512 195.341 261.547 195.163 261.624 194.995C261.696 194.827 261.803 194.685 261.931 194.568C262.063 194.451 262.212 194.354 262.385 194.283C262.559 194.212 262.743 194.176 262.942 194.176C263.141 194.176 263.325 194.212 263.499 194.283C263.672 194.354 263.826 194.451 263.953 194.568C264.081 194.685 264.183 194.832 264.255 194.995C264.326 195.163 264.367 195.336 264.367 195.524C264.367 195.712 264.331 195.885 264.255 196.048C264.178 196.211 264.081 196.353 263.953 196.475C263.826 196.592 263.672 196.689 263.499 196.76C263.325 196.831 263.136 196.867 262.942 196.867C262.748 196.867 262.559 196.831 262.385 196.76C262.212 196.689 262.063 196.592 261.931 196.475C261.798 196.358 261.696 196.216 261.624 196.048C261.547 195.885 261.512 195.707 261.512 195.524ZM261.624 199.553L264.28 198.53V207.885H261.624V199.553Z" fill="white"/>
<path d="M271.095 208.053C270.401 208.053 269.757 207.936 269.17 207.697C268.582 207.458 268.071 207.132 267.642 206.71C267.213 206.293 266.876 205.8 266.636 205.24C266.396 204.675 266.273 204.065 266.273 203.409C266.273 202.707 266.396 202.056 266.636 201.461C266.876 200.865 267.213 200.357 267.637 199.924C268.066 199.497 268.572 199.161 269.16 198.917C269.747 198.673 270.391 198.556 271.085 198.556C271.78 198.556 272.424 198.673 273.016 198.912C273.609 199.146 274.119 199.472 274.549 199.884C274.978 200.296 275.315 200.779 275.56 201.338C275.805 201.898 275.928 202.498 275.928 203.144C275.928 203.79 275.805 204.457 275.565 205.052C275.325 205.647 274.988 206.171 274.559 206.614C274.13 207.056 273.619 207.412 273.026 207.672C272.434 207.931 271.79 208.063 271.095 208.063V208.053ZM271.402 206.934C271.642 206.934 271.862 206.853 272.066 206.69C272.27 206.527 272.449 206.303 272.597 206.029C272.75 205.749 272.863 205.428 272.95 205.067C273.031 204.701 273.072 204.324 273.072 203.933C273.072 203.348 273.031 202.798 272.95 202.28C272.868 201.766 272.73 201.313 272.546 200.921C272.357 200.535 272.117 200.224 271.816 200.001C271.514 199.772 271.152 199.66 270.717 199.66C270.508 199.66 270.304 199.741 270.11 199.904C269.915 200.067 269.747 200.28 269.599 200.555C269.451 200.825 269.333 201.14 269.246 201.496C269.16 201.852 269.114 202.224 269.114 202.62C269.114 203.21 269.165 203.77 269.272 204.294C269.379 204.818 269.527 205.276 269.727 205.667C269.921 206.059 270.161 206.369 270.442 206.598C270.723 206.827 271.044 206.944 271.402 206.944V206.934Z" fill="white"/>
<path d="M288.923 201.669C288.923 201.465 288.897 201.272 288.851 201.094C288.8 200.911 288.734 200.753 288.652 200.621C288.57 200.489 288.468 200.377 288.351 200.301C288.238 200.219 288.116 200.178 287.983 200.178C287.83 200.178 287.671 200.204 287.503 200.26C287.339 200.316 287.176 200.387 287.012 200.474C286.849 200.56 286.696 200.667 286.558 200.789C286.415 200.906 286.292 201.033 286.18 201.165V207.885H283.559V201.674C283.559 201.471 283.534 201.277 283.483 201.099C283.432 200.916 283.36 200.758 283.273 200.626C283.187 200.494 283.084 200.382 282.972 200.306C282.86 200.224 282.742 200.184 282.62 200.184C282.476 200.184 282.323 200.209 282.165 200.265C282.007 200.321 281.838 200.392 281.68 200.479C281.521 200.565 281.363 200.672 281.21 200.794C281.056 200.911 280.924 201.038 280.806 201.17V207.89H278.16V199.558L280.806 198.535V199.527C281.22 199.227 281.654 198.993 282.098 198.82C282.543 198.647 282.972 198.561 283.386 198.561C283.616 198.561 283.84 198.586 284.075 198.642C284.31 198.698 284.53 198.774 284.739 198.871C284.949 198.968 285.148 199.09 285.332 199.227C285.516 199.37 285.669 199.527 285.802 199.705C286.001 199.538 286.221 199.385 286.461 199.242C286.701 199.1 286.951 198.978 287.217 198.881C287.482 198.785 287.753 198.703 288.029 198.647C288.305 198.591 288.581 198.561 288.851 198.561C289.219 198.561 289.572 198.637 289.904 198.785C290.236 198.932 290.527 199.141 290.777 199.4C291.027 199.665 291.227 199.97 291.375 200.321C291.523 200.672 291.594 201.053 291.594 201.455V207.88H288.923V201.669Z" fill="white"/>
<path d="M298.347 208.089C297.729 208.089 297.142 207.967 296.595 207.728C296.049 207.483 295.574 207.163 295.17 206.751C294.767 206.344 294.445 205.866 294.21 205.327C293.975 204.787 293.857 204.218 293.857 203.612C293.857 202.89 293.965 202.218 294.184 201.603C294.399 200.987 294.705 200.448 295.109 199.995C295.507 199.543 295.982 199.187 296.539 198.932C297.096 198.678 297.714 198.551 298.399 198.551C299.006 198.551 299.563 198.653 300.074 198.856C300.58 199.059 301.014 199.334 301.377 199.69C301.739 200.041 302.02 200.458 302.219 200.937C302.419 201.415 302.521 201.923 302.521 202.468H296.468C296.488 202.976 296.565 203.46 296.687 203.917C296.81 204.375 296.973 204.782 297.178 205.128C297.382 205.474 297.622 205.754 297.898 205.962C298.174 206.166 298.48 206.273 298.817 206.273C299.109 206.273 299.395 206.222 299.676 206.115C299.956 206.013 300.217 205.866 300.457 205.688C300.697 205.505 300.901 205.296 301.08 205.052C301.259 204.808 301.387 204.548 301.463 204.268L302.812 204.492C302.674 204.986 302.459 205.454 302.158 205.886C301.857 206.324 301.509 206.705 301.106 207.031C300.702 207.361 300.268 207.616 299.793 207.804C299.318 207.992 298.843 208.084 298.358 208.084L298.347 208.089ZM299.466 201.522C299.446 201.252 299.389 201.008 299.298 200.784C299.211 200.56 299.098 200.367 298.96 200.209C298.822 200.051 298.664 199.924 298.48 199.838C298.296 199.751 298.102 199.706 297.893 199.706C297.729 199.706 297.566 199.751 297.408 199.838C297.249 199.924 297.106 200.046 296.978 200.204C296.851 200.362 296.743 200.555 296.652 200.779C296.565 201.003 296.503 201.252 296.478 201.527H299.466V201.522Z" fill="white"/>
<path d="M221.541 212.987H222.609V215.434H225.142V212.987H226.21V218.919H225.142V216.273H222.609V218.919H221.541V212.987Z" fill="white"/>
<path d="M231.762 216.752V216.63C231.762 215.134 232.676 214.396 233.81 214.396C235.128 214.396 235.705 215.129 235.705 216.548V216.965H232.788C232.85 217.891 233.325 218.217 234.178 218.217C234.75 218.217 235.169 218.09 235.557 217.886V218.578C235.256 218.776 234.735 218.995 233.979 218.995C232.492 218.995 231.767 218.156 231.767 216.747L231.762 216.752ZM232.788 216.284H234.689C234.689 215.444 234.377 215.134 233.795 215.134C233.335 215.134 232.855 215.378 232.788 216.284Z" fill="white"/>
<path d="M240.887 217.738C240.887 216.914 241.433 216.538 242.317 216.406L243.369 216.284V215.948C243.369 215.342 243.099 215.205 242.343 215.205C241.908 215.205 241.525 215.266 241.26 215.327V214.646C241.678 214.483 242.154 214.401 242.736 214.401C243.768 214.401 244.37 214.798 244.37 215.724V218.924H243.543L243.466 218.562H243.415C243.201 218.812 242.843 219.005 242.261 219.005C241.454 219.005 240.887 218.598 240.887 217.743V217.738ZM243.369 218.033V216.935L242.542 217.021C242.097 217.057 241.862 217.235 241.862 217.688C241.862 218.11 242.148 218.303 242.557 218.303C242.879 218.303 243.201 218.191 243.364 218.033H243.369Z" fill="white"/>
<path d="M250.065 212.601H251.071V218.924H250.065V212.601Z" fill="white"/>
<path d="M257.057 217.82V215.241H256.434V214.462H257.057V213.415H258.038V214.462H259.105V215.241H258.038V217.677C258.038 218.049 258.175 218.186 258.645 218.186C258.819 218.186 259.003 218.161 259.156 218.115V218.781C258.983 218.868 258.737 218.964 258.324 218.964C257.552 218.964 257.057 218.654 257.057 217.815V217.82Z" fill="white"/>
<path d="M264.586 212.601H265.582V214.849H265.623C265.986 214.579 266.507 214.391 267.048 214.391C267.906 214.391 268.351 214.737 268.351 215.617V218.919H267.344V215.851C267.344 215.403 267.196 215.22 266.588 215.22C266.241 215.22 265.853 215.332 265.582 215.465V218.924H264.586V212.601Z" fill="white"/>
<path d="M273.771 216.792V216.655C273.771 215.113 274.711 214.391 275.953 214.391C276.545 214.391 276.898 214.503 277.184 214.661V215.439C276.811 215.291 276.54 215.195 276.014 215.195C275.268 215.195 274.808 215.663 274.808 216.553V216.751C274.808 217.774 275.232 218.206 276.085 218.206C276.632 218.206 277.005 218.033 277.23 217.932V218.659C276.944 218.842 276.525 219.005 275.912 219.005C274.594 219.005 273.777 218.267 273.777 216.802L273.771 216.792Z" fill="white"/>
<path d="M282.363 217.738C282.363 216.914 282.91 216.538 283.794 216.406L284.846 216.284V215.948C284.846 215.342 284.575 215.205 283.819 215.205C283.385 215.205 283.002 215.266 282.736 215.327V214.646C283.155 214.483 283.63 214.401 284.212 214.401C285.244 214.401 285.847 214.798 285.847 215.724V218.924H285.019L284.943 218.562H284.892C284.677 218.812 284.32 219.005 283.737 219.005C282.93 219.005 282.363 218.598 282.363 217.743V217.738ZM284.846 218.033V216.935L284.018 217.021C283.574 217.057 283.339 217.235 283.339 217.688C283.339 218.11 283.625 218.303 284.034 218.303C284.355 218.303 284.677 218.191 284.841 218.033H284.846Z" fill="white"/>
<path d="M291.522 214.467H292.487V214.986H292.523C292.768 214.666 293.228 214.432 293.693 214.432C293.815 214.432 293.928 214.442 293.969 214.457V215.337C293.856 215.322 293.708 215.312 293.606 215.312C293.207 215.312 292.809 215.424 292.523 215.607V218.919H291.527V214.467H291.522Z" fill="white"/>
<path d="M299.062 216.752V216.63C299.062 215.134 299.977 214.396 301.111 214.396C302.429 214.396 303.006 215.129 303.006 216.548V216.965H300.089C300.151 217.891 300.626 218.217 301.479 218.217C302.051 218.217 302.47 218.09 302.858 217.886V218.578C302.556 218.776 302.035 218.995 301.279 218.995C299.793 218.995 299.068 218.156 299.068 216.747L299.062 216.752ZM300.089 216.284H301.989C301.989 215.444 301.678 215.134 301.096 215.134C300.636 215.134 300.156 215.378 300.089 216.284Z" fill="white"/>
</g>
<path d="M358.145 134.764C357.739 134.684 357.345 134.948 357.264 135.355C357.184 135.761 357.448 136.155 357.855 136.236L358.145 134.764ZM402 116L393.962 119.224L400.773 124.573L402 116ZM359.458 136.494C359.868 136.547 360.244 136.257 360.297 135.846C360.35 135.435 360.059 135.059 359.648 135.006L359.458 136.494ZM362.722 135.236C362.308 135.225 361.963 135.552 361.952 135.966C361.941 136.38 362.267 136.725 362.681 136.736L362.722 135.236ZM365.892 136.69C366.306 136.667 366.623 136.314 366.601 135.9C366.579 135.487 366.225 135.17 365.812 135.192L365.892 136.69ZM368.904 134.91C368.493 134.963 368.202 135.338 368.255 135.749C368.307 136.16 368.683 136.451 369.093 136.398L368.904 134.91ZM372.255 135.883C372.662 135.802 372.926 135.407 372.845 135.001C372.765 134.595 372.37 134.331 371.963 134.411L372.255 135.883ZM374.986 133.705C374.586 133.813 374.349 134.224 374.457 134.624C374.565 135.024 374.977 135.261 375.377 135.153L374.986 133.705ZM378.442 134.217C378.834 134.083 379.043 133.656 378.909 133.264C378.775 132.872 378.348 132.663 377.956 132.798L378.442 134.217ZM380.86 131.696C380.478 131.855 380.298 132.294 380.457 132.677C380.617 133.059 381.056 133.239 381.438 133.08L380.86 131.696ZM384.354 131.747C384.725 131.563 384.876 131.113 384.692 130.742C384.507 130.371 384.057 130.22 383.686 130.404L384.354 131.747ZM386.423 128.93C386.065 129.138 385.943 129.597 386.152 129.955C386.36 130.313 386.819 130.435 387.177 130.226L386.423 128.93ZM389.889 128.529C390.233 128.298 390.325 127.832 390.094 127.488C389.863 127.144 389.397 127.053 389.053 127.284L389.889 128.529ZM391.577 125.47C391.248 125.722 391.186 126.193 391.439 126.522C391.691 126.85 392.162 126.912 392.49 126.66L391.577 125.47ZM394.97 124.63C395.282 124.358 395.314 123.884 395.042 123.572C394.77 123.259 394.296 123.227 393.984 123.499L394.97 124.63ZM396.262 121.388C395.967 121.679 395.963 122.154 396.254 122.449C396.544 122.744 397.019 122.748 397.314 122.457L396.262 121.388ZM399.53 120.145C399.808 119.838 399.784 119.364 399.477 119.086C399.17 118.808 398.696 118.832 398.418 119.139L399.53 120.145ZM400.438 116.775C400.178 117.097 400.228 117.569 400.55 117.83C400.872 118.09 401.345 118.04 401.605 117.717L400.438 116.775ZM357.855 136.236C358.352 136.334 358.887 136.421 359.458 136.494L359.648 135.006C359.109 134.937 358.607 134.856 358.145 134.764L357.855 136.236ZM362.681 136.736C363.689 136.763 364.763 136.751 365.892 136.69L365.812 135.192C364.722 135.251 363.688 135.262 362.722 135.236L362.681 136.736ZM369.093 136.398C370.117 136.268 371.173 136.098 372.255 135.883L371.963 134.411C370.915 134.619 369.893 134.784 368.904 134.91L369.093 136.398ZM375.377 135.153C376.383 134.882 377.406 134.571 378.442 134.217L377.956 132.798C376.953 133.141 375.962 133.442 374.986 133.705L375.377 135.153ZM381.438 133.08C382.405 132.676 383.378 132.233 384.354 131.747L383.686 130.404C382.74 130.875 381.797 131.304 380.86 131.696L381.438 133.08ZM387.177 130.226C388.082 129.7 388.987 129.135 389.889 128.529L389.053 127.284C388.178 127.871 387.301 128.419 386.423 128.93L387.177 130.226ZM392.49 126.66C393.322 126.021 394.15 125.345 394.97 124.63L393.984 123.499C393.187 124.194 392.384 124.85 391.577 125.47L392.49 126.66ZM397.314 122.457C398.062 121.722 398.801 120.952 399.53 120.145L398.418 119.139C397.708 119.924 396.989 120.673 396.262 121.388L397.314 122.457Z" fill="#BDBDBD"/>
<path d="M358.145 207.236C357.739 207.316 357.345 207.052 357.264 206.645C357.184 206.239 357.448 205.845 357.855 205.764L358.145 207.236ZM402 226L393.962 222.776L400.773 217.427L402 226ZM359.458 205.506C359.868 205.453 360.244 205.743 360.297 206.154C360.35 206.565 360.059 206.941 359.648 206.994L359.458 205.506ZM362.722 206.764C362.308 206.775 361.963 206.448 361.952 206.034C361.941 205.62 362.267 205.275 362.681 205.264L362.722 206.764ZM365.892 205.31C366.306 205.333 366.623 205.686 366.601 206.1C366.579 206.513 366.225 206.83 365.812 206.808L365.892 205.31ZM368.904 207.09C368.493 207.037 368.202 206.662 368.255 206.251C368.307 205.84 368.683 205.549 369.093 205.602L368.904 207.09ZM372.255 206.117C372.662 206.198 372.926 206.593 372.845 206.999C372.765 207.405 372.37 207.669 371.963 207.589L372.255 206.117ZM374.986 208.295C374.586 208.187 374.349 207.776 374.457 207.376C374.565 206.976 374.977 206.739 375.377 206.847L374.986 208.295ZM378.442 207.783C378.834 207.917 379.043 208.344 378.909 208.736C378.775 209.128 378.348 209.337 377.956 209.202L378.442 207.783ZM380.86 210.304C380.478 210.145 380.298 209.706 380.457 209.323C380.617 208.941 381.056 208.761 381.438 208.92L380.86 210.304ZM384.354 210.253C384.725 210.437 384.876 210.887 384.692 211.258C384.507 211.629 384.057 211.78 383.686 211.596L384.354 210.253ZM386.423 213.07C386.065 212.862 385.943 212.403 386.152 212.045C386.36 211.687 386.819 211.565 387.177 211.774L386.423 213.07ZM389.889 213.471C390.233 213.702 390.325 214.168 390.094 214.512C389.863 214.856 389.397 214.947 389.053 214.716L389.889 213.471ZM391.577 216.53C391.248 216.278 391.186 215.807 391.439 215.478C391.691 215.15 392.162 215.088 392.49 215.34L391.577 216.53ZM394.97 217.37C395.282 217.642 395.314 218.116 395.042 218.428C394.77 218.741 394.296 218.773 393.984 218.501L394.97 217.37ZM396.262 220.612C395.967 220.321 395.963 219.846 396.254 219.551C396.544 219.256 397.019 219.252 397.314 219.543L396.262 220.612ZM399.53 221.855C399.808 222.162 399.784 222.636 399.477 222.914C399.17 223.192 398.696 223.168 398.418 222.861L399.53 221.855ZM400.438 225.225C400.178 224.903 400.228 224.431 400.55 224.17C400.872 223.91 401.345 223.96 401.605 224.283L400.438 225.225ZM357.855 205.764C358.352 205.666 358.887 205.579 359.458 205.506L359.648 206.994C359.109 207.063 358.607 207.144 358.145 207.236L357.855 205.764ZM362.681 205.264C363.689 205.237 364.763 205.249 365.892 205.31L365.812 206.808C364.722 206.749 363.688 206.738 362.722 206.764L362.681 205.264ZM369.093 205.602C370.117 205.732 371.173 205.902 372.255 206.117L371.963 207.589C370.915 207.381 369.893 207.216 368.904 207.09L369.093 205.602ZM375.377 206.847C376.383 207.118 377.406 207.429 378.442 207.783L377.956 209.202C376.953 208.859 375.962 208.558 374.986 208.295L375.377 206.847ZM381.438 208.92C382.405 209.324 383.378 209.767 384.354 210.253L383.686 211.596C382.74 211.125 381.797 210.696 380.86 210.304L381.438 208.92ZM387.177 211.774C388.082 212.3 388.987 212.865 389.889 213.471L389.053 214.716C388.178 214.129 387.301 213.581 386.423 213.07L387.177 211.774ZM392.49 215.34C393.322 215.979 394.15 216.655 394.97 217.37L393.984 218.501C393.187 217.806 392.384 217.15 391.577 216.53L392.49 215.34ZM397.314 219.543C398.062 220.278 398.801 221.048 399.53 221.855L398.418 222.861C397.708 222.076 396.989 221.327 396.262 220.612L397.314 219.543Z" fill="#BDBDBD"/>
<path d="M358.506 170.25C358.092 170.25 357.756 170.586 357.756 171C357.756 171.414 358.092 171.75 358.506 171.75V170.25ZM402 171L394.5 166.67V175.33L402 171ZM360.059 171.75C360.473 171.75 360.809 171.414 360.809 171C360.809 170.586 360.473 170.25 360.059 170.25V171.75ZM363.166 170.25C362.752 170.25 362.416 170.586 362.416 171C362.416 171.414 362.752 171.75 363.166 171.75V170.25ZM366.273 171.75C366.687 171.75 367.023 171.414 367.023 171C367.023 170.586 366.687 170.25 366.273 170.25V171.75ZM369.379 170.25C368.965 170.25 368.629 170.586 368.629 171C368.629 171.414 368.965 171.75 369.379 171.75V170.25ZM372.486 171.75C372.9 171.75 373.236 171.414 373.236 171C373.236 170.586 372.9 170.25 372.486 170.25V171.75ZM375.593 170.25C375.179 170.25 374.843 170.586 374.843 171C374.843 171.414 375.179 171.75 375.593 171.75V170.25ZM378.699 171.75C379.114 171.75 379.449 171.414 379.449 171C379.449 170.586 379.114 170.25 378.699 170.25V171.75ZM381.806 170.25C381.392 170.25 381.056 170.586 381.056 171C381.056 171.414 381.392 171.75 381.806 171.75V170.25ZM384.913 171.75C385.327 171.75 385.663 171.414 385.663 171C385.663 170.586 385.327 170.25 384.913 170.25V171.75ZM388.02 170.25C387.605 170.25 387.27 170.586 387.27 171C387.27 171.414 387.605 171.75 388.02 171.75V170.25ZM391.126 171.75C391.541 171.75 391.876 171.414 391.876 171C391.876 170.586 391.541 170.25 391.126 170.25V171.75ZM394.233 170.25C393.819 170.25 393.483 170.586 393.483 171C393.483 171.414 393.819 171.75 394.233 171.75V170.25ZM397.34 171.75C397.754 171.75 398.09 171.414 398.09 171C398.09 170.586 397.754 170.25 397.34 170.25V171.75ZM400.447 170.25C400.032 170.25 399.697 170.586 399.697 171C399.697 171.414 400.032 171.75 400.447 171.75V170.25ZM358.506 171.75H360.059V170.25H358.506V171.75ZM363.166 171.75H366.273V170.25H363.166V171.75ZM369.379 171.75H372.486V170.25H369.379V171.75ZM375.593 171.75H378.699V170.25H375.593V171.75ZM381.806 171.75H384.913V170.25H381.806V171.75ZM388.02 171.75H391.126V170.25H388.02V171.75ZM394.233 171.75H397.34V170.25H394.233V171.75Z" fill="#BDBDBD"/>
<rect x="754" y="30" width="312" height="283" rx="8" fill="#0074E0" fill-opacity="0.07"/>
<path d="M791.721 57.2715V58.3613C791.73 59.3896 791.73 60.6729 791.413 62.2812H793.461V64.0391H778.819V62.2812H789.155C789.41 60.9805 789.462 59.9346 789.48 59.0469H780.612V57.2715H791.721ZM780.471 66.9043V65.1641H791.651V69.6465H782.721V70.7715H792.09V72.4941H780.489V67.959H789.436V66.9043H780.471ZM808.793 68.9961V70.8418H794.15V68.9961H800.32V66.5879H795.838V61.209H804.891V59.4512H795.82V57.6582H807.105V62.9668H798.088V64.7598H807.475V66.5879H802.553V68.9961H808.793ZM822.964 56.6211V64.7949H820.732V61.666H817.779V64.3555H810.168V57.3066H812.418V59.1348H815.564V57.3066H817.779V59.8555H820.732V56.6211H822.964ZM812.312 67.1504V65.3926H822.964V69.6992H814.58V70.6836H823.439V72.4414H812.33V68.082H820.732V67.1504H812.312ZM812.418 62.5977H815.564V60.875H812.418V62.5977ZM842.554 56.6211V67.5723H840.427V56.6211H842.554ZM828.596 64.0039C828.992 64.0039 829.431 64.0039 829.897 63.9951V59.627H828.895V57.834H836.278V59.627H835.206V63.7842C835.663 63.749 836.111 63.7051 836.524 63.6523L836.63 65.2871C834.151 65.7617 830.917 65.7969 828.825 65.7969L828.596 64.0039ZM830.706 70.8066C834.142 70.4287 835.865 68.8027 835.874 67.168V66.7637H838.089V67.168C838.089 68.8027 839.846 70.4287 843.309 70.8066L842.483 72.5469C839.882 72.2129 837.992 71.167 836.99 69.7256C835.997 71.167 834.107 72.2129 831.479 72.5469L830.706 70.8066ZM831.954 63.96C832.367 63.9512 832.789 63.9336 833.202 63.916V59.627H831.954V63.96ZM835.856 62.6328V60.8223H837.386V56.9375H839.477V66.1309H837.386V62.6328H835.856ZM851.188 58.4141C851.188 59.9258 851.056 61.3408 850.713 62.668H852.436V56.9727H854.528V71.9141H852.436V64.4785H850.072C849.202 66.377 847.707 68.0381 845.264 69.4355L844.016 67.9062C846.046 66.7285 847.321 65.4014 848.077 63.8545L844.35 64.2324L844.104 62.334L848.701 62.0879C848.85 61.4902 848.938 60.8662 848.991 60.207H844.895V58.4141H851.188ZM855.829 72.6172V56.6211H857.938V72.6172H855.829ZM863.812 57.7461C865.975 57.7461 867.592 59.5215 867.908 62.4043H870.686V56.6211H872.9V72.6523H870.686V64.1973H867.935C867.697 67.2734 866.045 69.1543 863.812 69.1543C861.387 69.1543 859.646 66.957 859.664 63.4414C859.646 59.9521 861.387 57.7461 863.812 57.7461ZM861.809 63.4414C861.8 65.8232 862.617 67.124 863.812 67.1152C865.017 67.124 865.816 65.8232 865.816 63.4414C865.816 61.0684 865.017 59.7676 863.812 59.7676C862.617 59.7676 861.8 61.0684 861.809 63.4414ZM884.878 60.2422C884.869 63.1777 886.205 66.1221 888.921 67.2734L887.603 69.0664C885.775 68.2402 884.509 66.6406 883.779 64.6631C883.059 66.8252 881.749 68.5654 879.798 69.4531L878.445 67.5898C881.239 66.4121 882.602 63.3447 882.611 60.2422V57.8516H884.878V60.2422ZM889.782 72.6523V56.6211H892.05V72.6523H889.782ZM903.075 57.6934V59.4863H899.893C899.902 61.3496 901.036 63.1514 903.585 63.8984L902.512 65.6562C900.746 65.1201 899.515 64.0391 898.812 62.6768C898.1 64.2852 896.8 65.5684 894.884 66.2012L893.741 64.4258C896.395 63.5908 897.599 61.5166 897.626 59.4863H894.356V57.6934H903.075ZM895.956 69.5059C895.947 67.5547 898.056 66.4209 901.44 66.4297C904.771 66.4209 906.828 67.5547 906.837 69.5059C906.828 71.4658 904.771 72.626 901.44 72.6172C898.056 72.626 895.947 71.4658 895.956 69.5059ZM898.206 69.5059C898.188 70.4199 899.34 70.877 901.44 70.877C903.514 70.877 904.622 70.4199 904.622 69.5059C904.622 68.6094 903.514 68.1611 901.44 68.1699C899.34 68.1611 898.188 68.6094 898.206 69.5059ZM904.429 66.1133V56.6211H906.679V60.3301H908.841V62.1582H906.679V66.1133H904.429ZM925.951 57.5V58.5723C925.942 59.917 925.942 61.7539 925.529 64.3906H927.832V66.2012H924.369V72.6172H922.137V66.2012H918.814V72.6172H916.564V66.2012H913.242V64.3906H923.262C923.675 62.2285 923.745 60.5674 923.763 59.3105H914.982V57.5H925.951ZM943.216 68.9082V70.7539H928.574V68.9082H934.744V65.6387H930.121V57.7988H941.582V65.6387H936.976V68.9082H943.216ZM932.336 63.8809H939.367V59.5918H932.336V63.8809Z" fill="#002554"/>
<path d="M779.17 92V91.0625L782.111 88.0977C783.043 87.1309 783.506 86.5918 783.506 85.8477C783.506 85.0098 782.826 84.4766 781.936 84.4766C780.992 84.4766 780.395 85.0742 780.389 85.9766H779.17C779.158 84.4238 780.342 83.3984 781.959 83.3984C783.594 83.3984 784.725 84.4355 784.736 85.8125C784.725 86.7617 784.279 87.5176 782.686 89.082L780.963 90.8281V90.8984H784.877V92H779.17ZM789.11 92.1172C787.147 92.1172 785.993 90.5352 785.993 87.7578C785.993 84.998 787.159 83.3984 789.11 83.3984C791.055 83.3984 792.221 84.998 792.227 87.7578C792.221 90.5352 791.073 92.1172 789.11 92.1172ZM787.282 87.7578C787.276 89.873 787.961 91.0039 789.11 91.0039C790.252 91.0039 790.938 89.873 790.938 87.7578C790.938 85.6484 790.246 84.4941 789.11 84.4883C787.967 84.4941 787.282 85.6484 787.282 87.7578ZM793.413 92V91.0625L796.354 88.0977C797.286 87.1309 797.749 86.5918 797.749 85.8477C797.749 85.0098 797.069 84.4766 796.179 84.4766C795.235 84.4766 794.637 85.0742 794.632 85.9766H793.413C793.401 84.4238 794.585 83.3984 796.202 83.3984C797.837 83.3984 798.968 84.4355 798.979 85.8125C798.968 86.7617 798.522 87.5176 796.929 89.082L795.206 90.8281V90.8984H799.12V92H793.413ZM803.622 83.5156V92H802.321V84.8047H802.275L800.247 86.1289V84.8984L802.357 83.5156H803.622ZM814.019 82.5078V90.2656H812.906V86.6914H810.023V85.8008H812.906V84.6992H810.023V83.8086H812.906V82.5078H814.019ZM805.886 88.7656V83.2344H806.988V87.8281C808.382 87.8223 809.707 87.7461 811.207 87.4648L811.324 88.3789C809.66 88.6895 808.236 88.7539 806.695 88.7656H805.886ZM807.175 92.7734V89.5859H808.3V91.8711H814.289V92.7734H807.175ZM825.084 88.6719V89.5508H820.795V92.9961H819.705V89.5508H815.475V88.6719H825.084ZM816.67 87.4766V82.918H817.771V84.2891H822.764V82.918H823.877V87.4766H816.67ZM817.771 86.5859H822.764V85.1797H817.771V86.5859ZM834.461 82.4961V93.0195H833.36V87.2891H831.274V86.375H833.36V82.4961H834.461ZM826.188 90.5352V83.4336H831.098V84.3359H827.313V86.375H830.653V87.2656H827.313V89.6094C829.071 89.6094 830.289 89.5566 831.684 89.3164L831.801 90.2188C830.272 90.4648 828.954 90.5293 827.008 90.5352H826.188ZM848.282 88.8242V89.7383H844.04V93.0078H842.939V89.7383H838.708V88.8242H848.282ZM839.271 87.207C841.263 86.9551 842.868 85.8418 842.939 84.6641H839.611V83.7617H842.939V82.4961H844.04V83.7617H847.368V84.6641H844.052C844.111 85.8301 845.698 86.9551 847.696 87.207L847.298 88.0977C845.611 87.8633 844.175 87.0723 843.495 86C842.816 87.084 841.374 87.8633 839.681 88.0977L839.271 87.207ZM857.683 82.4961V88.7422H856.57V86.082H854.613V85.168H856.57V82.4961H857.683ZM848.929 87.793C850.558 87.2246 851.56 85.8066 851.554 84.3594V84.125H849.281V83.2227H854.941V84.125H852.691V84.3477C852.685 85.6777 853.634 86.9727 855.222 87.5117L854.648 88.3906C853.47 87.9863 852.603 87.1426 852.146 86.1055C851.689 87.2773 850.769 88.2207 849.515 88.6836L848.929 87.793ZM850.617 91.0156C850.611 89.7676 851.959 89.041 854.168 89.0352C856.365 89.041 857.713 89.7676 857.718 91.0156C857.713 92.2637 856.365 92.9902 854.168 92.9961C851.959 92.9902 850.611 92.2637 850.617 91.0156ZM851.718 91.0156C851.713 91.7246 852.627 92.1289 854.168 92.1172C855.697 92.1289 856.611 91.7246 856.617 91.0156C856.611 90.3008 855.697 89.8965 854.168 89.9023C852.627 89.8965 851.713 90.3008 851.718 91.0156ZM867.846 82.4961V92.9961H866.732V82.4961H867.846ZM859.303 90.125C860.926 89.3984 862.004 87.6289 862.01 85.8711V85.1797H859.619V84.2891H861.998V82.707H863.1V84.2891H865.455V85.1797H863.1V85.8711C863.105 87.5469 864.207 89.2578 865.842 89.9492L865.232 90.8047C864.02 90.2773 863.059 89.1816 862.572 87.8574C862.098 89.2637 861.143 90.4297 859.924 90.9805L859.303 90.125ZM875.761 83.1172L873.03 93.2773H871.917L874.647 83.1172H875.761ZM882.597 85.5898C882.591 87.248 883.687 89.0996 885.281 89.8555L884.648 90.7227C883.47 90.1602 882.533 88.9766 882.058 87.6055C881.578 89.0996 880.593 90.3945 879.398 90.9922L878.742 90.1133C880.336 89.3457 881.49 87.3652 881.496 85.5898V84.4766H879.129V83.5508H884.882V84.4766H882.597V85.5898ZM886.007 92.9961V82.4961H887.121V86.6562H888.808V87.5938H887.121V92.9961H886.007ZM898.771 90.8047V91.7422H889.162V90.8047H891.787V88.9531H890.334V85.6133H896.498V84.1484H890.311V83.2344H897.6V86.5156H891.436V88.0391H897.846V88.9531H896.252V90.8047H898.771ZM892.865 90.8047H895.162V88.9531H892.865V90.8047ZM908.395 82.4961V92.9961H907.329V82.4961H908.395ZM899.231 90.1016C900.719 89.2051 901.475 87.2949 901.481 85.4258V84.582H899.547V83.6797H904.352V84.582H902.547V85.4258C902.547 87.2188 903.274 89.0176 904.75 89.8672L904.082 90.6875C903.08 90.0898 902.395 89.0176 902.026 87.752C901.651 89.123 900.936 90.2949 899.911 90.9336L899.231 90.1016ZM903.579 87.125V86.2109H905.207V82.7188H906.262V92.4688H905.207V87.125H903.579ZM914.339 89.0938C916.612 89.0938 918.048 89.8145 918.054 91.0391C918.048 92.2578 916.612 92.9785 914.339 92.9727C912.089 92.9785 910.647 92.2578 910.647 91.0391C910.647 89.8145 912.089 89.0938 914.339 89.0938ZM909.616 88.2266V87.3242H913.448V85.3555H914.538V87.3242H919.167V88.2266H909.616ZM910.729 83.9023V83.0117H917.971V83.8906C917.977 84.7285 917.977 85.5957 917.679 86.6797L916.589 86.5625C916.87 85.4902 916.87 84.7168 916.87 83.9023H910.729ZM911.761 91.0391C911.749 91.7188 912.751 92.1113 914.339 92.1172C915.944 92.1113 916.94 91.7188 916.952 91.0391C916.94 90.3477 915.944 89.9434 914.339 89.9375C912.751 89.9434 911.749 90.3477 911.761 91.0391ZM928.113 83.5039V90.4062H923.191V83.5039H928.113ZM924.293 89.5039H927.035V84.3828H924.293V89.5039ZM930.187 93.0195V82.4961H931.3V93.0195H930.187ZM937.115 83.5977V87.3945H934.232V89.6094C935.369 89.6035 936.447 89.5508 937.713 89.3516L937.807 90.2422C936.348 90.5 935.176 90.5352 933.869 90.5469H933.154V86.4805H936.037V84.5117H933.143V83.5977H937.115ZM938.393 92.457V82.707H939.412V86.5859H940.771V82.4961H941.838V92.9961H940.771V87.4883H939.412V92.457H938.393ZM952.082 82.4961V92.9961H951.016V82.4961H952.082ZM943.164 87.0312C943.164 84.7578 944.055 83.334 945.426 83.3398C946.704 83.334 947.565 84.5469 947.694 86.5156H948.883V82.6953H949.95V92.4805H948.883V87.418H947.7C947.6 89.4688 946.727 90.7402 945.426 90.7344C944.055 90.7402 943.164 89.3105 943.164 87.0312ZM944.196 87.0312C944.196 88.7012 944.67 89.6855 945.426 89.6797C946.2 89.6855 946.68 88.7012 946.68 87.0312C946.68 85.3555 946.2 84.377 945.426 84.3828C944.67 84.377 944.196 85.3555 944.196 87.0312ZM962.221 82.4961V89.6562H961.167V82.4961H962.221ZM953.221 87.6172C954.61 86.9961 955.372 85.6602 955.366 84.4648V83.1406H956.444V84.4648C956.444 85.6719 957.147 86.8555 958.471 87.418L957.874 88.2734C956.925 87.8691 956.268 87.125 955.911 86.2285C955.53 87.1953 954.827 88.0273 953.831 88.4609L953.221 87.6172ZM954.628 92.082C956.614 91.8066 958.167 90.6934 958.167 89.4336V89.1289H959.28V89.4336C959.28 90.6934 960.833 91.8066 962.831 92.082L962.386 92.9492C960.757 92.7031 959.368 91.9297 958.723 90.8398C958.067 91.9297 956.673 92.7031 955.038 92.9492L954.628 92.082ZM957.534 85.7305V84.8164H959.069V82.7188H960.136V88.6836H959.069V85.7305H957.534ZM973.064 87.4414V88.3438H963.489V87.4414H973.064ZM963.993 86.0117C965.898 85.8066 967.404 84.9512 967.527 83.9258H964.368V83.0117H972.208V83.9258H969.015C969.144 84.9453 970.626 85.8066 972.571 86.0117L972.173 86.8906C970.351 86.6797 968.845 85.9121 968.277 84.8047C967.696 85.9121 966.202 86.6797 964.38 86.8906L963.993 86.0117ZM964.626 91.0742C964.626 89.8555 965.991 89.1523 968.271 89.1523C970.532 89.1523 971.886 89.8555 971.892 91.0742C971.886 92.293 970.532 92.9785 968.271 92.9727C965.991 92.9785 964.626 92.293 964.626 91.0742ZM965.751 91.0742C965.745 91.7363 966.665 92.0996 968.271 92.0938C969.853 92.0996 970.779 91.7363 970.779 91.0742C970.779 90.3945 969.853 90.0312 968.271 90.0195C966.665 90.0312 965.745 90.3945 965.751 91.0742ZM982.5 82.5078V90.4297H981.375V89.0586H979.148V88.168H981.375V82.5078H982.5ZM973.64 86.5977C974.959 86.5918 976.599 86.5742 978.222 86.4688C978.398 85.4023 978.445 84.582 978.451 83.9961H974.589V83.0938H979.57V83.5039C979.564 84.0723 979.564 85.0449 979.347 86.3809C979.734 86.3398 980.115 86.2988 980.484 86.2461L980.566 87.0547C979.623 87.2129 978.644 87.3184 977.683 87.3828V89.75H976.57V87.4414C975.568 87.4883 974.619 87.5 973.793 87.5L973.64 86.5977ZM975.175 92.7734V89.5742H976.289V91.8711H982.757V92.7734H975.175ZM995.43 82.4961V93.0195H994.317V82.4961H995.43ZM987.297 84.3477V83.4453H992.219V87.2773H988.446V89.5742C990.151 89.5684 991.633 89.4863 993.391 89.1992L993.496 90.1133C991.639 90.4238 990.057 90.4941 988.2 90.5H987.309V86.3867H991.082V84.3477H987.297ZM1000.72 85.168C1000.72 87.0898 1001.8 89.0059 1003.4 89.7266L1002.72 90.6172C1001.53 90.0195 1000.63 88.8359 1000.17 87.4004C999.704 88.9121 998.79 90.1895 997.577 90.8164L996.874 89.9141C998.503 89.1348 999.587 87.1133 999.593 85.168V83.375H1000.72V85.168ZM1002.24 86.8906V85.9883H1004.58V82.4961H1005.69V93.0195H1004.58V86.8906H1002.24ZM1015.85 82.4961V92.9961H1014.74V82.4961H1015.85ZM1007.31 90.125C1008.93 89.3984 1010.01 87.6289 1010.01 85.8711V85.1797H1007.62V84.2891H1010V82.707H1011.1V84.2891H1013.46V85.1797H1011.1V85.8711C1011.11 87.5469 1012.21 89.2578 1013.84 89.9492L1013.24 90.8047C1012.02 90.2773 1011.06 89.1816 1010.58 87.8574C1010.1 89.2637 1009.15 90.4297 1007.93 90.9805L1007.31 90.125ZM1026.33 82.4961V90.3711H1025.27V82.4961H1026.33ZM1017.35 88.0508C1018.73 87.3945 1019.48 85.9648 1019.47 84.7227V83.2227H1020.55V84.7227C1020.55 85.9531 1021.24 87.1953 1022.58 87.7812L1021.96 88.6367C1021.02 88.209 1020.38 87.459 1020.03 86.5508C1019.65 87.5586 1018.96 88.4375 1017.97 88.9062L1017.35 88.0508ZM1019.37 92.7734V89.4102H1020.47V91.8711H1026.63V92.7734H1019.37ZM1021.64 85.9883V85.0742H1023.18V82.6836H1024.24V90.0664H1023.18V85.9883H1021.64ZM1036.35 82.4961V93.0195H1035.25V87.2891H1033.16V86.375H1035.25V82.4961H1036.35ZM1028.08 90.5352V83.4336H1032.99V84.3359H1029.2V86.375H1032.54V87.2656H1029.2V89.6094C1030.96 89.6094 1032.18 89.5566 1033.57 89.3164L1033.69 90.2188C1032.16 90.4648 1030.84 90.5293 1028.9 90.5352H1028.08Z" fill="#BDBDBD"/>
<path d="M786.878 292V291.141L789.574 288.423C790.428 287.537 790.853 287.042 790.853 286.36C790.853 285.592 790.23 285.104 789.413 285.104C788.548 285.104 788.001 285.651 787.995 286.479H786.878C786.867 285.055 787.952 284.115 789.435 284.115C790.933 284.115 791.97 285.066 791.981 286.328C791.97 287.198 791.562 287.891 790.101 289.325L788.522 290.926V290.99H792.109V292H786.878ZM795.99 292.107C794.19 292.107 793.132 290.657 793.132 288.111C793.132 285.582 794.201 284.115 795.99 284.115C797.773 284.115 798.842 285.582 798.847 288.111C798.842 290.657 797.789 292.107 795.99 292.107ZM794.314 288.111C794.308 290.05 794.937 291.087 795.99 291.087C797.037 291.087 797.665 290.05 797.665 288.111C797.665 286.178 797.032 285.12 795.99 285.114C794.942 285.12 794.314 286.178 794.314 288.111ZM799.934 292V291.141L802.63 288.423C803.484 287.537 803.909 287.042 803.909 286.36C803.909 285.592 803.286 285.104 802.469 285.104C801.604 285.104 801.057 285.651 801.051 286.479H799.934C799.923 285.055 801.008 284.115 802.491 284.115C803.989 284.115 805.026 285.066 805.037 286.328C805.026 287.198 804.618 287.891 803.157 289.325L801.578 290.926V290.99H805.166V292H799.934ZM809.046 292.107C807.246 292.107 806.188 290.657 806.188 288.111C806.188 285.582 807.257 284.115 809.046 284.115C810.829 284.115 811.898 285.582 811.903 288.111C811.898 290.657 810.845 292.107 809.046 292.107ZM807.37 288.111C807.364 290.05 807.993 291.087 809.046 291.087C810.093 291.087 810.721 290.05 810.721 288.111C810.721 286.178 810.088 285.12 809.046 285.114C807.998 285.12 807.37 286.178 807.37 288.111ZM820.682 283.299V290.41H819.661V287.134H817.018V286.317H819.661V285.308H817.018V284.491H819.661V283.299H820.682ZM813.226 289.035V283.965H814.236V288.176C815.515 288.17 816.728 288.101 818.103 287.843L818.211 288.681C816.685 288.965 815.38 289.024 813.968 289.035H813.226ZM814.408 292.709V289.787H815.439V291.882H820.929V292.709H814.408Z" fill="#BDBDBD"/>
<path d="M839.807 292V291.141L842.504 288.423C843.358 287.537 843.782 287.042 843.782 286.36C843.782 285.592 843.159 285.104 842.342 285.104C841.478 285.104 840.93 285.651 840.924 286.479H839.807C839.796 285.055 840.881 284.115 842.364 284.115C843.862 284.115 844.899 285.066 844.91 286.328C844.899 287.198 844.491 287.891 843.03 289.325L841.451 290.926V290.99H845.039V292H839.807ZM848.919 292.107C847.119 292.107 846.061 290.657 846.061 288.111C846.061 285.582 847.13 284.115 848.919 284.115C850.702 284.115 851.771 285.582 851.776 288.111C851.771 290.657 850.718 292.107 848.919 292.107ZM847.243 288.111C847.238 290.05 847.866 291.087 848.919 291.087C849.966 291.087 850.595 290.05 850.595 288.111C850.595 286.178 849.961 285.12 848.919 285.114C847.871 285.12 847.243 286.178 847.243 288.111ZM852.863 292V291.141L855.56 288.423C856.414 287.537 856.838 287.042 856.838 286.36C856.838 285.592 856.215 285.104 855.398 285.104C854.534 285.104 853.986 285.651 853.98 286.479H852.863C852.853 285.055 853.938 284.115 855.42 284.115C856.918 284.115 857.955 285.066 857.966 286.328C857.955 287.198 857.547 287.891 856.086 289.325L854.507 290.926V290.99H858.095V292H852.863ZM862.222 284.223V292H861.029V285.404H860.987L859.128 286.618V285.49L861.062 284.223H862.222ZM871.752 283.299V290.41H870.732V287.134H868.089V286.317H870.732V285.308H868.089V284.491H870.732V283.299H871.752ZM864.297 289.035V283.965H865.307V288.176C866.585 288.17 867.799 288.101 869.174 287.843L869.282 288.681C867.756 288.965 866.451 289.024 865.038 289.035H864.297ZM865.479 292.709V289.787H866.51V291.882H871.999V292.709H865.479Z" fill="#BDBDBD"/>
<path d="M890.84 292V291.141L893.537 288.423C894.391 287.537 894.815 287.042 894.815 286.36C894.815 285.592 894.192 285.104 893.376 285.104C892.511 285.104 891.963 285.651 891.958 286.479H890.84C890.83 285.055 891.915 284.115 893.397 284.115C894.896 284.115 895.932 285.066 895.943 286.328C895.932 287.198 895.524 287.891 894.063 289.325L892.484 290.926V290.99H896.072V292H890.84ZM899.952 292.107C898.153 292.107 897.095 290.657 897.095 288.111C897.095 285.582 898.163 284.115 899.952 284.115C901.735 284.115 902.804 285.582 902.809 288.111C902.804 290.657 901.751 292.107 899.952 292.107ZM898.276 288.111C898.271 290.05 898.899 291.087 899.952 291.087C900.999 291.087 901.628 290.05 901.628 288.111C901.628 286.178 900.994 285.12 899.952 285.114C898.905 285.12 898.276 286.178 898.276 288.111ZM903.896 292V291.141L906.593 288.423C907.447 287.537 907.871 287.042 907.871 286.36C907.871 285.592 907.248 285.104 906.432 285.104C905.567 285.104 905.019 285.651 905.014 286.479H903.896C903.886 285.055 904.971 284.115 906.453 284.115C907.952 284.115 908.988 285.066 908.999 286.328C908.988 287.198 908.58 287.891 907.119 289.325L905.54 290.926V290.99H909.128V292H903.896ZM913.062 292.107C911.45 292.107 910.306 291.243 910.258 289.97H911.461C911.504 290.652 912.181 291.087 913.051 291.087C913.991 291.087 914.673 290.577 914.673 289.819C914.673 289.051 914.034 288.503 912.922 288.498H912.256V287.531H912.922C913.808 287.537 914.426 287.042 914.426 286.296C914.426 285.587 913.894 285.104 913.072 285.104C912.294 285.104 911.595 285.539 911.569 286.242H910.43C910.462 284.975 911.633 284.115 913.083 284.115C914.614 284.115 915.575 285.082 915.565 286.231C915.575 287.118 915.028 287.751 914.19 287.961V288.015C915.253 288.165 915.871 288.879 915.865 289.862C915.871 291.157 914.673 292.107 913.062 292.107ZM924.719 283.299V290.41H923.699V287.134H921.056V286.317H923.699V285.308H921.056V284.491H923.699V283.299H924.719ZM917.264 289.035V283.965H918.274V288.176C919.552 288.17 920.766 288.101 922.141 287.843L922.248 288.681C920.723 288.965 919.418 289.024 918.005 289.035H917.264ZM918.446 292.709V289.787H919.477V291.882H924.966V292.709H918.446Z" fill="#BDBDBD"/>
<path d="M942.937 292V291.141L945.633 288.423C946.487 287.537 946.912 287.042 946.912 286.36C946.912 285.592 946.289 285.104 945.472 285.104C944.608 285.104 944.06 285.651 944.054 286.479H942.937C942.926 285.055 944.011 284.115 945.494 284.115C946.992 284.115 948.029 285.066 948.04 286.328C948.029 287.198 947.621 287.891 946.16 289.325L944.581 290.926V290.99H948.169V292H942.937ZM952.049 292.107C950.249 292.107 949.191 290.657 949.191 288.111C949.191 285.582 950.26 284.115 952.049 284.115C953.832 284.115 954.901 285.582 954.906 288.111C954.901 290.657 953.848 292.107 952.049 292.107ZM950.373 288.111C950.367 290.05 950.996 291.087 952.049 291.087C953.096 291.087 953.724 290.05 953.724 288.111C953.724 286.178 953.091 285.12 952.049 285.114C951.001 285.12 950.373 286.178 950.373 288.111ZM955.993 292V291.141L958.689 288.423C959.543 287.537 959.968 287.042 959.968 286.36C959.968 285.592 959.345 285.104 958.528 285.104C957.664 285.104 957.116 285.651 957.11 286.479H955.993C955.982 285.055 957.067 284.115 958.55 284.115C960.048 284.115 961.085 285.066 961.096 286.328C961.085 287.198 960.677 287.891 959.216 289.325L957.637 290.926V290.99H961.225V292H955.993ZM965.04 292.107C963.569 292.107 962.462 291.21 962.408 289.97H963.558C963.622 290.63 964.256 291.114 965.04 291.119C965.986 291.114 966.662 290.432 966.662 289.508C966.662 288.562 965.964 287.875 964.987 287.864C964.363 287.864 963.885 288.074 963.622 288.552H962.505L963.01 284.223H967.414V285.232H963.987L963.73 287.413H963.805C964.127 287.102 964.675 286.892 965.266 286.887C966.732 286.892 967.812 287.977 967.812 289.476C967.812 291.006 966.662 292.107 965.04 292.107ZM976.622 283.299V290.41H975.602V287.134H972.959V286.317H975.602V285.308H972.959V284.491H975.602V283.299H976.622ZM969.167 289.035V283.965H970.177V288.176C971.455 288.17 972.669 288.101 974.044 287.843L974.152 288.681C972.626 288.965 971.321 289.024 969.909 289.035H969.167ZM970.349 292.709V289.787H971.38V291.882H976.87V292.709H970.349Z" fill="#BDBDBD"/>
<path d="M996.905 292V290.99L999.655 288.337C1000.44 287.553 1000.85 287.091 1000.85 286.436C1000.85 285.71 1000.27 285.254 999.515 285.254C998.715 285.254 998.199 285.753 998.205 286.543H996.873C996.867 285.071 997.974 284.115 999.526 284.115C1001.12 284.115 1002.18 285.066 1002.19 286.371C1002.18 287.247 1001.77 287.956 1000.23 289.4L998.849 290.775V290.829H1002.31V292H996.905ZM1006.26 292.107C1004.39 292.107 1003.27 290.657 1003.28 288.111C1003.27 285.576 1004.4 284.115 1006.26 284.115C1008.13 284.115 1009.25 285.576 1009.25 288.111C1009.25 290.663 1008.13 292.107 1006.26 292.107ZM1004.68 288.111C1004.68 289.98 1005.29 290.931 1006.26 290.937C1007.24 290.931 1007.84 289.98 1007.84 288.111C1007.84 286.258 1007.24 285.281 1006.26 285.275C1005.29 285.281 1004.69 286.258 1004.68 288.111ZM1010.28 292V290.99L1013.03 288.337C1013.82 287.553 1014.23 287.091 1014.23 286.436C1014.23 285.71 1013.65 285.254 1012.89 285.254C1012.09 285.254 1011.58 285.753 1011.58 286.543H1010.25C1010.25 285.071 1011.35 284.115 1012.9 284.115C1014.49 284.115 1015.56 285.066 1015.57 286.371C1015.56 287.247 1015.14 287.956 1013.61 289.4L1012.23 290.775V290.829H1015.69V292H1010.28ZM1017.06 292L1020.44 285.447V285.394H1016.53V284.223H1021.89V285.415L1018.51 292H1017.06ZM1030.69 283.256V290.41H1029.49V287.177H1026.96V286.231H1029.49V285.351H1026.96V284.405H1029.49V283.256H1030.69ZM1023.11 289.089V283.9H1024.3V288.101C1025.53 288.084 1026.7 288.009 1028 287.778L1028.12 288.745C1026.63 289.03 1025.32 289.083 1023.88 289.089H1023.11ZM1024.31 292.763V289.776H1025.51V291.796H1030.93V292.763H1024.31Z" fill="#1565C0"/>
<path d="M956.932 59.4492V62.4258H958.421V63.5039H956.932V67.1133H955.632V59.4492H956.932ZM949.022 65.3203V60.3281H953.768V61.3711H950.311V64.2539C952.304 64.2539 953.411 64.1895 954.671 63.9258L954.811 64.9805C953.423 65.2559 952.192 65.3203 949.878 65.3203H949.022ZM950.147 69.832V66.3047H951.448V68.7773H957.354V69.832H950.147ZM962.255 59.918C963.866 59.9121 965.032 60.8145 965.032 62.1445C965.032 63.4512 963.866 64.3652 962.255 64.3594C960.661 64.3652 959.501 63.4512 959.501 62.1445C959.501 60.8145 960.661 59.9121 962.255 59.918ZM958.81 65.0859C960.72 65.0859 963.398 65.0508 965.677 64.7109L965.771 65.6719C964.857 65.8477 963.907 65.959 962.982 66.0293V69.7148H961.669V66.1055C960.691 66.1465 959.771 66.1582 958.974 66.1641L958.81 65.0859ZM960.767 62.1445C960.761 62.8535 961.388 63.2988 962.255 63.293C963.157 63.2988 963.79 62.8535 963.79 62.1445C963.79 61.4121 963.157 60.9609 962.255 60.9727C961.388 60.9609 960.761 61.4121 960.767 62.1445ZM966.368 70.0312V59.4609H967.657V70.0312H966.368ZM973.006 69.0938C972.502 69.0938 972.086 68.6836 972.092 68.1797C972.086 67.6875 972.502 67.2832 973.006 67.2773C973.492 67.2832 973.908 67.6875 973.908 68.1797C973.908 68.6836 973.492 69.0938 973.006 69.0938ZM972.092 63.6328C972.086 63.1406 972.502 62.7363 973.006 62.7305C973.492 62.7363 973.908 63.1406 973.908 63.6328C973.908 64.1367 973.492 64.5469 973.006 64.5469C972.502 64.5469 972.086 64.1367 972.092 63.6328ZM987.214 67.6992V68.7656H977.534V67.6992H981.718V65.2617H983.018V67.6992H987.214ZM977.956 64.6758C980.065 64.3242 981.636 62.8945 981.671 61.3711H978.343V60.3047H986.382V61.3711H983.042C983.083 62.8945 984.653 64.2891 986.827 64.6172L986.311 65.6484C984.524 65.3262 983.054 64.377 982.368 63.0527C981.688 64.3945 980.235 65.373 978.471 65.707L977.956 64.6758ZM996.638 59.4609V67.4766H995.325V66.5508H993.251V65.6367H995.325V59.4609H996.638ZM987.708 64.2188C989.659 64.207 992.29 64.1895 994.54 63.9023L994.611 64.8398C993.737 64.9863 992.835 65.0801 991.939 65.1445V67.1836H990.638V65.2148C989.648 65.2559 988.704 65.2617 987.872 65.2617L987.708 64.2188ZM988.517 61.7227C988.517 60.6035 989.595 59.8418 991.165 59.8477C992.706 59.8418 993.79 60.6035 993.802 61.7227C993.79 62.8594 992.706 63.5801 991.165 63.5859C989.595 63.5801 988.517 62.8594 988.517 61.7227ZM989.114 69.832V66.7031H990.415V68.7773H996.884V69.832H989.114ZM989.747 61.7227C989.747 62.2969 990.316 62.6309 991.165 62.6367C991.974 62.6309 992.554 62.2969 992.56 61.7227C992.554 61.1484 991.974 60.8027 991.165 60.8086C990.316 60.8027 989.747 61.1484 989.747 61.7227Z" fill="#1565C0"/>
<line x1="778" y1="275.5" x2="1042" y2="275.5" stroke="#E6E6EA"/>
<rect x="1002" y="123" width="20" height="153" fill="#429CF5"/>
<rect opacity="0.75" x="950" y="135" width="20" height="141" fill="#429CF5"/>
<rect opacity="0.5" x="898" y="161" width="20" height="115" fill="#429CF5"/>
<rect opacity="0.3" x="846" y="175" width="20" height="101" fill="#429CF5"/>
<rect opacity="0.2" x="794" y="184" width="20" height="92" fill="#429CF5"/>
<path d="M808 204.94L807.141 204.94L804.423 202.244C803.537 201.39 803.042 200.966 802.36 200.966C801.592 200.966 801.104 201.589 801.104 202.405C801.104 203.27 801.651 203.818 802.479 203.823L802.479 204.94C801.055 204.951 800.115 203.866 800.115 202.384C800.115 200.885 801.066 199.849 802.328 199.838C803.198 199.849 803.891 200.257 805.325 201.718L806.926 203.297L806.99 203.297L806.99 199.709L808 199.709L808 204.94ZM800.223 195.444L808 195.444L808 196.637L801.404 196.637L801.404 196.68L802.618 198.538L801.49 198.538L800.223 196.604L800.223 195.444ZM808 193.199L801.297 189.729L801.232 189.729L801.232 193.736L800.223 193.736L800.223 188.505L801.275 188.505L808 191.964L808 193.199Z" fill="white"/>
<path d="M860 198.519L859.141 198.519L856.423 195.822C855.537 194.968 855.042 194.544 854.36 194.544C853.592 194.544 853.104 195.167 853.104 195.983C853.104 196.848 853.651 197.396 854.479 197.401L854.479 198.519C853.055 198.529 852.115 197.444 852.115 195.962C852.115 194.463 853.066 193.427 854.328 193.416C855.198 193.427 855.891 193.835 857.325 195.296L858.926 196.875L858.99 196.875L858.99 193.287L860 193.287L860 198.519ZM860.107 189.259C860.107 190.951 859.194 192.127 857.927 192.116C856.928 192.127 856.111 191.413 855.972 190.494L855.929 190.494C855.746 191.294 855.037 191.826 854.188 191.826C852.991 191.826 852.115 190.747 852.115 189.259C852.115 187.792 852.991 186.708 854.188 186.702C855.037 186.708 855.746 187.25 855.929 188.034L855.972 188.034C856.111 187.126 856.928 186.407 857.927 186.401C859.194 186.407 860.107 187.594 860.107 189.259ZM857.841 190.913C858.604 190.929 859.13 190.285 859.13 189.259C859.13 188.249 858.604 187.604 857.841 187.604C857.041 187.604 856.455 188.303 856.455 189.259C856.455 190.226 857.041 190.929 857.841 190.913ZM854.296 190.677C855.021 190.671 855.526 190.091 855.521 189.259C855.526 188.448 855.026 187.857 854.296 187.862C853.571 187.857 853.077 188.426 853.082 189.259C853.077 190.113 853.571 190.671 854.296 190.677ZM860.107 182.416C860.107 184.027 859.243 185.171 857.97 185.22L857.97 184.017C858.652 183.974 859.087 183.297 859.087 182.427C859.087 181.487 858.577 180.805 857.819 180.805C857.051 180.805 856.503 181.444 856.498 182.556L856.498 183.222L855.531 183.222L855.531 182.556C855.537 181.669 855.042 181.052 854.296 181.052C853.587 181.052 853.104 181.583 853.104 182.405C853.104 183.184 853.539 183.882 854.242 183.909L854.242 185.048C852.975 185.016 852.115 183.845 852.115 182.395C852.115 180.864 853.082 179.902 854.231 179.913C855.118 179.902 855.751 180.45 855.961 181.288L856.015 181.288C856.165 180.225 856.879 179.607 857.862 179.612C859.157 179.607 860.107 180.805 860.107 182.416Z" fill="white"/>
<path d="M912.107 180.2C912.107 181.812 911.243 182.956 909.97 183.004L909.97 181.801C910.652 181.758 911.087 181.081 911.087 180.211C911.087 179.271 910.577 178.589 909.819 178.589C909.051 178.589 908.503 179.228 908.498 180.34L908.498 181.006L907.531 181.006L907.531 180.34C907.537 179.454 907.042 178.836 906.296 178.836C905.587 178.836 905.104 179.368 905.104 180.189C905.104 180.968 905.539 181.667 906.242 181.693L906.242 182.832C904.975 182.8 904.115 181.629 904.115 180.179C904.115 178.648 905.082 177.687 906.231 177.697C907.118 177.687 907.751 178.234 907.961 179.072L908.015 179.072C908.165 178.009 908.879 177.391 909.862 177.396C911.157 177.391 912.107 178.589 912.107 180.2ZM904.223 173.143L912 173.143L912 174.335L905.404 174.335L905.404 174.378L906.618 176.236L905.49 176.236L904.223 174.303L904.223 173.143ZM904.115 168.491C904.126 167.062 904.985 165.564 907.832 165.559C910.561 165.559 912.107 166.735 912.107 168.599C912.107 170.033 911.221 171.032 909.959 171.22L909.959 170.049C910.614 169.888 911.071 169.383 911.076 168.599C911.071 167.401 910.029 166.697 908.251 166.687L908.251 166.783C908.906 167.202 909.304 167.933 909.304 168.771C909.304 170.167 908.235 171.284 906.747 171.284C905.265 171.284 904.104 170.183 904.115 168.491ZM906.726 170.135C907.628 170.129 908.342 169.458 908.337 168.513C908.342 167.573 907.574 166.848 906.715 166.848C905.872 166.848 905.104 167.541 905.104 168.491C905.104 169.431 905.834 170.14 906.726 170.135Z" fill="white"/>
<path d="M964.107 156.059C964.107 157.67 963.243 158.814 961.97 158.862L961.97 157.659C962.652 157.616 963.087 156.939 963.087 156.069C963.087 155.129 962.577 154.447 961.819 154.447C961.051 154.447 960.503 155.086 960.498 156.198L960.498 156.864L959.531 156.864L959.531 156.198C959.537 155.312 959.042 154.694 958.296 154.694C957.587 154.694 957.104 155.226 957.104 156.048C957.104 156.827 957.539 157.525 958.242 157.552L958.242 158.69C956.975 158.658 956.115 157.487 956.115 156.037C956.115 154.506 957.082 153.545 958.231 153.556C959.118 153.545 959.751 154.093 959.961 154.931L960.015 154.931C960.165 153.867 960.879 153.25 961.862 153.255C963.157 153.25 964.107 154.447 964.107 156.059ZM956.115 149.28C956.126 147.852 956.985 146.353 959.832 146.348C962.561 146.348 964.107 147.524 964.107 149.388C964.107 150.822 963.221 151.821 961.959 152.009L961.959 150.838C962.614 150.677 963.071 150.172 963.076 149.388C963.071 148.19 962.029 147.486 960.251 147.476L960.251 147.572C960.906 147.991 961.304 148.722 961.304 149.56C961.304 150.956 960.235 152.073 958.747 152.073C957.265 152.073 956.104 150.972 956.115 149.28ZM958.726 150.924C959.628 150.918 960.342 150.247 960.337 149.302C960.342 148.362 959.574 147.637 958.715 147.637C957.872 147.637 957.104 148.33 957.104 149.28C957.104 150.22 957.834 150.929 958.726 150.924ZM964.107 142.395C964.107 144.194 962.657 145.252 960.111 145.252C957.582 145.252 956.115 144.183 956.115 142.395C956.115 140.611 957.582 139.542 960.111 139.537C962.657 139.542 964.107 140.595 964.107 142.395ZM960.111 144.07C962.05 144.076 963.087 143.447 963.087 142.395C963.087 141.347 962.05 140.719 960.111 140.719C958.178 140.719 957.12 141.353 957.114 142.395C957.12 143.442 958.178 144.07 960.111 144.07Z" fill="white"/>
<path d="M1002.18 116.625V115.347L1005.47 110.223H1007.5V115.325H1008.49V116.625H1007.5V118H1005.96V116.625H1002.18ZM1003.81 115.325H1005.98V111.995H1005.91L1003.81 115.261V115.325ZM1012.78 110.223V118H1011.16V111.759H1011.12L1009.33 112.876V111.447L1011.26 110.223H1012.78ZM1017.47 118.107C1015.76 118.107 1014.53 117.167 1014.5 115.809H1016.13C1016.16 116.389 1016.72 116.77 1017.48 116.775C1018.25 116.77 1018.8 116.34 1018.8 115.712C1018.8 115.078 1018.24 114.632 1017.33 114.627H1016.61V113.435H1017.33C1018.09 113.435 1018.63 113.016 1018.63 112.403C1018.63 111.807 1018.17 111.399 1017.49 111.404C1016.8 111.399 1016.24 111.786 1016.21 112.382H1014.66C1014.69 111.044 1015.89 110.115 1017.49 110.115C1019.11 110.115 1020.19 111.077 1020.18 112.307C1020.19 113.177 1019.58 113.794 1018.71 113.95V114.015C1019.86 114.154 1020.48 114.847 1020.47 115.819C1020.48 117.151 1019.22 118.107 1017.47 118.107Z" fill="#1565C0"/>
<defs>
<clipPath id="clip0_148_4109">
<rect width="104" height="104" fill="white" transform="translate(62 119)"/>
</clipPath>
<clipPath id="clip1_148_4109">
<rect width="82" height="96" fill="white" transform="translate(221 123)"/>
</clipPath>
</defs>
</svg>
