<svg width="589" height="391" viewBox="0 0 589 391" fill="none" xmlns="http://www.w3.org/2000/svg">
<path d="M262.622 374.65C264.598 374.644 266.061 375.915 266.067 377.699C266.061 379.49 264.598 380.755 262.622 380.762C260.66 380.755 259.156 379.49 259.163 377.699C259.156 375.915 260.66 374.644 262.622 374.65ZM258.644 382.32C260.865 382.327 263.941 382.3 266.601 381.924L266.737 383.182C263.976 383.722 261.022 383.742 258.849 383.742L258.644 382.32ZM260.899 377.699C260.893 378.684 261.638 379.251 262.622 379.244C263.613 379.251 264.365 378.684 264.372 377.699C264.365 376.729 263.613 376.154 262.622 376.154C261.638 376.154 260.893 376.729 260.899 377.699ZM267.312 386.285V373.816H269.048V386.285H267.312ZM281.902 383.441V384.877H270.513V383.441H273.426V381.541H271.826V377.357H278.867V376.018H271.812V374.623H280.59V378.752H273.576V380.133H280.877V381.541H279.113V383.441H281.902ZM275.121 383.441H277.404V381.541H275.121V383.441ZM286.471 374.65C288.447 374.644 289.91 375.915 289.917 377.699C289.91 379.49 288.447 380.755 286.471 380.762C284.509 380.755 283.005 379.49 283.012 377.699C283.005 375.915 284.509 374.644 286.471 374.65ZM282.493 382.32C284.714 382.327 287.791 382.3 290.45 381.924L290.587 383.182C287.825 383.722 284.872 383.742 282.698 383.742L282.493 382.32ZM284.749 377.699C284.742 378.684 285.487 379.251 286.471 379.244C287.462 379.251 288.214 378.684 288.221 377.699C288.214 376.729 287.462 376.154 286.471 376.154C285.487 376.154 284.742 376.729 284.749 377.699ZM291.161 386.285V373.816H292.897V386.285H291.161ZM307.285 373.816V376.742H308.967V378.164H307.285V381.035H305.535V373.816H307.285ZM297.332 379.9C300.073 379.176 301.639 377.754 301.912 376.031H297.92V374.637H303.813C303.82 377.952 301.735 380.276 298.029 381.309L297.332 379.9ZM299.014 383.729C299 382.17 300.696 381.186 303.225 381.186C305.761 381.186 307.415 382.17 307.422 383.729C307.415 385.301 305.761 386.271 303.225 386.271C300.696 386.271 299 385.301 299.014 383.729ZM300.737 383.729C300.73 384.48 301.659 384.911 303.225 384.904C304.77 384.911 305.699 384.48 305.699 383.729C305.699 382.963 304.77 382.539 303.225 382.539C301.659 382.539 300.73 382.963 300.737 383.729ZM319.483 379.381V380.762H315.874V383.414H320.728V384.836H309.339V383.414H314.138V380.762H310.679V374.691H319.388V376.086H312.429V379.381H319.483Z" fill="#616161"/>
<path d="M22.8652 25.8301V34.9219H21.1289V30.8613H18.9004V29.4258H21.1289V25.8301H22.8652ZM12.543 32.2969C15.1201 31.4902 16.7881 30 17.1094 28.168H13.1855V26.7461H19.0098C19.0098 30.082 16.8906 32.5498 13.2539 33.6777L12.543 32.2969ZM14.6621 38.0391V34.0059H16.4395V36.6445H23.1797V38.0391H14.6621ZM34.1746 25.8164V28.7422H35.8562V30.1641H34.1746V33.0352H32.4246V25.8164H34.1746ZM24.2215 31.9004C26.9627 31.1758 28.5281 29.7539 28.8016 28.0312H24.8094V26.6367H30.702C30.7088 29.9521 28.6238 32.2764 24.9187 33.3086L24.2215 31.9004ZM25.9031 35.7285C25.8895 34.1699 27.5848 33.1855 30.1141 33.1855C32.6502 33.1855 34.3045 34.1699 34.3113 35.7285C34.3045 37.3008 32.6502 38.2715 30.1141 38.2715C27.5848 38.2715 25.8895 37.3008 25.9031 35.7285ZM27.6258 35.7285C27.6189 36.4805 28.5486 36.9111 30.1141 36.9043C31.659 36.9111 32.5887 36.4805 32.5887 35.7285C32.5887 34.9629 31.659 34.5391 30.1141 34.5391C28.5486 34.5391 27.6189 34.9629 27.6258 35.7285Z" fill="#616161"/>
<path d="M6.71289 124.842V130.816H0.738281V124.842H6.71289ZM2.17383 136.039V132.006H3.91016V134.645H10.6914V136.039H2.17383ZM2.46094 129.449H4.99023V126.236H2.46094V129.449ZM8.49023 132.895V123.816H10.2402V127.398H11.9219V128.834H10.2402V132.895H8.49023ZM16.9969 125.512C16.99 127.173 17.8445 128.711 19.8406 129.326L18.9246 130.693C17.5848 130.229 16.6756 129.374 16.1492 128.253C15.6023 129.552 14.5975 130.57 13.1004 131.076L12.1844 129.682C14.3104 128.998 15.2264 127.33 15.2332 125.594V124.459H16.9969V125.512ZM14.2488 133.852C14.2488 132.32 15.8758 131.425 18.5281 131.432C21.1873 131.425 22.8143 132.32 22.8211 133.852C22.8143 135.39 21.1873 136.265 18.5281 136.258C15.8758 136.265 14.2488 135.39 14.2488 133.852ZM15.9852 133.852C15.9852 134.542 16.8807 134.904 18.5281 134.904C20.1824 134.904 21.0779 134.542 21.0848 133.852C21.0779 133.141 20.1824 132.785 18.5281 132.785C16.8807 132.785 15.9852 133.141 15.9852 133.852ZM18.7059 127.521V126.1H21.0437V123.816H22.7801V131.104H21.0437V127.521H18.7059ZM34.6227 123.816V130.201H32.8863V123.816H34.6227ZM24.273 128.957C26.2076 128.424 27.1646 127.118 27.2809 125.785H24.7379V124.391H31.5738V125.785H29.0855C29.2018 127.022 30.1451 128.239 32.0523 128.738L31.2184 130.078C29.776 129.682 28.7779 128.848 28.2174 127.781C27.65 128.964 26.5973 129.9 25.066 130.338L24.273 128.957ZM26.2828 132.02V130.693H34.6363V134.016H28.0191V134.836H34.9781V136.176H26.3102V132.771H32.9V132.02H26.2828ZM46.0961 123.816V127.904H47.682V129.34H46.0961V133.523H44.3461V123.816H46.0961ZM36.0062 130.967C36.9018 130.967 37.9408 130.96 39.0277 130.926V130.208C37.6742 130.017 36.8334 129.347 36.8402 128.369C36.8334 127.139 38.0434 126.421 39.8891 126.428C41.7211 126.421 42.9311 127.139 42.9379 128.369C42.9311 129.34 42.0971 130.01 40.7641 130.208V130.844C41.7826 130.782 42.808 130.687 43.7719 130.543L43.8949 131.746C41.2768 132.252 38.3305 132.286 36.184 132.307L36.0062 130.967ZM36.3344 126.072V124.828H39.0277V123.775H40.7641V124.828H43.4574V126.072H36.3344ZM37.7562 136.039V132.881H39.5062V134.645H46.5199V136.039H37.7562ZM38.5082 128.369C38.5014 128.834 39.0004 129.101 39.8891 129.094C40.7641 129.101 41.2631 128.834 41.2699 128.369C41.2631 127.843 40.7641 127.59 39.8891 127.59C39.0004 127.59 38.5014 127.843 38.5082 128.369Z" fill="#616161"/>
<path d="M11.8005 199.982V201.391H0.452848V199.982H5.238V198.93H1.90207V194.117H3.62472V195.252H8.61496V194.117H10.3513V198.93H6.988V199.982H11.8005ZM1.71066 203.619V202.238H10.4196V206.258H8.68332V203.619H1.71066ZM3.62472 197.562H8.61496V196.537H3.62472V197.562ZM22.2486 193.816V196.811H23.9302V198.26H22.2486V201.104H20.4986V193.816H22.2486ZM12.3775 196.277V194.91H15.2075V193.734H16.9439V194.91H19.7603V196.277H12.3775ZM12.979 198.834C12.979 197.508 14.2368 196.633 16.0689 196.633C17.8804 196.633 19.1314 197.508 19.1314 198.834C19.1314 200.16 17.8804 201.035 16.0689 201.035C14.2368 201.035 12.979 200.16 12.979 198.834ZM14.1001 206.121V201.582H15.8364V202.525H20.4986V201.582H22.2486V206.121H14.1001ZM14.688 198.834C14.6812 199.436 15.2349 199.757 16.0689 199.764C16.9097 199.757 17.4771 199.436 17.4771 198.834C17.4771 198.253 16.9097 197.904 16.0689 197.918C15.2349 197.904 14.6812 198.253 14.688 198.834ZM15.8364 204.754H20.4986V203.865H15.8364V204.754ZM30.6458 194.842V200.816H24.6712V194.842H30.6458ZM26.1068 206.039V202.006H27.8431V204.645H34.6243V206.039H26.1068ZM26.3939 199.449H28.9232V196.236H26.3939V199.449ZM32.4232 202.895V193.816H34.1732V197.398H35.8548V198.834H34.1732V202.895H32.4232ZM40.9298 195.512C40.923 197.173 41.7775 198.711 43.7736 199.326L42.8575 200.693C41.5177 200.229 40.6085 199.374 40.0821 198.253C39.5353 199.552 38.5304 200.57 37.0333 201.076L36.1173 199.682C38.2433 198.998 39.1593 197.33 39.1661 195.594V194.459H40.9298V195.512ZM38.1818 203.852C38.1818 202.32 39.8087 201.425 42.4611 201.432C45.1202 201.425 46.7472 202.32 46.754 203.852C46.7472 205.39 45.1202 206.265 42.4611 206.258C39.8087 206.265 38.1818 205.39 38.1818 203.852ZM39.9181 203.852C39.9181 204.542 40.8136 204.904 42.4611 204.904C44.1153 204.904 45.0109 204.542 45.0177 203.852C45.0109 203.141 44.1153 202.785 42.4611 202.785C40.8136 202.785 39.9181 203.141 39.9181 203.852ZM42.6388 197.521V196.1H44.9767V193.816H46.713V201.104H44.9767V197.521H42.6388ZM22.7818 211.816V218.201H21.0454V211.816H22.7818ZM12.4321 216.957C14.3667 216.424 15.3237 215.118 15.44 213.785H12.897V212.391H19.7329V213.785H17.2446C17.3609 215.022 18.3042 216.239 20.2114 216.738L19.3775 218.078C17.9351 217.682 16.937 216.848 16.3765 215.781C15.8091 216.964 14.7564 217.9 13.2251 218.338L12.4321 216.957ZM14.4419 220.02V218.693H22.7954V222.016H16.1782V222.836H23.1372V224.176H14.4693V220.771H21.0591V220.02H14.4419ZM34.2552 211.816V215.904H35.8411V217.34H34.2552V221.523H32.5052V211.816H34.2552ZM24.1653 218.967C25.0609 218.967 26.0999 218.96 27.1868 218.926V218.208C25.8333 218.017 24.9925 217.347 24.9993 216.369C24.9925 215.139 26.2025 214.421 28.0482 214.428C29.8802 214.421 31.0902 215.139 31.097 216.369C31.0902 217.34 30.2562 218.01 28.9232 218.208V218.844C29.9417 218.782 30.9671 218.687 31.931 218.543L32.054 219.746C29.4359 220.252 26.4896 220.286 24.3431 220.307L24.1653 218.967ZM24.4935 214.072V212.828H27.1868V211.775H28.9232V212.828H31.6165V214.072H24.4935ZM25.9153 224.039V220.881H27.6653V222.645H34.679V224.039H25.9153ZM26.6673 216.369C26.6605 216.834 27.1595 217.101 28.0482 217.094C28.9232 217.101 29.4222 216.834 29.429 216.369C29.4222 215.843 28.9232 215.59 28.0482 215.59C27.1595 215.59 26.6605 215.843 26.6673 216.369Z" fill="#616161"/>
<path d="M23.022 259.176V260.584H19.4399V263.441H24.2661V264.836H12.8774V263.441H17.6763V260.584H14.1489V254.773H15.9399V259.176H23.022ZM29.7239 259.969V262.279C30.7698 262.218 31.8226 262.129 32.8138 261.979L32.9505 263.236C30.1888 263.763 27.2356 263.79 25.0618 263.824L24.8567 262.375C25.7659 262.375 26.8392 262.375 27.9739 262.348V259.969H29.7239ZM24.9251 259.189C27.0101 258.561 27.9602 257.084 27.9602 255.498V254.678H29.7513V255.484C29.7513 256.927 30.681 258.349 32.7317 258.916L31.9114 260.311C30.4759 259.887 29.471 259.039 28.8899 257.945C28.3226 259.155 27.2903 260.099 25.7727 260.543L24.9251 259.189ZM33.5247 266.285V253.816H35.261V266.285H33.5247Z" fill="#616161"/>
<path d="M19.9458 292.65V294.045H17.4712C17.478 295.494 18.3599 296.896 20.3423 297.477L19.5083 298.844C18.1343 298.427 17.1772 297.586 16.6304 296.526C16.0767 297.777 15.0649 298.775 13.5747 299.268L12.686 297.887C14.7505 297.237 15.687 295.624 15.7075 294.045H13.1645V292.65H19.9458ZM14.4087 301.838C14.4018 300.32 16.0425 299.438 18.6743 299.445C21.2651 299.438 22.8647 300.32 22.8716 301.838C22.8647 303.362 21.2651 304.265 18.6743 304.258C16.0425 304.265 14.4018 303.362 14.4087 301.838ZM16.1587 301.838C16.145 302.549 17.0405 302.904 18.6743 302.904C20.2876 302.904 21.1489 302.549 21.1489 301.838C21.1489 301.141 20.2876 300.792 18.6743 300.799C17.0405 300.792 16.145 301.141 16.1587 301.838ZM20.9985 299.199V291.816H22.7485V294.701H24.4302V296.123H22.7485V299.199H20.9985ZM27.6185 292.705C29.2727 292.698 30.3597 294.421 30.3665 297.203C30.3597 299.999 29.2727 301.729 27.6185 301.729C25.971 301.729 24.9114 299.999 24.9114 297.203C24.9114 294.421 25.971 292.698 27.6185 292.705ZM26.5247 297.203C26.511 299.117 26.9212 300.061 27.6185 300.047C28.3362 300.061 28.7601 299.117 28.7532 297.203C28.7601 295.296 28.3362 294.346 27.6185 294.346C26.9212 294.346 26.511 295.296 26.5247 297.203ZM31.1458 303.684V291.994H32.8001V296.561H33.9212V291.816H35.5892V304.258H33.9212V297.982H32.8001V303.684H31.1458Z" fill="#616161"/>
<path d="M16.9106 330.555C18.8862 330.562 20.3491 331.819 20.356 333.604C20.3491 335.121 19.2964 336.256 17.772 336.57V338.245C18.8247 338.184 19.8843 338.095 20.8892 337.951L21.0259 339.209C18.2642 339.735 15.311 339.756 13.1372 339.756L12.9321 338.348C13.8481 338.348 14.9145 338.341 16.0356 338.313V336.563C14.5181 336.249 13.4448 335.114 13.4517 333.604C13.4448 331.819 14.9487 330.562 16.9106 330.555ZM15.188 333.604C15.1811 334.567 15.9263 335.169 16.9106 335.162C17.9018 335.169 18.6538 334.567 18.6606 333.604C18.6538 332.612 17.9018 332.052 16.9106 332.045C15.9263 332.052 15.1811 332.612 15.188 333.604ZM21.6001 342.285V329.816H23.3364V342.285H21.6001ZM29.3411 331.771C29.3343 333.282 30.2161 334.731 32.1849 335.34L31.2552 336.693C29.9358 336.256 29.013 335.408 28.4798 334.321C27.9397 335.572 26.9759 336.557 25.554 337.035L24.6106 335.668C26.6888 334.978 27.5774 333.323 27.5911 331.607V330.473H29.3411V331.771ZM26.3333 339.852C26.3265 338.341 27.9739 337.445 30.5989 337.445C33.1761 337.445 34.7893 338.341 34.7962 339.852C34.7893 341.376 33.1761 342.265 30.5989 342.258C27.9739 342.265 26.3265 341.376 26.3333 339.852ZM28.0833 339.852C28.0696 340.556 28.9651 340.891 30.5989 340.891C32.2122 340.891 33.0735 340.556 33.0735 339.852C33.0735 339.175 32.2122 338.812 30.5989 338.812C28.9651 338.812 28.0696 339.175 28.0833 339.852ZM32.9231 337.199V329.816H34.6731V332.729H36.3548V334.178H34.6731V337.199H32.9231Z" fill="#616161"/>
<path d="M24.0205 43V119" stroke="#E0E0E0"/>
<path d="M24.0205 141V189" stroke="#E0E0E0"/>
<path d="M24.0205 229V249" stroke="#E0E0E0"/>
<path d="M24.0205 271V287" stroke="#E0E0E0"/>
<path d="M24.0205 309V325" stroke="#E0E0E0"/>
<path d="M64.0547 0V360H585.498" stroke="#BDBDBD" stroke-width="1.3"/>
<path d="M299.254 21.5H83.0703L299.254 269.5V21.5Z" stroke="#097EEA" stroke-width="1.5" stroke-linejoin="round" stroke-dasharray="2 2"/>
<path d="M106.147 3.90625C106.147 6.1875 107.155 8.67188 109.647 9.6875L108.444 11.4531C106.772 10.7578 105.671 9.41406 105.038 7.77344C104.405 9.57812 103.28 11.0625 101.601 11.8125L100.319 10.0469C102.804 8.95312 103.851 6.32031 103.851 3.90625V3.34375H100.913V1.51562H109.022V3.34375H106.147V3.90625ZM110.241 14.5V0.15625H112.507V14.5H110.241ZM126.229 9.23438V14.5H123.994V11H116.322V9.23438H126.229ZM114.26 4.45312C114.244 2.39844 115.924 0.90625 118.104 0.90625C119.244 0.90625 120.244 1.32812 120.94 2.03125H123.994V0.15625H126.229V8.65625H123.994V6.90625H120.94C120.244 7.61719 119.244 8.04688 118.104 8.04688C115.924 8.04688 114.244 6.53906 114.26 4.45312ZM116.385 4.45312C116.385 5.54688 117.096 6.14062 118.104 6.14062C119.041 6.14062 119.776 5.54688 119.776 4.45312C119.776 3.39844 119.041 2.80469 118.104 2.8125C117.096 2.80469 116.385 3.39844 116.385 4.45312ZM121.854 5.125H123.994V3.82812H121.862C121.893 4.03125 121.916 4.24219 121.916 4.45312C121.916 4.6875 121.893 4.90625 121.854 5.125ZM133.138 3.20312C133.13 5.79688 134.037 8.38281 136.419 9.53125L135.076 11.3125C133.576 10.5859 132.599 9.27344 132.021 7.64844C131.412 9.39844 130.357 10.8125 128.747 11.5938L127.372 9.76562C129.904 8.625 130.88 5.89062 130.888 3.20312V1.21875H133.138V3.20312ZM136.841 14.5V0.15625H139.091V5.59375H141.122V7.48438H139.091V14.5H136.841ZM153.469 0.15625V14.5H151.235V0.15625H153.469ZM141.407 10.375C142.454 10.375 143.657 10.375 144.907 10.3438V9.23438C143.391 8.92188 142.399 7.94531 142.407 6.64062C142.399 5.03906 143.891 3.9375 146.016 3.9375C148.157 3.9375 149.665 5.03906 149.657 6.64062C149.665 7.94531 148.665 8.92188 147.141 9.23438V10.2656C148.274 10.2109 149.415 10.1172 150.501 9.96875L150.657 11.625C147.547 12.1719 144.212 12.2031 141.688 12.2031L141.407 10.375ZM141.688 3.45312V1.70312H144.907V0.234375H147.157V1.70312H150.36V3.45312H141.688ZM144.547 6.64062C144.54 7.32031 145.157 7.64844 146.016 7.65625C146.907 7.64844 147.508 7.32031 147.501 6.64062C147.508 5.98438 146.907 5.64062 146.016 5.64062C145.157 5.64062 144.54 5.98438 144.547 6.64062ZM168.082 11.0625V12.8906H154.972V11.0625H160.394V8.54688H156.316V1.04688H158.566V3.15625H164.426V1.04688H166.676V8.54688H162.613V11.0625H168.082ZM158.566 6.76562H164.426V4.92188H158.566V6.76562ZM180.741 0.171875V10.625H178.507V6.07812H176.132V4.25H178.507V0.171875H180.741ZM168.772 7.46875C171.632 6.60938 173.437 5.00781 173.819 3.04688H169.522V1.21875H176.288C176.288 5.11719 173.913 7.96875 169.679 9.26562L168.772 7.46875ZM171.179 14.2656V9.5625H173.476V12.4688H181.101V14.2656H171.179Z" fill="#097EEA"/>
<path d="M358.301 91.9844C360.582 91.9922 362.301 93.4688 362.316 95.5469C362.301 97.2734 361.121 98.5781 359.426 98.9844V100.758C360.566 100.688 361.715 100.586 362.801 100.438L362.973 102.062C359.832 102.656 356.473 102.688 353.988 102.688L353.738 100.891C354.754 100.891 355.934 100.883 357.176 100.852V98.9766C355.488 98.5781 354.285 97.2734 354.285 95.5469C354.285 93.4688 356.043 91.9922 358.301 91.9844ZM356.52 95.5469C356.52 96.5859 357.293 97.1953 358.301 97.1875C359.332 97.1953 360.113 96.5859 360.129 95.5469C360.113 94.4688 359.324 93.9062 358.301 93.9062C357.293 93.9062 356.52 94.4688 356.52 95.5469ZM363.566 105.531V91.1562H365.801V105.531H363.566ZM373.148 92.5V98.1719H369.835V100.523C371.101 100.516 372.312 100.461 373.663 100.25L373.82 102.047C371.984 102.352 370.46 102.398 368.695 102.406H367.679V96.4062H370.976V94.3125H367.663V92.5H373.148ZM374.413 104.812V91.375H376.46V96.5H377.616V91.1562H379.741V105.5H377.616V98.2969H376.46V104.812H374.413Z" fill="#FF3233"/>
<path d="M465.808 165.156V172.875H463.558V165.156H465.808ZM453.948 169.156C453.94 167.133 455.659 165.719 457.917 165.719C460.167 165.719 461.886 167.133 461.886 169.156C461.886 171.125 460.167 172.539 457.917 172.547C455.659 172.539 453.94 171.125 453.948 169.156ZM456.136 179.344V173.469H458.339V174.672H463.558V173.469H465.808V179.344H456.136ZM456.136 169.156C456.136 170.156 456.878 170.695 457.917 170.703C458.925 170.695 459.659 170.156 459.651 169.156C459.659 168.164 458.925 167.594 457.917 167.594C456.878 167.594 456.136 168.164 456.136 169.156ZM458.339 177.531H463.558V176.406H458.339V177.531ZM479.639 165.172V175.984H477.373V174.953H474.701V173.438H477.373V165.172H479.639ZM467.342 171.438C469.959 171.414 473.49 171.375 476.498 171L476.623 172.594C475.545 172.781 474.428 172.914 473.326 173.008V175.688H471.342V177.469H479.936V179.266H469.092V174.953H471.061V173.141C469.826 173.195 468.647 173.203 467.592 173.203L467.342 171.438ZM468.373 168.219C468.373 166.695 469.858 165.625 471.983 165.625C474.069 165.625 475.576 166.695 475.576 168.219C475.576 169.766 474.069 170.766 471.983 170.766C469.865 170.766 468.373 169.766 468.373 168.219ZM470.498 168.219C470.498 168.852 471.1 169.156 471.983 169.156C472.834 169.156 473.436 168.852 473.451 168.219C473.436 167.586 472.834 167.266 471.983 167.266C471.1 167.266 470.498 167.586 470.498 168.219ZM484.626 170.368C485.474 170.368 486.194 171.072 486.194 171.92C486.194 172.784 485.474 173.488 484.626 173.488C483.762 173.488 483.074 172.784 483.074 171.92C483.074 171.072 483.762 170.368 484.626 170.368ZM496.989 166.094V167.875H494.247C494.333 169.414 495.239 170.898 497.489 171.547L496.426 173.312C494.856 172.852 493.794 171.938 493.161 170.781C492.52 172.164 491.395 173.258 489.692 173.797L488.551 172.031C490.903 171.305 491.864 169.562 491.95 167.875H489.145V166.094H496.989ZM490.551 176.672C490.544 174.898 492.45 173.859 495.504 173.859C498.504 173.859 500.379 174.898 500.379 176.672C500.379 178.445 498.504 179.516 495.504 179.5C492.45 179.516 490.544 178.445 490.551 176.672ZM492.801 176.672C492.794 177.43 493.723 177.766 495.504 177.766C497.27 177.766 498.153 177.43 498.161 176.672C498.153 175.93 497.27 175.602 495.504 175.609C493.723 175.602 492.794 175.93 492.801 176.672ZM497.989 173.625V165.156H500.239V168.391H502.098V170.203H500.239V173.625H497.989ZM514.554 165.156V179.5H512.273V165.156H514.554ZM502.445 175.328C506.094 173.609 507.625 171.484 507.945 168.391H503.258V166.641H510.242C510.234 171.062 508.836 174.664 503.617 177.109L502.445 175.328ZM529.183 176.047V177.875H516.073V176.047H518.901V172.641C517.823 171.961 517.175 170.945 517.183 169.688C517.175 167.352 519.479 165.797 522.604 165.797C525.722 165.797 528.05 167.352 528.058 169.688C528.05 170.922 527.425 171.922 526.386 172.594V176.047H529.183ZM519.417 169.688C519.409 171.047 520.651 171.844 522.604 171.844C524.542 171.844 525.823 171.047 525.823 169.688C525.823 168.312 524.542 167.555 522.604 167.562C520.651 167.555 519.409 168.312 519.417 169.688ZM521.12 176.047H524.104V173.453C523.636 173.531 523.128 173.578 522.604 173.578C522.081 173.578 521.589 173.531 521.12 173.453V176.047ZM542.904 166.828V168.641H541.123V169.953H542.904V171.797H541.123V173.5H538.873V165.156H541.123V166.828H542.904ZM529.748 169.422C529.733 167.375 531.467 165.922 533.733 165.922C535.959 165.922 537.686 167.375 537.686 169.422C537.686 171.453 535.959 172.93 533.733 172.922C531.467 172.93 529.733 171.453 529.748 169.422ZM531.436 176.641C531.428 174.828 533.373 173.742 536.389 173.75C539.35 173.742 541.264 174.828 541.264 176.641C541.264 178.43 539.35 179.516 536.389 179.5C533.373 179.516 531.428 178.43 531.436 176.641ZM531.951 169.422C531.944 170.461 532.709 171.031 533.733 171.031C534.717 171.031 535.49 170.461 535.498 169.422C535.49 168.398 534.717 167.797 533.733 167.797C532.709 167.797 531.944 168.398 531.951 169.422ZM533.686 176.641C533.678 177.414 534.608 177.727 536.389 177.719C538.154 177.727 539.037 177.414 539.045 176.641C539.037 175.859 538.154 175.516 536.389 175.516C534.608 175.516 533.678 175.859 533.686 176.641Z" fill="#17C674"/>
<path d="M588 186H254.717L199.67 346.5H534.455L588 186Z" stroke="#17C674" stroke-width="1.5" stroke-linejoin="round"/>
<path d="M134.77 36.9258V45.9492H133.471V41.6973H130.928V40.6172H133.471V36.9258H134.77ZM124.734 43.543C127.462 42.6611 129.314 41 129.581 38.9219H125.363V37.8418H131.01C130.996 41.041 128.802 43.4473 125.281 44.582L124.734 43.543ZM126.881 48.9023V45.0195H128.193V47.8496H135.084V48.9023H126.881ZM146.106 36.9121V40.002H147.884V41.0547H146.106V44.1855H144.807V36.9121H146.106ZM136.468 43.2285C139.339 42.4219 141.096 40.8223 141.335 38.8398H137.014V37.7871H142.743C142.743 40.9521 140.59 43.2422 137.001 44.2812L136.468 43.2285ZM138.136 46.7285C138.122 45.2383 139.735 44.3154 142.196 44.3223C144.664 44.3154 146.243 45.2383 146.243 46.7285C146.243 48.2324 144.664 49.1416 142.196 49.1484C139.735 49.1416 138.122 48.2324 138.136 46.7285ZM139.421 46.7285C139.414 47.5898 140.48 48.1162 142.196 48.123C143.898 48.1162 144.971 47.5898 144.971 46.7285C144.971 45.8672 143.898 45.3408 142.196 45.3477C140.48 45.3408 139.414 45.8672 139.421 46.7285ZM159.576 42.6816V43.7344H148.406V42.6816H159.576ZM148.994 41.0137C151.215 40.7744 152.972 39.7764 153.116 38.5801H149.431V37.5137H158.578V38.5801H154.852C155.003 39.7695 156.732 40.7744 159.002 41.0137L158.537 42.0391C156.411 41.793 154.654 40.8975 153.991 39.6055C153.314 40.8975 151.571 41.793 149.445 42.0391L148.994 41.0137ZM149.732 46.9199C149.732 45.498 151.325 44.6777 153.984 44.6777C156.623 44.6777 158.202 45.498 158.209 46.9199C158.202 48.3418 156.623 49.1416 153.984 49.1348C151.325 49.1416 149.732 48.3418 149.732 46.9199ZM151.045 46.9199C151.038 47.6924 152.111 48.1162 153.984 48.1094C155.83 48.1162 156.91 47.6924 156.91 46.9199C156.91 46.127 155.83 45.7031 153.984 45.6895C152.111 45.7031 151.038 46.127 151.045 46.9199ZM164.87 39.4688C164.87 41.0547 166.038 42.5449 167.932 43.1465L167.262 44.1582C165.854 43.6934 164.794 42.7295 164.234 41.5059C163.687 42.8389 162.593 43.8916 161.137 44.4043L160.467 43.3789C162.374 42.7295 163.55 41.1436 163.557 39.4688V38.9355H160.809V37.8828H167.563V38.9355H164.87V39.4688ZM162.477 48.9023V45.0195H163.789V47.8496H170.858V48.9023H162.477ZM169.19 45.8672V36.9258H170.489V45.8672H169.19Z" fill="#097EEA"/>
<path d="M213.102 129.322C214.947 129.336 216.308 130.464 216.314 132.07C216.308 133.684 214.947 134.805 213.102 134.805C211.235 134.805 209.882 133.684 209.875 132.07C209.882 130.464 211.235 129.336 213.102 129.322ZM211.146 132.07C211.14 133.082 211.974 133.752 213.102 133.752C214.223 133.752 215.057 133.082 215.057 132.07C215.057 131.072 214.223 130.402 213.102 130.416C211.974 130.402 211.14 131.072 211.146 132.07ZM211.734 136.746V135.707H219.787V138.797H213.033V139.973H220.197V141.012H211.775V137.826H218.502V136.746H211.734ZM218.488 135.146V128.912H219.787V135.146H218.488ZM225.751 132.85C225.751 134.736 226.906 136.732 228.731 137.607L227.993 138.592C226.66 137.963 225.655 136.685 225.136 135.188C224.596 136.808 223.529 138.161 222.128 138.811L221.403 137.812C223.269 136.958 224.472 134.866 224.479 132.85V132.043H221.772V131.004H224.466V129.158H225.778V131.004H228.444V132.043H225.751V132.85ZM229.798 141.162V128.912H231.096V133.848H233.065V134.941H231.096V141.162H229.798ZM237.47 129.787C239.405 129.78 240.799 130.977 240.806 132.699C240.799 134.422 239.405 135.618 237.47 135.625C235.543 135.618 234.128 134.422 234.134 132.699C234.128 130.977 235.543 129.78 237.47 129.787ZM233.546 137.471C235.775 137.471 238.865 137.45 241.545 137.061L241.64 138.004C238.872 138.537 235.898 138.551 233.711 138.551L233.546 137.471ZM235.42 132.699C235.406 133.786 236.281 134.49 237.47 134.49C238.66 134.49 239.535 133.786 239.535 132.699C239.535 131.626 238.66 130.908 237.47 130.908C236.281 130.908 235.406 131.626 235.42 132.699ZM242.31 141.189V128.912H243.609V141.189H242.31ZM256.614 138.605V139.699H245.403V138.605H248.465V136.445H246.77V132.549H253.961V130.84H246.743V129.773H255.246V133.602H248.055V135.379H255.534V136.445H253.674V138.605H256.614ZM249.723 138.605H252.403V136.445H249.723V138.605Z" fill="#FF3233"/>
<path d="M262.605 163.381V164.447H258.9V167.564H263.877V168.631H252.666V167.564H257.602V164.447H254.006V158.924H255.318V163.381H262.605ZM274.749 157.926V166.826H273.45V157.926H274.749ZM264.837 161.781C264.844 160.011 266.252 158.753 268.104 158.746C269.95 158.753 271.358 160.011 271.358 161.781C271.358 163.579 269.95 164.83 268.104 164.83C266.252 164.83 264.844 163.579 264.837 161.781ZM266.108 161.781C266.101 162.937 266.963 163.695 268.104 163.695C269.225 163.695 270.087 162.937 270.087 161.781C270.087 160.653 269.225 159.881 268.104 159.881C266.963 159.881 266.101 160.653 266.108 161.781ZM266.737 169.902V165.924H268.05V168.85H275.118V169.902H266.737ZM286.701 157.912V170.162H285.388V157.912H286.701ZM276.638 166.881C279.892 165.329 281.485 163.121 281.738 160.264H277.226V159.225H283.05C283.05 162.813 281.526 165.917 277.322 167.934L276.638 166.881ZM298.338 161.221V162.273H289.93V158.131H291.215V161.221H298.338ZM288.44 164.639V163.572H299.623V164.639H288.44ZM289.766 167.865C289.766 166.437 291.359 165.63 294.018 165.637C296.657 165.63 298.236 166.437 298.243 167.865C298.236 169.301 296.657 170.107 294.018 170.107C291.359 170.107 289.766 169.301 289.766 167.865ZM291.079 167.865C291.072 168.651 292.145 169.103 294.018 169.109C295.864 169.103 296.944 168.651 296.944 167.865C296.944 167.072 295.864 166.655 294.018 166.648C292.145 166.655 291.072 167.072 291.079 167.865ZM307.228 158.801V159.854H306.052V163.559C306.571 163.518 307.071 163.47 307.556 163.408L307.611 164.393C305.252 164.762 302.504 164.803 300.542 164.803L300.378 163.723C300.836 163.723 301.342 163.723 301.868 163.716V159.854H300.72V158.801H307.228ZM302.333 167.92C302.326 166.491 303.885 165.678 306.476 165.678C309.06 165.678 310.612 166.491 310.618 167.92C310.612 169.321 309.06 170.142 306.476 170.135C303.885 170.142 302.326 169.321 302.333 167.92ZM303.126 163.695C303.68 163.682 304.24 163.661 304.808 163.634V159.854H303.126V163.695ZM303.618 167.92C303.612 168.692 304.664 169.13 306.476 169.137C308.274 169.13 309.326 168.692 309.333 167.92C309.326 167.127 308.274 166.683 306.476 166.689C304.664 166.683 303.612 167.127 303.618 167.92ZM307.405 163.312V162.273H309.279V161.084H307.405V160.045H309.279V157.912H310.577V165.445H309.279V163.312H307.405ZM321.832 157.912V162.793H323.732V163.873H321.832V170.148H320.533V157.912H321.832ZM312.303 166.881C315.372 165.35 317.04 163.135 317.307 160.277H312.918V159.197H318.633C318.619 162.738 317.061 165.903 313.027 167.893L312.303 166.881Z" fill="#FF3233"/>
<path d="M332.938 201.926V210.895H331.64V206.287H329.302V205.234H331.64V201.926H332.938ZM322.739 208.338C324.619 207.702 325.795 206.089 325.788 204.4V203.922H323.136V202.855H329.739V203.922H327.114V204.4C327.107 205.925 328.215 207.463 330.067 208.078L329.397 209.117C328.023 208.639 327.005 207.654 326.472 206.438C325.938 207.791 324.865 208.871 323.409 209.391L322.739 208.338ZM324.981 213.902V210.088H326.28V212.85H333.267V213.902H324.981ZM345.847 208.105V209.158H340.98V211.537H339.695V209.158H334.637V208.105H345.847ZM336.031 213.902V210.375H337.33V212.85H344.603V213.902H336.031ZM336.072 206.834V202.486H344.398V206.834H336.072ZM337.344 205.809H343.113V203.512H337.344V205.809ZM351.114 204.469C351.114 206.055 352.283 207.545 354.176 208.146L353.506 209.158C352.098 208.693 351.039 207.729 350.478 206.506C349.931 207.839 348.837 208.892 347.381 209.404L346.712 208.379C348.619 207.729 349.795 206.144 349.801 204.469V203.936H347.053V202.883H353.807V203.936H351.114V204.469ZM348.721 213.902V210.02H350.034V212.85H357.102V213.902H348.721ZM355.434 210.867V201.926H356.733V210.867H355.434ZM369.71 211.605V212.699H358.499V211.605H361.562V209.445H359.867V205.549H367.058V203.84H359.839V202.773H368.343V206.602H361.152V208.379H368.63V209.445H366.771V211.605H369.71ZM362.82 211.605H365.499V209.445H362.82V211.605Z" fill="#FF3233"/>
<path d="M368.337 253.912V266.162H367.093V259.873H365.63V265.561H364.399V254.145H365.63V258.779H367.093V253.912H368.337ZM357.591 262.703C359.382 261.698 360.216 259.586 360.216 257.152V256.359H357.919V255.307H363.606V256.359H361.474V257.152C361.474 259.354 362.301 261.35 364.085 262.266L363.319 263.264C362.116 262.607 361.31 261.466 360.872 260.058C360.455 261.664 359.648 262.949 358.397 263.688L357.591 262.703ZM379.318 253.912V256.961H381.068V258.068H379.318V261.131H378.019V253.912H379.318ZM369.597 259.969C370.548 259.969 371.648 259.962 372.797 259.935V259.244C371.388 259.114 370.513 258.547 370.527 257.631C370.513 256.633 371.662 256.045 373.439 256.045C375.203 256.045 376.345 256.633 376.351 257.631C376.345 258.54 375.483 259.107 374.096 259.244V259.88C375.189 259.832 376.297 259.743 377.322 259.6L377.431 260.447C374.8 260.878 371.887 260.898 369.734 260.898L369.597 259.969ZM369.912 255.689V254.787H372.797V253.803H374.096V254.787H376.98V255.689H369.912ZM371.224 262.553V261.65H379.318V264.207H372.551V265.137H379.769V266.039H371.252V263.373H378.033V262.553H371.224ZM371.758 257.631C371.758 258.123 372.393 258.424 373.439 258.424C374.471 258.424 375.114 258.123 375.107 257.631C375.114 257.159 374.471 256.893 373.439 256.893C372.393 256.893 371.758 257.159 371.758 257.631Z" fill="#FF3233"/>
<path d="M318.256 224.912V229.793H320.156V230.873H318.256V237.148H316.957V224.912H318.256ZM308.727 233.881C311.796 232.35 313.464 230.135 313.73 227.277H309.342V226.197H315.057C315.043 229.738 313.484 232.903 309.451 234.893L308.727 233.881ZM330.85 224.912V232.199H329.552V229.096H327.268V228.029H329.552V224.912H330.85ZM320.637 231.092C322.538 230.429 323.707 228.774 323.7 227.086V226.812H321.048V225.76H327.651V226.812H325.026V227.072C325.019 228.624 326.127 230.135 327.979 230.764L327.309 231.789C325.935 231.317 324.924 230.333 324.39 229.123C323.857 230.49 322.784 231.591 321.321 232.131L320.637 231.092ZM322.606 234.852C322.599 233.396 324.172 232.548 326.749 232.541C329.312 232.548 330.885 233.396 330.891 234.852C330.885 236.308 329.312 237.155 326.749 237.162C324.172 237.155 322.599 236.308 322.606 234.852ZM323.891 234.852C323.885 235.679 324.951 236.15 326.749 236.137C328.533 236.15 329.599 235.679 329.606 234.852C329.599 234.018 328.533 233.546 326.749 233.553C324.951 233.546 323.885 234.018 323.891 234.852ZM342.187 224.912V228.535H343.964V229.615H342.187V233.812H340.875V224.912H342.187ZM332.548 231.434C335.42 230.572 337.197 228.938 337.45 226.922H333.068V225.842H338.865C338.865 229.055 336.677 231.386 333.095 232.473L332.548 231.434ZM334.408 236.902V232.896H335.72V235.85H342.693V236.902H334.408ZM355.096 226.635V227.688H345.02V226.635H349.422V225.09H350.707V226.635H355.096ZM344.487 235.781V234.729H349.422V233.108C347.276 232.972 345.97 232.124 345.977 230.764C345.97 229.287 347.536 228.419 350.065 228.426C352.56 228.419 354.146 229.287 354.139 230.764C354.146 232.124 352.827 232.972 350.707 233.108V234.729H355.698V235.781H344.487ZM347.303 230.764C347.289 231.618 348.315 232.083 350.065 232.09C351.787 232.083 352.82 231.618 352.813 230.764C352.82 229.916 351.787 229.451 350.065 229.451C348.315 229.451 347.289 229.916 347.303 230.764Z" fill="#17C674"/>
<path d="M248.823 281.816V282.869H243.847V287.148H242.575V282.869H237.653V281.816H248.823ZM238.282 279.861C240.565 279.547 242.466 278.187 242.507 276.676H238.692V275.637H247.771V276.676H243.983C244.004 278.187 245.891 279.547 248.208 279.861L247.729 280.887C245.72 280.572 243.983 279.581 243.238 278.187C242.486 279.581 240.757 280.572 238.774 280.887L238.282 279.861ZM259.203 274.912V278.535H260.98V279.615H259.203V283.812H257.89V274.912H259.203ZM249.564 281.434C252.435 280.572 254.213 278.938 254.466 276.922H250.084V275.842H255.881C255.881 279.055 253.693 281.386 250.111 282.473L249.564 281.434ZM251.424 286.902V282.896H252.736V285.85H259.709V286.902H251.424ZM272.713 284.564V285.645H261.503V284.564H266.438V282.049H262.788V275.746H264.087V277.852H270.102V275.746H271.387V282.049H267.723V284.564H272.713ZM264.087 280.996H270.102V278.904H264.087V280.996ZM284.037 276.635V277.688H273.96V276.635H278.363V275.09H279.648V276.635H284.037ZM273.427 285.781V284.729H278.363V283.108C276.216 282.972 274.911 282.124 274.917 280.764C274.911 279.287 276.476 278.419 279.005 278.426C281.5 278.419 283.086 279.287 283.079 280.764C283.086 282.124 281.767 282.972 279.648 283.108V284.729H284.638V285.781H273.427ZM276.244 280.764C276.23 281.618 277.255 282.083 279.005 282.09C280.728 282.083 281.76 281.618 281.753 280.764C281.76 279.916 280.728 279.451 279.005 279.451C277.255 279.451 276.23 279.916 276.244 280.764Z" fill="#17C674"/>
<path d="M262.247 299.912V312.162H261.003V305.873H259.54V311.561H258.31V300.145H259.54V304.779H261.003V299.912H262.247ZM251.501 308.703C253.292 307.698 254.126 305.586 254.126 303.152V302.359H251.829V301.307H257.517V302.359H255.384V303.152C255.384 305.354 256.211 307.35 257.995 308.266L257.229 309.264C256.026 308.607 255.22 307.466 254.782 306.058C254.365 307.664 253.559 308.949 252.308 309.688L251.501 308.703ZM273.133 299.912V304.793H275.033V305.873H273.133V312.148H271.834V299.912H273.133ZM263.603 308.881C266.673 307.35 268.341 305.135 268.607 302.277H264.219V301.197H269.933C269.92 304.738 268.361 307.903 264.328 309.893L263.603 308.881ZM286.725 309.551V310.631H275.514V309.551H278.194V306.352C277.189 305.798 276.574 304.923 276.581 303.822C276.574 301.895 278.467 300.63 281.092 300.623C283.724 300.63 285.618 301.895 285.618 303.822C285.618 304.902 285.03 305.771 284.046 306.324V309.551H286.725ZM277.838 303.822C277.838 305.135 279.171 305.989 281.092 305.996C283 305.989 284.353 305.135 284.36 303.822C284.353 302.503 283 301.662 281.092 301.662C279.171 301.662 277.838 302.503 277.838 303.822ZM279.479 309.551H282.733V306.83C282.234 306.946 281.68 307.008 281.092 307.008C280.518 307.008 279.971 306.946 279.479 306.83V309.551ZM298.8 301.648V302.715H297.064V304.273H298.8V305.354H297.064V307.145H295.765V299.912H297.064V301.648H298.8ZM287.63 303.535C287.617 301.812 289.011 300.623 290.884 300.623C292.764 300.623 294.138 301.812 294.152 303.535C294.138 305.244 292.764 306.44 290.884 306.447C289.011 306.44 287.617 305.244 287.63 303.535ZM288.902 303.535C288.888 304.622 289.736 305.34 290.884 305.354C292.033 305.34 292.873 304.622 292.88 303.535C292.873 302.455 292.033 301.71 290.884 301.717C289.736 301.71 288.888 302.455 288.902 303.535ZM288.997 309.811C288.997 308.341 290.583 307.479 293.113 307.473C295.615 307.479 297.173 308.341 297.173 309.811C297.173 311.273 295.615 312.142 293.113 312.135C290.583 312.142 288.997 311.273 288.997 309.811ZM290.296 309.811C290.289 310.645 291.342 311.103 293.113 311.096C294.87 311.103 295.909 310.645 295.902 309.811C295.909 308.99 294.87 308.519 293.113 308.525C291.342 308.519 290.289 308.99 290.296 309.811Z" fill="#17C674"/>
<path d="M304.204 326.029C304.19 328.265 305.544 330.521 307.444 331.361L306.665 332.387C305.257 331.717 304.143 330.343 303.568 328.668C303.001 330.466 301.873 331.942 300.403 332.66L299.61 331.566C301.538 330.712 302.892 328.367 302.892 326.029V323.938H304.204V326.029ZM308.552 335.189V322.912H309.851V335.189H308.552ZM321.844 322.912V329.215H320.545V326.07H317.961V325.018H320.545V322.912H321.844ZM311.59 328.23C313.504 327.622 314.645 326.098 314.652 324.375V323.309H315.937V324.375C315.937 325.934 317.058 327.383 318.904 327.971L318.221 328.982C316.874 328.518 315.855 327.595 315.315 326.426C314.782 327.745 313.736 328.771 312.287 329.27L311.59 328.23ZM313.832 330.814V329.789H321.844V332.838H315.131V333.973H322.267V335.012H313.859V331.854H320.558V330.814H313.832ZM334.766 332.551V333.631H323.555V332.551H326.235V329.352C325.23 328.798 324.615 327.923 324.622 326.822C324.615 324.895 326.508 323.63 329.133 323.623C331.765 323.63 333.659 324.895 333.659 326.822C333.659 327.902 333.071 328.771 332.087 329.324V332.551H334.766ZM325.879 326.822C325.879 328.135 327.212 328.989 329.133 328.996C331.041 328.989 332.394 328.135 332.401 326.822C332.394 325.503 331.041 324.662 329.133 324.662C327.212 324.662 325.879 325.503 325.879 326.822ZM327.52 332.551H330.774V329.83C330.275 329.946 329.721 330.008 329.133 330.008C328.559 330.008 328.012 329.946 327.52 329.83V332.551ZM346.841 324.648V325.715H345.105V327.273H346.841V328.354H345.105V330.145H343.806V322.912H345.105V324.648H346.841ZM335.671 326.535C335.658 324.812 337.052 323.623 338.925 323.623C340.805 323.623 342.179 324.812 342.193 326.535C342.179 328.244 340.805 329.44 338.925 329.447C337.052 329.44 335.658 328.244 335.671 326.535ZM336.943 326.535C336.929 327.622 337.777 328.34 338.925 328.354C340.074 328.34 340.914 327.622 340.921 326.535C340.914 325.455 340.074 324.71 338.925 324.717C337.777 324.71 336.929 325.455 336.943 326.535ZM337.038 332.811C337.038 331.341 338.624 330.479 341.154 330.473C343.656 330.479 345.214 331.341 345.214 332.811C345.214 334.273 343.656 335.142 341.154 335.135C338.624 335.142 337.038 334.273 337.038 332.811ZM338.337 332.811C338.33 333.645 339.383 334.103 341.154 334.096C342.911 334.103 343.95 333.645 343.943 332.811C343.95 331.99 342.911 331.519 341.154 331.525C339.383 331.519 338.33 331.99 338.337 332.811Z" fill="#17C674"/>
<path d="M371.045 289.828C372.877 289.835 374.183 291.503 374.189 294.121C374.183 296.767 372.877 298.435 371.045 298.428C369.213 298.435 367.907 296.767 367.914 294.121C367.907 291.503 369.213 289.835 371.045 289.828ZM369.158 294.121C369.151 296.069 369.931 297.266 371.045 297.266C372.18 297.266 372.945 296.069 372.945 294.121C372.945 292.2 372.18 290.997 371.045 290.99C369.931 290.997 369.151 292.2 369.158 294.121ZM376.008 301.162V288.912H377.307V293.711H379.275V294.805H377.307V301.162H376.008ZM382.395 295.898V297.43H388.179V295.898H389.45V301.012H381.11V295.898H382.395ZM379.688 294.9V293.848H387.885C388.179 292.446 388.192 291.407 388.192 290.512H381.096V289.445H389.477V290.375C389.484 291.305 389.484 292.364 389.163 293.848H390.899V294.9H379.688ZM382.395 299.945H388.179V298.441H382.395V299.945ZM395.961 290.744C395.954 292.46 397.068 293.991 398.927 294.6L398.216 295.611C396.87 295.119 395.879 294.176 395.345 292.945C394.819 294.347 393.753 295.447 392.269 295.98L391.572 294.941C393.527 294.271 394.662 292.638 394.675 290.799V289.596H395.961V290.744ZM393.582 298.824C393.575 297.341 395.147 296.479 397.724 296.486C400.288 296.479 401.86 297.341 401.867 298.824C401.86 300.301 400.288 301.142 397.724 301.135C395.147 301.142 393.575 300.301 393.582 298.824ZM394.867 298.824C394.86 299.638 395.926 300.116 397.724 300.109C399.508 300.116 400.575 299.638 400.582 298.824C400.575 297.983 399.508 297.498 397.724 297.498C395.926 297.498 394.86 297.983 394.867 298.824ZM397.943 292.467V291.4H400.527V288.912H401.826V296.145H400.527V292.467H397.943ZM413.723 288.912V301.162H412.411V288.912H413.723ZM403.661 297.881C406.914 296.329 408.507 294.121 408.76 291.264H404.248V290.225H410.073C410.073 293.813 408.548 296.917 404.344 298.934L403.661 297.881ZM416.2 296.227C416.214 293.649 416.946 291.51 418.224 289.678H419.564C418.62 291.031 417.718 293.786 417.718 296.227C417.718 298.674 418.62 301.429 419.564 302.789H418.224C416.946 300.95 416.214 298.811 416.2 296.227ZM430.873 288.912V301.162H429.629V294.873H428.166V300.561H426.936V289.145H428.166V293.779H429.629V288.912H430.873ZM420.127 297.703C421.918 296.698 422.752 294.586 422.752 292.152V291.359H420.455V290.307H426.143V291.359H424.01V292.152C424.01 294.354 424.837 296.35 426.621 297.266L425.855 298.264C424.652 297.607 423.846 296.466 423.408 295.058C422.991 296.664 422.185 297.949 420.934 298.688L420.127 297.703ZM441.854 288.912V291.961H443.604V293.068H441.854V296.131H440.555V288.912H441.854ZM432.134 294.969C433.084 294.969 434.184 294.962 435.333 294.935V294.244C433.925 294.114 433.05 293.547 433.063 292.631C433.05 291.633 434.198 291.045 435.975 291.045C437.739 291.045 438.881 291.633 438.887 292.631C438.881 293.54 438.019 294.107 436.632 294.244V294.88C437.725 294.832 438.833 294.743 439.858 294.6L439.968 295.447C437.336 295.878 434.424 295.898 432.27 295.898L432.134 294.969ZM432.448 290.689V289.787H435.333V288.803H436.632V289.787H439.516V290.689H432.448ZM433.761 297.553V296.65H441.854V299.207H435.087V300.137H442.305V301.039H433.788V298.373H440.569V297.553H433.761ZM434.294 292.631C434.294 293.123 434.929 293.424 435.975 293.424C437.008 293.424 437.65 293.123 437.643 292.631C437.65 292.159 437.008 291.893 435.975 291.893C434.929 291.893 434.294 292.159 434.294 292.631ZM446.027 289.664V291.523H449.089V289.664H450.375V290.854H453.054V288.912H454.353V296.309H453.054V294.422H450.375V295.461H444.728V289.664H446.027ZM446.027 294.422H449.089V292.549H446.027V294.422ZM446.109 298.852C446.102 297.375 447.674 296.534 450.252 296.527C452.815 296.534 454.387 297.375 454.394 298.852C454.387 300.301 452.815 301.142 450.252 301.135C447.674 301.142 446.102 300.301 446.109 298.852ZM447.394 298.852C447.387 299.665 448.454 300.13 450.252 300.137C452.036 300.13 453.102 299.665 453.109 298.852C453.102 298.004 452.036 297.539 450.252 297.525C448.454 297.539 447.387 298.004 447.394 298.852ZM450.375 293.355H453.054V291.893H450.375V293.355ZM466.25 288.926V298.209H464.952V297.033H462.491V296.117H464.952V288.926H466.25ZM456.01 294.518C458.273 294.497 461.329 294.477 463.94 294.148L464.022 295.078C462.976 295.256 461.875 295.365 460.795 295.44V297.826H459.496V295.509C458.307 295.557 457.165 295.557 456.174 295.557L456.01 294.518ZM456.967 291.551C456.96 290.252 458.198 289.391 460.016 289.391C461.807 289.391 463.051 290.252 463.051 291.551C463.051 292.856 461.807 293.684 460.016 293.684C458.204 293.684 456.96 292.856 456.967 291.551ZM457.705 300.902V297.307H458.991V299.85H466.551V300.902H457.705ZM458.198 291.551C458.191 292.275 458.929 292.727 460.016 292.727C461.062 292.727 461.814 292.275 461.821 291.551C461.814 290.819 461.062 290.348 460.016 290.361C458.929 290.348 458.191 290.819 458.198 291.551ZM471.353 296.227C471.339 298.811 470.608 300.95 469.329 302.789H467.989C468.933 301.429 469.835 298.674 469.835 296.227C469.835 293.786 468.933 291.031 467.989 289.678H469.329C470.608 291.51 471.339 293.649 471.353 296.227Z" fill="#17C674"/>
<path d="M431.02 312.992V318.707H425.291V312.992H431.02ZM426.562 317.682H429.748V314.045H426.562V317.682ZM426.672 323.902V320.02H427.971V322.85H434.957V323.902H426.672ZM433.139 320.881V311.898H434.438V315.562H436.215V316.656H434.438V320.881H433.139ZM441.085 313.744C441.078 315.46 442.192 316.991 444.052 317.6L443.341 318.611C441.994 318.119 441.003 317.176 440.47 315.945C439.943 317.347 438.877 318.447 437.393 318.98L436.696 317.941C438.651 317.271 439.786 315.638 439.8 313.799V312.596H441.085V313.744ZM438.706 321.824C438.699 320.341 440.271 319.479 442.848 319.486C445.412 319.479 446.984 320.341 446.991 321.824C446.984 323.301 445.412 324.142 442.848 324.135C440.271 324.142 438.699 323.301 438.706 321.824ZM439.991 321.824C439.984 322.638 441.051 323.116 442.848 323.109C444.633 323.116 445.699 322.638 445.706 321.824C445.699 320.983 444.633 320.498 442.848 320.498C441.051 320.498 439.984 320.983 439.991 321.824ZM443.067 315.467V314.4H445.651V311.912H446.95V319.145H445.651V315.467H443.067ZM458.847 311.912V324.162H457.535V311.912H458.847ZM448.785 320.881C452.039 319.329 453.631 317.121 453.884 314.264H449.373V313.225H455.197C455.197 316.813 453.672 319.917 449.468 321.934L448.785 320.881ZM461.325 319.227C461.338 316.649 462.07 314.51 463.348 312.678H464.688C463.745 314.031 462.842 316.786 462.842 319.227C462.842 321.674 463.745 324.429 464.688 325.789H463.348C462.07 323.95 461.338 321.811 461.325 319.227ZM476.626 321.551V322.631H465.415V321.551H468.095V318.352C467.09 317.798 466.475 316.923 466.482 315.822C466.475 313.895 468.368 312.63 470.993 312.623C473.625 312.63 475.519 313.895 475.519 315.822C475.519 316.902 474.931 317.771 473.946 318.324V321.551H476.626ZM467.739 315.822C467.739 317.135 469.072 317.989 470.993 317.996C472.901 317.989 474.254 317.135 474.261 315.822C474.254 314.503 472.901 313.662 470.993 313.662C469.072 313.662 467.739 314.503 467.739 315.822ZM469.38 321.551H472.634V318.83C472.135 318.946 471.581 319.008 470.993 319.008C470.419 319.008 469.872 318.946 469.38 318.83V321.551ZM488.701 313.648V314.715H486.965V316.273H488.701V317.354H486.965V319.145H485.666V311.912H486.965V313.648H488.701ZM477.531 315.535C477.518 313.812 478.912 312.623 480.785 312.623C482.665 312.623 484.039 313.812 484.053 315.535C484.039 317.244 482.665 318.44 480.785 318.447C478.912 318.44 477.518 317.244 477.531 315.535ZM478.803 315.535C478.789 316.622 479.637 317.34 480.785 317.354C481.934 317.34 482.774 316.622 482.781 315.535C482.774 314.455 481.934 313.71 480.785 313.717C479.637 313.71 478.789 314.455 478.803 315.535ZM478.898 321.811C478.898 320.341 480.484 319.479 483.014 319.473C485.516 319.479 487.074 320.341 487.074 321.811C487.074 323.273 485.516 324.142 483.014 324.135C480.484 324.142 478.898 323.273 478.898 321.811ZM480.197 321.811C480.19 322.645 481.243 323.103 483.014 323.096C484.771 323.103 485.81 322.645 485.803 321.811C485.81 320.99 484.771 320.519 483.014 320.525C481.243 320.519 480.19 320.99 480.197 321.811ZM491.151 312.664V314.523H494.214V312.664H495.499V313.854H498.179V311.912H499.477V319.309H498.179V317.422H495.499V318.461H489.852V312.664H491.151ZM491.151 317.422H494.214V315.549H491.151V317.422ZM491.233 321.852C491.226 320.375 492.799 319.534 495.376 319.527C497.939 319.534 499.512 320.375 499.518 321.852C499.512 323.301 497.939 324.142 495.376 324.135C492.799 324.142 491.226 323.301 491.233 321.852ZM492.518 321.852C492.512 322.665 493.578 323.13 495.376 323.137C497.16 323.13 498.226 322.665 498.233 321.852C498.226 321.004 497.16 320.539 495.376 320.525C493.578 320.539 492.512 321.004 492.518 321.852ZM495.499 316.355H498.179V314.893H495.499V316.355ZM511.375 311.926V321.209H510.076V320.033H507.615V319.117H510.076V311.926H511.375ZM501.134 317.518C503.397 317.497 506.453 317.477 509.064 317.148L509.146 318.078C508.1 318.256 507 318.365 505.92 318.44V320.826H504.621V318.509C503.431 318.557 502.29 318.557 501.298 318.557L501.134 317.518ZM502.091 314.551C502.085 313.252 503.322 312.391 505.14 312.391C506.931 312.391 508.175 313.252 508.175 314.551C508.175 315.856 506.931 316.684 505.14 316.684C503.329 316.684 502.085 315.856 502.091 314.551ZM502.83 323.902V320.307H504.115V322.85H511.675V323.902H502.83ZM503.322 314.551C503.315 315.275 504.053 315.727 505.14 315.727C506.186 315.727 506.938 315.275 506.945 314.551C506.938 313.819 506.186 313.348 505.14 313.361C504.053 313.348 503.315 313.819 503.322 314.551ZM516.477 319.227C516.463 321.811 515.732 323.95 514.454 325.789H513.114C514.057 324.429 514.959 321.674 514.959 319.227C514.959 316.786 514.057 314.031 513.114 312.678H514.454C515.732 314.51 516.463 316.649 516.477 319.227Z" fill="#17C674"/>
<path d="M390.383 330.635V331.688H380.307V330.635H384.709V329.09H385.994V330.635H390.383ZM379.773 339.781V338.729H384.709V337.108C382.562 336.972 381.257 336.124 381.264 334.764C381.257 333.287 382.822 332.419 385.352 332.426C387.847 332.419 389.433 333.287 389.426 334.764C389.433 336.124 388.113 336.972 385.994 337.108V338.729H390.984V339.781H379.773ZM382.59 334.764C382.576 335.618 383.602 336.083 385.352 336.09C387.074 336.083 388.106 335.618 388.1 334.764C388.106 333.916 387.074 333.451 385.352 333.451C383.602 333.451 382.576 333.916 382.59 334.764ZM397.919 330.648C397.919 332.645 400.045 334.531 402.403 334.955L401.802 336.035C399.84 335.611 398.042 334.326 397.249 332.604C396.442 334.319 394.644 335.598 392.682 336.035L392.108 334.955C394.432 334.518 396.545 332.645 396.552 330.648V329.719H397.919V330.648ZM391.698 339.549V338.469H402.909V339.549H391.698ZM413.808 328.912V341.162H412.496V328.912H413.808ZM403.595 337.115C404.101 337.115 404.641 337.108 405.209 337.102V331.236H403.923V330.17H410.896V331.236H409.625V336.938C410.26 336.89 410.889 336.828 411.498 336.76L411.566 337.717C408.914 338.147 406.002 338.188 403.746 338.195L403.595 337.115ZM406.466 337.081C407.082 337.067 407.717 337.04 408.353 337.013V331.236H406.466V337.081ZM421.768 330.648C421.768 332.645 423.894 334.531 426.252 334.955L425.651 336.035C423.689 335.611 421.891 334.326 421.098 332.604C420.291 334.319 418.494 335.598 416.532 336.035L415.957 334.955C418.282 334.518 420.394 332.645 420.401 330.648V329.719H421.768V330.648ZM415.547 339.549V338.469H426.758V339.549H415.547Z" fill="#17C674"/>
<path d="M466.553 222.898V224.43H472.336V222.898H473.607V228.012H465.268V222.898H466.553ZM463.846 221.9V220.848H472.042C472.336 219.446 472.35 218.407 472.35 217.512H465.254V216.445H473.635V217.375C473.642 218.305 473.642 219.364 473.32 220.848H475.057V221.9H463.846ZM466.553 226.945H472.336V225.441H466.553V226.945ZM480.118 217.744C480.111 219.46 481.225 220.991 483.085 221.6L482.374 222.611C481.027 222.119 480.036 221.176 479.503 219.945C478.976 221.347 477.91 222.447 476.427 222.98L475.729 221.941C477.684 221.271 478.819 219.638 478.833 217.799V216.596H480.118V217.744ZM477.739 225.824C477.732 224.341 479.304 223.479 481.882 223.486C484.445 223.479 486.017 224.341 486.024 225.824C486.017 227.301 484.445 228.142 481.882 228.135C479.304 228.142 477.732 227.301 477.739 225.824ZM479.024 225.824C479.017 226.638 480.084 227.116 481.882 227.109C483.666 227.116 484.732 226.638 484.739 225.824C484.732 224.983 483.666 224.498 481.882 224.498C480.084 224.498 479.017 224.983 479.024 225.824ZM482.1 219.467V218.4H484.684V215.912H485.983V223.145H484.684V219.467H482.1ZM497.88 215.912V228.162H496.568V215.912H497.88ZM487.818 224.881C491.072 223.329 492.665 221.121 492.918 218.264H488.406V217.225H494.23C494.23 220.813 492.706 223.917 488.502 225.934L487.818 224.881ZM500.358 223.227C500.371 220.649 501.103 218.51 502.381 216.678H503.721C502.778 218.031 501.875 220.786 501.875 223.227C501.875 225.674 502.778 228.429 503.721 229.789H502.381C501.103 227.95 500.371 225.811 500.358 223.227ZM506.335 216.664V218.523H509.398V216.664H510.683V217.854H513.362V215.912H514.661V223.309H513.362V221.422H510.683V222.461H505.036V216.664H506.335ZM506.335 221.422H509.398V219.549H506.335V221.422ZM506.417 225.852C506.41 224.375 507.983 223.534 510.56 223.527C513.123 223.534 514.696 224.375 514.702 225.852C514.696 227.301 513.123 228.142 510.56 228.135C507.983 228.142 506.41 227.301 506.417 225.852ZM507.702 225.852C507.696 226.665 508.762 227.13 510.56 227.137C512.344 227.13 513.41 226.665 513.417 225.852C513.41 225.004 512.344 224.539 510.56 224.525C508.762 224.539 507.696 225.004 507.702 225.852ZM510.683 220.355H513.362V218.893H510.683V220.355ZM526.559 215.926V225.209H525.26V224.033H522.799V223.117H525.26V215.926H526.559ZM516.318 221.518C518.581 221.497 521.637 221.477 524.248 221.148L524.33 222.078C523.284 222.256 522.184 222.365 521.104 222.44V224.826H519.805V222.509C518.615 222.557 517.474 222.557 516.482 222.557L516.318 221.518ZM517.275 218.551C517.269 217.252 518.506 216.391 520.324 216.391C522.115 216.391 523.359 217.252 523.359 218.551C523.359 219.856 522.115 220.684 520.324 220.684C518.513 220.684 517.269 219.856 517.275 218.551ZM518.014 227.902V224.307H519.299V226.85H526.859V227.902H518.014ZM518.506 218.551C518.499 219.275 519.237 219.727 520.324 219.727C521.37 219.727 522.122 219.275 522.129 218.551C522.122 217.819 521.37 217.348 520.324 217.361C519.237 217.348 518.499 217.819 518.506 218.551ZM531.661 223.227C531.647 225.811 530.916 227.95 529.637 229.789H528.298C529.241 228.429 530.143 225.674 530.143 223.227C530.143 220.786 529.241 218.031 528.298 216.678H529.637C530.916 218.51 531.647 220.649 531.661 223.227Z" fill="#17C674"/>
<path d="M340.901 134.791V135.83H329.731V134.791H340.901ZM330.935 131.564C330.928 130.102 332.63 129.206 335.31 129.199C337.982 129.206 339.678 130.102 339.685 131.564C339.678 133.034 337.982 133.902 335.31 133.902C332.63 133.902 330.928 133.034 330.935 131.564ZM331.058 138.961C331.058 137.539 332.644 136.746 335.31 136.76C337.941 136.746 339.527 137.539 339.534 138.961C339.527 140.376 337.941 141.169 335.31 141.162C332.644 141.169 331.058 140.376 331.058 138.961ZM332.274 131.564C332.268 132.405 333.423 132.884 335.31 132.891C337.183 132.884 338.352 132.405 338.345 131.564C338.352 130.71 337.183 130.231 335.31 130.238C333.423 130.231 332.268 130.71 332.274 131.564ZM332.37 138.961C332.363 139.727 333.437 140.157 335.31 140.15C337.155 140.157 338.235 139.727 338.235 138.961C338.235 138.168 337.155 137.744 335.31 137.744C333.437 137.744 332.363 138.168 332.37 138.961ZM344.363 135.898V137.43H350.146V135.898H351.418V141.012H343.078V135.898H344.363ZM341.656 134.9V133.848H349.852C350.146 132.446 350.16 131.407 350.16 130.512H343.064V129.445H351.445V130.375C351.452 131.305 351.452 132.364 351.131 133.848H352.867V134.9H341.656ZM344.363 139.945H350.146V138.441H344.363V139.945ZM357.573 129.787C359.507 129.78 360.902 130.977 360.909 132.699C360.902 134.422 359.507 135.618 357.573 135.625C355.645 135.618 354.23 134.422 354.237 132.699C354.23 130.977 355.645 129.78 357.573 129.787ZM353.649 137.471C355.878 137.471 358.967 137.45 361.647 137.061L361.743 138.004C358.974 138.537 356.001 138.551 353.813 138.551L353.649 137.471ZM355.522 132.699C355.508 133.786 356.383 134.49 357.573 134.49C358.762 134.49 359.637 133.786 359.637 132.699C359.637 131.626 358.762 130.908 357.573 130.908C356.383 130.908 355.508 131.626 355.522 132.699ZM362.413 141.189V128.912H363.712V141.189H362.413ZM376.716 138.605V139.699H365.505V138.605H368.568V136.445H366.872V132.549H374.064V130.84H366.845V129.773H375.349V133.602H368.158V135.379H375.636V136.445H373.777V138.605H376.716ZM369.826 138.605H372.505V136.445H369.826V138.605Z" fill="#FF3233"/>
<path d="M222.309 86.541C224.831 86.541 226.369 87.3887 226.369 88.8379C226.369 90.3076 224.831 91.1553 222.309 91.1621C219.759 91.1553 218.193 90.3076 218.193 88.8379C218.193 87.3887 219.759 86.541 222.309 86.541ZM217.113 85.3652V79.6777H218.385V81.4414H221.598V79.6777H222.883V85.3652H217.113ZM218.385 84.3262H221.598V82.4668H218.385V84.3262ZM219.492 88.8379C219.485 89.6582 220.538 90.123 222.309 90.123C224.065 90.123 225.104 89.6582 225.098 88.8379C225.104 88.0244 224.065 87.5664 222.309 87.5664C220.538 87.5664 219.485 88.0244 219.492 88.8379ZM224.961 86.2266V78.9121H226.26V81.9062H228.037V83.0137H226.26V86.2266H224.961ZM239.757 85.1055V86.1582H234.889V88.5371H233.604V86.1582H228.546V85.1055H239.757ZM229.94 90.9023V87.375H231.239V89.8496H238.512V90.9023H229.94ZM229.981 83.834V79.4863H238.307V83.834H229.981ZM231.253 82.8086H237.022V80.5117H231.253V82.8086ZM250.697 78.9258V87.9492H249.398V83.6973H246.855V82.6172H249.398V78.9258H250.697ZM240.662 85.543C243.389 84.6611 245.242 83 245.508 80.9219H241.291V79.8418H246.937C246.923 83.041 244.729 85.4473 241.209 86.582L240.662 85.543ZM242.808 90.9023V87.0195H244.121V89.8496H251.011V90.9023H242.808ZM262.034 78.9121V82.002H263.811V83.0547H262.034V86.1855H260.735V78.9121H262.034ZM252.395 85.2285C255.266 84.4219 257.023 82.8223 257.262 80.8398H252.942V79.7871H258.67C258.67 82.9521 256.517 85.2422 252.928 86.2812L252.395 85.2285ZM254.063 88.7285C254.049 87.2383 255.662 86.3154 258.123 86.3223C260.591 86.3154 262.17 87.2383 262.17 88.7285C262.17 90.2324 260.591 91.1416 258.123 91.1484C255.662 91.1416 254.049 90.2324 254.063 88.7285ZM255.348 88.7285C255.341 89.5898 256.408 90.1162 258.123 90.123C259.826 90.1162 260.899 89.5898 260.899 88.7285C260.899 87.8672 259.826 87.3408 258.123 87.3477C256.408 87.3408 255.341 87.8672 255.348 88.7285ZM271.155 79.8418V80.5254C271.142 81.3457 271.142 82.5625 270.841 84.1484L269.556 84.0254C269.822 82.6719 269.863 81.6807 269.877 80.9082H264.976V79.8418H271.155ZM264.237 85.2012C264.989 85.2012 265.844 85.1943 266.739 85.1738V82.5898H268.025V85.1328C269.337 85.0781 270.691 84.9824 271.921 84.8047L272.003 85.748C269.446 86.1992 266.521 86.2471 264.361 86.2539L264.237 85.2012ZM266.097 90.9023V87.2793H267.396V89.8496H274.423V90.9023H266.097ZM272.7 88.1133V78.9121H274.027V82.8086H275.708V83.9023H274.027V88.1133H272.7ZM286.43 78.9121V91.1895H285.131V78.9121H286.43ZM276.941 81.0723V80.0195H282.684V84.4902H278.281V87.1699C280.271 87.1631 282 87.0674 284.051 86.7324L284.174 87.7988C282.007 88.1611 280.161 88.2432 277.994 88.25H276.955V83.4512H281.357V81.0723H276.941Z" fill="#097EEA"/>
<path d="M140.119 247V112H402.843V284L140.119 247Z" stroke="#FF3233" stroke-width="1.5" stroke-linejoin="round" stroke-dasharray="2 2"/>
</svg>
