<svg width="40" height="40" viewBox="0 0 40 40" fill="none" xmlns="http://www.w3.org/2000/svg">
<mask id="path-1-outside-1_518_4224" maskUnits="userSpaceOnUse" x="2" y="4.5" width="36" height="31" fill="black">
<rect fill="white" x="2" y="4.5" width="36" height="31"/>
<path d="M10.4325 34.5H30.6015C34.1294 34.5 37 31.7067 37 28.2732C37 25.0779 34.5139 22.4368 31.3248 22.086C31.8982 21.1582 32.2062 20.0933 32.2062 19.0017C32.2062 15.689 29.4362 12.9941 26.0318 12.9941C25.9659 12.9941 25.8994 12.9952 25.8323 12.9973C25.9933 12.466 26.0749 11.9183 26.0749 11.3597C26.0749 8.12855 23.3736 5.5 20.0531 5.5C19.7496 5.5 19.5014 5.74529 19.4942 6.04061C19.4841 6.43764 19.2622 9.95054 14.4589 11.0764C10.7527 11.9449 8.62717 14.0541 8.62717 16.8632C8.62717 18.1718 9.07039 19.4085 9.87467 20.4125C6.05112 20.5996 3 23.6856 3 27.4519C3 31.2721 6.4038 34.5 10.4325 34.5ZM10.243 21.4916C10.542 21.4916 10.8634 21.5193 11.225 21.5759C11.4793 21.6172 11.7258 21.4829 11.8275 21.2539C11.9287 21.0249 11.8571 20.7584 11.6531 20.6072C10.4403 19.7049 9.74444 18.3409 9.74444 16.8643C9.74444 13.6478 13.2243 12.4855 14.7199 12.1347C19.3718 11.0448 20.351 7.92786 20.5561 6.61386C23.0243 6.86078 24.9559 8.89542 24.9559 11.3608C24.9559 12.0678 24.7949 12.7553 24.478 13.4036C24.388 13.5885 24.4121 13.8072 24.5401 13.9698C24.6681 14.1324 24.8782 14.2107 25.0873 14.1721C25.4086 14.1128 25.7267 14.0829 26.0313 14.0829C28.8191 14.0829 31.0878 16.29 31.0878 19.0028C31.0878 20.1955 30.6384 21.3485 29.8224 22.2497C29.6726 22.4145 29.6402 22.6506 29.7397 22.848C29.8386 23.0449 30.0376 23.1689 30.2751 23.1526L30.3729 23.1466C30.4484 23.1417 30.5244 23.1363 30.601 23.1363C33.5129 23.1363 35.8816 25.4418 35.8816 28.2753C35.8816 31.1089 33.5129 33.4123 30.601 33.4123H10.4325C7.00966 33.4123 4.11783 30.6825 4.11783 27.4519C4.11783 24.1653 6.86547 21.4916 10.243 21.4916Z"/>
</mask>
<path d="M10.4325 34.5H30.6015C34.1294 34.5 37 31.7067 37 28.2732C37 25.0779 34.5139 22.4368 31.3248 22.086C31.8982 21.1582 32.2062 20.0933 32.2062 19.0017C32.2062 15.689 29.4362 12.9941 26.0318 12.9941C25.9659 12.9941 25.8994 12.9952 25.8323 12.9973C25.9933 12.466 26.0749 11.9183 26.0749 11.3597C26.0749 8.12855 23.3736 5.5 20.0531 5.5C19.7496 5.5 19.5014 5.74529 19.4942 6.04061C19.4841 6.43764 19.2622 9.95054 14.4589 11.0764C10.7527 11.9449 8.62717 14.0541 8.62717 16.8632C8.62717 18.1718 9.07039 19.4085 9.87467 20.4125C6.05112 20.5996 3 23.6856 3 27.4519C3 31.2721 6.4038 34.5 10.4325 34.5ZM10.243 21.4916C10.542 21.4916 10.8634 21.5193 11.225 21.5759C11.4793 21.6172 11.7258 21.4829 11.8275 21.2539C11.9287 21.0249 11.8571 20.7584 11.6531 20.6072C10.4403 19.7049 9.74444 18.3409 9.74444 16.8643C9.74444 13.6478 13.2243 12.4855 14.7199 12.1347C19.3718 11.0448 20.351 7.92786 20.5561 6.61386C23.0243 6.86078 24.9559 8.89542 24.9559 11.3608C24.9559 12.0678 24.7949 12.7553 24.478 13.4036C24.388 13.5885 24.4121 13.8072 24.5401 13.9698C24.6681 14.1324 24.8782 14.2107 25.0873 14.1721C25.4086 14.1128 25.7267 14.0829 26.0313 14.0829C28.8191 14.0829 31.0878 16.29 31.0878 19.0028C31.0878 20.1955 30.6384 21.3485 29.8224 22.2497C29.6726 22.4145 29.6402 22.6506 29.7397 22.848C29.8386 23.0449 30.0376 23.1689 30.2751 23.1526L30.3729 23.1466C30.4484 23.1417 30.5244 23.1363 30.601 23.1363C33.5129 23.1363 35.8816 25.4418 35.8816 28.2753C35.8816 31.1089 33.5129 33.4123 30.601 33.4123H10.4325C7.00966 33.4123 4.11783 30.6825 4.11783 27.4519C4.11783 24.1653 6.86547 21.4916 10.243 21.4916Z" fill="#212121"/>
<path d="M10.4325 34.5H30.6015C34.1294 34.5 37 31.7067 37 28.2732C37 25.0779 34.5139 22.4368 31.3248 22.086C31.8982 21.1582 32.2062 20.0933 32.2062 19.0017C32.2062 15.689 29.4362 12.9941 26.0318 12.9941C25.9659 12.9941 25.8994 12.9952 25.8323 12.9973C25.9933 12.466 26.0749 11.9183 26.0749 11.3597C26.0749 8.12855 23.3736 5.5 20.0531 5.5C19.7496 5.5 19.5014 5.74529 19.4942 6.04061C19.4841 6.43764 19.2622 9.95054 14.4589 11.0764C10.7527 11.9449 8.62717 14.0541 8.62717 16.8632C8.62717 18.1718 9.07039 19.4085 9.87467 20.4125C6.05112 20.5996 3 23.6856 3 27.4519C3 31.2721 6.4038 34.5 10.4325 34.5ZM10.243 21.4916C10.542 21.4916 10.8634 21.5193 11.225 21.5759C11.4793 21.6172 11.7258 21.4829 11.8275 21.2539C11.9287 21.0249 11.8571 20.7584 11.6531 20.6072C10.4403 19.7049 9.74444 18.3409 9.74444 16.8643C9.74444 13.6478 13.2243 12.4855 14.7199 12.1347C19.3718 11.0448 20.351 7.92786 20.5561 6.61386C23.0243 6.86078 24.9559 8.89542 24.9559 11.3608C24.9559 12.0678 24.7949 12.7553 24.478 13.4036C24.388 13.5885 24.4121 13.8072 24.5401 13.9698C24.6681 14.1324 24.8782 14.2107 25.0873 14.1721C25.4086 14.1128 25.7267 14.0829 26.0313 14.0829C28.8191 14.0829 31.0878 16.29 31.0878 19.0028C31.0878 20.1955 30.6384 21.3485 29.8224 22.2497C29.6726 22.4145 29.6402 22.6506 29.7397 22.848C29.8386 23.0449 30.0376 23.1689 30.2751 23.1526L30.3729 23.1466C30.4484 23.1417 30.5244 23.1363 30.601 23.1363C33.5129 23.1363 35.8816 25.4418 35.8816 28.2753C35.8816 31.1089 33.5129 33.4123 30.601 33.4123H10.4325C7.00966 33.4123 4.11783 30.6825 4.11783 27.4519C4.11783 24.1653 6.86547 21.4916 10.243 21.4916Z" stroke="#212121" stroke-width="1.5" mask="url(#path-1-outside-1_518_4224)"/>
</svg>
