<svg width="40" height="40" viewBox="0 0 40 40" fill="none" xmlns="http://www.w3.org/2000/svg">
<path d="M5 5V7.5H10V17.5C10 20.1522 11.0536 22.6957 12.9289 24.5711C14.8043 26.4464 17.3478 27.5 20 27.5C22.6522 27.5 25.1957 26.4464 27.0711 24.5711C28.9464 22.6957 30 20.1522 30 17.5V7.5H35V5H5ZM27.5 17.5C27.5 19.4891 26.7098 21.3968 25.3033 22.8033C23.8968 24.2098 21.9891 25 20 25C18.0109 25 16.1032 24.2098 14.6967 22.8033C13.2902 21.3968 12.5 19.4891 12.5 17.5V7.5H18.75V17.5H21.25V7.5H27.5V17.5Z" fill="#161616"/>
<path d="M16.25 32.5H13.75V35H16.25V32.5Z" fill="#161616"/>
<path d="M11.25 30H8.75V32.5H11.25V30Z" fill="#161616"/>
<path d="M21.25 30H18.75V32.5H21.25V30Z" fill="#161616"/>
<path d="M26.25 32.5H23.75V35H26.25V32.5Z" fill="#161616"/>
<path d="M31.25 30H28.75V32.5H31.25V30Z" fill="#161616"/>
</svg>
