<svg width="120" height="176" viewBox="0 0 120 176" fill="none" xmlns="http://www.w3.org/2000/svg">
<path d="M68.5623 73.7455C57.2271 78.8065 44.6858 81.6327 31.4835 81.6327C18.2812 81.6327 5.73982 78.79 -5.59531 73.7455L31.4835 0L68.5623 73.7455ZM-57 176L-42.4263 147.014C-30.4302 151.747 -21.6066 162.772 -20.1195 176H-57ZM44.0248 169.493L15.6705 113.099L-13.1135 170.331C-16.2695 156.561 -26.0184 145.289 -38.8902 139.965L-9.13135 80.7783C3.26129 86.365 17.0089 89.5035 31.4835 89.5035C45.9581 89.5035 59.7057 86.365 72.0983 80.7783L85.7633 107.956C63.3739 120.494 47.3956 143.054 44.0248 169.493ZM51.3613 176C52.7327 149.857 67.6865 127.247 89.2993 115.006L99.4447 135.184L78.9225 176H51.3447H51.3613ZM87.7791 176L103.89 143.975L120 176H87.7956H87.7791Z" fill="#FAFAFA"/>
</svg>
