<svg width="17" height="16" viewBox="0 0 17 16" fill="none" xmlns="http://www.w3.org/2000/svg">
<path d="M6.34947 15.4296C2.93346 15.4296 0.990724 13.6192 1.6585 11.0019H4.92413C4.66527 12.1192 5.58771 12.8537 7.08872 12.864C8.63849 12.8537 9.97647 12.0261 10.3044 10.8157C10.6566 9.59503 9.7689 8.7364 7.94562 8.72605H6.50617L7.14868 6.42947H8.58813C10.1243 6.42947 11.4242 5.62257 11.7434 4.44324C12.0754 3.29495 11.3823 2.50873 10.0044 2.51908C8.6323 2.50873 7.29599 3.25357 6.92102 4.40186H3.82727C4.60164 1.82597 7.50859 0.0362879 10.699 0.0362879C13.9432 0.0362879 15.5843 1.88804 14.9108 4.25703C14.4526 5.93291 12.9059 7.12258 11.0818 7.42259L11.047 7.54673C13.2599 7.8157 14.1434 9.1502 13.598 11.0226C12.9018 13.5882 9.86217 15.4296 6.34947 15.4296Z" fill="#5FAFFE"/>
</svg>
