<svg width="17" height="16" viewBox="0 0 17 16" fill="none" xmlns="http://www.w3.org/2000/svg">
<path d="M6.60729 15.4295C3.39827 15.4192 0.844063 13.5674 2.38873 8.0846C3.81474 3.02592 7.1541 0.0362269 11.0428 0.0362269C14.1687 0.0362269 15.7846 1.9397 15.4074 4.4018H12.2277C12.2622 3.35696 11.5529 2.70523 10.2961 2.70523C8.17985 2.70523 6.56113 4.53628 5.7148 7.4846H5.86519C6.95827 6.1501 8.71147 5.37423 10.4302 5.37423C13.2339 5.37423 14.7535 7.39149 13.9527 10.2157C13.1125 13.2571 10.1171 15.4399 6.60729 15.4295ZM5.24984 10.2984C4.86035 11.7674 5.68188 12.9778 7.27462 12.9674C8.87231 12.9778 10.3703 11.8088 10.7928 10.2984C11.2125 8.79841 10.3872 7.63977 8.811 7.62943C7.21826 7.63977 5.67941 8.83979 5.24984 10.2984Z" fill="#5FAFFE"/>
</svg>
