<svg width="157" height="33" viewBox="0 0 157 33" fill="none" xmlns="http://www.w3.org/2000/svg">
<g clip-path="url(#clip0_41_1864)">
<path d="M23.5386 13.7835C21.4137 14.7295 19.0626 15.2577 16.5876 15.2577C14.1126 15.2577 11.7616 14.7264 9.63662 13.7835L16.5876 0L23.5386 13.7835ZM0 32.8956L2.73208 27.478C4.98093 28.3625 6.63505 30.4233 6.91383 32.8956H0ZM18.9387 31.6794L13.6232 21.139L8.22721 31.836C7.63557 29.2624 5.80799 27.1555 3.39496 26.1604L8.97373 15.098C11.2969 16.1422 13.8741 16.7288 16.5876 16.7288C19.3011 16.7288 21.8783 16.1422 24.2015 15.098L26.7632 20.1778C22.566 22.5211 19.5706 26.7378 18.9387 31.6794ZM20.314 32.8956C20.5711 28.0093 23.3744 23.7833 27.4261 21.4953L29.328 25.2667L25.4808 32.8956H20.3109H20.314ZM27.1411 32.8956L30.1613 26.9098L33.1814 32.8956H27.1442H27.1411Z" fill="#1565C0"/>
<path d="M58.9548 21.4247H54.866L52.8216 16.7811H46.4839L44.3435 21.4247H41.6238L50.4581 2.01782L58.9579 21.4247H58.9548ZM47.2397 15.1994H52.1463L49.7271 9.70195L47.2366 15.1994H47.2397Z" fill="#1565C0"/>
<path d="M68.5883 12.6503C68.5883 12.3247 68.5542 12.033 68.4861 11.7781C68.4179 11.5232 68.325 11.3082 68.2104 11.1393C68.0927 10.9673 67.9626 10.8383 67.8139 10.7492C67.6652 10.6602 67.5103 10.6172 67.3493 10.6172C67.1882 10.6172 67.0054 10.6509 66.7948 10.7185C66.5873 10.7861 66.3673 10.8813 66.1381 11.0011C65.9089 11.1239 65.6735 11.2713 65.4349 11.4464C65.1964 11.6214 64.9672 11.818 64.7504 12.036V21.4247H60.9961V9.73879L64.7504 8.30762V9.61288C65.3265 9.17677 65.9461 8.85736 66.6027 8.65159C67.2594 8.44582 67.913 8.34447 68.5635 8.34447C69.0684 8.34447 69.5486 8.44582 70.0008 8.65159C70.453 8.85736 70.8495 9.13377 71.1903 9.48696C71.531 9.83707 71.8005 10.2517 72.0018 10.7246C72.2032 11.1976 72.3023 11.7013 72.3023 12.2387V21.4278H68.5852V12.6534L68.5883 12.6503Z" fill="#1565C0"/>
<path d="M75.8801 4.0878C75.8801 3.82982 75.9328 3.58105 76.035 3.34764C76.1403 3.11423 76.2828 2.91153 76.4687 2.74569C76.6514 2.57984 76.8652 2.44471 77.1068 2.34336C77.3484 2.24201 77.6086 2.19287 77.8874 2.19287C78.1662 2.19287 78.4294 2.24201 78.6742 2.34336C78.9189 2.44471 79.1326 2.57677 79.3123 2.74569C79.4919 2.9146 79.6344 3.11423 79.7397 3.34764C79.845 3.58105 79.8946 3.82982 79.8946 4.0878C79.8946 4.34578 79.842 4.59147 79.7397 4.82181C79.6344 5.05215 79.4919 5.25178 79.3123 5.41763C79.1326 5.58654 78.9189 5.7186 78.6742 5.81995C78.4294 5.9213 78.1662 5.97044 77.8874 5.97044C77.6086 5.97044 77.3453 5.9213 77.1068 5.81995C76.8683 5.7186 76.6545 5.58654 76.4687 5.41763C76.2828 5.25178 76.1403 5.05215 76.035 4.82181C75.9297 4.59147 75.8801 4.34578 75.8801 4.0878ZM76.035 9.73573L79.7769 8.30455V21.4216H76.035V9.7388V9.73573Z" fill="#1565C0"/>
<path d="M83.7324 3.449L87.4867 2.01782V9.4624C87.9668 9.13685 88.4934 8.86966 89.0634 8.65775C89.6333 8.44891 90.1816 8.34449 90.7113 8.34449C91.4826 8.34449 92.1919 8.49805 92.8393 8.80209C93.4898 9.10921 94.0505 9.52075 94.5244 10.0459C94.9984 10.568 95.367 11.1792 95.6303 11.8733C95.8936 12.5674 96.0268 13.3045 96.0268 14.0815C96.0268 14.7664 95.9431 15.4297 95.7728 16.0716C95.6024 16.7135 95.367 17.3124 95.0572 17.8744C94.7475 18.4364 94.3789 18.9493 93.9452 19.4192C93.5115 19.8891 93.0314 20.2884 92.5017 20.617C91.972 20.9487 91.4052 21.2067 90.8011 21.3879C90.1971 21.5721 89.5652 21.6643 88.9054 21.6643C87.9359 21.6643 87.0066 21.5291 86.1207 21.2558C85.2348 20.9855 84.4387 20.5494 83.7324 19.9567V3.449ZM87.4867 19.1029C87.6137 19.2196 87.7469 19.3332 87.8832 19.4407C88.0195 19.5482 88.1651 19.6465 88.3169 19.7294C88.4686 19.8123 88.6328 19.8799 88.8094 19.929C88.9859 19.9782 89.178 20.0058 89.3855 20.0058C89.8037 20.0058 90.1816 19.8738 90.5223 19.6096C90.8631 19.3455 91.1543 18.9831 91.399 18.5163C91.6437 18.0525 91.8326 17.5028 91.9658 16.8732C92.099 16.2405 92.1641 15.5618 92.1641 14.8339C92.1641 14.2903 92.0959 13.7774 91.9596 13.2953C91.8233 12.8131 91.6375 12.3923 91.399 12.0268C91.1635 11.6614 90.8848 11.3758 90.5626 11.1669C90.2405 10.9581 89.8997 10.8537 89.5404 10.8537C89.1811 10.8537 88.8342 10.9611 88.4594 11.1731C88.0814 11.385 87.7562 11.6552 87.4836 11.9839V19.1029H87.4867Z" fill="#1565C0"/>
<path d="M98.697 4.0878C98.697 3.82982 98.7497 3.58105 98.8519 3.34764C98.9572 3.11423 99.0997 2.91153 99.2856 2.74569C99.4683 2.57984 99.6821 2.44471 99.9237 2.34336C100.165 2.24201 100.425 2.19287 100.704 2.19287C100.983 2.19287 101.246 2.24201 101.491 2.34336C101.736 2.44471 101.949 2.57677 102.129 2.74569C102.309 2.9146 102.451 3.11423 102.557 3.34764C102.662 3.58105 102.712 3.82982 102.712 4.0878C102.712 4.34578 102.659 4.59147 102.557 4.82181C102.451 5.05215 102.309 5.25178 102.129 5.41763C101.949 5.58654 101.736 5.7186 101.491 5.81995C101.246 5.9213 100.983 5.97044 100.704 5.97044C100.425 5.97044 100.162 5.9213 99.9237 5.81995C99.6821 5.7186 99.4714 5.58654 99.2856 5.41763C99.0997 5.25178 98.9572 5.05215 98.8519 4.82181C98.7466 4.59147 98.697 4.34578 98.697 4.0878ZM98.8519 9.73573L102.594 8.30455V21.4216H98.8519V9.7388V9.73573Z" fill="#1565C0"/>
<path d="M112.193 21.6642C111.214 21.6642 110.31 21.4952 109.48 21.1605C108.649 20.8257 107.931 20.365 107.327 19.7784C106.723 19.1918 106.249 18.5039 105.908 17.7146C105.567 16.9222 105.397 16.0684 105.397 15.1471C105.397 14.1612 105.567 13.2491 105.908 12.4168C106.249 11.5845 106.72 10.8658 107.321 10.2639C107.922 9.66192 108.637 9.19203 109.467 8.85113C110.297 8.5133 111.202 8.34131 112.181 8.34131C113.16 8.34131 114.064 8.50715 114.9 8.83577C115.734 9.16746 116.455 9.61893 117.059 10.1963C117.663 10.7737 118.14 11.4524 118.484 12.2356C118.828 13.0187 119.002 13.8602 119.002 14.7663C119.002 15.6723 118.831 16.6028 118.491 17.4413C118.15 18.2797 117.676 19.0076 117.072 19.631C116.468 20.2545 115.746 20.7489 114.913 21.1113C114.08 21.4768 113.172 21.658 112.193 21.658V21.6642ZM112.627 20.0948C112.964 20.0948 113.277 19.9811 113.565 19.7508C113.853 19.5205 114.104 19.2103 114.318 18.8233C114.532 18.4333 114.696 17.9849 114.811 17.475C114.928 16.9652 114.984 16.4339 114.984 15.8811C114.984 15.0611 114.925 14.2902 114.811 13.5654C114.693 12.8406 114.504 12.2079 114.241 11.6643C113.977 11.1207 113.633 10.6908 113.212 10.3714C112.791 10.052 112.277 9.89533 111.667 9.89533C111.369 9.89533 111.084 10.009 110.812 10.2332C110.539 10.4604 110.297 10.7614 110.09 11.1422C109.882 11.5231 109.715 11.9622 109.591 12.4598C109.467 12.9573 109.405 13.4825 109.405 14.0353C109.405 14.8645 109.48 15.6477 109.628 16.3817C109.777 17.1188 109.988 17.7607 110.266 18.3073C110.542 18.8571 110.88 19.2901 111.276 19.6126C111.673 19.9351 112.125 20.0948 112.63 20.0948H112.627Z" fill="#1565C0"/>
<path d="M137.308 12.7148C137.308 12.4292 137.274 12.162 137.206 11.904C137.138 11.6491 137.045 11.428 136.924 11.2375C136.803 11.0471 136.664 10.8997 136.503 10.7861C136.342 10.6724 136.168 10.6172 135.986 10.6172C135.769 10.6172 135.546 10.654 135.314 10.7308C135.081 10.8076 134.849 10.9058 134.623 11.0318C134.397 11.1577 134.18 11.3051 133.978 11.4709C133.777 11.6399 133.601 11.8149 133.449 11.9992V21.4278H129.756V12.7148C129.756 12.4292 129.719 12.162 129.648 11.904C129.577 11.6491 129.478 11.428 129.354 11.2375C129.23 11.0502 129.087 10.8997 128.926 10.7861C128.765 10.6724 128.601 10.6172 128.434 10.6172C128.232 10.6172 128.019 10.654 127.789 10.7308C127.56 10.8076 127.331 10.9058 127.105 11.0318C126.879 11.1577 126.656 11.3051 126.442 11.4709C126.228 11.6399 126.039 11.8149 125.872 11.9992V21.4278H122.143V9.73879L125.872 8.30762V9.70194C126.458 9.28426 127.065 8.95257 127.693 8.70994C128.322 8.46732 128.926 8.34447 129.502 8.34447C129.825 8.34447 130.147 8.38133 130.472 8.45811C130.797 8.53489 131.11 8.63931 131.411 8.77751C131.711 8.91571 131.99 9.08463 132.247 9.28119C132.504 9.47774 132.724 9.70194 132.91 9.95378C133.192 9.72037 133.498 9.50231 133.836 9.29961C134.174 9.09692 134.527 8.928 134.902 8.7898C135.273 8.65159 135.654 8.5441 136.045 8.46425C136.432 8.3844 136.819 8.34447 137.206 8.34447C137.727 8.34447 138.222 8.44889 138.693 8.65773C139.161 8.86658 139.573 9.15527 139.926 9.52381C140.279 9.89235 140.558 10.3223 140.768 10.8168C140.976 11.3112 141.081 11.8426 141.081 12.4107V21.4247H137.318V12.7117L137.308 12.7148Z" fill="#1565C0"/>
<path d="M150.588 21.7134C149.714 21.7134 148.89 21.5445 148.122 21.2036C147.351 20.8658 146.682 20.4082 146.115 19.8339C145.545 19.2596 145.096 18.5962 144.761 17.8376C144.427 17.079 144.262 16.2805 144.262 15.4328C144.262 14.4193 144.414 13.4796 144.721 12.6135C145.024 11.7474 145.458 10.995 146.019 10.3592C146.579 9.72349 147.252 9.22903 148.032 8.87277C148.813 8.51651 149.686 8.33838 150.65 8.33838C151.508 8.33838 152.295 8.47965 153.007 8.76528C153.719 9.0509 154.333 9.43787 154.841 9.93233C155.349 10.4268 155.745 11.0072 156.024 11.6768C156.306 12.3463 156.445 13.0619 156.445 13.8235H147.918C147.949 14.5361 148.051 15.2117 148.224 15.8567C148.398 16.5016 148.627 17.0667 148.915 17.5581C149.203 18.0464 149.544 18.4365 149.931 18.7252C150.318 19.0139 150.752 19.1582 151.223 19.1582C151.632 19.1582 152.034 19.0845 152.431 18.9371C152.827 18.7897 153.196 18.59 153.53 18.3351C153.868 18.0802 154.159 17.7823 154.407 17.4445C154.655 17.1066 154.835 16.7381 154.949 16.345L156.851 16.6582C156.659 17.3523 156.352 18.0065 155.931 18.6177C155.51 19.2288 155.017 19.7632 154.45 20.2239C153.884 20.6846 153.27 21.047 152.604 21.3111C151.938 21.5752 151.266 21.7073 150.585 21.7073L150.588 21.7134ZM152.164 12.4998C152.133 12.1221 152.053 11.7781 151.929 11.4649C151.805 11.1516 151.647 10.8813 151.455 10.6541C151.263 10.4268 151.037 10.2548 150.783 10.132C150.526 10.0122 150.25 9.95076 149.953 9.95076C149.72 9.95076 149.491 10.0122 149.268 10.132C149.042 10.2548 148.841 10.4237 148.661 10.6479C148.481 10.869 148.326 11.1362 148.203 11.4526C148.079 11.7658 147.995 12.116 147.955 12.4998H152.164Z" fill="#1565C0"/>
<path d="M42.2278 26.5964H43.3708V29.2039H46.0843V26.5964H47.2273V32.917H46.0843V30.0976H43.3708V32.917H42.2278V26.5964Z" fill="#1565C0"/>
<path d="M56.2319 30.6045V30.4755C56.2319 28.8815 57.2077 28.0984 58.425 28.0984C59.8375 28.0984 60.4509 28.8815 60.4509 30.3926V30.8348H57.3285C57.3935 31.8207 57.9046 32.1708 58.8153 32.1708C59.4286 32.1708 59.8747 32.0326 60.2929 31.8207V32.5578C59.9676 32.7697 59.4101 33 58.6016 33C57.0125 33 56.2319 32.1063 56.2319 30.6045ZM57.3285 30.107H59.3636C59.3636 29.2132 59.0291 28.8815 58.4064 28.8815C57.9139 28.8815 57.4028 29.1395 57.3285 30.107Z" fill="#1565C0"/>
<path d="M69.0654 31.6548C69.0654 30.7795 69.6509 30.3741 70.5987 30.2359L71.7232 30.107V29.7476C71.7232 29.1027 71.4351 28.9553 70.6266 28.9553C70.162 28.9553 69.7531 29.0197 69.465 29.0842V28.3564C69.9111 28.1813 70.4222 28.0984 71.0448 28.0984C72.1506 28.0984 72.7918 28.5222 72.7918 29.5081V32.9171H71.909L71.8254 32.5301H71.7696C71.5373 32.7973 71.1563 33 70.5337 33C69.6695 33 69.0654 32.567 69.0654 31.6548ZM71.7232 31.9681V30.798L70.8403 30.8901C70.3664 30.927 70.1155 31.1204 70.1155 31.5996C70.1155 32.051 70.4222 32.2537 70.8589 32.2537C71.2028 32.2537 71.5466 32.1339 71.7232 31.9681Z" fill="#1565C0"/>
<path d="M81.9543 26.1819H83.0323V32.917H81.9543V26.1819Z" fill="#1565C0"/>
<path d="M92.4987 31.7468V29.0012H91.8296V28.172H92.4987V27.0571H93.5488V28.172H94.6918V29.0012H93.5488V31.5994C93.5488 31.9956 93.6974 32.143 94.1993 32.143C94.3851 32.143 94.5803 32.1154 94.7475 32.0693V32.7788C94.5617 32.8709 94.3015 32.9723 93.8554 32.9723C93.0284 32.9723 92.4987 32.6406 92.4987 31.7468Z" fill="#1565C0"/>
<path d="M103.622 26.1819H104.691V28.5774H104.737C105.128 28.2918 105.685 28.0891 106.261 28.0891C107.181 28.0891 107.655 28.4576 107.655 29.3974V32.917H106.577V29.6462C106.577 29.1671 106.419 28.9736 105.769 28.9736C105.397 28.9736 104.979 29.0934 104.691 29.2316V32.917H103.622V26.1819Z" fill="#1565C0"/>
<path d="M116.521 30.6505V30.5031C116.521 28.8631 117.524 28.0891 118.853 28.0891C119.485 28.0891 119.866 28.2089 120.173 28.3747V29.204C119.773 29.0473 119.485 28.946 118.918 28.946C118.119 28.946 117.626 29.4435 117.626 30.3925V30.6044C117.626 31.6916 118.082 32.1523 118.992 32.1523C119.578 32.1523 119.977 31.968 120.219 31.8575V32.6314C119.912 32.8249 119.466 33 118.807 33C117.394 33 116.521 32.2168 116.521 30.6505Z" fill="#1565C0"/>
<path d="M128.778 31.6548C128.778 30.7795 129.363 30.3741 130.311 30.2359L131.435 30.107V29.7476C131.435 29.1027 131.147 28.9553 130.339 28.9553C129.874 28.9553 129.465 29.0197 129.177 29.0842V28.3564C129.623 28.1813 130.134 28.0984 130.757 28.0984C131.863 28.0984 132.504 28.5222 132.504 29.5081V32.9171H131.621L131.538 32.5301H131.482C131.249 32.7973 130.868 33 130.246 33C129.382 33 128.778 32.567 128.778 31.6548ZM131.435 31.9681V30.798L130.553 30.8901C130.079 30.927 129.828 31.1204 129.828 31.5996C129.828 32.051 130.134 32.2537 130.571 32.2537C130.915 32.2537 131.259 32.1339 131.435 31.9681Z" fill="#1565C0"/>
<path d="M141.648 28.1721H142.68V28.7249H142.717C142.977 28.384 143.47 28.1353 143.971 28.1353C144.101 28.1353 144.222 28.1445 144.269 28.1629V29.1027C144.148 29.0843 143.99 29.075 143.878 29.075C143.451 29.075 143.024 29.1948 142.717 29.3883V32.9171H141.648V28.1721Z" fill="#1565C0"/>
<path d="M152.781 30.6045V30.4755C152.781 28.8815 153.757 28.0984 154.974 28.0984C156.387 28.0984 157 28.8815 157 30.3926V30.8348H153.878C153.943 31.8207 154.454 32.1708 155.364 32.1708C155.978 32.1708 156.424 32.0326 156.842 31.8207V32.5578C156.517 32.7697 155.959 33 155.151 33C153.562 33 152.781 32.1063 152.781 30.6045ZM153.878 30.107H155.913C155.913 29.2132 155.578 28.8815 154.956 28.8815C154.463 28.8815 153.952 29.1395 153.878 30.107Z" fill="#1565C0"/>
</g>
<defs>
<clipPath id="clip0_41_1864">
<rect width="157" height="33" fill="white"/>
</clipPath>
</defs>
</svg>
