<svg width="143" height="30" viewBox="0 0 143 30" fill="none" xmlns="http://www.w3.org/2000/svg">
<g clip-path="url(#clip0_41_4837)">
<path d="M21.3988 12.5305C19.467 13.3904 17.3297 13.8706 15.0797 13.8706C12.8297 13.8706 10.6923 13.3876 8.76057 12.5305L15.0797 0L21.3988 12.5305ZM0 29.9051L2.48371 24.98C4.52813 25.7841 6.03187 27.6575 6.28531 29.9051H0ZM17.217 28.7994L12.3848 19.2173L7.47929 28.9418C6.94144 26.6021 5.28 24.6868 3.08633 23.7822L8.15795 13.7255C10.2699 14.6747 12.6129 15.208 15.0797 15.208C17.5465 15.208 19.8894 14.6747 22.0014 13.7255L24.3302 18.3434C20.5145 20.4737 17.7915 24.3071 17.217 28.7994ZM18.4673 29.9051C18.701 25.463 21.2495 21.6212 24.9328 19.5412L26.6619 22.9698L23.1644 29.9051H18.4645H18.4673ZM24.6738 29.9051L27.4194 24.4635L30.165 29.9051H24.6766H24.6738Z" fill="#BDBDBD"/>
<path d="M53.5958 19.4771H49.8787L48.0202 15.2556H42.2586L40.3128 19.4771H37.8403L45.8716 1.83447L53.5987 19.4771H53.5958ZM42.9457 13.8177H47.4063L45.207 8.82005L42.9429 13.8177H42.9457Z" fill="#BDBDBD"/>
<path d="M62.3532 11.5005C62.3532 11.2045 62.3222 10.9393 62.2603 10.7076C62.1983 10.4758 62.1138 10.2804 62.0096 10.1268C61.9026 9.97048 61.7844 9.85322 61.6492 9.77225C61.514 9.69128 61.3732 9.65219 61.2268 9.65219C61.0804 9.65219 60.9142 9.68291 60.7227 9.74433C60.534 9.80575 60.3341 9.89231 60.1257 10.0012C59.9173 10.1129 59.7033 10.2469 59.4865 10.406C59.2697 10.5652 59.0613 10.7439 58.8642 10.9421V19.4772H55.4512V8.85368L58.8642 7.55261V8.73921C59.3879 8.34275 59.9511 8.05238 60.5481 7.86532C61.1451 7.67825 61.7393 7.58612 62.3307 7.58612C62.7897 7.58612 63.2261 7.67825 63.6373 7.86532C64.0484 8.05238 64.4089 8.30366 64.7186 8.62474C65.0284 8.94303 65.2734 9.31995 65.4564 9.74991C65.6395 10.1799 65.7296 10.6378 65.7296 11.1264V19.48H62.3504V11.5033L62.3532 11.5005Z" fill="#BDBDBD"/>
<path d="M68.9832 3.71631C68.9832 3.48179 69.031 3.25563 69.124 3.04344C69.2197 2.83125 69.3492 2.64698 69.5182 2.49621C69.6843 2.34544 69.8786 2.2226 70.0983 2.13046C70.3179 2.03832 70.5545 1.99365 70.8079 1.99365C71.0614 1.99365 71.3007 2.03832 71.5232 2.13046C71.7456 2.2226 71.94 2.34265 72.1033 2.49621C72.2666 2.64977 72.3961 2.83125 72.4919 3.04344C72.5876 3.25563 72.6327 3.48179 72.6327 3.71631C72.6327 3.95084 72.5848 4.1742 72.4919 4.3836C72.3961 4.593 72.2666 4.77448 72.1033 4.92525C71.94 5.07881 71.7456 5.19886 71.5232 5.291C71.3007 5.38314 71.0614 5.42781 70.8079 5.42781C70.5545 5.42781 70.3151 5.38314 70.0983 5.291C69.8815 5.19886 69.6872 5.07881 69.5182 4.92525C69.3492 4.77448 69.2197 4.593 69.124 4.3836C69.0282 4.1742 68.9832 3.95084 68.9832 3.71631ZM69.124 8.8508L72.5257 7.54973V19.4743H69.124V8.85359V8.8508Z" fill="#BDBDBD"/>
<path d="M76.1206 3.13554L79.5336 1.83447V8.60227C79.9701 8.30632 80.4488 8.06342 80.9669 7.87077C81.4851 7.68091 81.9835 7.58598 82.465 7.58598C83.1662 7.58598 83.8111 7.72558 84.3996 8.00199C84.991 8.28119 85.5007 8.65532 85.9315 9.13275C86.3624 9.60739 86.6975 10.163 86.9369 10.794C87.1762 11.425 87.2973 12.0951 87.2973 12.8014C87.2973 13.424 87.2213 14.0271 87.0664 14.6106C86.9115 15.1942 86.6975 15.7386 86.4159 16.2495C86.1343 16.7605 85.7992 17.2267 85.4049 17.6539C85.0107 18.0811 84.5742 18.4441 84.0927 18.7428C83.6112 19.0443 83.0958 19.2789 82.5467 19.4436C81.9976 19.6111 81.4231 19.6949 80.8233 19.6949C79.9419 19.6949 79.0971 19.572 78.2917 19.3235C77.4864 19.0778 76.7627 18.6814 76.1206 18.1425V3.13554ZM79.5336 17.3663C79.649 17.4724 79.7701 17.5757 79.894 17.6735C80.0179 17.7712 80.1503 17.8605 80.2883 17.9359C80.4263 18.0113 80.5755 18.0727 80.736 18.1174C80.8965 18.1621 81.0711 18.1872 81.2598 18.1872C81.64 18.1872 81.9835 18.0671 82.2933 17.827C82.603 17.5869 82.8677 17.2575 83.0902 16.8331C83.3127 16.4115 83.4844 15.9117 83.6055 15.3394C83.7266 14.7642 83.7858 14.1472 83.7858 13.4855C83.7858 12.9913 83.7238 12.525 83.5999 12.0867C83.476 11.6483 83.307 11.2658 83.0902 10.9336C82.8762 10.6013 82.6227 10.3417 82.3299 10.1518C82.037 9.96197 81.7273 9.86705 81.4006 9.86705C81.0739 9.86705 80.7586 9.96477 80.4178 10.1574C80.0743 10.3501 79.7786 10.5958 79.5308 10.8945V17.3663H79.5336Z" fill="#BDBDBD"/>
<path d="M89.7256 3.71631C89.7256 3.48179 89.7735 3.25563 89.8664 3.04344C89.9621 2.83125 90.0917 2.64698 90.2606 2.49621C90.4268 2.34544 90.6211 2.2226 90.8407 2.13046C91.0604 2.03832 91.2969 1.99365 91.5504 1.99365C91.8038 1.99365 92.0431 2.03832 92.2656 2.13046C92.4881 2.2226 92.6824 2.34265 92.8457 2.49621C93.009 2.64977 93.1386 2.83125 93.2343 3.04344C93.3301 3.25563 93.3751 3.48179 93.3751 3.71631C93.3751 3.95084 93.3272 4.1742 93.2343 4.3836C93.1386 4.593 93.009 4.77448 92.8457 4.92525C92.6824 5.07881 92.4881 5.19886 92.2656 5.291C92.0431 5.38314 91.8038 5.42781 91.5504 5.42781C91.2969 5.42781 91.0576 5.38314 90.8407 5.291C90.6211 5.19886 90.4296 5.07881 90.2606 4.92525C90.0917 4.77448 89.9621 4.593 89.8664 4.3836C89.7706 4.1742 89.7256 3.95084 89.7256 3.71631ZM89.8664 8.8508L93.2681 7.54973V19.4743H89.8664V8.85359V8.8508Z" fill="#BDBDBD"/>
<path d="M101.994 19.6948C101.104 19.6948 100.282 19.5413 99.5272 19.2369C98.7725 18.9326 98.1192 18.5138 97.57 17.9805C97.0209 17.4473 96.5901 16.8218 96.2803 16.1043C95.9706 15.384 95.8157 14.6078 95.8157 13.7702C95.8157 12.874 95.9706 12.0447 96.2803 11.2881C96.5901 10.5315 97.0181 9.87815 97.5644 9.33092C98.1107 8.78369 98.7612 8.35651 99.5159 8.0466C100.271 7.73948 101.093 7.58313 101.983 7.58313C102.873 7.58313 103.695 7.7339 104.455 8.03264C105.213 8.33418 105.869 8.7446 106.418 9.2695C106.967 9.79439 107.401 10.4114 107.713 11.1234C108.026 11.8353 108.184 12.6003 108.184 13.424C108.184 14.2476 108.029 15.0936 107.719 15.8558C107.409 16.618 106.978 17.2797 106.429 17.8465C105.88 18.4133 105.224 18.8628 104.466 19.1923C103.709 19.5245 102.884 19.6892 101.994 19.6892V19.6948ZM102.388 18.2681C102.695 18.2681 102.98 18.1648 103.241 17.9554C103.503 17.746 103.731 17.464 103.926 17.1122C104.12 16.7576 104.269 16.35 104.373 15.8865C104.48 15.4231 104.531 14.94 104.531 14.4375C104.531 13.692 104.478 12.9912 104.373 12.3323C104.266 11.6734 104.095 11.0983 103.855 10.6041C103.616 10.1099 103.303 9.71901 102.92 9.42864C102.537 9.13827 102.07 8.99588 101.515 8.99588C101.245 8.99588 100.986 9.09918 100.738 9.303C100.49 9.50961 100.271 9.78322 100.082 10.1294C99.8932 10.4756 99.7412 10.8749 99.6285 11.3272C99.5159 11.7795 99.4596 12.2569 99.4596 12.7595C99.4596 13.5133 99.5272 14.2253 99.6623 14.8926C99.7975 15.5627 99.989 16.1462 100.242 16.6432C100.493 17.1429 100.8 17.5366 101.16 17.8298C101.521 18.1229 101.932 18.2681 102.391 18.2681H102.388Z" fill="#BDBDBD"/>
<path d="M124.827 11.5591C124.827 11.2995 124.796 11.0566 124.734 10.822C124.672 10.5903 124.587 10.3893 124.477 10.2162C124.368 10.0431 124.241 9.90906 124.095 9.80575C123.948 9.70245 123.79 9.65219 123.624 9.65219C123.427 9.65219 123.224 9.6857 123.013 9.7555C122.802 9.8253 122.591 9.91464 122.385 10.0291C122.18 10.1436 121.983 10.2776 121.799 10.4284C121.616 10.5819 121.456 10.7411 121.318 10.9086V19.48H117.961V11.5591C117.961 11.2995 117.927 11.0566 117.863 10.822C117.798 10.5903 117.708 10.3893 117.595 10.2162C117.483 10.0459 117.353 9.90906 117.207 9.80575C117.06 9.70245 116.911 9.65219 116.759 9.65219C116.576 9.65219 116.381 9.6857 116.173 9.7555C115.965 9.8253 115.756 9.91464 115.551 10.0291C115.345 10.1436 115.142 10.2776 114.948 10.4284C114.754 10.5819 114.582 10.7411 114.43 10.9086V19.48H111.04V8.85368L114.43 7.55261V8.82018C114.962 8.44047 115.514 8.13893 116.086 7.91836C116.657 7.6978 117.207 7.58612 117.73 7.58612C118.023 7.58612 118.316 7.61962 118.612 7.68942C118.907 7.75922 119.192 7.85415 119.465 7.97979C119.738 8.10543 119.992 8.25899 120.225 8.43768C120.459 8.61636 120.659 8.82018 120.828 9.04912C121.084 8.83693 121.363 8.6387 121.67 8.45443C121.977 8.27016 122.298 8.1166 122.639 7.99096C122.977 7.86532 123.323 7.7676 123.678 7.695C124.03 7.62241 124.382 7.58612 124.734 7.58612C125.207 7.58612 125.657 7.68104 126.085 7.8709C126.511 8.06076 126.885 8.3232 127.206 8.65824C127.527 8.99328 127.781 9.38416 127.972 9.83367C128.161 10.2832 128.257 10.7662 128.257 11.2827V19.4772H124.835V11.5563L124.827 11.5591Z" fill="#BDBDBD"/>
<path d="M136.898 19.7396C136.104 19.7396 135.355 19.586 134.657 19.2761C133.955 18.969 133.347 18.553 132.832 18.0309C132.314 17.5088 131.905 16.9057 131.601 16.2161C131.297 15.5265 131.148 14.8005 131.148 14.03C131.148 13.1086 131.286 12.2542 131.565 11.4669C131.841 10.6796 132.235 9.99552 132.745 9.41758C133.254 8.83963 133.865 8.39012 134.575 8.06625C135.285 7.74238 136.079 7.58044 136.955 7.58044C137.735 7.58044 138.45 7.70888 139.098 7.96853C139.745 8.22819 140.303 8.57998 140.765 9.02949C141.226 9.479 141.587 10.0067 141.84 10.6153C142.097 11.224 142.223 11.8745 142.223 12.5669H134.471C134.499 13.2147 134.592 13.8289 134.75 14.4153C134.907 15.0016 135.116 15.5153 135.378 15.962C135.639 16.4059 135.949 16.7605 136.301 17.023C136.653 17.2854 137.047 17.4166 137.475 17.4166C137.847 17.4166 138.213 17.3496 138.574 17.2156C138.934 17.0816 139.269 16.9001 139.573 16.6684C139.88 16.4367 140.145 16.1658 140.37 15.8587C140.596 15.5516 140.759 15.2166 140.863 14.8592L142.592 15.144C142.418 15.775 142.139 16.3696 141.756 16.9253C141.373 17.4809 140.925 17.9667 140.41 18.3855C139.894 18.8043 139.337 19.1337 138.731 19.3738C138.126 19.6139 137.515 19.734 136.895 19.734L136.898 19.7396ZM138.332 11.3636C138.303 11.0202 138.23 10.7075 138.118 10.4227C138.005 10.1379 137.861 9.89222 137.687 9.68561C137.512 9.479 137.307 9.32265 137.076 9.21097C136.842 9.10208 136.591 9.04624 136.321 9.04624C136.11 9.04624 135.901 9.10208 135.699 9.21097C135.493 9.32265 135.31 9.47621 135.147 9.68003C134.983 9.88105 134.843 10.124 134.73 10.4115C134.617 10.6963 134.541 11.0146 134.505 11.3636H138.332Z" fill="#BDBDBD"/>
<path d="M38.3884 24.1787H39.4275V26.5491H41.8943V24.1787H42.9334V29.9246H41.8943V27.3616H39.4275V29.9246H38.3884V24.1787Z" fill="#BDBDBD"/>
<path d="M51.1199 27.8225V27.7052C51.1199 26.2562 52.0069 25.5442 53.1136 25.5442C54.3977 25.5442 54.9553 26.2561 54.9553 27.6298V28.0319H52.1167C52.1759 28.9281 52.6405 29.2464 53.4684 29.2464C54.026 29.2464 54.4315 29.1207 54.8116 28.9281V29.5982C54.516 29.7908 54.0091 30.0002 53.2741 30.0002C51.8295 30.0002 51.1199 29.1877 51.1199 27.8225ZM52.1167 27.3702H53.9668C53.9668 26.5577 53.6627 26.2561 53.0967 26.2561C52.649 26.2561 52.1843 26.4907 52.1167 27.3702Z" fill="#BDBDBD"/>
<path d="M62.7871 28.7773C62.7871 27.9816 63.3193 27.6131 64.181 27.4874L65.2032 27.3702V27.0435C65.2032 26.4572 64.9414 26.3232 64.2064 26.3232C63.784 26.3232 63.4123 26.3818 63.1504 26.4404V25.7787C63.5559 25.6196 64.0205 25.5442 64.5865 25.5442C65.5918 25.5442 66.1748 25.9295 66.1748 26.8257V29.9248H65.3722L65.2962 29.573H65.2455C65.0343 29.8159 64.6879 30.0002 64.1219 30.0002C63.3362 30.0002 62.7871 29.6065 62.7871 28.7773ZM65.2032 29.0621V27.9984L64.4007 28.0821C63.9698 28.1156 63.7417 28.2915 63.7417 28.7271C63.7417 29.1375 64.0205 29.3218 64.4176 29.3218C64.7302 29.3218 65.0427 29.2129 65.2032 29.0621Z" fill="#BDBDBD"/>
<path d="M74.5039 23.8018H75.4839V29.9246H74.5039V23.8018Z" fill="#BDBDBD"/>
<path d="M84.0899 28.8609V26.3649H83.4817V25.611H84.0899V24.5975H85.0446V25.611H86.0837V26.3649H85.0446V28.7269C85.0446 29.0871 85.1797 29.2211 85.6359 29.2211C85.8049 29.2211 85.9823 29.196 86.1344 29.1541V29.799C85.9654 29.8828 85.7289 29.9749 85.3234 29.9749C84.5715 29.9749 84.0899 29.6734 84.0899 28.8609Z" fill="#BDBDBD"/>
<path d="M94.2017 23.8018H95.1732V25.9795H95.2154C95.5702 25.7199 96.0771 25.5356 96.6009 25.5356C97.4372 25.5356 97.8681 25.8706 97.8681 26.725V29.9246H96.8881V26.9511C96.8881 26.5156 96.7445 26.3397 96.1531 26.3397C95.8152 26.3397 95.4351 26.4486 95.1732 26.5742V29.9246H94.2017V23.8018Z" fill="#BDBDBD"/>
<path d="M105.928 27.8642V27.7302C105.928 26.2392 106.84 25.5356 108.048 25.5356C108.623 25.5356 108.969 25.6445 109.248 25.7953V26.5491C108.885 26.4067 108.623 26.3146 108.108 26.3146C107.381 26.3146 106.933 26.7669 106.933 27.6296V27.8223C106.933 28.8107 107.347 29.2295 108.175 29.2295C108.707 29.2295 109.071 29.0619 109.29 28.9614V29.665C109.011 29.8409 108.606 30 108.006 30C106.722 30 105.928 29.2881 105.928 27.8642Z" fill="#BDBDBD"/>
<path d="M117.07 28.7773C117.07 27.9816 117.603 27.6131 118.464 27.4874L119.486 27.3702V27.0435C119.486 26.4572 119.225 26.3232 118.49 26.3232C118.067 26.3232 117.695 26.3818 117.434 26.4404V25.7787C117.839 25.6196 118.304 25.5442 118.87 25.5442C119.875 25.5442 120.458 25.9295 120.458 26.8257V29.9248H119.655L119.579 29.573H119.529C119.317 29.8159 118.971 30.0002 118.405 30.0002C117.619 30.0002 117.07 29.6065 117.07 28.7773ZM119.486 29.0621V27.9984L118.684 28.0821C118.253 28.1156 118.025 28.2915 118.025 28.7271C118.025 29.1375 118.304 29.3218 118.701 29.3218C119.013 29.3218 119.326 29.2129 119.486 29.0621Z" fill="#BDBDBD"/>
<path d="M128.771 25.611H129.709V26.1136H129.743C129.98 25.8037 130.427 25.5775 130.883 25.5775C131.002 25.5775 131.112 25.5859 131.154 25.6026V26.457C131.044 26.4402 130.9 26.4319 130.799 26.4319C130.41 26.4319 130.022 26.5408 129.743 26.7166V29.9247H128.771V25.611Z" fill="#BDBDBD"/>
<path d="M138.892 27.8225V27.7052C138.892 26.2562 139.779 25.5442 140.885 25.5442C142.169 25.5442 142.727 26.2561 142.727 27.6298V28.0319H139.888C139.948 28.9281 140.412 29.2464 141.24 29.2464C141.798 29.2464 142.203 29.1207 142.583 28.9281V29.5982C142.288 29.7908 141.781 30.0002 141.046 30.0002C139.601 30.0002 138.892 29.1877 138.892 27.8225ZM139.888 27.3702H141.739C141.739 26.5577 141.434 26.2561 140.868 26.2561C140.421 26.2561 139.956 26.4907 139.888 27.3702Z" fill="#BDBDBD"/>
</g>
<defs>
<clipPath id="clip0_41_4837">
<rect width="142.727" height="30" fill="white"/>
</clipPath>
</defs>
</svg>
