<svg width="466" height="390" viewBox="0 0 466 390" fill="none" xmlns="http://www.w3.org/2000/svg">
<ellipse cx="88" cy="65.9085" rx="30" ry="29.9584" fill="white"/>
<ellipse cx="368" cy="65.9085" rx="30" ry="29.9584" fill="white"/>
<ellipse cx="228" cy="29.9584" rx="30" ry="29.9584" fill="white"/>
<ellipse cx="38" cy="329.543" rx="30" ry="29.9584" fill="white"/>
<ellipse cx="42" cy="197.725" rx="30" ry="29.9584" fill="white"/>
<ellipse cx="414" cy="197.725" rx="30" ry="29.9584" fill="white"/>
<ellipse cx="418" cy="329.543" rx="30" ry="29.9584" fill="white"/>
<path d="M86.0781 104.716V117.075H84.5605V104.716H86.0781ZM75.9336 113.562C77.9023 112.694 79.0371 110.615 79.0371 108.64V107.997H76.3164V106.78H79.0371V104.976H80.541V106.78H83.207V107.997H80.5547V108.64C80.5479 110.52 81.7031 112.536 83.6992 113.37L82.8652 114.532C81.4502 113.931 80.3838 112.7 79.8164 111.21C79.2627 112.789 78.1963 114.109 76.7539 114.738L75.9336 113.562ZM98.5742 104.716V117.075H97.1113V110.745H95.7988V116.474H94.3633V104.935H95.7988V109.488H97.1113V104.716H98.5742ZM88.293 113.89V106.056H93.1465V113.89H88.293ZM89.7148 112.687H91.7246V107.259H89.7148V112.687Z" fill="#616161"/>
<path d="M346.822 104.716V117.075H345.291V104.716H346.822ZM336.473 112.905C336.951 112.905 337.464 112.899 338.004 112.892V107.163H336.801V105.919H343.814V107.163H342.625V112.707C343.213 112.659 343.801 112.605 344.361 112.536L344.443 113.671C341.791 114.102 338.899 114.15 336.623 114.15L336.473 112.905ZM339.467 112.864C340.014 112.851 340.574 112.83 341.135 112.796V107.163H339.467V112.864ZM359.879 111.907V113.111H354.957V117.075H353.453V113.111H348.586V111.907H359.879ZM349.953 110.622V105.208H351.457V106.726H356.98V105.208H358.512V110.622H349.953ZM351.457 109.392H356.98V107.929H351.457V109.392ZM374.289 104.716V111.087H372.785V104.716H374.289ZM364.117 109.98C366.038 109.412 367.098 108.018 367.173 106.562H364.514V105.331H371.309V106.562H368.718C368.786 107.929 369.832 109.228 371.746 109.747L371.008 110.923C369.565 110.506 368.533 109.631 367.973 108.51C367.412 109.747 366.339 110.725 364.814 111.183L364.117 109.98ZM366.113 112.769V111.607H374.316V114.792H367.631V115.79H374.686V116.966H366.141V113.685H372.799V112.769H366.113ZM378.199 105.468V107.245H380.961V105.468H382.465V106.616H384.953V104.716H386.471V112.14H384.953V110.363H382.465V111.347H376.682V105.468H378.199ZM378.09 114.724C378.076 113.22 379.683 112.359 382.287 112.359C384.905 112.359 386.505 113.22 386.512 114.724C386.505 116.2 384.905 117.062 382.287 117.062C379.683 117.062 378.076 116.2 378.09 114.724ZM378.199 110.157H380.961V108.435H378.199V110.157ZM379.594 114.724C379.587 115.476 380.571 115.886 382.287 115.886C384.017 115.886 384.994 115.476 384.994 114.724C384.994 113.931 384.017 113.528 382.287 113.521C380.571 113.528 379.587 113.931 379.594 114.724ZM382.465 109.132H384.953V107.82H382.465V109.132ZM399.5 109.665V110.868H388.221V109.665H399.5ZM389.547 112.864V111.716H398.078V114.82H391.051V115.763H398.42V116.952H389.561V113.726H396.588V112.864H389.547ZM389.656 108.872V105.03H398.051V106.247H391.174V107.669H398.16V108.872H389.656Z" fill="#616161"/>
<path d="M209.652 69.5179V70.6253C209.646 71.7806 209.646 73.0452 209.324 74.7952H211.033V76.0257H206.125V81.139H204.594V76.0257H199.768V74.7952H207.779C208.121 73.1136 208.135 71.8489 208.135 70.7484H201.094V69.5179H209.652ZM221.916 74.9866V76.2034H218.266V78.4593H223.16V79.6761H211.867V78.4593H216.734V76.2034H213.248V69.6819H221.807V70.9124H214.793V72.3069H221.52V73.5101H214.793V74.9866H221.916ZM227.357 80.0452C225.334 80.0521 224.09 78.8558 224.09 77.2835C224.09 76.1146 224.842 75.4036 225.949 74.638C225.382 73.9339 224.938 73.2093 224.938 72.3343C224.938 70.9261 225.963 69.887 227.521 69.887C229.08 69.887 230.044 70.9193 230.037 72.1292C230.044 73.0726 229.552 73.7903 228.725 74.3851L228.096 74.8499L229.907 76.9759C230.167 76.4837 230.324 75.9026 230.324 75.2464H231.828C231.821 76.6068 231.445 77.5706 230.967 78.2132L232.416 79.9085H230.529L229.894 79.1839C229.189 79.7786 228.226 80.0521 227.357 80.0452ZM225.799 77.2015C225.799 77.9876 226.435 78.6165 227.412 78.6234C227.938 78.6234 228.479 78.4319 228.943 78.097L226.886 75.7318L226.729 75.848C226.059 76.3401 225.799 76.8597 225.799 77.2015ZM226.482 72.3616C226.489 72.8128 226.79 73.2708 227.2 73.7835L227.768 73.4007C228.287 73.0657 228.561 72.7103 228.561 72.2112C228.561 71.7806 228.178 71.3157 227.549 71.3226C226.92 71.3157 226.489 71.8216 226.482 72.3616ZM243.203 68.7659V75.096H241.686V71.9651H239.225V70.7484H241.686V68.7659H243.203ZM232.785 73.9476C234.774 73.346 235.807 71.8216 235.807 70.1605V69.1761H237.338V70.1605C237.331 71.6849 238.329 73.1273 240.25 73.7151L239.443 74.8909C238.104 74.4466 237.133 73.5716 236.586 72.4505C236.053 73.7015 235.034 74.6859 233.578 75.1644L232.785 73.9476ZM235.068 76.8187V75.6292H243.203V78.8284H236.572V79.7718H243.6V80.9749H235.082V77.6937H241.699V76.8187H235.068ZM249.369 71.7327C249.355 73.9407 250.463 76.1693 252.377 77.0921L251.447 78.3089C250.107 77.6321 249.144 76.3265 248.617 74.7542C248.077 76.4359 247.065 77.8304 245.65 78.5413L244.721 77.3245C246.71 76.3812 247.845 74.0159 247.852 71.7327V69.764H249.369V71.7327ZM253.115 81.1253V68.7659H254.633V73.6058H256.533V74.9046H254.633V81.1253H253.115Z" fill="#616161"/>
<path d="M17.8252 369.416V375.254H11.9736V369.416H17.8252ZM13.3818 380.463V376.499H14.8994V379.233H21.79V380.463H13.3818ZM13.4639 374.051H16.335V370.633H13.4639V374.051ZM19.7803 377.374V368.35H21.2979V371.973H23.0205V373.245H21.2979V377.374H19.7803ZM28.1748 370.127C28.168 371.809 29.1523 373.347 31.0869 373.956L30.2666 375.145C28.9199 374.666 27.9766 373.764 27.4502 372.595C26.9033 373.942 25.8711 375.001 24.374 375.528L23.5674 374.297C25.6113 373.627 26.6367 371.98 26.6436 370.196V369.02H28.1748V370.127ZM25.6182 378.331C25.6045 376.827 27.2109 375.945 29.8154 375.952C32.4336 375.945 34.0332 376.827 34.04 378.331C34.0332 379.834 32.4336 380.696 29.8154 380.696C27.2109 380.696 25.6045 379.834 25.6182 378.331ZM27.1221 378.331C27.1152 379.082 28.0996 379.499 29.8154 379.506C31.5449 379.499 32.5225 379.082 32.5225 378.331C32.5225 377.551 31.5449 377.134 29.8154 377.127C28.0996 377.134 27.1152 377.551 27.1221 378.331ZM30.0205 371.987V370.743H32.4814V368.35H33.999V375.624H32.4814V371.987H30.0205ZM42.5029 369.034C43.501 369.027 44.3691 369.389 44.957 370.004H47.9033V368.35H49.4209V375.391H47.9033V373.997H44.9502C44.3623 374.605 43.4941 374.974 42.5029 374.967C40.6367 374.974 39.2354 373.73 39.2354 372C39.2354 370.25 40.6367 369.027 42.5029 369.034ZM40.6846 372C40.6846 373.033 41.4434 373.682 42.5029 373.696C43.5283 373.682 44.2871 373.033 44.2939 372C44.2871 370.982 43.5283 370.298 42.5029 370.305C41.4434 370.298 40.6846 370.982 40.6846 372ZM41.2041 380.559V375.965H49.4209V380.559H41.2041ZM42.7217 379.329H47.9307V377.168H42.7217V379.329ZM45.6406 371.235C45.709 371.474 45.7432 371.734 45.7432 372C45.7432 372.26 45.709 372.513 45.6475 372.752H47.9033V371.235H45.6406ZM62.4365 374.106V375.336H51.1709V374.106H62.4365ZM51.7178 372.356C54.0078 372.13 55.498 371.214 55.7305 370.182H52.1963V368.938H61.4248V370.182H57.8564C58.082 371.201 59.5586 372.13 61.9033 372.356L61.3701 373.559C59.1211 373.327 57.46 372.431 56.79 371.18C56.1201 372.431 54.4795 373.327 52.2373 373.559L51.7178 372.356ZM52.4834 378.426C52.4834 376.991 54.1035 376.157 56.79 376.157C59.4561 376.157 61.0625 376.991 61.0693 378.426C61.0625 379.882 59.4561 380.696 56.79 380.696C54.1035 380.696 52.4834 379.882 52.4834 378.426ZM54.0283 378.426C54.0215 379.144 54.9922 379.499 56.79 379.506C58.5605 379.499 59.5381 379.144 59.5518 378.426C59.5381 377.708 58.5605 377.346 56.79 377.346C54.9922 377.346 54.0215 377.708 54.0283 378.426Z" fill="#616161"/>
<path d="M28.0059 236.547V243.533H26.4746V236.547H28.0059ZM17.7109 242.084C19.7139 241.448 20.7529 239.842 20.7461 238.215V237.012H22.3184V238.215C22.3115 239.794 23.3643 241.264 25.2988 241.879L24.5605 243.041C23.1318 242.597 22.1064 241.687 21.5459 240.505C20.9922 241.776 19.9463 242.795 18.4629 243.287L17.7109 242.084ZM19.8027 248.742V244.148H28.0059V248.742H19.8027ZM21.3066 247.512H26.5156V245.351H21.3066V247.512ZM34.2402 238.762C34.2402 240.272 35.2178 241.694 37.1523 242.289L36.4277 243.478C35.04 243.041 34.0557 242.159 33.5156 241.045C32.9688 242.344 31.9297 243.376 30.4395 243.875L29.6738 242.672C31.6631 242.022 32.709 240.416 32.709 238.775V238.625H30.0977V237.394H36.8105V238.625H34.2402V238.762ZM31.3555 246.514C31.3555 245.037 32.9551 244.176 35.5391 244.176C38.1025 244.176 39.6748 245.037 39.6816 246.514C39.6748 248.004 38.1025 248.879 35.5391 248.879C32.9551 248.879 31.3555 248.004 31.3555 246.514ZM32.873 246.514C32.873 247.279 33.8438 247.682 35.5391 247.689C37.2275 247.682 38.1777 247.279 38.1777 246.514C38.1777 245.762 37.2275 245.365 35.5391 245.365C33.8438 245.365 32.873 245.762 32.873 246.514ZM38.041 243.902V236.533H39.5586V239.5H41.2812V240.744H39.5586V243.902H38.041ZM52.1777 236.533V242.904H50.6738V236.533H52.1777ZM42.0059 241.797C43.9268 241.229 44.9863 239.835 45.0615 238.379H42.4023V237.148H49.1973V238.379H46.6064C46.6748 239.746 47.7207 241.045 49.6348 241.564L48.8965 242.74C47.4541 242.323 46.4219 241.448 45.8613 240.327C45.3008 241.564 44.2275 242.542 42.7031 243L42.0059 241.797ZM44.002 244.586V243.424H52.2051V246.609H45.5195V247.607H52.5742V248.783H44.0293V245.502H50.6875V244.586H44.002ZM63.7988 236.533V240.676H65.4668V241.933H63.7988V246.185H62.2812V236.533H63.7988ZM53.9004 243.711C54.8232 243.711 55.8965 243.704 57.0176 243.67V242.884C55.6436 242.713 54.7686 242.036 54.7754 241.045C54.7686 239.835 55.9648 239.117 57.7559 239.131C59.5537 239.117 60.7363 239.835 60.7363 241.045C60.7363 242.029 59.8887 242.699 58.5352 242.884V243.595C59.5879 243.533 60.6475 243.437 61.6387 243.287L61.7617 244.353C59.1436 244.846 56.1973 244.88 54.0645 244.9L53.9004 243.711ZM54.2148 238.721V237.613H57.0176V236.492H58.5352V237.613H61.3105V238.721H54.2148ZM55.6777 248.646V245.543H57.1953V247.416H64.2363V248.646H55.6777ZM56.2383 241.045C56.2246 241.578 56.7988 241.892 57.7559 241.892C58.7129 241.892 59.2871 241.578 59.2871 241.045C59.2871 240.464 58.7129 240.149 57.7559 240.156C56.7988 240.149 56.2246 240.464 56.2383 241.045Z" fill="#616161"/>
<path d="M379.895 247.416V248.646H371.295V245.078H372.812V247.416H379.895ZM369.9 244.244V243.014H374.768V241.154H376.271V243.014H381.166V244.244H369.9ZM370.543 240.73C373.079 240.354 374.74 238.871 374.74 237.312V236.875H376.285V237.312C376.285 238.926 377.912 240.382 380.496 240.73L379.895 241.92C377.878 241.585 376.285 240.635 375.506 239.281C374.727 240.628 373.147 241.598 371.145 241.92L370.543 240.73ZM386.375 238.502C386.375 240.054 387.38 241.523 389.287 242.125L388.467 243.314C387.134 242.863 386.177 241.961 385.637 240.812C385.104 242.125 384.105 243.157 382.684 243.656L381.863 242.467C383.853 241.776 384.851 240.129 384.857 238.365V237.189H386.375V238.502ZM383.545 246.527C383.545 245.064 385.151 244.196 387.729 244.203C390.285 244.196 391.864 245.064 391.871 246.527C391.864 248.024 390.285 248.879 387.729 248.879C385.151 248.879 383.545 248.024 383.545 246.527ZM385.062 246.527C385.062 247.293 386.033 247.676 387.729 247.676C389.417 247.676 390.367 247.293 390.367 246.527C390.367 245.803 389.417 245.392 387.729 245.392C386.033 245.392 385.062 245.803 385.062 246.527ZM390.23 243.93V236.533H391.748V239.541H393.471V240.799H391.748V243.93H390.23ZM401.291 240.416V241.633H398.994V243.034C400.026 242.993 401.052 242.925 402.016 242.822L402.125 243.916C399.5 244.278 396.663 244.347 394.359 244.353L394.154 243.137C395.173 243.13 396.301 243.123 397.463 243.089V241.633H395.221V237.299H401.195V238.529H396.752V240.416H401.291ZM396.123 248.646V245.133H397.654V247.416H404.764V248.646H396.123ZM402.877 245.816V236.533H404.408V245.816H402.877ZM415.865 237.572V238.556H418.354V236.547H419.871V245.543H418.354V242.426H415.865V243.492H410.055V237.572H415.865ZM411.572 242.303H414.361V238.775H411.572V242.303ZM411.723 248.646V244.709H413.268V247.416H420.145V248.646H411.723ZM415.865 241.209H418.354V239.801H415.865V241.209ZM431.971 244.422V248.892H430.453V245.625H423.549V244.422H431.971ZM421.785 240.211C421.785 238.461 423.187 237.203 425.053 237.217C426.071 237.21 426.96 237.593 427.541 238.242H430.453V236.533H431.971V243.834H430.453V242.193H427.555C426.967 242.849 426.078 243.246 425.053 243.246C423.187 243.246 421.785 241.988 421.785 240.211ZM423.234 240.211C423.234 241.284 423.993 241.954 425.053 241.961C426.064 241.954 426.837 241.284 426.844 240.211C426.837 239.179 426.064 238.495 425.053 238.502C423.993 238.495 423.234 239.179 423.234 240.211ZM428.197 240.963H430.453V239.486H428.204C428.259 239.719 428.293 239.958 428.293 240.211C428.293 240.471 428.259 240.723 428.197 240.963ZM437.494 240.306C437.494 242.221 438.28 244.148 440.01 245.078L439.162 246.199C438.014 245.591 437.234 244.504 436.79 243.205C436.353 244.606 435.573 245.809 434.418 246.486L433.529 245.338C435.279 244.326 436.052 242.262 436.059 240.306V239.924H433.953V238.693H436.059V236.971H437.494V238.693H439.559V239.924H437.494V240.306ZM438.793 242.535V241.277H440.406V236.765H441.842V248.291H440.406V242.535H438.793ZM442.908 248.892V236.533H444.357V248.892H442.908ZM456.484 236.533V248.892H455.035V236.533H456.484ZM445.697 245.201C448.254 243.69 449.43 241.756 449.662 239.267H446.354V238.037H451.166C451.166 238.659 451.125 239.267 451.036 239.855H452.479V236.834H453.928V248.305H452.479V244.176H450.551V242.931H452.479V241.099H450.776C450.188 243.15 448.903 244.914 446.586 246.281L445.697 245.201Z" fill="#616161"/>
<path d="M380.441 372.124C380.441 374.038 381.228 375.965 382.957 376.895L382.109 378.016C380.961 377.408 380.182 376.321 379.737 375.022C379.3 376.423 378.521 377.626 377.365 378.303L376.477 377.155C378.227 376.143 378.999 374.079 379.006 372.124V371.741H376.9V370.51H379.006V368.788H380.441V370.51H382.506V371.741H380.441V372.124ZM381.74 374.352V373.094H383.354V368.582H384.789V380.108H383.354V374.352H381.74ZM385.855 380.709V368.35H387.305V380.709H385.855ZM400.033 374.024V375.254H395.139V376.293C397.347 376.437 398.659 377.203 398.666 378.481C398.659 379.903 397.046 380.696 394.387 380.696C391.687 380.696 390.08 379.903 390.08 378.481C390.08 377.203 391.393 376.43 393.635 376.287V375.254H388.768V374.024H400.033ZM389.314 372.26C391.584 372.048 393.067 371.125 393.32 370.114H389.793V368.897H399.021V370.114H395.46C395.706 371.132 397.176 372.048 399.5 372.26L398.967 373.463C396.718 373.231 395.057 372.335 394.387 371.084C393.717 372.335 392.076 373.231 389.834 373.463L389.314 372.26ZM391.625 378.481C391.618 379.165 392.589 379.54 394.387 379.534C396.157 379.54 397.135 379.165 397.148 378.481C397.135 377.797 396.157 377.435 394.387 377.428C392.589 377.435 391.618 377.797 391.625 378.481ZM412.16 377.948V379.178H400.867V377.948H405.707V375.09H407.211V377.948H412.16ZM401.195 374.133C403.779 373.716 405.632 371.864 405.639 370.004V369.102H407.252V370.004C407.252 371.871 409.118 373.716 411.723 374.133L411.066 375.391C408.981 374.995 407.266 373.798 406.445 372.178C405.632 373.791 403.937 375.001 401.852 375.391L401.195 374.133ZM423.234 368.35V374.653H421.73V368.35H423.234ZM412.953 373.45C414.956 372.814 416.009 371.228 416.002 369.608V368.651H417.574V369.608C417.567 371.18 418.613 372.65 420.568 373.245L419.83 374.42C418.395 373.976 417.369 373.06 416.809 371.884C416.248 373.163 415.195 374.167 413.719 374.639L412.953 373.45ZM415.059 376.403V375.227H423.262V378.44H416.576V379.397H423.631V380.6H415.086V377.305H421.744V376.403H415.059ZM428.457 379.629C426.434 379.636 425.189 378.44 425.189 376.868C425.189 375.699 425.941 374.988 427.049 374.222C426.481 373.518 426.037 372.793 426.037 371.918C426.037 370.51 427.062 369.471 428.621 369.471C430.18 369.471 431.144 370.503 431.137 371.713C431.144 372.657 430.651 373.374 429.824 373.969L429.195 374.434L431.007 376.56C431.267 376.068 431.424 375.487 431.424 374.831H432.928C432.921 376.191 432.545 377.155 432.066 377.797L433.516 379.493H431.629L430.993 378.768C430.289 379.363 429.325 379.636 428.457 379.629ZM426.898 376.786C426.898 377.572 427.534 378.201 428.512 378.207C429.038 378.207 429.578 378.016 430.043 377.681L427.985 375.316L427.828 375.432C427.158 375.924 426.898 376.444 426.898 376.786ZM427.582 371.946C427.589 372.397 427.89 372.855 428.3 373.368L428.867 372.985C429.387 372.65 429.66 372.294 429.66 371.795C429.66 371.365 429.277 370.9 428.648 370.907C428.02 370.9 427.589 371.406 427.582 371.946ZM444.234 368.35V380.723H442.703V368.35H444.234ZM434.609 377.811V369.362H436.127V372.452H439.121V369.362H440.625V377.811H434.609ZM436.127 376.567H439.121V373.641H436.127V376.567ZM452.328 369.416V375.254H446.477V369.416H452.328ZM447.885 380.463V376.499H449.402V379.233H456.293V380.463H447.885ZM447.967 374.051H450.838V370.633H447.967V374.051ZM454.283 377.374V368.35H455.801V371.973H457.523V373.245H455.801V377.374H454.283Z" fill="#616161"/>
<g clip-path="url(#clip0_70_5626)">
<path d="M248.742 316.451C248.742 310.369 248.912 306.022 248.703 301.689C248.193 291.182 239.92 283.077 229.869 282.307C217.034 281.315 207.937 290.49 207.035 303.255C206.695 308.006 207.205 312.783 207.466 317.547C208.224 331.813 209.244 346.066 210.904 360.254C211.217 362.943 212.603 364.431 215.165 365.344C222.118 367.85 229.202 367.681 236.325 366.715C242.102 365.932 244.847 363.843 245.174 359.706C246.337 344.709 249.082 329.829 248.755 316.451H248.742Z" fill="#ECE1CA"/>
<path d="M184.503 244.129C184.503 244.129 186.477 257.795 190.045 261.358C193.613 264.921 200.07 276.068 200.07 276.068L259.97 278.678L267.368 260.21C267.368 260.21 271.708 255.602 272.309 246.492C272.91 237.381 275.406 227.932 275.406 227.932L265.316 182.915L246.887 138.773L205.795 137.533L186.124 156.563L177.785 201.201L184.516 244.129H184.503Z" fill="#F4EFE5"/>
<path d="M322.499 198.12C330.446 209.032 328.472 216.968 321.846 227.488C317.846 233.844 311.729 237.799 305.482 241.519C300.646 244.39 296.725 248.188 293.261 252.495C290.242 256.228 286.556 258.382 281.694 257.547C276.557 256.659 273.708 253.396 272.349 248.371C270.989 243.307 269.983 238.216 269.656 233.009C269.656 232.97 269.656 232.93 269.682 232.878C271.029 225.177 274.152 217.659 277.276 210.559C279.956 204.477 282.57 198.708 283.824 192.129C285.157 185.107 285.314 179.09 285.275 172.551C285.157 153.13 271.499 140.326 271.499 140.326C273.29 140.495 275.198 140.326 277.328 140.038C286.634 138.825 294.503 142.597 300.136 150.376C303.952 155.649 305.482 161.927 307.769 167.852C311.808 178.386 315.781 188.893 322.499 198.12Z" fill="#593C27"/>
<path d="M285.275 172.551C285.315 179.091 285.158 185.108 283.825 192.13C282.57 198.708 279.956 204.477 277.276 210.559C274.153 217.66 271.029 225.178 269.683 232.878C269.67 232.931 269.67 232.97 269.656 233.009C268.794 219.252 261.514 209.632 250.169 202.663C245.751 199.948 241.085 197.742 238.157 193.056C233.818 186.086 235.831 179.13 237.504 172.029C238.719 166.848 240.889 162.018 242.719 157.059C245.555 149.293 240.536 142.166 232.263 141.944C230.851 141.905 229.44 141.944 227.322 141.944C225.218 142.062 222.355 141.566 219.637 142.623C213.808 144.894 210.945 151.042 213.311 157.045C215.559 162.801 217.833 168.557 219.284 174.561C221.349 183.137 221.532 191.451 213.873 197.755C211.716 199.53 209.259 200.992 206.776 202.297C197.3 207.296 190.896 214.997 187.746 225.073C187.458 226 187.21 226.953 187.014 227.905C188.059 221.105 180.374 213.13 177.237 207.74C170.101 195.575 169.761 179.965 170.689 166.221C171.787 149.815 183.968 140.326 183.968 140.326L183.929 140.091C187.327 139.569 190.334 138.172 193.523 136.123C200.228 131.842 207.743 130.08 215.781 130.236C220.317 130.328 224.904 129.244 229.413 129.558C241.608 130.393 254.443 129.205 264.821 137.546C267.069 139.347 269.199 140.117 271.499 140.326C271.499 140.326 285.158 153.13 285.275 172.551ZM261.827 188.906C262.716 188.906 263.069 188.201 263.134 187.353C262.69 186.269 261.971 185.564 260.703 185.721C259.998 185.812 259.423 186.269 259.592 187C259.841 188.123 260.638 188.893 261.827 188.906ZM196.437 187.052C196.568 186.282 196.006 185.825 195.274 185.838C194.189 185.852 193.353 186.334 193.248 187.496C193.196 188.175 193.614 188.71 194.477 188.788C195.483 188.684 196.241 188.096 196.437 187.052Z" fill="#E8C59A"/>
<path d="M177.237 207.74C180.374 213.13 188.059 221.105 187.013 227.905C187.013 227.932 187 227.945 187 227.971C186.177 231.821 185.955 235.854 185.549 239.783C185.157 243.712 184.452 247.536 182.792 251.073C178.962 259.191 168.65 260.209 163.369 253.005C158.965 247.001 153.044 242.928 146.836 239.117C138.628 234.079 132.563 227.083 129.478 217.934C127.479 212.021 128.001 205.756 131.753 200.783C138.967 191.203 143.477 180.383 147.724 169.354C149.489 164.812 151.07 160.204 152.848 155.675C156.612 146.082 166.99 138.459 177.106 140.026C179.616 140.417 181.851 140.417 183.929 140.091L183.968 140.326C183.968 140.326 171.787 149.815 170.689 166.221C169.761 179.965 170.101 195.575 177.237 207.74Z" fill="#593C27"/>
<path d="M195.585 193.67C198.848 193.67 201.493 191.029 201.493 187.77C201.493 184.512 198.848 181.871 195.585 181.871C192.323 181.871 189.678 184.512 189.678 187.77C189.678 191.029 192.323 193.67 195.585 193.67Z" fill="#593C27"/>
<path d="M259.552 193.67C262.815 193.67 265.46 191.029 265.46 187.771C265.46 184.512 262.815 181.871 259.552 181.871C256.29 181.871 253.645 184.512 253.645 187.771C253.645 191.029 256.29 193.67 259.552 193.67Z" fill="#593C27"/>
<path d="M242.102 264.53L242.142 264.504C242.429 264.817 242.704 265.13 242.965 265.443C245.71 268.719 249.958 268.667 253.866 267.91C258.453 267.01 262.296 264.673 265.367 261.058C267.459 258.591 268.164 258.695 269.288 261.541C272.987 270.86 275.144 280.558 276.189 290.516C276.66 294.928 277.431 299.327 277.3 303.79V303.869H277.248C277.405 308.894 277.993 338.535 271.602 361.063C271.602 361.063 286.815 364.887 279.405 382.612C278.66 383.147 277.967 383.774 277.3 384.544C274.294 388.042 270.321 389.895 265.498 389.621C262.675 389.465 259.839 389.412 257.029 389.634C250.036 390.169 242.181 383.787 242.168 376.334C243.971 361.155 240.743 372.458 238.051 372.784C231.228 373.619 224.405 373.567 217.596 372.719C215.152 372.418 212.328 357.187 213.073 375.525C212.721 382.952 208.238 388.877 200.748 389.452C196.657 389.778 192.501 389.713 188.384 389.504C184.698 389.321 181.352 387.951 179 384.962C178.32 384.1 177.562 383.382 176.738 382.782C169.145 364.914 184.476 361.063 184.476 361.063C177.836 337.687 178.725 306.649 178.843 303.399C178.856 303.216 178.856 303.125 178.856 303.125C178.764 293.662 180.45 284.395 182.411 275.206C183.443 270.364 185.312 265.691 186.985 261.006C187.783 258.774 188.698 258.487 190.488 260.718C194.501 265.678 199.755 268.419 206.382 268.002C209.492 267.819 211.976 266.944 213.988 264.517C214.629 264.138 224.928 258.265 227.438 258.265C229.947 258.265 242.102 264.53 242.102 264.53Z" fill="#E8C59A"/>
<path d="M165.551 351.849C163.747 344.422 165.054 337.178 166.388 329.934C167.943 321.45 171.929 314.037 177.105 307.223C177.981 306.049 178.778 304.874 178.844 303.399C178.726 306.649 177.837 337.687 184.477 361.063C184.477 361.063 169.145 364.914 176.739 382.782C175.615 381.934 174.347 381.32 172.949 380.85C162.95 377.496 160.767 366.872 164.95 359.758C166.492 357.148 166.179 354.42 165.551 351.849Z" fill="#CEAE8D"/>
<path d="M246.024 236.324C243.332 242.041 238.352 244.938 233.059 247.51C231.647 248.201 230.118 248.554 230.248 250.525C230.379 252.704 229.856 254.949 232.405 256.477C236.039 258.656 239.293 261.293 242.142 264.504L242.103 264.53C242.103 264.53 230.013 258.265 227.438 258.265C224.864 258.265 214.63 264.138 213.989 264.517C214.198 264.269 214.407 263.995 214.616 263.694C216.708 260.679 219.91 258.552 223.191 256.842C225.844 255.472 226.014 253.279 226.001 250.838C225.974 248.658 224.367 248.175 222.759 247.353C217.936 244.886 212.904 242.498 210.539 237.172C207.532 230.424 206.853 225.399 215.009 220.792C224.145 215.65 233.268 216.067 242.155 221.327C247.566 224.525 248.808 230.451 246.024 236.324Z" fill="#593C27"/>
<path d="M290.061 354.733C289.263 356.795 290.727 358.465 291.485 360.241C293.55 365.083 293.942 369.938 291.08 374.572C289.316 377.43 287.002 379.819 283.525 380.759C282.009 381.163 280.65 381.737 279.408 382.612C286.819 364.887 271.605 361.063 271.605 361.063C277.997 338.535 277.409 308.894 277.252 303.868H277.304C277.304 304.965 277.84 305.839 278.546 306.701C287.198 317.547 291.145 329.999 291.145 344.03C290.845 347.45 291.433 351.156 290.061 354.733Z" fill="#CEAE8D"/>
<path d="M248.742 320.758C248.742 313.906 248.912 309.011 248.703 304.143C248.193 292.304 239.92 283.181 229.869 282.307C217.034 281.197 207.937 291.521 207.035 305.892C206.695 311.243 207.205 316.621 207.466 321.985C208.224 338.052 210.289 352.005 211.936 367.994C212.25 371.022 213.635 372.693 216.197 373.737C223.15 376.556 227.895 376.373 235.018 375.277C240.795 374.389 242.638 372.04 242.952 367.38C245.853 352.266 249.069 335.833 248.742 320.771V320.758Z" fill="#F4EFE5"/>
<path d="M261.46 188.397C262.412 188.397 263.185 187.625 263.185 186.674C263.185 185.722 262.412 184.951 261.46 184.951C260.507 184.951 259.734 185.722 259.734 186.674C259.734 187.625 260.507 188.397 261.46 188.397Z" fill="white"/>
<path d="M197.313 188.397C198.266 188.397 199.038 187.625 199.038 186.674C199.038 185.722 198.266 184.951 197.313 184.951C196.36 184.951 195.588 185.722 195.588 186.674C195.588 187.625 196.36 188.397 197.313 188.397Z" fill="white"/>
<path d="M235.319 231.221C236.597 231.221 237.633 230.187 237.633 228.911C237.633 227.635 236.597 226.6 235.319 226.6C234.042 226.6 233.006 227.635 233.006 228.911C233.006 230.187 234.042 231.221 235.319 231.221Z" fill="white"/>
<path opacity="0.3" d="M246.377 308.307C255.653 308.307 263.172 300.798 263.172 291.535C263.172 282.272 255.653 274.763 246.377 274.763C237.101 274.763 229.582 282.272 229.582 291.535C229.582 300.798 237.101 308.307 246.377 308.307Z" fill="#DD051A"/>
<path opacity="0.5" d="M246.376 300.828C251.516 300.828 255.682 296.667 255.682 291.535C255.682 286.402 251.516 282.242 246.376 282.242C241.237 282.242 237.07 286.402 237.07 291.535C237.07 296.667 241.237 300.828 246.376 300.828Z" fill="#DD051A"/>
<path opacity="0.3" d="M210.041 359.719C219.317 359.719 226.836 352.21 226.836 342.947C226.836 333.684 219.317 326.175 210.041 326.175C200.766 326.175 193.246 333.684 193.246 342.947C193.246 352.21 200.766 359.719 210.041 359.719Z" fill="#DD051A"/>
<path opacity="0.5" d="M210.042 352.24C215.182 352.24 219.348 348.079 219.348 342.947C219.348 337.814 215.182 333.653 210.042 333.653C204.903 333.653 200.736 337.814 200.736 342.947C200.736 348.079 204.903 352.24 210.042 352.24Z" fill="#DD051A"/>
<path opacity="0.3" d="M191.94 157.372C201.215 157.372 208.735 149.863 208.735 140.6C208.735 131.337 201.215 123.828 191.94 123.828C182.664 123.828 175.145 131.337 175.145 140.6C175.145 149.863 182.664 157.372 191.94 157.372Z" fill="#DD051A"/>
<path opacity="0.5" d="M191.941 149.893C197.08 149.893 201.247 145.732 201.247 140.6C201.247 135.467 197.08 131.307 191.941 131.307C186.801 131.307 182.635 135.467 182.635 140.6C182.635 145.732 186.801 149.893 191.941 149.893Z" fill="#DD051A"/>
<path d="M163.565 287.45C163.513 285.805 161.461 287.332 159.435 288.442C157.317 285.883 154.141 284.252 150.586 284.252C147.031 284.252 143.724 285.949 141.62 288.598C139.503 287.45 137.268 285.688 137.229 287.45C137.229 287.45 137.294 290.164 139.411 293.153C139.202 294.028 139.084 294.942 139.084 295.881C139.084 302.303 144.234 307.498 150.599 307.498C156.964 307.498 162.114 302.29 162.114 295.881C162.114 294.759 161.944 293.662 161.657 292.644C163.526 289.903 163.591 287.476 163.591 287.476L163.565 287.45Z" fill="#DD051A"/>
<path d="M143.227 295.046C143.005 296.482 143.906 297.878 145.396 298.257C146.886 298.635 148.39 297.865 148.939 296.521L143.227 295.046Z" fill="white"/>
<path d="M157.959 295.046L152.221 296.521C152.77 297.865 154.286 298.635 155.776 298.257C157.266 297.878 158.181 296.482 157.959 295.046Z" fill="white"/>
<path d="M311.126 265.548C311.1 264.556 309.858 265.483 308.629 266.148C307.362 264.608 305.44 263.616 303.297 263.616C301.153 263.616 299.167 264.634 297.886 266.24C296.605 265.548 295.272 264.478 295.232 265.548C295.232 265.548 295.272 267.192 296.553 268.981C296.422 269.503 296.356 270.051 296.356 270.625C296.356 274.489 299.467 277.634 303.297 277.634C307.126 277.634 310.237 274.502 310.237 270.625C310.237 269.946 310.132 269.294 309.963 268.667C311.087 267.01 311.126 265.548 311.126 265.548Z" fill="#DD051A"/>
<path d="M298.867 270.13C298.736 270.991 299.272 271.839 300.174 272.061C301.076 272.296 301.978 271.826 302.318 271.017L298.867 270.13Z" fill="white"/>
<path d="M307.753 270.13L304.289 271.017C304.616 271.826 305.531 272.296 306.433 272.061C307.334 271.826 307.883 270.991 307.74 270.13H307.753Z" fill="white"/>
</g>
<path opacity="0.3" d="M38 344.522C46.2843 344.522 53 337.815 53 329.543C53 321.27 46.2843 314.563 38 314.563C29.7157 314.563 23 321.27 23 329.543C23 337.815 29.7157 344.522 38 344.522Z" fill="#E83849"/>
<path opacity="0.5" d="M38 338.53C42.9706 338.53 47 334.506 47 329.543C47 324.579 42.9706 320.555 38 320.555C33.0294 320.555 29 324.579 29 329.543C29 334.506 33.0294 338.53 38 338.53Z" fill="#E83849"/>
<path d="M38.0014 326.333C39.7766 326.333 41.2157 327.77 41.2157 329.543C41.2157 331.315 39.7766 332.752 38.0014 332.752C36.2262 332.752 34.7871 331.315 34.7871 329.543C34.7871 327.77 36.2262 326.333 38.0014 326.333Z" fill="#E83849"/>
<g clip-path="url(#clip1_70_5626)">
<path d="M50.3404 208.491C50.3404 208.491 43.7578 218.122 35.2944 189.284L32.0469 190.758C32.0469 190.758 38.6404 211.003 44.4139 212.335C48.5472 213.58 51.6526 211.428 51.6526 211.428L50.3514 208.48L50.3404 208.491Z" fill="#C4CACE"/>
<path d="M48.0888 185.517C48.0888 185.517 44.535 185.255 42.8183 189.579C41.9217 190.922 42.4903 196.338 42.4903 196.338C42.4903 196.338 44.1633 198.009 45.6504 196.207C44.4148 187.679 49.1604 188.553 49.1604 188.553L48.0997 185.517H48.0888Z" fill="#C4CACE"/>
<path d="M53.7185 198.368L53.0515 196.687C50.788 192.723 47.0593 191.26 41.4499 192.013C40.8485 183.442 46.3267 184.37 46.3267 184.37L45.3207 181.04C45.3207 181.04 43.8664 181.192 42.1716 182.153C41.9091 181.52 41.6686 180.439 42.9589 177.993L41.4717 177.764C41.4717 177.764 39.4379 181.051 40.6626 183.213C40.6189 183.245 40.5751 183.289 40.5423 183.322C39.6238 183.354 38.5085 182.601 39.8206 178.572L38.2898 178.485C38.2898 178.485 36.3106 184.337 38.596 184.556C38.9459 184.643 39.1646 184.577 39.1646 184.643C38.257 185.222 36.3434 185.997 36.6496 180.406L35.2609 180.57C35.2609 180.57 33.9488 185.069 36.5621 186.51C37.2073 186.925 37.7103 187.002 38.1039 186.947C37.7321 188.476 37.7868 190.539 38.1258 192.865C33.9597 194.645 29.3672 198.106 31.565 206.23C33.577 213.666 41.5592 217.859 47.3983 216.538C52.3735 215.402 55.9601 204.811 53.7185 198.39V198.368Z" fill="#E83849"/>
</g>
<g clip-path="url(#clip2_70_5626)">
<path d="M86.5702 53.6655C85.5702 51.5385 83.6902 49.9307 81.3502 49.9307C78.2102 49.9307 75.6702 52.6869 75.6702 56.0722C75.6702 56.2719 75.6702 56.4716 75.7002 56.6713C75.7002 56.6713 75.6802 56.6713 75.6702 56.6713C72.5302 56.6713 69.9902 59.4275 69.9902 62.8128C69.9902 64.9598 71.0002 66.8372 72.5402 67.9357C71.8702 68.8045 71.4602 69.913 71.4602 71.1313C71.4602 73.5579 73.0702 75.5751 75.2002 76.0045C75.5902 78.3113 77.4602 80.0589 79.7002 80.0589C79.8402 80.0589 79.9802 80.0589 80.1102 80.0389C80.6202 81.5568 81.9702 82.6353 83.5402 82.6353C85.5602 82.6353 87.0202 80.8578 87.0202 78.6708V55.3831C87.0202 54.754 86.8002 54.1748 86.5602 53.6655H86.5702Z" fill="#E83849"/>
<path d="M105.899 62.8128C105.899 59.4175 103.359 56.6713 100.219 56.6713C100.219 56.6713 100.199 56.6713 100.189 56.6713C100.209 56.4716 100.219 56.2819 100.219 56.0722C100.219 52.6769 97.6794 49.9307 94.5394 49.9307C92.1994 49.9307 90.2894 51.5185 89.3194 53.6655C89.0494 54.2547 88.8594 54.754 88.8594 55.3831V78.6808C88.8594 80.8677 90.3194 82.6453 92.3394 82.6453C93.9194 82.6453 95.2594 81.5668 95.7694 80.0489C95.9094 80.0589 96.0394 80.0689 96.1794 80.0689C98.4194 80.0689 100.289 78.3213 100.679 76.0145C102.809 75.5851 104.419 73.5679 104.419 71.1412C104.419 69.9229 104.009 68.8045 103.339 67.9457C104.869 66.8472 105.889 64.9598 105.889 62.8228L105.899 62.8128Z" fill="#E83849"/>
</g>
<g clip-path="url(#clip3_70_5626)">
<path d="M427.83 313.565H408.95C405.112 313.565 402 316.672 402 320.505V339.359C402 343.192 405.112 346.299 408.95 346.299H427.83C431.668 346.299 434.78 343.192 434.78 339.359V320.505C434.78 316.672 431.668 313.565 427.83 313.565Z" fill="#E83849"/>
<path d="M426.081 324.879C421.251 322.422 415.541 322.422 410.711 324.879C409.881 323.251 409.051 321.614 408.211 319.986C414.611 316.73 422.181 316.73 428.571 319.986C427.741 321.614 426.911 323.251 426.071 324.879H426.081Z" fill="white" stroke="white" stroke-width="2" stroke-linecap="round" stroke-linejoin="round"/>
<path d="M422.879 319.855L420.115 320.821C420.115 320.821 420.08 320.801 420.054 320.786C419.423 320.48 418.654 320.751 418.348 321.381C418.041 322.012 418.313 322.78 418.944 323.086C419.253 323.23 419.597 323.255 419.917 323.14C420.238 323.025 420.498 322.794 420.651 322.49C420.651 322.49 420.656 322.482 420.661 322.473L423.452 321.499C423.906 321.334 424.141 320.847 423.989 320.391C423.824 319.938 423.336 319.703 422.879 319.855Z" fill="#E83849"/>
</g>
<path d="M429.968 187.591C429.905 185.613 427.414 187.45 424.955 188.785C422.385 185.707 418.53 183.745 414.214 183.745C409.899 183.745 405.885 185.786 403.331 188.973C400.761 187.591 398.048 185.472 398 187.591C398 187.591 398.079 190.857 400.649 194.452C400.396 195.504 400.253 196.603 400.253 197.733C400.253 205.458 406.504 211.706 414.23 211.706C421.956 211.706 428.207 205.442 428.207 197.733C428.207 196.383 428.001 195.064 427.652 193.84C429.921 190.543 430 187.623 430 187.623L429.968 187.591Z" fill="#E83849"/>
<path d="M405.281 196.729C405.011 198.456 406.106 200.135 407.914 200.591C409.723 201.046 411.548 200.12 412.214 198.503L405.281 196.729Z" fill="white"/>
<path d="M423.164 196.729L416.199 198.503C416.866 200.12 418.706 201.046 420.515 200.591C422.323 200.135 423.434 198.456 423.164 196.729Z" fill="white"/>
<path d="M245.22 24.7456C245.22 23.4175 244.61 22.2391 243.65 21.4702C244.61 20.7013 245.22 19.5129 245.22 18.1947C245.22 15.868 243.33 13.9806 241 13.9806C239.67 13.9806 238.49 14.5897 237.72 15.5484C236.95 14.5897 235.76 13.9806 234.44 13.9806C233.24 13.9806 232.16 14.4799 231.39 15.2888C230.62 14.4899 229.54 13.9806 228.34 13.9806C227.01 13.9806 225.83 14.5897 225.06 15.5484C224.29 14.5897 223.1 13.9806 221.78 13.9806C220.46 13.9806 219.27 14.5897 218.5 15.5484C217.73 14.5897 216.54 13.9806 215.22 13.9806C212.89 13.9806 211 15.868 211 18.1947C211 19.5229 211.61 20.7013 212.57 21.4702C211.61 22.2391 211 23.4275 211 24.7456C211 26.0638 211.61 27.2522 212.57 28.0211C211.61 28.79 211 29.9784 211 31.2966C211 32.4949 211.5 33.5734 212.31 34.3423C211.51 35.1113 211 36.1898 211 37.3881C211 39.7149 212.89 41.6022 215.22 41.6022C217.55 41.6022 219.44 39.7149 219.44 37.3881C219.44 36.1898 218.94 35.1113 218.13 34.3423C218.93 33.5734 219.44 32.4949 219.44 31.2966C219.44 29.9684 218.83 28.79 217.87 28.0211C218.83 27.2522 219.44 26.0638 219.44 24.7456C219.44 23.4275 218.83 22.2391 217.87 21.4702C218.1 21.2805 218.31 21.0707 218.5 20.8411C219.27 21.7997 220.46 22.4089 221.78 22.4089C223.1 22.4089 224.29 21.7997 225.06 20.8411C225.83 21.7997 227.02 22.4089 228.34 22.4089C229.54 22.4089 230.62 21.9096 231.39 21.1007C232.16 21.8996 233.24 22.4089 234.44 22.4089C235.77 22.4089 236.95 21.7997 237.72 20.8411C237.91 21.0707 238.12 21.2805 238.35 21.4702C237.39 22.2391 236.78 23.4275 236.78 24.7456C236.78 26.0638 237.39 27.2522 238.35 28.0211C237.39 28.79 236.78 29.9784 236.78 31.2966C236.78 32.4949 237.28 33.5734 238.09 34.3423C237.96 34.4622 237.83 34.602 237.72 34.7418C236.95 33.7831 235.76 33.1739 234.44 33.1739C232.11 33.1739 230.22 35.0613 230.22 37.3881C230.22 38.8061 230.93 40.0644 232.01 40.8233C231.49 41.4025 231.16 42.1615 231.16 43.0003C231.16 44.8078 232.63 46.2758 234.44 46.2758C236.25 46.2758 237.72 44.8078 237.72 43.0003C237.72 42.1615 237.39 41.4025 236.87 40.8133C237.19 40.5837 237.48 40.324 237.72 40.0244C238.49 40.9831 239.68 41.5923 241 41.5923C243.33 41.5923 245.22 39.7049 245.22 37.3781C245.22 36.1798 244.72 35.1013 243.91 34.3323C244.71 33.5634 245.22 32.4849 245.22 31.2866C245.22 29.9584 244.61 28.78 243.65 28.0111C244.61 27.2422 245.22 26.0538 245.22 24.7357V24.7456Z" fill="#E83849"/>
<path d="M241.479 32.4987L241.485 32.6715C241.482 32.7014 241.478 32.7346 241.473 32.7711C241.447 32.9656 241.398 33.2515 241.305 33.6035C241.118 34.3074 240.754 35.2728 240.047 36.2998L239.914 36.4938L239.978 36.7202C240.196 37.4834 240.324 38.3027 240.324 39.1383C240.324 43.9211 236.445 47.8079 231.651 47.8079C226.857 47.8079 222.978 43.9311 222.978 39.1383C222.978 38.4388 223.067 37.7569 223.225 37.1023L223.278 36.8801L223.145 36.6942C222.343 35.5713 221.931 34.5025 221.72 33.719C221.614 33.3272 221.559 33.0075 221.53 32.7892C221.516 32.6801 221.508 32.5965 221.504 32.5421C221.502 32.5149 221.501 32.495 221.5 32.4829L221.5 32.48C221.502 32.4451 221.504 32.4178 221.507 32.3968C221.524 32.3989 221.545 32.4023 221.569 32.4077C221.661 32.4277 221.78 32.4681 221.929 32.5328C222.228 32.6631 222.586 32.8641 222.992 33.1013C223.076 33.1502 223.162 33.2005 223.249 33.2517C223.575 33.4431 223.921 33.6465 224.262 33.8297L224.628 34.0268L224.888 33.702C226.473 31.7252 228.965 30.4584 231.641 30.4584C234.317 30.4584 236.709 31.6749 238.305 33.5862L238.568 33.9004L238.928 33.7051C239.202 33.5562 239.482 33.3951 239.748 33.242C239.878 33.1674 240.004 33.0947 240.125 33.0263C240.505 32.8105 240.837 32.6332 241.111 32.5226C241.247 32.4676 241.354 32.4355 241.434 32.4211C241.448 32.4185 241.461 32.4166 241.473 32.4153C241.476 32.4363 241.478 32.4637 241.479 32.4987Z" fill="#E83849" stroke="white"/>
<path d="M227.629 40.5286C226.893 40.3434 226.397 39.777 226.279 39.1231L229.547 39.9593C229.096 40.4629 228.366 40.714 227.629 40.5286Z" fill="white" stroke="white"/>
<path d="M235.653 40.5286C234.916 40.7143 234.18 40.4624 233.726 39.9597L237.012 39.1227C236.892 39.7752 236.391 40.3428 235.653 40.5286Z" fill="white" stroke="white"/>
<g clip-path="url(#clip4_70_5626)">
<ellipse cx="375" cy="61.9141" rx="2" ry="1.99723" fill="#E83849"/>
<ellipse cx="378.5" cy="61.4147" rx="2.5" ry="2.49653" fill="#E83849"/>
<path d="M384.78 61.0952H352V74.217C352 78.0517 355.11 81.1574 358.95 81.1574H377.82C381.66 81.1574 384.77 78.0517 384.77 74.217V61.0952H384.78Z" fill="#C4CACE"/>
<path d="M366.239 50.9131L366.239 50.9131L366.239 50.9135C365.82 51.376 365.729 52.0495 366.015 52.6056C366.332 53.224 366.579 54.2835 366.754 55.6357C366.926 56.9708 367.022 58.534 367.066 60.1205C367.151 63.1796 367.043 66.2909 366.933 67.951C366.441 68.5015 366.17 69.2199 366.17 69.9729C366.17 71.6664 367.543 73.0393 369.23 73.0393C370.918 73.0393 372.29 71.6552 372.29 69.9729C372.29 69.2004 372.001 68.477 371.499 67.922C371.485 65.2515 371.401 59.0458 371.026 56.1092C370.484 51.8055 368.325 50.6972 367.917 50.5355C367.724 50.4563 367.528 50.4293 367.35 50.4293C366.94 50.4293 366.531 50.5907 366.239 50.9131Z" fill="#F18892" stroke="white"/>
<path d="M367.35 51.9279C367.35 51.9279 369.07 52.6269 369.54 56.3018C369.94 59.4575 370 66.6675 370.01 68.6247C370.48 68.8944 370.8 69.4037 370.8 69.9829C370.8 70.8417 370.1 71.5407 369.23 71.5407C368.36 71.5407 367.67 70.8417 367.67 69.9829C367.67 69.4336 367.95 68.9543 368.38 68.6747C368.49 67.3964 369.15 55.453 367.35 51.9379" fill="#E83849"/>
<ellipse cx="362" cy="61.9141" rx="2" ry="1.99723" fill="#C4CACE"/>
<ellipse cx="359" cy="62.9127" rx="2" ry="1.99723" fill="#C4CACE"/>
<path d="M356.74 61.2251C356.74 61.2251 357.271 59.678 355 59.4175C355 59.4175 357.5 58.4189 358.1 61.2251C358.1 61.2251 356.73 61.1252 356.73 61.2251H356.74Z" fill="#C4CACE"/>
<path d="M361.069 61.2251C361.069 61.2251 361.5 59.1864 359 58.4189C359 58.4189 362.159 57.9196 362.159 61.2251C362.159 61.2251 361.069 61.1452 361.069 61.2251Z" fill="#C4CACE"/>
</g>
<defs>
<clipPath id="clip0_70_5626">
<rect width="200" height="266.172" fill="white" transform="translate(128 123.828)"/>
</clipPath>
<clipPath id="clip1_70_5626">
<rect width="23.4" height="39.0144" fill="white" transform="translate(31 177.753)"/>
</clipPath>
<clipPath id="clip2_70_5626">
<rect width="35.9" height="32.7146" fill="white" transform="translate(70 49.9307)"/>
</clipPath>
<clipPath id="clip3_70_5626">
<rect width="32.78" height="32.7346" fill="white" transform="translate(402 313.565)"/>
</clipPath>
<clipPath id="clip4_70_5626">
<rect width="32.78" height="31.2267" fill="white" transform="translate(352 49.9307)"/>
</clipPath>
</defs>
</svg>
