<svg width="466" height="390" viewBox="0 0 466 390" fill="none" xmlns="http://www.w3.org/2000/svg">
<ellipse cx="91" cy="64.9671" rx="30" ry="29.985" fill="white"/>
<ellipse cx="371" cy="64.9671" rx="30" ry="29.985" fill="white"/>
<g clip-path="url(#clip0_65_5608)">
<path d="M387.78 60.1495H355V73.2829C355 77.121 358.11 80.2295 361.95 80.2295H380.82C384.66 80.2295 387.77 77.121 387.77 73.2829V60.1495H387.78Z" fill="#C4CACE"/>
<path d="M372.228 71.6037C370.818 71.6037 369.668 70.4543 369.668 69.035C369.668 68.3454 369.938 67.6957 370.418 67.2259C370.648 63.9776 370.898 54.2324 369.458 51.4238C369.268 51.054 369.328 50.6042 369.608 50.2944C369.798 50.0845 370.068 49.9745 370.348 49.9745C370.478 49.9745 370.608 49.9945 370.728 50.0445C370.958 50.1345 373.008 51.084 373.528 55.2219C373.908 58.2004 373.988 64.6272 373.998 67.186C374.498 67.6657 374.788 68.3254 374.788 69.035C374.788 70.4443 373.638 71.6037 372.228 71.6037Z" fill="#5FAFFE"/>
<path d="M370.349 50.9741C370.349 50.9741 372.069 51.6737 372.539 55.3519C372.939 58.5103 372.999 65.7267 373.009 67.6857C373.479 67.9556 373.799 68.4653 373.799 69.045C373.799 69.9046 373.099 70.6043 372.229 70.6043C371.359 70.6043 370.669 69.9046 370.669 69.045C370.669 68.4953 370.949 68.0155 371.379 67.7357C371.489 66.4563 372.149 54.5023 370.349 50.984M370.349 48.985C369.799 48.985 369.259 49.2149 368.879 49.6347C368.309 50.2544 368.189 51.154 368.569 51.8936C369.759 54.2324 369.689 62.9781 369.439 66.8261C368.939 67.4458 368.659 68.2254 368.659 69.045C368.659 71.014 370.259 72.6033 372.219 72.6033C374.179 72.6033 375.789 71.0041 375.789 69.045C375.789 68.2254 375.499 67.4358 374.999 66.8061C374.979 64.0175 374.889 58.0005 374.519 55.102C373.929 50.5043 371.569 49.3149 371.099 49.125C370.849 49.025 370.599 48.9751 370.339 48.9751L370.349 48.985Z" fill="white"/>
<path d="M359.74 60.2794C359.74 60.2794 360.33 56.0815 359.15 52.7632C359.15 52.7632 361.3 55.0121 361.1 60.2794C361.1 60.2794 359.73 60.1795 359.73 60.2794H359.74Z" fill="#C4CACE"/>
<path d="M380.5 60.2794C380.5 60.2794 381.09 56.0815 379.91 52.7632C379.91 52.7632 382.06 55.012 381.86 60.2794C381.86 60.2794 380.49 60.1795 380.49 60.2794H380.5Z" fill="#C4CACE"/>
<path d="M364.07 60.2795C364.07 60.2795 364.54 56.9311 363.6 54.2825C363.6 54.2825 365.31 56.0716 365.16 60.2795C365.16 60.2795 364.07 60.1995 364.07 60.2795Z" fill="#C4CACE"/>
</g>
<ellipse cx="231" cy="29.985" rx="30" ry="29.985" fill="white"/>
<g clip-path="url(#clip1_65_5608)">
<path d="M248.22 24.7676C248.22 23.4383 247.61 22.2589 246.65 21.4893C247.61 20.7197 248.22 19.5302 248.22 18.2109C248.22 15.8821 246.33 13.993 244 13.993C242.67 13.993 241.49 14.6027 240.72 15.5622C239.95 14.6027 238.76 13.993 237.44 13.993C236.24 13.993 235.16 14.4928 234.39 15.3024C233.62 14.5028 232.54 13.993 231.34 13.993C230.01 13.993 228.83 14.6027 228.06 15.5622C227.29 14.6027 226.1 13.993 224.78 13.993C223.46 13.993 222.27 14.6027 221.5 15.5622C220.73 14.6027 219.54 13.993 218.22 13.993C215.89 13.993 214 15.8821 214 18.2109C214 19.5402 214.61 20.7197 215.57 21.4893C214.61 22.2589 214 23.4483 214 24.7676C214 26.087 214.61 27.2764 215.57 28.046C214.61 28.8156 214 30.005 214 31.3244C214 32.5238 214.5 33.6032 215.31 34.3728C214.51 35.1425 214 36.2219 214 37.4213C214 39.7502 215.89 41.6392 218.22 41.6392C220.55 41.6392 222.44 39.7502 222.44 37.4213C222.44 36.2219 221.94 35.1425 221.13 34.3728C221.93 33.6032 222.44 32.5238 222.44 31.3244C222.44 29.995 221.83 28.8156 220.87 28.046C221.83 27.2764 222.44 26.087 222.44 24.7676C222.44 23.4483 221.83 22.2589 220.87 21.4893C221.1 21.2994 221.31 21.0895 221.5 20.8596C222.27 21.8191 223.46 22.4288 224.78 22.4288C226.1 22.4288 227.29 21.8191 228.06 20.8596C228.83 21.8191 230.02 22.4288 231.34 22.4288C232.54 22.4288 233.62 21.929 234.39 21.1195C235.16 21.9191 236.24 22.4288 237.44 22.4288C238.77 22.4288 239.95 21.8191 240.72 20.8596C240.91 21.0895 241.12 21.2994 241.35 21.4893C240.39 22.2589 239.78 23.4483 239.78 24.7676C239.78 26.087 240.39 27.2764 241.35 28.046C240.39 28.8156 239.78 30.005 239.78 31.3244C239.78 32.5238 240.28 33.6032 241.09 34.3728C240.96 34.4928 240.83 34.6327 240.72 34.7726C239.95 33.8131 238.76 33.2034 237.44 33.2034C235.11 33.2034 233.22 35.0925 233.22 37.4213C233.22 38.8406 233.93 40.1 235.01 40.8596C234.49 41.4393 234.16 42.1989 234.16 43.0385C234.16 44.8476 235.63 46.3169 237.44 46.3169C239.25 46.3169 240.72 44.8476 240.72 43.0385C240.72 42.1989 240.39 41.4393 239.87 40.8496C240.19 40.6197 240.48 40.3598 240.72 40.06C241.49 41.0195 242.68 41.6292 244 41.6292C246.33 41.6292 248.22 39.7402 248.22 37.4113C248.22 36.2119 247.72 35.1325 246.91 34.3628C247.71 33.5932 248.22 32.5138 248.22 31.3144C248.22 29.985 247.61 28.8056 246.65 28.036C247.61 27.2664 248.22 26.077 248.22 24.7576V24.7676Z" fill="#C4CACE"/>
<path d="M230.911 25.1476H229.961C229.442 25.1476 229.021 25.5682 229.021 26.0871V32.6938C229.021 33.2127 229.442 33.6334 229.961 33.6334H230.911C231.431 33.6334 231.851 33.2127 231.851 32.6938V26.0871C231.851 25.5682 231.431 25.1476 230.911 25.1476Z" fill="#5FAFFE"/>
<path d="M233.741 27.9762H227.131C226.612 27.9762 226.191 28.3968 226.191 28.9157V29.8652C226.191 30.3841 226.612 30.8048 227.131 30.8048H233.741C234.261 30.8048 234.681 30.3841 234.681 29.8652V28.9157C234.681 28.3968 234.261 27.9762 233.741 27.9762Z" fill="#5FAFFE"/>
</g>
<ellipse cx="41" cy="328.835" rx="30" ry="29.985" fill="white"/>
<ellipse cx="45" cy="196.901" rx="30" ry="29.985" fill="white"/>
<g clip-path="url(#clip2_65_5608)">
<path d="M52.28 315.602C47.9 313.733 42.9 315.422 40.51 319.38C38.11 315.432 33.11 313.733 28.73 315.602C23.94 317.651 21.71 323.198 23.76 327.986C25.79 332.733 40.26 342.978 40.5 343.148C40.74 342.978 55.21 332.733 57.24 327.986C59.29 323.198 57.06 317.651 52.27 315.602H52.28Z" fill="#5FAFFE"/>
<path d="M26.6992 332.404H32.4492L34.1992 327.266L35.4792 332.404H36.0492L38.0192 323.208L39.6892 332.404H41.6392L43.1792 336.362L45.0192 332.404H56.5692" stroke="white" stroke-width="1.6" stroke-linecap="round" stroke-linejoin="round"/>
</g>
<ellipse cx="417" cy="196.901" rx="30" ry="29.985" fill="white"/>
<ellipse cx="421" cy="328.835" rx="30" ry="29.985" fill="white"/>
<g clip-path="url(#clip3_65_5608)">
<path d="M430.83 312.843H411.95C408.112 312.843 405 315.953 405 319.79V338.66C405 342.497 408.112 345.607 411.95 345.607H430.83C434.668 345.607 437.78 342.497 437.78 338.66V319.79C437.78 315.953 434.668 312.843 430.83 312.843Z" fill="#C4CACE"/>
<path d="M429.081 324.168C424.251 321.709 418.541 321.709 413.711 324.168C412.881 322.538 412.051 320.899 411.211 319.27C417.611 316.012 425.181 316.012 431.571 319.27C430.741 320.899 429.911 322.538 429.071 324.168H429.081Z" fill="white" stroke="white" stroke-width="2" stroke-linecap="round" stroke-linejoin="round"/>
<path d="M423.87 317.431L421.96 319.65C421.96 319.65 421.92 319.65 421.89 319.65C421.19 319.7 420.66 320.32 420.71 321.019C420.76 321.719 421.38 322.249 422.08 322.199C422.42 322.169 422.73 322.019 422.95 321.759C423.17 321.499 423.28 321.169 423.26 320.829C423.26 320.829 423.26 320.819 423.26 320.809L425.19 318.571C425.5 318.201 425.46 317.661 425.1 317.341C424.73 317.031 424.19 317.071 423.87 317.431Z" fill="#5FAFFE"/>
</g>
<g clip-path="url(#clip4_65_5608)">
<path d="M89.5702 52.7132C88.5702 50.5842 86.6902 48.9751 84.3502 48.9751C81.2102 48.9751 78.6702 51.7337 78.6702 55.122C78.6702 55.3219 78.6702 55.5218 78.7002 55.7217C78.7002 55.7217 78.6802 55.7217 78.6702 55.7217C75.5302 55.7217 72.9902 58.4803 72.9902 61.8686C72.9902 64.0175 74.0002 65.8966 75.5402 66.9961C74.8702 67.8656 74.4602 68.9751 74.4602 70.1945C74.4602 72.6232 76.0702 74.6422 78.2002 75.072C78.5902 77.3809 80.4602 79.13 82.7002 79.13C82.8402 79.13 82.9802 79.13 83.1102 79.11C83.6202 80.6292 84.9702 81.7087 86.5402 81.7087C88.5602 81.7087 90.0202 79.9296 90.0202 77.7407V54.4323C90.0202 53.8026 89.8002 53.2229 89.5602 52.7132H89.5702Z" fill="#5FAFFE"/>
<path d="M108.899 61.8686C108.899 58.4703 106.359 55.7217 103.219 55.7217C103.219 55.7217 103.199 55.7217 103.189 55.7217C103.209 55.5218 103.219 55.3319 103.219 55.122C103.219 51.7237 100.679 48.9751 97.5394 48.9751C95.1994 48.9751 93.2894 50.5643 92.3194 52.7132C92.0494 53.3029 91.8594 53.8026 91.8594 54.4323V77.7507C91.8594 79.9396 93.3194 81.7187 95.3394 81.7187C96.9194 81.7187 98.2594 80.6392 98.7694 79.12C98.9094 79.13 99.0394 79.14 99.1794 79.14C101.419 79.14 103.289 77.3909 103.679 75.082C105.809 74.6522 107.419 72.6332 107.419 70.2045C107.419 68.9851 107.009 67.8656 106.339 67.006C107.869 65.9066 108.889 64.0175 108.889 61.8786L108.899 61.8686Z" fill="#5FAFFE"/>
</g>
<path d="M51.1729 103.807V116.166H49.6689V103.807H51.1729ZM40.8779 112.365C41.9102 112.365 43.0654 112.358 44.2549 112.331V109.918H41.7803V104.941H43.3115V108.687H48.2744V109.918H45.7861V112.283C46.8525 112.235 47.9121 112.16 48.917 112.037L49.0127 113.158C46.2852 113.602 43.3936 113.637 41.042 113.609L40.8779 112.365ZM63.2725 103.807V116.166H61.7412V103.807H63.2725ZM53.0322 112.762C56.2725 111.224 57.7627 109.132 58.0361 106.322H53.6611V105.119H59.5811C59.5811 108.797 58.1523 111.921 53.8252 113.978L53.0322 112.762ZM75.0439 107.019V108.25H66.5127V104.025H68.0303V107.019H75.0439ZM65.0498 110.67V109.439H76.3291V110.67H65.0498ZM66.3623 113.842C66.3623 112.386 67.9824 111.565 70.6689 111.558C73.335 111.565 74.9414 112.386 74.9482 113.842C74.9414 115.291 73.335 116.111 70.6689 116.111C67.9824 116.111 66.3623 115.291 66.3623 113.842ZM67.9072 113.842C67.9004 114.553 68.8711 114.942 70.6689 114.949C72.4395 114.942 73.417 114.553 73.4307 113.842C73.417 113.11 72.4395 112.755 70.6689 112.748C68.8711 112.755 67.9004 113.11 67.9072 113.842ZM90.8213 103.82V112.885H89.3037V108.728H86.9248V107.471H89.3037V103.82H90.8213ZM80.6357 110.369C83.2949 109.528 85.0518 107.949 85.3457 105.994H81.2783V104.75H87.0068C87.0068 108.011 84.8535 110.444 81.2783 111.586L80.6357 110.369ZM82.7686 115.92V111.969H84.3135V114.689H91.1357V115.92H82.7686ZM102.319 103.807V106.814H104.042V108.058H102.319V111.053H100.802V103.807H102.319ZM92.5303 110.014C95.3262 109.248 96.9941 107.737 97.2539 105.885H93.0908V104.654H98.9014C98.9082 107.901 96.7891 110.212 93.1318 111.244L92.5303 110.014ZM94.1982 113.678C94.1846 112.153 95.8389 111.203 98.3271 111.203C100.836 111.203 102.456 112.153 102.456 113.678C102.456 115.216 100.836 116.159 98.3271 116.152C95.8389 116.159 94.1846 115.216 94.1982 113.678ZM95.7021 113.678C95.6953 114.484 96.6934 114.963 98.3271 114.963C99.9541 114.963 100.959 114.484 100.966 113.678C100.959 112.864 99.9541 112.392 98.3271 112.392C96.6934 112.392 95.6953 112.864 95.7021 113.678ZM115.95 110.738V111.969H113.202V116.166H111.657V111.969H108.923V116.166H107.364V111.969H104.657V110.738H115.95ZM105.847 107.006C105.84 105.324 107.645 104.251 110.276 104.244C112.908 104.251 114.727 105.324 114.733 107.006C114.727 108.667 112.908 109.713 110.276 109.713C107.645 109.713 105.84 108.667 105.847 107.006ZM107.405 107.006C107.398 107.949 108.533 108.503 110.276 108.51C112.026 108.503 113.161 107.949 113.161 107.006C113.161 106.035 112.026 105.474 110.276 105.474C108.533 105.474 107.398 106.035 107.405 107.006ZM121.433 107.32C121.433 109.344 122.622 111.476 124.618 112.31L123.784 113.514C122.321 112.878 121.255 111.586 120.688 110.014C120.12 111.709 119.033 113.131 117.591 113.814L116.716 112.625C118.664 111.723 119.881 109.419 119.888 107.32V106.281H117.167V105.023H124.14V106.281H121.433V107.32ZM125.521 116.166V103.807H127.052V116.166H125.521ZM132.562 104.572C134.462 104.572 135.911 105.796 135.925 107.553C135.911 109.063 134.845 110.178 133.341 110.458V112.283C134.373 112.228 135.398 112.153 136.362 112.023L136.472 113.158C133.881 113.623 131.058 113.637 128.938 113.609L128.72 112.365C129.649 112.365 130.716 112.358 131.823 112.331V110.472C130.271 110.198 129.198 109.077 129.212 107.553C129.198 105.796 130.62 104.572 132.562 104.572ZM130.688 107.553C130.682 108.585 131.481 109.248 132.562 109.234C133.621 109.248 134.414 108.585 134.421 107.553C134.414 106.514 133.621 105.871 132.562 105.857C131.481 105.871 130.682 106.514 130.688 107.553ZM137.073 116.166V103.807H138.591V108.742H140.382V110.027H138.591V116.166H137.073ZM90.1035 131.432V132.676H78.8105V131.432H83.6777V129.025H80.0547V122.627H81.5723V124.65H87.3008V122.627H88.8184V129.025H85.1816V131.432H90.1035ZM81.5723 127.795H87.3008V125.867H81.5723V127.795ZM101.629 123.461V124.691H91.416V123.461H95.7773V121.971H97.2812V123.461H101.629ZM90.9102 132.84V131.609H95.7773V130.092C93.6445 129.928 92.3525 129.066 92.3594 127.699C92.3525 126.209 93.9521 125.32 96.5293 125.32C99.0723 125.32 100.692 126.209 100.686 127.699C100.692 129.059 99.3867 129.921 97.2812 130.092V131.609H102.203V132.84H90.9102ZM93.918 127.699C93.9111 128.492 94.8477 128.895 96.5293 128.902C98.1768 128.895 99.127 128.492 99.127 127.699C99.127 126.92 98.1768 126.516 96.5293 126.51C94.8477 126.516 93.9111 126.92 93.918 127.699Z" fill="#616161"/>
<path d="M343.8 103.82V112.885H342.282V108.728H339.903V107.471H342.282V103.82H343.8ZM333.614 110.369C336.273 109.528 338.03 107.949 338.324 105.994H334.257V104.75H339.985C339.985 108.011 337.832 110.444 334.257 111.586L333.614 110.369ZM335.747 115.92V111.969H337.292V114.689H344.114V115.92H335.747ZM355.298 103.807V106.814H357.021V108.058H355.298V111.053H353.78V103.807H355.298ZM345.509 110.014C348.305 109.248 349.973 107.737 350.232 105.885H346.069V104.654H351.88C351.887 107.901 349.768 110.212 346.11 111.244L345.509 110.014ZM347.177 113.678C347.163 112.153 348.817 111.203 351.306 111.203C353.814 111.203 355.435 112.153 355.435 113.678C355.435 115.216 353.814 116.159 351.306 116.152C348.817 116.159 347.163 115.216 347.177 113.678ZM348.681 113.678C348.674 114.484 349.672 114.963 351.306 114.963C352.933 114.963 353.938 114.484 353.944 113.678C353.938 112.864 352.933 112.392 351.306 112.392C349.672 112.392 348.674 112.864 348.681 113.678ZM367.397 103.82V107.703H369.12V108.961H367.397V113.049H365.88V103.82H367.397ZM357.663 106.404V105.187H360.575V103.807H362.093V105.187H364.991V106.404H357.663ZM358.292 109.275C358.292 107.853 359.529 106.91 361.327 106.91C363.111 106.91 364.342 107.853 364.349 109.275C364.342 110.69 363.111 111.613 361.327 111.613C359.529 111.613 358.292 110.69 358.292 109.275ZM359.481 115.92V112.324H360.999V114.689H367.89V115.92H359.481ZM359.769 109.275C359.762 110.02 360.391 110.444 361.327 110.437C362.264 110.444 362.899 110.02 362.899 109.275C362.899 108.523 362.264 108.086 361.327 108.086C360.391 108.086 359.762 108.523 359.769 109.275ZM383.394 103.807V116.166H381.862V103.807H383.394ZM373.044 111.996C373.522 111.996 374.035 111.989 374.575 111.982V106.254H373.372V105.01H380.386V106.254H379.196V111.798C379.784 111.75 380.372 111.695 380.933 111.627L381.015 112.762C378.362 113.192 375.471 113.24 373.194 113.24L373.044 111.996ZM376.038 111.955C376.585 111.941 377.146 111.921 377.706 111.887V106.254H376.038V111.955ZM396.45 110.998V112.201H391.528V116.166H390.024V112.201H385.157V110.998H396.45ZM386.524 109.713V104.299H388.028V105.816H393.552V104.299H395.083V109.713H386.524ZM388.028 108.482H393.552V107.019H388.028V108.482ZM400.962 104.572C402.862 104.572 404.312 105.796 404.325 107.553C404.312 109.063 403.245 110.178 401.741 110.458V112.283C402.773 112.228 403.799 112.153 404.763 112.023L404.872 113.158C402.281 113.623 399.458 113.637 397.339 113.609L397.12 112.365C398.05 112.365 399.116 112.358 400.224 112.331V110.472C398.672 110.198 397.599 109.077 397.612 107.553C397.599 105.796 399.021 104.572 400.962 104.572ZM399.089 107.553C399.082 108.585 399.882 109.248 400.962 109.234C402.021 109.248 402.814 108.585 402.821 107.553C402.814 106.514 402.021 105.871 400.962 105.857C399.882 105.871 399.082 106.514 399.089 107.553ZM405.474 116.166V103.807H406.991V108.742H408.782V110.027H406.991V116.166H405.474ZM355.872 121.807V134.166H354.341V121.807H355.872ZM345.522 129.996C346.001 129.996 346.514 129.989 347.054 129.982V124.254H345.851V123.01H352.864V124.254H351.675V129.798C352.263 129.75 352.851 129.695 353.411 129.627L353.493 130.762C350.841 131.192 347.949 131.24 345.673 131.24L345.522 129.996ZM348.517 129.955C349.063 129.941 349.624 129.921 350.185 129.887V124.254H348.517V129.955ZM368.942 131.418V132.662H357.649V131.418H362.517V128.724H358.894V122.764H367.644V128.724H364.021V131.418H368.942ZM360.384 127.535H366.14V123.98H360.384V127.535ZM384.351 128.738V129.969H381.603V134.166H380.058V129.969H377.323V134.166H375.765V129.969H373.058V128.738H384.351ZM374.247 125.006C374.24 123.324 376.045 122.251 378.677 122.244C381.309 122.251 383.127 123.324 383.134 125.006C383.127 126.667 381.309 127.713 378.677 127.713C376.045 127.713 374.24 126.667 374.247 125.006ZM375.806 125.006C375.799 125.949 376.934 126.503 378.677 126.51C380.427 126.503 381.562 125.949 381.562 125.006C381.562 124.035 380.427 123.474 378.677 123.474C376.934 123.474 375.799 124.035 375.806 125.006ZM389.833 125.32C389.833 127.344 391.022 129.476 393.019 130.31L392.185 131.514C390.722 130.878 389.655 129.586 389.088 128.014C388.521 129.709 387.434 131.131 385.991 131.814L385.116 130.625C387.064 129.723 388.281 127.419 388.288 125.32V124.281H385.567V123.023H392.54V124.281H389.833V125.32ZM393.921 134.166V121.807H395.452V134.166H393.921Z" fill="#616161"/>
<path d="M171.89 67.8382V76.9026H170.372V72.7464H167.993V71.4886H170.372V67.8382H171.89ZM161.704 74.387C164.363 73.5462 166.12 71.9671 166.414 70.012H162.347V68.7679H168.075C168.075 72.0286 165.922 74.4622 162.347 75.6038L161.704 74.387ZM163.837 79.9378V75.9866H165.382V78.7073H172.204V79.9378H163.837ZM183.388 67.8245V70.8323H185.11V72.0764H183.388V75.0706H181.87V67.8245H183.388ZM173.599 74.0315C176.395 73.2659 178.062 71.7552 178.322 69.9026H174.159V68.6721H179.97C179.977 71.9192 177.857 74.2298 174.2 75.262L173.599 74.0315ZM175.267 77.6956C175.253 76.1712 176.907 75.221 179.396 75.221C181.904 75.221 183.524 76.1712 183.524 77.6956C183.524 79.2337 181.904 80.177 179.396 80.1702C176.907 80.177 175.253 79.2337 175.267 77.6956ZM176.771 77.6956C176.764 78.5022 177.762 78.9807 179.396 78.9807C181.022 78.9807 182.027 78.5022 182.034 77.6956C182.027 76.8821 181.022 76.4104 179.396 76.4104C177.762 76.4104 176.764 76.8821 176.771 77.6956ZM195.487 67.8382V71.721H197.21V72.9788H195.487V77.0667H193.97V67.8382H195.487ZM185.753 70.4221V69.2054H188.665V67.8245H190.183V69.2054H193.081V70.4221H185.753ZM186.382 73.2932C186.382 71.8714 187.619 70.928 189.417 70.928C191.201 70.928 192.432 71.8714 192.438 73.2932C192.432 74.7083 191.201 75.6311 189.417 75.6311C187.619 75.6311 186.382 74.7083 186.382 73.2932ZM187.571 79.9378V76.3421H189.089V78.7073H195.979V79.9378H187.571ZM187.858 73.2932C187.852 74.0384 188.48 74.4622 189.417 74.4554C190.354 74.4622 190.989 74.0384 190.989 73.2932C190.989 72.5413 190.354 72.1038 189.417 72.1038C188.48 72.1038 187.852 72.5413 187.858 73.2932ZM205.194 68.3714C207.074 68.3645 208.435 69.4173 208.435 70.969C208.435 72.4934 207.074 73.5598 205.194 73.553C203.335 73.5598 201.981 72.4934 201.981 70.969C201.981 69.4173 203.335 68.3645 205.194 68.3714ZM201.175 74.4007C203.403 74.4007 206.527 74.3596 209.187 73.9632L209.296 75.0843C208.229 75.2893 207.122 75.4192 206.042 75.5013V79.8011H204.511V75.5901C203.369 75.638 202.296 75.6516 201.366 75.6585L201.175 74.4007ZM203.458 70.969C203.451 71.7962 204.183 72.3157 205.194 72.3089C206.247 72.3157 206.985 71.7962 206.985 70.969C206.985 70.1145 206.247 69.5882 205.194 69.6018C204.183 69.5882 203.451 70.1145 203.458 70.969ZM209.993 80.1702V67.8382H211.497V80.1702H209.993ZM217.69 70.053C217.69 71.5638 218.668 72.9856 220.603 73.5804L219.878 74.7698C218.49 74.3323 217.506 73.4505 216.966 72.3362C216.419 73.635 215.38 74.6673 213.89 75.1663L213.124 73.9632C215.113 73.3138 216.159 71.7073 216.159 70.0667V69.9163H213.548V68.6858H220.261V69.9163H217.69V70.053ZM214.806 77.805C214.806 76.3284 216.405 75.4671 218.989 75.4671C221.553 75.4671 223.125 76.3284 223.132 77.805C223.125 79.2952 221.553 80.1702 218.989 80.1702C216.405 80.1702 214.806 79.2952 214.806 77.805ZM216.323 77.805C216.323 78.5706 217.294 78.9739 218.989 78.9807C220.678 78.9739 221.628 78.5706 221.628 77.805C221.628 77.053 220.678 76.6565 218.989 76.6565C217.294 76.6565 216.323 77.053 216.323 77.805ZM221.491 75.1936V67.8245H223.009V70.7913H224.731V72.0354H223.009V75.1936H221.491ZM232.265 68.7405V69.4788C232.251 70.3196 232.251 71.5501 231.964 73.1155L230.46 72.9788C230.706 71.7073 230.754 70.7571 230.768 69.9983H225.962V68.7405H232.265ZM225.224 74.0999C225.955 74.093 226.775 74.0862 227.644 74.0725V71.5569H229.147V74.0247C230.426 73.97 231.738 73.8743 232.935 73.7034L233.017 74.7971C230.446 75.262 227.527 75.3098 225.36 75.3167L225.224 74.0999ZM227.069 79.9378V76.26H228.601V78.7073H235.614V79.9378H227.069ZM233.659 77.0804V67.8245H235.218V71.68H236.817V72.9514H235.218V77.0804H233.659ZM248.124 67.8245V80.1839H246.675V67.8245H248.124ZM237.337 76.4925C239.894 74.9817 241.069 73.0471 241.302 70.5589H237.993V69.3284H242.806C242.806 69.9505 242.765 70.5589 242.676 71.1468H244.118V68.1253H245.567V79.596H244.118V75.4671H242.19V74.2229H244.118V72.3909H242.416C241.828 74.4417 240.543 76.2054 238.226 77.5725L237.337 76.4925ZM257.558 70.7913C257.544 73.0608 258.74 75.3304 260.743 76.1917L259.841 77.4085C258.419 76.7522 257.38 75.4466 256.806 73.8333C256.238 75.5696 255.172 76.9915 253.675 77.6956L252.745 76.4241C254.803 75.5354 256.006 73.177 256.013 70.7913V68.8225H257.558V70.7913ZM261.632 80.1975V67.8245H263.163V80.1975H261.632ZM271.366 69.5198C271.366 71.427 273.232 73.3479 275.823 73.7991L275.14 75.0706C273.068 74.6399 271.373 73.3821 270.566 71.721C269.753 73.3684 268.058 74.6331 265.993 75.0706L265.323 73.7991C267.873 73.3343 269.746 71.4202 269.753 69.5198V68.6038H271.366V69.5198ZM264.981 78.6116V77.3538H276.274V78.6116H264.981ZM282.304 68.5901V69.8206H279.063V70.9827H281.839V72.1585H279.063V73.43C280.54 73.4163 281.565 73.3548 282.769 73.1429L282.933 74.3323C281.504 74.5921 280.328 74.6468 278.421 74.6468H277.601V68.5901H282.304ZM279.31 80.0335V75.7405H287.649V80.0335H279.31ZM280.827 78.803H286.146V76.9436H280.827V78.803ZM282.372 72.0764V70.846H283.767V68.0296H285.216V75.1253H283.767V72.0764H282.372ZM286.2 75.221V67.8245H287.649V75.221H286.2ZM296.085 69.1096V69.9846C296.085 71.0852 296.085 72.6438 295.743 74.7698L294.239 74.6468C294.54 72.7737 294.574 71.386 294.581 70.3264H289.728V69.1096H296.085ZM289.071 76.3694C289.803 76.3626 290.616 76.3557 291.464 76.3352V72.637H292.968V76.2874C294.226 76.2327 295.518 76.1438 296.7 76.0003L296.782 77.135C294.232 77.552 291.402 77.5999 289.222 77.5862L289.071 76.3694ZM297.343 80.1839V67.8245H298.874V72.8557H300.665V74.1409H298.874V80.1839H297.343ZM207.368 86.9593V89.8167H209.378V86.9593H210.786V95.1897H205.933V86.9593H207.368ZM207.368 93.9593H209.378V91.0198H207.368V93.9593ZM212.003 97.5823V86.0432H213.438V90.596H214.751V85.8245H216.214V98.1839H214.751V91.8538H213.438V97.5823H212.003ZM227.999 85.8382V94.9573H226.481V91.8538H223.993V92.9475H218.21V86.6448H219.728V88.6409H222.489V86.6448H223.993V87.971H226.481V85.8382H227.999ZM219.728 91.7444H222.489V89.8167H219.728V91.7444ZM219.851 97.9378V94.055H221.396V96.7073H228.272V97.9378H219.851ZM223.993 90.6233H226.481V89.2014H223.993V90.6233ZM244.351 92.7561V93.9866H241.603V98.1839H240.058V93.9866H237.323V98.1839H235.765V93.9866H233.058V92.7561H244.351ZM234.247 89.0237C234.24 87.3421 236.045 86.2688 238.677 86.262C241.309 86.2688 243.127 87.3421 243.134 89.0237C243.127 90.6848 241.309 91.7307 238.677 91.7307C236.045 91.7307 234.24 90.6848 234.247 89.0237ZM235.806 89.0237C235.799 89.9671 236.934 90.5208 238.677 90.5276C240.427 90.5208 241.562 89.9671 241.562 89.0237C241.562 88.053 240.427 87.4925 238.677 87.4925C236.934 87.4925 235.799 88.053 235.806 89.0237ZM249.833 89.3382C249.833 91.3616 251.022 93.4944 253.019 94.3284L252.185 95.5315C250.722 94.8958 249.655 93.6038 249.088 92.0315C248.521 93.7268 247.434 95.1487 245.991 95.8323L245.116 94.6429C247.064 93.7405 248.281 91.4368 248.288 89.3382V88.2991H245.567V87.0413H252.54V88.2991H249.833V89.3382ZM253.921 98.1839V85.8245H255.452V98.1839H253.921Z" fill="#616161"/>
<path d="M12.9297 369.903C12.9297 371.414 13.9072 372.836 15.8418 373.431L15.1172 374.62C13.7295 374.183 12.7451 373.301 12.2051 372.186C11.6582 373.485 10.6191 374.518 9.12891 375.017L8.36328 373.813C10.3525 373.164 11.3984 371.558 11.3984 369.917V369.767H8.78711V368.536H15.5V369.767H12.9297V369.903ZM10.0449 377.655C10.0449 376.179 11.6445 375.317 14.2285 375.317C16.792 375.317 18.3643 376.179 18.3711 377.655C18.3643 379.145 16.792 380.02 14.2285 380.02C11.6445 380.02 10.0449 379.145 10.0449 377.655ZM11.5625 377.655C11.5625 378.421 12.5332 378.824 14.2285 378.831C15.917 378.824 16.8672 378.421 16.8672 377.655C16.8672 376.903 15.917 376.507 14.2285 376.507C12.5332 376.507 11.5625 376.903 11.5625 377.655ZM16.7305 375.044V367.675H18.248V370.642H19.9707V371.886H18.248V375.044H16.7305ZM27.0391 368.7C27.0322 370.252 28.7754 371.831 31.4141 372.173L30.8125 373.403C28.7139 373.089 27.0459 372.057 26.2393 370.662C25.4326 372.057 23.7715 373.089 21.6934 373.403L21.0918 372.173C23.7031 371.831 25.4395 370.266 25.4395 368.7V368.071H27.0391V368.7ZM20.5996 375.728V374.47H31.8652V375.728H26.957V380.034H25.4531V375.728H20.5996ZM43.3633 367.675V380.034H41.9004V367.675H43.3633ZM32.8223 373.02C32.8223 370.3 33.875 368.611 35.4883 368.618C36.9854 368.611 38.0039 370.013 38.1816 372.323H39.3711V367.894H40.8203V379.433H39.3711V373.554H38.1953C38.0518 375.967 37.0195 377.443 35.4883 377.436C33.875 377.443 32.8223 375.748 32.8223 373.02ZM34.2305 373.02C34.2236 374.955 34.7021 375.994 35.4883 375.987C36.3086 375.994 36.7939 374.955 36.8008 373.02C36.7939 371.093 36.3086 370.047 35.4883 370.054C34.7021 370.047 34.2236 371.093 34.2305 373.02ZM58.1562 373.294V374.497H54.4922V377.327H59.4141V378.571H48.1211V377.327H52.9883V374.497H49.4883V368.591H58.0605V369.808H51.0059V373.294H58.1562ZM65.8398 367.866C68.5742 367.873 70.29 368.755 70.2969 370.245C70.29 371.708 68.5742 372.583 65.8398 372.569C63.1328 372.583 61.3828 371.708 61.3828 370.245C61.3828 368.755 63.1328 367.873 65.8398 367.866ZM60.2207 374.538V373.321H71.4863V374.538H66.5918V375.728H70.1191V379.884H61.5469V375.728H65.0879V374.538H60.2207ZM62.9688 370.245C62.9551 370.997 64.0352 371.407 65.8398 371.407C67.6445 371.407 68.7246 370.997 68.7246 370.245C68.7246 369.459 67.6445 369.035 65.8398 369.042C64.0352 369.035 62.9551 369.459 62.9688 370.245ZM63.0508 378.653H68.6426V376.931H63.0508V378.653Z" fill="#616161"/>
<path d="M11.1953 235.754V242.741H9.66406V235.754H11.1953ZM0.900391 241.291C2.90332 240.656 3.94238 239.049 3.93555 237.422V236.219H5.50781V237.422C5.50098 239.001 6.55371 240.471 8.48828 241.086L7.75 242.248C6.32129 241.804 5.2959 240.895 4.73535 239.712C4.18164 240.984 3.13574 242.002 1.65234 242.495L0.900391 241.291ZM2.99219 247.95V243.356H11.1953V247.95H2.99219ZM4.49609 246.719H9.70508V244.559H4.49609V246.719ZM17.4297 237.969C17.4297 239.48 18.4072 240.902 20.3418 241.497L19.6172 242.686C18.2295 242.248 17.2451 241.367 16.7051 240.252C16.1582 241.551 15.1191 242.583 13.6289 243.082L12.8633 241.879C14.8525 241.23 15.8984 239.623 15.8984 237.983V237.832H13.2871V236.602H20V237.832H17.4297V237.969ZM14.5449 245.721C14.5449 244.245 16.1445 243.383 18.7285 243.383C21.292 243.383 22.8643 244.245 22.8711 245.721C22.8643 247.211 21.292 248.086 18.7285 248.086C16.1445 248.086 14.5449 247.211 14.5449 245.721ZM16.0625 245.721C16.0625 246.487 17.0332 246.89 18.7285 246.897C20.417 246.89 21.3672 246.487 21.3672 245.721C21.3672 244.969 20.417 244.573 18.7285 244.573C17.0332 244.573 16.0625 244.969 16.0625 245.721ZM21.2305 243.11V235.741H22.748V238.707H24.4707V239.952H22.748V243.11H21.2305ZM38.7715 235.754V244.819H37.2539V240.663H34.875V239.405H37.2539V235.754H38.7715ZM28.5859 242.303C31.2451 241.462 33.002 239.883 33.2959 237.928H29.2285V236.684H34.957C34.957 239.945 32.8037 242.378 29.2285 243.52L28.5859 242.303ZM30.7188 247.854V243.903H32.2637V246.623H39.0859V247.854H30.7188ZM50.2695 235.741V238.748H51.9922V239.993H50.2695V242.987H48.752V235.741H50.2695ZM40.4805 241.948C43.2764 241.182 44.9443 239.671 45.2041 237.819H41.041V236.588H46.8516C46.8584 239.835 44.7393 242.146 41.082 243.178L40.4805 241.948ZM42.1484 245.612C42.1348 244.087 43.7891 243.137 46.2773 243.137C48.7861 243.137 50.4062 244.087 50.4062 245.612C50.4062 247.15 48.7861 248.093 46.2773 248.086C43.7891 248.093 42.1348 247.15 42.1484 245.612ZM43.6523 245.612C43.6455 246.418 44.6436 246.897 46.2773 246.897C47.9043 246.897 48.9092 246.418 48.916 245.612C48.9092 244.798 47.9043 244.327 46.2773 244.327C44.6436 244.327 43.6455 244.798 43.6523 245.612ZM63.9004 242.672V243.903H61.1523V248.1H59.6074V243.903H56.873V248.1H55.3145V243.903H52.6074V242.672H63.9004ZM53.7969 238.94C53.79 237.258 55.5947 236.185 58.2266 236.178C60.8584 236.185 62.6768 237.258 62.6836 238.94C62.6768 240.601 60.8584 241.647 58.2266 241.647C55.5947 241.647 53.79 240.601 53.7969 238.94ZM55.3555 238.94C55.3486 239.883 56.4834 240.437 58.2266 240.444C59.9766 240.437 61.1113 239.883 61.1113 238.94C61.1113 237.969 59.9766 237.409 58.2266 237.409C56.4834 237.409 55.3486 237.969 55.3555 238.94ZM69.3828 239.254C69.3828 241.278 70.5723 243.411 72.5684 244.245L71.7344 245.448C70.2715 244.812 69.2051 243.52 68.6377 241.948C68.0703 243.643 66.9834 245.065 65.541 245.748L64.666 244.559C66.6143 243.657 67.8311 241.353 67.8379 239.254V238.215H65.1172V236.957H72.0898V238.215H69.3828V239.254ZM73.4707 248.1V235.741H75.002V248.1H73.4707ZM80.5117 236.506C82.4121 236.506 83.8613 237.73 83.875 239.487C83.8613 240.997 82.7949 242.112 81.291 242.392V244.217C82.3232 244.163 83.3486 244.087 84.3125 243.957L84.4219 245.092C81.8311 245.557 79.0078 245.571 76.8887 245.543L76.6699 244.299C77.5996 244.299 78.666 244.292 79.7734 244.265V242.406C78.2217 242.132 77.1484 241.011 77.1621 239.487C77.1484 237.73 78.5703 236.506 80.5117 236.506ZM78.6387 239.487C78.6318 240.519 79.4316 241.182 80.5117 241.168C81.5713 241.182 82.3643 240.519 82.3711 239.487C82.3643 238.448 81.5713 237.805 80.5117 237.791C79.4316 237.805 78.6318 238.448 78.6387 239.487ZM85.0234 248.1V235.741H86.541V240.676H88.332V241.961H86.541V248.1H85.0234ZM44.1035 263.366V264.61H32.8105V263.366H37.6777V260.959H34.0547V254.561H35.5723V256.584H41.3008V254.561H42.8184V260.959H39.1816V263.366H44.1035ZM35.5723 259.729H41.3008V257.801H35.5723V259.729ZM55.6289 255.395V256.625H45.416V255.395H49.7773V253.905H51.2812V255.395H55.6289ZM44.9102 264.774V263.543H49.7773V262.026C47.6445 261.862 46.3525 261 46.3594 259.633C46.3525 258.143 47.9521 257.254 50.5293 257.254C53.0723 257.254 54.6924 258.143 54.6855 259.633C54.6924 260.994 53.3867 261.855 51.2812 262.026V263.543H56.2031V264.774H44.9102ZM47.918 259.633C47.9111 260.426 48.8477 260.83 50.5293 260.836C52.1768 260.83 53.127 260.426 53.127 259.633C53.127 258.854 52.1768 258.451 50.5293 258.444C48.8477 258.451 47.9111 258.854 47.918 259.633Z" fill="#616161"/>
<path d="M390.844 236.78V237.764H393.332V235.754H394.85V244.75H393.332V241.633H390.844V242.7H385.033V236.78H390.844ZM386.551 241.51H389.34V237.983H386.551V241.51ZM386.701 247.854V243.916H388.246V246.623H395.123V247.854H386.701ZM390.844 240.416H393.332V239.008H390.844V240.416ZM406.949 243.629V248.1H405.432V244.832H398.527V243.629H406.949ZM396.764 239.418C396.764 237.668 398.165 236.411 400.031 236.424C401.05 236.417 401.938 236.8 402.52 237.45H405.432V235.741H406.949V243.041H405.432V241.401H402.533C401.945 242.057 401.057 242.454 400.031 242.454C398.165 242.454 396.764 241.196 396.764 239.418ZM398.213 239.418C398.213 240.492 398.972 241.162 400.031 241.168C401.043 241.162 401.815 240.492 401.822 239.418C401.815 238.386 401.043 237.703 400.031 237.709C398.972 237.703 398.213 238.386 398.213 239.418ZM403.176 240.17H405.432V238.694H403.183C403.237 238.926 403.271 239.165 403.271 239.418C403.271 239.678 403.237 239.931 403.176 240.17ZM416.697 238.707C416.684 240.977 417.88 243.247 419.883 244.108L418.98 245.325C417.559 244.668 416.52 243.363 415.945 241.749C415.378 243.486 414.312 244.908 412.814 245.612L411.885 244.34C413.942 243.452 415.146 241.093 415.152 238.707V236.739H416.697V238.707ZM420.771 248.114V235.741H422.303V248.114H420.771ZM430.506 237.436C430.506 239.343 432.372 241.264 434.963 241.715L434.279 242.987C432.208 242.556 430.513 241.298 429.706 239.637C428.893 241.285 427.197 242.549 425.133 242.987L424.463 241.715C427.013 241.25 428.886 239.336 428.893 237.436V236.52H430.506V237.436ZM424.121 246.528V245.27H435.414V246.528H424.121ZM441.443 236.506V237.737H438.203V238.899H440.979V240.075H438.203V241.346C439.68 241.332 440.705 241.271 441.908 241.059L442.072 242.248C440.644 242.508 439.468 242.563 437.561 242.563H436.74V236.506H441.443ZM438.449 247.95V243.657H446.789V247.95H438.449ZM439.967 246.719H445.285V244.86H439.967V246.719ZM441.512 239.993V238.762H442.906V235.946H444.355V243.041H442.906V239.993H441.512ZM445.34 243.137V235.741H446.789V243.137H445.34ZM394.248 253.741V256.748H395.971V257.993H394.248V260.987H392.73V253.741H394.248ZM384.459 259.948C387.255 259.182 388.923 257.671 389.183 255.819H385.02V254.588H390.83C390.837 257.835 388.718 260.146 385.061 261.178L384.459 259.948ZM386.127 263.612C386.113 262.087 387.768 261.137 390.256 261.137C392.765 261.137 394.385 262.087 394.385 263.612C394.385 265.15 392.765 266.093 390.256 266.086C387.768 266.093 386.113 265.15 386.127 263.612ZM387.631 263.612C387.624 264.418 388.622 264.897 390.256 264.897C391.883 264.897 392.888 264.418 392.895 263.612C392.888 262.798 391.883 262.327 390.256 262.327C388.622 262.327 387.624 262.798 387.631 263.612ZM406.375 253.741V258.84H408.111V260.112H406.375V266.1H404.844V253.741H406.375ZM396.449 262.668C397.386 262.668 398.473 262.668 399.607 262.641V261.486C398.261 261.253 397.386 260.413 397.393 259.25C397.386 257.856 398.609 256.933 400.387 256.926C402.144 256.933 403.381 257.856 403.395 259.25C403.381 260.419 402.485 261.26 401.139 261.486V262.586C402.178 262.532 403.217 262.45 404.188 262.313L404.283 263.42C401.631 263.906 398.773 263.926 396.668 263.926L396.449 262.668ZM396.682 256.366V255.163H399.607V253.795H401.139V255.163H404.051V256.366H396.682ZM398.828 259.25C398.821 259.961 399.45 260.378 400.387 260.372C401.31 260.378 401.932 259.961 401.932 259.25C401.932 258.533 401.31 258.095 400.387 258.088C399.45 258.095 398.821 258.533 398.828 259.25ZM419.363 253.741V266.1H417.9V253.741H419.363ZM408.822 259.086C408.822 256.366 409.875 254.677 411.488 254.684C412.985 254.677 414.004 256.079 414.182 258.389H415.371V253.959H416.82V265.498H415.371V259.62H414.195C414.052 262.033 413.02 263.509 411.488 263.502C409.875 263.509 408.822 261.814 408.822 259.086ZM410.23 259.086C410.224 261.021 410.702 262.06 411.488 262.053C412.309 262.06 412.794 261.021 412.801 259.086C412.794 257.159 412.309 256.113 411.488 256.12C410.702 256.113 410.224 257.159 410.23 259.086ZM434.156 259.36V260.563H430.492V263.393H435.414V264.637H424.121V263.393H428.988V260.563H425.488V254.657H434.061V255.873H427.006V259.36H434.156ZM441.84 253.932C444.574 253.939 446.29 254.821 446.297 256.311C446.29 257.774 444.574 258.649 441.84 258.635C439.133 258.649 437.383 257.774 437.383 256.311C437.383 254.821 439.133 253.939 441.84 253.932ZM436.221 260.604V259.387H447.486V260.604H442.592V261.793H446.119V265.95H437.547V261.793H441.088V260.604H436.221ZM438.969 256.311C438.955 257.063 440.035 257.473 441.84 257.473C443.645 257.473 444.725 257.063 444.725 256.311C444.725 255.525 443.645 255.101 441.84 255.108C440.035 255.101 438.955 255.525 438.969 256.311ZM439.051 264.719H444.643V262.997H439.051V264.719Z" fill="#616161"/>
<path d="M385.089 367.688V376.753H383.571V372.597H381.192V371.339H383.571V367.688H385.089ZM374.903 374.237C377.562 373.396 379.319 371.817 379.613 369.862H375.546V368.618H381.274C381.274 371.879 379.121 374.312 375.546 375.454L374.903 374.237ZM377.036 379.788V375.837H378.581V378.558H385.403V379.788H377.036ZM396.587 367.675V370.683H398.31V371.927H396.587V374.921H395.069V367.675H396.587ZM386.798 373.882C389.594 373.116 391.262 371.605 391.521 369.753H387.358V368.522H393.169C393.176 371.77 391.057 374.08 387.399 375.112L386.798 373.882ZM388.466 377.546C388.452 376.021 390.106 375.071 392.595 375.071C395.104 375.071 396.724 376.021 396.724 377.546C396.724 379.084 395.104 380.027 392.595 380.02C390.106 380.027 388.452 379.084 388.466 377.546ZM389.97 377.546C389.963 378.353 390.961 378.831 392.595 378.831C394.222 378.831 395.227 378.353 395.233 377.546C395.227 376.732 394.222 376.261 392.595 376.261C390.961 376.261 389.963 376.732 389.97 377.546ZM408.687 367.688V371.571H410.409V372.829H408.687V376.917H407.169V367.688H408.687ZM398.952 370.272V369.056H401.864V367.675H403.382V369.056H406.28V370.272H398.952ZM399.581 373.144C399.581 371.722 400.818 370.778 402.616 370.778C404.4 370.778 405.631 371.722 405.638 373.144C405.631 374.559 404.4 375.481 402.616 375.481C400.818 375.481 399.581 374.559 399.581 373.144ZM400.771 379.788V376.192H402.288V378.558H409.179V379.788H400.771ZM401.058 373.144C401.051 373.889 401.68 374.312 402.616 374.306C403.553 374.312 404.188 373.889 404.188 373.144C404.188 372.392 403.553 371.954 402.616 371.954C401.68 371.954 401.051 372.392 401.058 373.144ZM418.134 371.448C418.134 373.362 418.92 375.29 420.649 376.22L419.802 377.341C418.653 376.732 417.874 375.645 417.43 374.347C416.992 375.748 416.213 376.951 415.058 377.628L414.169 376.479C415.919 375.468 416.691 373.403 416.698 371.448V371.065H414.593V369.835H416.698V368.112H418.134V369.835H420.198V371.065H418.134V371.448ZM419.433 373.677V372.419H421.046V367.907H422.481V379.433H421.046V373.677H419.433ZM423.548 380.034V367.675H424.997V380.034H423.548ZM437.726 373.349V374.579H432.831V375.618C435.039 375.762 436.352 376.527 436.358 377.806C436.352 379.228 434.738 380.02 432.079 380.02C429.379 380.02 427.772 379.228 427.772 377.806C427.772 376.527 429.085 375.755 431.327 375.611V374.579H426.46V373.349H437.726ZM427.007 371.585C429.276 371.373 430.76 370.45 431.013 369.438H427.485V368.222H436.714V369.438H433.152C433.398 370.457 434.868 371.373 437.192 371.585L436.659 372.788C434.41 372.556 432.749 371.66 432.079 370.409C431.409 371.66 429.769 372.556 427.526 372.788L427.007 371.585ZM429.317 377.806C429.311 378.489 430.281 378.865 432.079 378.858C433.85 378.865 434.827 378.489 434.841 377.806C434.827 377.122 433.85 376.76 432.079 376.753C430.281 376.76 429.311 377.122 429.317 377.806ZM453.161 374.606V375.837H450.413V380.034H448.868V375.837H446.134V380.034H444.575V375.837H441.868V374.606H453.161ZM443.058 370.874C443.051 369.192 444.855 368.119 447.487 368.112C450.119 368.119 451.938 369.192 451.944 370.874C451.938 372.535 450.119 373.581 447.487 373.581C444.855 373.581 443.051 372.535 443.058 370.874ZM444.616 370.874C444.609 371.817 445.744 372.371 447.487 372.378C449.237 372.371 450.372 371.817 450.372 370.874C450.372 369.903 449.237 369.343 447.487 369.343C445.744 369.343 444.609 369.903 444.616 370.874ZM458.644 371.188C458.644 373.212 459.833 375.345 461.829 376.179L460.995 377.382C459.532 376.746 458.466 375.454 457.898 373.882C457.331 375.577 456.244 376.999 454.802 377.683L453.927 376.493C455.875 375.591 457.092 373.287 457.099 371.188V370.149H454.378V368.892H461.351V370.149H458.644V371.188ZM462.731 380.034V367.675H464.263V380.034H462.731Z" fill="#616161"/>
<path d="M294.481 360.215C296.546 365.062 296.939 369.922 294.076 374.559C292.312 377.42 289.998 379.811 286.522 380.752C285.005 381.156 283.646 381.731 282.404 382.607C289.815 364.866 274.602 361.038 274.602 361.038C280.993 338.49 280.405 308.823 280.248 303.793H280.3C280.3 304.891 280.836 305.766 281.542 306.628C290.194 317.484 294.141 329.947 294.141 343.99C293.841 347.413 294.429 351.123 293.057 354.703C292.259 356.767 293.723 358.439 294.481 360.215Z" fill="#CEAE8D"/>
<path d="M280.246 303.794C280.403 308.823 280.991 338.491 274.6 361.039C274.6 361.039 289.814 364.866 282.403 382.607C281.658 383.143 280.965 383.77 280.298 384.54C277.292 388.041 273.319 389.896 268.496 389.622C265.673 389.465 262.837 389.413 260.027 389.635C253.034 390.171 245.179 383.783 245.166 376.323C246.969 361.13 243.741 372.443 241.049 372.77C234.226 373.606 227.403 373.554 220.594 372.705C218.15 372.404 215.327 357.159 216.072 375.513C215.719 382.947 211.236 388.877 203.746 389.452C199.655 389.779 195.499 389.714 191.382 389.505C187.696 389.322 184.35 387.95 181.998 384.958C181.318 384.096 180.56 383.378 179.736 382.777C172.143 364.893 187.474 361.039 187.474 361.039C180.834 337.642 181.723 306.576 181.841 303.323C181.854 303.14 181.854 303.049 181.854 303.049C181.762 293.578 183.448 284.303 185.409 275.106C186.441 270.259 188.31 265.582 189.983 260.892C190.781 258.659 191.696 258.371 193.486 260.605C197.499 265.569 202.753 268.313 209.38 267.895C212.49 267.712 214.974 266.836 216.986 264.407C217.627 264.028 227.926 258.149 230.436 258.149C232.945 258.149 245.1 264.42 245.1 264.42L245.14 264.394C245.427 264.707 245.702 265.021 245.963 265.334C248.708 268.613 252.956 268.561 256.864 267.803C261.451 266.902 265.294 264.563 268.365 260.945C270.457 258.476 271.162 258.58 272.286 261.428C275.985 270.756 278.142 280.462 279.187 290.429C279.658 294.845 280.429 299.247 280.298 303.715V303.794H280.246Z" fill="#E8C59A"/>
<path d="M245.153 221.179C250.564 224.379 251.806 230.31 249.022 236.189C246.33 241.911 241.35 244.811 236.057 247.384C234.645 248.077 233.116 248.43 233.246 250.402C233.377 252.584 232.854 254.831 235.403 256.359C239.037 258.541 242.291 261.18 245.14 264.393L245.101 264.419C245.101 264.419 233.011 258.149 230.436 258.149C227.862 258.149 217.628 264.028 216.987 264.406C217.196 264.158 217.405 263.884 217.615 263.583C219.706 260.566 222.908 258.436 226.189 256.725C228.842 255.353 229.012 253.159 228.999 250.716C228.973 248.534 227.365 248.051 225.757 247.228C220.934 244.759 215.902 242.368 213.537 237.038C210.53 230.284 209.851 225.255 218.007 220.643C227.143 215.496 236.266 215.914 245.153 221.179Z" fill="#593C27"/>
<path d="M181.842 303.323C181.724 306.576 180.835 337.641 187.475 361.039C187.475 361.039 172.143 364.892 179.737 382.777C178.613 381.927 177.345 381.313 175.947 380.843C165.948 377.486 163.765 366.852 167.948 359.732C169.49 357.119 169.177 354.389 168.549 351.816C166.746 344.382 168.053 337.132 169.386 329.882C170.941 321.39 174.927 313.97 180.103 307.151C180.979 305.975 181.776 304.799 181.842 303.323Z" fill="#CEAE8D"/>
<path d="M251.742 316.387C251.742 310.299 251.912 305.949 251.703 301.612C251.193 291.096 242.92 282.983 232.869 282.212C220.034 281.22 210.937 290.403 210.035 303.18C209.695 307.935 210.205 312.716 210.466 317.484C211.224 331.763 212.244 346.029 213.904 360.229C214.217 362.92 215.603 364.409 218.165 365.324C225.118 367.832 232.202 367.662 239.325 366.695C245.102 365.911 247.847 363.821 248.174 359.68C249.337 344.67 252.082 329.777 251.755 316.387H251.742Z" fill="#ECE1CA"/>
<path d="M294.481 360.215C296.546 365.062 296.939 369.922 294.076 374.559C292.312 377.42 289.998 379.811 286.522 380.752C285.005 381.156 283.646 381.731 282.404 382.607C289.815 364.866 274.602 361.038 274.602 361.038C280.993 338.49 280.405 308.823 280.248 303.793H280.3C280.3 304.891 280.836 305.766 281.542 306.628C290.194 317.484 294.141 329.947 294.141 343.99C293.841 347.413 294.429 351.123 293.057 354.703C292.259 356.767 293.723 358.439 294.481 360.215Z" fill="#CEAE8D"/>
<path d="M280.246 303.793C280.403 308.823 280.991 338.491 274.6 361.039C274.6 361.039 289.814 364.866 282.403 382.607C281.658 383.142 280.965 383.769 280.298 384.54C277.292 388.041 273.319 389.896 268.496 389.622C265.673 389.465 262.837 389.413 260.027 389.635C253.034 390.171 245.179 383.782 245.166 376.323C246.969 361.13 243.741 372.443 241.049 372.77C234.226 373.606 227.403 373.554 220.594 372.704C218.15 372.404 215.327 357.159 216.072 375.513C215.719 382.946 211.236 388.877 203.746 389.452C199.655 389.779 195.499 389.713 191.382 389.504C187.696 389.321 184.35 387.95 181.998 384.958C181.318 384.096 180.56 383.377 179.736 382.777C172.143 364.892 187.474 361.039 187.474 361.039C180.834 337.642 181.723 306.576 181.841 303.323C181.854 303.14 181.854 303.049 181.854 303.049C181.762 293.578 183.448 284.302 185.409 275.106C186.441 270.259 188.31 265.582 189.983 260.892C190.781 258.658 191.696 258.371 193.486 260.605C197.499 265.569 202.753 268.312 209.38 267.894C212.817 267.685 215.496 266.64 217.614 263.583C219.705 260.566 222.907 258.436 226.188 256.725C228.841 255.353 229.011 253.159 228.998 250.716C228.972 248.534 227.364 248.051 225.757 247.228C220.934 244.759 215.902 242.368 213.536 237.038C210.53 230.284 209.85 225.255 218.006 220.643C227.142 215.496 236.265 215.914 245.153 221.179C250.564 224.379 251.805 230.31 249.021 236.189C246.329 241.911 241.349 244.811 236.056 247.384C234.644 248.077 233.115 248.43 233.246 250.402C233.376 252.584 232.854 254.831 235.402 256.359C239.389 258.75 242.918 261.689 245.963 265.334C248.708 268.613 252.956 268.561 256.864 267.803C261.451 266.902 265.294 264.563 268.365 260.945C270.457 258.476 271.162 258.58 272.286 261.428C275.985 270.755 278.142 280.462 279.187 290.429C279.658 294.845 280.429 299.247 280.298 303.715V303.793H280.246Z" fill="#E8C59A"/>
<path d="M181.842 303.323C181.724 306.576 180.835 337.641 187.475 361.039C187.475 361.039 172.143 364.892 179.737 382.777C178.613 381.927 177.345 381.313 175.947 380.843C165.948 377.486 163.765 366.852 167.948 359.732C169.49 357.119 169.177 354.389 168.549 351.816C166.746 344.382 168.053 337.132 169.386 329.882C170.941 321.39 174.927 313.97 180.103 307.151C180.979 305.975 181.776 304.799 181.842 303.323Z" fill="#CEAE8D"/>
<path d="M187.501 244.001C187.501 244.001 189.475 257.679 193.043 261.245C196.611 264.811 203.068 275.968 203.068 275.968L262.969 278.581L270.366 260.095C270.366 260.095 274.706 255.484 275.307 246.365C275.908 237.247 278.404 227.789 278.404 227.789L268.314 182.732L249.885 138.551L208.793 137.31L189.122 156.357L180.783 201.034L187.514 244.001H187.501Z" fill="#F4EFE5"/>
<path d="M325.497 197.951C333.444 208.872 331.47 216.815 324.844 227.344C320.844 233.706 314.727 237.665 308.48 241.388C303.644 244.262 299.723 248.063 296.259 252.374C293.24 256.11 289.554 258.266 284.692 257.43C279.555 256.542 276.706 253.276 275.347 248.246C273.987 243.177 272.981 238.083 272.654 232.87C272.654 232.831 272.654 232.792 272.68 232.74C274.027 225.032 277.15 217.507 280.274 210.401C282.954 204.313 285.568 198.539 286.822 191.955C288.156 184.926 288.312 178.904 288.273 172.359C288.156 152.92 274.497 140.105 274.497 140.105C276.288 140.275 278.196 140.105 280.326 139.817C289.632 138.603 297.501 142.378 303.134 150.164C306.95 155.442 308.48 161.725 310.767 167.656C314.806 178.199 318.779 188.715 325.497 197.951Z" fill="#593C27"/>
<path d="M288.273 172.359C288.313 178.904 288.156 184.927 286.823 191.955C285.568 198.539 282.954 204.313 280.274 210.401C277.151 217.508 274.027 225.032 272.681 232.74C272.668 232.792 272.668 232.831 272.655 232.87C271.792 219.101 264.512 209.473 253.167 202.497C248.749 199.78 244.083 197.572 241.155 192.883C236.816 185.907 238.829 178.944 240.502 171.837C241.717 166.651 243.887 161.817 245.717 156.853C248.553 149.08 243.534 141.947 235.261 141.725C233.849 141.686 232.438 141.725 230.32 141.725C228.216 141.843 225.354 141.346 222.635 142.404C216.806 144.677 213.943 150.831 216.309 156.84C218.557 162.601 220.831 168.362 222.282 174.371C224.347 182.954 224.53 191.276 216.871 197.585C214.714 199.362 212.257 200.825 209.774 202.132C200.298 207.135 193.894 214.843 190.744 224.928C190.456 225.855 190.208 226.809 190.012 227.763C191.057 220.956 183.372 212.974 180.235 207.579C173.099 195.404 172.759 179.78 173.687 166.024C174.785 149.603 186.966 140.105 186.966 140.105L186.927 139.87C190.325 139.348 193.332 137.95 196.521 135.899C203.226 131.614 210.741 129.85 218.779 130.007C223.315 130.098 227.902 129.014 232.411 129.328C244.606 130.164 257.441 128.975 267.819 137.323C270.067 139.125 272.197 139.896 274.497 140.105C274.497 140.105 288.156 152.921 288.273 172.359ZM264.826 188.728C265.714 188.728 266.067 188.023 266.133 187.174C265.688 186.089 264.969 185.384 263.701 185.541C262.996 185.632 262.421 186.089 262.591 186.821C262.839 187.944 263.636 188.715 264.826 188.728ZM199.435 186.873C199.566 186.102 199.004 185.645 198.272 185.658C197.187 185.671 196.351 186.155 196.246 187.317C196.194 187.997 196.612 188.532 197.475 188.611C198.481 188.506 199.239 187.918 199.435 186.873Z" fill="#E8C59A"/>
<path d="M180.235 207.579C183.372 212.974 191.057 220.956 190.011 227.762C190.011 227.789 189.998 227.802 189.998 227.828C189.175 231.682 188.953 235.718 188.548 239.65C188.155 243.583 187.45 247.41 185.79 250.95C181.96 259.076 171.648 260.095 166.367 252.884C161.963 246.875 156.042 242.799 149.834 238.984C141.626 233.942 135.561 226.939 132.476 217.782C130.477 211.864 131 205.593 134.751 200.616C141.965 191.027 146.475 180.198 150.722 169.159C152.487 164.613 154.068 160.001 155.846 155.468C159.61 145.866 169.988 138.237 180.104 139.805C182.614 140.196 184.849 140.196 186.927 139.87L186.966 140.105C186.966 140.105 174.785 149.602 173.687 166.023C172.759 179.779 173.099 195.404 180.235 207.579Z" fill="#593C27"/>
<path d="M198.587 193.496C201.85 193.496 204.495 190.853 204.495 187.591C204.495 184.33 201.85 181.687 198.587 181.687C195.325 181.687 192.68 184.33 192.68 187.591C192.68 190.853 195.325 193.496 198.587 193.496Z" fill="#593C27"/>
<path d="M262.552 193.496C265.815 193.496 268.46 190.853 268.46 187.591C268.46 184.33 265.815 181.687 262.552 181.687C259.29 181.687 256.645 184.33 256.645 187.591C256.645 190.853 259.29 193.496 262.552 193.496Z" fill="#593C27"/>
<path d="M294.481 360.215C296.546 365.062 296.939 369.922 294.076 374.559C292.312 377.42 289.998 379.811 286.522 380.752C285.005 381.156 283.646 381.731 282.404 382.607C289.815 364.866 274.602 361.038 274.602 361.038C280.993 338.49 280.405 308.823 280.248 303.793H280.3C280.3 304.891 280.836 305.766 281.542 306.628C290.194 317.484 294.141 329.947 294.141 343.99C293.841 347.413 294.429 351.123 293.057 354.703C292.259 356.767 293.723 358.439 294.481 360.215Z" fill="#CEAE8D"/>
<path d="M280.246 303.794C280.403 308.823 280.991 338.491 274.6 361.039C274.6 361.039 289.814 364.866 282.403 382.607C281.658 383.143 280.965 383.77 280.298 384.54C277.292 388.041 273.319 376.833 268.496 376.558C265.673 376.402 262.837 376.349 260.027 376.571C253.139 377.094 245.074 335.891 245.166 363.26C245.153 360.386 243.741 359.38 241.049 359.706C234.226 360.542 227.403 347.426 220.594 346.577C218.15 346.277 217.065 347.126 216.947 349.739C216.581 357.185 211.236 362.75 203.746 363.325C199.655 363.651 195.499 363.586 191.382 363.377C187.696 363.194 184.35 387.95 181.998 384.958C181.318 384.096 180.56 383.378 179.736 382.777C172.143 364.893 187.474 361.039 187.474 361.039C180.834 337.642 181.723 306.576 181.841 303.323C181.854 303.14 181.854 303.049 181.854 303.049C181.762 293.578 183.448 284.303 185.409 275.106C186.441 270.259 188.31 265.582 189.983 260.892C190.781 258.659 191.696 258.371 193.486 260.605C197.499 265.569 202.753 268.313 209.38 267.895C212.817 267.686 215.496 266.641 217.614 263.584C218.816 261.846 220.385 260.409 222.136 259.168H222.149C222.463 259.116 227.926 258.149 230.436 258.149H238.134C241.023 260.174 243.637 262.552 245.963 265.334C248.708 268.613 252.956 268.561 256.864 267.803C261.451 266.902 265.294 264.563 268.365 260.945C270.457 258.476 271.162 258.58 272.286 261.428C275.985 270.756 278.142 280.462 279.187 290.429C279.658 294.845 280.429 299.247 280.298 303.715V303.794H280.246Z" fill="#E8C59A"/>
<path d="M245.153 221.179C250.564 224.379 251.806 230.31 249.022 236.189C246.33 241.911 241.35 244.811 236.057 247.384C234.645 248.077 233.116 248.43 233.246 250.402C233.377 252.584 232.854 254.831 235.403 256.359C236.344 256.921 237.246 257.509 238.135 258.149H230.436C227.927 258.149 222.464 259.116 222.15 259.168C223.431 258.253 224.803 257.443 226.189 256.725C228.842 255.353 229.012 253.159 228.999 250.716C228.973 248.534 227.365 248.051 225.757 247.228C220.934 244.759 215.902 242.368 213.537 237.038C210.53 230.284 209.851 225.255 218.007 220.643C227.143 215.496 236.266 215.914 245.153 221.179Z" fill="#593C27"/>
<path d="M181.842 303.323C181.724 306.576 180.835 337.641 187.475 361.039C187.475 361.039 172.143 364.892 179.737 382.777C178.613 381.927 177.345 381.313 175.947 380.843C165.948 377.486 163.765 366.852 167.948 359.732C169.49 357.119 169.177 354.389 168.549 351.816C166.746 344.382 168.053 337.132 169.386 329.882C170.941 321.39 174.927 313.97 180.103 307.151C180.979 305.975 181.776 304.799 181.842 303.323Z" fill="#CEAE8D"/>
<path d="M251.742 320.698C251.742 313.839 251.912 308.941 251.703 304.068C251.193 292.219 242.92 283.088 232.869 282.212C220.034 281.102 210.937 291.435 210.035 305.818C209.695 311.174 210.205 316.557 210.466 321.926C211.224 338.007 213.289 351.972 214.936 367.975C215.25 371.006 216.635 372.678 219.197 373.723C226.15 376.545 230.895 376.362 238.018 375.265C243.795 374.377 245.638 372.025 245.952 367.361C248.853 352.234 252.069 335.787 251.742 320.711V320.698Z" fill="#F4EFE5"/>
<path d="M233.21 254.23C232.975 254.661 235.38 255.771 235.55 255.837C239.262 257.404 244.045 258.162 248.058 257.613C249.835 257.365 251.561 256.777 253.142 255.954C253.351 255.85 255.129 255.014 255.116 254.726C255.116 254.726 255.259 257.522 246.751 259.273C238.242 261.023 231.027 258.136 231.027 258.136L233.21 254.23Z" fill="#593C27"/>
<path d="M228.544 254.23C228.78 254.661 226.375 255.771 226.205 255.837C222.493 257.404 217.709 258.162 213.697 257.613C211.919 257.365 210.194 256.777 208.612 255.954C208.403 255.85 206.626 255.014 206.639 254.726C206.639 254.726 206.495 257.522 215.004 259.272C223.512 261.023 230.727 258.136 230.727 258.136L228.544 254.23Z" fill="#593C27"/>
<path d="M238.138 231.081C239.415 231.081 240.451 230.046 240.451 228.769C240.451 227.491 239.415 226.456 238.138 226.456C236.86 226.456 235.824 227.491 235.824 228.769C235.824 230.046 236.86 231.081 238.138 231.081Z" fill="white"/>
<path d="M264.46 188.206C265.412 188.206 266.185 187.434 266.185 186.481C266.185 185.529 265.412 184.757 264.46 184.757C263.507 184.757 262.734 185.529 262.734 186.481C262.734 187.434 263.507 188.206 264.46 188.206Z" fill="white"/>
<path d="M200.311 188.206C201.264 188.206 202.036 187.434 202.036 186.481C202.036 185.529 201.264 184.757 200.311 184.757C199.358 184.757 198.586 185.529 198.586 186.481C198.586 187.434 199.358 188.206 200.311 188.206Z" fill="white"/>
<path d="M162.682 294.126L159.675 292.558C159.623 290.834 159.192 289.214 158.434 287.777L161.388 283.818C161.453 283.178 160.996 282.617 160.368 282.538L155.859 284.537C154.487 283.348 152.827 282.499 150.984 282.107L149.794 277.561C149.337 277.104 148.605 277.104 148.161 277.561L146.997 282.016C145.102 282.316 143.364 283.087 141.913 284.223L138.881 282.381C138.24 282.381 137.718 282.878 137.705 283.518L139.547 286.758C138.907 287.724 138.423 288.783 138.11 289.932L132.646 291.108C132.15 291.539 132.084 292.258 132.49 292.728L137.822 294.322C138.044 295.942 138.606 297.457 139.456 298.763L137.09 301.755C136.999 302.382 137.443 302.97 138.084 303.061L141.926 301.468C143.076 302.369 144.41 303.035 145.86 303.427L146.684 307.02C147.128 307.516 147.847 307.568 148.304 307.15L149.272 303.78C151.154 303.688 152.918 303.114 154.434 302.186L158.878 304.72C159.519 304.72 160.028 304.185 160.028 303.558L157.519 299.377C158.316 298.306 158.917 297.091 159.296 295.772L162.329 295.68C162.865 295.341 163.035 294.622 162.695 294.087L162.682 294.126Z" fill="#5FAFFE"/>
<path d="M323.957 239.323L320.951 237.756C320.899 236.031 320.467 234.412 319.709 232.975L322.663 229.016C322.728 228.376 322.271 227.814 321.644 227.736L317.134 229.735C315.762 228.546 314.102 227.697 312.259 227.305L311.07 222.759C310.612 222.301 309.88 222.301 309.436 222.759L308.273 227.213C306.378 227.514 304.639 228.285 303.189 229.421L300.156 227.579C299.516 227.579 298.993 228.076 298.98 228.716L300.823 231.956C300.182 232.922 299.699 233.98 299.385 235.13L293.922 236.306C293.425 236.737 293.36 237.455 293.765 237.926L299.098 239.519C299.32 241.139 299.882 242.655 300.731 243.961L298.366 246.953C298.274 247.58 298.718 248.168 299.359 248.259L303.202 246.665C304.352 247.567 305.685 248.233 307.136 248.625L307.959 252.217C308.404 252.714 309.122 252.766 309.58 252.348L310.547 248.978C312.429 248.886 314.194 248.311 315.71 247.384L320.154 249.918C320.794 249.918 321.304 249.383 321.304 248.755L318.794 244.575C319.592 243.504 320.193 242.289 320.572 240.97L323.604 240.878C324.14 240.538 324.31 239.82 323.97 239.284L323.957 239.323Z" fill="#5FAFFE"/>
<path opacity="0.4" d="M171.78 277.064L170.878 276.594C170.865 276.072 170.734 275.588 170.512 275.157L171.401 273.968C171.427 273.772 171.283 273.603 171.1 273.59L169.754 274.19C169.349 273.838 168.839 273.576 168.29 273.459L167.937 272.087C167.806 271.957 167.584 271.957 167.44 272.087L167.087 273.42C166.512 273.511 166.003 273.746 165.558 274.086L164.643 273.537C164.447 273.537 164.29 273.681 164.29 273.877L164.839 274.857C164.643 275.144 164.499 275.471 164.408 275.81L162.761 276.163C162.617 276.294 162.591 276.516 162.709 276.646L164.303 277.13C164.369 277.613 164.539 278.07 164.8 278.462L164.094 279.364C164.068 279.56 164.199 279.729 164.395 279.756L165.545 279.272C165.885 279.547 166.29 279.742 166.721 279.86L166.97 280.944C167.1 281.088 167.323 281.114 167.453 280.984L167.741 279.978C168.303 279.952 168.839 279.782 169.283 279.494L170.616 280.252C170.812 280.252 170.956 280.095 170.956 279.899L170.211 278.645C170.446 278.319 170.629 277.966 170.747 277.561L171.662 277.535C171.819 277.43 171.871 277.221 171.766 277.051L171.78 277.064Z" fill="#5FAFFE"/>
<g clip-path="url(#clip5_65_5608)">
<path fill-rule="evenodd" clip-rule="evenodd" d="M431.95 195.462C431.95 203.918 425.56 211.834 416.98 213.753C408.39 211.834 402 203.918 402 195.462V188.815C402 188.076 402.22 187.356 402.64 186.736C403.05 186.127 403.64 185.647 404.33 185.367L413.68 181.549C415.79 180.689 418.15 180.689 420.26 181.549L429.62 185.357C431.03 185.927 431.95 187.296 431.95 188.805V195.452V195.462Z" fill="#5FAFFE"/>
<path d="M422.96 193.843L416.1 199.81L411.98 196.231" stroke="white" stroke-width="3" stroke-linecap="round" stroke-linejoin="round"/>
</g>
<g clip-path="url(#clip6_65_5608)">
<path d="M52.3404 208.176C52.3404 208.176 45.7578 217.816 37.2944 188.952L34.0469 190.428C34.0469 190.428 40.6404 210.69 46.4139 212.023C50.5472 213.269 53.6526 211.116 53.6526 211.116L52.3514 208.165L52.3404 208.176Z" fill="#C4CACE"/>
<path d="M50.0888 185.182C50.0888 185.182 46.535 184.919 44.8183 189.247C43.9217 190.591 44.4903 196.012 44.4903 196.012C44.4903 196.012 46.1633 197.684 47.6504 195.881C46.4148 187.346 51.1604 188.22 51.1604 188.22L50.0997 185.182H50.0888Z" fill="#C4CACE"/>
<path d="M55.7185 198.044L55.0515 196.361C52.788 192.394 49.0593 190.93 43.4499 191.684C42.8485 183.105 48.3267 184.034 48.3267 184.034L47.3207 180.7C47.3207 180.7 45.8664 180.853 44.1716 181.815C43.9091 181.181 43.6686 180.099 44.9589 177.651L43.4717 177.422C43.4717 177.422 41.4379 180.711 42.6626 182.875C42.6189 182.908 42.5751 182.952 42.5423 182.984C41.6238 183.017 40.5085 182.263 41.8206 178.23L40.2898 178.143C40.2898 178.143 38.3106 184.001 40.596 184.219C40.9459 184.307 41.1646 184.241 41.1646 184.307C40.257 184.886 38.3434 185.662 38.6496 180.066L37.2609 180.23C37.2609 180.23 35.9488 184.733 38.5621 186.176C39.2073 186.591 39.7103 186.667 40.1039 186.613C39.7321 188.143 39.7868 190.208 40.1258 192.536C35.9597 194.318 31.3672 197.782 33.565 205.913C35.577 213.356 43.5592 217.553 49.3983 216.23C54.3735 215.094 57.9601 204.492 55.7185 198.066V198.044Z" fill="#5FAFFE"/>
</g>
<defs>
<clipPath id="clip0_65_5608">
<rect width="32.78" height="31.2544" fill="white" transform="translate(355 48.9751)"/>
</clipPath>
<clipPath id="clip1_65_5608">
<rect width="34.22" height="32.3239" fill="white" transform="translate(214 13.993)"/>
</clipPath>
<clipPath id="clip2_65_5608">
<rect width="35.01" height="28.3159" fill="white" transform="translate(23 314.842)"/>
</clipPath>
<clipPath id="clip3_65_5608">
<rect width="32.78" height="32.7636" fill="white" transform="translate(405 312.843)"/>
</clipPath>
<clipPath id="clip4_65_5608">
<rect width="35.9" height="32.7436" fill="white" transform="translate(73 48.9751)"/>
</clipPath>
<clipPath id="clip5_65_5608">
<rect width="29.95" height="32.8436" fill="white" transform="translate(402 180.909)"/>
</clipPath>
<clipPath id="clip6_65_5608">
<rect width="23.4" height="39.049" fill="white" transform="translate(33 177.411)"/>
</clipPath>
</defs>
</svg>
