<svg width="200" height="133" viewBox="0 0 200 133" fill="none" xmlns="http://www.w3.org/2000/svg">
<g clip-path="url(#clip0_65_5328)">
<path d="M99.9418 116.529C126.645 116.529 148.293 95.0488 148.293 68.5516C148.293 42.0544 126.645 20.5742 99.9418 20.5742C73.2383 20.5742 51.5907 42.0544 51.5907 68.5516C51.5907 95.0488 73.2382 116.529 99.9418 116.529Z" stroke="#E1E4E5" stroke-width="2.44444" stroke-linecap="round" stroke-linejoin="bevel" stroke-dasharray="2.36 5.89"/>
<path d="M149.058 61.6042C145.131 61.6042 141.947 64.7144 141.947 68.5511C141.947 72.3878 145.131 75.498 149.058 75.498C152.985 75.498 156.168 72.3878 156.168 68.5511C156.168 64.7144 152.985 61.6042 149.058 61.6042Z" fill="white" stroke="#E1E4E5" stroke-width="2.44444"/>
<path d="M50.8232 61.6042C46.8962 61.6042 43.7127 64.7144 43.7127 68.5511C43.7127 72.3878 46.8962 75.498 50.8232 75.498C54.7501 75.498 57.9336 72.3878 57.9336 68.5511C57.9336 64.7144 54.7501 61.6042 50.8232 61.6042Z" fill="white" stroke="#E1E4E5" stroke-width="2.44444"/>
<path d="M107.876 113.107C108.463 114.116 108.771 115.26 108.771 116.424C108.771 117.588 108.463 118.732 107.876 119.74L106.142 122.721C105.555 123.729 104.711 124.566 103.695 125.148C102.679 125.731 101.526 126.037 100.353 126.037L96.8842 126.037C95.7109 126.037 94.5582 125.731 93.5421 125.148C92.526 124.566 91.6821 123.729 91.0955 122.721L89.3611 119.74C88.7745 118.732 88.4656 117.588 88.4656 116.424C88.4656 115.26 88.7745 114.116 89.3611 113.107L91.0955 110.127C91.6821 109.119 92.526 108.281 93.5421 107.699C94.5582 107.117 95.7109 106.811 96.8842 106.811L100.353 106.811C101.526 106.811 102.679 107.117 103.695 107.699C104.711 108.281 105.555 109.119 106.142 110.127L107.876 113.107Z" fill="#097EEA"/>
<path d="M101.94 114.601L97.8674 118.631L95.4238 116.213" stroke="white" stroke-width="1.87778" stroke-linecap="round" stroke-linejoin="round"/>
<path d="M107.874 16.4854C108.461 17.4937 108.77 18.6374 108.77 19.8017C108.77 20.9659 108.461 22.1097 107.874 23.118L106.14 26.0986C105.553 27.1069 104.709 27.9442 103.693 28.5263C102.677 29.1084 101.524 29.4149 100.351 29.4149L96.8823 29.4149C95.7089 29.4149 94.5563 29.1084 93.5401 28.5263C92.524 27.9442 91.6802 27.1069 91.0935 26.0986L89.3592 23.118C88.7725 22.1097 88.4637 20.9659 88.4637 19.8017C88.4637 18.6374 88.7725 17.4937 89.3592 16.4854L91.0935 13.5047C91.6802 12.4965 92.524 11.6592 93.5401 11.0771C94.5563 10.4949 95.7089 10.1885 96.8823 10.1885L100.351 10.1885C101.524 10.1885 102.677 10.4949 103.693 11.0771C104.709 11.6592 105.553 12.4965 106.14 13.5047L107.874 16.4854Z" fill="#097EEA"/>
<path d="M101.94 17.9775L97.8674 22.0077L95.4238 19.5897" stroke="white" stroke-width="1.87778" stroke-linecap="round" stroke-linejoin="round"/>
<path d="M98.8327 80.1028C98.0719 80.5598 97.4966 80.2223 96.7338 80.0207C96.0676 79.8443 95.5777 80.1441 94.9564 80.2592C92.7682 80.6632 92.6435 78.0733 91.0079 77.4203C90.6331 78.4116 90.8119 79.4138 90.7361 80.4379C90.6251 81.936 90.5137 83.4395 90.3092 84.9279C89.9873 87.2681 90.6143 89.7578 89.9982 92.0751C89.7476 93.0163 89.469 94.473 88.6757 95.1257C88.2568 95.4704 86.3363 95.656 86.0128 95.2143C85.6937 94.7793 83.6153 95.1638 82.9967 94.8828C81.4995 94.2013 82.6592 93.3411 83.4629 92.5726C84.2221 91.8463 85.1881 91.447 85.5041 90.3606C85.8424 89.1982 85.9046 87.3258 85.5662 86.1909C85.2564 85.1543 85.715 84.0159 85.5502 82.9348C85.2917 81.2396 84.894 79.8322 85.0716 78.0668C85.2331 76.4621 85.7286 75.1289 85.1381 73.5063C84.7525 72.1907 84.4595 71.1044 84.8435 69.7275C85.4416 67.5813 85.4993 64.924 86.4365 62.9109C86.6217 62.5137 87.2791 62.0298 87.1027 61.6646C86.7836 61.006 86.4669 60.2532 85.9771 59.702C85.2319 58.4297 84.748 56.9361 84.748 55.4541C83.6404 58.111 80.5385 53.922 80.3321 52.5479C80.005 51.571 78.8927 49.8798 79.734 48.909C80.3401 48.2095 81.6077 47.8511 82.4022 47.4403C83.1971 47.0298 84.287 46.653 84.9468 46.0329C85.294 45.7066 85.7514 45.4669 86.2244 45.3967C87.0249 45.2772 87.8968 46.2858 88.387 46.0657C89.7875 45.4352 91.3341 45.4652 92.8354 45.3342C94.0512 45.2279 95.6955 45.2544 96.6527 46.1202C97.2203 45.268 98.0577 45.0135 98.944 45.5198C100.023 46.1359 100.391 46.5756 101.68 46.8294C103.739 47.2358 104.902 48.315 104.737 50.4082C104.581 52.4001 104.543 54.5006 104.048 56.4451C103.891 57.0628 103.433 58.2064 102.798 57.2416C102.121 56.2118 101.236 54.7342 101.18 53.4976C100.977 54.4236 100.855 55.3504 100.709 56.2835C100.632 56.7818 99.6783 59.2655 99.7405 59.3729C100.007 59.8331 99.9196 60.2552 100.456 60.2612C101.178 60.27 101.899 60.3145 102.617 60.3935C103.935 60.5378 105.225 61.1543 106.53 61.2076C108.709 61.2966 110.989 59.2418 112.857 58.2693C115.843 56.7148 119.049 55.4826 122.447 55.3924C123.747 55.3579 125.165 55.4545 126.367 55.9861C126.721 56.142 128.644 56.4947 128.245 56.7577C126.702 57.7743 124.856 57.8966 123.038 58.0312C120.781 58.198 118.505 58.976 116.557 60.1029C114.956 61.028 113.537 62.2539 112.415 63.725C112.407 63.8974 112.855 64.3932 112.942 64.5351C113.425 65.3276 113.858 66.1534 114.218 67.0085C115.121 69.1498 115.326 71.4744 116.221 73.6374C117.213 76.0345 117.089 78.7311 118.177 81.0565C118.852 82.4959 118.424 84.8935 118.438 86.4596C118.448 87.6044 118.448 88.7633 118.582 89.9017C118.672 90.6649 119.013 91.3649 119.052 92.1413C119.151 94.0999 115.549 92.9923 114.511 92.9562C113.027 92.9041 114.91 89.1934 115.015 88.4862C115.191 87.2813 115.064 85.9825 114.867 84.7795C114.687 83.6743 114.137 82.9572 114.232 81.7975C114.322 80.6976 113.691 80.1596 112.864 79.653C111.759 78.9747 110.688 77.9867 110.347 76.6922C108.499 77.5168 105.984 77.734 105.931 80.2378C105.884 82.4317 105.859 84.6444 105.645 86.8299C105.468 88.6465 104.813 91.2801 105.549 92.9898C105.897 93.7931 106.56 95.5168 105.596 96.1437C105.141 96.4696 104.66 96.1384 104.186 96.2771C103.435 96.4968 102.573 96.5425 101.851 96.1986C101.514 96.1717 101.125 96.3284 100.772 96.3152C100.324 96.2992 99.5526 95.7652 99.3117 95.932C98.3428 96.6002 99.2644 93.2643 99.329 93.1156C99.6116 92.4598 99.8946 91.725 99.8946 91.0008C99.7406 90.7586 98.7698 91.0276 98.6655 90.6099C98.2546 90.5514 97.7575 90.6881 97.3363 90.6777C96.8211 90.6656 96.545 90.4191 96.1433 90.3157C94.9274 90.0018 95.8314 88.9576 96.3549 88.4028C96.8396 87.8897 97.325 87.9245 97.8566 87.6039C98.2679 87.3557 98.5882 86.6113 98.8892 86.2494C99.5349 85.2404 99.7811 84.0864 99.9879 82.9227C100.19 81.7851 99.4187 80.9818 98.8326 80.1027L98.8327 80.1028Z" fill="#097EEA"/>
</g>
<defs>
<clipPath id="clip0_65_5328">
<rect width="200" height="133" fill="white"/>
</clipPath>
</defs>
</svg>
