<svg width="303" height="250" viewBox="0 0 303 250" fill="none" xmlns="http://www.w3.org/2000/svg">
<circle cx="62.2676" cy="42.2297" r="19.1953" fill="white"/>
<circle cx="241.424" cy="42.2297" r="19.1953" fill="white"/>
<circle cx="151.846" cy="19.1953" r="19.1953" fill="white"/>
<circle cx="30.2754" cy="211.148" r="19.1953" fill="white"/>
<circle cx="32.834" cy="126.689" r="19.1953" fill="white"/>
<circle cx="270.857" cy="126.689" r="19.1953" fill="white"/>
<circle cx="273.418" cy="211.148" r="19.1953" fill="white"/>
<path d="M60.9336 67.3051V76.1332H59.8496V67.3051H60.9336ZM53.6875 73.6234C55.0938 73.0033 55.9043 71.5189 55.9043 70.1078V69.6488H53.9609V68.7797H55.9043V67.4906H56.9785V68.7797H58.8828V69.6488H56.9883V70.1078C56.9834 71.4506 57.8086 72.891 59.2344 73.4867L58.6387 74.3168C57.6279 73.8871 56.8662 73.0082 56.4609 71.9437C56.0654 73.0717 55.3037 74.014 54.2734 74.4633L53.6875 73.6234ZM69.8594 67.3051V76.1332H68.8145V71.6117H67.877V75.7035H66.8516V67.4613H67.877V70.7133H68.8145V67.3051H69.8594ZM62.5156 73.8578V68.2621H65.9824V73.8578H62.5156ZM63.5312 72.9984H64.9668V69.1215H63.5312V72.9984Z" fill="#616161"/>
<path d="M225.824 67.3051V76.1332H224.73V67.3051H225.824ZM218.432 73.1547C218.773 73.1547 219.14 73.1498 219.525 73.1449V69.0531H218.666V68.1644H223.676V69.0531H222.826V73.0131C223.246 72.9789 223.666 72.9398 224.066 72.891L224.125 73.7015C222.23 74.0092 220.165 74.0433 218.539 74.0433L218.432 73.1547ZM220.57 73.1254C220.961 73.1156 221.361 73.101 221.762 73.0765V69.0531H220.57V73.1254ZM235.15 72.4418V73.3011H231.635V76.1332H230.561V73.3011H227.084V72.4418H235.15ZM228.061 71.5238V67.6566H229.135V68.7406H233.08V67.6566H234.174V71.5238H228.061ZM229.135 70.6449H233.08V69.6H229.135V70.6449ZM245.443 67.3051V71.8558H244.369V67.3051H245.443ZM238.178 71.0648C239.55 70.6595 240.307 69.6635 240.36 68.6234H238.461V67.7445H243.314V68.6234H241.464C241.513 69.6 242.26 70.5277 243.627 70.8988L243.1 71.7386C242.069 71.4408 241.332 70.8158 240.932 70.015C240.531 70.8988 239.765 71.597 238.676 71.9242L238.178 71.0648ZM239.604 73.057V72.2269H245.463V74.5023H240.688V75.2152H245.727V76.0551H239.623V73.7113H244.379V73.057H239.604ZM248.236 67.8422V69.1117H250.209V67.8422H251.283V68.6625H253.061V67.3051H254.145V72.6078H253.061V71.3383H251.283V72.0414H247.152V67.8422H248.236ZM248.158 74.4535C248.148 73.3793 249.296 72.764 251.156 72.764C253.026 72.764 254.169 73.3793 254.174 74.4535C254.169 75.5082 253.026 76.1234 251.156 76.1234C249.296 76.1234 248.148 75.5082 248.158 74.4535ZM248.236 71.1918H250.209V69.9613H248.236V71.1918ZM249.232 74.4535C249.228 74.9906 249.931 75.2836 251.156 75.2836C252.392 75.2836 253.09 74.9906 253.09 74.4535C253.09 73.8871 252.392 73.599 251.156 73.5941C249.931 73.599 249.228 73.8871 249.232 74.4535ZM251.283 70.4594H253.061V69.5219H251.283V70.4594ZM263.451 70.8402V71.6996H255.395V70.8402H263.451ZM256.342 73.1254V72.3051H262.436V74.5219H257.416V75.1957H262.68V76.0453H256.352V73.7406H261.371V73.1254H256.342ZM256.42 70.2738V67.5297H262.416V68.3988H257.504V69.4144H262.494V70.2738H256.42Z" fill="#616161"/>
<path d="M138.686 44.8078V45.5988C138.681 46.424 138.681 47.3273 138.451 48.5773H139.672V49.4562H136.166V53.1086H135.072V49.4562H131.625V48.5773H137.348C137.592 47.3762 137.602 46.4728 137.602 45.6867H132.572V44.8078H138.686ZM147.445 48.7141V49.5832H144.838V51.1945H148.334V52.0637H140.268V51.1945H143.744V49.5832H141.254V44.925H147.367V45.8039H142.357V46.8H147.162V47.6594H142.357V48.7141H147.445ZM151.332 52.3273C149.887 52.3322 148.998 51.4777 148.998 50.3547C148.998 49.5197 149.535 49.0119 150.326 48.465C149.921 47.9621 149.604 47.4445 149.604 46.8195C149.604 45.8137 150.336 45.0715 151.449 45.0715C152.562 45.0715 153.251 45.8088 153.246 46.673C153.251 47.3469 152.899 47.8596 152.309 48.2844L151.859 48.6164L153.153 50.1349C153.339 49.7834 153.451 49.3683 153.451 48.8996H154.525C154.521 49.8713 154.252 50.5598 153.91 51.0187L154.945 52.2297H153.598L153.144 51.7121C152.641 52.1369 151.952 52.3322 151.332 52.3273ZM150.219 50.2961C150.219 50.8576 150.673 51.3068 151.371 51.3117C151.747 51.3117 152.133 51.175 152.465 50.9357L150.995 49.2463L150.883 49.3293C150.404 49.6808 150.219 50.0519 150.219 50.2961ZM150.707 46.8391C150.712 47.1613 150.927 47.4885 151.22 47.8547L151.625 47.5812C151.996 47.342 152.191 47.0881 152.191 46.7316C152.191 46.424 151.918 46.092 151.469 46.0969C151.02 46.092 150.712 46.4533 150.707 46.8391ZM162.65 44.2707V48.7922H161.566V46.5558H159.809V45.6867H161.566V44.2707H162.65ZM155.209 47.9719C156.63 47.5422 157.367 46.4533 157.367 45.2668V44.5637H158.461V45.2668C158.456 46.3557 159.169 47.3859 160.541 47.8058L159.965 48.6457C159.008 48.3283 158.314 47.7033 157.924 46.9025C157.543 47.7961 156.815 48.4992 155.775 48.841L155.209 47.9719ZM156.84 50.0226V49.173H162.65V51.4582H157.914V52.132H162.934V52.9914H156.85V50.6476H161.576V50.0226H156.84ZM167.055 46.3898C167.045 47.967 167.836 49.5588 169.203 50.218L168.539 51.0871C167.582 50.6037 166.894 49.6711 166.518 48.548C166.132 49.7492 165.409 50.7453 164.398 51.2531L163.734 50.384C165.155 49.7101 165.966 48.0207 165.971 46.3898V44.9836H167.055V46.3898ZM169.73 53.0988V44.2707H170.814V47.7277H172.172V48.6555H170.814V53.0988H169.73Z" fill="#616161"/>
<path d="M15.8037 236.985V241.155H11.624V236.985H15.8037ZM12.6299 244.876V242.044H13.7139V243.997H18.6357V244.876H12.6299ZM12.6885 240.296H14.7393V237.854H12.6885V240.296ZM17.2002 242.669V236.224H18.2842V238.812H19.5146V239.72H18.2842V242.669H17.2002ZM23.1963 237.493C23.1914 238.694 23.8945 239.793 25.2764 240.228L24.6904 241.077C23.7285 240.735 23.0547 240.091 22.6787 239.256C22.2881 240.218 21.5508 240.975 20.4814 241.351L19.9053 240.472C21.3652 239.993 22.0977 238.816 22.1025 237.542V236.702H23.1963V237.493ZM21.3701 243.353C21.3604 242.278 22.5078 241.648 24.3682 241.653C26.2383 241.648 27.3809 242.278 27.3857 243.353C27.3809 244.427 26.2383 245.042 24.3682 245.042C22.5078 245.042 21.3604 244.427 21.3701 243.353ZM22.4443 243.353C22.4395 243.89 23.1426 244.188 24.3682 244.192C25.6035 244.188 26.3018 243.89 26.3018 243.353C26.3018 242.796 25.6035 242.498 24.3682 242.493C23.1426 242.498 22.4395 242.796 22.4443 243.353ZM24.5146 238.821V237.933H26.2725V236.224H27.3564V241.419H26.2725V238.821H24.5146ZM33.4307 236.712C34.1436 236.707 34.7637 236.966 35.1836 237.405H37.2881V236.224H38.3721V241.253H37.2881V240.257H35.1787C34.7588 240.691 34.1387 240.955 33.4307 240.95C32.0977 240.955 31.0967 240.066 31.0967 238.831C31.0967 237.581 32.0977 236.707 33.4307 236.712ZM32.1318 238.831C32.1318 239.568 32.6738 240.032 33.4307 240.042C34.1631 240.032 34.7051 239.568 34.71 238.831C34.7051 238.104 34.1631 237.615 33.4307 237.62C32.6738 237.615 32.1318 238.104 32.1318 238.831ZM32.5029 244.944V241.663H38.3721V244.944H32.5029ZM33.5869 244.065H37.3076V242.522H33.5869V244.065ZM35.6719 238.284C35.7207 238.455 35.7451 238.641 35.7451 238.831C35.7451 239.017 35.7207 239.197 35.6768 239.368H37.2881V238.284H35.6719ZM47.6689 240.335V241.214H39.6221V240.335H47.6689ZM40.0127 239.085C41.6484 238.924 42.7129 238.27 42.8789 237.532H40.3545V236.644H46.9463V237.532H44.3975C44.5586 238.26 45.6133 238.924 47.2881 239.085L46.9072 239.944C45.3008 239.778 44.1143 239.139 43.6357 238.245C43.1572 239.139 41.9854 239.778 40.3838 239.944L40.0127 239.085ZM40.5596 243.421C40.5596 242.396 41.7168 241.8 43.6357 241.8C45.54 241.8 46.6875 242.396 46.6924 243.421C46.6875 244.461 45.54 245.042 43.6357 245.042C41.7168 245.042 40.5596 244.461 40.5596 243.421ZM41.6631 243.421C41.6582 243.934 42.3516 244.188 43.6357 244.192C44.9004 244.188 45.5986 243.934 45.6084 243.421C45.5986 242.908 44.9004 242.649 43.6357 242.649C42.3516 242.649 41.6582 242.908 41.6631 243.421Z" fill="#616161"/>
<path d="M22.7012 151.774V156.764H21.6074V151.774H22.7012ZM15.3477 155.729C16.7783 155.275 17.5205 154.128 17.5156 152.965V152.106H18.6387V152.965C18.6338 154.093 19.3857 155.143 20.7676 155.583L20.2402 156.413C19.2197 156.095 18.4873 155.446 18.0869 154.601C17.6914 155.509 16.9443 156.237 15.8848 156.589L15.3477 155.729ZM16.8418 160.485V157.204H22.7012V160.485H16.8418ZM17.916 159.606H21.6367V158.063H17.916V159.606ZM27.1543 153.356C27.1543 154.435 27.8525 155.451 29.2344 155.876L28.7168 156.725C27.7256 156.413 27.0225 155.783 26.6367 154.987C26.2461 155.915 25.5039 156.652 24.4395 157.008L23.8926 156.149C25.3135 155.685 26.0605 154.538 26.0605 153.366V153.258H24.1953V152.38H28.9902V153.258H27.1543V153.356ZM25.0938 158.893C25.0938 157.839 26.2363 157.223 28.082 157.223C29.9131 157.223 31.0361 157.839 31.041 158.893C31.0361 159.958 29.9131 160.583 28.082 160.583C26.2363 160.583 25.0938 159.958 25.0938 158.893ZM26.1777 158.893C26.1777 159.44 26.8711 159.728 28.082 159.733C29.2881 159.728 29.9668 159.44 29.9668 158.893C29.9668 158.356 29.2881 158.073 28.082 158.073C26.8711 158.073 26.1777 158.356 26.1777 158.893ZM29.8691 157.028V151.764H30.9531V153.883H32.1836V154.772H30.9531V157.028H29.8691ZM39.9668 151.764V156.315H38.8926V151.764H39.9668ZM32.7012 155.524C34.0732 155.119 34.8301 154.123 34.8838 153.083H32.9844V152.204H37.8379V153.083H35.9873C36.0361 154.059 36.7832 154.987 38.1504 155.358L37.623 156.198C36.5928 155.9 35.8555 155.275 35.4551 154.474C35.0547 155.358 34.2881 156.056 33.1992 156.383L32.7012 155.524ZM34.127 157.516V156.686H39.9863V158.962H35.2109V159.674H40.25V160.514H34.1465V158.171H38.9023V157.516H34.127ZM48.2676 151.764V154.723H49.459V155.622H48.2676V158.659H47.1836V151.764H48.2676ZM41.1973 156.891C41.8564 156.891 42.623 156.886 43.4238 156.862V156.3C42.4424 156.178 41.8174 155.695 41.8223 154.987C41.8174 154.123 42.6719 153.61 43.9512 153.62C45.2354 153.61 46.0801 154.123 46.0801 154.987C46.0801 155.69 45.4746 156.169 44.5078 156.3V156.808C45.2598 156.764 46.0166 156.696 46.7246 156.589L46.8125 157.35C44.9424 157.702 42.8379 157.726 41.3145 157.741L41.1973 156.891ZM41.4219 153.327V152.536H43.4238V151.735H44.5078V152.536H46.4902V153.327H41.4219ZM42.4668 160.417V158.2H43.5508V159.538H48.5801V160.417H42.4668ZM42.8672 154.987C42.8574 155.368 43.2676 155.592 43.9512 155.592C44.6348 155.592 45.0449 155.368 45.0449 154.987C45.0449 154.572 44.6348 154.347 43.9512 154.352C43.2676 154.347 42.8574 154.572 42.8672 154.987Z" fill="#616161"/>
<path d="M246.561 159.538V160.417H240.418V157.868H241.502V159.538H246.561ZM239.422 157.272V156.393H242.898V155.065H243.973V156.393H247.469V157.272H239.422ZM239.881 154.762C241.692 154.494 242.879 153.434 242.879 152.321V152.008H243.982V152.321C243.982 153.473 245.145 154.513 246.99 154.762L246.561 155.612C245.12 155.373 243.982 154.694 243.426 153.727C242.869 154.689 241.741 155.382 240.311 155.612L239.881 154.762ZM251.189 153.171C251.189 154.279 251.907 155.329 253.27 155.758L252.684 156.608C251.731 156.286 251.048 155.641 250.662 154.821C250.281 155.758 249.568 156.496 248.553 156.852L247.967 156.003C249.388 155.509 250.101 154.333 250.105 153.073V152.233H251.189V153.171ZM249.168 158.903C249.168 157.858 250.315 157.238 252.156 157.243C253.982 157.238 255.11 157.858 255.115 158.903C255.11 159.972 253.982 160.583 252.156 160.583C250.315 160.583 249.168 159.972 249.168 158.903ZM250.252 158.903C250.252 159.45 250.945 159.723 252.156 159.723C253.362 159.723 254.041 159.45 254.041 158.903C254.041 158.385 253.362 158.092 252.156 158.092C250.945 158.092 250.252 158.385 250.252 158.903ZM253.943 157.047V151.764H255.027V153.913H256.258V154.811H255.027V157.047H253.943ZM261.844 154.538V155.407H260.203V156.408C260.94 156.379 261.673 156.33 262.361 156.256L262.439 157.038C260.564 157.297 258.538 157.345 256.893 157.35L256.746 156.481C257.474 156.476 258.279 156.471 259.109 156.447V155.407H257.508V152.311H261.775V153.19H258.602V154.538H261.844ZM258.152 160.417V157.907H259.246V159.538H264.324V160.417H258.152ZM262.977 158.395V151.764H264.07V158.395H262.977ZM272.254 152.506V153.21H274.031V151.774H275.115V158.2H274.031V155.973H272.254V156.735H268.104V152.506H272.254ZM269.188 155.885H271.18V153.366H269.188V155.885ZM269.295 160.417V157.604H270.398V159.538H275.311V160.417H269.295ZM272.254 155.104H274.031V154.098H272.254V155.104ZM283.758 157.399V160.592H282.674V158.258H277.742V157.399H283.758ZM276.482 154.391C276.482 153.141 277.483 152.243 278.816 152.253C279.544 152.248 280.179 152.521 280.594 152.985H282.674V151.764H283.758V156.979H282.674V155.807H280.604C280.184 156.276 279.549 156.559 278.816 156.559C277.483 156.559 276.482 155.661 276.482 154.391ZM277.518 154.391C277.518 155.158 278.06 155.636 278.816 155.641C279.539 155.636 280.091 155.158 280.096 154.391C280.091 153.654 279.539 153.166 278.816 153.171C278.06 153.166 277.518 153.654 277.518 154.391ZM281.062 154.928H282.674V153.874H281.067C281.106 154.04 281.131 154.211 281.131 154.391C281.131 154.577 281.106 154.757 281.062 154.928ZM287.703 154.46C287.703 155.827 288.265 157.204 289.5 157.868L288.895 158.669C288.074 158.234 287.518 157.458 287.2 156.53C286.888 157.531 286.331 158.39 285.506 158.874L284.871 158.053C286.121 157.331 286.673 155.856 286.678 154.46V154.186H285.174V153.307H286.678V152.077H287.703V153.307H289.178V154.186H287.703V154.46ZM288.631 156.051V155.153H289.783V151.93H290.809V160.163H289.783V156.051H288.631ZM291.57 160.592V151.764H292.605V160.592H291.57ZM301.268 151.764V160.592H300.232V151.764H301.268ZM293.562 157.956C295.389 156.877 296.229 155.495 296.395 153.717H294.031V152.839H297.469C297.469 153.283 297.439 153.717 297.376 154.137H298.406V151.979H299.441V160.172H298.406V157.223H297.029V156.335H298.406V155.026H297.19C296.771 156.491 295.853 157.751 294.197 158.727L293.562 157.956Z" fill="#616161"/>
<path d="M246.928 238.919C246.928 240.286 247.489 241.663 248.725 242.327L248.119 243.128C247.299 242.693 246.742 241.917 246.425 240.989C246.112 241.99 245.556 242.85 244.73 243.333L244.096 242.513C245.346 241.79 245.897 240.315 245.902 238.919V238.646H244.398V237.767H245.902V236.536H246.928V237.767H248.402V238.646H246.928V238.919ZM247.855 240.511V239.612H249.008V236.39H250.033V244.622H249.008V240.511H247.855ZM250.795 245.052V236.224H251.83V245.052H250.795ZM260.922 240.276V241.155H257.426V241.897C259.003 242 259.94 242.547 259.945 243.46C259.94 244.476 258.788 245.042 256.889 245.042C254.96 245.042 253.812 244.476 253.812 243.46C253.812 242.547 254.75 241.995 256.352 241.893V241.155H252.875V240.276H260.922ZM253.266 239.017C254.887 238.865 255.946 238.206 256.127 237.483H253.607V236.614H260.199V237.483H257.655C257.831 238.211 258.881 238.865 260.541 239.017L260.16 239.876C258.554 239.71 257.367 239.07 256.889 238.177C256.41 239.07 255.238 239.71 253.637 239.876L253.266 239.017ZM254.916 243.46C254.911 243.948 255.604 244.217 256.889 244.212C258.153 244.217 258.852 243.948 258.861 243.46C258.852 242.972 258.153 242.713 256.889 242.708C255.604 242.713 254.911 242.972 254.916 243.46ZM269.584 243.079V243.958H261.518V243.079H264.975V241.038H266.049V243.079H269.584ZM261.752 240.354C263.598 240.057 264.921 238.733 264.926 237.405V236.761H266.078V237.405C266.078 238.738 267.411 240.057 269.271 240.354L268.803 241.253C267.313 240.97 266.088 240.115 265.502 238.958C264.921 240.11 263.71 240.975 262.221 241.253L261.752 240.354ZM277.494 236.224V240.726H276.42V236.224H277.494ZM270.15 239.866C271.581 239.412 272.333 238.279 272.328 237.122V236.438H273.451V237.122C273.446 238.245 274.193 239.295 275.59 239.72L275.062 240.56C274.037 240.242 273.305 239.588 272.904 238.748C272.504 239.661 271.752 240.379 270.697 240.716L270.15 239.866ZM271.654 241.976V241.136H277.514V243.431H272.738V244.114H277.777V244.974H271.674V242.62H276.43V241.976H271.654ZM281.225 244.28C279.779 244.285 278.891 243.431 278.891 242.308C278.891 241.473 279.428 240.965 280.219 240.418C279.813 239.915 279.496 239.397 279.496 238.772C279.496 237.767 280.229 237.024 281.342 237.024C282.455 237.024 283.144 237.762 283.139 238.626C283.144 239.3 282.792 239.812 282.201 240.237L281.752 240.569L283.046 242.088C283.231 241.736 283.344 241.321 283.344 240.853H284.418C284.413 241.824 284.145 242.513 283.803 242.972L284.838 244.183H283.49L283.036 243.665C282.533 244.09 281.845 244.285 281.225 244.28ZM280.111 242.249C280.111 242.811 280.565 243.26 281.264 243.265C281.64 243.265 282.025 243.128 282.357 242.889L280.888 241.199L280.775 241.282C280.297 241.634 280.111 242.005 280.111 242.249ZM280.6 238.792C280.604 239.114 280.819 239.441 281.112 239.808L281.518 239.534C281.889 239.295 282.084 239.041 282.084 238.685C282.084 238.377 281.811 238.045 281.361 238.05C280.912 238.045 280.604 238.406 280.6 238.792ZM292.494 236.224V245.062H291.4V236.224H292.494ZM285.619 242.981V236.946H286.703V239.153H288.842V236.946H289.916V242.981H285.619ZM286.703 242.093H288.842V240.003H286.703V242.093ZM298.275 236.985V241.155H294.096V236.985H298.275ZM295.102 244.876V242.044H296.186V243.997H301.107V244.876H295.102ZM295.16 240.296H297.211V237.854H295.16V240.296ZM299.672 242.669V236.224H300.756V238.812H301.986V239.72H300.756V242.669H299.672Z" fill="#616161"/>
<g clip-path="url(#clip0_70_5627)">
<path d="M165.114 202.76C165.114 198.863 165.222 196.078 165.089 193.302C164.762 186.569 159.469 181.376 153.038 180.883C144.825 180.247 139.005 186.126 138.428 194.305C138.21 197.349 138.537 200.41 138.704 203.463C139.189 212.603 139.841 221.735 140.903 230.826C141.104 232.549 141.99 233.502 143.63 234.087C148.079 235.693 152.611 235.584 157.169 234.966C160.865 234.464 162.622 233.126 162.831 230.475C163.575 220.866 165.331 211.332 165.122 202.76H165.114Z" fill="#ECE1CA"/>
<path d="M124.009 156.421C124.009 156.421 125.272 165.177 127.555 167.46C129.838 169.743 133.97 176.885 133.97 176.885L172.297 178.558L177.03 166.724C177.03 166.724 179.807 163.772 180.191 157.935C180.576 152.098 182.173 146.043 182.173 146.043L175.717 117.199L163.925 88.916L137.633 88.1215L125.046 100.315L119.711 128.916L124.018 156.421H124.009Z" fill="#F4EFE5"/>
<path d="M212.305 126.942C217.39 133.933 216.127 139.018 211.887 145.758C209.328 149.831 205.414 152.365 201.417 154.749C198.323 156.588 195.814 159.022 193.597 161.782C191.666 164.174 189.307 165.553 186.196 165.018C182.91 164.449 181.087 162.359 180.217 159.139C179.347 155.894 178.703 152.633 178.494 149.296C178.494 149.271 178.494 149.246 178.511 149.212C179.372 144.278 181.371 139.461 183.37 134.912C185.084 131.015 186.757 127.318 187.559 123.103C188.413 118.604 188.513 114.749 188.488 110.559C188.413 98.115 179.673 89.911 179.673 89.911C180.819 90.0197 182.04 89.911 183.403 89.727C189.358 88.9492 194.392 91.3661 197.996 96.3504C200.438 99.729 201.417 103.752 202.88 107.548C205.464 114.297 208.007 121.029 212.305 126.942Z" fill="#593C27"/>
<path d="M188.489 110.559C188.514 114.749 188.414 118.604 187.561 123.103C186.758 127.318 185.086 131.015 183.371 134.912C181.372 139.461 179.374 144.278 178.512 149.212C178.504 149.246 178.504 149.271 178.496 149.296C177.944 140.482 173.286 134.318 166.027 129.852C163.2 128.113 160.214 126.699 158.341 123.697C155.565 119.231 156.853 114.774 157.923 110.225C158.701 106.904 160.089 103.81 161.26 100.632C163.075 95.6564 159.863 91.0902 154.569 90.9481C153.666 90.923 152.763 90.9481 151.408 90.9481C150.062 91.0233 148.23 90.7055 146.491 91.3829C142.761 92.8381 140.93 96.777 142.443 100.624C143.882 104.312 145.337 108 146.265 111.847C147.587 117.341 147.704 122.669 142.803 126.708C141.423 127.845 139.851 128.782 138.262 129.618C132.199 132.821 128.101 137.755 126.086 144.211C125.902 144.805 125.743 145.416 125.617 146.026C126.286 141.669 121.369 136.559 119.362 133.105C114.796 125.311 114.578 115.309 115.172 106.503C115.875 95.9909 123.669 89.9111 123.669 89.9111L123.644 89.7605C125.818 89.426 127.741 88.5312 129.782 87.2182C134.072 84.4752 138.881 83.3462 144.024 83.4465C146.926 83.5051 149.861 82.811 152.746 83.0117C160.549 83.5469 168.761 82.7859 175.401 88.1298C176.84 89.2839 178.203 89.7773 179.675 89.9111C179.675 89.9111 188.414 98.1151 188.489 110.559ZM173.486 121.038C174.055 121.038 174.281 120.586 174.323 120.043C174.038 119.348 173.578 118.897 172.767 118.997C172.316 119.056 171.948 119.348 172.056 119.817C172.215 120.536 172.725 121.029 173.486 121.038ZM131.647 119.85C131.731 119.357 131.371 119.064 130.903 119.073C130.208 119.081 129.673 119.39 129.606 120.135C129.573 120.569 129.84 120.912 130.392 120.963C131.036 120.896 131.521 120.519 131.647 119.85Z" fill="#E8C59A"/>
<path d="M119.361 133.105C121.368 136.559 126.285 141.669 125.616 146.026C125.616 146.043 125.608 146.051 125.608 146.068C125.081 148.535 124.939 151.119 124.68 153.636C124.429 156.154 123.977 158.604 122.915 160.87C120.465 166.072 113.867 166.724 110.488 162.108C107.67 158.261 103.881 155.652 99.909 153.21C94.6571 149.982 90.7767 145.499 88.8031 139.637C87.5236 135.848 87.8581 131.834 90.2582 128.648C94.8745 122.51 97.7597 115.577 100.478 108.51C101.607 105.6 102.619 102.648 103.756 99.7458C106.164 93.5991 112.805 88.7152 119.277 89.7187C120.883 89.9696 122.313 89.9696 123.643 89.7605L123.668 89.9111C123.668 89.9111 115.874 95.9909 115.171 106.503C114.577 115.309 114.795 125.311 119.361 133.105Z" fill="#593C27"/>
<path d="M131.1 124.09C133.188 124.09 134.88 122.398 134.88 120.31C134.88 118.223 133.188 116.53 131.1 116.53C129.013 116.53 127.32 118.223 127.32 120.31C127.32 122.398 129.013 124.09 131.1 124.09Z" fill="#593C27"/>
<path d="M172.03 124.091C174.118 124.091 175.81 122.398 175.81 120.311C175.81 118.223 174.118 116.53 172.03 116.53C169.942 116.53 168.25 118.223 168.25 120.311C168.25 122.398 169.942 124.091 172.03 124.091Z" fill="#593C27"/>
<path d="M160.867 169.492L160.892 169.476C161.076 169.676 161.252 169.877 161.419 170.078C163.175 172.177 165.893 172.143 168.394 171.658C171.329 171.081 173.788 169.584 175.753 167.268C177.091 165.687 177.543 165.754 178.262 167.577C180.628 173.548 182.008 179.762 182.677 186.143C182.978 188.97 183.472 191.788 183.388 194.648V194.698H183.355C183.455 197.918 183.831 216.91 179.742 231.344C179.742 231.344 189.476 233.795 184.735 245.152C184.258 245.494 183.815 245.896 183.388 246.389C181.465 248.631 178.922 249.818 175.837 249.642C174.03 249.542 172.215 249.509 170.417 249.651C165.943 249.994 160.917 245.904 160.909 241.129C162.063 231.403 159.997 238.645 158.275 238.854C153.909 239.39 149.544 239.356 145.187 238.813C143.623 238.62 141.816 228.861 142.293 240.611C142.067 245.369 139.199 249.166 134.407 249.534C131.789 249.743 129.13 249.701 126.496 249.567C124.137 249.45 121.996 248.572 120.491 246.657C120.056 246.105 119.571 245.645 119.044 245.26C114.186 233.812 123.995 231.344 123.995 231.344C119.747 216.366 120.315 196.48 120.391 194.397C120.399 194.28 120.399 194.222 120.399 194.222C120.341 188.158 121.419 182.221 122.674 176.333C123.334 173.231 124.53 170.237 125.601 167.234C126.111 165.804 126.696 165.62 127.842 167.05C130.409 170.228 133.771 171.985 138.011 171.717C140.002 171.6 141.591 171.04 142.879 169.484C143.288 169.242 149.878 165.478 151.484 165.478C153.09 165.478 160.867 169.492 160.867 169.492Z" fill="#E8C59A"/>
<path d="M111.885 225.44C110.731 220.682 111.567 216.041 112.42 211.399C113.416 205.963 115.966 201.213 119.278 196.848C119.838 196.095 120.348 195.342 120.39 194.397C120.315 196.48 119.746 216.367 123.995 231.345C123.995 231.345 114.185 233.812 119.044 245.261C118.325 244.717 117.513 244.324 116.619 244.023C110.221 241.874 108.824 235.066 111.501 230.508C112.487 228.836 112.287 227.088 111.885 225.44Z" fill="#CEAE8D"/>
<path d="M163.375 151.42C161.652 155.083 158.466 156.94 155.079 158.587C154.176 159.03 153.198 159.256 153.281 160.519C153.365 161.916 153.03 163.354 154.661 164.333C156.986 165.729 159.068 167.418 160.891 169.476L160.866 169.492C160.866 169.492 153.131 165.478 151.483 165.478C149.836 165.478 143.287 169.242 142.878 169.484C143.012 169.325 143.145 169.15 143.279 168.957C144.617 167.025 146.666 165.662 148.765 164.567C150.463 163.689 150.572 162.284 150.563 160.72C150.546 159.323 149.518 159.014 148.489 158.487C145.403 156.906 142.184 155.376 140.67 151.964C138.746 147.64 138.312 144.42 143.53 141.468C149.376 138.173 155.213 138.441 160.9 141.811C164.362 143.86 165.156 147.657 163.375 151.42Z" fill="#593C27"/>
<path d="M191.553 227.288C191.042 228.61 191.979 229.68 192.464 230.817C193.785 233.92 194.036 237.031 192.205 240C191.076 241.831 189.596 243.362 187.371 243.964C186.401 244.223 185.531 244.591 184.737 245.151C189.479 233.795 179.744 231.344 179.744 231.344C183.834 216.91 183.457 197.918 183.357 194.698H183.39C183.39 195.401 183.733 195.961 184.185 196.513C189.721 203.462 192.247 211.441 192.247 220.431C192.054 222.622 192.431 224.997 191.553 227.288Z" fill="#CEAE8D"/>
<path d="M165.114 205.52C165.114 201.129 165.222 197.993 165.089 194.874C164.762 187.289 159.469 181.443 153.038 180.883C144.825 180.172 139.005 186.787 138.428 195.994C138.21 199.423 138.537 202.869 138.704 206.306C139.189 216.601 140.51 225.541 141.564 235.785C141.765 237.725 142.651 238.796 144.29 239.465C148.739 241.271 151.775 241.154 156.333 240.452C160.029 239.883 161.208 238.378 161.409 235.392C163.266 225.708 165.323 215.179 165.114 205.528V205.52Z" fill="#F4EFE5"/>
<path d="M173.25 120.712C173.86 120.712 174.354 120.217 174.354 119.608C174.354 118.998 173.86 118.504 173.25 118.504C172.641 118.504 172.146 118.998 172.146 119.608C172.146 120.217 172.641 120.712 173.25 120.712Z" fill="white"/>
<path d="M132.207 120.712C132.817 120.712 133.311 120.217 133.311 119.608C133.311 118.998 132.817 118.504 132.207 118.504C131.598 118.504 131.104 118.998 131.104 119.608C131.104 120.217 131.598 120.712 132.207 120.712Z" fill="white"/>
<path d="M156.525 148.15C157.343 148.15 158.005 147.488 158.005 146.67C158.005 145.853 157.343 145.19 156.525 145.19C155.708 145.19 155.045 145.853 155.045 146.67C155.045 147.488 155.708 148.15 156.525 148.15Z" fill="white"/>
<path opacity="0.3" d="M163.6 197.542C169.535 197.542 174.346 192.73 174.346 186.795C174.346 180.86 169.535 176.049 163.6 176.049C157.665 176.049 152.854 180.86 152.854 186.795C152.854 192.73 157.665 197.542 163.6 197.542Z" fill="#DD051A"/>
<path opacity="0.5" d="M163.599 192.75C166.887 192.75 169.553 190.084 169.553 186.795C169.553 183.507 166.887 180.841 163.599 180.841C160.31 180.841 157.645 183.507 157.645 186.795C157.645 190.084 160.31 192.75 163.599 192.75Z" fill="#DD051A"/>
<path opacity="0.3" d="M140.35 230.483C146.285 230.483 151.096 225.672 151.096 219.737C151.096 213.802 146.285 208.99 140.35 208.99C134.415 208.99 129.604 213.802 129.604 219.737C129.604 225.672 134.415 230.483 140.35 230.483Z" fill="#DD051A"/>
<path opacity="0.5" d="M140.351 225.691C143.639 225.691 146.305 223.025 146.305 219.737C146.305 216.448 143.639 213.782 140.351 213.782C137.062 213.782 134.396 216.448 134.396 219.737C134.396 223.025 137.062 225.691 140.351 225.691Z" fill="#DD051A"/>
<path opacity="0.3" d="M128.768 100.833C134.703 100.833 139.514 96.0216 139.514 90.0866C139.514 84.1515 134.703 79.3402 128.768 79.3402C122.833 79.3402 118.021 84.1515 118.021 90.0866C118.021 96.0216 122.833 100.833 128.768 100.833Z" fill="#DD051A"/>
<path opacity="0.5" d="M128.769 96.0411C132.057 96.0411 134.723 93.3752 134.723 90.0867C134.723 86.7981 132.057 84.1323 128.769 84.1323C125.48 84.1323 122.814 86.7981 122.814 90.0867C122.814 93.3752 125.48 96.0411 128.769 96.0411Z" fill="#DD051A"/>
<path d="M110.613 184.178C110.579 183.124 109.266 184.103 107.97 184.814C106.615 183.174 104.583 182.129 102.309 182.129C100.034 182.129 97.9181 183.216 96.5716 184.914C95.2169 184.178 93.7868 183.049 93.7617 184.178C93.7617 184.178 93.8035 185.917 95.1583 187.833C95.0245 188.393 94.9492 188.978 94.9492 189.58C94.9492 193.695 98.2442 197.023 102.317 197.023C106.39 197.023 109.685 193.687 109.685 189.58C109.685 188.861 109.576 188.159 109.392 187.506C110.588 185.75 110.63 184.195 110.63 184.195L110.613 184.178Z" fill="#DD051A"/>
<path d="M97.5995 189.045C97.4574 189.965 98.0344 190.86 98.9878 191.103C99.9411 191.345 100.903 190.852 101.254 189.99L97.5995 189.045Z" fill="white"/>
<path d="M107.025 189.045L103.354 189.99C103.705 190.852 104.675 191.345 105.628 191.103C106.582 190.86 107.167 189.965 107.025 189.045Z" fill="white"/>
<path d="M205.029 170.145C205.012 169.509 204.217 170.103 203.431 170.53C202.62 169.543 201.391 168.907 200.019 168.907C198.648 168.907 197.377 169.559 196.557 170.588C195.737 170.145 194.884 169.459 194.859 170.145C194.859 170.145 194.884 171.199 195.704 172.344C195.62 172.679 195.579 173.03 195.579 173.398C195.579 175.873 197.569 177.889 200.019 177.889C202.47 177.889 204.46 175.882 204.46 173.398C204.46 172.963 204.393 172.545 204.284 172.144C205.004 171.081 205.029 170.145 205.029 170.145Z" fill="#DD051A"/>
<path d="M197.184 173.08C197.101 173.632 197.444 174.176 198.021 174.318C198.598 174.469 199.175 174.168 199.392 173.649L197.184 173.08Z" fill="white"/>
<path d="M202.87 173.08L200.654 173.649C200.863 174.168 201.449 174.469 202.026 174.318C202.603 174.168 202.954 173.632 202.862 173.08H202.87Z" fill="white"/>
</g>
<path opacity="0.3" d="M30.2773 220.746C35.578 220.746 39.875 216.449 39.875 211.148C39.875 205.848 35.578 201.551 30.2773 201.551C24.9767 201.551 20.6797 205.848 20.6797 211.148C20.6797 216.449 24.9767 220.746 30.2773 220.746Z" fill="#E83849"/>
<path opacity="0.5" d="M30.2742 216.907C33.4546 216.907 36.0328 214.329 36.0328 211.148C36.0328 207.968 33.4546 205.39 30.2742 205.39C27.0938 205.39 24.5156 207.968 24.5156 211.148C24.5156 214.329 27.0938 216.907 30.2742 216.907Z" fill="#E83849"/>
<path d="M30.2812 209.092C31.4171 209.092 32.3379 210.012 32.3379 211.148C32.3379 212.284 31.4171 213.205 30.2812 213.205C29.1454 213.205 28.2246 212.284 28.2246 211.148C28.2246 210.012 29.1454 209.092 30.2812 209.092Z" fill="#E83849"/>
<g clip-path="url(#clip1_70_5627)">
<path d="M38.1718 133.587C38.1718 133.587 33.96 139.758 28.5447 121.28L26.4668 122.225C26.4668 122.225 30.6856 135.196 34.3797 136.05C37.0244 136.847 39.0114 135.469 39.0114 135.469L38.1788 133.58L38.1718 133.587Z" fill="#C4CACE"/>
<path d="M36.7311 118.867C36.7311 118.867 34.4572 118.699 33.3588 121.469C32.7851 122.33 33.1489 125.8 33.1489 125.8C33.1489 125.8 34.2193 126.87 35.1709 125.716C34.3803 120.252 37.4167 120.811 37.4167 120.811L36.7381 118.867H36.7311Z" fill="#C4CACE"/>
<path d="M40.3337 127.101L39.9069 126.023C38.4586 123.484 36.0729 122.546 32.4837 123.029C32.0989 117.537 35.6041 118.132 35.6041 118.132L34.9604 115.998C34.9604 115.998 34.0299 116.096 32.9455 116.711C32.7776 116.306 32.6236 115.613 33.4492 114.046L32.4977 113.899C32.4977 113.899 31.1964 116.005 31.98 117.39C31.952 117.411 31.924 117.439 31.903 117.46C31.3153 117.481 30.6017 116.998 31.4412 114.417L30.4617 114.361C30.4617 114.361 29.1954 118.111 30.6576 118.251C30.8815 118.307 31.0215 118.265 31.0215 118.307C30.4408 118.677 29.2164 119.174 29.4123 115.592L28.5237 115.697C28.5237 115.697 27.6842 118.579 29.3563 119.503C29.7691 119.769 30.0909 119.818 30.3428 119.783C30.1049 120.762 30.1399 122.085 30.3568 123.575C27.6912 124.715 24.7527 126.933 26.1589 132.138C27.4463 136.903 32.5537 139.589 36.2898 138.743C39.4731 138.015 41.7679 131.229 40.3337 127.115V127.101Z" fill="#E83849"/>
</g>
<g clip-path="url(#clip2_70_5627)">
<path d="M61.3488 34.3852C60.709 33.0223 59.5061 31.9922 58.0089 31.9922C55.9997 31.9922 54.3745 33.7581 54.3745 35.9272C54.3745 36.0552 54.3745 36.1831 54.3937 36.3111C54.3937 36.3111 54.3809 36.3111 54.3745 36.3111C52.3654 36.3111 50.7402 38.0771 50.7402 40.2461C50.7402 41.6218 51.3865 42.8247 52.3718 43.5285C51.9431 44.0852 51.6808 44.7954 51.6808 45.576C51.6808 47.1308 52.711 48.4233 54.0738 48.6985C54.3234 50.1765 55.5199 51.2962 56.9531 51.2962C57.0427 51.2962 57.1323 51.2962 57.2154 51.2834C57.5418 52.256 58.4056 52.947 59.4101 52.947C60.7026 52.947 61.6368 51.8081 61.6368 50.4068V35.4857C61.6368 35.0826 61.496 34.7115 61.3424 34.3852H61.3488Z" fill="#E83849"/>
<path d="M73.7174 40.2461C73.7174 38.0707 72.0922 36.3111 70.0831 36.3111C70.0831 36.3111 70.0703 36.3111 70.0639 36.3111C70.0767 36.1831 70.0831 36.0616 70.0831 35.9272C70.0831 33.7517 68.4579 31.9922 66.4488 31.9922C64.9515 31.9922 63.7294 33.0095 63.1088 34.3852C62.936 34.7627 62.8145 35.0826 62.8145 35.4857V50.4132C62.8145 51.8145 63.7486 52.9534 65.0411 52.9534C66.0521 52.9534 66.9094 52.2624 67.2358 51.2898C67.3253 51.2962 67.4085 51.3026 67.4981 51.3026C68.9314 51.3026 70.1279 50.1829 70.3774 48.7049C71.7403 48.4297 72.7704 47.1372 72.7704 45.5824C72.7704 44.8018 72.5081 44.0852 72.0794 43.5349C73.0583 42.8311 73.711 41.6218 73.711 40.2525L73.7174 40.2461Z" fill="#E83849"/>
</g>
<g clip-path="url(#clip3_70_5627)">
<path d="M279.707 200.911H267.627C265.171 200.911 263.18 202.902 263.18 205.358V217.438C263.18 219.894 265.171 221.885 267.627 221.885H279.707C282.163 221.885 284.154 219.894 284.154 217.438V205.358C284.154 202.902 282.163 200.911 279.707 200.911Z" fill="#E83849"/>
<path d="M278.588 208.16C275.498 206.586 271.844 206.586 268.754 208.16C268.223 207.117 267.692 206.068 267.154 205.025C271.249 202.939 276.093 202.939 280.182 205.025C279.65 206.068 279.119 207.117 278.582 208.16H278.588Z" fill="white" stroke="white" stroke-width="1.34667" stroke-linecap="round" stroke-linejoin="round"/>
<path d="M276.54 204.941L274.772 205.56C274.772 205.56 274.749 205.547 274.733 205.537C274.329 205.341 273.837 205.515 273.641 205.919C273.444 206.323 273.618 206.815 274.022 207.011C274.22 207.103 274.44 207.119 274.645 207.046C274.85 206.972 275.017 206.824 275.114 206.63C275.114 206.63 275.118 206.624 275.121 206.619L276.907 205.995C277.197 205.889 277.348 205.577 277.25 205.284C277.145 204.994 276.833 204.844 276.54 204.941Z" fill="#E83849"/>
</g>
<path d="M281.076 120.196C281.035 118.928 279.441 120.105 277.868 120.96C276.223 118.989 273.757 117.731 270.996 117.731C268.234 117.731 265.666 119.039 264.032 121.081C262.387 120.196 260.652 118.838 260.621 120.196C260.621 120.196 260.672 122.288 262.316 124.592C262.154 125.266 262.063 125.97 262.063 126.694C262.063 131.643 266.062 135.647 271.006 135.647C275.949 135.647 279.949 131.633 279.949 126.694C279.949 125.829 279.817 124.984 279.594 124.199C281.045 122.087 281.096 120.216 281.096 120.216L281.076 120.196Z" fill="#E83849"/>
<path d="M265.28 126.05C265.107 127.157 265.808 128.233 266.965 128.525C268.122 128.816 269.29 128.223 269.716 127.187L265.28 126.05Z" fill="white"/>
<path d="M276.722 126.05L272.266 127.187C272.692 128.223 273.87 128.816 275.027 128.525C276.184 128.233 276.895 127.157 276.722 126.05Z" fill="white"/>
<path d="M162.864 15.8553C162.864 15.0043 162.474 14.2493 161.86 13.7566C162.474 13.264 162.864 12.5025 162.864 11.6579C162.864 10.1671 161.655 8.95781 160.164 8.95781C159.313 8.95781 158.558 9.34811 158.065 9.96236C157.573 9.34811 156.811 8.95781 155.967 8.95781C155.199 8.95781 154.508 9.27773 154.015 9.796C153.522 9.28413 152.831 8.95781 152.064 8.95781C151.213 8.95781 150.458 9.34811 149.965 9.96236C149.472 9.34811 148.711 8.95781 147.866 8.95781C147.022 8.95781 146.26 9.34811 145.768 9.96236C145.275 9.34811 144.513 8.95781 143.669 8.95781C142.178 8.95781 140.969 10.1671 140.969 11.6579C140.969 12.5089 141.359 13.264 141.973 13.7566C141.359 14.2493 140.969 15.0107 140.969 15.8553C140.969 16.6999 141.359 17.4613 141.973 17.954C141.359 18.4467 140.969 19.2081 140.969 20.0527C140.969 20.8205 141.289 21.5115 141.807 22.0042C141.295 22.4969 140.969 23.1879 140.969 23.9557C140.969 25.4466 142.178 26.6559 143.669 26.6559C145.16 26.6559 146.369 25.4466 146.369 23.9557C146.369 23.1879 146.049 22.4969 145.531 22.0042C146.043 21.5115 146.369 20.8205 146.369 20.0527C146.369 19.2017 145.979 18.4467 145.364 17.954C145.979 17.4613 146.369 16.6999 146.369 15.8553C146.369 15.0107 145.979 14.2493 145.364 13.7566C145.512 13.6351 145.646 13.5007 145.768 13.3535C146.26 13.9678 147.022 14.3581 147.866 14.3581C148.711 14.3581 149.472 13.9678 149.965 13.3535C150.458 13.9678 151.219 14.3581 152.064 14.3581C152.831 14.3581 153.522 14.0382 154.015 13.5199C154.508 14.0318 155.199 14.3581 155.967 14.3581C156.818 14.3581 157.573 13.9678 158.065 13.3535C158.187 13.5007 158.321 13.6351 158.468 13.7566C157.854 14.2493 157.464 15.0107 157.464 15.8553C157.464 16.6999 157.854 17.4613 158.468 17.954C157.854 18.4467 157.464 19.2081 157.464 20.0527C157.464 20.8205 157.784 21.5115 158.302 22.0042C158.219 22.081 158.136 22.1706 158.065 22.2601C157.573 21.6459 156.811 21.2556 155.967 21.2556C154.476 21.2556 153.267 22.4649 153.267 23.9557C153.267 24.8643 153.721 25.6705 154.412 26.1568C154.079 26.5279 153.868 27.0142 153.868 27.5517C153.868 28.7098 154.809 29.6503 155.967 29.6503C157.125 29.6503 158.065 28.7098 158.065 27.5517C158.065 27.0142 157.854 26.5279 157.521 26.1504C157.726 26.0032 157.912 25.8369 158.065 25.6449C158.558 26.2592 159.319 26.6495 160.164 26.6495C161.655 26.6495 162.864 25.4402 162.864 23.9493C162.864 23.1815 162.544 22.4905 162.026 21.9978C162.538 21.5051 162.864 20.8141 162.864 20.0463C162.864 19.1953 162.474 18.4403 161.86 17.9476C162.474 17.4549 162.864 16.6935 162.864 15.8489V15.8553Z" fill="#E83849"/>
<path d="M160.452 20.8234L160.456 20.9331C160.454 20.9518 160.451 20.9726 160.448 20.9954C160.432 21.1194 160.4 21.302 160.341 21.5267C160.222 21.9763 159.989 22.5932 159.539 23.2493L159.449 23.3799L159.492 23.5322C159.631 24.0199 159.712 24.5434 159.712 25.0772C159.712 28.1331 157.238 30.6158 154.18 30.6158C151.122 30.6158 148.648 28.1395 148.648 25.0772C148.648 24.6303 148.704 24.1947 148.805 23.7763L148.841 23.6269L148.752 23.5019C148.239 22.7842 147.977 22.1012 147.842 21.6007C147.775 21.3504 147.739 21.1463 147.721 21.007C147.712 20.9374 147.707 20.8842 147.705 20.8496C147.703 20.8323 147.703 20.8197 147.702 20.8121L147.702 20.8109C147.703 20.7976 147.703 20.7862 147.704 20.7764C147.711 20.7775 147.718 20.7789 147.726 20.7806C147.783 20.793 147.858 20.8184 147.953 20.8597C148.143 20.9427 148.371 21.071 148.631 21.2231C148.685 21.2543 148.74 21.2865 148.795 21.3193C149.004 21.442 149.226 21.5725 149.444 21.69L149.691 21.823L149.866 21.6039C150.877 20.3411 152.467 19.532 154.174 19.532C155.881 19.532 157.407 20.309 158.425 21.53L158.602 21.742L158.844 21.6102C159.02 21.5146 159.199 21.4113 159.37 21.3131C159.453 21.2653 159.533 21.2188 159.61 21.1751C159.854 21.0368 160.065 20.9237 160.239 20.8533C160.326 20.8183 160.393 20.7982 160.443 20.7893C160.445 20.7888 160.448 20.7884 160.45 20.788C160.451 20.798 160.452 20.8098 160.452 20.8234Z" fill="#E83849" stroke="white" stroke-width="0.673333"/>
<path d="M151.613 25.9522C151.159 25.8376 150.849 25.4919 150.767 25.0898L152.806 25.6122C152.52 25.9171 152.069 26.067 151.613 25.9522Z" fill="white" stroke="white" stroke-width="0.673333"/>
<path d="M156.736 25.9522C156.28 26.0671 155.825 25.9168 155.538 25.6124L157.588 25.0895C157.504 25.4908 157.192 25.8372 156.736 25.9522Z" fill="white" stroke="white" stroke-width="0.673333"/>
<g clip-path="url(#clip4_70_5627)">
<ellipse cx="245.907" cy="39.6703" rx="1.27969" ry="1.27969" fill="#E83849"/>
<ellipse cx="248.145" cy="39.3504" rx="1.59961" ry="1.59961" fill="#E83849"/>
<path d="M252.164 39.1456H231.189V47.5531C231.189 50.0101 233.179 52 235.636 52H247.71C250.167 52 252.157 50.0101 252.157 47.5531V39.1456H252.164Z" fill="#C4CACE"/>
<path d="M240.441 33.5598C240.32 33.323 240.358 33.0351 240.537 32.8368M240.441 33.5598L240.142 33.7133M240.441 33.5598C241.363 35.3577 241.203 41.5962 241.056 43.6757M240.441 33.5598L241.056 43.6757M240.537 32.8368L240.142 33.7133M240.537 32.8368C240.659 32.7024 240.832 32.632 241.011 32.632M240.537 32.8368L241.011 32.632M240.142 33.7133C239.956 33.3511 240.015 32.9124 240.288 32.6111L240.288 32.6109C240.478 32.4005 240.744 32.2953 241.011 32.2953C241.127 32.2953 241.254 32.3129 241.38 32.3646C241.647 32.4706 243.033 33.1859 243.38 35.9489C243.619 37.8294 243.674 41.7994 243.682 43.5136C244.004 43.8715 244.189 44.337 244.189 44.8338C244.189 45.9202 243.304 46.8149 242.214 46.8149C241.125 46.8149 240.239 45.9275 240.239 44.8338C240.239 44.3495 240.413 43.8871 240.728 43.5318C240.798 42.4673 240.867 40.4777 240.813 38.5215C240.785 37.5053 240.723 36.5043 240.613 35.6496C240.501 34.7833 240.344 34.1069 240.142 33.7133ZM241.056 43.6757C240.749 43.9764 240.576 44.3923 240.576 44.8338C240.576 45.7424 241.312 46.4782 242.214 46.4782C243.116 46.4782 243.852 45.736 243.852 44.8338C243.852 44.3795 243.666 43.9572 243.346 43.6501C243.34 42.0121 243.289 37.8979 243.046 35.9912L241.056 43.6757ZM241.011 32.632C241.094 32.632 241.177 32.6448 241.254 32.6768L241.011 32.632Z" fill="#F18892" stroke="white" stroke-width="0.673333"/>
<path d="M241.012 33.2719C241.012 33.2719 242.112 33.7197 242.413 36.0744C242.669 38.0963 242.707 42.7159 242.714 43.97C243.014 44.1428 243.219 44.4691 243.219 44.8402C243.219 45.3905 242.771 45.8384 242.215 45.8384C241.658 45.8384 241.216 45.3905 241.216 44.8402C241.216 44.4883 241.396 44.1812 241.671 44.002C241.741 43.183 242.163 35.5305 241.012 33.2782" fill="#E83849"/>
<ellipse cx="237.588" cy="39.6703" rx="1.27969" ry="1.27969" fill="#C4CACE"/>
<ellipse cx="235.668" cy="40.3101" rx="1.27969" ry="1.27969" fill="#C4CACE"/>
<path d="M234.223 39.2288C234.223 39.2288 234.563 38.2376 233.109 38.0707C233.109 38.0707 234.709 37.4308 235.093 39.2288C235.093 39.2288 234.217 39.1648 234.217 39.2288H234.223Z" fill="#C4CACE"/>
<path d="M236.992 39.2288C236.992 39.2288 237.268 37.9226 235.668 37.4308C235.668 37.4308 237.689 37.1109 237.689 39.2288C237.689 39.2288 236.992 39.1776 236.992 39.2288Z" fill="#C4CACE"/>
</g>
<defs>
<clipPath id="clip0_70_5627">
<rect width="127.969" height="170.545" fill="white" transform="translate(87.8574 79.3405)"/>
</clipPath>
<clipPath id="clip1_70_5627">
<rect width="14.9723" height="24.9977" fill="white" transform="translate(25.7969 113.892)"/>
</clipPath>
<clipPath id="clip2_70_5627">
<rect width="22.9704" height="20.9613" fill="white" transform="translate(50.748 31.9922)"/>
</clipPath>
<clipPath id="clip3_70_5627">
<rect width="20.9741" height="20.9741" fill="white" transform="translate(263.18 200.911)"/>
</clipPath>
<clipPath id="clip4_70_5627">
<rect width="20.9741" height="20.0079" fill="white" transform="translate(231.189 31.9922)"/>
</clipPath>
</defs>
</svg>
