<svg width="440" height="441" viewBox="0 0 440 441" fill="none" xmlns="http://www.w3.org/2000/svg">
<g clip-path="url(#clip0_58_4805)">
<path d="M315.976 22.3065L330.177 29.8035L321.601 85.9693L308.015 78.8103L309.798 67.7492L294.245 59.5456L286.315 67.3805L274.297 61.0511L315.976 22.3372V22.3065ZM301.315 52.3251L311.642 57.7635L314.931 39.3591L314.655 39.2054L301.315 52.3251Z" fill="#F6F7F9"/>
<path d="M370.35 58.0093L381.047 70.1765L369.92 103.022L370.074 103.206L392.635 83.3884L401.057 92.9747L360.73 128.401L351.293 117.647L363.803 81.1761L363.588 80.9303L338.445 103.022L330.023 93.4355L370.35 58.0093Z" fill="#F6F7F9"/>
<path d="M416.24 120.074L422.664 133.747L374.069 156.607L367.645 142.934L416.24 120.074Z" fill="#F6F7F9"/>
<path d="M433.453 162.045L437.448 184.966C439.508 196.764 436.096 203.862 427.121 205.398C421.066 206.443 416.732 204.354 413.935 198.608H413.689C413.689 205.46 410.922 210.652 403.115 212.004C394.539 213.51 387.07 208.809 384.673 195.105L380.523 171.263L433.453 162.076V162.045ZM393.771 190.343C394.57 194.921 397.183 197.287 401.824 196.488C406.404 195.689 407.91 192.678 407.019 187.639L406.004 181.74L392.695 184.044L393.802 190.343H393.771ZM414.949 185.673C415.656 189.759 417.9 192.371 422.633 191.572C427.028 190.804 428.289 188.161 427.49 183.676L426.537 178.176L414.027 180.357L414.949 185.703V185.673Z" fill="#F6F7F9"/>
<path d="M440 233.266L438.617 248.291L385.135 243.344L386.518 228.319L440 233.266Z" fill="#F6F7F9"/>
<path d="M408.495 266.665L410.124 267.31C427.89 274.346 430.687 288.756 425.615 301.538C420.359 314.842 408.802 322.523 391.344 315.641L389.715 314.996C371.949 307.96 369.152 293.549 374.223 280.768C379.51 267.402 391.036 259.752 408.495 266.665ZM394.633 299.91L397.153 300.924C407.542 305.041 412.952 303.75 415.564 297.206C417.993 291.03 414.735 286.052 405.298 282.335L402.778 281.321C392.02 277.05 386.795 278.709 384.274 285.069C381.846 291.153 385.135 296.13 394.633 299.91Z" fill="#F6F7F9"/>
<path d="M396.877 354.6L382.615 368.795L352.861 352.757L352.646 352.972L368.599 382.775L354.491 396.817L316.592 358.779L327.073 348.332L352.646 373.957L352.861 373.742L334.942 340.497L342.349 333.093L375.545 351.221L375.822 350.944L350.218 325.258L358.978 316.501L396.908 354.539L396.877 354.6Z" fill="#F6F7F9"/>
<path d="M324.183 414.73L290.126 429.417L285.854 419.523L306.263 410.736L302.206 401.334L286.284 408.216L282.104 398.538L298.026 391.655L293.538 381.239L272.483 390.334L268.211 380.44L302.913 365.477L324.183 414.791V414.73Z" fill="#F6F7F9"/>
<path d="M222.321 441L207.352 439.525L209.38 418.939L192.598 417.28L190.569 437.866L175.539 436.391L180.795 382.96L195.825 384.435L193.643 406.526L210.426 408.185L212.608 386.094L227.577 387.569L222.321 441Z" fill="#F6F7F9"/>
<path d="M143.45 426.59L109.916 410.766L114.527 401.026L134.629 410.49L138.993 401.241L123.317 393.837L127.805 384.312L143.481 391.717L148.337 381.454L127.59 371.684L132.2 361.944L166.38 378.075L143.45 426.621V426.59Z" fill="#F6F7F9"/>
<path d="M72.4473 382.438L60.9824 371.192L85.3261 319.85L96.2685 330.604L91.3813 340.713L103.922 353.034L113.758 347.81L123.44 357.335L72.4166 382.499L72.4473 382.438ZM95.1312 357.888L86.8015 349.715L78.3488 366.399L78.564 366.614L95.1005 357.888H95.1312Z" fill="#F6F7F9"/>
<path d="M32.121 334.015L25.3281 320.619L63.5957 301.231L54.3746 283.042L63.9953 278.156L79.9785 309.711L32.0595 333.984L32.121 334.015Z" fill="#F6F7F9"/>
<path d="M17.2121 268.048L19.9477 281.935L9.37413 284.025L1.01367 241.532L11.5872 239.442L14.2921 253.238L56.4017 244.942L59.3217 259.752L17.2121 268.048Z" fill="#F6F7F9"/>
<path d="M0 211.113L2.18233 196.242L22.6532 199.253L25.1121 182.57L4.64129 179.559L6.85435 164.626L59.9986 172.461L57.7855 187.394L35.8086 184.137L33.3496 200.82L55.3266 204.077L53.1443 218.948L0 211.113Z" fill="#F6F7F9"/>
<path d="M41.8323 148.188L40.2033 147.328C22.9291 138.11 21.9762 124.284 28.9228 111.256C32.0887 105.326 34.7936 101.977 37.5599 100.011L47.2113 105.173C44.6601 107.416 42.5393 109.843 40.357 113.929C36.2997 121.549 37.7443 127.817 46.8425 132.672L48.9633 133.809C58 138.632 64.547 138.233 69.1883 129.476C71.7394 124.683 72.4156 121.058 72.6923 118.139L82.1285 123.178C81.8826 127.203 80.7761 131.781 77.5487 137.864C69.8645 152.244 57.8463 156.791 41.7709 148.219L41.8323 148.188Z" fill="#F6F7F9"/>
<path d="M65.9609 64.2771L77.7639 53.4004L127.835 80.2236L116.554 90.6087L106.718 85.2318L93.8087 97.1532L98.5422 107.231L88.5526 116.449L65.9609 64.2771ZM89.3825 88.12L97.9581 80.2236L81.6983 70.9753L81.4524 71.1903L89.3518 88.12H89.3825Z" fill="#F6F7F9"/>
<path d="M117.261 25.4405L138.07 16.8067C150.611 11.6141 158.879 13.7956 163.305 24.5187C166.133 31.309 164.535 36.0407 160.293 40.373L160.416 40.6802L180.334 57.4255L165.856 63.4169L149.351 49.0682L144.187 51.219L151.687 69.2854L137.794 75.0311L117.23 25.4405H117.261ZM145.847 40.7417C150.795 38.6831 151.748 35.5491 149.812 30.8788C147.875 26.2393 145.047 24.9796 139.945 27.0996L134.935 29.189L140.621 42.9232L145.877 40.7417H145.847Z" fill="#F6F7F9"/>
<path d="M188.387 2.36585L225.394 0L226.07 10.7538L203.909 12.1672L204.554 22.368L221.859 21.2619L222.536 31.7699L205.231 32.8761L205.968 44.183L228.867 42.7081L229.544 53.462L191.829 55.8893L188.387 2.33512V2.36585Z" fill="#F6F7F9"/>
</g>
<defs>
<clipPath id="clip0_58_4805">
<rect width="440" height="441" fill="white"/>
</clipPath>
</defs>
</svg>
