<svg width="40" height="40" viewBox="0 0 40 40" fill="none" xmlns="http://www.w3.org/2000/svg">
<path d="M19.375 16.25C20.4105 16.25 21.25 15.4105 21.25 14.375C21.25 13.3395 20.4105 12.5 19.375 12.5C18.3395 12.5 17.5 13.3395 17.5 14.375C17.5 15.4105 18.3395 16.25 19.375 16.25Z" fill="#212121"/>
<path d="M25.625 21.25C26.6605 21.25 27.5 20.4105 27.5 19.375C27.5 18.3395 26.6605 17.5 25.625 17.5C24.5895 17.5 23.75 18.3395 23.75 19.375C23.75 20.4105 24.5895 21.25 25.625 21.25Z" fill="#212121"/>
<path d="M20 21.25C20.6904 21.25 21.25 20.6904 21.25 20C21.25 19.3096 20.6904 18.75 20 18.75C19.3096 18.75 18.75 19.3096 18.75 20C18.75 20.6904 19.3096 21.25 20 21.25Z" fill="#212121"/>
<path d="M20.625 27.5C21.6605 27.5 22.5 26.6605 22.5 25.625C22.5 24.5895 21.6605 23.75 20.625 23.75C19.5895 23.75 18.75 24.5895 18.75 25.625C18.75 26.6605 19.5895 27.5 20.625 27.5Z" fill="#212121"/>
<path d="M14.375 22.5C15.4105 22.5 16.25 21.6605 16.25 20.625C16.25 19.5895 15.4105 18.75 14.375 18.75C13.3395 18.75 12.5 19.5895 12.5 20.625C12.5 21.6605 13.3395 22.5 14.375 22.5Z" fill="#212121"/>
<path d="M35 16.25V18.75H32.4365C32.1905 16.3082 31.2274 13.9939 29.6686 12.0984L31.4645 10.3027L33.2324 12.0709L35 10.3034L29.6972 5L27.9297 6.76763L29.6972 8.53513L27.901 10.3307C26.0057 8.7722 23.6915 7.80936 21.25 7.5635V5H23.75V2.5H16.25V5H18.75V7.5635C16.3085 7.80936 13.9943 8.7722 12.099 10.3307L10.3027 8.53513L12.0703 6.76763L10.3027 5L5 10.3034L6.76763 12.0709L8.5355 10.3027L10.3314 12.0984C8.77257 13.9939 7.80951 16.3082 7.5635 18.75H5V16.25H2.5V23.75H5V21.25H7.5635C7.80951 23.6918 8.77257 26.0061 10.3314 27.9016L8.5355 29.6972L6.76763 27.9291L5 29.6966L10.3027 35L12.0703 33.2324L10.3027 31.4649L12.099 29.6692C13.9943 31.2278 16.3085 32.1906 18.75 32.4365V35H16.25V37.5H23.75V35H21.25V32.4365C23.6915 32.1906 26.0057 31.2278 27.901 29.6692L29.6972 31.4649L27.9297 33.2324L29.6972 35L35 29.6966L33.2324 27.9291L31.4645 29.6972L29.6686 27.9016C31.2274 26.0061 32.1905 23.6918 32.4365 21.25H35V23.75H37.5V16.25H35ZM20 30C18.0222 30 16.0888 29.4135 14.4443 28.3147C12.7998 27.2159 11.5181 25.6541 10.7612 23.8268C10.0043 21.9996 9.8063 19.9889 10.1921 18.0491C10.578 16.1093 11.5304 14.3275 12.9289 12.9289C14.3275 11.5304 16.1093 10.578 18.0491 10.1921C19.9889 9.8063 21.9996 10.0043 23.8268 10.7612C25.6541 11.5181 27.2159 12.7998 28.3147 14.4443C29.4135 16.0888 30 18.0222 30 20C29.997 22.6512 28.9424 25.193 27.0677 27.0677C25.193 28.9424 22.6512 29.997 20 30Z" fill="#212121"/>
</svg>
