<svg width="40" height="40" viewBox="0 0 40 40" fill="none" xmlns="http://www.w3.org/2000/svg">
<path d="M36 15C36 13.7662 35.4296 12.6716 34.5319 11.9573C35.4296 11.243 36 10.1391 36 8.91466C36 6.75325 34.2326 5 32.0538 5C30.8101 5 29.7066 5.56586 28.9866 6.4564C28.2665 5.56586 27.1537 5 25.9193 5C24.7972 5 23.7873 5.46382 23.0672 6.21521C22.3472 5.4731 21.3372 5 20.2151 5C18.9714 5 17.8679 5.56586 17.1479 6.4564C16.4278 5.56586 15.315 5 14.0807 5C12.8463 5 11.7335 5.56586 11.0134 6.4564C10.2934 5.56586 9.1806 5 7.94623 5C5.76739 5 4 6.75325 4 8.91466C4 10.1484 4.57043 11.243 5.46815 11.9573C4.57043 12.6716 4 13.7755 4 15C4 16.2245 4.57043 17.3284 5.46815 18.0427C4.57043 18.757 4 19.8609 4 21.0853C4 22.1985 4.46756 23.2004 5.22501 23.9147C4.47691 24.6289 4 25.6308 4 26.744C4 28.9054 5.76739 30.6586 7.94623 30.6586C10.1251 30.6586 11.8925 28.9054 11.8925 26.744C11.8925 25.6308 11.4249 24.6289 10.6674 23.9147C11.4155 23.2004 11.8925 22.1985 11.8925 21.0853C11.8925 19.8516 11.322 18.757 10.4243 18.0427C11.322 17.3284 11.8925 16.2245 11.8925 15C11.8925 13.7755 11.322 12.6716 10.4243 11.9573C10.6394 11.7811 10.8358 11.5863 11.0134 11.3729C11.7335 12.2635 12.8463 12.8293 14.0807 12.8293C15.315 12.8293 16.4278 12.2635 17.1479 11.3729C17.8679 12.2635 18.9807 12.8293 20.2151 12.8293C21.3372 12.8293 22.3472 12.3655 23.0672 11.6141C23.7873 12.3562 24.7972 12.8293 25.9193 12.8293C27.1631 12.8293 28.2665 12.2635 28.9866 11.3729C29.1642 11.5863 29.3606 11.7811 29.5757 11.9573C28.678 12.6716 28.1075 13.7755 28.1075 15C28.1075 16.2245 28.678 17.3284 29.5757 18.0427C28.678 18.757 28.1075 19.8609 28.1075 21.0853C28.1075 22.1985 28.5751 23.2004 29.3326 23.9147C29.211 24.026 29.0894 24.1558 28.9866 24.2857C28.2665 23.3952 27.1537 22.8293 25.9193 22.8293C23.7405 22.8293 21.9731 24.5826 21.9731 26.744C21.9731 28.0612 22.6371 29.2301 23.647 29.9351C23.1607 30.4731 22.8521 31.1781 22.8521 31.9573C22.8521 33.6364 24.2268 35 25.9193 35C27.6119 35 28.9866 33.6364 28.9866 31.9573C28.9866 31.1781 28.678 30.4731 28.1917 29.9258C28.4909 29.7124 28.7621 29.4712 28.9866 29.1929C29.7066 30.0835 30.8194 30.6494 32.0538 30.6494C34.2326 30.6494 36 28.8961 36 26.7347C36 25.6215 35.5324 24.6197 34.775 23.9054C35.5231 23.1911 36 22.1892 36 21.0761C36 19.8423 35.4296 18.7477 34.5319 18.0334C35.4296 17.3191 36 16.2152 36 14.9907V15Z" stroke="#212121" stroke-width="2.3" stroke-linejoin="round"/>
</svg>
