<svg width="40" height="40" viewBox="0 0 40 40" fill="none" xmlns="http://www.w3.org/2000/svg">
<mask id="path-1-inside-1_518_4284" fill="white">
<path fill-rule="evenodd" clip-rule="evenodd" d="M21.8618 13.4746C21.9771 16.5253 22.0028 19.7896 22.009 21.0108C22.479 21.2807 22.799 21.7904 22.799 22.3702C22.799 23.2297 22.099 23.9294 21.229 23.9294C20.359 23.9294 19.669 23.2297 19.669 22.3702C19.669 21.8204 19.949 21.3407 20.379 21.0608C20.4343 20.4182 20.6283 17.082 20.5796 13.4746H21.8618ZM23.8609 13.4746H36.77V28.6081C36.77 32.4461 33.66 35.5546 29.82 35.5546H10.95C7.11 35.5546 4 32.4461 4 28.6081V13.4746H18.5776C18.6187 16.0062 18.5451 18.5192 18.439 20.1513C17.939 20.7709 17.659 21.5506 17.659 22.3702C17.659 24.3392 19.259 25.9284 21.219 25.9284C23.179 25.9284 24.789 24.3292 24.789 22.3702C24.789 21.5506 24.499 20.761 23.999 20.1313C23.9878 18.5593 23.9542 15.9614 23.8609 13.4746Z"/>
</mask>
<path d="M21.8618 13.4746L24.1601 13.3877L24.0765 11.1746H21.8618V13.4746ZM22.009 21.0108L19.7091 21.0226L19.7158 22.3463L20.8638 23.0054L22.009 21.0108ZM20.379 21.0608L21.6336 22.9885L22.5744 22.3762L22.6706 21.2578L20.379 21.0608ZM20.5796 13.4746V11.1746H18.2484L18.2798 13.5057L20.5796 13.4746ZM36.77 13.4746H39.07V11.1746H36.77V13.4746ZM23.8609 13.4746V11.1746H21.4729L21.5625 13.5609L23.8609 13.4746ZM4 13.4746V11.1746H1.7V13.4746H4ZM18.5776 13.4746L20.8773 13.4373L20.8405 11.1746H18.5776V13.4746ZM18.439 20.1513L20.229 21.5955L20.6869 21.028L20.7342 20.3004L18.439 20.1513ZM23.999 20.1313L21.6991 20.1478L21.7048 20.9406L22.1978 21.5615L23.999 20.1313ZM19.5634 13.5615C19.6773 16.5733 19.7029 19.8069 19.7091 21.0226L24.309 20.9991C24.3027 19.7723 24.277 16.4773 24.1601 13.3877L19.5634 13.5615ZM20.8638 23.0054C20.654 22.885 20.499 22.6531 20.499 22.3702H25.099C25.099 20.9278 24.3041 19.6764 23.1543 19.0162L20.8638 23.0054ZM20.499 22.3702C20.499 21.9488 20.8394 21.6294 21.229 21.6294V26.2294C23.3586 26.2294 25.099 24.5106 25.099 22.3702H20.499ZM21.229 21.6294C21.6378 21.6294 21.969 21.968 21.969 22.3702H17.369C17.369 24.4914 19.0803 26.2294 21.229 26.2294V21.6294ZM21.969 22.3702C21.969 22.6278 21.8307 22.8602 21.6336 22.9885L19.1244 19.1331C18.0674 19.8211 17.369 21.013 17.369 22.3702H21.969ZM22.6706 21.2578C22.7324 20.5393 22.9291 17.127 22.8794 13.4436L18.2798 13.5057C18.3275 17.037 18.1362 20.297 18.0875 20.8638L22.6706 21.2578ZM21.8618 11.1746H20.5796V15.7746H21.8618V11.1746ZM36.77 11.1746H23.8609V15.7746H36.77V11.1746ZM39.07 28.6081V13.4746H34.47V28.6081H39.07ZM29.82 37.8546C34.9292 37.8546 39.07 33.7175 39.07 28.6081H34.47C34.47 31.1748 32.3908 33.2546 29.82 33.2546V37.8546ZM10.95 37.8546H29.82V33.2546H10.95V37.8546ZM1.7 28.6081C1.7 33.7175 5.84083 37.8546 10.95 37.8546V33.2546C8.37917 33.2546 6.3 31.1748 6.3 28.6081H1.7ZM1.7 13.4746V28.6081H6.3V13.4746H1.7ZM18.5776 11.1746H4V15.7746H18.5776V11.1746ZM16.2779 13.512C16.3181 15.9852 16.2456 18.4359 16.1439 20.0021L20.7342 20.3004C20.8445 18.6025 20.9194 16.0272 20.8773 13.4373L16.2779 13.512ZM16.649 18.707C15.8197 19.7348 15.359 21.0239 15.359 22.3702H19.959C19.959 22.0772 20.0583 21.8071 20.229 21.5955L16.649 18.707ZM15.359 22.3702C15.359 25.6147 17.9941 28.2284 21.219 28.2284V23.6284C20.524 23.6284 19.959 23.0636 19.959 22.3702H15.359ZM21.219 28.2284C24.4398 28.2284 27.089 25.6089 27.089 22.3702H22.489C22.489 23.0495 21.9183 23.6284 21.219 23.6284V28.2284ZM27.089 22.3702C27.089 21.0086 26.6089 19.7195 25.8003 18.701L22.1978 21.5615C22.3891 21.8024 22.489 22.0925 22.489 22.3702H27.089ZM26.299 20.1148C26.2876 18.5326 26.2539 15.9086 26.1592 13.3883L21.5625 13.5609C21.6546 16.0143 21.6879 18.5859 21.6991 20.1478L26.299 20.1148Z" fill="#212121" mask="url(#path-1-inside-1_518_4284)"/>
<path d="M19.5925 20.7299L19.6603 20.6635L19.667 20.5688C19.7826 18.9372 19.9028 15.6806 19.8138 12.4783C19.7693 10.8771 19.6724 9.28504 19.4954 7.91423C19.3196 6.55196 19.0614 5.37868 18.6801 4.63502L18.68 4.63483C18.5379 4.35825 18.5823 4.02059 18.7931 3.78726L18.6077 3.61965L18.793 3.78742C18.9319 3.63393 19.1326 3.5498 19.3477 3.5498C19.4528 3.5498 19.5487 3.56606 19.6315 3.60056L19.6315 3.60061L19.6366 3.6026C19.7842 3.66033 21.7714 4.53442 22.2796 8.57836L22.2797 8.57882C22.6573 11.5388 22.7376 17.9484 22.7477 20.5122L22.7481 20.6182L22.8246 20.6916C23.2764 21.1251 23.5377 21.72 23.5377 22.3603C23.5377 23.6327 22.4984 24.679 21.2277 24.679C19.9562 24.679 18.9177 23.642 18.9177 22.3603C18.9177 21.7361 19.1618 21.1514 19.5925 20.7299Z" fill="#212121" stroke="#F6F7F9" stroke-width="0.5"/>
</svg>
