<svg width="40" height="40" viewBox="0 0 40 40" fill="none" xmlns="http://www.w3.org/2000/svg">
<path d="M33.7512 35C33.557 35.0004 33.3653 34.9553 33.1915 34.8685C33.0178 34.7817 32.8666 34.6555 32.7502 34.5L31.7321 33.1425C30.7668 31.8559 30.0887 30.3771 29.7436 28.8061C29.3985 27.2351 29.3944 25.6083 29.7315 24.0355L31.5735 15.4403C31.836 14.217 31.833 12.9516 31.5646 11.7296C31.2962 10.5076 30.7687 9.35744 30.0178 8.35676L29 7.00001C28.9015 6.86868 28.8298 6.71925 28.7891 6.56023C28.7484 6.40121 28.7393 6.23573 28.7626 6.07323C28.7858 5.91073 28.8408 5.75439 28.9244 5.61314C29.008 5.47189 29.1187 5.3485 29.25 5.25001C29.3813 5.15151 29.5308 5.07985 29.6898 5.03911C29.8488 4.99837 30.0143 4.98935 30.1768 5.01257C30.3393 5.03578 30.4956 5.09078 30.6369 5.17441C30.7781 5.25805 30.9015 5.36868 31 5.50001L32.0181 6.85713C32.9834 8.14378 33.6615 9.62251 34.0066 11.1935C34.3518 12.7646 34.3559 14.3914 34.0188 15.9641L32.1767 24.5594C31.9142 25.7826 31.9173 27.048 32.1857 28.27C32.4541 29.492 32.9815 30.6422 33.7325 31.6429L34.75 33C34.8892 33.1856 34.974 33.4063 34.9949 33.6374C35.0158 33.8685 34.972 34.1009 34.8683 34.3085C34.7646 34.516 34.6052 34.6907 34.408 34.8128C34.2107 34.935 33.9833 34.9998 33.7512 35Z" fill="#161616"/>
<path d="M27.5012 35C27.307 35.0004 27.1153 34.9553 26.9415 34.8685C26.7678 34.7817 26.6166 34.6555 26.5002 34.5L25.4821 33.1425C24.5168 31.8559 23.8387 30.3771 23.4936 28.8061C23.1485 27.2351 23.1444 25.6083 23.4815 24.0355L25.3235 15.4403C25.586 14.217 25.583 12.9516 25.3146 11.7296C25.0462 10.5076 24.5187 9.35744 23.7678 8.35676L22.75 7.00001C22.6515 6.86868 22.5798 6.71925 22.5391 6.56023C22.4984 6.40121 22.4893 6.23573 22.5126 6.07323C22.5358 5.91073 22.5908 5.75439 22.6744 5.61314C22.758 5.47189 22.8687 5.3485 23 5.25001C23.1313 5.15151 23.2808 5.07985 23.4398 5.03911C23.5988 4.99837 23.7643 4.98935 23.9268 5.01257C24.0893 5.03578 24.2456 5.09078 24.3869 5.17441C24.5281 5.25805 24.6515 5.36868 24.75 5.50001L25.7681 6.85713C26.7334 8.14378 27.4115 9.62251 27.7566 11.1935C28.1018 12.7646 28.1059 14.3914 27.7688 15.9641L25.9267 24.5594C25.6642 25.7826 25.6673 27.048 25.9357 28.27C26.2041 29.492 26.7315 30.6422 27.4825 31.6429L28.5 33C28.6392 33.1856 28.724 33.4063 28.7449 33.6374C28.7658 33.8685 28.722 34.1009 28.6183 34.3085C28.5146 34.516 28.3552 34.6907 28.158 34.8128C27.9607 34.935 27.7333 34.9998 27.5012 35Z" fill="#161616"/>
<path d="M21.2512 35C21.057 35.0004 20.8653 34.9553 20.6915 34.8685C20.5178 34.7817 20.3666 34.6555 20.2502 34.5L19.2321 33.1425C18.2668 31.8559 17.5887 30.3771 17.2436 28.8061C16.8985 27.2351 16.8944 25.6083 17.2315 24.0355L19.0735 15.4403C19.336 14.217 19.333 12.9516 19.0646 11.7296C18.7962 10.5076 18.2687 9.35744 17.5178 8.35676L16.5 7.00001C16.4015 6.86868 16.3298 6.71925 16.2891 6.56023C16.2484 6.40121 16.2393 6.23573 16.2626 6.07323C16.2858 5.91073 16.3408 5.75439 16.4244 5.61314C16.508 5.47189 16.6187 5.3485 16.75 5.25001C16.8813 5.15151 17.0308 5.07985 17.1898 5.03911C17.3488 4.99837 17.5143 4.98935 17.6768 5.01257C17.8393 5.03578 17.9956 5.09078 18.1369 5.17441C18.2781 5.25805 18.4015 5.36868 18.5 5.50001L19.5181 6.85713C20.4834 8.14378 21.1615 9.62251 21.5066 11.1935C21.8518 12.7646 21.8559 14.3914 21.5188 15.9641L19.6767 24.5594C19.4142 25.7826 19.4173 27.048 19.6857 28.27C19.9541 29.492 20.4815 30.6422 21.2325 31.6429L22.25 33C22.3892 33.1856 22.474 33.4063 22.4949 33.6374C22.5158 33.8685 22.472 34.1009 22.3683 34.3085C22.2646 34.516 22.1052 34.6907 21.908 34.8128C21.7107 34.935 21.4833 34.9998 21.2512 35Z" fill="#161616"/>
<path d="M15.0013 35C14.807 35.0004 14.6153 34.9553 14.4415 34.8685C14.2678 34.7817 14.1166 34.6555 14.0003 34.5L12.9821 33.1425C12.0168 31.8559 11.3387 30.3771 10.9936 28.8061C10.6485 27.2351 10.6444 25.6083 10.9815 24.0355L12.8235 15.4403C13.086 14.217 13.0829 12.9517 12.8146 11.7297C12.5462 10.5077 12.0187 9.35755 11.2678 8.35688L10.25 7.00001C10.0511 6.73479 9.96568 6.40142 10.0126 6.07323C10.0594 5.74504 10.2348 5.44892 10.5 5.25001C10.7652 5.05109 11.0986 4.96568 11.4268 5.01257C11.755 5.05945 12.0511 5.23479 12.25 5.50001L13.2681 6.85713C14.2334 8.14378 14.9115 9.62251 15.2566 11.1935C15.6018 12.7646 15.6059 14.3914 15.2688 15.9641L13.4267 24.5594C13.1642 25.7827 13.1673 27.048 13.4357 28.27C13.7041 29.492 14.2315 30.6422 14.9825 31.6429L16 33C16.1392 33.1856 16.224 33.4063 16.2449 33.6374C16.2658 33.8685 16.222 34.1009 16.1183 34.3085C16.0146 34.516 15.8552 34.6907 15.658 34.8128C15.4607 34.935 15.2333 34.9998 15.0013 35Z" fill="#161616"/>
<path d="M8.75125 35C8.55695 35.0004 8.36524 34.9554 8.19141 34.8686C8.01758 34.7818 7.86642 34.6556 7.75 34.5L6.73187 33.1425C5.76668 31.8558 5.08871 30.3771 4.74369 28.806C4.39867 27.235 4.39464 25.6082 4.73188 24.0355L6.57387 15.4403C6.83632 14.217 6.83321 12.9516 6.56476 11.7296C6.2963 10.5077 5.76876 9.35752 5.01775 8.35688L4 7.00001C3.90151 6.86868 3.82985 6.71925 3.78911 6.56023C3.74837 6.40121 3.73935 6.23573 3.76256 6.07323C3.78578 5.91073 3.84077 5.75439 3.92441 5.61314C4.00804 5.47189 4.11868 5.3485 4.25 5.25001C4.38132 5.15151 4.53076 5.07985 4.68977 5.03911C4.84879 4.99837 5.01427 4.98935 5.17678 5.01257C5.33928 5.03578 5.49562 5.09078 5.63687 5.17441C5.77812 5.25805 5.90151 5.36868 6 5.50001L7.01813 6.85713C7.98342 8.14378 8.66151 9.62251 9.00664 11.1935C9.35176 12.7646 9.35589 14.3914 9.01875 15.9641L7.1765 24.5593C6.91399 25.7825 6.91703 27.0479 7.18541 28.2699C7.4538 29.4919 7.98129 30.6421 8.73225 31.6428L9.75 33C9.88922 33.1856 9.97403 33.4063 9.99492 33.6374C10.0158 33.8685 9.97198 34.1009 9.86831 34.3085C9.76465 34.516 9.60525 34.6907 9.40796 34.8128C9.21067 34.935 8.98328 34.9998 8.75125 35Z" fill="#161616"/>
</svg>
