<svg width="475" height="262" viewBox="0 0 475 262" fill="none" xmlns="http://www.w3.org/2000/svg">
<ellipse cx="51" cy="29.985" rx="30" ry="29.985" fill="#F6F7F9"/>
<ellipse cx="411" cy="29.985" rx="30" ry="29.985" fill="#F6F7F9"/>
<g clip-path="url(#clip0_281_6405)">
<path d="M427.78 25.166H395V38.2995C395 42.1375 398.11 45.246 401.95 45.246H420.82C424.66 45.246 427.77 42.1375 427.77 38.2995V25.166H427.78Z" fill="#C4CACE"/>
<path d="M412.232 36.6214C410.822 36.6214 409.672 35.472 409.672 34.0527C409.672 33.363 409.942 32.7133 410.422 32.2436C410.652 28.9952 410.902 19.2501 409.462 16.4415C409.272 16.0716 409.332 15.6219 409.612 15.312C409.802 15.1021 410.072 14.9922 410.352 14.9922C410.482 14.9922 410.612 15.0122 410.732 15.0622C410.962 15.1521 413.012 16.1016 413.532 20.2396C413.912 23.2181 413.992 29.6449 414.002 32.2036C414.502 32.6834 414.792 33.343 414.792 34.0527C414.792 35.462 413.642 36.6214 412.232 36.6214Z" fill="#1CAB81"/>
<path d="M410.351 15.9912C410.351 15.9912 412.071 16.6908 412.541 20.369C412.941 23.5274 413.001 30.7438 413.011 32.7028C413.481 32.9727 413.801 33.4825 413.801 34.0622C413.801 34.9217 413.101 35.6214 412.231 35.6214C411.361 35.6214 410.671 34.9217 410.671 34.0622C410.671 33.5124 410.951 33.0327 411.381 32.7528C411.491 31.4735 412.151 19.5194 410.351 16.0012M410.351 14.0022C409.801 14.0022 409.261 14.2321 408.881 14.6519C408.311 15.2715 408.191 16.1711 408.571 16.9107C409.761 19.2496 409.691 27.9952 409.441 31.8433C408.941 32.463 408.661 33.2426 408.661 34.0622C408.661 36.0312 410.261 37.6204 412.221 37.6204C414.181 37.6204 415.791 36.0212 415.791 34.0622C415.791 33.2426 415.501 32.453 415.001 31.8233C414.981 29.0347 414.891 23.0177 414.521 20.1191C413.931 15.5214 411.571 14.332 411.101 14.1421C410.851 14.0422 410.601 13.9922 410.341 13.9922L410.351 14.0022Z" fill="white"/>
<path d="M399.738 25.2975C399.738 25.2975 400.328 21.0996 399.148 17.7812C399.148 17.7812 401.298 20.0301 401.098 25.2975C401.098 25.2975 399.728 25.1975 399.728 25.2975H399.738Z" fill="#C4CACE"/>
<path d="M420.5 25.2975C420.5 25.2975 421.09 21.0996 419.91 17.7812C419.91 17.7812 422.06 20.0301 421.86 25.2975C421.86 25.2975 420.49 25.1975 420.49 25.2975H420.5Z" fill="#C4CACE"/>
<path d="M404.072 25.2958C404.072 25.2958 404.542 21.9475 403.602 19.2988C403.602 19.2988 405.312 21.0879 405.162 25.2958C405.162 25.2958 404.072 25.2159 404.072 25.2958Z" fill="#C4CACE"/>
</g>
<g clip-path="url(#clip1_281_6405)">
<path d="M67.22 24.7922C67.22 23.4629 66.61 22.2835 65.65 21.5138C66.61 20.7442 67.22 19.5548 67.22 18.2355C67.22 15.9066 65.33 14.0176 63 14.0176C61.67 14.0176 60.49 14.6273 59.72 15.5868C58.95 14.6273 57.76 14.0176 56.44 14.0176C55.24 14.0176 54.16 14.5173 53.39 15.3269C52.62 14.5273 51.54 14.0176 50.34 14.0176C49.01 14.0176 47.83 14.6273 47.06 15.5868C46.29 14.6273 45.1 14.0176 43.78 14.0176C42.46 14.0176 41.27 14.6273 40.5 15.5868C39.73 14.6273 38.54 14.0176 37.22 14.0176C34.89 14.0176 33 15.9066 33 18.2355C33 19.5648 33.61 20.7442 34.57 21.5138C33.61 22.2835 33 23.4729 33 24.7922C33 26.1115 33.61 27.3009 34.57 28.0706C33.61 28.8402 33 30.0296 33 31.3489C33 32.5483 33.5 33.6278 34.31 34.3974C33.51 35.167 33 36.2465 33 37.4459C33 39.7747 34.89 41.6638 37.22 41.6638C39.55 41.6638 41.44 39.7747 41.44 37.4459C41.44 36.2465 40.94 35.167 40.13 34.3974C40.93 33.6278 41.44 32.5483 41.44 31.3489C41.44 30.0196 40.83 28.8402 39.87 28.0706C40.83 27.3009 41.44 26.1115 41.44 24.7922C41.44 23.4729 40.83 22.2835 39.87 21.5138C40.1 21.3239 40.31 21.114 40.5 20.8841C41.27 21.8437 42.46 22.4534 43.78 22.4534C45.1 22.4534 46.29 21.8437 47.06 20.8841C47.83 21.8437 49.02 22.4534 50.34 22.4534C51.54 22.4534 52.62 21.9536 53.39 21.144C54.16 21.9436 55.24 22.4534 56.44 22.4534C57.77 22.4534 58.95 21.8437 59.72 20.8841C59.91 21.114 60.12 21.3239 60.35 21.5138C59.39 22.2835 58.78 23.4729 58.78 24.7922C58.78 26.1115 59.39 27.3009 60.35 28.0706C59.39 28.8402 58.78 30.0296 58.78 31.3489C58.78 32.5483 59.28 33.6278 60.09 34.3974C59.96 34.5173 59.83 34.6573 59.72 34.7972C58.95 33.8377 57.76 33.228 56.44 33.228C54.11 33.228 52.22 35.117 52.22 37.4459C52.22 38.8652 52.93 40.1245 54.01 40.8842C53.49 41.4639 53.16 42.2235 53.16 43.0631C53.16 44.8722 54.63 46.3414 56.44 46.3414C58.25 46.3414 59.72 44.8722 59.72 43.0631C59.72 42.2235 59.39 41.4639 58.87 40.8742C59.19 40.6443 59.48 40.3844 59.72 40.0846C60.49 41.0441 61.68 41.6538 63 41.6538C65.33 41.6538 67.22 39.7647 67.22 37.4359C67.22 36.2365 66.72 35.157 65.91 34.3874C66.71 33.6178 67.22 32.5383 67.22 31.3389C67.22 30.0096 66.61 28.8302 65.65 28.0606C66.61 27.291 67.22 26.1015 67.22 24.7822V24.7922Z" fill="#C4CACE"/>
<path d="M49.9095 25.1719H48.9595C48.4404 25.1719 48.0195 25.5925 48.0195 26.1114V32.7181C48.0195 33.237 48.4404 33.6576 48.9595 33.6576H49.9095C50.4287 33.6576 50.8495 33.237 50.8495 32.7181V26.1114C50.8495 25.5925 50.4287 25.1719 49.9095 25.1719Z" fill="#1CAB81"/>
<path d="M52.7414 28H46.1314C45.6123 28 45.1914 28.4206 45.1914 28.9395V29.8891C45.1914 30.4079 45.6123 30.8286 46.1314 30.8286H52.7414C53.2606 30.8286 53.6814 30.4079 53.6814 29.8891V28.9395C53.6814 28.4206 53.2606 28 52.7414 28Z" fill="#1CAB81"/>
</g>
<ellipse cx="51" cy="162.003" rx="30" ry="29.985" fill="#F6F7F9"/>
<path d="M53.4988 147.828C53.5057 149.256 53.5148 151.02 53.5023 151.759C53.4748 153.357 53.6394 154.718 54.6977 154.878C56.5114 155.15 57.9331 152.206 60.829 152.206C63.7238 152.206 65.7124 155.372 66.4872 157.678C67.2632 159.984 67.0484 163.919 66.5672 165.628C66.0872 167.335 65.3353 171.135 60.1696 174.155C57.7182 175.587 53.4314 176.031 51.0017 175.882C48.5732 175.733 45.6007 174.69 43.9207 172.403C42.2396 170.117 38.8019 170.83 38.8019 173.343L38.8133 176.206C38.8168 177.207 38.0088 178.018 37.0076 178.018H36.8568C35.8568 178.018 35.0339 177.207 35.0157 176.206C34.9974 175.198 34.9859 174.082 35.0351 173.342C35.1597 171.493 35.6682 169.483 37.4191 167.52C40.3676 164.214 42.475 166.684 43.795 167.397C45.1138 168.11 46.2749 165.892 49.068 167.428C49.068 167.428 49.7926 164.08 53.3446 163.515C53.3446 163.515 49.7332 162.018 49.7332 153.002C49.6669 152.309 49.6703 149.658 49.6829 147.829C49.6897 146.828 50.5092 146.018 51.5103 146.018H51.6794C52.6806 146.018 53.4943 146.828 53.4988 147.828Z" fill="#1CAB81"/>
<ellipse cx="411" cy="161.985" rx="30" ry="29.985" fill="#F6F7F9"/>
<path d="M43.1104 68.8711V77.9355H41.5928V73.7793H39.2139V72.5215H41.5928V68.8711H43.1104ZM32.9248 75.4199C35.584 74.5791 37.3408 73 37.6348 71.0449H33.5674V69.8008H39.2959C39.2959 73.0615 37.1426 75.4951 33.5674 76.6367L32.9248 75.4199ZM35.0576 80.9707V77.0195H36.6025V79.7402H43.4248V80.9707H35.0576ZM54.6084 68.8574V71.8652H56.3311V73.1094H54.6084V76.1035H53.0908V68.8574H54.6084ZM44.8193 75.0645C47.6152 74.2988 49.2832 72.7881 49.543 70.9355H45.3799V69.7051H51.1904C51.1973 72.9521 49.0781 75.2627 45.4209 76.2949L44.8193 75.0645ZM46.4873 78.7285C46.4736 77.2041 48.1279 76.2539 50.6162 76.2539C53.125 76.2539 54.7451 77.2041 54.7451 78.7285C54.7451 80.2666 53.125 81.21 50.6162 81.2031C48.1279 81.21 46.4736 80.2666 46.4873 78.7285ZM47.9912 78.7285C47.9844 79.5352 48.9824 80.0137 50.6162 80.0137C52.2432 80.0137 53.248 79.5352 53.2549 78.7285C53.248 77.915 52.2432 77.4434 50.6162 77.4434C48.9824 77.4434 47.9844 77.915 47.9912 78.7285ZM66.708 68.8711V72.7539H68.4307V74.0117H66.708V78.0996H65.1904V68.8711H66.708ZM56.9736 71.4551V70.2383H59.8857V68.8574H61.4033V70.2383H64.3018V71.4551H56.9736ZM57.6025 74.3262C57.6025 72.9043 58.8398 71.9609 60.6377 71.9609C62.4219 71.9609 63.6523 72.9043 63.6592 74.3262C63.6523 75.7412 62.4219 76.6641 60.6377 76.6641C58.8398 76.6641 57.6025 75.7412 57.6025 74.3262ZM58.792 80.9707V77.375H60.3096V79.7402H67.2002V80.9707H58.792ZM59.0791 74.3262C59.0723 75.0713 59.7012 75.4951 60.6377 75.4883C61.5742 75.4951 62.21 75.0713 62.21 74.3262C62.21 73.5742 61.5742 73.1367 60.6377 73.1367C59.7012 73.1367 59.0723 73.5742 59.0791 74.3262ZM14.7686 87.9922V90.8496H16.7783V87.9922H18.1865V96.2227H13.333V87.9922H14.7686ZM14.7686 94.9922H16.7783V92.0527H14.7686V94.9922ZM19.4033 98.6152V87.0762H20.8389V91.6289H22.1514V86.8574H23.6143V99.2168H22.1514V92.8867H20.8389V98.6152H19.4033ZM35.3994 86.8711V95.9902H33.8818V92.8867H31.3936V93.9805H25.6104V87.6777H27.1279V89.6738H29.8896V87.6777H31.3936V89.0039H33.8818V86.8711H35.3994ZM27.1279 92.7773H29.8896V90.8496H27.1279V92.7773ZM27.251 98.9707V95.0879H28.7959V97.7402H35.6729V98.9707H27.251ZM31.3936 91.6562H33.8818V90.2344H31.3936V91.6562ZM41.5244 88.8262C41.5244 90.3779 42.5293 91.8477 44.4365 92.4492L43.6162 93.6387C42.2832 93.1875 41.3262 92.2852 40.7861 91.1367C40.2529 92.4492 39.2549 93.4814 37.833 93.9805L37.0127 92.791C39.002 92.1006 40 90.4531 40.0068 88.6895V87.5137H41.5244V88.8262ZM38.6943 96.8516C38.6943 95.3887 40.3008 94.5205 42.8779 94.5273C45.4346 94.5205 47.0137 95.3887 47.0205 96.8516C47.0137 98.3486 45.4346 99.2031 42.8779 99.2031C40.3008 99.2031 38.6943 98.3486 38.6943 96.8516ZM40.2119 96.8516C40.2119 97.6172 41.1826 98 42.8779 98C44.5664 98 45.5166 97.6172 45.5166 96.8516C45.5166 96.127 44.5664 95.7168 42.8779 95.7168C41.1826 95.7168 40.2119 96.127 40.2119 96.8516ZM45.3799 94.2539V86.8574H46.8975V89.8652H48.6201V91.123H46.8975V94.2539H45.3799ZM54.6768 88.1973V89.4141H51.1494V91.4375H54.458V92.627H51.1494V95.0332C52.6807 95.0195 53.7402 94.9648 54.9912 94.7734L55.1143 96.0176C53.6719 96.2637 52.4619 96.3115 50.5342 96.3047H49.7002V88.1973H54.6768ZM55.7432 98.6152V87.0762H57.1787V91.7109H58.4502V86.8574H59.9131V99.2168H58.4502V92.9414H57.1787V98.6152H55.7432ZM75.9502 93.7891V95.0195H73.2021V99.2168H71.6572V95.0195H68.9229V99.2168H67.3643V95.0195H64.6572V93.7891H75.9502ZM65.8467 90.0566C65.8398 88.375 67.6445 87.3018 70.2764 87.2949C72.9082 87.3018 74.7266 88.375 74.7334 90.0566C74.7266 91.7178 72.9082 92.7637 70.2764 92.7637C67.6445 92.7637 65.8398 91.7178 65.8467 90.0566ZM67.4053 90.0566C67.3984 91 68.5332 91.5537 70.2764 91.5605C72.0264 91.5537 73.1611 91 73.1611 90.0566C73.1611 89.0859 72.0264 88.5254 70.2764 88.5254C68.5332 88.5254 67.3984 89.0859 67.4053 90.0566ZM81.4326 90.3711C81.4326 92.3945 82.6221 94.5273 84.6182 95.3613L83.7842 96.5645C82.3213 95.9287 81.2549 94.6367 80.6875 93.0645C80.1201 94.7598 79.0332 96.1816 77.5908 96.8652L76.7158 95.6758C78.6641 94.7734 79.8809 92.4697 79.8877 90.3711V89.332H77.167V88.0742H84.1396V89.332H81.4326V90.3711ZM85.5205 99.2168V86.8574H87.0518V99.2168H85.5205Z" fill="#616161"/>
<path d="M385.406 68.8379V77.9023H383.889V73.7461H381.51V72.4883H383.889V68.8379H385.406ZM375.221 75.3867C377.88 74.5459 379.637 72.9668 379.931 71.0117H375.863V69.7676H381.592C381.592 73.0283 379.438 75.4619 375.863 76.6035L375.221 75.3867ZM377.354 80.9375V76.9863H378.898V79.707H385.721V80.9375H377.354ZM396.904 68.8242V71.832H398.627V73.0762H396.904V76.0703H395.387V68.8242H396.904ZM387.115 75.0312C389.911 74.2656 391.579 72.7549 391.839 70.9023H387.676V69.6719H393.486C393.493 72.9189 391.374 75.2295 387.717 76.2617L387.115 75.0312ZM388.783 78.6953C388.77 77.1709 390.424 76.2207 392.912 76.2207C395.421 76.2207 397.041 77.1709 397.041 78.6953C397.041 80.2334 395.421 81.1768 392.912 81.1699C390.424 81.1768 388.77 80.2334 388.783 78.6953ZM390.287 78.6953C390.28 79.502 391.278 79.9805 392.912 79.9805C394.539 79.9805 395.544 79.502 395.551 78.6953C395.544 77.8818 394.539 77.4102 392.912 77.4102C391.278 77.4102 390.28 77.8818 390.287 78.6953ZM409.004 68.8379V72.7207H410.727V73.9785H409.004V78.0664H407.486V68.8379H409.004ZM399.27 71.4219V70.2051H402.182V68.8242H403.699V70.2051H406.598V71.4219H399.27ZM399.898 74.293C399.898 72.8711 401.136 71.9277 402.934 71.9277C404.718 71.9277 405.948 72.8711 405.955 74.293C405.948 75.708 404.718 76.6309 402.934 76.6309C401.136 76.6309 399.898 75.708 399.898 74.293ZM401.088 80.9375V77.3418H402.605V79.707H409.496V80.9375H401.088ZM401.375 74.293C401.368 75.0381 401.997 75.4619 402.934 75.4551C403.87 75.4619 404.506 75.0381 404.506 74.293C404.506 73.541 403.87 73.1035 402.934 73.1035C401.997 73.1035 401.368 73.541 401.375 74.293ZM425 68.8242V81.1836H423.469V68.8242H425ZM414.65 77.0137C415.129 77.0137 415.642 77.0068 416.182 77V71.2715H414.979V70.0273H421.992V71.2715H420.803V76.8154C421.391 76.7676 421.979 76.7129 422.539 76.6445L422.621 77.7793C419.969 78.21 417.077 78.2578 414.801 78.2578L414.65 77.0137ZM417.645 76.9727C418.191 76.959 418.752 76.9385 419.312 76.9043V71.2715H417.645V76.9727ZM438.057 76.0156V77.2188H433.135V81.1836H431.631V77.2188H426.764V76.0156H438.057ZM428.131 74.7305V69.3164H429.635V70.834H435.158V69.3164H436.689V74.7305H428.131ZM429.635 73.5H435.158V72.0371H429.635V73.5ZM442.268 80.1035C440.244 80.1104 439 78.9141 439 77.3418C439 76.1729 439.752 75.4619 440.859 74.6963C440.292 73.9922 439.848 73.2676 439.848 72.3926C439.848 70.9844 440.873 69.9453 442.432 69.9453C443.99 69.9453 444.954 70.9775 444.947 72.1875C444.954 73.1309 444.462 73.8486 443.635 74.4434L443.006 74.9082L444.817 77.0342C445.077 76.542 445.234 75.9609 445.234 75.3047H446.738C446.731 76.665 446.355 77.6289 445.877 78.2715L447.326 79.9668H445.439L444.804 79.2422C444.1 79.8369 443.136 80.1104 442.268 80.1035ZM440.709 77.2598C440.709 78.0459 441.345 78.6748 442.322 78.6816C442.849 78.6816 443.389 78.4902 443.854 78.1553L441.796 75.79L441.639 75.9062C440.969 76.3984 440.709 76.918 440.709 77.2598ZM441.393 72.4199C441.399 72.8711 441.7 73.3291 442.11 73.8418L442.678 73.459C443.197 73.124 443.471 72.7686 443.471 72.2695C443.471 71.8389 443.088 71.374 442.459 71.3809C441.83 71.374 441.399 71.8799 441.393 72.4199ZM353.934 87.8633V88.8477H356.422V86.8379H357.939V95.834H356.422V92.7168H353.934V93.7832H348.123V87.8633H353.934ZM349.641 92.5938H352.43V89.0664H349.641V92.5938ZM349.791 98.9375V95H351.336V97.707H358.213V98.9375H349.791ZM353.934 91.5H356.422V90.0918H353.934V91.5ZM370.039 94.7129V99.1836H368.521V95.916H361.617V94.7129H370.039ZM359.854 90.502C359.854 88.752 361.255 87.4941 363.121 87.5078C364.14 87.501 365.028 87.8838 365.609 88.5332H368.521V86.8242H370.039V94.125H368.521V92.4844H365.623C365.035 93.1406 364.146 93.5371 363.121 93.5371C361.255 93.5371 359.854 92.2793 359.854 90.502ZM361.303 90.502C361.303 91.5752 362.062 92.2451 363.121 92.252C364.133 92.2451 364.905 91.5752 364.912 90.502C364.905 89.4697 364.133 88.7861 363.121 88.793C362.062 88.7861 361.303 89.4697 361.303 90.502ZM366.266 91.2539H368.521V89.7773H366.272C366.327 90.0098 366.361 90.249 366.361 90.502C366.361 90.7617 366.327 91.0146 366.266 91.2539ZM376.465 89.791C376.451 92.0605 377.647 94.3301 379.65 95.1914L378.748 96.4082C377.326 95.752 376.287 94.4463 375.713 92.833C375.146 94.5693 374.079 95.9912 372.582 96.6953L371.652 95.4238C373.71 94.5352 374.913 92.1768 374.92 89.791V87.8223H376.465V89.791ZM380.539 99.1973V86.8242H382.07V99.1973H380.539ZM390.273 88.5195C390.273 90.4268 392.14 92.3477 394.73 92.7988L394.047 94.0703C391.976 93.6396 390.28 92.3818 389.474 90.7207C388.66 92.3682 386.965 93.6328 384.9 94.0703L384.23 92.7988C386.78 92.334 388.653 90.4199 388.66 88.5195V87.6035H390.273V88.5195ZM383.889 97.6113V96.3535H395.182V97.6113H383.889ZM401.211 87.5898V88.8203H397.971V89.9824H400.746V91.1582H397.971V92.4297C399.447 92.416 400.473 92.3545 401.676 92.1426L401.84 93.332C400.411 93.5918 399.235 93.6465 397.328 93.6465H396.508V87.5898H401.211ZM398.217 99.0332V94.7402H406.557V99.0332H398.217ZM399.734 97.8027H405.053V95.9434H399.734V97.8027ZM401.279 91.0762V89.8457H402.674V87.0293H404.123V94.125H402.674V91.0762H401.279ZM405.107 94.2207V86.8242H406.557V94.2207H405.107ZM422.689 93.7559V94.9863H419.941V99.1836H418.396V94.9863H415.662V99.1836H414.104V94.9863H411.396V93.7559H422.689ZM412.586 90.0234C412.579 88.3418 414.384 87.2686 417.016 87.2617C419.647 87.2686 421.466 88.3418 421.473 90.0234C421.466 91.6846 419.647 92.7305 417.016 92.7305C414.384 92.7305 412.579 91.6846 412.586 90.0234ZM414.145 90.0234C414.138 90.9668 415.272 91.5205 417.016 91.5273C418.766 91.5205 419.9 90.9668 419.9 90.0234C419.9 89.0527 418.766 88.4922 417.016 88.4922C415.272 88.4922 414.138 89.0527 414.145 90.0234ZM428.172 90.3379C428.172 92.3613 429.361 94.4941 431.357 95.3281L430.523 96.5312C429.061 95.8955 427.994 94.6035 427.427 93.0312C426.859 94.7266 425.772 96.1484 424.33 96.832L423.455 95.6426C425.403 94.7402 426.62 92.4365 426.627 90.3379V89.2988H423.906V88.041H430.879V89.2988H428.172V90.3379ZM432.26 99.1836V86.8242H433.791V99.1836H432.26ZM446.273 86.8242V99.1836H444.811V86.8242H446.273ZM435.732 92.1699C435.732 89.4492 436.785 87.7607 438.398 87.7676C439.896 87.7607 440.914 89.1621 441.092 91.4727H442.281V87.043H443.73V98.582H442.281V92.7031H441.105C440.962 95.1162 439.93 96.5928 438.398 96.5859C436.785 96.5928 435.732 94.8975 435.732 92.1699ZM437.141 92.1699C437.134 94.1045 437.612 95.1436 438.398 95.1367C439.219 95.1436 439.704 94.1045 439.711 92.1699C439.704 90.2422 439.219 89.1963 438.398 89.2031C437.612 89.1963 437.134 90.2422 437.141 92.1699ZM461.066 92.4434V93.6465H457.402V96.4766H462.324V97.7207H451.031V96.4766H455.898V93.6465H452.398V87.7402H460.971V88.957H453.916V92.4434H461.066ZM468.75 87.0156C471.484 87.0225 473.2 87.9043 473.207 89.3945C473.2 90.8574 471.484 91.7324 468.75 91.7188C466.043 91.7324 464.293 90.8574 464.293 89.3945C464.293 87.9043 466.043 87.0225 468.75 87.0156ZM463.131 93.6875V92.4707H474.396V93.6875H469.502V94.877H473.029V99.0332H464.457V94.877H467.998V93.6875H463.131ZM465.879 89.3945C465.865 90.1465 466.945 90.5566 468.75 90.5566C470.555 90.5566 471.635 90.1465 471.635 89.3945C471.635 88.6084 470.555 88.1846 468.75 88.1914C466.945 88.1846 465.865 88.6084 465.879 89.3945ZM465.961 97.8027H471.553V96.0801H465.961V97.8027Z" fill="#616161"/>
<path d="M23.2998 200.771V209.836H21.7822V205.68H19.4033V204.422H21.7822V200.771H23.2998ZM13.1143 207.32C15.7734 206.479 17.5303 204.9 17.8242 202.945H13.7568V201.701H19.4854C19.4854 204.962 17.332 207.396 13.7568 208.537L13.1143 207.32ZM15.2471 212.871V208.92H16.792V211.641H23.6143V212.871H15.2471ZM34.7979 200.758V203.766H36.5205V205.01H34.7979V208.004H33.2803V200.758H34.7979ZM25.0088 206.965C27.8047 206.199 29.4727 204.688 29.7324 202.836H25.5693V201.605H31.3799C31.3867 204.853 29.2676 207.163 25.6104 208.195L25.0088 206.965ZM26.6768 210.629C26.6631 209.104 28.3174 208.154 30.8057 208.154C33.3145 208.154 34.9346 209.104 34.9346 210.629C34.9346 212.167 33.3145 213.11 30.8057 213.104C28.3174 213.11 26.6631 212.167 26.6768 210.629ZM28.1807 210.629C28.1738 211.436 29.1719 211.914 30.8057 211.914C32.4326 211.914 33.4375 211.436 33.4443 210.629C33.4375 209.815 32.4326 209.344 30.8057 209.344C29.1719 209.344 28.1738 209.815 28.1807 210.629ZM46.8975 200.771V204.654H48.6201V205.912H46.8975V210H45.3799V200.771H46.8975ZM37.1631 203.355V202.139H40.0752V200.758H41.5928V202.139H44.4912V203.355H37.1631ZM37.792 206.227C37.792 204.805 39.0293 203.861 40.8271 203.861C42.6113 203.861 43.8418 204.805 43.8486 206.227C43.8418 207.642 42.6113 208.564 40.8271 208.564C39.0293 208.564 37.792 207.642 37.792 206.227ZM38.9814 212.871V209.275H40.499V211.641H47.3896V212.871H38.9814ZM39.2686 206.227C39.2617 206.972 39.8906 207.396 40.8271 207.389C41.7637 207.396 42.3994 206.972 42.3994 206.227C42.3994 205.475 41.7637 205.037 40.8271 205.037C39.8906 205.037 39.2617 205.475 39.2686 206.227ZM56.6045 201.305C58.4844 201.298 59.8447 202.351 59.8447 203.902C59.8447 205.427 58.4844 206.493 56.6045 206.486C54.7451 206.493 53.3916 205.427 53.3916 203.902C53.3916 202.351 54.7451 201.298 56.6045 201.305ZM52.585 207.334C54.8135 207.334 57.9375 207.293 60.5967 206.896L60.7061 208.018C59.6396 208.223 58.5322 208.353 57.4521 208.435V212.734H55.9209V208.523C54.7793 208.571 53.7061 208.585 52.7764 208.592L52.585 207.334ZM54.8682 203.902C54.8613 204.729 55.5928 205.249 56.6045 205.242C57.6572 205.249 58.3955 204.729 58.3955 203.902C58.3955 203.048 57.6572 202.521 56.6045 202.535C55.5928 202.521 54.8613 203.048 54.8682 203.902ZM61.4033 213.104V200.771H62.9072V213.104H61.4033ZM69.1006 202.986C69.1006 204.497 70.0781 205.919 72.0127 206.514L71.2881 207.703C69.9004 207.266 68.916 206.384 68.376 205.27C67.8291 206.568 66.79 207.601 65.2998 208.1L64.5342 206.896C66.5234 206.247 67.5693 204.641 67.5693 203V202.85H64.958V201.619H71.6709V202.85H69.1006V202.986ZM66.2158 210.738C66.2158 209.262 67.8154 208.4 70.3994 208.4C72.9629 208.4 74.5352 209.262 74.542 210.738C74.5352 212.229 72.9629 213.104 70.3994 213.104C67.8154 213.104 66.2158 212.229 66.2158 210.738ZM67.7334 210.738C67.7334 211.504 68.7041 211.907 70.3994 211.914C72.0879 211.907 73.0381 211.504 73.0381 210.738C73.0381 209.986 72.0879 209.59 70.3994 209.59C68.7041 209.59 67.7334 209.986 67.7334 210.738ZM72.9014 208.127V200.758H74.4189V203.725H76.1416V204.969H74.4189V208.127H72.9014ZM83.6748 201.674V202.412C83.6611 203.253 83.6611 204.483 83.374 206.049L81.8701 205.912C82.1162 204.641 82.1641 203.69 82.1777 202.932H77.3721V201.674H83.6748ZM76.6338 207.033C77.3652 207.026 78.1855 207.02 79.0537 207.006V204.49H80.5576V206.958C81.8359 206.903 83.1484 206.808 84.3447 206.637L84.4268 207.73C81.8564 208.195 78.9375 208.243 76.7705 208.25L76.6338 207.033ZM78.4795 212.871V209.193H80.0107V211.641H87.0244V212.871H78.4795ZM85.0693 210.014V200.758H86.6279V204.613H88.2275V205.885H86.6279V210.014H85.0693ZM17.25 218.771V227.836H15.7324V223.68H13.3535V222.422H15.7324V218.771H17.25ZM7.06445 225.32C9.72363 224.479 11.4805 222.9 11.7744 220.945H7.70703V219.701H13.4355C13.4355 222.962 11.2822 225.396 7.70703 226.537L7.06445 225.32ZM9.19727 230.871V226.92H10.7422V229.641H17.5645V230.871H9.19727ZM28.748 218.758V221.766H30.4707V223.01H28.748V226.004H27.2305V218.758H28.748ZM18.959 224.965C21.7549 224.199 23.4229 222.688 23.6826 220.836H19.5195V219.605H25.3301C25.3369 222.853 23.2178 225.163 19.5605 226.195L18.959 224.965ZM20.627 228.629C20.6133 227.104 22.2676 226.154 24.7559 226.154C27.2646 226.154 28.8848 227.104 28.8848 228.629C28.8848 230.167 27.2646 231.11 24.7559 231.104C22.2676 231.11 20.6133 230.167 20.627 228.629ZM22.1309 228.629C22.124 229.436 23.1221 229.914 24.7559 229.914C26.3828 229.914 27.3877 229.436 27.3945 228.629C27.3877 227.815 26.3828 227.344 24.7559 227.344C23.1221 227.344 22.124 227.815 22.1309 228.629ZM42.3789 225.689V226.92H39.6309V231.117H38.0859V226.92H35.3516V231.117H33.793V226.92H31.0859V225.689H42.3789ZM32.2754 221.957C32.2686 220.275 34.0732 219.202 36.7051 219.195C39.3369 219.202 41.1553 220.275 41.1621 221.957C41.1553 223.618 39.3369 224.664 36.7051 224.664C34.0732 224.664 32.2686 223.618 32.2754 221.957ZM33.834 221.957C33.8271 222.9 34.9619 223.454 36.7051 223.461C38.4551 223.454 39.5898 222.9 39.5898 221.957C39.5898 220.986 38.4551 220.426 36.7051 220.426C34.9619 220.426 33.8271 220.986 33.834 221.957ZM47.8613 222.271C47.8613 224.295 49.0508 226.428 51.0469 227.262L50.2129 228.465C48.75 227.829 47.6836 226.537 47.1162 224.965C46.5488 226.66 45.4619 228.082 44.0195 228.766L43.1445 227.576C45.0928 226.674 46.3096 224.37 46.3164 222.271V221.232H43.5957V219.975H50.5684V221.232H47.8613V222.271ZM51.9492 231.117V218.758H53.4805V231.117H51.9492ZM65.9629 218.758V231.117H64.5V218.758H65.9629ZM55.4219 224.104C55.4219 221.383 56.4746 219.694 58.0879 219.701C59.585 219.694 60.6035 221.096 60.7812 223.406H61.9707V218.977H63.4199V230.516H61.9707V224.637H60.7949C60.6514 227.05 59.6191 228.526 58.0879 228.52C56.4746 228.526 55.4219 226.831 55.4219 224.104ZM56.8301 224.104C56.8232 226.038 57.3018 227.077 58.0879 227.07C58.9082 227.077 59.3936 226.038 59.4004 224.104C59.3936 222.176 58.9082 221.13 58.0879 221.137C57.3018 221.13 56.8232 222.176 56.8301 224.104ZM80.7559 224.377V225.58H77.0918V228.41H82.0137V229.654H70.7207V228.41H75.5879V225.58H72.0879V219.674H80.6602V220.891H73.6055V224.377H80.7559ZM88.4395 218.949C91.1738 218.956 92.8896 219.838 92.8965 221.328C92.8896 222.791 91.1738 223.666 88.4395 223.652C85.7324 223.666 83.9824 222.791 83.9824 221.328C83.9824 219.838 85.7324 218.956 88.4395 218.949ZM82.8203 225.621V224.404H94.0859V225.621H89.1914V226.811H92.7188V230.967H84.1465V226.811H87.6875V225.621H82.8203ZM85.5684 221.328C85.5547 222.08 86.6348 222.49 88.4395 222.49C90.2441 222.49 91.3242 222.08 91.3242 221.328C91.3242 220.542 90.2441 220.118 88.4395 220.125C86.6348 220.118 85.5547 220.542 85.5684 221.328ZM85.6504 229.736H91.2422V228.014H85.6504V229.736Z" fill="#616161"/>
<path d="M397.096 201.609V202.717C397.089 203.872 397.089 205.137 396.768 206.887H398.477V208.117H393.568V213.23H392.037V208.117H387.211V206.887H395.223C395.564 205.205 395.578 203.94 395.578 202.84H388.537V201.609H397.096ZM409.059 200.857V203.865H410.781V205.109H409.059V208.104H407.541V200.857H409.059ZM399.27 207.064C402.065 206.299 403.733 204.788 403.993 202.936H399.83V201.705H405.641C405.647 204.952 403.528 207.263 399.871 208.295L399.27 207.064ZM400.938 210.729C400.924 209.204 402.578 208.254 405.066 208.254C407.575 208.254 409.195 209.204 409.195 210.729C409.195 212.267 407.575 213.21 405.066 213.203C402.578 213.21 400.924 212.267 400.938 210.729ZM402.441 210.729C402.435 211.535 403.433 212.014 405.066 212.014C406.693 212.014 407.698 211.535 407.705 210.729C407.698 209.915 406.693 209.443 405.066 209.443C403.433 209.443 402.435 209.915 402.441 210.729ZM421.76 200.871V209.936H420.242V205.779H417.863V204.521H420.242V200.871H421.76ZM411.574 207.42C414.233 206.579 415.99 205 416.284 203.045H412.217V201.801H417.945C417.945 205.062 415.792 207.495 412.217 208.637L411.574 207.42ZM413.707 212.971V209.02H415.252V211.74H422.074V212.971H413.707ZM433.258 200.857V203.865H434.98V205.109H433.258V208.104H431.74V200.857H433.258ZM423.469 207.064C426.265 206.299 427.933 204.788 428.192 202.936H424.029V201.705H429.84C429.847 204.952 427.728 207.263 424.07 208.295L423.469 207.064ZM425.137 210.729C425.123 209.204 426.777 208.254 429.266 208.254C431.774 208.254 433.395 209.204 433.395 210.729C433.395 212.267 431.774 213.21 429.266 213.203C426.777 213.21 425.123 212.267 425.137 210.729ZM426.641 210.729C426.634 211.535 427.632 212.014 429.266 212.014C430.893 212.014 431.897 211.535 431.904 210.729C431.897 209.915 430.893 209.443 429.266 209.443C427.632 209.443 426.634 209.915 426.641 210.729ZM390.779 225.789V227.02H388.031V231.217H386.486V227.02H383.752V231.217H382.193V227.02H379.486V225.789H390.779ZM380.676 222.057C380.669 220.375 382.474 219.302 385.105 219.295C387.737 219.302 389.556 220.375 389.562 222.057C389.556 223.718 387.737 224.764 385.105 224.764C382.474 224.764 380.669 223.718 380.676 222.057ZM382.234 222.057C382.228 223 383.362 223.554 385.105 223.561C386.855 223.554 387.99 223 387.99 222.057C387.99 221.086 386.855 220.525 385.105 220.525C383.362 220.525 382.228 221.086 382.234 222.057ZM396.262 222.371C396.262 224.395 397.451 226.527 399.447 227.361L398.613 228.564C397.15 227.929 396.084 226.637 395.517 225.064C394.949 226.76 393.862 228.182 392.42 228.865L391.545 227.676C393.493 226.773 394.71 224.47 394.717 222.371V221.332H391.996V220.074H398.969V221.332H396.262V222.371ZM400.35 231.217V218.857H401.881V231.217H400.35ZM414.363 218.857V231.217H412.9V218.857H414.363ZM403.822 224.203C403.822 221.482 404.875 219.794 406.488 219.801C407.985 219.794 409.004 221.195 409.182 223.506H410.371V219.076H411.82V230.615H410.371V224.736H409.195C409.052 227.149 408.02 228.626 406.488 228.619C404.875 228.626 403.822 226.931 403.822 224.203ZM405.23 224.203C405.224 226.138 405.702 227.177 406.488 227.17C407.309 227.177 407.794 226.138 407.801 224.203C407.794 222.275 407.309 221.229 406.488 221.236C405.702 221.229 405.224 222.275 405.23 224.203ZM429.156 224.477V225.68H425.492V228.51H430.414V229.754H419.121V228.51H423.988V225.68H420.488V219.773H429.061V220.99H422.006V224.477H429.156ZM436.84 219.049C439.574 219.056 441.29 219.938 441.297 221.428C441.29 222.891 439.574 223.766 436.84 223.752C434.133 223.766 432.383 222.891 432.383 221.428C432.383 219.938 434.133 219.056 436.84 219.049ZM431.221 225.721V224.504H442.486V225.721H437.592V226.91H441.119V231.066H432.547V226.91H436.088V225.721H431.221ZM433.969 221.428C433.955 222.18 435.035 222.59 436.84 222.59C438.645 222.59 439.725 222.18 439.725 221.428C439.725 220.642 438.645 220.218 436.84 220.225C435.035 220.218 433.955 220.642 433.969 221.428ZM434.051 229.836H439.643V228.113H434.051V229.836Z" fill="#616161"/>
<g clip-path="url(#clip2_281_6405)">
<g clip-path="url(#clip3_281_6405)">
<path d="M294.633 230.668C296.74 235.604 297.14 240.553 294.22 245.276C292.42 248.189 290.06 250.624 286.513 251.581C284.966 251.994 283.579 252.579 282.312 253.471C289.873 235.404 274.352 231.507 274.352 231.507C280.872 208.545 280.272 178.333 280.112 173.211H280.165C280.165 174.328 280.712 175.22 281.432 176.098C290.26 187.153 294.287 199.844 294.287 214.146C293.98 217.631 294.58 221.409 293.18 225.054C292.366 227.156 293.86 228.859 294.633 230.668Z" fill="#CEAE8D"/>
<path d="M280.114 173.211C280.274 178.333 280.874 208.545 274.354 231.506C274.354 231.506 289.875 235.404 282.314 253.47C281.554 254.016 280.847 254.654 280.167 255.439C277.1 259.005 273.047 260.894 268.126 260.614C265.246 260.455 262.353 260.401 259.486 260.628C252.352 261.173 244.338 254.668 244.324 247.071C246.164 231.599 242.871 243.12 240.124 243.453C233.163 244.304 226.203 244.251 219.256 243.386C216.762 243.08 213.882 227.555 214.642 246.247C214.282 253.816 209.708 259.856 202.067 260.441C197.894 260.774 193.653 260.707 189.453 260.495C185.693 260.308 182.279 258.911 179.879 255.865C179.186 254.987 178.412 254.255 177.572 253.643C169.825 235.431 185.466 231.506 185.466 231.506C178.692 207.68 179.599 176.044 179.719 172.732C179.732 172.546 179.732 172.452 179.732 172.452C179.639 162.807 181.359 153.362 183.359 143.996C184.413 139.061 186.319 134.298 188.026 129.522C188.84 127.247 189.773 126.955 191.6 129.23C195.694 134.285 201.054 137.079 207.815 136.653C210.988 136.467 213.522 135.575 215.575 133.101C216.229 132.715 226.736 126.729 229.296 126.729C231.857 126.729 244.258 133.114 244.258 133.114L244.298 133.088C244.591 133.407 244.871 133.726 245.138 134.045C247.938 137.385 252.272 137.331 256.259 136.56C260.939 135.642 264.859 133.26 267.993 129.575C270.126 127.061 270.847 127.168 271.993 130.068C275.767 139.566 277.967 149.451 279.034 159.601C279.514 164.098 280.301 168.581 280.167 173.131V173.211H280.114Z" fill="#E8C59A"/>
<path d="M244.311 89.0794C249.832 92.3387 251.098 98.3785 248.258 104.365C245.511 110.192 240.431 113.145 235.03 115.766C233.59 116.471 232.03 116.83 232.164 118.839C232.297 121.061 231.763 123.349 234.364 124.906C238.071 127.127 241.391 129.814 244.298 133.087L244.258 133.114C244.258 133.114 231.924 126.728 229.297 126.728C226.67 126.728 216.229 132.715 215.575 133.1C215.789 132.848 216.002 132.568 216.216 132.262C218.349 129.189 221.616 127.021 224.963 125.278C227.67 123.881 227.843 121.646 227.83 119.158C227.803 116.937 226.163 116.445 224.523 115.606C219.602 113.092 214.469 110.658 212.055 105.23C208.988 98.3519 208.295 93.2301 216.616 88.5339C225.936 83.2924 235.244 83.7181 244.311 89.0794Z" fill="#593C27"/>
<path d="M179.72 172.73C179.6 176.043 178.693 207.679 185.467 231.505C185.467 231.505 169.826 235.43 177.573 253.642C176.426 252.777 175.133 252.152 173.706 251.673C163.505 248.254 161.278 237.425 165.545 230.175C167.119 227.514 166.799 224.734 166.159 222.113C164.319 214.543 165.652 207.16 167.012 199.776C168.599 191.129 172.666 183.573 177.946 176.628C178.84 175.431 179.653 174.234 179.72 172.73Z" fill="#CEAE8D"/>
<path d="M251.048 186.035C251.048 179.835 251.222 175.405 251.008 170.989C250.488 160.279 242.048 152.018 231.793 151.233C218.699 150.222 209.418 159.574 208.498 172.585C208.151 177.427 208.672 182.296 208.938 187.152C209.712 201.693 210.752 216.22 212.445 230.681C212.765 233.422 214.179 234.938 216.792 235.869C223.886 238.424 231.113 238.251 238.381 237.266C244.275 236.468 247.075 234.34 247.408 230.122C248.595 214.837 251.395 199.671 251.062 186.035H251.048Z" fill="#ECE1CA"/>
<path d="M294.633 230.668C296.74 235.604 297.14 240.553 294.22 245.276C292.42 248.189 290.06 250.624 286.513 251.581C284.966 251.994 283.579 252.579 282.312 253.471C289.873 235.404 274.352 231.507 274.352 231.507C280.872 208.545 280.272 178.333 280.112 173.211H280.165C280.165 174.328 280.712 175.22 281.432 176.098C290.26 187.153 294.287 199.844 294.287 214.146C293.98 217.631 294.58 221.409 293.18 225.054C292.366 227.156 293.86 228.859 294.633 230.668Z" fill="#C18448"/>
<path d="M280.114 173.21C280.274 178.332 280.874 208.544 274.354 231.506C274.354 231.506 289.875 235.404 282.314 253.47C281.554 254.015 280.847 254.654 280.167 255.439C277.1 259.004 273.047 260.893 268.126 260.614C265.246 260.454 262.353 260.401 259.486 260.627C252.352 261.173 244.338 254.667 244.324 247.071C246.164 231.599 242.871 243.12 240.124 243.453C233.163 244.304 226.203 244.251 219.256 243.386C216.762 243.08 213.882 227.555 214.642 246.246C214.282 253.816 209.708 259.856 202.067 260.441C197.894 260.774 193.653 260.707 189.453 260.494C185.693 260.308 182.279 258.911 179.879 255.865C179.186 254.987 178.412 254.255 177.572 253.643C169.825 235.431 185.466 231.506 185.466 231.506C178.692 207.68 179.599 176.044 179.719 172.732C179.732 172.545 179.732 172.452 179.732 172.452C179.639 162.807 181.359 153.362 183.359 143.996C184.413 139.061 187.28 126.263 188.986 121.5C189.8 119.225 189.773 116.312 191.6 118.587C195.694 123.642 201.054 126.436 207.815 126.01C211.322 125.797 214.055 124.733 216.215 121.62C218.349 118.547 221.616 116.378 224.963 114.635C227.67 113.239 227.843 111.004 227.83 108.516C227.803 106.294 226.163 105.802 224.523 104.964C219.602 102.449 214.468 100.015 212.055 94.5872C208.988 87.7093 208.295 82.5875 216.615 77.8914C225.936 72.6498 235.244 73.0755 244.311 78.4368C249.831 81.6961 251.098 87.7359 248.258 93.7224C245.511 99.5493 240.431 102.503 235.03 105.123C233.59 105.829 232.03 106.188 232.163 108.197C232.297 110.418 231.763 112.706 234.364 114.263C238.431 116.697 242.031 119.691 245.138 123.402C247.938 126.742 252.272 126.688 256.259 125.917C260.939 124.999 264.859 122.617 267.993 118.932C270.126 116.418 270.847 116.525 271.993 119.425C275.767 128.923 277.967 149.451 279.034 159.601C279.514 164.098 280.301 168.581 280.167 173.131V173.21H280.114Z" fill="#DD9A52"/>
<path d="M179.72 172.732C179.6 176.045 178.693 207.681 185.467 231.507C185.467 231.507 169.826 235.431 177.573 253.644C176.426 252.779 175.133 252.154 173.706 251.675C163.505 248.256 161.278 237.427 165.545 230.177C167.119 227.516 166.799 224.736 166.159 222.115C164.319 214.545 165.652 207.162 167.012 199.778C168.599 191.131 172.666 183.575 177.946 176.63C178.84 175.433 179.653 174.236 179.72 172.732Z" fill="#C18448"/>
<path d="M251.048 190.439C251.048 183.455 251.222 178.466 251.008 173.504C250.488 161.438 242.048 152.139 231.793 151.247C218.699 150.116 209.418 160.639 208.498 175.287C208.151 180.741 208.672 186.222 208.938 191.69C209.712 208.066 211.818 222.288 213.499 238.584C213.819 241.671 215.232 243.373 217.846 244.438C224.94 247.311 229.78 247.125 237.047 246.008C242.941 245.103 244.821 242.708 245.141 237.959C248.101 222.554 251.382 205.805 251.048 190.452V190.439Z" fill="#F4EFE5"/>
<path d="M299.213 74.7532C292.172 52.5764 277.664 32.3286 265.13 29.2422C250.422 25.6236 237.048 24.7988 229.514 24.7988C221.98 24.7988 208.592 25.6369 193.897 29.2422C181.363 32.3153 166.855 52.5764 159.815 74.7532C156.134 86.3272 151.467 96.3181 155.107 107.027C163.788 132.61 208.339 135.51 229.527 135.51C250.715 135.51 295.266 132.61 303.947 107.027C307.587 96.3181 302.907 86.3272 299.24 74.7532H299.213Z" fill="#DD9A52"/>
<path d="M273.301 95.5721C254.46 96.0909 244.099 98.1796 242.685 89.3195C241.512 81.9361 237.978 44.3672 229.498 44.3672C221.017 44.3672 217.483 81.9361 216.31 89.3195C214.896 98.1663 204.536 96.0909 185.694 95.5721C171.239 95.173 162.892 108.862 159.785 115.261C174.906 133.234 200.295 135.522 229.498 135.522C258.7 135.522 284.089 133.234 299.21 115.261C296.103 108.862 287.756 95.173 273.301 95.5721Z" fill="#F4EFE5"/>
<path d="M180.244 73.0103C182.191 67.4362 189.511 59.8399 199.259 62.8864C209.02 65.9196 212.433 77.0678 211.94 81.6176C211.446 86.1807 203.646 92.2471 192.432 88.2028C181.217 84.1586 178.284 78.5844 180.244 73.0103Z" fill="#FFE35A"/>
<path d="M206.566 76.23C206.726 82.6689 202.286 88.0035 196.632 88.1632C190.978 88.3228 186.258 83.2276 186.098 76.8021C185.938 70.3632 190.378 65.0285 196.032 64.8689C201.686 64.7092 206.393 69.8045 206.566 76.23Z" fill="#593C27"/>
<path d="M278.758 73.0103C276.811 67.4362 269.49 59.8399 259.743 62.8864C249.982 65.9196 246.568 77.0678 247.062 81.6176C247.555 86.1807 255.356 92.2471 266.57 88.2028C277.784 84.1586 280.718 78.5844 278.758 73.0103Z" fill="#FFE35A"/>
<path d="M252.434 76.23C252.274 82.6689 256.714 88.0035 262.368 88.1632C268.022 88.3228 272.729 83.2276 272.902 76.8021C273.062 70.3632 268.622 65.0285 262.968 64.8689C257.314 64.7092 252.607 69.8045 252.434 76.23Z" fill="#593C27"/>
<path d="M171.947 84.9309C169.107 82.7092 166.853 81.8844 163.373 81.033C159.479 80.0751 155.105 80.1151 151.145 80.3013C149.612 80.3678 149.625 82.6427 151.145 82.7624C155.425 83.0817 159.399 84.2258 163.586 85.0107C166.253 85.5163 168.933 86.2346 171.64 86.075C172.267 86.0351 172.4 85.2901 171.934 84.9309H171.947Z" fill="#683E29"/>
<path d="M170.573 90.6512C163.492 89.4671 157.292 92.3407 150.891 95.0014C149.758 95.467 150.185 97.1033 151.398 96.8905C157.945 95.7464 164.159 93.6976 170.573 92.0746C171.226 91.915 171.28 90.7709 170.573 90.6512Z" fill="#683E29"/>
<path d="M287.051 84.9309C289.891 82.7092 292.144 81.8844 295.625 81.033C299.518 80.0751 303.892 80.1151 307.852 80.3013C309.386 80.3678 309.373 82.6427 307.852 82.7624C303.572 83.0817 299.598 84.2258 295.411 85.0107C292.758 85.5163 290.064 86.2346 287.357 86.075C286.731 86.0351 286.597 85.2901 287.064 84.9309H287.051Z" fill="#683E29"/>
<path d="M288.424 90.6512C295.505 89.4671 301.705 92.3407 308.106 95.0014C309.239 95.467 308.813 97.1033 307.599 96.8905C301.052 95.7464 294.838 93.6976 288.424 92.0746C287.771 91.915 287.718 90.7709 288.424 90.6512Z" fill="#683E29"/>
<path d="M170.974 65.7867C170.974 65.7867 153.905 7.55757 162.68 1.47791C171.454 -4.60176 195.602 9.56639 203.643 16.1649C212.91 23.7612 217.791 36.4127 217.791 36.4127L170.974 65.7867Z" fill="#DD9A52"/>
<path d="M199.75 36.4123C199.75 36.4123 189.509 18.6921 178.295 13.6235C167.081 8.55489 167.561 17.681 169.028 26.2884C170.495 34.8957 175.855 49.0771 175.855 49.0771C175.855 49.0771 198.777 41.4809 199.75 36.4256V36.4123Z" fill="#F4EFE5"/>
<path d="M202.778 41.0151C202.538 40.5628 202.271 40.1371 201.938 39.738C201.124 37.064 199.137 33.9909 197.071 32.328C194.804 30.5054 191.47 28.164 188.523 27.9911C187.03 27.8979 186.843 30.1728 188.19 30.5985C190.163 31.2238 192.204 33.5519 193.644 35.3745C190.577 34.7093 187.403 34.6428 185.123 34.9621C184.19 35.0951 183.776 36.5851 184.883 36.8245C187.99 37.4897 190.857 38.9132 193.87 39.8976C196.684 40.8156 199.271 42.0129 201.618 43.8487C201.991 42.8909 202.378 41.9464 202.791 41.0151H202.778Z" fill="#DD9A52"/>
<path d="M288.024 65.7867C288.024 65.7867 305.092 7.55757 296.318 1.47791C287.544 -4.60176 263.396 9.56639 255.355 16.1649C246.087 23.7612 241.207 36.4127 241.207 36.4127L288.024 65.7734V65.7867Z" fill="#DD9A52"/>
<path d="M259.25 36.4123C259.25 36.4123 269.491 18.6921 280.705 13.6235C291.919 8.55489 291.439 17.681 289.973 26.2884C288.506 34.8957 283.145 49.0771 283.145 49.0771C283.145 49.0771 260.223 41.4809 259.25 36.4256V36.4123Z" fill="#F4EFE5"/>
<path d="M256.211 41.0151C256.451 40.5628 256.718 40.1371 257.051 39.738C257.864 37.064 259.851 33.9909 261.918 32.328C264.185 30.5054 267.519 28.164 270.465 27.9911C271.959 27.8979 272.146 30.1728 270.812 30.5985C268.839 31.2238 266.798 33.5519 265.358 35.3745C268.425 34.7093 271.586 34.6428 273.879 34.9621C274.812 35.0951 275.226 36.5851 274.119 36.8245C271.012 37.4897 268.145 38.9132 265.132 39.8976C262.318 40.8156 259.731 42.0129 257.384 43.8487C257.011 42.8909 256.624 41.9464 256.211 41.0151Z" fill="#DD9A52"/>
<path d="M211.109 49.1839C211.295 50.0487 212.682 50.5808 213.589 50.5276C216.762 50.3413 218.643 38.9137 219.416 35.5346C219.829 33.6987 220.563 28.9361 221.39 25.0781C219.403 25.1979 217.243 25.3708 214.962 25.6103C212.082 31.8762 209.669 42.5322 211.109 49.1839Z" fill="#593C27"/>
<path d="M245.402 50.5276C246.309 50.5808 247.696 50.0487 247.882 49.1839C249.323 42.5322 246.909 31.8762 244.029 25.6103C241.749 25.3708 239.602 25.1979 237.602 25.0781C238.428 28.9361 239.162 33.6987 239.575 35.5346C240.348 38.927 242.229 50.3546 245.402 50.5276Z" fill="#593C27"/>
<path d="M226.162 30.9317C226.468 34.6966 226.575 38.1023 228.028 41.5878C228.508 42.7452 230.482 42.7452 230.962 41.5878C232.415 38.1023 232.522 34.6966 232.829 30.9317C233.002 28.7766 232.829 26.7943 232.469 24.8387C231.402 24.8121 230.402 24.7988 229.495 24.7988C228.588 24.7988 227.588 24.8121 226.522 24.8387C226.162 26.7943 225.988 28.7766 226.162 30.9317Z" fill="#593C27"/>
<path d="M231.536 103.687C231.309 104.113 233.602 105.217 233.762 105.284C237.309 106.84 241.87 107.585 245.697 107.04C247.39 106.8 249.03 106.215 250.551 105.39C250.751 105.284 252.444 104.459 252.431 104.166C252.431 104.166 252.564 106.933 244.457 108.676C236.349 110.405 229.469 107.545 229.469 107.545L231.549 103.674L231.536 103.687Z" fill="#593C27"/>
<path d="M228.442 103.687C228.669 104.113 226.375 105.217 226.215 105.284C222.668 106.84 218.108 107.585 214.281 107.04C212.587 106.8 210.947 106.215 209.427 105.39C209.227 105.284 207.534 104.459 207.547 104.166C207.547 104.166 207.414 106.933 215.521 108.676C223.628 110.419 230.509 107.545 230.509 107.545L228.429 103.674L228.442 103.687Z" fill="#593C27"/>
<path d="M229.898 94.1895V106.469" stroke="#593C27" stroke-width="3" stroke-miterlimit="10"/>
<path d="M229.898 90.7164C227.884 90.7164 222.084 89.7319 223.044 93.0844C224.177 97.0222 228.284 98.8048 229.898 98.8048C231.511 98.8048 235.618 97.0222 236.752 93.0844C237.712 89.7186 231.911 90.7164 229.898 90.7164Z" fill="#593C27"/>
</g>
<path d="M162.684 165.208L159.677 163.641C159.625 161.916 159.194 160.297 158.436 158.86L161.39 154.901C161.455 154.261 160.998 153.699 160.37 153.621L155.861 155.62C154.489 154.431 152.829 153.582 150.986 153.19L149.796 148.644C149.339 148.186 148.607 148.186 148.163 148.644L146.999 153.098C145.104 153.399 143.366 154.17 141.915 155.306L138.883 153.464C138.242 153.464 137.72 153.961 137.706 154.601L139.549 157.841C138.909 158.807 138.425 159.865 138.112 161.015L132.648 162.191C132.152 162.622 132.086 163.34 132.491 163.811L137.824 165.404C138.046 167.024 138.608 168.54 139.458 169.846L137.092 172.838C137.001 173.465 137.445 174.053 138.085 174.144L141.928 172.55C143.078 173.452 144.411 174.118 145.862 174.51L146.686 178.102C147.13 178.599 147.849 178.651 148.306 178.233L149.274 174.863C151.156 174.771 152.92 174.196 154.436 173.269L158.88 175.803C159.521 175.803 160.03 175.268 160.03 174.64L157.521 170.46C158.318 169.389 158.919 168.174 159.298 166.854L162.331 166.763C162.867 166.423 163.036 165.705 162.697 165.169L162.684 165.208Z" fill="#60C6A8"/>
<path d="M326.457 137.908L323.451 136.34C323.399 134.616 322.967 132.996 322.209 131.559L325.163 127.6C325.228 126.96 324.771 126.399 324.144 126.32L319.634 128.319C318.262 127.13 316.602 126.281 314.759 125.889L313.57 121.343C313.112 120.886 312.38 120.886 311.936 121.343L310.773 125.798C308.878 126.098 307.139 126.869 305.689 128.005L302.656 126.163C302.016 126.163 301.493 126.66 301.48 127.3L303.323 130.54C302.682 131.506 302.199 132.565 301.885 133.714L296.422 134.89C295.925 135.321 295.86 136.04 296.265 136.51L301.598 138.104C301.82 139.724 302.382 141.239 303.231 142.545L300.866 145.537C300.774 146.164 301.218 146.752 301.859 146.843L305.702 145.249C306.852 146.151 308.185 146.817 309.636 147.209L310.459 150.802C310.904 151.298 311.622 151.35 312.08 150.932L313.047 147.562C314.929 147.47 316.694 146.896 318.21 145.968L322.654 148.502C323.294 148.502 323.804 147.967 323.804 147.34L321.294 143.159C322.092 142.088 322.693 140.873 323.072 139.554L326.104 139.462C326.64 139.123 326.81 138.404 326.47 137.868L326.457 137.908Z" fill="#60C6A8"/>
<path opacity="0.4" d="M171.778 148.148L170.876 147.677C170.863 147.155 170.732 146.671 170.51 146.24L171.399 145.051C171.425 144.855 171.281 144.686 171.098 144.673L169.752 145.273C169.347 144.921 168.837 144.659 168.288 144.542L167.935 143.17C167.804 143.04 167.582 143.04 167.438 143.17L167.085 144.503C166.51 144.594 166.001 144.829 165.556 145.169L164.641 144.62C164.445 144.62 164.288 144.764 164.288 144.96L164.837 145.94C164.641 146.227 164.498 146.554 164.406 146.893L162.759 147.246C162.615 147.377 162.589 147.599 162.707 147.729L164.301 148.213C164.367 148.696 164.537 149.153 164.798 149.545L164.092 150.447C164.066 150.643 164.197 150.812 164.393 150.839L165.543 150.355C165.883 150.63 166.288 150.826 166.719 150.943L166.968 152.027C167.098 152.171 167.321 152.197 167.451 152.067L167.739 151.061C168.301 151.035 168.837 150.865 169.281 150.577L170.614 151.335C170.81 151.335 170.954 151.178 170.954 150.982L170.209 149.728C170.444 149.402 170.627 149.049 170.745 148.644L171.66 148.618C171.817 148.513 171.869 148.304 171.765 148.134L171.778 148.148Z" fill="#5FAFFE"/>
</g>
<path d="M429.834 162.328C429.584 161.912 423.629 152.038 416.017 152.003H415.976C415.113 151.976 414.256 152.153 413.475 152.521C412.694 152.889 412.01 153.437 411.481 154.12C411.336 154.299 411.175 154.464 411 154.614C410.825 154.464 410.664 154.299 410.519 154.12C409.99 153.437 409.306 152.889 408.525 152.521C407.744 152.153 406.887 151.976 406.024 152.003H405.983C398.371 152.038 392.416 161.912 392.166 162.328C392.04 162.542 391.983 162.79 392.004 163.038C392.026 163.285 392.124 163.52 392.285 163.708C392.594 164.047 399.452 172 411 172C422.548 172 429.406 164.047 429.715 163.708C429.876 163.52 429.974 163.285 429.996 163.038C430.017 162.79 429.96 162.542 429.834 162.328ZM398.638 161.942C398.852 161.347 405.086 162.929 411 162.929C416.914 162.929 423.148 161.323 423.362 161.942C423.576 162.56 417.341 165.308 411 165.308C404.659 165.308 398.418 162.56 398.638 161.942Z" fill="#1CAB81"/>
<defs>
<clipPath id="clip0_281_6405">
<rect width="32.78" height="31.2544" fill="white" transform="translate(395 13.9922)"/>
</clipPath>
<clipPath id="clip1_281_6405">
<rect width="34.22" height="32.3239" fill="white" transform="translate(33 14.0176)"/>
</clipPath>
<clipPath id="clip2_281_6405">
<rect width="200" height="261.065" fill="white" transform="translate(131 0.0175781)"/>
</clipPath>
<clipPath id="clip3_281_6405">
<rect width="159" height="261" fill="white" transform="translate(150)"/>
</clipPath>
</defs>
</svg>
