<svg width="481" height="267" viewBox="0 0 481 267" fill="none" xmlns="http://www.w3.org/2000/svg">
<ellipse cx="68" cy="34.9584" rx="30" ry="29.9584" fill="#F6F7F9"/>
<ellipse cx="428" cy="34.9584" rx="30" ry="29.9584" fill="#F6F7F9"/>
<ellipse cx="62" cy="166.958" rx="30" ry="29.9584" fill="#F6F7F9"/>
<path d="M64.4988 152.81C64.5057 154.239 64.5148 156.002 64.5023 156.742C64.4748 158.339 64.6394 159.701 65.6977 159.861C67.5114 160.133 68.9331 157.189 71.829 157.189C74.7238 157.189 76.7124 160.354 77.4872 162.661C78.2632 164.967 78.0484 168.902 77.5672 170.61C77.0872 172.318 76.3353 176.118 71.1696 179.137C68.7182 180.569 64.4314 181.014 62.0017 180.864C59.5732 180.715 56.6007 179.672 54.9207 177.385C53.2396 175.099 49.8019 175.813 49.8019 178.326L49.8133 181.189C49.8168 182.19 49.0088 183 48.0076 183H47.8568C46.8568 183 46.0339 182.19 46.0157 181.189C45.9974 180.181 45.9859 179.064 46.0351 178.325C46.1597 176.475 46.6682 174.465 48.4191 172.503C51.3676 169.197 53.475 171.666 54.795 172.379C56.1138 173.093 57.2749 170.874 60.068 172.41C60.068 172.41 60.7926 169.063 64.3446 168.497C64.3446 168.497 60.7332 167 60.7332 157.984C60.6669 157.291 60.6703 154.64 60.6829 152.811C60.6897 151.81 61.5092 151 62.5103 151H62.6794C63.6806 151 64.4943 151.81 64.4988 152.81Z" fill="#E83849"/>
<ellipse cx="428" cy="166.958" rx="30" ry="29.9584" fill="#F6F7F9"/>
<path d="M446.834 167.328C446.584 166.912 440.629 157.038 433.017 157.003H432.976C432.113 156.976 431.256 157.153 430.475 157.521C429.694 157.889 429.01 158.437 428.481 159.12C428.336 159.299 428.175 159.464 428 159.614C427.825 159.464 427.664 159.299 427.519 159.12C426.99 158.437 426.306 157.889 425.525 157.521C424.744 157.153 423.887 156.976 423.024 157.003H422.983C415.371 157.038 409.416 166.912 409.166 167.328C409.04 167.542 408.983 167.79 409.004 168.038C409.026 168.285 409.124 168.52 409.285 168.708C409.594 169.047 416.452 177 428 177C439.548 177 446.406 169.047 446.715 168.708C446.876 168.52 446.974 168.285 446.996 168.038C447.017 167.79 446.96 167.542 446.834 167.328ZM415.638 166.942C415.852 166.347 422.086 167.929 428 167.929C433.914 167.929 440.148 166.323 440.362 166.942C440.576 167.56 434.341 170.308 428 170.308C421.659 170.308 415.418 167.56 415.638 166.942Z" fill="#E83849"/>
<path d="M44.1885 73.8574V80.1875H42.6709V77.0566H40.21V75.8398H42.6709V73.8574H44.1885ZM33.7705 79.0391C35.7598 78.4375 36.792 76.9131 36.792 75.252V74.2676H38.3232V75.252C38.3164 76.7764 39.3145 78.2188 41.2354 78.8066L40.4287 79.9824C39.0889 79.5381 38.1182 78.6631 37.5713 77.542C37.0381 78.793 36.0195 79.7773 34.5635 80.2559L33.7705 79.0391ZM36.0537 81.9102V80.7207H44.1885V83.9199H37.5576V84.8633H44.585V86.0664H36.0674V82.7852H42.6846V81.9102H36.0537ZM50.3545 76.8242C50.3408 79.0322 51.4482 81.2607 53.3623 82.1836L52.4326 83.4004C51.0928 82.7236 50.1289 81.418 49.6025 79.8457C49.0625 81.5273 48.0508 82.9219 46.6357 83.6328L45.7061 82.416C47.6953 81.4727 48.8301 79.1074 48.8369 76.8242V74.8555H50.3545V76.8242ZM54.1006 86.2168V73.8574H55.6182V78.6973H57.5186V79.9961H55.6182V86.2168H54.1006ZM67.9502 74.623V79.7637H61.9893V74.623H67.9502ZM62.7275 85.0137C65.0996 84.8086 66.6172 83.7559 66.7539 82.7715H63.2334V81.623H66.7881V80.543H68.3193V81.623H71.8877V82.7715H68.3604C68.4971 83.7285 69.9873 84.7744 72.3525 85.0137L71.833 86.1758C69.8301 85.9639 68.3125 85.1777 67.5605 84.1523C66.8018 85.1914 65.2637 85.957 63.2471 86.1758L62.7275 85.0137ZM63.4932 78.5742H66.4463V75.8262H63.4932V78.5742ZM70.124 80.8984V73.8574H71.6279V80.8984H70.124ZM87.1318 73.8711V82.9902H85.6143V79.8867H83.126V80.9805H77.3428V74.6777H78.8604V76.6738H81.6221V74.6777H83.126V76.0039H85.6143V73.8711H87.1318ZM78.8604 79.7773H81.6221V77.8496H78.8604V79.7773ZM78.9834 85.9707V82.0879H80.5283V84.7402H87.4053V85.9707H78.9834ZM83.126 78.6562H85.6143V77.2344H83.126V78.6562ZM99.1631 73.8574V86.2305H97.6318V73.8574H99.1631ZM89.5381 83.3184V74.8691H91.0557V77.959H94.0498V74.8691H95.5537V83.3184H89.5381ZM91.0557 82.0742H94.0498V79.1484H91.0557V82.0742Z" fill="#616161"/>
<path d="M385.891 73.7656V86.125H384.359V73.7656H385.891ZM375.541 81.9551C376.02 81.9551 376.532 81.9482 377.072 81.9414V76.2129H375.869V74.9688H382.883V76.2129H381.693V81.7568C382.281 81.709 382.869 81.6543 383.43 81.5859L383.512 82.7207C380.859 83.1514 377.968 83.1992 375.691 83.1992L375.541 81.9551ZM378.535 81.9141C379.082 81.9004 379.643 81.8799 380.203 81.8457V76.2129H378.535V81.9141ZM398.947 80.957V82.1602H394.025V86.125H392.521V82.1602H387.654V80.957H398.947ZM389.021 79.6719V74.2578H390.525V75.7754H396.049V74.2578H397.58V79.6719H389.021ZM390.525 78.4414H396.049V76.9785H390.525V78.4414ZM403.158 85.0449C401.135 85.0518 399.891 83.8555 399.891 82.2832C399.891 81.1143 400.643 80.4033 401.75 79.6377C401.183 78.9336 400.738 78.209 400.738 77.334C400.738 75.9258 401.764 74.8867 403.322 74.8867C404.881 74.8867 405.845 75.9189 405.838 77.1289C405.845 78.0723 405.353 78.79 404.525 79.3848L403.896 79.8496L405.708 81.9756C405.968 81.4834 406.125 80.9023 406.125 80.2461H407.629C407.622 81.6064 407.246 82.5703 406.768 83.2129L408.217 84.9082H406.33L405.694 84.1836C404.99 84.7783 404.026 85.0518 403.158 85.0449ZM401.6 82.2012C401.6 82.9873 402.235 83.6162 403.213 83.623C403.739 83.623 404.279 83.4316 404.744 83.0967L402.687 80.7314L402.529 80.8477C401.859 81.3398 401.6 81.8594 401.6 82.2012ZM402.283 77.3613C402.29 77.8125 402.591 78.2705 403.001 78.7832L403.568 78.4004C404.088 78.0654 404.361 77.71 404.361 77.2109C404.361 76.7803 403.979 76.3154 403.35 76.3223C402.721 76.3154 402.29 76.8213 402.283 77.3613ZM414.998 74.8047V75.7891H417.486V73.7793H419.004V82.7754H417.486V79.6582H414.998V80.7246H409.188V74.8047H414.998ZM410.705 79.5352H413.494V76.0078H410.705V79.5352ZM410.855 85.8789V81.9414H412.4V84.6484H419.277V85.8789H410.855ZM414.998 78.4414H417.486V77.0332H414.998V78.4414ZM431.104 81.6543V86.125H429.586V82.8574H422.682V81.6543H431.104ZM420.918 77.4434C420.918 75.6934 422.319 74.4355 424.186 74.4492C425.204 74.4424 426.093 74.8252 426.674 75.4746H429.586V73.7656H431.104V81.0664H429.586V79.4258H426.688C426.1 80.082 425.211 80.4785 424.186 80.4785C422.319 80.4785 420.918 79.2207 420.918 77.4434ZM422.367 77.4434C422.367 78.5166 423.126 79.1865 424.186 79.1934C425.197 79.1865 425.97 78.5166 425.977 77.4434C425.97 76.4111 425.197 75.7275 424.186 75.7344C423.126 75.7275 422.367 76.4111 422.367 77.4434ZM427.33 78.1953H429.586V76.7188H427.337C427.392 76.9512 427.426 77.1904 427.426 77.4434C427.426 77.7031 427.392 77.9561 427.33 78.1953ZM437.529 76.7324C437.516 79.002 438.712 81.2715 440.715 82.1328L439.812 83.3496C438.391 82.6934 437.352 81.3877 436.777 79.7744C436.21 81.5107 435.144 82.9326 433.646 83.6367L432.717 82.3652C434.774 81.4766 435.978 79.1182 435.984 76.7324V74.7637H437.529V76.7324ZM441.604 86.1387V73.7656H443.135V86.1387H441.604ZM451.338 75.4609C451.338 77.3682 453.204 79.2891 455.795 79.7402L455.111 81.0117C453.04 80.5811 451.345 79.3232 450.538 77.6621C449.725 79.3096 448.029 80.5742 445.965 81.0117L445.295 79.7402C447.845 79.2754 449.718 77.3613 449.725 75.4609V74.5449H451.338V75.4609ZM444.953 84.5527V83.2949H456.246V84.5527H444.953ZM462.275 74.5312V75.7617H459.035V76.9238H461.811V78.0996H459.035V79.3711C460.512 79.3574 461.537 79.2959 462.74 79.084L462.904 80.2734C461.476 80.5332 460.3 80.5879 458.393 80.5879H457.572V74.5312H462.275ZM459.281 85.9746V81.6816H467.621V85.9746H459.281ZM460.799 84.7441H466.117V82.8848H460.799V84.7441ZM462.344 78.0176V76.7871H463.738V73.9707H465.188V81.0664H463.738V78.0176H462.344ZM466.172 81.1621V73.7656H467.621V81.1621H466.172ZM479.816 73.7656V86.125H478.354V73.7656H479.816ZM469.275 79.1113C469.275 76.3906 470.328 74.7021 471.941 74.709C473.438 74.7021 474.457 76.1035 474.635 78.4141H475.824V73.9844H477.273V85.5234H475.824V79.6445H474.648C474.505 82.0576 473.473 83.5342 471.941 83.5273C470.328 83.5342 469.275 81.8389 469.275 79.1113ZM470.684 79.1113C470.677 81.0459 471.155 82.085 471.941 82.0781C472.762 82.085 473.247 81.0459 473.254 79.1113C473.247 77.1836 472.762 76.1377 471.941 76.1445C471.155 76.1377 470.677 77.1836 470.684 79.1113ZM413.829 97.9453V99.1621H409.058V101.432H407.554V99.1621H402.536V97.9453H413.829ZM403.903 103.879V100.297H405.421V102.648H412.585V103.879H403.903ZM403.972 96.7969V92.3262H412.38V96.7969H403.972ZM405.448 95.6074H410.876V93.5156H405.448V95.6074ZM425.286 91.7656V104.125H423.837V91.7656H425.286ZM414.431 100.611C416.215 99.5244 417.001 97.2959 417.001 95.1426V94.3223H414.854V93.0918H420.46V94.3223H418.464V95.1426C418.464 97.2275 419.209 99.3193 420.979 100.338L420.077 101.459C418.936 100.782 418.177 99.6064 417.746 98.1982C417.309 99.7227 416.522 101.021 415.36 101.746L414.431 100.611ZM419.558 97.3027V96.0723H421.335V91.998H422.771V103.523H421.335V97.3027H419.558ZM431.999 92.3125V93.8848H434.884V92.3125H436.388V97.6992H430.495V92.3125H431.999ZM431.739 99.7773V98.5879H439.819V101.828H433.257V102.812H440.202V104.016H431.753V100.721H438.302V99.7773H431.739ZM431.999 96.4961H434.884V95.0332H431.999V96.4961ZM438.302 98.0957V91.7656H439.819V94.2676H441.542V95.498H439.819V98.0957H438.302ZM446.026 94.0625C446.033 95.3955 446.812 96.7422 448.433 97.3574L447.626 98.5195C446.525 98.1025 445.76 97.3096 445.315 96.3525C444.864 97.4531 444.058 98.3965 442.882 98.8887L442.062 97.7266C443.764 96.9746 444.557 95.4297 444.563 94.0625V92.5312H446.026V94.0625ZM444.331 101.828C444.324 100.406 445.965 99.5586 448.569 99.5586C451.153 99.5586 452.801 100.406 452.808 101.828C452.801 103.257 451.153 104.111 448.569 104.111C445.965 104.111 444.324 103.257 444.331 101.828ZM445.849 101.828C445.842 102.56 446.854 102.956 448.569 102.949C450.258 102.956 451.27 102.56 451.276 101.828C451.27 101.104 450.258 100.707 448.569 100.707C446.854 100.707 445.842 101.104 445.849 101.828ZM448.638 98.9707V92.0117H450.06V94.8965H451.29V91.7793H452.739V99.3535H451.29V96.1406H450.06V98.9707H448.638Z" fill="#616161"/>
<path d="M10.4561 206.609V207.717C10.4492 208.872 10.4492 210.137 10.1279 211.887H11.8369V213.117H6.92871V218.23H5.39746V213.117H0.571289V211.887H8.58301C8.9248 210.205 8.93848 208.94 8.93848 207.84H1.89746V206.609H10.4561ZM22.7197 212.078V213.295H19.0693V215.551H23.9639V216.768H12.6709V215.551H17.5381V213.295H14.0518V206.773H22.6104V208.004H15.5967V209.398H22.3232V210.602H15.5967V212.078H22.7197ZM27.1768 216.029L26.0283 219.857H24.7295L25.4404 216.029H27.1768ZM41.3408 205.857V210.684H43.1729V211.955H41.3408V218.189H39.8232V205.857H41.3408ZM31.5928 214.812C34.6006 213.309 36.2275 211.217 36.5283 208.4H32.2627V207.143H38.0732C38.0664 210.772 36.5625 213.965 32.4541 215.988L31.5928 214.812ZM50.1455 207.553C50.1455 209.46 52.0117 211.381 54.6025 211.832L53.9189 213.104C51.8477 212.673 50.1523 211.415 49.3457 209.754C48.5322 211.401 46.8369 212.666 44.7725 213.104L44.1025 211.832C46.6523 211.367 48.5254 209.453 48.5322 207.553V206.637H50.1455V207.553ZM43.7607 216.645V215.387H55.0537V216.645H43.7607ZM60.3037 208.4C60.2969 209.747 61.3018 211.046 63.2432 211.586L62.5459 212.762C61.124 212.372 60.1191 211.545 59.5586 210.485C59.0186 211.654 57.9863 212.557 56.5166 212.98L55.792 211.805C57.7402 211.258 58.7861 209.877 58.7861 208.4V208.373H56.2021V207.17H58.7861V205.803H60.3174V207.17H62.8877V208.373H60.3037V208.4ZM57.624 218.066V213.65H65.6084V218.066H57.624ZM59.1279 216.836H64.1045V214.854H59.1279V216.836ZM64.0908 213.131V205.857H65.6084V208.838H67.3311V210.096H65.6084V213.131H64.0908ZM70.3662 216.029L69.2178 219.857H67.9189L68.6299 216.029H70.3662ZM86.1162 212.078V213.295H74.8506V212.078H79.7041V210.889H76.3135V206.158H77.8174V207.389H83.1494V206.158H84.6533V210.889H81.2354V212.078H86.1162ZM76.0947 215.482V214.279H84.7354V218.217H83.2178V215.482H76.0947ZM77.8174 209.672H83.1494V208.523H77.8174V209.672ZM98.2295 213.049V214.252H93.3076V218.217H91.8037V214.252H86.9365V213.049H98.2295ZM88.3037 211.764V206.35H89.8076V207.867H95.3311V206.35H96.8623V211.764H88.3037ZM89.8076 210.533H95.3311V209.07H89.8076V210.533ZM104.929 206.938V208.154H104.04V211.388C104.409 211.36 104.771 211.326 105.106 211.285L105.175 212.379C103.24 212.762 100.697 212.796 99.1182 212.789L98.9541 211.531H100.062V208.154H99.1865V206.938H104.929ZM101.21 215.92C101.203 214.484 102.844 213.644 105.448 213.637C108.032 213.644 109.68 214.484 109.687 215.92C109.68 217.355 108.032 218.203 105.448 218.203C102.844 218.203 101.203 217.355 101.21 215.92ZM101.456 211.511L102.659 211.47V208.154H101.456V211.511ZM102.728 215.92C102.721 216.645 103.732 217.027 105.448 217.027C107.137 217.027 108.148 216.645 108.155 215.92C108.148 215.188 107.137 214.799 105.448 214.799C103.732 214.799 102.721 215.188 102.728 215.92ZM105.612 213.035V206.104H107.034V208.961H108.169V205.871H109.618V213.377H108.169V210.205H107.034V213.035H105.612ZM117.425 206.924V212.762H111.573V206.924H117.425ZM112.981 217.971V214.006H114.499V216.74H121.39V217.971H112.981ZM113.063 211.559H115.935V208.141H113.063V211.559ZM119.38 214.881V205.857H120.897V209.48H122.62V210.752H120.897V214.881H119.38ZM48.6895 224.623V229.764H42.7285V224.623H48.6895ZM43.4668 235.014C45.8389 234.809 47.3564 233.756 47.4932 232.771H43.9727V231.623H47.5273V230.543H49.0586V231.623H52.627V232.771H49.0996C49.2363 233.729 50.7266 234.774 53.0918 235.014L52.5723 236.176C50.5693 235.964 49.0518 235.178 48.2998 234.152C47.541 235.191 46.0029 235.957 43.9863 236.176L43.4668 235.014ZM44.2324 228.574H47.1855V225.826H44.2324V228.574ZM50.8633 230.898V223.857H52.3672V230.898H50.8633ZM68.7871 230.078V231.295H57.5215V230.078H62.375V228.889H58.9844V224.158H60.4883V225.389H65.8203V224.158H67.3242V228.889H63.9062V230.078H68.7871ZM58.7656 233.482V232.279H67.4062V236.217H65.8887V233.482H58.7656ZM60.4883 227.672H65.8203V226.523H60.4883V227.672ZM80.8867 230.283V231.486H69.5938V230.283H74.4746V229.367H71.043V224.186H79.5332V225.361H72.5605V226.209H79.2324V227.33H72.5605V228.205H79.6289V229.367H75.9922V230.283H80.8867ZM70.9336 234.18C70.9336 232.888 72.4854 232.163 75.2402 232.17C77.9541 232.163 79.5127 232.888 79.5195 234.18C79.5127 235.506 77.9541 236.203 75.2402 236.203C72.4854 236.203 70.9336 235.506 70.9336 234.18ZM72.4512 234.18C72.4512 234.781 73.3809 235.068 75.2402 235.068C77.0654 235.068 77.9883 234.781 78.002 234.18C77.9883 233.592 77.0654 233.305 75.2402 233.305C73.3809 233.305 72.4512 233.592 72.4512 234.18Z" fill="#616161"/>
<path d="M418.345 205.871V212.857H416.813V205.871H418.345ZM408.05 211.408C410.053 210.772 411.092 209.166 411.085 207.539V206.336H412.657V207.539C412.65 209.118 413.703 210.588 415.638 211.203L414.899 212.365C413.471 211.921 412.445 211.012 411.885 209.829C411.331 211.101 410.285 212.119 408.802 212.611L408.05 211.408ZM410.142 218.066V213.473H418.345V218.066H410.142ZM411.646 216.836H416.854V214.676H411.646V216.836ZM429.897 205.871V209.754H431.62V211.012H429.897V215.1H428.38V205.871H429.897ZM420.163 208.455V207.238H423.075V205.857H424.593V207.238H427.491V208.455H420.163ZM420.792 211.326C420.792 209.904 422.029 208.961 423.827 208.961C425.611 208.961 426.842 209.904 426.849 211.326C426.842 212.741 425.611 213.664 423.827 213.664C422.029 213.664 420.792 212.741 420.792 211.326ZM421.981 217.971V214.375H423.499V216.74H430.39V217.971H421.981ZM422.269 211.326C422.262 212.071 422.891 212.495 423.827 212.488C424.764 212.495 425.399 212.071 425.399 211.326C425.399 210.574 424.764 210.137 423.827 210.137C422.891 210.137 422.262 210.574 422.269 211.326ZM445.456 206.609V207.717C445.449 208.872 445.449 210.137 445.128 211.887H446.837V213.117H441.929V218.23H440.397V213.117H435.571V211.887H443.583C443.925 210.205 443.938 208.94 443.938 207.84H436.897V206.609H445.456ZM455.095 207.156V208.346H452.538C452.565 209.419 453.543 210.369 455.368 210.725L454.767 211.9C453.352 211.606 452.354 210.943 451.807 210.055C451.267 211.025 450.241 211.757 448.792 212.064L448.149 210.889C450.002 210.52 450.986 209.48 451.007 208.346H448.464V207.156H451.021V205.885H452.538V207.156H455.095ZM447.685 212.707C449.988 212.714 453.058 212.693 455.696 212.365L455.806 213.459C454.739 213.644 453.632 213.76 452.552 213.835V217.834H451.021V213.917C449.893 213.958 448.819 213.965 447.876 213.965L447.685 212.707ZM456.503 218.203V205.871H458.007V218.203H456.503Z" fill="#616161"/>
<g clip-path="url(#clip0_281_6486)">
<g clip-path="url(#clip1_281_6486)">
<path d="M313.633 235.668C315.74 240.604 316.14 245.553 313.22 250.276C311.42 253.189 309.06 255.624 305.513 256.581C303.966 256.994 302.579 257.579 301.312 258.471C308.873 240.404 293.352 236.507 293.352 236.507C299.872 213.545 299.272 183.333 299.112 178.211H299.165C299.165 179.328 299.712 180.22 300.432 181.098C309.26 192.153 313.287 204.844 313.287 219.146C312.98 222.631 313.58 226.409 312.18 230.054C311.366 232.156 312.86 233.859 313.633 235.668Z" fill="#CEAE8D"/>
<path d="M299.114 178.211C299.274 183.333 299.874 213.545 293.354 236.506C293.354 236.506 308.875 240.404 301.314 258.47C300.554 259.016 299.847 259.654 299.167 260.439C296.1 264.005 292.047 265.894 287.126 265.614C284.246 265.455 281.353 265.401 278.486 265.628C271.352 266.173 263.338 259.668 263.324 252.071C265.164 236.599 261.871 248.12 259.124 248.453C252.163 249.304 245.203 249.251 238.256 248.386C235.762 248.08 232.882 232.555 233.642 251.247C233.282 258.816 228.708 264.856 221.067 265.441C216.894 265.774 212.653 265.707 208.453 265.495C204.693 265.308 201.279 263.911 198.879 260.865C198.186 259.987 197.412 259.255 196.572 258.643C188.825 240.431 204.466 236.506 204.466 236.506C197.692 212.68 198.599 181.044 198.719 177.732C198.732 177.546 198.732 177.452 198.732 177.452C198.639 167.807 200.359 158.362 202.359 148.996C203.413 144.061 205.319 139.298 207.026 134.522C207.84 132.247 208.773 131.955 210.6 134.23C214.694 139.285 220.054 142.079 226.815 141.653C229.988 141.467 232.522 140.575 234.575 138.101C235.229 137.715 245.736 131.729 248.296 131.729C250.857 131.729 263.258 138.114 263.258 138.114L263.298 138.088C263.591 138.407 263.871 138.726 264.138 139.045C266.938 142.385 271.272 142.331 275.259 141.56C279.939 140.642 283.859 138.26 286.993 134.575C289.126 132.061 289.847 132.168 290.993 135.068C294.767 144.566 296.967 154.451 298.034 164.601C298.514 169.098 299.301 173.581 299.167 178.131V178.211H299.114Z" fill="#E8C59A"/>
<path d="M263.311 94.0794C268.832 97.3387 270.098 103.378 267.258 109.365C264.511 115.192 259.431 118.145 254.03 120.766C252.59 121.471 251.03 121.83 251.164 123.839C251.297 126.061 250.763 128.349 253.364 129.906C257.071 132.127 260.391 134.814 263.298 138.087L263.258 138.114C263.258 138.114 250.924 131.728 248.297 131.728C245.67 131.728 235.229 137.715 234.575 138.1C234.789 137.848 235.002 137.568 235.216 137.262C237.349 134.189 240.616 132.021 243.963 130.278C246.67 128.881 246.843 126.646 246.83 124.158C246.803 121.937 245.163 121.445 243.523 120.606C238.602 118.092 233.469 115.658 231.055 110.23C227.988 103.352 227.295 98.2301 235.616 93.5339C244.936 88.2924 254.244 88.7181 263.311 94.0794Z" fill="#593C27"/>
<path d="M198.72 177.73C198.6 181.043 197.693 212.679 204.467 236.505C204.467 236.505 188.826 240.43 196.573 258.642C195.426 257.777 194.133 257.152 192.706 256.673C182.505 253.254 180.278 242.425 184.545 235.175C186.119 232.514 185.799 229.734 185.159 227.113C183.319 219.543 184.652 212.16 186.012 204.776C187.599 196.129 191.666 188.573 196.946 181.628C197.84 180.431 198.653 179.234 198.72 177.73Z" fill="#CEAE8D"/>
<path d="M270.048 191.035C270.048 184.835 270.222 180.405 270.008 175.989C269.488 165.279 261.048 157.018 250.793 156.233C237.699 155.222 228.418 164.574 227.498 177.585C227.151 182.427 227.672 187.296 227.938 192.152C228.712 206.693 229.752 221.22 231.445 235.681C231.765 238.422 233.179 239.938 235.792 240.869C242.886 243.424 250.113 243.251 257.381 242.266C263.275 241.468 266.075 239.34 266.408 235.122C267.595 219.837 270.395 204.671 270.062 191.035H270.048Z" fill="#ECE1CA"/>
<path d="M313.633 235.668C315.74 240.604 316.14 245.553 313.22 250.276C311.42 253.189 309.06 255.624 305.513 256.581C303.966 256.994 302.579 257.579 301.312 258.471C308.873 240.404 293.352 236.507 293.352 236.507C299.872 213.545 299.272 183.333 299.112 178.211H299.165C299.165 179.328 299.712 180.22 300.432 181.098C309.26 192.153 313.287 204.844 313.287 219.146C312.98 222.631 313.58 226.409 312.18 230.054C311.366 232.156 312.86 233.859 313.633 235.668Z" fill="#C18448"/>
<path d="M299.114 178.21C299.274 183.332 299.874 213.544 293.354 236.506C293.354 236.506 308.875 240.404 301.314 258.47C300.554 259.015 299.847 259.654 299.167 260.439C296.1 264.004 292.047 265.893 287.126 265.614C284.246 265.454 281.353 265.401 278.486 265.627C271.352 266.173 263.338 259.667 263.324 252.071C265.164 236.599 261.871 248.12 259.124 248.453C252.163 249.304 245.203 249.251 238.256 248.386C235.762 248.08 232.882 232.555 233.642 251.246C233.282 258.816 228.708 264.856 221.067 265.441C216.894 265.774 212.653 265.707 208.453 265.494C204.693 265.308 201.279 263.911 198.879 260.865C198.186 259.987 197.412 259.255 196.572 258.643C188.825 240.431 204.466 236.506 204.466 236.506C197.692 212.68 198.599 181.044 198.719 177.732C198.732 177.545 198.732 177.452 198.732 177.452C198.639 167.807 200.359 158.362 202.359 148.996C203.413 144.061 206.28 131.263 207.986 126.5C208.8 124.225 208.773 121.312 210.6 123.587C214.694 128.642 220.054 131.436 226.815 131.01C230.322 130.797 233.055 129.733 235.215 126.62C237.349 123.547 240.616 121.378 243.963 119.635C246.67 118.239 246.843 116.004 246.83 113.516C246.803 111.294 245.163 110.802 243.523 109.964C238.602 107.449 233.468 105.015 231.055 99.5872C227.988 92.7093 227.295 87.5875 235.615 82.8914C244.936 77.6498 254.244 78.0755 263.311 83.4368C268.831 86.6961 270.098 92.7359 267.258 98.7224C264.511 104.549 259.431 107.503 254.03 110.123C252.59 110.829 251.03 111.188 251.163 113.197C251.297 115.418 250.763 117.706 253.364 119.263C257.431 121.697 261.031 124.691 264.138 128.402C266.938 131.742 271.272 131.688 275.259 130.917C279.939 129.999 283.859 127.617 286.993 123.932C289.126 121.418 289.847 121.525 290.993 124.425C294.767 133.923 296.967 154.451 298.034 164.601C298.514 169.098 299.301 173.581 299.167 178.131V178.21H299.114Z" fill="#DD9A52"/>
<path d="M198.72 177.732C198.6 181.045 197.693 212.681 204.467 236.507C204.467 236.507 188.826 240.431 196.573 258.644C195.426 257.779 194.133 257.154 192.706 256.675C182.505 253.256 180.278 242.427 184.545 235.177C186.119 232.516 185.799 229.736 185.159 227.115C183.319 219.545 184.652 212.162 186.012 204.778C187.599 196.131 191.666 188.575 196.946 181.63C197.84 180.433 198.653 179.236 198.72 177.732Z" fill="#C18448"/>
<path d="M270.048 195.437C270.048 188.453 270.222 183.464 270.008 178.502C269.488 166.436 261.048 157.137 250.793 156.245C237.699 155.114 228.418 165.637 227.498 180.285C227.151 185.739 227.672 191.22 227.938 196.688C228.712 213.064 230.818 227.286 232.499 243.582C232.819 246.669 234.232 248.372 236.846 249.436C243.94 252.309 248.78 252.123 256.047 251.006C261.941 250.101 263.821 247.706 264.141 242.957C267.101 227.552 270.382 210.803 270.048 195.45V195.437Z" fill="#F4EFE5"/>
<path d="M318.209 79.7513C311.168 57.5744 296.66 37.3266 284.126 34.2402C269.418 30.6217 256.044 29.7969 248.51 29.7969C240.976 29.7969 227.588 30.635 212.893 34.2402C200.359 37.3133 185.851 57.5744 178.811 79.7513C175.13 91.3252 170.463 101.316 174.104 112.025C182.784 137.608 227.335 140.508 248.523 140.508C269.712 140.508 314.262 137.608 322.943 112.025C326.583 101.316 321.903 91.3252 318.236 79.7513H318.209Z" fill="#DD9A52"/>
<path d="M292.301 100.57C273.46 101.089 263.099 103.178 261.685 94.3175C260.512 86.9341 256.978 49.3652 248.498 49.3652C240.017 49.3652 236.483 86.9341 235.31 94.3175C233.896 103.164 223.536 101.089 204.694 100.57C190.239 100.171 181.892 113.86 178.785 120.259C193.906 138.232 219.295 140.52 248.498 140.52C277.7 140.52 303.089 138.232 318.21 120.259C315.103 113.86 306.756 100.171 292.301 100.57Z" fill="#F4EFE5"/>
<path d="M199.244 78.0083C201.191 72.4342 208.511 64.8379 218.259 67.8844C228.02 70.9176 231.433 82.0659 230.94 86.6157C230.446 91.1787 222.646 97.2451 211.432 93.2009C200.217 89.1566 197.284 83.5825 199.244 78.0083Z" fill="#FFE35A"/>
<path d="M225.566 81.2281C225.726 87.6669 221.286 93.0016 215.632 93.1612C209.978 93.3209 205.258 88.2257 205.098 81.8001C204.938 75.3613 209.378 70.0266 215.032 69.8669C220.686 69.7073 225.393 74.8025 225.566 81.2281Z" fill="#593C27"/>
<path d="M297.758 78.0083C295.811 72.4342 288.49 64.8379 278.743 67.8844C268.982 70.9176 265.568 82.0659 266.062 86.6157C266.555 91.1787 274.356 97.2451 285.57 93.2009C296.784 89.1566 299.718 83.5825 297.758 78.0083Z" fill="#FFE35A"/>
<path d="M271.434 81.2281C271.274 87.6669 275.714 93.0016 281.368 93.1612C287.022 93.3209 291.729 88.2257 291.902 81.8001C292.062 75.3613 287.622 70.0266 281.968 69.8669C276.314 69.7073 271.607 74.8025 271.434 81.2281Z" fill="#593C27"/>
<path d="M190.947 89.9289C188.107 87.7073 185.853 86.8825 182.373 86.031C178.479 85.0732 174.105 85.1131 170.145 85.2994C168.612 85.3659 168.625 87.6408 170.145 87.7605C174.425 88.0798 178.399 89.2239 182.586 90.0088C185.253 90.5143 187.933 91.2327 190.64 91.073C191.267 91.0331 191.4 90.2881 190.934 89.9289H190.947Z" fill="#683E29"/>
<path d="M189.573 95.6492C182.492 94.4652 176.292 97.3387 169.891 99.9994C168.758 100.465 169.185 102.101 170.398 101.889C176.945 100.744 183.159 98.6957 189.573 97.0727C190.226 96.913 190.28 95.7689 189.573 95.6492Z" fill="#683E29"/>
<path d="M306.051 89.9289C308.891 87.7073 311.144 86.8825 314.625 86.031C318.518 85.0732 322.892 85.1131 326.852 85.2994C328.386 85.3659 328.373 87.6408 326.852 87.7605C322.572 88.0798 318.598 89.2239 314.411 90.0088C311.758 90.5143 309.064 91.2327 306.357 91.073C305.731 91.0331 305.597 90.2881 306.064 89.9289H306.051Z" fill="#683E29"/>
<path d="M307.424 95.6492C314.505 94.4652 320.705 97.3387 327.106 99.9994C328.239 100.465 327.813 102.101 326.599 101.889C320.052 100.744 313.838 98.6957 307.424 97.0727C306.771 96.913 306.718 95.7689 307.424 95.6492Z" fill="#683E29"/>
<path d="M189.974 70.7847C189.974 70.7847 172.905 12.5556 181.68 6.47595C190.454 0.396285 214.602 14.5644 222.643 21.1629C231.91 28.7592 236.791 41.4108 236.791 41.4108L189.974 70.7847Z" fill="#DD9A52"/>
<path d="M218.75 41.4103C218.75 41.4103 208.509 23.6902 197.295 18.6215C186.081 13.5529 186.561 22.6791 188.028 31.2864C189.495 39.8937 194.855 54.0752 194.855 54.0752C194.855 54.0752 217.777 46.4789 218.75 41.4236V41.4103Z" fill="#F4EFE5"/>
<path d="M221.778 46.0132C221.538 45.5608 221.271 45.1351 220.938 44.736C220.124 42.062 218.137 38.989 216.071 37.326C213.804 35.5035 210.47 33.1621 207.523 32.9891C206.03 32.896 205.843 35.1709 207.19 35.5966C209.163 36.2218 211.204 38.5499 212.644 40.3725C209.577 39.7073 206.403 39.6408 204.123 39.9601C203.19 40.0931 202.776 41.5831 203.883 41.8226C206.99 42.4878 209.857 43.9112 212.87 44.8957C215.684 45.8136 218.271 47.0109 220.618 48.8468C220.991 47.8889 221.378 46.9444 221.791 46.0132H221.778Z" fill="#DD9A52"/>
<path d="M307.024 70.7847C307.024 70.7847 324.092 12.5556 315.318 6.47595C306.544 0.396285 282.396 14.5644 274.355 21.1629C265.087 28.7592 260.207 41.4108 260.207 41.4108L307.024 70.7714V70.7847Z" fill="#DD9A52"/>
<path d="M278.25 41.4103C278.25 41.4103 288.491 23.6902 299.705 18.6215C310.919 13.5529 310.439 22.6791 308.973 31.2864C307.506 39.8937 302.145 54.0752 302.145 54.0752C302.145 54.0752 279.223 46.4789 278.25 41.4236V41.4103Z" fill="#F4EFE5"/>
<path d="M275.211 46.0132C275.451 45.5608 275.718 45.1351 276.051 44.736C276.864 42.062 278.851 38.989 280.918 37.326C283.185 35.5035 286.519 33.1621 289.465 32.9891C290.959 32.896 291.146 35.1709 289.812 35.5966C287.839 36.2218 285.798 38.5499 284.358 40.3725C287.425 39.7073 290.586 39.6408 292.879 39.9601C293.812 40.0931 294.226 41.5831 293.119 41.8226C290.012 42.4878 287.145 43.9112 284.132 44.8957C281.318 45.8136 278.731 47.0109 276.384 48.8468C276.011 47.8889 275.624 46.9444 275.211 46.0132Z" fill="#DD9A52"/>
<path d="M230.109 54.182C230.295 55.0467 231.682 55.5788 232.589 55.5256C235.762 55.3394 237.643 43.9117 238.416 40.5327C238.829 38.6968 239.563 33.9342 240.39 30.0762C238.403 30.1959 236.243 30.3688 233.962 30.6083C231.082 36.8742 228.669 47.5303 230.109 54.182Z" fill="#593C27"/>
<path d="M264.402 55.5256C265.309 55.5788 266.696 55.0467 266.882 54.182C268.323 47.5303 265.909 36.8742 263.029 30.6083C260.749 30.3688 258.602 30.1959 256.602 30.0762C257.428 33.9342 258.162 38.6968 258.575 40.5327C259.348 43.925 261.229 55.3527 264.402 55.5256Z" fill="#593C27"/>
<path d="M245.162 35.9298C245.468 39.6946 245.575 43.1003 247.028 46.5858C247.508 47.7432 249.482 47.7432 249.962 46.5858C251.415 43.1003 251.522 39.6946 251.829 35.9298C252.002 33.7746 251.829 31.7924 251.469 29.8368C250.402 29.8102 249.402 29.7969 248.495 29.7969C247.588 29.7969 246.588 29.8102 245.522 29.8368C245.162 31.7924 244.988 33.7746 245.162 35.9298Z" fill="#593C27"/>
<path d="M248.898 99.1875V111.467" stroke="#593C27" stroke-width="4" stroke-miterlimit="10"/>
<path d="M248.898 95.7144C246.884 95.7144 241.084 94.7299 242.044 98.0824C243.177 102.02 247.284 103.803 248.898 103.803C250.511 103.803 254.618 102.02 255.752 98.0824C256.712 94.7166 250.911 95.7144 248.898 95.7144Z" fill="#593C27"/>
<path d="M253.487 113.503C257.554 115.938 260.261 117.973 263.381 121.698C263.381 121.698 251.047 115.312 248.406 115.312C245.766 115.312 234.672 121.698 234.672 121.698C236.805 118.612 240.739 115.605 244.086 113.876C246.78 112.479 246.94 109.978 246.913 107.477L250.9 107.543C251.033 109.765 250.873 111.947 253.487 113.503Z" fill="#593C27"/>
</g>
<path opacity="0.3" d="M266.377 184.478C275.653 184.478 283.172 176.968 283.172 167.706C283.172 158.443 275.653 150.934 266.377 150.934C257.101 150.934 249.582 158.443 249.582 167.706C249.582 176.968 257.101 184.478 266.377 184.478Z" fill="#DD051A"/>
<path opacity="0.5" d="M266.376 177C271.516 177 275.682 172.84 275.682 167.707C275.682 162.575 271.516 158.414 266.376 158.414C261.237 158.414 257.07 162.575 257.07 167.707C257.07 172.84 261.237 177 266.376 177Z" fill="#DD051A"/>
<path opacity="0.3" d="M230.041 235.89C239.317 235.89 246.836 228.381 246.836 219.118C246.836 209.855 239.317 202.346 230.041 202.346C220.766 202.346 213.246 209.855 213.246 219.118C213.246 228.381 220.766 235.89 230.041 235.89Z" fill="#DD051A"/>
<path opacity="0.5" d="M230.044 228.412C235.184 228.412 239.35 224.252 239.35 219.119C239.35 213.987 235.184 209.826 230.044 209.826C224.905 209.826 220.738 213.987 220.738 219.119C220.738 224.252 224.905 228.412 230.044 228.412Z" fill="#DD051A"/>
<path opacity="0.3" d="M211.94 33.544C221.215 33.544 228.735 26.0349 228.735 16.772C228.735 7.50907 221.215 0 211.94 0C202.664 0 195.145 7.50907 195.145 16.772C195.145 26.0349 202.664 33.544 211.94 33.544Z" fill="#DD051A"/>
<path opacity="0.5" d="M211.939 26.0647C217.078 26.0647 221.245 21.9041 221.245 16.7716C221.245 11.6392 217.078 7.47852 211.939 7.47852C206.799 7.47852 202.633 11.6392 202.633 16.7716C202.633 21.9041 206.799 26.0647 211.939 26.0647Z" fill="#DD051A"/>
<path d="M182.336 157.198C182.284 155.553 180.232 157.08 178.206 158.19C176.089 155.632 172.913 154 169.358 154C165.803 154 162.496 155.697 160.392 158.346C158.274 157.198 156.039 155.436 156 157.198C156 157.198 156.065 159.913 158.183 162.902C157.974 163.776 157.856 164.69 157.856 165.629C157.856 172.051 163.006 177.246 169.371 177.246C175.736 177.246 180.886 172.038 180.886 165.629C180.886 164.507 180.716 163.411 180.428 162.393C182.297 159.652 182.363 157.224 182.363 157.224L182.336 157.198Z" fill="#DD051A"/>
<path d="M161.998 164.795C161.776 166.231 162.678 167.627 164.168 168.006C165.658 168.384 167.161 167.614 167.71 166.27L161.998 164.795Z" fill="white"/>
<path d="M176.73 164.795L170.992 166.27C171.541 167.614 173.057 168.384 174.547 168.006C176.037 167.627 176.952 166.231 176.73 164.795Z" fill="white"/>
<path d="M331.124 141.719C331.098 140.727 329.856 141.654 328.627 142.319C327.36 140.779 325.438 139.787 323.295 139.787C321.151 139.787 319.165 140.805 317.884 142.411C316.603 141.719 315.27 140.649 315.23 141.719C315.23 141.719 315.27 143.363 316.551 145.152C316.42 145.674 316.355 146.222 316.355 146.796C316.355 150.66 319.465 153.805 323.295 153.805C327.124 153.805 330.235 150.673 330.235 146.796C330.235 146.117 330.13 145.465 329.961 144.838C331.085 143.181 331.124 141.719 331.124 141.719Z" fill="#DD051A"/>
<path d="M318.863 146.301C318.733 147.162 319.268 148.011 320.17 148.232C321.072 148.467 321.974 147.998 322.314 147.188L318.863 146.301Z" fill="white"/>
<path d="M327.753 146.301L324.289 147.188C324.616 147.998 325.531 148.467 326.433 148.232C327.334 147.998 327.883 147.162 327.74 146.301H327.753Z" fill="white"/>
</g>
<path d="M85.22 29.7651C85.22 28.4369 84.61 27.2585 83.65 26.4896C84.61 25.7207 85.22 24.5323 85.22 23.2141C85.22 20.8874 83.33 19 81 19C79.67 19 78.49 19.6092 77.72 20.5678C76.95 19.6092 75.76 19 74.44 19C73.24 19 72.16 19.4993 71.39 20.3082C70.62 19.5093 69.54 19 68.34 19C67.01 19 65.83 19.6092 65.06 20.5678C64.29 19.6092 63.1 19 61.78 19C60.46 19 59.27 19.6092 58.5 20.5678C57.73 19.6092 56.54 19 55.22 19C52.89 19 51 20.8874 51 23.2141C51 24.5423 51.61 25.7207 52.57 26.4896C51.61 27.2585 51 28.4469 51 29.7651C51 31.0832 51.61 32.2716 52.57 33.0405C51.61 33.8094 51 34.9978 51 36.316C51 37.5143 51.5 38.5928 52.31 39.3617C51.51 40.1307 51 41.2092 51 42.4075C51 44.7343 52.89 46.6217 55.22 46.6217C57.55 46.6217 59.44 44.7343 59.44 42.4075C59.44 41.2092 58.94 40.1307 58.13 39.3617C58.93 38.5928 59.44 37.5143 59.44 36.316C59.44 34.9878 58.83 33.8094 57.87 33.0405C58.83 32.2716 59.44 31.0832 59.44 29.7651C59.44 28.4469 58.83 27.2585 57.87 26.4896C58.1 26.2999 58.31 26.0902 58.5 25.8605C59.27 26.8191 60.46 27.4283 61.78 27.4283C63.1 27.4283 64.29 26.8191 65.06 25.8605C65.83 26.8191 67.02 27.4283 68.34 27.4283C69.54 27.4283 70.62 26.929 71.39 26.1201C72.16 26.919 73.24 27.4283 74.44 27.4283C75.77 27.4283 76.95 26.8191 77.72 25.8605C77.91 26.0902 78.12 26.2999 78.35 26.4896C77.39 27.2585 76.78 28.4469 76.78 29.7651C76.78 31.0832 77.39 32.2716 78.35 33.0405C77.39 33.8094 76.78 34.9978 76.78 36.316C76.78 37.5143 77.28 38.5928 78.09 39.3617C77.96 39.4816 77.83 39.6214 77.72 39.7612C76.95 38.8025 75.76 38.1934 74.44 38.1934C72.11 38.1934 70.22 40.0807 70.22 42.4075C70.22 43.8255 70.93 45.0838 72.01 45.8427C71.49 46.4219 71.16 47.1809 71.16 48.0197C71.16 49.8272 72.63 51.2952 74.44 51.2952C76.25 51.2952 77.72 49.8272 77.72 48.0197C77.72 47.1809 77.39 46.4219 76.87 45.8328C77.19 45.6031 77.48 45.3434 77.72 45.0438C78.49 46.0025 79.68 46.6117 81 46.6117C83.33 46.6117 85.22 44.7243 85.22 42.3975C85.22 41.1992 84.72 40.1207 83.91 39.3517C84.71 38.5828 85.22 37.5043 85.22 36.306C85.22 34.9778 84.61 33.7995 83.65 33.0305C84.61 32.2616 85.22 31.0732 85.22 29.7551V29.7651Z" fill="#E83849"/>
<path d="M81.4794 37.5188L81.485 37.6916C81.4817 37.7215 81.4777 37.7547 81.4729 37.7912C81.4472 37.9857 81.3981 38.2717 81.3046 38.6236C81.1176 39.3275 80.7538 40.293 80.0472 41.3199L79.9137 41.5139L79.9782 41.7403C80.1958 42.5035 80.3235 43.3228 80.3235 44.1584C80.3235 48.9412 76.445 52.828 71.651 52.828C66.8565 52.828 62.9784 48.9512 62.9784 44.1584C62.9784 43.4589 63.0668 42.777 63.2248 42.1224L63.2784 41.9002L63.1455 41.7143C62.3427 40.5914 61.9308 39.5226 61.7196 38.7391C61.6141 38.3473 61.5589 38.0276 61.5302 37.8093C61.5159 37.7002 61.5082 37.6166 61.5041 37.5622C61.5021 37.535 61.501 37.5151 61.5004 37.503L61.5003 37.5001C61.5015 37.4652 61.5043 37.4379 61.5074 37.4169C61.5241 37.419 61.5447 37.4225 61.5694 37.4278C61.661 37.4478 61.78 37.4882 61.9288 37.5529C62.2281 37.6832 62.586 37.8842 62.9924 38.1214C63.0761 38.1703 63.1618 38.2206 63.2488 38.2718C63.5746 38.4632 63.9207 38.6666 64.2615 38.8498L64.6281 39.0469L64.8884 38.7221C66.4727 36.7453 68.965 35.4785 71.6406 35.4785C74.3171 35.4785 76.709 36.695 78.3054 38.6063L78.5678 38.9205L78.9276 38.7252C79.2021 38.5763 79.482 38.4152 79.7481 38.2621C79.8776 38.1875 80.0039 38.1149 80.1247 38.0464C80.5055 37.8306 80.8369 37.6533 81.1109 37.5427C81.2471 37.4877 81.3537 37.4556 81.4337 37.4412C81.4485 37.4386 81.4614 37.4367 81.4725 37.4354C81.4756 37.4564 81.4783 37.4838 81.4794 37.5188Z" fill="#E83849" stroke="white"/>
<path d="M67.627 45.5497C66.8914 45.3645 66.3952 44.798 66.2772 44.1442L69.5452 44.9804C69.0943 45.4839 68.3637 45.7351 67.627 45.5497Z" fill="white" stroke="white"/>
<path d="M75.6552 45.5497C74.9176 45.7353 74.1816 45.4834 73.7284 44.9807L77.0141 44.1438C76.8936 44.7962 76.3931 45.3639 75.6552 45.5497Z" fill="white" stroke="white"/>
<g clip-path="url(#clip2_281_6486)">
<ellipse cx="435" cy="30.9836" rx="2" ry="1.99723" fill="#E83849"/>
<ellipse cx="438.5" cy="30.4848" rx="2.5" ry="2.49653" fill="#E83849"/>
<path d="M444.78 30.1641H412V43.2858C412 47.1205 415.11 50.2262 418.95 50.2262H437.82C441.66 50.2262 444.77 47.1205 444.77 43.2858V30.1641H444.78Z" fill="#C4CACE"/>
<path d="M426.608 20.3176C426.328 20.6272 426.268 21.0765 426.458 21.446C427.898 24.2521 427.648 33.9886 427.418 37.2341M426.608 20.3176L430.528 25.2408C430.908 28.2166 430.988 34.6377 430.998 37.1942C431.498 37.6735 431.788 38.3326 431.788 39.0416C431.788 40.4497 430.638 41.608 429.228 41.608C427.818 41.608 426.668 40.4596 426.668 39.0416C426.668 38.3526 426.938 37.7035 427.418 37.2341M426.608 20.3176L426.608 20.3176L426.608 20.3176ZM426.608 20.3176C426.798 20.1079 427.068 19.998 427.348 19.998M426.608 20.3176L427.348 19.998M427.418 37.2341L427.068 36.8766C427.021 36.9229 426.975 36.9707 426.931 37.0198M427.418 37.2341L426.919 37.1988C426.923 37.1412 426.927 37.0815 426.931 37.0198M426.931 37.0198C427.041 35.3597 427.149 32.2483 427.064 29.1892C427.02 27.6028 426.924 26.0395 426.752 24.7044C426.577 23.3522 426.33 22.2928 426.013 21.6743M426.931 37.0198C426.439 37.5703 426.168 38.2886 426.168 39.0416C426.168 40.7352 427.541 42.108 429.228 42.108C430.916 42.108 432.288 40.7239 432.288 39.0416C432.288 38.2691 431.999 37.5457 431.497 36.9908C431.483 34.3203 431.399 28.1145 431.024 25.1779C430.482 20.8743 428.323 19.7659 427.915 19.6043C427.722 19.525 427.526 19.498 427.348 19.498C426.938 19.498 426.529 19.6594 426.237 19.9819L426.237 19.9819L426.237 19.9822C425.819 20.4447 425.727 21.1183 426.013 21.6743M426.013 21.6743C426.013 21.6744 426.013 21.6746 426.013 21.6747L426.458 21.446L426.013 21.6743ZM427.348 19.998C427.478 19.998 427.608 20.018 427.728 20.0679L427.348 19.998Z" fill="#F18892" stroke="white"/>
<path d="M427.348 20.9961C427.348 20.9961 429.068 21.6951 429.538 25.37C429.938 28.5256 429.998 35.7356 430.008 37.6929C430.478 37.9625 430.798 38.4718 430.798 39.051C430.798 39.9098 430.098 40.6089 429.228 40.6089C428.358 40.6089 427.668 39.9098 427.668 39.051C427.668 38.5018 427.948 38.0225 428.378 37.7428C428.488 36.4646 429.148 24.5212 427.348 21.0061" fill="#E83849"/>
<ellipse cx="422" cy="30.9836" rx="2" ry="1.99723" fill="#C4CACE"/>
<ellipse cx="419" cy="31.9816" rx="2" ry="1.99723" fill="#C4CACE"/>
<path d="M416.74 30.2946C416.74 30.2946 417.271 28.7476 415 28.4871C415 28.4871 417.5 27.4885 418.1 30.2946C418.1 30.2946 416.73 30.1948 416.73 30.2946H416.74Z" fill="#C4CACE"/>
<path d="M421.069 30.294C421.069 30.294 421.5 28.2553 419 27.4878C419 27.4878 422.159 26.9885 422.159 30.294C422.159 30.294 421.069 30.2141 421.069 30.294Z" fill="#C4CACE"/>
</g>
<defs>
<clipPath id="clip0_281_6486">
<rect width="200" height="266.172" fill="white" transform="translate(148)"/>
</clipPath>
<clipPath id="clip1_281_6486">
<rect width="159" height="261" fill="white" transform="translate(169 5)"/>
</clipPath>
<clipPath id="clip2_281_6486">
<rect width="32.78" height="31.2267" fill="white" transform="translate(412 19)"/>
</clipPath>
</defs>
</svg>
