<svg width="481" height="267" viewBox="0 0 481 267" fill="none" xmlns="http://www.w3.org/2000/svg">
<ellipse cx="68" cy="34.9584" rx="30" ry="29.9584" fill="white"/>
<ellipse cx="428" cy="34.9584" rx="30" ry="29.9584" fill="white"/>
<ellipse cx="62" cy="166.958" rx="30" ry="29.9584" fill="white"/>
<path d="M64.4988 152.81C64.5057 154.239 64.5148 156.002 64.5023 156.742C64.4748 158.339 64.6394 159.701 65.6977 159.861C67.5114 160.133 68.9331 157.189 71.829 157.189C74.7238 157.189 76.7124 160.354 77.4872 162.661C78.2632 164.967 78.0484 168.902 77.5672 170.61C77.0872 172.318 76.3353 176.118 71.1696 179.137C68.7182 180.569 64.4314 181.014 62.0017 180.864C59.5732 180.715 56.6007 179.672 54.9207 177.385C53.2396 175.099 49.8019 175.813 49.8019 178.326L49.8133 181.189C49.8168 182.19 49.0088 183 48.0076 183H47.8568C46.8568 183 46.0339 182.19 46.0157 181.189C45.9974 180.181 45.9859 179.064 46.0351 178.325C46.1597 176.475 46.6682 174.465 48.4191 172.503C51.3676 169.197 53.475 171.666 54.795 172.379C56.1138 173.093 57.2749 170.874 60.068 172.41C60.068 172.41 60.7926 169.063 64.3446 168.497C64.3446 168.497 60.7332 167 60.7332 157.984C60.6669 157.291 60.6703 154.64 60.6829 152.811C60.6897 151.81 61.5092 151 62.5103 151H62.6794C63.6806 151 64.4943 151.81 64.4988 152.81Z" fill="#E83849"/>
<ellipse cx="428" cy="166.958" rx="30" ry="29.9584" fill="white"/>
<path d="M446.834 167.328C446.584 166.912 440.629 157.038 433.017 157.003H432.976C432.113 156.976 431.256 157.153 430.475 157.521C429.694 157.889 429.01 158.437 428.481 159.12C428.336 159.299 428.175 159.464 428 159.614C427.825 159.464 427.664 159.299 427.519 159.12C426.99 158.437 426.306 157.889 425.525 157.521C424.744 157.153 423.887 156.976 423.024 157.003H422.983C415.371 157.038 409.416 166.912 409.166 167.328C409.04 167.542 408.983 167.79 409.004 168.038C409.026 168.285 409.124 168.52 409.285 168.708C409.594 169.047 416.452 177 428 177C439.548 177 446.406 169.047 446.715 168.708C446.876 168.52 446.974 168.285 446.996 168.038C447.017 167.79 446.96 167.542 446.834 167.328ZM415.638 166.942C415.852 166.347 422.086 167.929 428 167.929C433.914 167.929 440.148 166.323 440.362 166.942C440.576 167.56 434.341 170.308 428 170.308C421.659 170.308 415.418 167.56 415.638 166.942Z" fill="#E83849"/>
<path d="M44.1885 73.8574V80.1875H42.6709V77.0566H40.21V75.8398H42.6709V73.8574H44.1885ZM33.7705 79.0391C35.7598 78.4375 36.792 76.9131 36.792 75.252V74.2676H38.3232V75.252C38.3164 76.7764 39.3145 78.2188 41.2354 78.8066L40.4287 79.9824C39.0889 79.5381 38.1182 78.6631 37.5713 77.542C37.0381 78.793 36.0195 79.7773 34.5635 80.2559L33.7705 79.0391ZM36.0537 81.9102V80.7207H44.1885V83.9199H37.5576V84.8633H44.585V86.0664H36.0674V82.7852H42.6846V81.9102H36.0537ZM50.3545 76.8242C50.3408 79.0322 51.4482 81.2607 53.3623 82.1836L52.4326 83.4004C51.0928 82.7236 50.1289 81.418 49.6025 79.8457C49.0625 81.5273 48.0508 82.9219 46.6357 83.6328L45.7061 82.416C47.6953 81.4727 48.8301 79.1074 48.8369 76.8242V74.8555H50.3545V76.8242ZM54.1006 86.2168V73.8574H55.6182V78.6973H57.5186V79.9961H55.6182V86.2168H54.1006ZM67.9502 74.623V79.7637H61.9893V74.623H67.9502ZM62.7275 85.0137C65.0996 84.8086 66.6172 83.7559 66.7539 82.7715H63.2334V81.623H66.7881V80.543H68.3193V81.623H71.8877V82.7715H68.3604C68.4971 83.7285 69.9873 84.7744 72.3525 85.0137L71.833 86.1758C69.8301 85.9639 68.3125 85.1777 67.5605 84.1523C66.8018 85.1914 65.2637 85.957 63.2471 86.1758L62.7275 85.0137ZM63.4932 78.5742H66.4463V75.8262H63.4932V78.5742ZM70.124 80.8984V73.8574H71.6279V80.8984H70.124ZM87.1318 73.8711V82.9902H85.6143V79.8867H83.126V80.9805H77.3428V74.6777H78.8604V76.6738H81.6221V74.6777H83.126V76.0039H85.6143V73.8711H87.1318ZM78.8604 79.7773H81.6221V77.8496H78.8604V79.7773ZM78.9834 85.9707V82.0879H80.5283V84.7402H87.4053V85.9707H78.9834ZM83.126 78.6562H85.6143V77.2344H83.126V78.6562ZM99.1631 73.8574V86.2305H97.6318V73.8574H99.1631ZM89.5381 83.3184V74.8691H91.0557V77.959H94.0498V74.8691H95.5537V83.3184H89.5381ZM91.0557 82.0742H94.0498V79.1484H91.0557V82.0742Z" fill="#616161"/>
<path d="M385.891 73.7661V86.1255H384.359V73.7661H385.891ZM375.541 81.9556C376.02 81.9556 376.532 81.9487 377.072 81.9419V76.2134H375.869V74.9692H382.883V76.2134H381.693V81.7573C382.281 81.7095 382.869 81.6548 383.43 81.5864L383.512 82.7212C380.859 83.1519 377.968 83.1997 375.691 83.1997L375.541 81.9556ZM378.535 81.9146C379.082 81.9009 379.643 81.8804 380.203 81.8462V76.2134H378.535V81.9146ZM398.947 80.9575V82.1606H394.025V86.1255H392.521V82.1606H387.654V80.9575H398.947ZM389.021 79.6724V74.2583H390.525V75.7759H396.049V74.2583H397.58V79.6724H389.021ZM390.525 78.4419H396.049V76.979H390.525V78.4419ZM403.158 85.0454C401.135 85.0522 399.891 83.856 399.891 82.2837C399.891 81.1147 400.643 80.4038 401.75 79.6382C401.183 78.9341 400.738 78.2095 400.738 77.3345C400.738 75.9263 401.764 74.8872 403.322 74.8872C404.881 74.8872 405.845 75.9194 405.838 77.1294C405.845 78.0728 405.353 78.7905 404.525 79.3853L403.896 79.8501L405.708 81.9761C405.968 81.4839 406.125 80.9028 406.125 80.2466H407.629C407.622 81.6069 407.246 82.5708 406.768 83.2134L408.217 84.9087H406.33L405.694 84.1841C404.99 84.7788 404.026 85.0522 403.158 85.0454ZM401.6 82.2017C401.6 82.9878 402.235 83.6167 403.213 83.6235C403.739 83.6235 404.279 83.4321 404.744 83.0972L402.687 80.7319L402.529 80.8481C401.859 81.3403 401.6 81.8599 401.6 82.2017ZM402.283 77.3618C402.29 77.813 402.591 78.271 403.001 78.7837L403.568 78.4009C404.088 78.0659 404.361 77.7104 404.361 77.2114C404.361 76.7808 403.979 76.3159 403.35 76.3228C402.721 76.3159 402.29 76.8218 402.283 77.3618ZM414.998 74.8052V75.7896H417.486V73.7798H419.004V82.7759H417.486V79.6587H414.998V80.7251H409.188V74.8052H414.998ZM410.705 79.5356H413.494V76.0083H410.705V79.5356ZM410.855 85.8794V81.9419H412.4V84.6489H419.277V85.8794H410.855ZM414.998 78.4419H417.486V77.0337H414.998V78.4419ZM431.104 81.6548V86.1255H429.586V82.8579H422.682V81.6548H431.104ZM420.918 77.4438C420.918 75.6938 422.319 74.436 424.186 74.4497C425.204 74.4429 426.093 74.8257 426.674 75.4751H429.586V73.7661H431.104V81.0669H429.586V79.4263H426.688C426.1 80.0825 425.211 80.479 424.186 80.479C422.319 80.479 420.918 79.2212 420.918 77.4438ZM422.367 77.4438C422.367 78.5171 423.126 79.187 424.186 79.1938C425.197 79.187 425.97 78.5171 425.977 77.4438C425.97 76.4116 425.197 75.728 424.186 75.7349C423.126 75.728 422.367 76.4116 422.367 77.4438ZM427.33 78.1958H429.586V76.7192H427.337C427.392 76.9517 427.426 77.1909 427.426 77.4438C427.426 77.7036 427.392 77.9565 427.33 78.1958ZM437.529 76.7329C437.516 79.0024 438.712 81.272 440.715 82.1333L439.812 83.3501C438.391 82.6938 437.352 81.3882 436.777 79.7749C436.21 81.5112 435.144 82.9331 433.646 83.6372L432.717 82.3657C434.774 81.4771 435.978 79.1187 435.984 76.7329V74.7642H437.529V76.7329ZM441.604 86.1392V73.7661H443.135V86.1392H441.604ZM451.338 75.4614C451.338 77.3687 453.204 79.2896 455.795 79.7407L455.111 81.0122C453.04 80.5815 451.345 79.3237 450.538 77.6626C449.725 79.3101 448.029 80.5747 445.965 81.0122L445.295 79.7407C447.845 79.2759 449.718 77.3618 449.725 75.4614V74.5454H451.338V75.4614ZM444.953 84.5532V83.2954H456.246V84.5532H444.953ZM462.275 74.5317V75.7622H459.035V76.9243H461.811V78.1001H459.035V79.3716C460.512 79.3579 461.537 79.2964 462.74 79.0845L462.904 80.2739C461.476 80.5337 460.3 80.5884 458.393 80.5884H457.572V74.5317H462.275ZM459.281 85.9751V81.6821H467.621V85.9751H459.281ZM460.799 84.7446H466.117V82.8853H460.799V84.7446ZM462.344 78.0181V76.7876H463.738V73.9712H465.188V81.0669H463.738V78.0181H462.344ZM466.172 81.1626V73.7661H467.621V81.1626H466.172ZM479.816 73.7661V86.1255H478.354V73.7661H479.816ZM469.275 79.1118C469.275 76.3911 470.328 74.7026 471.941 74.7095C473.438 74.7026 474.457 76.104 474.635 78.4146H475.824V73.9849H477.273V85.5239H475.824V79.645H474.648C474.505 82.0581 473.473 83.5347 471.941 83.5278C470.328 83.5347 469.275 81.8394 469.275 79.1118ZM470.684 79.1118C470.677 81.0464 471.155 82.0854 471.941 82.0786C472.762 82.0854 473.247 81.0464 473.254 79.1118C473.247 77.1841 472.762 76.1382 471.941 76.145C471.155 76.1382 470.677 77.1841 470.684 79.1118ZM413.829 97.9458V99.1626H409.058V101.432H407.554V99.1626H402.536V97.9458H413.829ZM403.903 103.879V100.297H405.421V102.649H412.585V103.879H403.903ZM403.972 96.7974V92.3267H412.38V96.7974H403.972ZM405.448 95.6079H410.876V93.5161H405.448V95.6079ZM425.286 91.7661V104.125H423.837V91.7661H425.286ZM414.431 100.612C416.215 99.5249 417.001 97.2964 417.001 95.1431V94.3228H414.854V93.0923H420.46V94.3228H418.464V95.1431C418.464 97.228 419.209 99.3198 420.979 100.338L420.077 101.459C418.936 100.783 418.177 99.6069 417.746 98.1987C417.309 99.7231 416.522 101.022 415.36 101.747L414.431 100.612ZM419.558 97.3032V96.0728H421.335V91.9985H422.771V103.524H421.335V97.3032H419.558ZM431.999 92.313V93.8853H434.884V92.313H436.388V97.6997H430.495V92.313H431.999ZM431.739 99.7778V98.5884H439.819V101.829H433.257V102.813H440.202V104.016H431.753V100.721H438.302V99.7778H431.739ZM431.999 96.4966H434.884V95.0337H431.999V96.4966ZM438.302 98.0962V91.7661H439.819V94.2681H441.542V95.4985H439.819V98.0962H438.302ZM446.026 94.063C446.033 95.396 446.812 96.7427 448.433 97.3579L447.626 98.52C446.525 98.103 445.76 97.3101 445.315 96.353C444.864 97.4536 444.058 98.397 442.882 98.8892L442.062 97.7271C443.764 96.9751 444.557 95.4302 444.563 94.063V92.5317H446.026V94.063ZM444.331 101.829C444.324 100.407 445.965 99.5591 448.569 99.5591C451.153 99.5591 452.801 100.407 452.808 101.829C452.801 103.257 451.153 104.112 448.569 104.112C445.965 104.112 444.324 103.257 444.331 101.829ZM445.849 101.829C445.842 102.56 446.854 102.957 448.569 102.95C450.258 102.957 451.27 102.56 451.276 101.829C451.27 101.104 450.258 100.708 448.569 100.708C446.854 100.708 445.842 101.104 445.849 101.829ZM448.638 98.9712V92.0122H450.06V94.897H451.29V91.7798H452.739V99.354H451.29V96.1411H450.06V98.9712H448.638Z" fill="#616161"/>
<path d="M10.4561 206.609V207.717C10.4492 208.872 10.4492 210.137 10.1279 211.887H11.8369V213.117H6.92871V218.23H5.39746V213.117H0.571289V211.887H8.58301C8.9248 210.205 8.93848 208.94 8.93848 207.84H1.89746V206.609H10.4561ZM22.7197 212.078V213.295H19.0693V215.551H23.9639V216.768H12.6709V215.551H17.5381V213.295H14.0518V206.773H22.6104V208.004H15.5967V209.398H22.3232V210.602H15.5967V212.078H22.7197ZM27.1768 216.029L26.0283 219.857H24.7295L25.4404 216.029H27.1768ZM41.3408 205.857V210.684H43.1729V211.955H41.3408V218.189H39.8232V205.857H41.3408ZM31.5928 214.812C34.6006 213.309 36.2275 211.217 36.5283 208.4H32.2627V207.143H38.0732C38.0664 210.772 36.5625 213.965 32.4541 215.988L31.5928 214.812ZM50.1455 207.553C50.1455 209.46 52.0117 211.381 54.6025 211.832L53.9189 213.104C51.8477 212.673 50.1523 211.415 49.3457 209.754C48.5322 211.401 46.8369 212.666 44.7725 213.104L44.1025 211.832C46.6523 211.367 48.5254 209.453 48.5322 207.553V206.637H50.1455V207.553ZM43.7607 216.645V215.387H55.0537V216.645H43.7607ZM60.3037 208.4C60.2969 209.747 61.3018 211.046 63.2432 211.586L62.5459 212.762C61.124 212.372 60.1191 211.545 59.5586 210.485C59.0186 211.654 57.9863 212.557 56.5166 212.98L55.792 211.805C57.7402 211.258 58.7861 209.877 58.7861 208.4V208.373H56.2021V207.17H58.7861V205.803H60.3174V207.17H62.8877V208.373H60.3037V208.4ZM57.624 218.066V213.65H65.6084V218.066H57.624ZM59.1279 216.836H64.1045V214.854H59.1279V216.836ZM64.0908 213.131V205.857H65.6084V208.838H67.3311V210.096H65.6084V213.131H64.0908ZM70.3662 216.029L69.2178 219.857H67.9189L68.6299 216.029H70.3662ZM86.1162 212.078V213.295H74.8506V212.078H79.7041V210.889H76.3135V206.158H77.8174V207.389H83.1494V206.158H84.6533V210.889H81.2354V212.078H86.1162ZM76.0947 215.482V214.279H84.7354V218.217H83.2178V215.482H76.0947ZM77.8174 209.672H83.1494V208.523H77.8174V209.672ZM98.2295 213.049V214.252H93.3076V218.217H91.8037V214.252H86.9365V213.049H98.2295ZM88.3037 211.764V206.35H89.8076V207.867H95.3311V206.35H96.8623V211.764H88.3037ZM89.8076 210.533H95.3311V209.07H89.8076V210.533ZM104.929 206.938V208.154H104.04V211.388C104.409 211.36 104.771 211.326 105.106 211.285L105.175 212.379C103.24 212.762 100.697 212.796 99.1182 212.789L98.9541 211.531H100.062V208.154H99.1865V206.938H104.929ZM101.21 215.92C101.203 214.484 102.844 213.644 105.448 213.637C108.032 213.644 109.68 214.484 109.687 215.92C109.68 217.355 108.032 218.203 105.448 218.203C102.844 218.203 101.203 217.355 101.21 215.92ZM101.456 211.511L102.659 211.47V208.154H101.456V211.511ZM102.728 215.92C102.721 216.645 103.732 217.027 105.448 217.027C107.137 217.027 108.148 216.645 108.155 215.92C108.148 215.188 107.137 214.799 105.448 214.799C103.732 214.799 102.721 215.188 102.728 215.92ZM105.612 213.035V206.104H107.034V208.961H108.169V205.871H109.618V213.377H108.169V210.205H107.034V213.035H105.612ZM117.425 206.924V212.762H111.573V206.924H117.425ZM112.981 217.971V214.006H114.499V216.74H121.39V217.971H112.981ZM113.063 211.559H115.935V208.141H113.063V211.559ZM119.38 214.881V205.857H120.897V209.48H122.62V210.752H120.897V214.881H119.38ZM48.6895 224.623V229.764H42.7285V224.623H48.6895ZM43.4668 235.014C45.8389 234.809 47.3564 233.756 47.4932 232.771H43.9727V231.623H47.5273V230.543H49.0586V231.623H52.627V232.771H49.0996C49.2363 233.729 50.7266 234.774 53.0918 235.014L52.5723 236.176C50.5693 235.964 49.0518 235.178 48.2998 234.152C47.541 235.191 46.0029 235.957 43.9863 236.176L43.4668 235.014ZM44.2324 228.574H47.1855V225.826H44.2324V228.574ZM50.8633 230.898V223.857H52.3672V230.898H50.8633ZM68.7871 230.078V231.295H57.5215V230.078H62.375V228.889H58.9844V224.158H60.4883V225.389H65.8203V224.158H67.3242V228.889H63.9062V230.078H68.7871ZM58.7656 233.482V232.279H67.4062V236.217H65.8887V233.482H58.7656ZM60.4883 227.672H65.8203V226.523H60.4883V227.672ZM80.8867 230.283V231.486H69.5938V230.283H74.4746V229.367H71.043V224.186H79.5332V225.361H72.5605V226.209H79.2324V227.33H72.5605V228.205H79.6289V229.367H75.9922V230.283H80.8867ZM70.9336 234.18C70.9336 232.888 72.4854 232.163 75.2402 232.17C77.9541 232.163 79.5127 232.888 79.5195 234.18C79.5127 235.506 77.9541 236.203 75.2402 236.203C72.4854 236.203 70.9336 235.506 70.9336 234.18ZM72.4512 234.18C72.4512 234.781 73.3809 235.068 75.2402 235.068C77.0654 235.068 77.9883 234.781 78.002 234.18C77.9883 233.592 77.0654 233.305 75.2402 233.305C73.3809 233.305 72.4512 233.592 72.4512 234.18Z" fill="#616161"/>
<path d="M418.345 205.871V212.857H416.813V205.871H418.345ZM408.05 211.408C410.053 210.772 411.092 209.166 411.085 207.539V206.336H412.657V207.539C412.65 209.118 413.703 210.588 415.638 211.203L414.899 212.365C413.471 211.921 412.445 211.012 411.885 209.829C411.331 211.101 410.285 212.119 408.802 212.611L408.05 211.408ZM410.142 218.066V213.473H418.345V218.066H410.142ZM411.646 216.836H416.854V214.676H411.646V216.836ZM429.897 205.871V209.754H431.62V211.012H429.897V215.1H428.38V205.871H429.897ZM420.163 208.455V207.238H423.075V205.857H424.593V207.238H427.491V208.455H420.163ZM420.792 211.326C420.792 209.904 422.029 208.961 423.827 208.961C425.611 208.961 426.842 209.904 426.849 211.326C426.842 212.741 425.611 213.664 423.827 213.664C422.029 213.664 420.792 212.741 420.792 211.326ZM421.981 217.971V214.375H423.499V216.74H430.39V217.971H421.981ZM422.269 211.326C422.262 212.071 422.891 212.495 423.827 212.488C424.764 212.495 425.399 212.071 425.399 211.326C425.399 210.574 424.764 210.137 423.827 210.137C422.891 210.137 422.262 210.574 422.269 211.326ZM445.456 206.609V207.717C445.449 208.872 445.449 210.137 445.128 211.887H446.837V213.117H441.929V218.23H440.397V213.117H435.571V211.887H443.583C443.925 210.205 443.938 208.94 443.938 207.84H436.897V206.609H445.456ZM455.095 207.156V208.346H452.538C452.565 209.419 453.543 210.369 455.368 210.725L454.767 211.9C453.352 211.606 452.354 210.943 451.807 210.055C451.267 211.025 450.241 211.757 448.792 212.064L448.149 210.889C450.002 210.52 450.986 209.48 451.007 208.346H448.464V207.156H451.021V205.885H452.538V207.156H455.095ZM447.685 212.707C449.988 212.714 453.058 212.693 455.696 212.365L455.806 213.459C454.739 213.644 453.632 213.76 452.552 213.835V217.834H451.021V213.917C449.893 213.958 448.819 213.965 447.876 213.965L447.685 212.707ZM456.503 218.203V205.871H458.007V218.203H456.503Z" fill="#616161"/>
<g clip-path="url(#clip0_518_4804)">
<path d="M268.742 192.623C268.742 186.541 268.912 182.194 268.703 177.861C268.193 167.354 259.92 159.249 249.869 158.479C237.034 157.487 227.937 166.662 227.035 179.427C226.695 184.178 227.205 188.955 227.466 193.719C228.224 207.985 229.244 222.238 230.904 236.426C231.217 239.115 232.603 240.603 235.165 241.516C242.118 244.022 249.202 243.853 256.325 242.887C262.102 242.104 264.847 240.015 265.174 235.878C266.337 220.881 269.082 206.001 268.755 192.623H268.742Z" fill="#ECE1CA"/>
<path d="M204.503 120.301C204.503 120.301 206.477 133.967 210.045 137.53C213.613 141.093 220.07 152.24 220.07 152.24L279.97 154.85L287.368 136.381C287.368 136.381 291.708 131.774 292.309 122.664C292.91 113.553 295.406 104.104 295.406 104.104L285.316 59.0868L266.887 14.9445L225.795 13.7046L206.124 32.7346L197.785 77.3728L204.516 120.301H204.503Z" fill="#F4EFE5"/>
<path d="M342.499 74.2922C350.446 85.2038 348.472 93.1395 341.846 103.659C337.846 110.016 331.729 113.971 325.482 117.69C320.646 120.562 316.725 124.36 313.261 128.667C310.242 132.4 306.556 134.554 301.694 133.718C296.557 132.831 293.708 129.568 292.349 124.543C290.989 119.479 289.983 114.388 289.656 109.181C289.656 109.141 289.656 109.102 289.682 109.05C291.029 101.349 294.152 93.8312 297.276 86.7309C299.956 80.6486 302.57 74.8795 303.824 68.3013C305.157 61.2792 305.314 55.2622 305.275 48.7231C305.157 29.3015 291.499 16.4974 291.499 16.4974C293.29 16.6671 295.198 16.4974 297.328 16.2103C306.634 14.9964 314.503 18.7685 320.136 26.5475C323.952 31.8206 325.482 38.0987 327.769 44.0243C331.808 54.5574 335.781 65.0643 342.499 74.2922Z" fill="#593C27"/>
<path d="M305.271 48.7231C305.311 55.2622 305.154 61.2792 303.821 68.3013C302.566 74.8795 299.952 80.6486 297.273 86.7309C294.149 93.8312 291.025 101.349 289.679 109.05C289.666 109.102 289.666 109.141 289.653 109.181C288.79 95.4236 281.51 85.8042 270.165 78.8343C265.747 76.1195 261.081 73.9137 258.153 69.228C253.814 62.2581 255.827 55.3014 257.5 48.201C258.715 43.0193 260.885 38.19 262.715 33.2302C265.551 25.4642 260.532 18.3378 252.259 18.1159C250.847 18.0767 249.436 18.1159 247.318 18.1159C245.214 18.2333 242.352 17.7374 239.633 18.7946C233.804 21.0656 230.941 27.2132 233.307 33.2172C235.555 38.9732 237.829 44.7291 239.28 50.7331C241.345 59.3084 241.528 67.6226 233.869 73.9267C231.712 75.7018 229.255 77.1637 226.772 78.4689C217.296 83.4678 210.892 91.1686 207.742 101.245C207.454 102.172 207.206 103.124 207.01 104.077C208.055 97.277 200.37 89.3021 197.233 83.9116C190.097 71.747 189.757 56.1367 190.685 42.3928C191.783 25.9863 203.964 16.4974 203.964 16.4974L203.925 16.2625C207.323 15.7404 210.33 14.3438 213.519 12.2946C220.224 8.01352 227.739 6.25149 235.777 6.40811C240.313 6.49948 244.9 5.41615 249.409 5.7294C261.604 6.56474 274.439 5.377 284.817 13.7173C287.065 15.5185 289.195 16.2886 291.495 16.4974C291.495 16.4974 305.154 29.3015 305.271 48.7231ZM281.824 65.0774C282.712 65.0774 283.065 64.3726 283.131 63.5242C282.686 62.4409 281.967 61.736 280.7 61.8927C279.994 61.984 279.419 62.4409 279.589 63.1718C279.837 64.2943 280.634 65.0643 281.824 65.0774ZM216.433 63.224C216.564 62.4539 216.002 61.9971 215.27 62.0101C214.185 62.0232 213.349 62.5061 213.244 63.6678C213.192 64.3465 213.61 64.8816 214.473 64.9599C215.479 64.8555 216.237 64.2682 216.433 63.224Z" fill="#E8C59A"/>
<path d="M197.235 83.9115C200.372 89.3021 208.057 97.2769 207.011 104.077C207.011 104.103 206.998 104.116 206.998 104.142C206.175 107.993 205.953 112.026 205.548 115.954C205.155 119.883 204.45 123.707 202.79 127.245C198.96 135.363 188.648 136.381 183.367 129.176C178.963 123.172 173.042 119.1 166.834 115.289C158.626 110.251 152.561 103.255 149.476 94.1052C147.477 88.1926 148 81.9276 151.751 76.9548C158.965 67.3745 163.475 56.5543 167.722 45.5252C169.487 40.9831 171.068 36.3757 172.846 31.8466C176.61 22.2533 186.988 14.6309 197.104 16.1971C199.614 16.5887 201.849 16.5887 203.927 16.2624L203.966 16.4973C203.966 16.4973 191.785 25.9862 190.687 42.3927C189.759 56.1366 190.099 71.747 197.235 83.9115Z" fill="#593C27"/>
<path d="M215.587 69.8421C218.85 69.8421 221.495 67.2008 221.495 63.9425C221.495 60.6843 218.85 58.043 215.587 58.043C212.325 58.043 209.68 60.6843 209.68 63.9425C209.68 67.2008 212.325 69.8421 215.587 69.8421Z" fill="#593C27"/>
<path d="M279.552 69.8421C282.815 69.8421 285.46 67.2008 285.46 63.9425C285.46 60.6843 282.815 58.043 279.552 58.043C276.29 58.043 273.645 60.6843 273.645 63.9425C273.645 67.2008 276.29 69.8421 279.552 69.8421Z" fill="#593C27"/>
<path d="M262.1 140.702L262.14 140.675C262.427 140.989 262.702 141.302 262.963 141.615C265.708 144.891 269.956 144.839 273.864 144.082C278.451 143.181 282.294 140.845 285.365 137.23C287.457 134.763 288.162 134.867 289.286 137.713C292.985 147.032 295.142 156.73 296.187 166.688C296.658 171.1 297.429 175.499 297.298 179.962V180.041H297.246C297.403 185.066 297.991 214.707 291.6 237.235C291.6 237.235 306.814 241.059 299.403 258.784C298.658 259.319 297.965 259.946 297.298 260.716C294.292 264.214 290.319 266.067 285.496 265.793C282.673 265.636 279.837 265.584 277.027 265.806C270.034 266.341 262.179 259.959 262.166 252.506C263.969 237.326 260.741 248.63 258.049 248.956C251.226 249.791 244.403 249.739 237.594 248.891C235.15 248.59 232.327 233.359 233.072 251.697C232.719 259.123 228.236 265.049 220.746 265.623C216.655 265.95 212.499 265.884 208.382 265.676C204.696 265.493 201.35 264.122 198.998 261.133C198.318 260.272 197.56 259.554 196.736 258.954C189.143 241.085 204.474 237.235 204.474 237.235C197.834 213.859 198.723 182.821 198.841 179.571C198.854 179.388 198.854 179.297 198.854 179.297C198.762 169.834 200.448 160.567 202.409 151.378C203.441 146.536 205.31 141.863 206.983 137.177C207.781 134.946 208.696 134.658 210.486 136.89C214.499 141.85 219.753 144.591 226.38 144.173C229.49 143.991 231.974 143.116 233.986 140.688C234.627 140.31 244.926 134.437 247.436 134.437C249.945 134.437 262.1 140.702 262.1 140.702Z" fill="#E8C59A"/>
<path d="M185.551 228.02C183.747 220.594 185.054 213.35 186.388 206.106C187.943 197.622 191.929 190.208 197.105 183.395C197.981 182.22 198.778 181.046 198.844 179.571C198.726 182.821 197.837 213.859 204.477 237.235C204.477 237.235 189.145 241.085 196.739 258.954C195.615 258.105 194.347 257.492 192.949 257.022C182.95 253.668 180.767 243.043 184.95 235.93C186.492 233.319 186.179 230.592 185.551 228.02Z" fill="#CEAE8D"/>
<path d="M266.022 112.496C263.33 118.213 258.35 121.11 253.057 123.682C251.645 124.373 250.116 124.726 250.246 126.697C250.377 128.876 249.854 131.121 252.403 132.648C256.037 134.828 259.291 137.465 262.14 140.675L262.101 140.701C262.101 140.701 250.011 134.436 247.436 134.436C244.862 134.436 234.628 140.31 233.987 140.688C234.196 140.44 234.405 140.166 234.615 139.866C236.706 136.851 239.908 134.724 243.189 133.014C245.842 131.643 246.012 129.451 245.999 127.01C245.973 124.83 244.365 124.347 242.757 123.525C237.934 121.058 232.902 118.669 230.537 113.344C227.53 106.596 226.851 101.571 235.007 96.9638C244.143 91.8213 253.266 92.239 262.153 97.499C267.564 100.697 268.806 106.622 266.022 112.496Z" fill="#593C27"/>
<path d="M310.061 230.904C309.263 232.966 310.727 234.637 311.485 236.412C313.55 241.254 313.942 246.11 311.08 250.743C309.316 253.602 307.002 255.99 303.525 256.93C302.009 257.335 300.65 257.909 299.408 258.783C306.819 241.059 291.605 237.234 291.605 237.234C297.997 214.706 297.409 185.065 297.252 180.04H297.304C297.304 181.136 297.84 182.011 298.546 182.872C307.198 193.719 311.145 206.17 311.145 220.201C310.845 223.621 311.433 227.328 310.061 230.904Z" fill="#CEAE8D"/>
<path d="M268.742 196.93C268.742 190.078 268.912 185.183 268.703 180.315C268.193 168.476 259.92 159.353 249.869 158.479C237.034 157.369 227.937 167.693 227.035 182.064C226.695 187.415 227.205 192.793 227.466 198.157C228.224 214.224 230.289 228.177 231.936 244.166C232.25 247.194 233.635 248.865 236.197 249.909C243.15 252.728 247.895 252.545 255.018 251.449C260.795 250.561 262.638 248.212 262.952 243.552C265.853 228.438 269.069 212.005 268.742 196.943V196.93Z" fill="#F4EFE5"/>
<path d="M281.46 64.5688C282.412 64.5688 283.185 63.7974 283.185 62.8459C283.185 61.8944 282.412 61.123 281.46 61.123C280.507 61.123 279.734 61.8944 279.734 62.8459C279.734 63.7974 280.507 64.5688 281.46 64.5688Z" fill="white"/>
<path d="M217.311 64.5683C218.264 64.5683 219.036 63.797 219.036 62.8454C219.036 61.8939 218.264 61.1226 217.311 61.1226C216.358 61.1226 215.586 61.8939 215.586 62.8454C215.586 63.797 216.358 64.5683 217.311 64.5683Z" fill="white"/>
<path d="M255.321 107.393C256.599 107.393 257.635 106.359 257.635 105.083C257.635 103.807 256.599 102.772 255.321 102.772C254.044 102.772 253.008 103.807 253.008 105.083C253.008 106.359 254.044 107.393 255.321 107.393Z" fill="white"/>
<path opacity="0.3" d="M266.377 184.479C275.653 184.479 283.172 176.969 283.172 167.707C283.172 158.444 275.653 150.935 266.377 150.935C257.101 150.935 249.582 158.444 249.582 167.707C249.582 176.969 257.101 184.479 266.377 184.479Z" fill="#DD051A"/>
<path opacity="0.5" d="M266.376 177C271.516 177 275.682 172.839 275.682 167.707C275.682 162.574 271.516 158.414 266.376 158.414C261.237 158.414 257.07 162.574 257.07 167.707C257.07 172.839 261.237 177 266.376 177Z" fill="#DD051A"/>
<path opacity="0.3" d="M230.041 235.891C239.317 235.891 246.836 228.382 246.836 219.119C246.836 209.856 239.317 202.347 230.041 202.347C220.766 202.347 213.246 209.856 213.246 219.119C213.246 228.382 220.766 235.891 230.041 235.891Z" fill="#DD051A"/>
<path opacity="0.5" d="M230.044 228.411C235.184 228.411 239.35 224.251 239.35 219.118C239.35 213.986 235.184 209.825 230.044 209.825C224.905 209.825 220.738 213.986 220.738 219.118C220.738 224.251 224.905 228.411 230.044 228.411Z" fill="#DD051A"/>
<path opacity="0.3" d="M211.94 33.5435C221.215 33.5435 228.735 26.0344 228.735 16.7715C228.735 7.50858 221.215 -0.000488281 211.94 -0.000488281C202.664 -0.000488281 195.145 7.50858 195.145 16.7715C195.145 26.0344 202.664 33.5435 211.94 33.5435Z" fill="#DD051A"/>
<path opacity="0.5" d="M211.939 26.0647C217.078 26.0647 221.245 21.9041 221.245 16.7716C221.245 11.6392 217.078 7.47852 211.939 7.47852C206.799 7.47852 202.633 11.6392 202.633 16.7716C202.633 21.9041 206.799 26.0647 211.939 26.0647Z" fill="#DD051A"/>
<path d="M183.567 163.622C183.515 161.977 181.463 163.504 179.437 164.614C177.319 162.055 174.143 160.424 170.588 160.424C167.033 160.424 163.726 162.121 161.622 164.77C159.505 163.622 157.27 161.86 157.23 163.622C157.23 163.622 157.296 166.336 159.413 169.325C159.204 170.2 159.086 171.114 159.086 172.053C159.086 178.475 164.236 183.67 170.601 183.67C176.966 183.67 182.116 178.462 182.116 172.053C182.116 170.931 181.946 169.834 181.659 168.816C183.528 166.075 183.593 163.648 183.593 163.648L183.567 163.622Z" fill="#DD051A"/>
<path d="M163.229 171.218C163.007 172.654 163.908 174.05 165.398 174.429C166.888 174.807 168.392 174.037 168.94 172.693L163.229 171.218Z" fill="white"/>
<path d="M177.96 171.218L172.223 172.693C172.772 174.037 174.288 174.807 175.778 174.429C177.268 174.05 178.183 172.654 177.96 171.218Z" fill="white"/>
<path d="M331.124 141.72C331.098 140.728 329.856 141.655 328.627 142.32C327.36 140.78 325.438 139.788 323.295 139.788C321.151 139.788 319.165 140.806 317.884 142.412C316.603 141.72 315.27 140.65 315.23 141.72C315.23 141.72 315.27 143.364 316.551 145.153C316.42 145.675 316.355 146.223 316.355 146.797C316.355 150.661 319.465 153.806 323.295 153.806C327.124 153.806 330.235 150.674 330.235 146.797C330.235 146.118 330.13 145.466 329.961 144.839C331.085 143.182 331.124 141.72 331.124 141.72Z" fill="#DD051A"/>
<path d="M318.863 146.301C318.733 147.163 319.268 148.011 320.17 148.233C321.072 148.468 321.974 147.998 322.314 147.189L318.863 146.301Z" fill="white"/>
<path d="M327.753 146.301L324.289 147.189C324.616 147.998 325.531 148.468 326.433 148.233C327.334 147.998 327.883 147.163 327.74 146.301H327.753Z" fill="white"/>
</g>
<path d="M85.22 29.7651C85.22 28.4369 84.61 27.2585 83.65 26.4896C84.61 25.7207 85.22 24.5323 85.22 23.2141C85.22 20.8874 83.33 19 81 19C79.67 19 78.49 19.6092 77.72 20.5678C76.95 19.6092 75.76 19 74.44 19C73.24 19 72.16 19.4993 71.39 20.3082C70.62 19.5093 69.54 19 68.34 19C67.01 19 65.83 19.6092 65.06 20.5678C64.29 19.6092 63.1 19 61.78 19C60.46 19 59.27 19.6092 58.5 20.5678C57.73 19.6092 56.54 19 55.22 19C52.89 19 51 20.8874 51 23.2141C51 24.5423 51.61 25.7207 52.57 26.4896C51.61 27.2585 51 28.4469 51 29.7651C51 31.0832 51.61 32.2716 52.57 33.0405C51.61 33.8094 51 34.9978 51 36.316C51 37.5143 51.5 38.5928 52.31 39.3617C51.51 40.1307 51 41.2092 51 42.4075C51 44.7343 52.89 46.6217 55.22 46.6217C57.55 46.6217 59.44 44.7343 59.44 42.4075C59.44 41.2092 58.94 40.1307 58.13 39.3617C58.93 38.5928 59.44 37.5143 59.44 36.316C59.44 34.9878 58.83 33.8094 57.87 33.0405C58.83 32.2716 59.44 31.0832 59.44 29.7651C59.44 28.4469 58.83 27.2585 57.87 26.4896C58.1 26.2999 58.31 26.0902 58.5 25.8605C59.27 26.8191 60.46 27.4283 61.78 27.4283C63.1 27.4283 64.29 26.8191 65.06 25.8605C65.83 26.8191 67.02 27.4283 68.34 27.4283C69.54 27.4283 70.62 26.929 71.39 26.1201C72.16 26.919 73.24 27.4283 74.44 27.4283C75.77 27.4283 76.95 26.8191 77.72 25.8605C77.91 26.0902 78.12 26.2999 78.35 26.4896C77.39 27.2585 76.78 28.4469 76.78 29.7651C76.78 31.0832 77.39 32.2716 78.35 33.0405C77.39 33.8094 76.78 34.9978 76.78 36.316C76.78 37.5143 77.28 38.5928 78.09 39.3617C77.96 39.4816 77.83 39.6214 77.72 39.7612C76.95 38.8025 75.76 38.1934 74.44 38.1934C72.11 38.1934 70.22 40.0807 70.22 42.4075C70.22 43.8255 70.93 45.0838 72.01 45.8427C71.49 46.4219 71.16 47.1809 71.16 48.0197C71.16 49.8272 72.63 51.2952 74.44 51.2952C76.25 51.2952 77.72 49.8272 77.72 48.0197C77.72 47.1809 77.39 46.4219 76.87 45.8328C77.19 45.6031 77.48 45.3434 77.72 45.0438C78.49 46.0025 79.68 46.6117 81 46.6117C83.33 46.6117 85.22 44.7243 85.22 42.3975C85.22 41.1992 84.72 40.1207 83.91 39.3517C84.71 38.5828 85.22 37.5043 85.22 36.306C85.22 34.9778 84.61 33.7995 83.65 33.0305C84.61 32.2616 85.22 31.0732 85.22 29.7551V29.7651Z" fill="#E83849"/>
<path d="M81.4794 37.5183L81.485 37.6911C81.4817 37.721 81.4777 37.7542 81.4729 37.7907C81.4472 37.9852 81.3981 38.2712 81.3046 38.6231C81.1176 39.327 80.7538 40.2925 80.0472 41.3194L79.9137 41.5134L79.9782 41.7399C80.1958 42.503 80.3235 43.3224 80.3235 44.1579C80.3235 48.9408 76.445 52.8276 71.651 52.8276C66.8565 52.8276 62.9784 48.9507 62.9784 44.1579C62.9784 43.4584 63.0668 42.7765 63.2248 42.1219L63.2784 41.8998L63.1455 41.7138C62.3427 40.5909 61.9308 39.5221 61.7196 38.7386C61.6141 38.3468 61.5589 38.0271 61.5302 37.8088C61.5159 37.6997 61.5082 37.6161 61.5041 37.5617C61.5021 37.5345 61.501 37.5146 61.5004 37.5025L61.5003 37.4996C61.5015 37.4647 61.5043 37.4374 61.5074 37.4164C61.5241 37.4186 61.5447 37.422 61.5694 37.4274C61.661 37.4473 61.78 37.4877 61.9288 37.5524C62.2281 37.6827 62.586 37.8837 62.9924 38.121C63.0761 38.1698 63.1618 38.2201 63.2488 38.2713C63.5746 38.4627 63.9207 38.6661 64.2615 38.8493L64.6281 39.0464L64.8884 38.7216C66.4727 36.7448 68.965 35.478 71.6406 35.478C74.3171 35.478 76.709 36.6945 78.3054 38.6058L78.5678 38.92L78.9276 38.7247C79.2021 38.5758 79.482 38.4147 79.7481 38.2616C79.8776 38.187 80.0039 38.1144 80.1247 38.0459C80.5055 37.8301 80.8369 37.6528 81.1109 37.5422C81.2471 37.4872 81.3537 37.4551 81.4337 37.4407C81.4485 37.4381 81.4614 37.4362 81.4725 37.4349C81.4756 37.4559 81.4783 37.4833 81.4794 37.5183Z" fill="#E83849" stroke="white"/>
<path d="M67.627 45.5482C66.8914 45.363 66.3952 44.7966 66.2772 44.1427L69.5452 44.979C69.0943 45.4825 68.3637 45.7336 67.627 45.5482Z" fill="white" stroke="white"/>
<path d="M75.6552 45.5482C74.9176 45.7339 74.1816 45.482 73.7284 44.9793L77.0141 44.1423C76.8936 44.7948 76.3931 45.3624 75.6552 45.5482Z" fill="white" stroke="white"/>
<g clip-path="url(#clip1_518_4804)">
<ellipse cx="435" cy="30.9836" rx="2" ry="1.99723" fill="#E83849"/>
<ellipse cx="438.5" cy="30.4838" rx="2.5" ry="2.49653" fill="#E83849"/>
<path d="M444.78 30.1646H412V43.2863C412 47.121 415.11 50.2267 418.95 50.2267H437.82C441.66 50.2267 444.77 47.121 444.77 43.2863V30.1646H444.78Z" fill="#C4CACE"/>
<path d="M426.608 20.3181C426.328 20.6277 426.268 21.077 426.458 21.4465C427.898 24.2526 427.648 33.9891 427.418 37.2346M426.608 20.3181L430.528 25.2413C430.908 28.2171 430.988 34.6382 430.998 37.1947C431.498 37.674 431.788 38.3331 431.788 39.0421C431.788 40.4501 430.638 41.6085 429.228 41.6085C427.818 41.6085 426.668 40.4601 426.668 39.0421C426.668 38.3531 426.938 37.704 427.418 37.2346M426.608 20.3181L426.608 20.3181L426.608 20.3181ZM426.608 20.3181C426.798 20.1084 427.068 19.9985 427.348 19.9985M426.608 20.3181L427.348 19.9985M427.418 37.2346L427.068 36.8771C427.021 36.9234 426.975 36.9712 426.931 37.0203M427.418 37.2346L426.919 37.1993C426.923 37.1417 426.927 37.082 426.931 37.0203M426.931 37.0203C427.041 35.3602 427.149 32.2488 427.064 29.1897C427.02 27.6033 426.924 26.04 426.752 24.7049C426.577 23.3527 426.33 22.2933 426.013 21.6748M426.931 37.0203C426.439 37.5708 426.168 38.2891 426.168 39.0421C426.168 40.7357 427.541 42.1085 429.228 42.1085C430.916 42.1085 432.288 40.7244 432.288 39.0421C432.288 38.2696 431.999 37.5462 431.497 36.9912C431.483 34.3208 431.399 28.115 431.024 25.1784C430.482 20.8748 428.323 19.7664 427.915 19.6048C427.722 19.5255 427.526 19.4985 427.348 19.4985C426.938 19.4985 426.529 19.6599 426.237 19.9824L426.237 19.9824L426.237 19.9827C425.819 20.4452 425.727 21.1188 426.013 21.6748M426.013 21.6748C426.013 21.6749 426.013 21.6751 426.013 21.6752L426.458 21.4465L426.013 21.6748ZM427.348 19.9985C427.478 19.9985 427.608 20.0185 427.728 20.0684L427.348 19.9985Z" fill="#F18892" stroke="white"/>
<path d="M427.348 20.9971C427.348 20.9971 429.068 21.6961 429.538 25.371C429.938 28.5266 429.998 35.7366 430.008 37.6939C430.478 37.9635 430.798 38.4728 430.798 39.052C430.798 39.9108 430.098 40.6098 429.228 40.6098C428.358 40.6098 427.668 39.9108 427.668 39.052C427.668 38.5028 427.948 38.0234 428.378 37.7438C428.488 36.4656 429.148 24.5222 427.348 21.0071" fill="#E83849"/>
<ellipse cx="422" cy="30.9836" rx="2" ry="1.99723" fill="#C4CACE"/>
<ellipse cx="419" cy="31.9821" rx="2" ry="1.99723" fill="#C4CACE"/>
<path d="M416.74 30.2941C416.74 30.2941 417.271 28.7471 415 28.4866C415 28.4866 417.5 27.488 418.1 30.2941C418.1 30.2941 416.73 30.1943 416.73 30.2941H416.74Z" fill="#C4CACE"/>
<path d="M421.069 30.2945C421.069 30.2945 421.5 28.2558 419 27.4883C419 27.4883 422.159 26.989 422.159 30.2945C422.159 30.2945 421.069 30.2146 421.069 30.2945Z" fill="#C4CACE"/>
</g>
<defs>
<clipPath id="clip0_518_4804">
<rect width="200" height="266.172" fill="white" transform="translate(148)"/>
</clipPath>
<clipPath id="clip1_518_4804">
<rect width="32.78" height="31.2267" fill="white" transform="translate(412 19)"/>
</clipPath>
</defs>
</svg>
