<svg width="475" height="262" viewBox="0 0 475 262" fill="none" xmlns="http://www.w3.org/2000/svg">
<ellipse cx="51" cy="29.985" rx="30" ry="29.985" fill="white"/>
<ellipse cx="411" cy="29.985" rx="30" ry="29.985" fill="white"/>
<g clip-path="url(#clip0_518_4744)">
<path d="M427.78 25.1675H395V38.3009C395 42.139 398.11 45.2475 401.95 45.2475H420.82C424.66 45.2475 427.77 42.139 427.77 38.3009V25.1675H427.78Z" fill="#C4CACE"/>
<path d="M412.232 36.6219C410.822 36.6219 409.672 35.4725 409.672 34.0532C409.672 33.3635 409.942 32.7138 410.422 32.2441C410.652 28.9957 410.902 19.2505 409.462 16.442C409.272 16.0721 409.332 15.6224 409.612 15.3125C409.802 15.1026 410.072 14.9927 410.352 14.9927C410.482 14.9927 410.612 15.0127 410.732 15.0626C410.962 15.1526 413.012 16.1021 413.532 20.2401C413.912 23.2186 413.992 29.6454 414.002 32.2041C414.502 32.6838 414.792 33.3435 414.792 34.0532C414.792 35.4625 413.642 36.6219 412.232 36.6219Z" fill="#5FAFFE"/>
<path d="M410.351 15.9922C410.351 15.9922 412.071 16.6918 412.541 20.37C412.941 23.5284 413.001 30.7448 413.011 32.7038C413.481 32.9737 413.801 33.4834 413.801 34.0631C413.801 34.9227 413.101 35.6224 412.231 35.6224C411.361 35.6224 410.671 34.9227 410.671 34.0631C410.671 33.5134 410.951 33.0337 411.381 32.7538C411.491 31.4744 412.151 19.5204 410.351 16.0022M410.351 14.0032C409.801 14.0032 409.261 14.233 408.881 14.6528C408.311 15.2725 408.191 16.1721 408.571 16.9117C409.761 19.2505 409.691 27.9962 409.441 31.8443C408.941 32.4639 408.661 33.2436 408.661 34.0631C408.661 36.0322 410.261 37.6214 412.221 37.6214C414.181 37.6214 415.791 36.0222 415.791 34.0631C415.791 33.2436 415.501 32.4539 415.001 31.8243C414.981 29.0357 414.891 23.0187 414.521 20.1201C413.931 15.5224 411.571 14.333 411.101 14.1431C410.851 14.0431 410.601 13.9932 410.341 13.9932L410.351 14.0032Z" fill="white"/>
<path d="M399.738 25.2975C399.738 25.2975 400.328 21.0996 399.148 17.7812C399.148 17.7812 401.298 20.0301 401.098 25.2975C401.098 25.2975 399.728 25.1975 399.728 25.2975H399.738Z" fill="#C4CACE"/>
<path d="M420.5 25.2975C420.5 25.2975 421.09 21.0996 419.91 17.7812C419.91 17.7812 422.06 20.0301 421.86 25.2975C421.86 25.2975 420.49 25.1975 420.49 25.2975H420.5Z" fill="#C4CACE"/>
<path d="M404.072 25.2978C404.072 25.2978 404.542 21.9495 403.602 19.3008C403.602 19.3008 405.312 21.0899 405.162 25.2978C405.162 25.2978 404.072 25.2178 404.072 25.2978Z" fill="#C4CACE"/>
</g>
<g clip-path="url(#clip1_518_4744)">
<path d="M67.22 24.7927C67.22 23.4634 66.61 22.2839 65.65 21.5143C66.61 20.7447 67.22 19.5553 67.22 18.236C67.22 15.9071 65.33 14.0181 63 14.0181C61.67 14.0181 60.49 14.6278 59.72 15.5873C58.95 14.6278 57.76 14.0181 56.44 14.0181C55.24 14.0181 54.16 14.5178 53.39 15.3274C52.62 14.5278 51.54 14.0181 50.34 14.0181C49.01 14.0181 47.83 14.6278 47.06 15.5873C46.29 14.6278 45.1 14.0181 43.78 14.0181C42.46 14.0181 41.27 14.6278 40.5 15.5873C39.73 14.6278 38.54 14.0181 37.22 14.0181C34.89 14.0181 33 15.9071 33 18.236C33 19.5653 33.61 20.7447 34.57 21.5143C33.61 22.2839 33 23.4733 33 24.7927C33 26.112 33.61 27.3014 34.57 28.071C33.61 28.8407 33 30.0301 33 31.3494C33 32.5488 33.5 33.6283 34.31 34.3979C33.51 35.1675 33 36.247 33 37.4464C33 39.7752 34.89 41.6643 37.22 41.6643C39.55 41.6643 41.44 39.7752 41.44 37.4464C41.44 36.247 40.94 35.1675 40.13 34.3979C40.93 33.6283 41.44 32.5488 41.44 31.3494C41.44 30.0201 40.83 28.8407 39.87 28.071C40.83 27.3014 41.44 26.112 41.44 24.7927C41.44 23.4733 40.83 22.2839 39.87 21.5143C40.1 21.3244 40.31 21.1145 40.5 20.8846C41.27 21.8442 42.46 22.4539 43.78 22.4539C45.1 22.4539 46.29 21.8442 47.06 20.8846C47.83 21.8442 49.02 22.4539 50.34 22.4539C51.54 22.4539 52.62 21.9541 53.39 21.1445C54.16 21.9441 55.24 22.4539 56.44 22.4539C57.77 22.4539 58.95 21.8442 59.72 20.8846C59.91 21.1145 60.12 21.3244 60.35 21.5143C59.39 22.2839 58.78 23.4733 58.78 24.7927C58.78 26.112 59.39 27.3014 60.35 28.071C59.39 28.8407 58.78 30.0301 58.78 31.3494C58.78 32.5488 59.28 33.6283 60.09 34.3979C59.96 34.5178 59.83 34.6578 59.72 34.7977C58.95 33.8382 57.76 33.2285 56.44 33.2285C54.11 33.2285 52.22 35.1175 52.22 37.4464C52.22 38.8657 52.93 40.125 54.01 40.8847C53.49 41.4644 53.16 42.224 53.16 43.0636C53.16 44.8727 54.63 46.3419 56.44 46.3419C58.25 46.3419 59.72 44.8727 59.72 43.0636C59.72 42.224 59.39 41.4644 58.87 40.8747C59.19 40.6448 59.48 40.3849 59.72 40.0851C60.49 41.0446 61.68 41.6543 63 41.6543C65.33 41.6543 67.22 39.7652 67.22 37.4364C67.22 36.237 66.72 35.1575 65.91 34.3879C66.71 33.6183 67.22 32.5388 67.22 31.3394C67.22 30.0101 66.61 28.8307 65.65 28.0611C66.61 27.2914 67.22 26.102 67.22 24.7827V24.7927Z" fill="#C4CACE"/>
<path d="M49.9095 25.1729H48.9595C48.4404 25.1729 48.0195 25.5935 48.0195 26.1124V32.7191C48.0195 33.238 48.4404 33.6586 48.9595 33.6586H49.9095C50.4287 33.6586 50.8495 33.238 50.8495 32.7191V26.1124C50.8495 25.5935 50.4287 25.1729 49.9095 25.1729Z" fill="#5FAFFE"/>
<path d="M52.7414 28.0015H46.1314C45.6123 28.0015 45.1914 28.4221 45.1914 28.941V29.8905C45.1914 30.4094 45.6123 30.8301 46.1314 30.8301H52.7414C53.2606 30.8301 53.6814 30.4094 53.6814 29.8905V28.941C53.6814 28.4221 53.2606 28.0015 52.7414 28.0015Z" fill="#5FAFFE"/>
</g>
<ellipse cx="51" cy="162.003" rx="30" ry="29.985" fill="white"/>
<path d="M53.4988 147.828C53.5057 149.257 53.5148 151.02 53.5023 151.76C53.4748 153.357 53.6394 154.719 54.6977 154.879C56.5114 155.151 57.9331 152.207 60.829 152.207C63.7238 152.207 65.7124 155.372 66.4872 157.679C67.2632 159.985 67.0484 163.92 66.5672 165.628C66.0872 167.336 65.3353 171.136 60.1696 174.155C57.7182 175.587 53.4314 176.032 51.0017 175.882C48.5732 175.733 45.6007 174.69 43.9207 172.403C42.2396 170.117 38.8019 170.831 38.8019 173.344L38.8133 176.207C38.8168 177.208 38.0088 178.018 37.0076 178.018H36.8568C35.8568 178.018 35.0339 177.208 35.0157 176.207C34.9974 175.199 34.9859 174.082 35.0351 173.343C35.1597 171.493 35.6682 169.483 37.4191 167.521C40.3676 164.215 42.475 166.684 43.795 167.397C45.1138 168.111 46.2749 165.892 49.068 167.428C49.068 167.428 49.7926 164.081 53.3446 163.515C53.3446 163.515 49.7332 162.018 49.7332 153.002C49.6669 152.309 49.6703 149.658 49.6829 147.829C49.6897 146.828 50.5092 146.018 51.5103 146.018H51.6794C52.6806 146.018 53.4943 146.828 53.4988 147.828Z" fill="#5FAFFE"/>
<ellipse cx="411" cy="161.985" rx="30" ry="29.985" fill="white"/>
<path d="M43.1104 68.8711V77.9355H41.5928V73.7793H39.2139V72.5215H41.5928V68.8711H43.1104ZM32.9248 75.4199C35.584 74.5791 37.3408 73 37.6348 71.0449H33.5674V69.8008H39.2959C39.2959 73.0615 37.1426 75.4951 33.5674 76.6367L32.9248 75.4199ZM35.0576 80.9707V77.0195H36.6025V79.7402H43.4248V80.9707H35.0576ZM54.6084 68.8574V71.8652H56.3311V73.1094H54.6084V76.1035H53.0908V68.8574H54.6084ZM44.8193 75.0645C47.6152 74.2988 49.2832 72.7881 49.543 70.9355H45.3799V69.7051H51.1904C51.1973 72.9521 49.0781 75.2627 45.4209 76.2949L44.8193 75.0645ZM46.4873 78.7285C46.4736 77.2041 48.1279 76.2539 50.6162 76.2539C53.125 76.2539 54.7451 77.2041 54.7451 78.7285C54.7451 80.2666 53.125 81.21 50.6162 81.2031C48.1279 81.21 46.4736 80.2666 46.4873 78.7285ZM47.9912 78.7285C47.9844 79.5352 48.9824 80.0137 50.6162 80.0137C52.2432 80.0137 53.248 79.5352 53.2549 78.7285C53.248 77.915 52.2432 77.4434 50.6162 77.4434C48.9824 77.4434 47.9844 77.915 47.9912 78.7285ZM66.708 68.8711V72.7539H68.4307V74.0117H66.708V78.0996H65.1904V68.8711H66.708ZM56.9736 71.4551V70.2383H59.8857V68.8574H61.4033V70.2383H64.3018V71.4551H56.9736ZM57.6025 74.3262C57.6025 72.9043 58.8398 71.9609 60.6377 71.9609C62.4219 71.9609 63.6523 72.9043 63.6592 74.3262C63.6523 75.7412 62.4219 76.6641 60.6377 76.6641C58.8398 76.6641 57.6025 75.7412 57.6025 74.3262ZM58.792 80.9707V77.375H60.3096V79.7402H67.2002V80.9707H58.792ZM59.0791 74.3262C59.0723 75.0713 59.7012 75.4951 60.6377 75.4883C61.5742 75.4951 62.21 75.0713 62.21 74.3262C62.21 73.5742 61.5742 73.1367 60.6377 73.1367C59.7012 73.1367 59.0723 73.5742 59.0791 74.3262ZM14.7686 87.9922V90.8496H16.7783V87.9922H18.1865V96.2227H13.333V87.9922H14.7686ZM14.7686 94.9922H16.7783V92.0527H14.7686V94.9922ZM19.4033 98.6152V87.0762H20.8389V91.6289H22.1514V86.8574H23.6143V99.2168H22.1514V92.8867H20.8389V98.6152H19.4033ZM35.3994 86.8711V95.9902H33.8818V92.8867H31.3936V93.9805H25.6104V87.6777H27.1279V89.6738H29.8896V87.6777H31.3936V89.0039H33.8818V86.8711H35.3994ZM27.1279 92.7773H29.8896V90.8496H27.1279V92.7773ZM27.251 98.9707V95.0879H28.7959V97.7402H35.6729V98.9707H27.251ZM31.3936 91.6562H33.8818V90.2344H31.3936V91.6562ZM41.5244 88.8262C41.5244 90.3779 42.5293 91.8477 44.4365 92.4492L43.6162 93.6387C42.2832 93.1875 41.3262 92.2852 40.7861 91.1367C40.2529 92.4492 39.2549 93.4814 37.833 93.9805L37.0127 92.791C39.002 92.1006 40 90.4531 40.0068 88.6895V87.5137H41.5244V88.8262ZM38.6943 96.8516C38.6943 95.3887 40.3008 94.5205 42.8779 94.5273C45.4346 94.5205 47.0137 95.3887 47.0205 96.8516C47.0137 98.3486 45.4346 99.2031 42.8779 99.2031C40.3008 99.2031 38.6943 98.3486 38.6943 96.8516ZM40.2119 96.8516C40.2119 97.6172 41.1826 98 42.8779 98C44.5664 98 45.5166 97.6172 45.5166 96.8516C45.5166 96.127 44.5664 95.7168 42.8779 95.7168C41.1826 95.7168 40.2119 96.127 40.2119 96.8516ZM45.3799 94.2539V86.8574H46.8975V89.8652H48.6201V91.123H46.8975V94.2539H45.3799ZM54.6768 88.1973V89.4141H51.1494V91.4375H54.458V92.627H51.1494V95.0332C52.6807 95.0195 53.7402 94.9648 54.9912 94.7734L55.1143 96.0176C53.6719 96.2637 52.4619 96.3115 50.5342 96.3047H49.7002V88.1973H54.6768ZM55.7432 98.6152V87.0762H57.1787V91.7109H58.4502V86.8574H59.9131V99.2168H58.4502V92.9414H57.1787V98.6152H55.7432ZM75.9502 93.7891V95.0195H73.2021V99.2168H71.6572V95.0195H68.9229V99.2168H67.3643V95.0195H64.6572V93.7891H75.9502ZM65.8467 90.0566C65.8398 88.375 67.6445 87.3018 70.2764 87.2949C72.9082 87.3018 74.7266 88.375 74.7334 90.0566C74.7266 91.7178 72.9082 92.7637 70.2764 92.7637C67.6445 92.7637 65.8398 91.7178 65.8467 90.0566ZM67.4053 90.0566C67.3984 91 68.5332 91.5537 70.2764 91.5605C72.0264 91.5537 73.1611 91 73.1611 90.0566C73.1611 89.0859 72.0264 88.5254 70.2764 88.5254C68.5332 88.5254 67.3984 89.0859 67.4053 90.0566ZM81.4326 90.3711C81.4326 92.3945 82.6221 94.5273 84.6182 95.3613L83.7842 96.5645C82.3213 95.9287 81.2549 94.6367 80.6875 93.0645C80.1201 94.7598 79.0332 96.1816 77.5908 96.8652L76.7158 95.6758C78.6641 94.7734 79.8809 92.4697 79.8877 90.3711V89.332H77.167V88.0742H84.1396V89.332H81.4326V90.3711ZM85.5205 99.2168V86.8574H87.0518V99.2168H85.5205Z" fill="#616161"/>
<path d="M385.406 68.8379V77.9023H383.889V73.7461H381.51V72.4883H383.889V68.8379H385.406ZM375.221 75.3867C377.88 74.5459 379.637 72.9668 379.931 71.0117H375.863V69.7676H381.592C381.592 73.0283 379.438 75.4619 375.863 76.6035L375.221 75.3867ZM377.354 80.9375V76.9863H378.898V79.707H385.721V80.9375H377.354ZM396.904 68.8242V71.832H398.627V73.0762H396.904V76.0703H395.387V68.8242H396.904ZM387.115 75.0312C389.911 74.2656 391.579 72.7549 391.839 70.9023H387.676V69.6719H393.486C393.493 72.9189 391.374 75.2295 387.717 76.2617L387.115 75.0312ZM388.783 78.6953C388.77 77.1709 390.424 76.2207 392.912 76.2207C395.421 76.2207 397.041 77.1709 397.041 78.6953C397.041 80.2334 395.421 81.1768 392.912 81.1699C390.424 81.1768 388.77 80.2334 388.783 78.6953ZM390.287 78.6953C390.28 79.502 391.278 79.9805 392.912 79.9805C394.539 79.9805 395.544 79.502 395.551 78.6953C395.544 77.8818 394.539 77.4102 392.912 77.4102C391.278 77.4102 390.28 77.8818 390.287 78.6953ZM409.004 68.8379V72.7207H410.727V73.9785H409.004V78.0664H407.486V68.8379H409.004ZM399.27 71.4219V70.2051H402.182V68.8242H403.699V70.2051H406.598V71.4219H399.27ZM399.898 74.293C399.898 72.8711 401.136 71.9277 402.934 71.9277C404.718 71.9277 405.948 72.8711 405.955 74.293C405.948 75.708 404.718 76.6309 402.934 76.6309C401.136 76.6309 399.898 75.708 399.898 74.293ZM401.088 80.9375V77.3418H402.605V79.707H409.496V80.9375H401.088ZM401.375 74.293C401.368 75.0381 401.997 75.4619 402.934 75.4551C403.87 75.4619 404.506 75.0381 404.506 74.293C404.506 73.541 403.87 73.1035 402.934 73.1035C401.997 73.1035 401.368 73.541 401.375 74.293ZM425 68.8242V81.1836H423.469V68.8242H425ZM414.65 77.0137C415.129 77.0137 415.642 77.0068 416.182 77V71.2715H414.979V70.0273H421.992V71.2715H420.803V76.8154C421.391 76.7676 421.979 76.7129 422.539 76.6445L422.621 77.7793C419.969 78.21 417.077 78.2578 414.801 78.2578L414.65 77.0137ZM417.645 76.9727C418.191 76.959 418.752 76.9385 419.312 76.9043V71.2715H417.645V76.9727ZM438.057 76.0156V77.2188H433.135V81.1836H431.631V77.2188H426.764V76.0156H438.057ZM428.131 74.7305V69.3164H429.635V70.834H435.158V69.3164H436.689V74.7305H428.131ZM429.635 73.5H435.158V72.0371H429.635V73.5ZM442.268 80.1035C440.244 80.1104 439 78.9141 439 77.3418C439 76.1729 439.752 75.4619 440.859 74.6963C440.292 73.9922 439.848 73.2676 439.848 72.3926C439.848 70.9844 440.873 69.9453 442.432 69.9453C443.99 69.9453 444.954 70.9775 444.947 72.1875C444.954 73.1309 444.462 73.8486 443.635 74.4434L443.006 74.9082L444.817 77.0342C445.077 76.542 445.234 75.9609 445.234 75.3047H446.738C446.731 76.665 446.355 77.6289 445.877 78.2715L447.326 79.9668H445.439L444.804 79.2422C444.1 79.8369 443.136 80.1104 442.268 80.1035ZM440.709 77.2598C440.709 78.0459 441.345 78.6748 442.322 78.6816C442.849 78.6816 443.389 78.4902 443.854 78.1553L441.796 75.79L441.639 75.9062C440.969 76.3984 440.709 76.918 440.709 77.2598ZM441.393 72.4199C441.399 72.8711 441.7 73.3291 442.11 73.8418L442.678 73.459C443.197 73.124 443.471 72.7686 443.471 72.2695C443.471 71.8389 443.088 71.374 442.459 71.3809C441.83 71.374 441.399 71.8799 441.393 72.4199ZM353.934 87.8633V88.8477H356.422V86.8379H357.939V95.834H356.422V92.7168H353.934V93.7832H348.123V87.8633H353.934ZM349.641 92.5938H352.43V89.0664H349.641V92.5938ZM349.791 98.9375V95H351.336V97.707H358.213V98.9375H349.791ZM353.934 91.5H356.422V90.0918H353.934V91.5ZM370.039 94.7129V99.1836H368.521V95.916H361.617V94.7129H370.039ZM359.854 90.502C359.854 88.752 361.255 87.4941 363.121 87.5078C364.14 87.501 365.028 87.8838 365.609 88.5332H368.521V86.8242H370.039V94.125H368.521V92.4844H365.623C365.035 93.1406 364.146 93.5371 363.121 93.5371C361.255 93.5371 359.854 92.2793 359.854 90.502ZM361.303 90.502C361.303 91.5752 362.062 92.2451 363.121 92.252C364.133 92.2451 364.905 91.5752 364.912 90.502C364.905 89.4697 364.133 88.7861 363.121 88.793C362.062 88.7861 361.303 89.4697 361.303 90.502ZM366.266 91.2539H368.521V89.7773H366.272C366.327 90.0098 366.361 90.249 366.361 90.502C366.361 90.7617 366.327 91.0146 366.266 91.2539ZM376.465 89.791C376.451 92.0605 377.647 94.3301 379.65 95.1914L378.748 96.4082C377.326 95.752 376.287 94.4463 375.713 92.833C375.146 94.5693 374.079 95.9912 372.582 96.6953L371.652 95.4238C373.71 94.5352 374.913 92.1768 374.92 89.791V87.8223H376.465V89.791ZM380.539 99.1973V86.8242H382.07V99.1973H380.539ZM390.273 88.5195C390.273 90.4268 392.14 92.3477 394.73 92.7988L394.047 94.0703C391.976 93.6396 390.28 92.3818 389.474 90.7207C388.66 92.3682 386.965 93.6328 384.9 94.0703L384.23 92.7988C386.78 92.334 388.653 90.4199 388.66 88.5195V87.6035H390.273V88.5195ZM383.889 97.6113V96.3535H395.182V97.6113H383.889ZM401.211 87.5898V88.8203H397.971V89.9824H400.746V91.1582H397.971V92.4297C399.447 92.416 400.473 92.3545 401.676 92.1426L401.84 93.332C400.411 93.5918 399.235 93.6465 397.328 93.6465H396.508V87.5898H401.211ZM398.217 99.0332V94.7402H406.557V99.0332H398.217ZM399.734 97.8027H405.053V95.9434H399.734V97.8027ZM401.279 91.0762V89.8457H402.674V87.0293H404.123V94.125H402.674V91.0762H401.279ZM405.107 94.2207V86.8242H406.557V94.2207H405.107ZM422.689 93.7559V94.9863H419.941V99.1836H418.396V94.9863H415.662V99.1836H414.104V94.9863H411.396V93.7559H422.689ZM412.586 90.0234C412.579 88.3418 414.384 87.2686 417.016 87.2617C419.647 87.2686 421.466 88.3418 421.473 90.0234C421.466 91.6846 419.647 92.7305 417.016 92.7305C414.384 92.7305 412.579 91.6846 412.586 90.0234ZM414.145 90.0234C414.138 90.9668 415.272 91.5205 417.016 91.5273C418.766 91.5205 419.9 90.9668 419.9 90.0234C419.9 89.0527 418.766 88.4922 417.016 88.4922C415.272 88.4922 414.138 89.0527 414.145 90.0234ZM428.172 90.3379C428.172 92.3613 429.361 94.4941 431.357 95.3281L430.523 96.5312C429.061 95.8955 427.994 94.6035 427.427 93.0312C426.859 94.7266 425.772 96.1484 424.33 96.832L423.455 95.6426C425.403 94.7402 426.62 92.4365 426.627 90.3379V89.2988H423.906V88.041H430.879V89.2988H428.172V90.3379ZM432.26 99.1836V86.8242H433.791V99.1836H432.26ZM446.273 86.8242V99.1836H444.811V86.8242H446.273ZM435.732 92.1699C435.732 89.4492 436.785 87.7607 438.398 87.7676C439.896 87.7607 440.914 89.1621 441.092 91.4727H442.281V87.043H443.73V98.582H442.281V92.7031H441.105C440.962 95.1162 439.93 96.5928 438.398 96.5859C436.785 96.5928 435.732 94.8975 435.732 92.1699ZM437.141 92.1699C437.134 94.1045 437.612 95.1436 438.398 95.1367C439.219 95.1436 439.704 94.1045 439.711 92.1699C439.704 90.2422 439.219 89.1963 438.398 89.2031C437.612 89.1963 437.134 90.2422 437.141 92.1699ZM461.066 92.4434V93.6465H457.402V96.4766H462.324V97.7207H451.031V96.4766H455.898V93.6465H452.398V87.7402H460.971V88.957H453.916V92.4434H461.066ZM468.75 87.0156C471.484 87.0225 473.2 87.9043 473.207 89.3945C473.2 90.8574 471.484 91.7324 468.75 91.7188C466.043 91.7324 464.293 90.8574 464.293 89.3945C464.293 87.9043 466.043 87.0225 468.75 87.0156ZM463.131 93.6875V92.4707H474.396V93.6875H469.502V94.877H473.029V99.0332H464.457V94.877H467.998V93.6875H463.131ZM465.879 89.3945C465.865 90.1465 466.945 90.5566 468.75 90.5566C470.555 90.5566 471.635 90.1465 471.635 89.3945C471.635 88.6084 470.555 88.1846 468.75 88.1914C466.945 88.1846 465.865 88.6084 465.879 89.3945ZM465.961 97.8027H471.553V96.0801H465.961V97.8027Z" fill="#616161"/>
<path d="M23.2998 200.772V209.837H21.7822V205.681H19.4033V204.423H21.7822V200.772H23.2998ZM13.1143 207.321C15.7734 206.48 17.5303 204.901 17.8242 202.946H13.7568V201.702H19.4854C19.4854 204.963 17.332 207.396 13.7568 208.538L13.1143 207.321ZM15.2471 212.872V208.921H16.792V211.642H23.6143V212.872H15.2471ZM34.7979 200.759V203.767H36.5205V205.011H34.7979V208.005H33.2803V200.759H34.7979ZM25.0088 206.966C27.8047 206.2 29.4727 204.689 29.7324 202.837H25.5693V201.606H31.3799C31.3867 204.854 29.2676 207.164 25.6104 208.196L25.0088 206.966ZM26.6768 210.63C26.6631 209.105 28.3174 208.155 30.8057 208.155C33.3145 208.155 34.9346 209.105 34.9346 210.63C34.9346 212.168 33.3145 213.111 30.8057 213.104C28.3174 213.111 26.6631 212.168 26.6768 210.63ZM28.1807 210.63C28.1738 211.437 29.1719 211.915 30.8057 211.915C32.4326 211.915 33.4375 211.437 33.4443 210.63C33.4375 209.816 32.4326 209.345 30.8057 209.345C29.1719 209.345 28.1738 209.816 28.1807 210.63ZM46.8975 200.772V204.655H48.6201V205.913H46.8975V210.001H45.3799V200.772H46.8975ZM37.1631 203.356V202.14H40.0752V200.759H41.5928V202.14H44.4912V203.356H37.1631ZM37.792 206.228C37.792 204.806 39.0293 203.862 40.8271 203.862C42.6113 203.862 43.8418 204.806 43.8486 206.228C43.8418 207.643 42.6113 208.565 40.8271 208.565C39.0293 208.565 37.792 207.643 37.792 206.228ZM38.9814 212.872V209.276H40.499V211.642H47.3896V212.872H38.9814ZM39.2686 206.228C39.2617 206.973 39.8906 207.396 40.8271 207.39C41.7637 207.396 42.3994 206.973 42.3994 206.228C42.3994 205.476 41.7637 205.038 40.8271 205.038C39.8906 205.038 39.2617 205.476 39.2686 206.228ZM56.6045 201.306C58.4844 201.299 59.8447 202.352 59.8447 203.903C59.8447 205.428 58.4844 206.494 56.6045 206.487C54.7451 206.494 53.3916 205.428 53.3916 203.903C53.3916 202.352 54.7451 201.299 56.6045 201.306ZM52.585 207.335C54.8135 207.335 57.9375 207.294 60.5967 206.897L60.7061 208.019C59.6396 208.224 58.5322 208.354 57.4521 208.436V212.735H55.9209V208.524C54.7793 208.572 53.7061 208.586 52.7764 208.593L52.585 207.335ZM54.8682 203.903C54.8613 204.73 55.5928 205.25 56.6045 205.243C57.6572 205.25 58.3955 204.73 58.3955 203.903C58.3955 203.049 57.6572 202.522 56.6045 202.536C55.5928 202.522 54.8613 203.049 54.8682 203.903ZM61.4033 213.104V200.772H62.9072V213.104H61.4033ZM69.1006 202.987C69.1006 204.498 70.0781 205.92 72.0127 206.515L71.2881 207.704C69.9004 207.267 68.916 206.385 68.376 205.271C67.8291 206.569 66.79 207.602 65.2998 208.101L64.5342 206.897C66.5234 206.248 67.5693 204.642 67.5693 203.001V202.851H64.958V201.62H71.6709V202.851H69.1006V202.987ZM66.2158 210.739C66.2158 209.263 67.8154 208.401 70.3994 208.401C72.9629 208.401 74.5352 209.263 74.542 210.739C74.5352 212.229 72.9629 213.104 70.3994 213.104C67.8154 213.104 66.2158 212.229 66.2158 210.739ZM67.7334 210.739C67.7334 211.505 68.7041 211.908 70.3994 211.915C72.0879 211.908 73.0381 211.505 73.0381 210.739C73.0381 209.987 72.0879 209.591 70.3994 209.591C68.7041 209.591 67.7334 209.987 67.7334 210.739ZM72.9014 208.128V200.759H74.4189V203.726H76.1416V204.97H74.4189V208.128H72.9014ZM83.6748 201.675V202.413C83.6611 203.254 83.6611 204.484 83.374 206.05L81.8701 205.913C82.1162 204.642 82.1641 203.691 82.1777 202.933H77.3721V201.675H83.6748ZM76.6338 207.034C77.3652 207.027 78.1855 207.021 79.0537 207.007V204.491H80.5576V206.959C81.8359 206.904 83.1484 206.809 84.3447 206.638L84.4268 207.731C81.8564 208.196 78.9375 208.244 76.7705 208.251L76.6338 207.034ZM78.4795 212.872V209.194H80.0107V211.642H87.0244V212.872H78.4795ZM85.0693 210.015V200.759H86.6279V204.614H88.2275V205.886H86.6279V210.015H85.0693ZM17.25 218.772V227.837H15.7324V223.681H13.3535V222.423H15.7324V218.772H17.25ZM7.06445 225.321C9.72363 224.48 11.4805 222.901 11.7744 220.946H7.70703V219.702H13.4355C13.4355 222.963 11.2822 225.396 7.70703 226.538L7.06445 225.321ZM9.19727 230.872V226.921H10.7422V229.642H17.5645V230.872H9.19727ZM28.748 218.759V221.767H30.4707V223.011H28.748V226.005H27.2305V218.759H28.748ZM18.959 224.966C21.7549 224.2 23.4229 222.689 23.6826 220.837H19.5195V219.606H25.3301C25.3369 222.854 23.2178 225.164 19.5605 226.196L18.959 224.966ZM20.627 228.63C20.6133 227.105 22.2676 226.155 24.7559 226.155C27.2646 226.155 28.8848 227.105 28.8848 228.63C28.8848 230.168 27.2646 231.111 24.7559 231.104C22.2676 231.111 20.6133 230.168 20.627 228.63ZM22.1309 228.63C22.124 229.437 23.1221 229.915 24.7559 229.915C26.3828 229.915 27.3877 229.437 27.3945 228.63C27.3877 227.816 26.3828 227.345 24.7559 227.345C23.1221 227.345 22.124 227.816 22.1309 228.63ZM42.3789 225.69V226.921H39.6309V231.118H38.0859V226.921H35.3516V231.118H33.793V226.921H31.0859V225.69H42.3789ZM32.2754 221.958C32.2686 220.276 34.0732 219.203 36.7051 219.196C39.3369 219.203 41.1553 220.276 41.1621 221.958C41.1553 223.619 39.3369 224.665 36.7051 224.665C34.0732 224.665 32.2686 223.619 32.2754 221.958ZM33.834 221.958C33.8271 222.901 34.9619 223.455 36.7051 223.462C38.4551 223.455 39.5898 222.901 39.5898 221.958C39.5898 220.987 38.4551 220.427 36.7051 220.427C34.9619 220.427 33.8271 220.987 33.834 221.958ZM47.8613 222.272C47.8613 224.296 49.0508 226.429 51.0469 227.263L50.2129 228.466C48.75 227.83 47.6836 226.538 47.1162 224.966C46.5488 226.661 45.4619 228.083 44.0195 228.767L43.1445 227.577C45.0928 226.675 46.3096 224.371 46.3164 222.272V221.233H43.5957V219.976H50.5684V221.233H47.8613V222.272ZM51.9492 231.118V218.759H53.4805V231.118H51.9492ZM65.9629 218.759V231.118H64.5V218.759H65.9629ZM55.4219 224.104C55.4219 221.384 56.4746 219.695 58.0879 219.702C59.585 219.695 60.6035 221.097 60.7812 223.407H61.9707V218.978H63.4199V230.517H61.9707V224.638H60.7949C60.6514 227.051 59.6191 228.527 58.0879 228.521C56.4746 228.527 55.4219 226.832 55.4219 224.104ZM56.8301 224.104C56.8232 226.039 57.3018 227.078 58.0879 227.071C58.9082 227.078 59.3936 226.039 59.4004 224.104C59.3936 222.177 58.9082 221.131 58.0879 221.138C57.3018 221.131 56.8232 222.177 56.8301 224.104ZM80.7559 224.378V225.581H77.0918V228.411H82.0137V229.655H70.7207V228.411H75.5879V225.581H72.0879V219.675H80.6602V220.892H73.6055V224.378H80.7559ZM88.4395 218.95C91.1738 218.957 92.8896 219.839 92.8965 221.329C92.8896 222.792 91.1738 223.667 88.4395 223.653C85.7324 223.667 83.9824 222.792 83.9824 221.329C83.9824 219.839 85.7324 218.957 88.4395 218.95ZM82.8203 225.622V224.405H94.0859V225.622H89.1914V226.812H92.7188V230.968H84.1465V226.812H87.6875V225.622H82.8203ZM85.5684 221.329C85.5547 222.081 86.6348 222.491 88.4395 222.491C90.2441 222.491 91.3242 222.081 91.3242 221.329C91.3242 220.543 90.2441 220.119 88.4395 220.126C86.6348 220.119 85.5547 220.543 85.5684 221.329ZM85.6504 229.737H91.2422V228.015H85.6504V229.737Z" fill="#616161"/>
<path d="M397.096 201.609V202.717C397.089 203.872 397.089 205.137 396.768 206.887H398.477V208.117H393.568V213.23H392.037V208.117H387.211V206.887H395.223C395.564 205.205 395.578 203.94 395.578 202.84H388.537V201.609H397.096ZM409.059 200.857V203.865H410.781V205.109H409.059V208.104H407.541V200.857H409.059ZM399.27 207.064C402.065 206.299 403.733 204.788 403.993 202.936H399.83V201.705H405.641C405.647 204.952 403.528 207.263 399.871 208.295L399.27 207.064ZM400.938 210.729C400.924 209.204 402.578 208.254 405.066 208.254C407.575 208.254 409.195 209.204 409.195 210.729C409.195 212.267 407.575 213.21 405.066 213.203C402.578 213.21 400.924 212.267 400.938 210.729ZM402.441 210.729C402.435 211.535 403.433 212.014 405.066 212.014C406.693 212.014 407.698 211.535 407.705 210.729C407.698 209.915 406.693 209.443 405.066 209.443C403.433 209.443 402.435 209.915 402.441 210.729ZM421.76 200.871V209.936H420.242V205.779H417.863V204.521H420.242V200.871H421.76ZM411.574 207.42C414.233 206.579 415.99 205 416.284 203.045H412.217V201.801H417.945C417.945 205.062 415.792 207.495 412.217 208.637L411.574 207.42ZM413.707 212.971V209.02H415.252V211.74H422.074V212.971H413.707ZM433.258 200.857V203.865H434.98V205.109H433.258V208.104H431.74V200.857H433.258ZM423.469 207.064C426.265 206.299 427.933 204.788 428.192 202.936H424.029V201.705H429.84C429.847 204.952 427.728 207.263 424.07 208.295L423.469 207.064ZM425.137 210.729C425.123 209.204 426.777 208.254 429.266 208.254C431.774 208.254 433.395 209.204 433.395 210.729C433.395 212.267 431.774 213.21 429.266 213.203C426.777 213.21 425.123 212.267 425.137 210.729ZM426.641 210.729C426.634 211.535 427.632 212.014 429.266 212.014C430.893 212.014 431.897 211.535 431.904 210.729C431.897 209.915 430.893 209.443 429.266 209.443C427.632 209.443 426.634 209.915 426.641 210.729ZM390.779 225.789V227.02H388.031V231.217H386.486V227.02H383.752V231.217H382.193V227.02H379.486V225.789H390.779ZM380.676 222.057C380.669 220.375 382.474 219.302 385.105 219.295C387.737 219.302 389.556 220.375 389.562 222.057C389.556 223.718 387.737 224.764 385.105 224.764C382.474 224.764 380.669 223.718 380.676 222.057ZM382.234 222.057C382.228 223 383.362 223.554 385.105 223.561C386.855 223.554 387.99 223 387.99 222.057C387.99 221.086 386.855 220.525 385.105 220.525C383.362 220.525 382.228 221.086 382.234 222.057ZM396.262 222.371C396.262 224.395 397.451 226.527 399.447 227.361L398.613 228.564C397.15 227.929 396.084 226.637 395.517 225.064C394.949 226.76 393.862 228.182 392.42 228.865L391.545 227.676C393.493 226.773 394.71 224.47 394.717 222.371V221.332H391.996V220.074H398.969V221.332H396.262V222.371ZM400.35 231.217V218.857H401.881V231.217H400.35ZM414.363 218.857V231.217H412.9V218.857H414.363ZM403.822 224.203C403.822 221.482 404.875 219.794 406.488 219.801C407.985 219.794 409.004 221.195 409.182 223.506H410.371V219.076H411.82V230.615H410.371V224.736H409.195C409.052 227.149 408.02 228.626 406.488 228.619C404.875 228.626 403.822 226.931 403.822 224.203ZM405.23 224.203C405.224 226.138 405.702 227.177 406.488 227.17C407.309 227.177 407.794 226.138 407.801 224.203C407.794 222.275 407.309 221.229 406.488 221.236C405.702 221.229 405.224 222.275 405.23 224.203ZM429.156 224.477V225.68H425.492V228.51H430.414V229.754H419.121V228.51H423.988V225.68H420.488V219.773H429.061V220.99H422.006V224.477H429.156ZM436.84 219.049C439.574 219.056 441.29 219.938 441.297 221.428C441.29 222.891 439.574 223.766 436.84 223.752C434.133 223.766 432.383 222.891 432.383 221.428C432.383 219.938 434.133 219.056 436.84 219.049ZM431.221 225.721V224.504H442.486V225.721H437.592V226.91H441.119V231.066H432.547V226.91H436.088V225.721H431.221ZM433.969 221.428C433.955 222.18 435.035 222.59 436.84 222.59C438.645 222.59 439.725 222.18 439.725 221.428C439.725 220.642 438.645 220.218 436.84 220.225C435.035 220.218 433.955 220.642 433.969 221.428ZM434.051 229.836H439.643V228.113H434.051V229.836Z" fill="#616161"/>
<g clip-path="url(#clip2_518_4744)">
<path d="M294.481 231.298C296.546 236.145 296.939 241.004 294.076 245.642C292.312 248.503 289.998 250.894 286.522 251.834C285.005 252.239 283.646 252.814 282.404 253.689C289.815 235.949 274.602 232.121 274.602 232.121C280.993 209.573 280.405 179.905 280.248 174.876H280.3C280.3 175.973 280.836 176.849 281.542 177.711C290.194 188.567 294.141 201.029 294.141 215.073C293.841 218.496 294.429 222.206 293.057 225.785C292.259 227.849 293.723 229.521 294.481 231.298Z" fill="#CEAE8D"/>
<path d="M280.246 174.876C280.403 179.906 280.991 209.574 274.6 232.122C274.6 232.122 289.814 235.949 282.403 253.69C281.658 254.225 280.965 254.852 280.298 255.623C277.292 259.124 273.319 260.979 268.496 260.705C265.673 260.548 262.837 260.496 260.027 260.718C253.034 261.254 245.179 254.865 245.166 247.406C246.969 232.213 243.741 243.526 241.049 243.853C234.226 244.689 227.403 244.637 220.594 243.787C218.15 243.487 215.327 228.242 216.072 246.596C215.719 254.029 211.236 259.96 203.746 260.535C199.655 260.862 195.499 260.796 191.382 260.587C187.696 260.404 184.35 259.033 181.998 256.041C181.318 255.179 180.56 254.46 179.736 253.86C172.143 235.975 187.474 232.122 187.474 232.122C180.834 208.725 181.723 177.659 181.841 174.406C181.854 174.223 181.854 174.132 181.854 174.132C181.762 164.661 183.448 155.385 185.409 146.189C186.441 141.342 188.31 136.665 189.983 131.975C190.781 129.741 191.696 129.454 193.486 131.688C197.499 136.652 202.753 139.395 209.38 138.977C212.49 138.795 214.974 137.919 216.986 135.489C217.627 135.111 227.926 129.232 230.436 129.232C232.945 129.232 245.1 135.503 245.1 135.503L245.14 135.476C245.427 135.79 245.702 136.103 245.963 136.417C248.708 139.696 252.956 139.644 256.864 138.886C261.451 137.985 265.294 135.646 268.365 132.028C270.457 129.559 271.162 129.663 272.286 132.511C275.985 141.838 278.142 151.545 279.187 161.512C279.658 165.928 280.429 170.33 280.298 174.798V174.876H280.246Z" fill="#E8C59A"/>
<path d="M245.153 92.2615C250.564 95.4621 251.806 101.393 249.022 107.272C246.33 112.994 241.35 115.894 236.057 118.467C234.645 119.16 233.116 119.512 233.246 121.485C233.377 123.667 232.854 125.914 235.403 127.442C239.037 129.624 242.291 132.262 245.14 135.476L245.101 135.502C245.101 135.502 233.011 129.232 230.436 129.232C227.862 129.232 217.628 135.11 216.987 135.489C217.196 135.241 217.405 134.967 217.615 134.666C219.706 131.648 222.908 129.519 226.189 127.808C228.842 126.436 229.012 124.241 228.999 121.798C228.973 119.617 227.365 119.133 225.757 118.31C220.934 115.841 215.902 113.451 213.537 108.121C210.53 101.367 209.851 96.3373 218.007 91.7258C227.143 86.5787 236.266 86.9968 245.153 92.2615Z" fill="#593C27"/>
<path d="M181.844 174.406C181.726 177.659 180.837 208.724 187.477 232.121C187.477 232.121 172.145 235.975 179.739 253.859C178.615 253.01 177.347 252.396 175.949 251.926C165.95 248.568 163.767 237.935 167.95 230.815C169.492 228.202 169.179 225.472 168.551 222.898C166.747 215.465 168.054 208.215 169.388 200.964C170.943 192.473 174.929 185.053 180.105 178.233C180.981 177.058 181.778 175.882 181.844 174.406Z" fill="#CEAE8D"/>
<path d="M251.742 187.47C251.742 181.382 251.912 177.032 251.703 172.695C251.193 162.178 242.92 154.066 232.869 153.295C220.034 152.302 210.937 161.486 210.035 174.262C209.695 179.018 210.205 183.799 210.466 188.567C211.224 202.846 212.244 217.111 213.904 231.312C214.217 234.003 215.603 235.492 218.165 236.406C225.118 238.915 232.202 238.745 239.325 237.778C245.102 236.994 247.847 234.904 248.174 230.763C249.337 215.753 252.082 200.86 251.755 187.47H251.742Z" fill="#ECE1CA"/>
<path d="M294.481 231.298C296.546 236.145 296.939 241.004 294.076 245.642C292.312 248.503 289.998 250.894 286.522 251.834C285.005 252.239 283.646 252.814 282.404 253.689C289.815 235.949 274.602 232.121 274.602 232.121C280.993 209.573 280.405 179.905 280.248 174.876H280.3C280.3 175.973 280.836 176.849 281.542 177.711C290.194 188.567 294.141 201.029 294.141 215.073C293.841 218.496 294.429 222.206 293.057 225.785C292.259 227.849 293.723 229.521 294.481 231.298Z" fill="#CEAE8D"/>
<path d="M280.246 174.876C280.403 179.906 280.991 209.573 274.6 232.121C274.6 232.121 289.814 235.949 282.403 253.69C281.658 254.225 280.965 254.852 280.298 255.623C277.292 259.124 273.319 260.979 268.496 260.705C265.673 260.548 262.837 260.496 260.027 260.718C253.034 261.253 245.179 254.865 245.166 247.406C246.969 232.213 243.741 243.526 241.049 243.853C234.226 244.689 227.403 244.636 220.594 243.787C218.15 243.487 215.327 228.241 216.072 246.596C215.719 254.029 211.236 259.96 203.746 260.535C199.655 260.861 195.499 260.796 191.382 260.587C187.696 260.404 184.35 259.033 181.998 256.041C181.318 255.179 180.56 254.46 179.736 253.859C172.143 235.975 187.474 232.121 187.474 232.121C180.834 208.724 181.723 177.659 181.841 174.406C181.854 174.223 181.854 174.132 181.854 174.132C181.762 164.66 183.448 155.385 185.409 146.188C186.441 141.342 188.31 136.665 189.983 131.975C190.781 129.741 191.696 129.454 193.486 131.688C197.499 136.652 202.753 139.395 209.38 138.977C212.817 138.768 215.496 137.723 217.614 134.666C219.705 131.648 222.907 129.519 226.188 127.808C228.841 126.436 229.011 124.241 228.998 121.798C228.972 119.617 227.364 119.133 225.757 118.31C220.934 115.841 215.902 113.451 213.536 108.121C210.53 101.367 209.85 96.3373 218.006 91.7258C227.142 86.5787 236.265 86.9968 245.153 92.2615C250.564 95.4621 251.805 101.393 249.021 107.272C246.329 112.994 241.349 115.894 236.056 118.467C234.644 119.16 233.115 119.512 233.246 121.485C233.376 123.667 232.854 125.914 235.402 127.442C239.389 129.833 242.918 132.772 245.963 136.417C248.708 139.696 252.956 139.643 256.864 138.886C261.451 137.984 265.294 135.646 268.365 132.027C270.457 129.558 271.162 129.663 272.286 132.511C275.985 141.838 278.142 151.545 279.187 161.512C279.658 165.928 280.429 170.33 280.298 174.798V174.876H280.246Z" fill="#E8C59A"/>
<path d="M181.844 174.406C181.726 177.659 180.837 208.724 187.477 232.121C187.477 232.121 172.145 235.975 179.739 253.859C178.615 253.01 177.347 252.396 175.949 251.926C165.95 248.568 163.767 237.935 167.95 230.815C169.492 228.202 169.179 225.472 168.551 222.898C166.747 215.465 168.054 208.215 169.388 200.964C170.943 192.473 174.929 185.053 180.105 178.233C180.981 177.058 181.778 175.882 181.844 174.406Z" fill="#CEAE8D"/>
<path d="M187.503 115.084C187.503 115.084 189.477 128.761 193.045 132.328C196.613 135.894 203.07 147.051 203.07 147.051L262.97 149.663L270.368 131.178C270.368 131.178 274.708 126.567 275.309 117.448C275.91 108.33 278.406 98.8717 278.406 98.8717L268.316 53.815L249.887 9.63363L208.795 8.39258L189.124 27.4394L180.785 72.1173L187.516 115.084H187.503Z" fill="#F4EFE5"/>
<path d="M325.499 69.0338C333.446 79.9551 331.472 87.8978 324.846 98.4271C320.846 104.789 314.729 108.747 308.482 112.471C303.646 115.345 299.725 119.146 296.261 123.457C293.242 127.193 289.556 129.349 284.694 128.513C279.557 127.624 276.708 124.359 275.349 119.329C273.989 114.26 272.983 109.165 272.656 103.953C272.656 103.914 272.656 103.875 272.682 103.822C274.029 96.1149 277.152 88.5902 280.276 81.4835C282.956 75.3959 285.57 69.6217 286.824 63.0376C288.157 56.0093 288.314 49.987 288.275 43.4421C288.157 24.0033 274.499 11.1878 274.499 11.1878C276.29 11.3576 278.198 11.1878 280.328 10.9004C289.634 9.68547 297.503 13.4609 303.136 21.2468C306.952 26.5246 308.482 32.8082 310.769 38.7391C314.808 49.2815 318.781 59.7978 325.499 69.0338Z" fill="#593C27"/>
<path d="M288.271 43.4424C288.311 49.9873 288.154 56.0097 286.821 63.038C285.566 69.6221 282.952 75.3962 280.273 81.4839C277.149 88.5905 274.025 96.1152 272.679 103.823C272.666 103.875 272.666 103.914 272.653 103.953C271.79 90.1843 264.51 80.5564 253.165 73.5804C248.747 70.8631 244.081 68.6553 241.153 63.9655C236.814 56.9895 238.827 50.0265 240.5 42.9199C241.715 37.7336 243.885 32.9 245.715 27.9358C248.551 20.1629 243.532 13.0301 235.259 12.8081C233.847 12.7689 232.436 12.8081 230.318 12.8081C228.214 12.9256 225.352 12.4292 222.633 13.4874C216.804 15.7604 213.941 21.9134 216.307 27.9227C218.555 33.6838 220.829 39.4449 222.28 45.4542C224.345 54.0371 224.528 62.3586 216.869 68.6684C214.712 70.4451 212.255 71.9082 209.772 73.2146C200.296 78.218 193.892 85.9256 190.742 96.0107C190.454 96.9382 190.206 97.8919 190.01 98.8455C191.055 92.0394 183.37 84.0574 180.233 78.6621C173.097 66.4868 172.757 50.8626 173.685 37.1065C174.783 20.6855 186.964 11.1882 186.964 11.1882L186.925 10.953C190.323 10.4305 193.33 9.03264 196.519 6.98164C203.224 2.69675 210.739 0.933153 218.777 1.08992C223.313 1.18136 227.9 0.0970769 232.409 0.410606C244.604 1.24668 257.439 0.0578858 267.817 8.40559C270.065 10.2084 272.195 10.9791 274.495 11.1882C274.495 11.1882 288.154 24.0036 288.271 43.4424ZM264.824 59.8112C265.712 59.8112 266.065 59.1058 266.131 58.2566C265.686 57.1724 264.967 56.4669 263.7 56.6237C262.994 56.7151 262.419 57.1724 262.589 57.9039C262.837 59.0274 263.634 59.7982 264.824 59.8112ZM199.433 57.9562C199.564 57.1854 199.002 56.7282 198.27 56.7413C197.185 56.7543 196.349 57.2377 196.244 58.4003C196.192 59.0797 196.61 59.6153 197.473 59.6937C198.479 59.5891 199.237 59.0013 199.433 57.9562Z" fill="#E8C59A"/>
<path d="M180.235 78.6622C183.372 84.0575 191.057 92.0394 190.011 98.8456C190.011 98.8717 189.998 98.8848 189.998 98.9109C189.175 102.765 188.953 106.801 188.548 110.734C188.155 114.666 187.45 118.493 185.79 122.034C181.96 130.159 171.648 131.178 166.367 123.967C161.963 117.958 156.042 113.882 149.834 110.067C141.626 105.025 135.561 98.0226 132.476 88.8649C130.477 82.9471 131 76.6765 134.751 71.6992C141.965 62.1105 146.475 51.2807 150.722 40.2419C152.487 35.6957 154.068 31.0842 155.846 26.5511C159.61 16.9493 169.988 9.3201 180.104 10.8877C182.614 11.2797 184.849 11.2797 186.927 10.9531L186.966 11.1882C186.966 11.1882 174.785 20.6855 173.687 37.1066C172.759 50.8626 173.099 66.4868 180.235 78.6622Z" fill="#593C27"/>
<path d="M198.587 64.5791C201.85 64.5791 204.495 61.9354 204.495 58.6743C204.495 55.4132 201.85 52.7695 198.587 52.7695C195.325 52.7695 192.68 55.4132 192.68 58.6743C192.68 61.9354 195.325 64.5791 198.587 64.5791Z" fill="#593C27"/>
<path d="M262.552 64.5791C265.815 64.5791 268.46 61.9354 268.46 58.6743C268.46 55.4132 265.815 52.7695 262.552 52.7695C259.29 52.7695 256.645 55.4132 256.645 58.6743C256.645 61.9354 259.29 64.5791 262.552 64.5791Z" fill="#593C27"/>
<path d="M294.481 231.298C296.546 236.145 296.939 241.004 294.076 245.642C292.312 248.503 289.998 250.894 286.522 251.834C285.005 252.239 283.646 252.814 282.404 253.689C289.815 235.949 274.602 232.121 274.602 232.121C280.993 209.573 280.405 179.905 280.248 174.876H280.3C280.3 175.973 280.836 176.849 281.542 177.711C290.194 188.567 294.141 201.029 294.141 215.073C293.841 218.496 294.429 222.206 293.057 225.785C292.259 227.849 293.723 229.521 294.481 231.298Z" fill="#CEAE8D"/>
<path d="M280.246 174.876C280.403 179.906 280.991 209.574 274.6 232.122C274.6 232.122 289.814 235.949 282.403 253.69C281.658 254.225 280.965 254.852 280.298 255.623C277.292 259.124 273.319 247.916 268.496 247.641C265.673 247.484 262.837 247.432 260.027 247.654C253.139 248.177 245.074 206.974 245.166 234.342C245.153 231.468 243.741 230.462 241.049 230.789C234.226 231.625 227.403 218.509 220.594 217.66C218.15 217.36 217.065 218.209 216.947 220.821C216.581 228.268 211.236 233.833 203.746 234.408C199.655 234.734 195.499 234.669 191.382 234.46C187.696 234.277 184.35 259.033 181.998 256.041C181.318 255.179 180.56 254.46 179.736 253.86C172.143 235.975 187.474 232.122 187.474 232.122C180.834 208.725 181.723 177.659 181.841 174.406C181.854 174.223 181.854 174.132 181.854 174.132C181.762 164.661 183.448 155.385 185.409 146.189C186.441 141.342 188.31 136.665 189.983 131.975C190.781 129.741 191.696 129.454 193.486 131.688C197.499 136.652 202.753 139.395 209.38 138.977C212.817 138.768 215.496 137.723 217.614 134.666C218.816 132.929 220.385 131.492 222.136 130.251H222.149C222.463 130.199 227.926 129.232 230.436 129.232H238.134C241.023 131.257 243.637 133.634 245.963 136.417C248.708 139.696 252.956 139.644 256.864 138.886C261.451 137.985 265.294 135.646 268.365 132.028C270.457 129.559 271.162 129.663 272.286 132.511C275.985 141.838 278.142 151.545 279.187 161.512C279.658 165.928 280.429 170.33 280.298 174.798V174.876H280.246Z" fill="#E8C59A"/>
<path d="M245.153 92.2615C250.564 95.4621 251.806 101.393 249.022 107.272C246.33 112.994 241.35 115.894 236.057 118.467C234.645 119.16 233.116 119.512 233.246 121.485C233.377 123.667 232.854 125.914 235.403 127.442C236.344 128.004 237.246 128.592 238.135 129.232H230.436C227.927 129.232 222.464 130.198 222.15 130.251C223.431 129.336 224.803 128.526 226.189 127.808C228.842 126.436 229.012 124.241 228.999 121.798C228.973 119.617 227.365 119.133 225.757 118.31C220.934 115.841 215.902 113.451 213.537 108.121C210.53 101.367 209.851 96.3373 218.007 91.7258C227.143 86.5787 236.266 86.9968 245.153 92.2615Z" fill="#593C27"/>
<path d="M181.844 174.406C181.726 177.659 180.837 208.724 187.477 232.121C187.477 232.121 172.145 235.975 179.739 253.859C178.615 253.01 177.347 252.396 175.949 251.926C165.95 248.568 163.767 237.935 167.95 230.815C169.492 228.202 169.179 225.472 168.551 222.898C166.747 215.465 168.054 208.215 169.388 200.964C170.943 192.473 174.929 185.053 180.105 178.233C180.981 177.058 181.778 175.882 181.844 174.406Z" fill="#CEAE8D"/>
<path d="M251.742 191.781C251.742 184.922 251.912 180.023 251.703 175.151C251.193 163.302 242.92 154.17 232.869 153.295C220.034 152.185 210.937 162.518 210.035 176.901C209.695 182.257 210.205 187.639 210.466 193.009C211.224 209.09 213.289 223.055 214.936 239.058C215.25 242.089 216.635 243.761 219.197 244.806C226.15 247.628 230.895 247.445 238.018 246.348C243.795 245.459 245.638 243.108 245.952 238.444C248.853 223.316 252.069 206.869 251.742 191.794V191.781Z" fill="#F4EFE5"/>
<path d="M233.21 125.313C232.975 125.744 235.38 126.854 235.55 126.92C239.262 128.487 244.045 129.245 248.058 128.696C249.835 128.448 251.561 127.86 253.142 127.037C253.351 126.933 255.129 126.097 255.116 125.809C255.116 125.809 255.259 128.605 246.751 130.356C238.242 132.106 231.027 129.219 231.027 129.219L233.21 125.313Z" fill="#593C27"/>
<path d="M228.546 125.313C228.782 125.744 226.377 126.854 226.207 126.92C222.495 128.487 217.711 129.245 213.699 128.696C211.921 128.448 210.196 127.86 208.614 127.037C208.405 126.933 206.628 126.097 206.641 125.809C206.641 125.809 206.497 128.605 215.006 130.356C223.514 132.106 230.729 129.219 230.729 129.219L228.546 125.313Z" fill="#593C27"/>
<path d="M238.138 102.164C239.415 102.164 240.451 101.128 240.451 99.8513C240.451 98.5743 239.415 97.5391 238.138 97.5391C236.86 97.5391 235.824 98.5743 235.824 99.8513C235.824 101.128 236.86 102.164 238.138 102.164Z" fill="white"/>
<path d="M264.46 59.2887C265.412 59.2887 266.185 58.5166 266.185 57.5643C266.185 56.6119 265.412 55.8398 264.46 55.8398C263.507 55.8398 262.734 56.6119 262.734 57.5643C262.734 58.5166 263.507 59.2887 264.46 59.2887Z" fill="white"/>
<path d="M200.311 59.2887C201.264 59.2887 202.036 58.5166 202.036 57.5643C202.036 56.6119 201.264 55.8398 200.311 55.8398C199.358 55.8398 198.586 56.6119 198.586 57.5643C198.586 58.5166 199.358 59.2887 200.311 59.2887Z" fill="white"/>
<path d="M162.684 165.208L159.677 163.641C159.625 161.916 159.194 160.297 158.436 158.86L161.39 154.901C161.455 154.261 160.998 153.699 160.37 153.621L155.861 155.62C154.489 154.431 152.829 153.582 150.986 153.19L149.796 148.644C149.339 148.186 148.607 148.186 148.163 148.644L146.999 153.098C145.104 153.399 143.366 154.17 141.915 155.306L138.883 153.464C138.242 153.464 137.72 153.961 137.706 154.601L139.549 157.841C138.909 158.807 138.425 159.865 138.112 161.015L132.648 162.191C132.152 162.622 132.086 163.34 132.491 163.811L137.824 165.404C138.046 167.024 138.608 168.54 139.458 169.846L137.092 172.838C137.001 173.465 137.445 174.053 138.085 174.144L141.928 172.55C143.078 173.452 144.411 174.118 145.862 174.51L146.686 178.102C147.13 178.599 147.849 178.651 148.306 178.233L149.274 174.863C151.156 174.771 152.92 174.196 154.436 173.269L158.88 175.803C159.521 175.803 160.03 175.268 160.03 174.64L157.521 170.46C158.318 169.389 158.919 168.174 159.298 166.854L162.331 166.763C162.867 166.423 163.036 165.705 162.697 165.169L162.684 165.208Z" fill="#5FAFFE"/>
<path d="M323.957 110.406L320.951 108.839C320.899 107.114 320.467 105.494 319.709 104.057L322.663 100.099C322.728 99.4588 322.271 98.8971 321.644 98.8187L317.134 100.817C315.762 99.6287 314.102 98.7795 312.259 98.3876L311.07 93.8415C310.612 93.3842 309.88 93.3842 309.436 93.8415L308.273 98.2962C306.378 98.5966 304.639 99.3674 303.189 100.504L300.156 98.662C299.516 98.662 298.993 99.1584 298.98 99.7985L300.823 103.038C300.182 104.005 299.699 105.063 299.385 106.213L293.922 107.389C293.425 107.82 293.36 108.538 293.765 109.008L299.098 110.602C299.32 112.222 299.882 113.737 300.731 115.044L298.366 118.035C298.274 118.662 298.718 119.25 299.359 119.342L303.202 117.748C304.352 118.649 305.685 119.316 307.136 119.708L307.959 123.3C308.404 123.797 309.122 123.849 309.58 123.431L310.547 120.06C312.429 119.969 314.194 119.394 315.71 118.467L320.154 121.001C320.794 121.001 321.304 120.465 321.304 119.838L318.794 115.658C319.592 114.587 320.193 113.372 320.572 112.052L323.604 111.961C324.14 111.621 324.31 110.903 323.97 110.367L323.957 110.406Z" fill="#5FAFFE"/>
<path opacity="0.4" d="M171.778 148.148L170.876 147.677C170.863 147.155 170.732 146.671 170.51 146.24L171.399 145.051C171.425 144.855 171.281 144.686 171.098 144.673L169.752 145.273C169.347 144.921 168.837 144.659 168.288 144.542L167.935 143.17C167.804 143.04 167.582 143.04 167.438 143.17L167.085 144.503C166.51 144.594 166.001 144.829 165.556 145.169L164.641 144.62C164.445 144.62 164.288 144.764 164.288 144.96L164.837 145.94C164.641 146.227 164.498 146.554 164.406 146.893L162.759 147.246C162.615 147.377 162.589 147.599 162.707 147.729L164.301 148.213C164.367 148.696 164.537 149.153 164.798 149.545L164.092 150.447C164.066 150.643 164.197 150.812 164.393 150.839L165.543 150.355C165.883 150.63 166.288 150.826 166.719 150.943L166.968 152.027C167.098 152.171 167.321 152.197 167.451 152.067L167.739 151.061C168.301 151.035 168.837 150.865 169.281 150.577L170.614 151.335C170.81 151.335 170.954 151.178 170.954 150.982L170.209 149.728C170.444 149.402 170.627 149.049 170.745 148.644L171.66 148.618C171.817 148.513 171.869 148.304 171.765 148.134L171.778 148.148Z" fill="#5FAFFE"/>
</g>
<path d="M429.834 162.328C429.584 161.912 423.629 152.038 416.017 152.003H415.976C415.113 151.976 414.256 152.153 413.475 152.521C412.694 152.889 412.01 153.437 411.481 154.12C411.336 154.299 411.175 154.464 411 154.614C410.825 154.464 410.664 154.299 410.519 154.12C409.99 153.437 409.306 152.889 408.525 152.521C407.744 152.153 406.887 151.976 406.024 152.003H405.983C398.371 152.038 392.416 161.912 392.166 162.328C392.04 162.542 391.983 162.79 392.004 163.038C392.026 163.285 392.124 163.52 392.285 163.708C392.594 164.047 399.452 172 411 172C422.548 172 429.406 164.047 429.715 163.708C429.876 163.52 429.974 163.285 429.996 163.038C430.017 162.79 429.96 162.542 429.834 162.328ZM398.638 161.942C398.852 161.347 405.086 162.929 411 162.929C416.914 162.929 423.148 161.323 423.362 161.942C423.576 162.56 417.341 165.308 411 165.308C404.659 165.308 398.418 162.56 398.638 161.942Z" fill="#5FAFFE"/>
<defs>
<clipPath id="clip0_518_4744">
<rect width="32.78" height="31.2544" fill="white" transform="translate(395 13.9932)"/>
</clipPath>
<clipPath id="clip1_518_4744">
<rect width="34.22" height="32.3239" fill="white" transform="translate(33 14.0181)"/>
</clipPath>
<clipPath id="clip2_518_4744">
<rect width="200" height="261.065" fill="white" transform="translate(131 0.0180664)"/>
</clipPath>
</defs>
</svg>
