<svg width="68" height="68" viewBox="0 0 68 68" fill="none" xmlns="http://www.w3.org/2000/svg">
<rect width="68" height="68" fill="white" style="mix-blend-mode:multiply"/>
<path d="M57.3771 59.5C57.0469 59.5006 56.7211 59.4241 56.4256 59.2765C56.1302 59.1289 55.8733 58.9144 55.6754 58.65L53.9446 56.3423C52.3036 54.155 51.1509 51.6411 50.5641 48.9704C49.9774 46.2996 49.9704 43.5341 50.5436 40.8604L53.675 26.2484C54.1212 24.1689 54.1161 22.0177 53.6598 19.9403C53.2035 17.8629 52.3068 15.9076 51.0302 14.2065L49.3 11.9C49.1326 11.6768 49.0107 11.4227 48.9415 11.1524C48.8722 10.8821 48.8569 10.6007 48.8964 10.3245C48.9358 10.0482 49.0293 9.78246 49.1715 9.54233C49.3137 9.30221 49.5018 9.09244 49.725 8.92501C49.9482 8.75757 50.2023 8.63575 50.4726 8.56649C50.7429 8.49724 51.0243 8.4819 51.3005 8.52137C51.5768 8.56083 51.8425 8.65432 52.0827 8.7965C52.3228 8.93868 52.5326 9.12676 52.7 9.35001L54.4308 11.6571C56.0718 13.8444 57.2246 16.3583 57.8113 19.029C58.398 21.6998 58.405 24.4653 57.8319 27.139L54.7005 41.7509C54.2542 43.8305 54.2594 45.9816 54.7156 48.059C55.1719 50.1364 56.0686 52.0917 57.3453 53.7929L59.075 56.1C59.3117 56.4156 59.4558 56.7908 59.4914 57.1836C59.5269 57.5765 59.4524 57.9715 59.2761 58.3244C59.0999 58.6773 58.8289 58.9742 58.4935 59.1818C58.1581 59.3894 57.7716 59.4996 57.3771 59.5Z" fill="white"/>
<path d="M46.7521 59.5C46.4219 59.5006 46.0961 59.4241 45.8006 59.2765C45.5052 59.1289 45.2483 58.9144 45.0504 58.65L43.3196 56.3423C41.6786 54.155 40.5259 51.6411 39.9391 48.9704C39.3524 46.2996 39.3454 43.5341 39.9186 40.8604L43.05 26.2484C43.4962 24.1689 43.4911 22.0177 43.0348 19.9403C42.5785 17.8629 41.6818 15.9076 40.4052 14.2065L38.675 11.9C38.5076 11.6768 38.3857 11.4227 38.3165 11.1524C38.2472 10.8821 38.2319 10.6007 38.2714 10.3245C38.3108 10.0482 38.4043 9.78246 38.5465 9.54233C38.6887 9.30221 38.8768 9.09244 39.1 8.92501C39.3232 8.75757 39.5773 8.63575 39.8476 8.56649C40.1179 8.49724 40.3993 8.4819 40.6755 8.52137C40.9518 8.56083 41.2175 8.65432 41.4577 8.7965C41.6978 8.93868 41.9076 9.12676 42.075 9.35001L43.8058 11.6571C45.4468 13.8444 46.5996 16.3583 47.1863 19.029C47.773 21.6998 47.78 24.4653 47.2069 27.139L44.0755 41.7509C43.6292 43.8305 43.6344 45.9816 44.0906 48.059C44.5469 50.1364 45.4436 52.0917 46.7203 53.7929L48.45 56.1C48.6867 56.4156 48.8308 56.7908 48.8664 57.1836C48.9019 57.5765 48.8274 57.9715 48.6511 58.3244C48.4749 58.6773 48.2039 58.9742 47.8685 59.1818C47.5331 59.3894 47.1466 59.4996 46.7521 59.5Z" fill="white"/>
<path d="M36.1271 59.5C35.7969 59.5006 35.4711 59.4241 35.1756 59.2765C34.8802 59.1289 34.6233 58.9144 34.4254 58.65L32.6946 56.3423C31.0536 54.155 29.9009 51.6411 29.3141 48.9704C28.7274 46.2996 28.7204 43.5341 29.2936 40.8604L32.4249 26.2484C32.8712 24.1689 32.8661 22.0177 32.4098 19.9403C31.9535 17.8629 31.0568 15.9076 29.7802 14.2065L28.05 11.9C27.8826 11.6768 27.7607 11.4227 27.6915 11.1524C27.6222 10.8821 27.6069 10.6007 27.6464 10.3245C27.6858 10.0482 27.7793 9.78246 27.9215 9.54234C28.0637 9.30221 28.2518 9.09244 28.475 8.92501C28.6982 8.75757 28.9523 8.63575 29.2226 8.56649C29.4929 8.49724 29.7743 8.4819 30.0505 8.52137C30.3268 8.56083 30.5926 8.65432 30.8327 8.7965C31.0728 8.93868 31.2826 9.12676 31.45 9.35001L33.1808 11.6571C34.8218 13.8444 35.9746 16.3583 36.5613 19.029C37.148 21.6998 37.155 24.4653 36.5819 27.139L33.4505 41.7509C33.0042 43.8305 33.0094 45.9816 33.4656 48.059C33.9219 50.1364 34.8186 52.0917 36.0953 53.7929L37.825 56.1C38.0617 56.4156 38.2058 56.7908 38.2414 57.1836C38.2769 57.5765 38.2024 57.9715 38.0261 58.3244C37.8499 58.6773 37.5789 58.9742 37.2435 59.1818C36.9081 59.3894 36.5216 59.4996 36.1271 59.5Z" fill="white"/>
<path d="M25.5021 59.5C25.1719 59.5006 24.8461 59.4241 24.5506 59.2765C24.2552 59.1289 23.9983 58.9144 23.8004 58.65L22.0696 56.3423C20.4286 54.155 19.2759 51.6411 18.6891 48.9704C18.1024 46.2996 18.0954 43.5341 18.6686 40.8604L21.7999 26.2484C22.2462 24.1689 22.241 22.0178 21.7847 19.9405C21.3285 17.8631 20.4318 15.9078 19.1552 14.2067L17.425 11.9C17.0868 11.4491 16.9417 10.8824 17.0214 10.3245C17.1011 9.76657 17.3991 9.26316 17.85 8.92501C18.3009 8.58686 18.8676 8.44166 19.4255 8.52137C19.9834 8.60107 20.4868 8.89914 20.825 9.35001L22.5558 11.6571C24.1968 13.8444 25.3496 16.3583 25.9363 19.029C26.523 21.6998 26.53 24.4653 25.9569 27.139L22.8255 41.7509C22.3792 43.8305 22.3844 45.9816 22.8406 48.059C23.2969 50.1364 24.1936 52.0917 25.4703 53.7929L27.2 56.1C27.4367 56.4156 27.5808 56.7908 27.6164 57.1836C27.6519 57.5765 27.5774 57.9715 27.4011 58.3244C27.2249 58.6773 26.9539 58.9742 26.6185 59.1818C26.2831 59.3894 25.8966 59.4996 25.5021 59.5Z" fill="white"/>
<path d="M14.8771 59.5C14.5468 59.5007 14.2209 59.4242 13.9254 59.2766C13.6299 59.129 13.3729 58.9145 13.175 58.65L11.4442 56.3423C9.80336 54.1549 8.6508 51.641 8.06427 48.9702C7.47774 46.2995 7.47089 43.534 8.04419 40.8604L11.1756 26.2484C11.6217 24.1689 11.6165 22.0177 11.1601 19.9404C10.7037 17.863 9.80689 15.9078 8.53018 14.2067L6.8 11.9C6.63256 11.6768 6.51074 11.4227 6.44148 11.1524C6.37223 10.8821 6.35689 10.6007 6.39636 10.3245C6.43582 10.0482 6.52931 9.78246 6.67149 9.54234C6.81367 9.30221 7.00175 9.09244 7.225 8.92501C7.44825 8.75757 7.70229 8.63575 7.97262 8.56649C8.24294 8.49724 8.52427 8.4819 8.80052 8.52137C9.07677 8.56083 9.34255 8.65432 9.58267 8.7965C9.8228 8.93868 10.0326 9.12676 10.2 9.35001L11.9308 11.6571C13.5718 13.8444 14.7246 16.3583 15.3113 19.029C15.898 21.6998 15.905 24.4653 15.3319 27.139L12.2 41.7507C11.7538 43.8303 11.7589 45.9814 12.2152 48.0588C12.6715 50.1362 13.5682 52.0915 14.8448 53.7927L16.575 56.1C16.8117 56.4156 16.9558 56.7908 16.9914 57.1836C17.0269 57.5765 16.9524 57.9715 16.7761 58.3244C16.5999 58.6773 16.3289 58.9742 15.9935 59.1818C15.6581 59.3894 15.2716 59.4996 14.8771 59.5Z" fill="white"/>
</svg>
